<?xml version="1.0" encoding="utf-8"?>
<!-- Generator: Adobe Illustrator 19.1.0, SVG Export Plug-In . SVG Version: 6.00 Build 0)  -->
<svg version="1.1" id="Layer_1" xmlns="http://www.w3.org/2000/svg" xmlns:xlink="http://www.w3.org/1999/xlink" x="0px" y="0px"
	 viewBox="0 0 500 500" style="enable-background:new 0 0 500 500;" xml:space="preserve">
<style type="text/css">
	.st0{fill:#E7E7E7;}
	.st1{fill:#15334F;}
	.st2{fill:#E95458;}
	.st3{fill:#FCB72B;}
	.st4{fill:#61CB81;}
	.st5{fill:#7E8082;}
	.st6{fill:#FFFFFF;}
	.st7{fill:#212121;}
	.st8{fill:#FFFFFF;stroke:#D6D6D6;stroke-miterlimit:10;}
	.st9{fill:none;}
	.st10{fill:#EEDB2E;}
	.st11{fill:#222840;}
	.st12{fill:#34C1DC;}
	.st13{fill:#EEE2F5;}
</style>
<g>
	<rect x="48.1" y="176.1" class="st0" width="265.3" height="177.7"/>
	<rect x="48.1" y="176.1" class="st1" width="265.3" height="29.1"/>
	<circle class="st2" cx="60.8" cy="187.6" r="4.5"/>
	<circle class="st3" cx="77.5" cy="187.6" r="4.5"/>
	<circle class="st4" cx="92.4" cy="187.6" r="4.5"/>
	<g>
		<g>
			<g>
				<g>
					<path class="st5" d="M79.3,242.5v-9.5h1.2v8.5h4.4v1.1H79.3z"/>
					<path class="st5" d="M85.7,237.7c0-2.8,1.9-4.9,4.7-4.9c2.8,0,4.7,2.1,4.7,4.9s-1.9,4.9-4.7,4.9
						C87.6,242.6,85.7,240.5,85.7,237.7z M93.9,237.7c0-2.2-1.4-3.9-3.5-3.9c-2.1,0-3.5,1.6-3.5,3.9c0,2.2,1.4,3.9,3.5,3.9
						C92.5,241.6,93.9,239.9,93.9,237.7z"/>
					<path class="st5" d="M96.6,237.7c0-3,2.2-4.9,4.9-4.9c1.7,0,2.8,0.7,3.7,1.8l-0.9,0.6c-0.6-0.8-1.6-1.3-2.7-1.3
						c-2.1,0-3.7,1.6-3.7,3.9c0,2.3,1.6,3.9,3.7,3.9c1.1,0,2.1-0.6,2.5-1v-1.9h-3.3v-1.1h4.4v3.4c-0.9,1-2.2,1.6-3.7,1.6
						C98.8,242.6,96.6,240.7,96.6,237.7z"/>
					<path class="st5" d="M107.1,242.5v-9.5h1.2v9.5H107.1z"/>
					<path class="st5" d="M117.2,242.5l-5.5-7.6v7.6h-1.2v-9.5h1.2l5.5,7.4v-7.4h1.2v9.5H117.2z"/>
				</g>
			</g>
			<rect x="77.5" y="250.2" class="st6" width="199.5" height="29.8"/>
			<rect x="77.5" y="283.8" class="st6" width="199.5" height="29.8"/>
		</g>
		<g>
			<path class="st7" d="M86.4,272.3l0.5-0.7c0.3,0.4,0.8,0.7,1.4,0.7c0.9,0,1.5-0.6,1.5-1.6v-5.3h0.9v5.3c0,1.6-1,2.4-2.4,2.4
				C87.6,273.2,86.9,273,86.4,272.3z"/>
			<path class="st7" d="M92.2,269.3c0-2.2,1.5-3.9,3.7-3.9c2.2,0,3.7,1.7,3.7,3.9c0,2.2-1.5,3.9-3.7,3.9
				C93.7,273.2,92.2,271.5,92.2,269.3z M98.7,269.3c0-1.8-1.1-3.1-2.8-3.1c-1.7,0-2.8,1.3-2.8,3.1c0,1.8,1.1,3.1,2.8,3.1
				C97.6,272.4,98.7,271.1,98.7,269.3z"/>
			<path class="st7" d="M106.5,273.1v-3.5h-4.4v3.5h-0.9v-7.5h0.9v3.2h4.4v-3.2h0.9v7.5H106.5z"/>
			<path class="st7" d="M114.5,273.1l-4.4-6v6h-0.9v-7.5h1l4.3,5.9v-5.9h0.9v7.5H114.5z"/>
			<path class="st7" d="M116.2,274.2v-0.6h6.4v0.6H116.2z"/>
			<path class="st7" d="M123,272l0.6-0.7c0.5,0.6,1.3,1.1,2.4,1.1c1.3,0,1.8-0.7,1.8-1.3c0-1.9-4.5-0.9-4.5-3.6
				c0-1.2,1.1-2.1,2.6-2.1c1.1,0,2,0.4,2.7,1.1l-0.6,0.7c-0.6-0.6-1.4-0.9-2.2-0.9c-0.9,0-1.5,0.5-1.5,1.2c0,1.7,4.5,0.7,4.5,3.5
				c0,1.1-0.7,2.2-2.8,2.2C124.6,273.2,123.6,272.7,123,272z"/>
			<path class="st7" d="M136.5,273.1v-6.2l-2.6,6.2h-0.4l-2.5-6.2v6.2h-0.9v-7.5h1.3l2.3,5.7l2.3-5.7h1.3v7.5H136.5z"/>
			<path class="st7" d="M139.2,273.1v-7.5h0.9v7.5H139.2z"/>
			<path class="st7" d="M143.7,273.1v-6.7h-2.4v-0.8h5.7v0.8h-2.4v6.7H143.7z"/>
			<path class="st7" d="M153.6,273.1v-3.5h-4.4v3.5h-0.9v-7.5h0.9v3.2h4.4v-3.2h0.9v7.5H153.6z"/>
		</g>
		<g>
			<path d="M88.2,300.2c0.2-1.3,0.3-2.1,0.6-2.7c0.1-0.2,1.4-0.2,1.6,0.1c0.3,0.5,0.5,1.5,0.3,1.9C90.2,299.8,89.3,299.8,88.2,300.2
				z"/>
			<path d="M96,300.1c-0.7-0.2-1.5-0.3-1.9-0.8c-0.3-0.3-0.1-1.3,0.2-1.7c0.3-0.3,1.4-0.4,1.6-0.2c0.4,0.6,0.5,1.4,0.7,2.2
				C96.3,299.8,96.2,299.9,96,300.1z"/>
			<path d="M99.5,299.7c0.1-0.8,0.2-1.6,0.5-2.2c0.1-0.2,1.4-0.2,1.6,0c0.3,0.5,0.5,1.5,0.3,1.8c-0.4,0.5-1.3,0.5-1.9,0.7
				C99.8,299.9,99.7,299.8,99.5,299.7z"/>
			<path d="M113.5,300.2c-1.2-0.3-2.1-0.4-2.5-0.8c-0.3-0.3-0.1-1.4,0.2-1.9c0.2-0.3,1.5-0.3,1.6-0.1
				C113.2,298.1,113.2,298.9,113.5,300.2z"/>
			<path d="M107.2,300.1c-0.7-0.3-1.5-0.3-1.9-0.8c-0.3-0.3-0.1-1.3,0.2-1.7c0.3-0.3,1.5-0.3,1.6-0.1c0.4,0.6,0.4,1.5,0.6,2.2
				C107.6,299.8,107.4,300,107.2,300.1z"/>
			<path d="M124.2,300.1c-0.6-0.2-1.6-0.2-1.9-0.6c-0.3-0.4-0.1-1.4,0.2-1.9c0.2-0.3,1.4-0.3,1.6-0.1c0.4,0.6,0.4,1.5,0.6,2.2
				C124.5,299.8,124.4,299.9,124.2,300.1z"/>
			<path d="M129.9,300c-0.7-0.2-1.6-0.1-1.9-0.6c-0.3-0.4-0.2-1.4,0.1-1.9c0.2-0.3,1.4-0.4,1.6-0.1c0.4,0.6,0.5,1.4,0.6,2.2
				C130.2,299.8,130,299.9,129.9,300z"/>
			<path d="M118.9,298.7c0.1,0.9-0.4,1.2-1.3,1.2c-1.1,0-1.1-0.6-1.2-1.4c0-0.9,0.4-1.2,1.3-1.2C118.7,297.2,119,297.8,118.9,298.7z
				"/>
		</g>
	</g>
	<g>
		<g>
			<path class="st8" d="M297.1,250.2h131.1c13,0,23.6-10.5,23.6-23.6v-56.7c0-13-10.5-23.6-23.6-23.6H297.1
				c-13,0-23.6,10.5-23.6,23.6v56.7C273.6,239.7,284.1,250.2,297.1,250.2z"/>
			<path class="st9" d="M436.9,250.3H288.4c-8.3,0-15-6.7-15-15v-74.1c0-8.3,6.7-15,15-15h148.5c8.3,0,15,6.7,15,15v74.1
				C451.9,243.6,445.2,250.3,436.9,250.3z M288.4,146.5c-8.1,0-14.7,6.6-14.7,14.7v74.1c0,8.1,6.6,14.7,14.7,14.7h148.5
				c8.1,0,14.7-6.6,14.7-14.7v-74.1c0-8.1-6.6-14.7-14.7-14.7H288.4z"/>
		</g>
		<g>
			<path class="st7" d="M301.6,188.6V179h1.2v8.5h4.4v1.1H301.6z"/>
			<path class="st7" d="M308,183.8c0-2.8,1.9-4.9,4.7-4.9c2.8,0,4.7,2.1,4.7,4.9c0,2.8-1.9,4.9-4.7,4.9
				C309.9,188.7,308,186.6,308,183.8z M316.2,183.8c0-2.2-1.4-3.9-3.5-3.9c-2.1,0-3.5,1.6-3.5,3.9c0,2.2,1.4,3.9,3.5,3.9
				C314.8,187.7,316.2,186,316.2,183.8z"/>
			<path class="st7" d="M318.9,183.8c0-3,2.2-4.9,4.9-4.9c1.7,0,2.8,0.7,3.7,1.8l-0.9,0.6c-0.6-0.8-1.6-1.3-2.7-1.3
				c-2.1,0-3.7,1.6-3.7,3.9c0,2.3,1.6,3.9,3.7,3.9c1.1,0,2.1-0.6,2.5-1v-1.9h-3.3v-1.1h4.4v3.4c-0.9,1-2.2,1.6-3.7,1.6
				C321.1,188.8,318.9,186.8,318.9,183.8z"/>
			<path class="st7" d="M329.4,188.6V179h1.2v9.5H329.4z"/>
			<path class="st7" d="M339.5,188.6L334,181v7.6h-1.2V179h1.2l5.5,7.4V179h1.2v9.5H339.5z"/>
			<path class="st7" d="M352.1,188.6l-2.4-3.8h-1.9v3.8h-1.2V179h3.8c1.7,0,3,1.1,3,2.9c0,1.7-1.2,2.7-2.5,2.8l2.6,3.9H352.1z
				 M352.1,181.9c0-1.1-0.8-1.8-1.9-1.8h-2.5v3.6h2.5C351.4,183.7,352.1,183,352.1,181.9z"/>
			<path class="st7" d="M355.2,188.6V179h6.2v1.1h-5v3.1h4.9v1.1h-4.9v3.3h5v1.1H355.2z"/>
			<path class="st7" d="M362.9,183.8c0-2.8,1.9-4.9,4.7-4.9c2.8,0,4.7,2.1,4.7,4.9c0,1.4-0.5,2.6-1.3,3.5l0.9,1l-0.8,0.7l-0.9-1
				c-0.7,0.5-1.6,0.7-2.6,0.7C364.8,188.7,362.9,186.6,362.9,183.8z M369.5,187.2l-1.4-1.5l0.8-0.7l1.3,1.5c0.6-0.7,0.9-1.6,0.9-2.7
				c0-2.2-1.4-3.9-3.5-3.9c-2.1,0-3.5,1.6-3.5,3.9c0,2.2,1.4,3.9,3.5,3.9C368.3,187.7,368.9,187.5,369.5,187.2z"/>
			<path class="st7" d="M374.2,184.9V179h1.2v5.8c0,1.7,0.9,2.8,2.7,2.8c1.8,0,2.7-1.1,2.7-2.8V179h1.2v5.8c0,2.4-1.3,3.9-3.9,3.9
				C375.5,188.7,374.2,187.2,374.2,184.9z"/>
			<path class="st7" d="M384.2,188.6V179h6.2v1.1h-5v3.1h4.9v1.1h-4.9v3.3h5v1.1H384.2z"/>
			<path class="st7" d="M391.7,187.2l0.7-0.9c0.6,0.7,1.7,1.4,3,1.4c1.7,0,2.2-0.9,2.2-1.6c0-2.5-5.6-1.1-5.6-4.5
				c0-1.6,1.4-2.6,3.3-2.6c1.5,0,2.6,0.5,3.4,1.3l-0.7,0.9c-0.7-0.8-1.7-1.1-2.7-1.1c-1.1,0-1.9,0.6-1.9,1.5c0,2.1,5.6,0.9,5.6,4.5
				c0,1.4-0.9,2.8-3.5,2.8C393.7,188.7,392.5,188.1,391.7,187.2z"/>
			<path class="st7" d="M402.9,188.6v-8.5h-3V179h7.2v1.1h-3v8.5H402.9z"/>
		</g>
		<rect x="303.7" y="203.3" class="st10" width="53.1" height="26.1"/>
		<rect x="370.8" y="203.3" class="st11" width="53.1" height="26.1"/>
		<g>
			<g>
				<path class="st6" d="M316.5,220.5l-0.5-1.3h-2.9l-0.5,1.3h-0.8l2.3-5.8h0.9l2.3,5.8H316.5z M314.6,215.4l-1.2,3.1h2.4
					L314.6,215.4z"/>
				<path class="st6" d="M318.1,220.5v-5.8h2.3c1.2,0,1.8,0.8,1.8,1.7c0,0.9-0.7,1.7-1.8,1.7h-1.6v2.3H318.1z M321.4,216.4
					c0-0.6-0.5-1.1-1.1-1.1h-1.5v2.2h1.5C321,217.5,321.4,217.1,321.4,216.4z"/>
				<path class="st6" d="M323.1,220.5v-5.8h2.3c1.2,0,1.8,0.8,1.8,1.7c0,0.9-0.7,1.7-1.8,1.7h-1.6v2.3H323.1z M326.5,216.4
					c0-0.6-0.5-1.1-1.1-1.1h-1.5v2.2h1.5C326,217.5,326.5,217.1,326.5,216.4z"/>
				<path class="st6" d="M331.5,220.5l-1.5-2.3h-1.1v2.3h-0.7v-5.8h2.3c1,0,1.8,0.7,1.8,1.7c0,1-0.7,1.6-1.5,1.7l1.5,2.3H331.5z
					 M331.5,216.4c0-0.6-0.5-1.1-1.1-1.1h-1.5v2.2h1.5C331.1,217.5,331.5,217.1,331.5,216.4z"/>
				<path class="st6" d="M333.2,217.6c0-1.7,1.1-3,2.8-3c1.7,0,2.8,1.3,2.8,3c0,1.7-1.2,3-2.8,3
					C334.3,220.6,333.2,219.3,333.2,217.6z M338.1,217.6c0-1.3-0.8-2.3-2.1-2.3c-1.3,0-2.1,1-2.1,2.3c0,1.3,0.8,2.3,2.1,2.3
					C337.3,219.9,338.1,218.9,338.1,217.6z"/>
				<path class="st6" d="M341.5,220.5l-2.3-5.8h0.8l1.9,5l1.9-5h0.8l-2.3,5.8H341.5z"/>
				<path class="st6" d="M345.4,220.5v-5.8h3.8v0.6h-3v1.9h3v0.6h-3v2h3v0.6H345.4z"/>
			</g>
		</g>
		<g>
			<path class="st6" d="M386.8,220.5v-5.8h2c1.8,0,2.9,1.3,2.9,2.9c0,1.6-1.2,2.9-2.9,2.9H386.8z M391,217.6c0-1.2-0.8-2.2-2.2-2.2
				h-1.2v4.5h1.2C390.2,219.8,391,218.8,391,217.6z"/>
			<path class="st6" d="M392.8,220.5v-5.8h3.8v0.6h-3v1.9h3v0.6h-3v2h3v0.6H392.8z"/>
			<path class="st6" d="M401.8,220.5l-3.3-4.6v4.6h-0.7v-5.8h0.7l3.3,4.5v-4.5h0.7v5.8H401.8z"/>
			<path class="st6" d="M405.5,220.5V218l-2.3-3.3h0.8l1.8,2.7l1.8-2.7h0.8l-2.3,3.3v2.4H405.5z"/>
		</g>
	</g>
	<path class="st12" d="M380.3,322.2L380.3,322.2c-13.8,0-25-11.2-25-25v0c0-13.8,11.2-25,25-25h0c13.8,0,25,11.2,25,25v0
		C405.3,311.1,394.1,322.2,380.3,322.2z"/>
	<g>
		<g>
			<path class="st6" d="M369,292.2c-0.4,1-0.8,2-1,3c-1.1,5.1,1,10.5,5.3,13.4c4.5,3,9.3,3.3,14.1,0.6c4.7-2.6,7.1-7.5,6.5-12.8
				c-0.1-1.3-0.5-2.6-1-3.8c-0.1-0.3-0.1-0.4,0.3-0.4c1,0,2,0,3,0c0.3,0,0.4,0.1,0.5,0.4c1.4,4.3,1.2,8.5-0.8,12.6
				c-2.3,4.7-6,7.7-11.1,8.9c-5.2,1.2-9.9,0.2-14.1-3.1c-4.9-3.9-6.9-9.1-6.2-15.3c0.1-1,0.4-2.1,0.7-3.1c0.1-0.2,0.1-0.3,0.4-0.3
				C366.7,292.2,367.8,292.2,369,292.2z"/>
			<path class="st6" d="M395.8,286.6c0,1.6-1.3,2.9-2.9,2.9c-1.6,0-2.9-1.4-2.9-2.9c0-1.6,1.3-2.9,2.9-2.9
				C394.5,283.7,395.8,285,395.8,286.6z"/>
			<path class="st6" d="M368.8,283.6c1.6,0,2.9,1.3,2.9,2.9c0,1.6-1.3,2.9-2.9,2.9c-1.6,0-2.9-1.3-2.9-2.9
				C365.9,284.8,367.2,283.5,368.8,283.6z"/>
		</g>
	</g>
</g>
</svg>
