<?xml version="1.0" encoding="utf-8"?>
<!-- Generator: Adobe Illustrator 19.1.0, SVG Export Plug-In . SVG Version: 6.00 Build 0)  -->
<svg version="1.1" xmlns="http://www.w3.org/2000/svg" xmlns:xlink="http://www.w3.org/1999/xlink" x="0px" y="0px"
	 viewBox="0 0 100 100" style="enable-background:new 0 0 100 100;" xml:space="preserve">
<style type="text/css">
	.st0{display:none;}
	.st1{display:inline;}
	.st2{fill:#FFFFFF;}
	.st3{fill:#34C1DC;}
	.st4{fill:#1D4C78;stroke:#FFFFFF;stroke-miterlimit:10;}
	.st5{fill:#F4F4F4;}
</style>
<g id="Layer_1" class="st0">
	<g class="st1">
		<circle class="st3" cx="49.4" cy="50" r="44.7"/>
		<g>
			<path class="st2" d="M51.4,30c0.3,0.6,0.9,0.2,1.3,0.3c1.6,0.4,3.1,0.8,4.6,1.4c1.9,0.7,3.5,1.6,5,2.8c1.8,1.4,3.4,3.1,4.7,5
				c0.4,0.6,0.3,0.8-0.3,1c-1.2,0.4-2.4,0.9-3.6,1.3c-0.6,0.2-1,0.1-1.4-0.4c-2.4-3-5.6-5-9.4-5.7c-6-1.1-11,0.8-14.9,5.3
				c-5.5,6.3-4.8,15.9,1.4,21.6c4.7,4.3,10.1,5.2,16,3.1c5.7-2,9-6.3,10.1-12.3c0.1-0.5,0.2-1,0.1-1.5c-0.3-1.6,0.5-2.3,1.9-2.7
				c0.8-0.2,1.6-0.6,2.5-0.9c0.8-0.3,1,0,1.1,0.7c0.1,3.1-0.1,6.2-1.3,9.1c-2.7,7.1-7.8,11.5-15.1,13.4c-0.8,0.2-1.6,0.1-2.4,0.6
				c-1.6,0-3.2,0-4.8,0c-0.2-0.3-0.5-0.2-0.7-0.3c-8.2-1.5-13.7-6.1-16.7-13.8c-0.6-1.5-0.6-3.1-1.3-4.6c0-1.7,0-3.5,0-5.2
				c0.4-0.4,0.4-0.9,0.5-1.3c1.7-7.5,6.2-12.7,13.4-15.6c1.4-0.6,3-0.6,4.4-1.3C48,30,49.7,30,51.4,30z"/>
			<path class="st2" d="M90.4,43c-0.7,0.8-1.7,0.9-2.6,1.1c-4.3,0.9-8.5,2.1-12.7,3.1c-1.3,0.3-2.3,0.1-3.2-0.8
				c-0.8-0.7-1.6-0.7-2.6-0.3c-5,1.9-10,3.7-15,5.6c-0.6,0.2-1,0.5-1.3,1.1c-1.2,2.3-3.8,3-6,1.7c-2.1-1.3-2.6-3.9-1.3-6
				c1.4-2.1,4.2-2.5,6.2-0.9c0.4,0.3,0.7,0.4,1.2,0.2c5.3-2,10.6-4,16-5.9c0.6-0.2,0.7-0.6,0.7-1.1c0-1.7,0.8-2.6,2.3-3.4
				c3.7-2,7.3-4.1,10.9-6.2c0.5-0.3,1.1-1,1.7-0.5c0.5,0.4-0.1,1-0.3,1.6c-0.6,1.8-1.2,3.7-1.9,5.5c-0.3,0.7-0.1,1.1,0.6,1.4
				c2.5,1.2,4.9,2.4,7.3,3.7C90.4,42.8,90.4,42.9,90.4,43z"/>
			<path class="st2" d="M49.4,62.6c-8.1,0-14-8.1-10.7-16c3.2-7.5,12.6-9.4,18.6-3.8c0.9,0.8,0.8,0.8-0.3,1.3
				c-1.2,0.6-2.1,0.4-3.3-0.3c-3.7-2.3-8.3-1.6-11.3,2.2c-2.8,3.6-2,8.8,1.5,11.8c4.6,3.8,11.3,1.6,13.2-3.3
				c0.5-1.4,1.3-2.2,2.7-2.5c0.7-0.1,1.1-0.1,0.9,0.9C59.6,58.6,55.1,62.4,49.4,62.6z"/>
		</g>
	</g>
</g>
<g id="Layer_2">
	<g>
		<circle class="st4" cx="50" cy="50" r="35.7"/>
		<g>
			<g>
				<path class="st5" d="M60,55.5c0.5,0.2,0.9,0.6,1.2,1.1c0.3,0.5,0.5,1,0.5,1.6c0,0.8-0.3,1.5-0.9,2.1s-1.3,0.9-2.1,0.9
					s-1.5-0.3-2.1-0.9c-0.6-0.6-0.9-1.3-0.9-2.1c0-0.6,0.2-1.2,0.5-1.6c0.3-0.5,0.7-0.8,1.2-1.1v-2.9c0-0.5-0.2-1-0.5-1.3
					s-0.8-0.5-1.3-0.5h-2.5c-0.3,0-0.7,0-1-0.1c-0.3-0.1-0.6-0.2-0.9-0.3v5.2c0.5,0.2,0.9,0.6,1.3,1.1c0.3,0.5,0.5,1,0.5,1.6
					c0,0.8-0.3,1.5-0.9,2.1s-1.3,0.9-2.1,0.9s-1.5-0.3-2.1-0.9C47.3,59.7,47,59,47,58.2c0-0.6,0.2-1.2,0.5-1.6
					c0.3-0.5,0.7-0.8,1.3-1.1v-5.2c-0.3,0.1-0.6,0.3-0.9,0.3c-0.3,0.1-0.6,0.1-1,0.1h-2.5c-0.5,0-1,0.2-1.3,0.5s-0.5,0.8-0.5,1.3
					v2.9c0.5,0.2,0.9,0.6,1.2,1.1c0.3,0.5,0.5,1,0.5,1.6c0,0.8-0.3,1.5-0.9,2.1s-1.3,0.9-2.1,0.9s-1.5-0.3-2.1-0.9
					c-0.6-0.6-0.9-1.3-0.9-2.1c0-0.6,0.2-1.2,0.5-1.6c0.3-0.5,0.7-0.8,1.2-1.1v-2.9c0-1.2,0.4-2.2,1.3-3.1s1.9-1.3,3.1-1.3h2.5
					c0.5,0,1-0.2,1.3-0.5s0.5-0.8,0.5-1.3v-2.9c-0.5-0.2-0.9-0.6-1.3-1.1c-0.3-0.5-0.5-1-0.5-1.6c0-0.8,0.3-1.5,0.9-2.1
					s1.3-0.9,2.1-0.9s1.5,0.3,2.1,0.9s0.9,1.3,0.9,2.1c0,0.6-0.2,1.1-0.5,1.6c-0.3,0.5-0.7,0.8-1.3,1.1v2.9c0,0.5,0.2,1,0.5,1.3
					s0.8,0.5,1.3,0.5h2.5c1.2,0,2.3,0.4,3.1,1.3s1.3,1.9,1.3,3.1V55.5z M41.3,59.9c0.5,0,0.9-0.2,1.2-0.5s0.5-0.7,0.5-1.2
					c0-0.5-0.2-0.9-0.5-1.2c-0.3-0.3-0.7-0.5-1.2-0.5c-0.5,0-0.9,0.2-1.2,0.5c-0.3,0.3-0.5,0.7-0.5,1.2c0,0.5,0.2,0.9,0.5,1.2
					S40.8,59.9,41.3,59.9z M50,39c-0.5,0-0.9,0.2-1.2,0.5c-0.3,0.3-0.5,0.7-0.5,1.2c0,0.5,0.2,0.9,0.5,1.2s0.7,0.5,1.2,0.5
					c0.5,0,0.9-0.2,1.2-0.5s0.5-0.7,0.5-1.2c0-0.5-0.2-0.9-0.5-1.2C50.9,39.1,50.5,39,50,39z M50,59.9c0.5,0,0.9-0.2,1.2-0.5
					s0.5-0.7,0.5-1.2c0-0.5-0.2-0.9-0.5-1.2c-0.3-0.3-0.7-0.5-1.2-0.5c-0.5,0-0.9,0.2-1.2,0.5c-0.3,0.3-0.5,0.7-0.5,1.2
					c0,0.5,0.2,0.9,0.5,1.2S49.5,59.9,50,59.9z M58.7,59.9c0.5,0,0.9-0.2,1.2-0.5s0.5-0.7,0.5-1.2c0-0.5-0.2-0.9-0.5-1.2
					c-0.3-0.3-0.7-0.5-1.2-0.5c-0.5,0-0.9,0.2-1.2,0.5c-0.3,0.3-0.5,0.7-0.5,1.2c0,0.5,0.2,0.9,0.5,1.2S58.3,59.9,58.7,59.9z"/>
			</g>
		</g>
	</g>
</g>
</svg>
