<?xml version="1.0" encoding="utf-8"?>
<!-- Generator: Adobe Illustrator 19.1.0, SVG Export Plug-In . SVG Version: 6.00 Build 0)  -->
<svg version="1.1" xmlns="http://www.w3.org/2000/svg" xmlns:xlink="http://www.w3.org/1999/xlink" x="0px" y="0px"
	 viewBox="0 0 100 100" style="enable-background:new 0 0 100 100;" xml:space="preserve">
<style type="text/css">
	.st0{display:none;}
	.st1{display:inline;}
	.st2{fill:#FFFFFF;}
	.st3{fill:#34C1DC;}
	.st4{fill:#1D4C78;stroke:#FFFFFF;stroke-miterlimit:10;}
	.st5{fill:#F4F4F4;}
</style>
<g id="Layer_1" class="st0">
	<g class="st1">
		<circle class="st3" cx="50" cy="50" r="44.7"/>
		<g>
			<path class="st2" d="M59.3,27.3c0.8,0,1.5,0,2.4,0c0.1,0.8,0.1,1.5,0.2,2.4c0.8,0,1.6,0,2.5,0c0.1-0.7,0.2-1.5,0.2-2.4
				c0.8,0,1.5,0,2.3,0c0.1,0.8,0.2,1.6,0.3,2.5c0.6,0,1.2,0,1.8,0c0.6,0,1.2,0,2,0c0,1.4,0,2.5,0,3.8c0.9,0.1,1.7,0.2,2.6,0.3
				c0,0.8,0,1.5,0,2.3c-0.8,0.1-1.5,0.2-2.4,0.3c0,0.8,0,1.6,0,2.6c0.8,0.1,1.5,0.1,2.4,0.2c0,0.8,0,1.5,0,2.4
				c-0.8,0.1-1.5,0.1-2.4,0.2c0,0.8,0,1.5,0,2.4c0.8,0.1,1.6,0.2,2.5,0.3c0,0.8,0,1.5,0,2.3c-0.8,0.1-1.6,0.1-2.5,0.2
				c0,0.8,0,1.6,0,2.5c0.8,0.1,1.6,0.1,2.4,0.2c0,0.8,0,1.6,0,2.4c-0.8,0.1-1.6,0.1-2.5,0.2c0,0.8,0,1.6,0,2.5
				c0.8,0.1,1.6,0.2,2.5,0.3c0,0.8,0,1.5,0,2.3c-0.8,0.1-1.6,0.2-2.5,0.3c0,0.8,0,1.6,0,2.4c0.8,0.1,1.5,0.1,2.4,0.2
				c0,0.7,0,1.5,0,2.4c-0.7,0.1-1.5,0.1-2.4,0.2c0,0.8,0,1.6,0,2.5c0.8,0.1,1.5,0.2,2.4,0.2c0,0.7,0,1.4,0,2.3
				c-0.8,0.1-1.6,0.2-2.6,0.3c0,1.2,0,2.4,0,3.8c-1.4,0-2.6,0-3.8,0c-0.1,0.9-0.2,1.7-0.3,2.6c-0.8,0-1.5,0-2.3,0
				c-0.1-0.8-0.2-1.5-0.3-2.4c-0.8,0-1.6,0-2.6,0c-0.1,0.8-0.1,1.6-0.2,2.4c-0.8,0-1.5,0-2.4,0c-0.1-0.8-0.1-1.6-0.2-2.4
				c-0.8,0-1.5,0-2.4,0c-0.1,0.8-0.2,1.6-0.3,2.5c-0.8,0-1.5,0-2.3,0c-0.1-0.8-0.1-1.6-0.2-2.5c-0.8,0-1.6,0-2.5,0
				c-0.1,0.8-0.1,1.6-0.2,2.5c-0.8,0-1.6,0-2.4,0c-0.1-0.8-0.1-1.6-0.2-2.5c-0.8,0-1.6,0-2.5,0c-0.1,0.8-0.2,1.6-0.3,2.5
				c-0.8,0-1.5,0-2.3,0c-0.1-0.8-0.1-1.6-0.2-2.5c-0.8,0-1.6,0-2.5,0c-0.1,0.9-0.1,1.6-0.2,2.5c-0.8,0-1.5,0-2.4,0
				c-0.1-0.7-0.1-1.5-0.2-2.4c-0.8,0-1.6,0-2.5,0c-0.1,0.7-0.2,1.5-0.2,2.4c-0.8,0-1.5,0-2.3,0c-0.1-0.8-0.2-1.6-0.2-2.5
				c-1.2-0.1-2.4-0.1-3.8-0.2c0-1.3,0-2.4,0-3.7c-0.9-0.1-1.7-0.2-2.6-0.3c0-0.8,0-1.4,0-2.3c0.7-0.1,1.5-0.2,2.4-0.3
				c0-0.8,0-1.6,0-2.5c-0.8-0.1-1.5-0.1-2.4-0.2c0-0.8,0-1.5,0-2.4c0.8-0.1,1.5-0.1,2.4-0.2c0-0.8,0-1.5,0-2.4
				c-0.8-0.1-1.6-0.2-2.5-0.3c0-0.8,0-1.5,0-2.3c0.8-0.1,1.6-0.2,2.5-0.3c0-0.9,0-1.7,0-2.5c-0.9-0.1-1.6-0.1-2.5-0.2
				c0-0.8,0-1.5,0-2.4c0.8-0.1,1.6-0.1,2.5-0.2c0-0.8,0-1.6,0-2.5c-0.8-0.1-1.5-0.1-2.4-0.2c0-0.7,0-1.5,0-2.3
				c0.8-0.1,1.5-0.1,2.4-0.2c0-0.8,0-1.6,0-2.5c-0.8-0.1-1.5-0.1-2.4-0.2c0-0.7,0-1.5,0-2.4c0.7-0.1,1.5-0.1,2.4-0.2
				c0-0.8,0-1.6,0-2.5c-0.8-0.1-1.5-0.2-2.4-0.2c0-0.7,0-1.4,0-2.1c3.5-1,5.8-3.2,6.9-6.9c0.5,0,1.2,0,2,0c0.1,0.8,0.2,1.5,0.3,2.4
				c0.8,0,1.6,0,2.6,0c0.1-0.8,0.1-1.6,0.2-2.4c0.8,0,1.6,0,2.4,0c0.1,0.8,0.1,1.6,0.2,2.5c0.8,0,1.6,0,2.4,0
				c0.1-0.8,0.2-1.6,0.3-2.5c0.8,0,1.5,0,2.3,0c0.1,0.8,0.1,1.6,0.2,2.5c0.9,0,1.7,0,2.5,0c0.1-0.8,0.1-1.6,0.2-2.5
				c0.8,0,1.5,0,2.4,0c0.1,0.8,0.1,1.6,0.2,2.5c0.8,0,1.6,0,2.5,0c0.1-0.8,0.2-1.6,0.3-2.5c0.8,0,1.5,0,2.3,0
				c0.1,0.8,0.1,1.6,0.2,2.5c0.8,0,1.5,0,2.4,0C59.1,29,59.2,28.2,59.3,27.3z M31.5,69.5c12.3,0,24.5,0,36.8,0c0-12.3,0-24.5,0-36.8
				c-0.7,0-1.3-0.1-1.9-0.1c-10.5,0-21,0-31.4,0c-2.5,0-3.6,1.1-3.6,3.6c0,10.5,0,21,0,31.4C31.4,68.2,31.5,68.8,31.5,69.5z"/>
			<path class="st2" d="M53.5,66.8c-2.3,0-4.8,0-7.3,0c-0.9-1,0.7-2.9-1.4-3.6c-2-0.7-2.1,1.5-3.4,1.7c-1.8-1.8-3.6-3.6-5.4-5.4
				c1-1.2,3.2-2.3,0.9-4.4c-0.8,0-1.7,0-2.8,0c0-2.6,0-5.1,0-7.6c1.2-0.7,3,0.7,3.7-1.5c0.6-2-1.6-1.9-1.7-3.3
				c1.7-1.7,3.5-3.5,5.4-5.3c1.2,0.4,1.5,2.7,3.6,1.6c1.7-0.9,0.4-2.3,1.1-3.5c2.4,0,4.9,0,7.4,0c0.6,1.2-0.7,3.4,1.6,3.6
				c1,0,2.1-0.9,3.2-1.4c1.6,1.6,3.4,3.4,5.2,5.3c-0.2,1.1-2.3,1.1-1.7,3.1c0.7,2.2,2.5,0.8,3.7,1.5c0,2.4,0,4.9,0,7.4
				c-1.2,0.7-3.1-0.7-3.7,1.6c-0.4,1.8,1.4,1.9,1.7,3c-1.8,1.8-3.7,3.6-5.6,5.5c-1-0.2-1.1-2.4-3.1-1.6
				C52.9,63.9,54.4,65.6,53.5,66.8z M39.5,59.2c0.8,0.8,1.3,1.4,1.9,2.1c0.7-0.7,1.4-1.2,2-1.8c0.9,0.5,1.7,1.1,2.6,1.3
				c1.9,0.4,3.1,1.1,2.5,3.4c1,0,1.8,0,2.3,0c0.4-1,0.5-2.3,1.1-2.7c1.3-0.8,3-1.2,4.6-1.9c0.5,0.5,1.1,1,1.7,1.5
				c0.7-0.6,1.3-1.1,2-1.7c-0.7-0.8-1.3-1.4-1.7-1.9c0.8-1.8,1.5-3.5,2.2-5.2c0.8-0.1,1.6-0.1,2.4-0.2c0-0.9,0-1.7,0-2.5
				c-0.9-0.1-1.8-0.1-2.4-0.2c-0.8-1.9-1.5-3.5-2.2-5.2c0.5-0.6,1.1-1.1,1.7-1.9c-0.6-0.6-1.2-1.2-1.9-1.8c-0.7,0.6-1.3,1.2-2,1.7
				c-0.9-0.4-1.6-1-2.5-1.2c-1.7-0.5-3.4-0.9-2.7-3.4c-1,0-1.8,0-2.3,0c-0.4,1-0.5,2.3-1.1,2.7c-1.3,0.8-3,1.2-4.6,1.8
				c-0.5-0.5-1.1-1-1.6-1.4c-0.8,0.6-1.4,1.1-2.1,1.5c0.7,0.8,1.3,1.4,1.7,1.9c-0.8,1.8-1.5,3.5-2.2,5.2c-0.8,0.1-1.6,0.1-2.4,0.2
				c0,0.9,0,1.7,0,2.2c1,0.4,2.3,0.4,2.6,1c0.8,1.4,1.3,3.1,1.9,4.8C40.8,58.2,40.3,58.6,39.5,59.2z"/>
			<path class="st2" d="M50.1,44.5c3.7,0.2,6.5,3.2,6.3,6.8c-0.2,3.7-3.2,6.5-6.8,6.3c-3.7-0.2-6.5-3.2-6.3-6.8
				C43.5,47.1,46.5,44.3,50.1,44.5z M49.9,47.1c-2.1,0-3.9,1.8-4,3.9c-0.1,2.2,1.8,4.1,4,4.1c2.1,0,3.9-1.7,4-3.9
				C53.9,48.9,52.1,47.1,49.9,47.1z"/>
		</g>
	</g>
</g>
<g id="Layer_2">
	<g>
		<circle class="st4" cx="50" cy="50" r="35.7"/>
		<g>
			<g>
				<path class="st5" d="M45.1,61.3c-1.5-0.7-2.8-1.5-4-2.7c-1.1-1.1-2-2.5-2.7-4c-0.7-1.5-1-3.1-1-4.9c0-1.7,0.3-3.3,1-4.9
					c0.7-1.5,1.5-2.8,2.7-4c1.1-1.1,2.5-2,4-2.7c1.5-0.7,3.1-1,4.9-1c1.7,0,3.3,0.3,4.9,1c1.5,0.7,2.8,1.5,4,2.7
					c1.1,1.1,2,2.5,2.7,4c0.7,1.5,1,3.1,1,4.9c0,1.7-0.3,3.3-1,4.9c-0.7,1.5-1.5,2.8-2.7,4c-1.1,1.1-2.5,2-4,2.7s-3.1,1-4.9,1
					C48.3,62.3,46.7,61.9,45.1,61.3z M42,48.4c-0.1-0.1-0.2-0.1-0.2-0.1c-0.1-0.2-0.1-0.2-0.1-0.2c0,0,0-0.1-0.1-0.2
					c-0.1-0.1-0.2-0.1-0.2,0c0,0,0,0.1,0.1,0.2c0.1,0.1,0.1,0.1,0.1,0.2c0,0,0.1,0.1,0.1,0.2c0.1,0.1,0.1,0.2,0.1,0.2
					c0.2,0.4,0.2,0.5,0,0.3c-0.2-0.1-0.3-0.3-0.3-0.4c0,0-0.1-0.1-0.2-0.2c-0.1-0.1-0.1-0.2-0.1-0.3c0,0-0.1-0.1-0.2-0.4
					c0-0.1,0-0.2-0.1-0.2c-0.1,0-0.2-0.1-0.3-0.1c0,0-0.1-0.1-0.1-0.2c-0.1-0.1-0.1-0.2-0.1-0.2c0,0,0-0.1-0.1-0.2
					c-0.1-0.1-0.1-0.2-0.2-0.2c0-0.1,0-0.2,0-0.3c0-0.1,0-0.2,0-0.3c0-0.1,0-0.2,0-0.3c0-0.1,0-0.2-0.1-0.3
					c-0.3,0.7-0.6,1.4-0.8,2.2c-0.2,0.8-0.3,1.6-0.3,2.4c0,1.2,0.2,2.3,0.5,3.4c0.4,1.1,0.9,2.1,1.5,3c0.6,0.9,1.4,1.7,2.3,2.4
					c0.9,0.7,1.8,1.2,2.9,1.6c0-0.2,0-0.4,0-0.6c0-0.2,0.1-0.3,0.1-0.3c0,0,0-0.1,0-0.2c0-0.1,0-0.1,0.1-0.1c0-0.1,0-0.1,0-0.2
					c0-0.1,0-0.2,0-0.3c0-0.1,0-0.1,0-0.2s0.1-0.2,0.1-0.2c0.1,0,0.1-0.3,0.1-0.6c0-0.4,0-0.6,0.1-0.6c0-0.3,0-0.5,0-0.7
					c0-0.2,0-0.4,0-0.7c0,0,0-0.1-0.1-0.2c-0.1-0.1-0.1-0.2-0.1-0.1c-0.1,0-0.3-0.1-0.4-0.3s-0.1-0.3-0.1-0.4c0,0,0-0.1-0.1-0.2
					c0-0.1,0-0.1,0-0.2c0,0,0-0.1-0.2-0.3s-0.2-0.3-0.2-0.3c-0.1-0.1-0.1-0.1-0.1-0.2c0.1-0.1,0.1-0.2,0.1-0.3
					c-0.1,0-0.1-0.1-0.1-0.3c0.1-0.2,0.1-0.3,0.2-0.3c0,0,0-0.1,0-0.1c0,0,0,0,0.1-0.1c0,0.1,0.1,0.1,0.1,0c0.1-0.1,0-0.1,0-0.1
					c0,0,0-0.1,0-0.2c0-0.1,0-0.2,0-0.2c0-0.1,0-0.2-0.1-0.3c-0.1-0.1-0.1-0.1-0.2,0.1c-0.1,0-0.2-0.1-0.3-0.1
					c-0.1,0-0.2-0.1-0.2-0.2c0-0.1,0-0.1-0.1-0.2c-0.1-0.1-0.1-0.1-0.2-0.2c0-0.1,0-0.2-0.2-0.3s-0.3-0.1-0.4-0.1c0,0,0,0,0,0
					c0,0,0,0-0.1,0c-0.1,0-0.1,0-0.2-0.1S43.9,50,43.8,50c-0.1,0-0.2,0-0.3-0.1s-0.2-0.1-0.3-0.1c0-0.1-0.1-0.1-0.2-0.1
					s-0.2,0-0.2-0.1c-0.1,0-0.1-0.1-0.2-0.2c0-0.1,0-0.2,0-0.2c0-0.1,0-0.2-0.1-0.4c0-0.2-0.1-0.3-0.2-0.3
					C42.2,48.5,42.1,48.5,42,48.4z M58.9,50C58.9,50,58.9,50,58.9,50c0-0.1,0-0.2-0.2-0.5c-0.1-0.3-0.2-0.5-0.2-0.5
					c0,0-0.1-0.1-0.1-0.2c0-0.1-0.1-0.2-0.1-0.2c0,0-0.1-0.1-0.1-0.2c0-0.1-0.1-0.2-0.1-0.2c0,0-0.1-0.1-0.2-0.2
					c-0.1-0.1-0.1-0.2-0.2-0.3c0.1,0,0.1,0,0.2,0c0.1,0,0.1-0.1,0.1-0.1c0,0-0.1,0-0.1-0.1c0,0,0-0.1,0-0.1c0,0,0-0.1,0-0.1
					c0,0,0.1-0.1,0.1-0.1c0,0,0-0.1,0-0.2c0-0.1,0-0.1,0-0.2c0,0-0.1,0-0.1,0c0,0-0.1,0-0.1,0c0,0,0,0-0.1,0c-0.1,0-0.1,0-0.1,0
					c0,0-0.1,0-0.2,0c-0.1,0-0.2,0-0.3-0.1c-0.1-0.1-0.1-0.1-0.1-0.2c0-0.1,0-0.2,0-0.3c0,0-0.1-0.1-0.1-0.1c-0.1,0-0.1,0-0.1,0
					c-0.1,0-0.2,0-0.1,0.1s0.1,0.2,0,0.2c0.1,0,0.1,0,0,0.1c-0.1,0.1-0.1,0.1-0.1,0.2c-0.1,0-0.2-0.1-0.2-0.2c0-0.1,0-0.2-0.1-0.2
					c0,0,0-0.1,0-0.1s0,0-0.1,0c0,0,0-0.1,0-0.2s0-0.1-0.1-0.1c0,0,0,0-0.1,0c-0.1,0-0.1,0-0.1-0.1c-0.1,0-0.2-0.1-0.3-0.2
					c-0.1-0.2-0.2-0.2-0.3-0.1c0,0,0,0.1,0,0.1c0,0,0,0.1,0,0.1c0.1,0,0.2,0,0.2,0.1c0,0.1,0.1,0.2,0.2,0.1c0,0,0,0,0,0.1
					s0,0.1,0,0.1c0.1,0,0.1,0,0.1,0c0,0,0,0.1,0.1,0.1c0,0-0.1,0-0.1,0c-0.1,0-0.1,0-0.1,0c0,0.1,0,0.1,0,0.2c0,0-0.1,0.1-0.1,0.1
					c0-0.1,0-0.2,0-0.3c0-0.1,0-0.2-0.1-0.2c0-0.1-0.1-0.1-0.2-0.1c-0.1,0-0.2-0.1-0.2-0.1c0,0-0.1,0-0.1-0.1c0-0.1-0.1-0.1-0.2-0.2
					c0,0,0,0-0.1,0c0,0-0.1,0-0.1,0c0,0.1-0.1,0.1-0.3,0.1c-0.2,0-0.2,0-0.2,0c-0.2,0.4-0.3,0.6-0.3,0.7c0,0.1,0,0.2-0.1,0.2
					s-0.1,0.1-0.1,0.2c0,0-0.1,0-0.3,0c-0.2,0-0.2,0-0.2,0c-0.1,0-0.2-0.1-0.3-0.2s-0.1-0.2-0.1-0.3c0,0,0-0.1,0-0.3
					c0-0.2,0-0.3,0.1-0.4c0,0,0,0,0,0c0,0,0,0,0,0c0.1,0,0.2,0,0.3,0c0.1,0,0.2,0,0.2-0.1c0,0,0.1,0,0.1,0s0,0.1,0,0.1
					c0.1,0,0.1,0,0.2,0s0.1,0,0.1-0.1c0,0-0.1,0-0.1,0c0,0,0,0,0-0.1c0.1-0.1,0.1-0.2,0-0.3c-0.1-0.1-0.2-0.2-0.2-0.2
					c0,0-0.1,0-0.1-0.1s0-0.1,0,0c0,0,0.1,0,0.2,0.1c0.1,0,0.1,0,0.1-0.1c0,0,0,0,0,0c0,0,0.1,0,0.1,0.1c0.1,0,0.1,0,0.1-0.1
					c0,0,0.1,0,0.1,0c0,0,0,0,0,0c0,0,0-0.1,0-0.1c0,0,0-0.1,0-0.1c0.1,0.1,0.2,0.1,0.2,0c0-0.1,0-0.1,0.1-0.2c0,0.1,0,0.1,0.1,0
					c0-0.1,0.1-0.1,0.1-0.1c0-0.1,0.1-0.1,0.2-0.1c0.1,0,0.1,0,0.1-0.1c0,0-0.1-0.1-0.1-0.2c0-0.1,0-0.2,0-0.2c0.1,0,0.2,0,0.2-0.1
					c0.1-0.1,0.1-0.1,0.1,0c0,0,0,0.1,0,0.1c0,0.1,0,0.1,0,0.1c0.1,0,0.1,0,0.1,0c0-0.1,0-0.1,0-0.2c0,0-0.1,0-0.1-0.1
					c0-0.1-0.1-0.2-0.1-0.2c0,0,0,0-0.1,0c0,0-0.1,0-0.1,0c-0.1,0-0.2,0-0.3,0s-0.2,0-0.2,0c0,0-0.1,0-0.1-0.1
					c-0.1-0.1-0.1-0.1-0.1-0.1c-0.1-0.1-0.1-0.1,0-0.1s0.1,0,0.1,0c0-0.1,0.1-0.2,0.4-0.2c0.3,0,0.4-0.1,0.4-0.3
					c-0.1,0,0-0.1,0.3-0.4c0.1-0.1,0.2-0.1,0.2-0.2c0.1-0.1,0.2-0.1,0.3-0.1c0,0,0.2,0,0.6-0.1c0.3-0.1,0.5-0.1,0.5,0
					c0,0,0.1,0,0.1,0s0.1,0,0.2,0c-0.5-0.5-1-0.9-1.6-1.2c-0.6-0.4-1.2-0.7-1.8-0.9c-0.6-0.3-1.3-0.4-2-0.6
					c-0.7-0.1-1.4-0.2-2.1-0.2c-0.7,0-1.4,0.1-2,0.2c-0.7,0.1-1.3,0.3-1.9,0.5c-0.6,0.2-1.2,0.5-1.7,0.9c-0.6,0.3-1.1,0.7-1.6,1.1
					c0,0,0,0,0,0.1c0,0,0.1,0,0.2,0c0.1,0,0.1,0,0.1,0.1c0,0-0.1,0-0.1,0c0,0,0,0-0.1,0c0,0.1,0,0.2-0.1,0.2c-0.1,0-0.1-0.1-0.2-0.1
					c0,0-0.1,0-0.1,0c0,0,0,0-0.1,0c0,0,0,0-0.1,0v0c0,0,0,0,0,0c0,0,0,0.1,0.1,0.1c0.1,0,0.1,0,0.2,0c0.1,0,0.2,0,0.2,0
					c0,0,0.1,0,0.1,0c0,0,0.1,0,0.1,0c0.1-0.1,0.2-0.1,0.1-0.1c0-0.1,0-0.1,0-0.1c0,0-0.1,0-0.1,0c0,0,0-0.1,0.1,0
					c0.1,0,0.2,0,0.2,0c0-0.1,0-0.1,0-0.1c0,0,0-0.1,0-0.1c0-0.1,0.1-0.1,0.1-0.1c0,0,0.1,0,0.1-0.1c0,0,0.1,0,0.1,0.1
					c0,0,0.1,0.1,0.1,0.1c0,0,0.1,0.1,0.2,0.2s0.2,0.1,0.2,0c0,0,0.1,0.1,0.1,0.2c0,0.1,0,0.2,0,0.2c0.1,0,0.2-0.1,0.2-0.1
					s0-0.2,0-0.2c0,0,0,0,0,0c0,0,0-0.1,0-0.1c0,0,0.1,0,0.1,0s0.1,0,0.1,0c0,0,0,0,0,0c0,0,0,0,0,0.1c0,0,0.1,0,0.1,0
					c0,0,0.1,0,0.1,0c0,0,0,0.1,0,0.2c0,0.1,0,0.2,0,0.2c0,0.1-0.1,0.1-0.1,0.1c-0.1,0-0.1,0-0.1,0.1c-0.1,0.1-0.1,0.2,0,0.2
					c0.2,0.1,0.3,0.1,0.3,0.2c0,0-0.1,0-0.2,0c-0.1,0-0.2,0-0.3,0c-0.1,0-0.2,0-0.3,0c0.1,0,0.1,0,0.2-0.1c0-0.1,0.1-0.2,0.1-0.3
					c-0.1,0-0.2,0-0.2,0c-0.1,0-0.1,0.1-0.1,0.2c0,0.1-0.1,0.1-0.1,0.1c-0.1,0-0.1,0-0.1,0c0,0-0.1,0-0.2,0.1c-0.1,0-0.1,0-0.1,0
					c-0.1,0-0.2,0.1-0.2,0.2c0,0.1,0,0.2,0,0.4c0.1,0,0.1,0.1,0.2,0.2c0.1,0.1,0.1,0.2,0.1,0.2c0.1,0,0.2,0.1,0.3,0.1
					c0.1,0,0.2,0,0.3,0c0,0,0,0,0.1,0c0,0,0.1,0,0.1,0c0,0.1,0,0.1,0.1,0.1c0.1,0,0.1,0,0.2,0c0-0.1,0-0.1,0.1,0
					c0.1,0.1,0.1,0.2,0.1,0.2c0,0,0,0,0,0.1c0,0.1,0,0.1,0,0.2c0,0,0,0,0,0c0,0,0,0,0,0c0.1,0,0.1,0,0.2,0c0.1,0,0.1,0,0.1-0.1
					c-0.1,0-0.1,0-0.1-0.1s0-0.1,0-0.1c-0.1,0-0.1-0.1-0.1-0.2c0-0.1,0-0.1,0.1-0.1c0,0,0.1,0,0.2,0c0.1-0.1,0.1-0.1,0-0.1
					c0-0.1,0.1-0.1,0.1-0.2c0-0.1,0-0.1-0.1-0.2c0,0,0,0-0.1,0c0,0-0.1,0-0.1-0.1c0.1,0,0.1-0.1,0.1-0.2c0-0.1,0-0.2,0-0.3
					c0,0,0,0,0.1,0c0,0,0.1,0,0.1,0c0.1,0,0.1,0,0.2,0.1c0.1,0,0.2,0,0.2-0.1c0.1,0.1,0.2,0.1,0.1,0.1c0,0,0,0,0.1,0
					c0,0,0,0.1,0.1,0.2s0.2,0.1,0.2,0.1c0,0,0,0,0,0.1s0,0,0.1,0c0,0,0,0,0,0c0,0,0,0,0,0c0,0,0.1,0,0.1,0c0.1,0,0.1,0,0.1,0
					c0.1,0,0.1,0,0.2-0.1c0-0.1,0.1-0.1,0.1-0.2c0,0,0.1,0,0.1,0.2s0.1,0.2,0.2,0.2c0,0,0.1,0.1,0.2,0.2c0.1,0.1,0.1,0.1,0.1,0.2
					c0,0,0,0.1,0,0.1c0,0,0,0,0,0.1c0,0,0.1,0,0.1-0.1c0-0.1,0.1,0,0.1,0.1c0,0,0.1,0,0.1,0.1c0.1,0,0.1,0.1,0.1,0.1
					c-0.1,0-0.1,0-0.1,0.1c0,0,0,0.1,0,0.1c0,0.1,0,0.1-0.1,0.1s-0.2,0-0.2,0c0,0.2-0.2,0.3-0.4,0.2c-0.2-0.1-0.4-0.1-0.6,0
					c-0.1,0-0.2,0.1-0.3,0.3s-0.2,0.3-0.2,0.4c0.1,0,0.2,0,0.3-0.1c0.1-0.1,0.1-0.1,0.2-0.1c0.1,0,0.1,0,0.2-0.1
					c0,0,0.1-0.1,0.1-0.1c0,0,0,0,0,0c0,0,0,0,0,0c-0.1,0-0.2,0-0.1,0.1c0,0.1,0.1,0.1,0.1,0.2c0,0,0,0.1,0.1,0.1c0,0,0.1,0,0.1,0.1
					c0,0,0,0,0,0.1c0,0,0,0,0,0.1c0,0-0.1,0-0.1,0c0,0-0.1,0-0.1,0c-0.1,0-0.2,0-0.2,0c0,0,0,0,0-0.1c0,0,0.1,0,0.1,0
					c0,0,0-0.1,0-0.1c0,0,0,0,0,0c-0.1,0-0.1,0-0.2,0s-0.1,0-0.2,0c0,0,0,0-0.1,0.1c0,0-0.1,0.1-0.1,0.1c0,0,0,0.1-0.1,0.2
					c0,0.1-0.1,0.2-0.1,0.2c0,0,0,0-0.1,0.1c-0.1,0.1-0.1,0.1-0.1,0.1c0,0-0.1,0.1-0.1,0.1c0,0,0,0.1-0.1,0.1c0,0,0,0-0.1,0.1
					c0,0.1,0,0.1,0,0.2c-0.1,0-0.1,0.1-0.2,0.2c0,0.1-0.1,0.2-0.2,0.2c0,0.1-0.1,0.2-0.2,0.2c-0.1,0-0.1,0.1-0.1,0.3
					c0,0,0.1,0.1,0.1,0.2c0,0.1,0,0.2,0,0.3c0,0.1,0,0.1,0,0.2c0,0.1,0,0.1-0.1,0.1c0,0,0-0.1-0.1-0.1c0-0.1-0.1-0.1,0-0.1
					c0,0,0-0.1-0.1-0.2S45.3,48,45.3,48c0,0-0.1-0.1-0.2,0s-0.1,0-0.2,0c0,0-0.1-0.1-0.2-0.1c-0.1,0-0.2,0-0.3,0c0,0,0,0.1,0,0.1
					c0,0,0,0.1,0,0.1c0,0-0.1,0-0.1,0c0,0-0.1,0-0.1,0c-0.1,0-0.1,0-0.1-0.1c0,0-0.1-0.1-0.2-0.1c-0.1,0-0.3,0.1-0.4,0.2
					c-0.1,0.1-0.1,0.2-0.1,0.4c0,0,0,0.1,0,0.3c0,0.2,0,0.3,0,0.3c0,0.1,0,0.2,0.1,0.2c0,0.1,0.1,0.1,0.1,0.2c0.1,0,0.1,0,0.2,0.1
					c0.1,0.1,0.1,0.1,0.2,0.1c0,0.1,0,0.1,0,0.1c0,0,0,0,0.2,0c0.1-0.1,0.1-0.1,0.1-0.1c-0.1,0-0.1-0.1,0-0.1s0.1-0.1,0.1-0.1
					c0,0.1,0.1,0,0.2,0l0.2-0.1c0-0.1,0-0.1,0.1,0s0,0.1,0,0.1c0,0-0.1,0-0.1,0.1c0,0.1,0,0.1,0,0.1c0,0.1,0,0.1-0.1,0.2
					s0,0.1,0,0.2c0,0.1,0,0.1,0,0.1c0,0,0,0.1,0,0.1c0.1,0,0.2,0,0.2,0c0.1,0,0.2,0,0.2,0c0,0,0,0,0,0c0,0,0,0,0,0
					c0.1,0,0.2,0.1,0.1,0.2c0,0.1,0,0.2,0,0.2c0,0.1,0,0.2,0,0.2c0,0.1,0,0.1,0,0.2c0,0,0.1,0.1,0.1,0.1c0,0,0,0.1,0,0.2
					c0.1,0,0.1,0,0.2,0s0.1,0,0.1-0.1c0.1,0,0.2,0,0.2,0.1c0,0.1,0,0.1,0,0.2c0.2,0,0.3-0.1,0.2-0.2c0-0.1,0-0.2,0.1-0.2
					c0,0,0,0,0,0c0,0,0,0,0,0c0,0,0.1,0,0.1,0c0,0,0.1-0.1,0.1-0.1c0,0,0,0,0.1,0c0,0,0.1,0,0.1,0s0,0,0,0c0,0,0.1,0,0.1,0
					s0.1-0.1,0.1-0.1c0.1,0,0.1,0,0.1,0.1c0,0.1,0.1,0.2,0.2,0.2c0,0,0.1,0,0.2,0c0.1,0,0.2,0,0.2,0c0,0,0,0,0.1,0s0,0,0.1,0.1
					c0,0,0.1,0,0.1,0s0,0,0,0l0,0h0c0,0,0,0,0,0c0,0,0.1,0,0.1,0.1c0,0,0,0.1,0.1,0.1c0,0,0.1,0,0.1,0c0.1,0,0.1,0.1,0.1,0.1
					c0,0,0,0,0.1,0.1c0.1,0,0.1,0,0.2,0c0,0,0.1,0,0.1,0c0-0.1,0-0.1,0.1-0.1c0,0,0.1,0.1,0.1,0.1c0,0,0,0,0,0c0,0,0,0,0,0
					c0.1,0.1,0.1,0.1,0.1,0.1c0,0,0,0,0,0.1c0,0,0.1,0.1,0.1,0.2s0,0.1,0,0.2c0,0,0,0.1,0,0.3c0,0,0,0,0.1,0.1c0.1,0,0.1,0,0.1-0.1
					c0.1,0,0.1,0,0.2,0.1s0.1,0.1,0.1,0.1c0,0,0,0.1,0,0.1s0.1,0,0.1-0.1c0.1,0,0.1,0,0.1,0.1s0,0.2,0,0.2c0.1,0,0.1,0,0.1,0
					c0,0,0.1,0,0.1-0.1c0.1,0,0.1-0.1,0.2-0.1c0.1,0,0.1,0,0.2,0c0.2,0,0.4,0.1,0.5,0.2c0.2,0.2,0.2,0.3,0.2,0.5
					c0,0.2-0.1,0.4-0.2,0.5c-0.1,0.1-0.3,0.2-0.5,0.3c0,0-0.1,0.1-0.1,0.1c0,0,0,0.2,0,0.4c0,0,0,0.1,0,0.3s-0.1,0.2-0.1,0.2
					c0,0.1,0,0.2-0.1,0.2c0,0-0.1,0.1-0.1,0.2c-0.1,0-0.2,0.1-0.3,0.1c-0.1,0.1-0.2,0.1-0.2,0.2c0,0-0.1,0-0.1,0s-0.1,0-0.1,0
					c-0.1,0.1-0.2,0.2-0.1,0.2c0,0.1,0,0.2,0,0.3s0,0.2,0,0.3c0,0,0,0.1-0.1,0.1c0,0,0,0,0,0.1c0,0-0.1,0,0,0c0,0,0,0-0.1,0
					c0,0-0.1,0-0.2,0.1C49,57.4,49,57.4,49,57.5c0,0.1,0,0.2,0,0.2c0,0.1-0.1,0.1-0.1,0.2c0,0,0,0.1-0.1,0.1c-0.1,0-0.1,0.1-0.1,0.1
					c0,0,0,0,0,0.1c0,0.1,0,0.1,0,0.2c0,0-0.1,0-0.1,0c-0.1,0-0.1,0.1-0.1,0.1c-0.1,0-0.2,0-0.2,0c0,0-0.1,0.1-0.2,0.1
					c0,0,0,0,0,0.1c0,0,0,0.1,0,0.1c0,0.1,0,0.1-0.1,0.1c-0.1,0-0.1,0-0.2,0c0,0,0,0,0.1,0.1c0,0.1,0,0.1,0,0.1c0,0.1,0,0.1-0.1,0.2
					s-0.1,0.1-0.1,0.1c0,0-0.1,0-0.1,0.1s0,0.1-0.1,0.1c0,0.1,0,0.1,0,0.2c0,0,0,0.1,0,0.1c0,0,0,0,0,0s0,0,0,0.1c0,0,0,0,0,0
					c0,0,0,0,0,0c0,0,0-0.1,0.1,0c0,0,0,0.1,0,0.1c0,0.1-0.1,0.1-0.1,0.1s-0.1,0.1-0.1,0.2c0,0-0.1,0-0.1,0c0,0,0,0,0,0.1
					c0.5,0.1,0.9,0.2,1.4,0.3s1,0.1,1.5,0.1c1,0,1.9-0.1,2.8-0.4c0.9-0.2,1.7-0.6,2.5-1s1.5-1,2.2-1.6s1.2-1.3,1.7-2.1
					c0-0.1,0-0.3,0-0.4c0-0.1,0-0.2,0-0.2c0,0,0.1,0,0.1,0.1c0,0,0.1,0,0.1-0.1c-0.1,0-0.1,0-0.1-0.1c0,0,0-0.1,0-0.1c0,0,0,0,0.1,0
					c0,0,0.1,0,0.1,0c0,0,0-0.1,0-0.1c0,0,0-0.1,0-0.1c0,0,0-0.1,0-0.1c0-0.1,0.1-0.1,0.1,0c0,0,0,0,0-0.1s0,0,0-0.1
					c0,0,0-0.1,0-0.1c0,0,0,0,0,0v0c0.3-0.7,0.6-1.5,0.8-2.3c0.2-0.8,0.3-1.6,0.3-2.5c0,0,0-0.1,0-0.1s0-0.1,0-0.1c0,0,0,0.1,0,0.1
					c0,0,0,0.1-0.1,0.1c0,0-0.1,0.1-0.3,0.2c-0.2,0.1-0.3,0.2-0.2,0.2c0,0-0.1,0-0.3,0.1c-0.1,0-0.2,0.1-0.2,0.2c0,0-0.1,0-0.2,0
					c-0.1,0-0.2,0.1-0.2,0.1c-0.2,0-0.3-0.1-0.3-0.2C59.1,50.2,59,50.1,58.9,50C59,50.1,59,50.1,58.9,50z M45.2,49
					C45.2,49,45.2,49,45.2,49C45.2,49.1,45.2,49.1,45.2,49c0.1,0.1,0.1,0.1,0.2,0c0,0,0,0.1-0.1,0.1C45.1,49.1,45.1,49.1,45.2,49
					C45.2,49,45.2,49,45.2,49z M45.7,49.2c-0.1,0-0.1-0.1-0.1-0.1C45.6,49.1,45.6,49.1,45.7,49.2c0-0.1,0.1-0.1,0.1-0.2
					c0.1,0,0.2,0.1,0.2,0.1c0,0.1,0.1,0.1,0.2,0.1c0,0,0.1,0.1,0.1,0.1c0.1,0.1,0,0.1-0.1,0.1c-0.1,0-0.2,0-0.2,0
					c-0.1,0-0.1-0.1-0.1-0.2C45.8,49.2,45.8,49.2,45.7,49.2z M45.9,49.8c0,0-0.1,0,0-0.1C45.9,49.7,46,49.7,45.9,49.8
					c0.1-0.1,0.1,0,0.1,0C46,49.8,46,49.8,45.9,49.8z M46.1,49.7C46.1,49.8,46.1,49.8,46.1,49.7C46,49.7,46.1,49.7,46.1,49.7
					C46.1,49.6,46.1,49.7,46.1,49.7C46.1,49.7,46.1,49.7,46.1,49.7z M46.5,49.7c-0.1,0-0.1,0-0.2-0.1C46.4,49.7,46.5,49.7,46.5,49.7
					c0,0,0.1,0,0.1-0.1c0,0,0-0.1,0-0.1c0,0,0,0,0-0.1c0,0,0.1,0,0.2,0s0.1,0,0.2,0c0,0,0-0.1,0,0c0,0,0,0,0-0.1c0,0,0.1,0,0.1,0.1
					s0.1,0.1,0.1,0.1c-0.1,0-0.2,0-0.2,0s-0.1,0-0.2,0C46.7,49.7,46.6,49.7,46.5,49.7z M46.8,50.6C46.8,50.6,46.8,50.6,46.8,50.6
					C46.8,50.6,46.8,50.6,46.8,50.6C46.8,50.6,46.8,50.6,46.8,50.6C46.8,50.5,46.8,50.5,46.8,50.6C46.8,50.6,46.8,50.6,46.8,50.6z
					 M47.5,49.6C47.5,49.7,47.5,49.7,47.5,49.6C47.5,49.7,47.4,49.7,47.5,49.6C47.4,49.7,47.4,49.7,47.5,49.6
					C47.4,49.6,47.4,49.6,47.5,49.6z M51.2,42.7c-0.1,0-0.2,0-0.3-0.1s-0.1-0.2-0.1-0.3c0-0.1,0-0.2,0.1-0.3s0.2-0.1,0.3-0.1H52
					c0.1,0,0.2,0,0.3,0.1s0.1,0.2,0.1,0.3c0,0.1,0,0.2-0.1,0.3s-0.2,0.1-0.3,0.1H51.2z M59.5,50.9C59.6,50.9,59.6,50.9,59.5,50.9
					c0.2,0,0.3,0,0.4,0c0.1,0,0.2,0,0.3,0c0,0.1,0,0.2-0.1,0.3C60,51.2,60,51.3,60,51.4c-0.1,0-0.1,0-0.1,0.1s0,0.1,0,0.1
					c0,0-0.1,0.1-0.1,0.1c0,0,0,0.1-0.1,0.1c0,0,0,0.1-0.1,0.2c-0.1,0.1-0.2,0.1-0.2,0.2c0,0-0.1,0.1-0.2,0.2
					c-0.1,0.1-0.1,0.2-0.2,0.2c0,0-0.1,0.1-0.2,0.2c-0.1,0.2-0.2,0.2-0.1,0.2c0,0,0,0.2,0,0.5c0,0.3,0,0.4,0.1,0.4
					c0,0,0,0.2,0.1,0.4c0,0.2,0,0.3,0,0.3c0,0.1,0,0.2-0.1,0.3s-0.1,0.2-0.1,0.2c0,0-0.1,0-0.1,0c0,0-0.1,0-0.1,0.1
					c-0.1,0-0.1,0-0.1,0.1c0,0.1-0.1,0.1-0.1,0.1c0,0.1,0,0.3,0,0.4c0,0.1,0,0.2,0,0.4c-0.1,0.3-0.2,0.4-0.2,0.4
					c-0.1,0-0.2,0.1-0.3,0.3c-0.1,0.1-0.2,0.2-0.2,0.3c-0.2,0.2-0.3,0.4-0.3,0.4c0,0-0.1,0-0.3,0.1c-0.2,0-0.3,0.1-0.3,0.1
					c-0.1,0-0.2,0-0.3,0s-0.2,0-0.2-0.1c0,0,0-0.1,0-0.2s0-0.2,0-0.2c0,0-0.1,0-0.1-0.1c0-0.1,0-0.1-0.1-0.1c0,0-0.1-0.2-0.2-0.4
					s-0.2-0.4-0.1-0.4c0,0,0-0.1,0-0.2c0-0.1,0-0.1,0-0.1c0-0.1,0-0.3-0.1-0.4c-0.1-0.1-0.1-0.2-0.1-0.3c0,0,0-0.1-0.1-0.3
					s0-0.3,0-0.3c0-0.1,0-0.3,0-0.4c0-0.1,0.1-0.2,0.1-0.4c0-0.2,0-0.3,0-0.4c0-0.1-0.1-0.2-0.1-0.3c0,0,0,0-0.1-0.1
					c0-0.1-0.1-0.1-0.1-0.1C55,53,55,52.9,55,52.8c0-0.1,0-0.2,0-0.3c0-0.1,0.1-0.2,0.1-0.3c0-0.2,0-0.3,0-0.3
					c-0.1,0-0.2-0.1-0.2-0.1c-0.1,0-0.1,0-0.2,0c-0.1-0.1-0.2-0.2-0.5-0.1c-0.3,0-0.5,0-0.6,0c0,0.1-0.1,0.1-0.3,0s-0.3-0.1-0.3-0.1
					c-0.1,0-0.2-0.1-0.3-0.2c-0.1-0.1-0.2-0.2-0.2-0.3c-0.1,0-0.2-0.2-0.3-0.4C52,50.7,52,50.5,52,50.4c-0.1,0-0.1-0.1-0.1-0.2
					c0-0.1,0-0.1,0.1-0.1c0,0,0-0.1,0-0.2c0-0.1,0-0.2-0.1-0.2c0,0,0-0.1,0-0.1c0,0,0-0.1,0-0.1c0-0.1,0-0.2,0-0.3
					c0-0.1,0.1-0.2,0.1-0.3c0,0,0.1-0.1,0.1-0.1s0-0.1,0.1-0.1c0-0.1,0.1-0.1,0.1-0.1c0,0,0.1,0,0.1-0.1c0,0,0.1-0.1,0.1-0.1
					c0-0.1,0.1-0.1,0.1-0.2c0,0,0-0.1,0-0.1c0,0,0,0,0,0c0.1-0.2,0.1-0.3,0.1-0.4c0.1-0.1,0.1-0.1,0.1-0.1c0,0,0,0,0.1,0
					c0,0,0-0.1,0.1-0.1c0-0.1,0.1-0.1,0.1-0.1c0,0,0-0.1,0.1-0.1s0.1,0,0.1,0c0,0.1,0.1,0.1,0.2,0c0.1,0,0.2-0.1,0.2-0.1
					c0,0,0.1-0.1,0.2-0.1s0.2-0.1,0.2-0.1c0-0.1,0.1-0.1,0.4,0c0.2,0,0.4,0.1,0.4,0.1c0,0,0,0,0,0c0,0,0,0,0,0
					c0.1,0,0.1,0.1,0.2,0.3c0.1,0.2,0.1,0.3,0.1,0.4c0.1,0,0.1,0,0.2,0s0.1,0,0.1,0c0,0.1,0,0.1,0.1,0.1c0.1,0,0.1,0,0.2,0
					c0.1,0,0.2,0,0.4,0s0.2-0.1,0.2-0.2c0,0,0.1,0,0.1,0c0,0,0.1,0.1,0,0.1c0.1,0,0.2,0,0.5,0c0.3,0,0.4,0.1,0.3,0.1
					c0.1,0,0.1,0,0.1,0.1c0,0.1,0.1,0.1,0.1,0.1c0,0.1,0,0.2,0.1,0.3s0.1,0.2,0.2,0.2c0,0,0,0.1,0,0.2c0,0.1,0.1,0.2,0.1,0.2
					c0,0.1,0.1,0.2,0.2,0.3c0.1,0.1,0.2,0.2,0.2,0.3c0,0.1,0,0.1,0,0.2c0.1,0.1,0.1,0.1,0.1,0.2c0,0,0,0,0,0.1c0,0.1,0,0.1,0.1,0.1
					c0,0.1,0.1,0.2,0.2,0.4s0.2,0.3,0.3,0.3c0,0,0,0.1,0,0.1c0,0,0,0,0.1,0C59.4,50.9,59.5,50.9,59.5,50.9z M52.9,44.2
					c0.1,0,0.2,0,0.2-0.1C53,44.1,53,44.1,52.9,44.2C53,44.1,53,44.1,53,44c0,0,0,0,0.1,0c0,0,0.1,0.1,0.1,0c0,0,0.1,0,0.1,0
					s0.1,0,0,0.1c0,0.1-0.1,0.2-0.1,0.3s-0.1,0.1-0.3,0.1c0,0-0.1-0.1,0-0.1C52.8,44.4,52.8,44.3,52.9,44.2
					C52.8,44.3,52.8,44.2,52.9,44.2z M53.6,43.6C53.6,43.6,53.6,43.6,53.6,43.6c-0.1,0-0.1,0.1-0.1,0.2c0.1,0,0.1,0,0.1,0
					c0,0,0.1,0,0.1-0.1c0,0.1,0,0.1-0.1,0.1s0,0.1,0.1,0.1c0,0,0.1,0.1,0.1,0.1c0,0,0,0.1,0,0.1c0.1,0,0.2,0,0.2,0.1
					c0,0.1,0,0.2,0,0.3c0,0,0.1,0,0.1,0s0,0,0-0.1c0,0,0.1,0,0.1,0c0,0,0,0-0.1,0c0,0.1-0.1,0.2-0.2,0.2c-0.1,0-0.2,0-0.3,0
					c0-0.1,0-0.1,0-0.1c0,0-0.1,0-0.1,0c-0.1,0-0.1,0-0.1-0.1c0-0.1,0-0.1,0.1-0.2c0.2,0,0.3,0,0.1,0c0-0.1,0-0.2,0-0.2
					c0,0-0.1-0.1-0.2-0.1c0-0.1,0-0.1,0-0.1c0,0,0-0.1,0-0.1c0-0.1,0-0.2,0.1-0.1C53.5,43.7,53.5,43.6,53.6,43.6
					C53.6,43.5,53.6,43.5,53.6,43.6z M53.4,44.8C53.4,44.8,53.4,44.8,53.4,44.8L53.4,44.8L53.4,44.8C53.4,44.7,53.4,44.7,53.4,44.8
					C53.5,44.7,53.5,44.7,53.4,44.8C53.5,44.8,53.5,44.8,53.4,44.8z M55,46.3c0,0.1-0.1,0.2-0.2,0.1c0,0,0-0.1,0-0.2
					c0-0.1,0-0.1,0.1-0.1C54.9,46.3,54.9,46.3,55,46.3c-0.1-0.1,0-0.1,0-0.2C55,46.2,55,46.2,55,46.3z M55,46C55,46,55,46,55,46
					C55,45.9,55,46,55,46c0,0.1,0,0.1,0,0.1C54.9,46.1,54.9,46.1,55,46C54.9,46,54.9,46,55,46C54.9,46,54.9,46,55,46z M55.4,46.7
					C55.5,46.7,55.5,46.7,55.4,46.7c0.2,0.1,0.2,0.1,0.2,0.1c0,0,0,0,0.1-0.1c0,0.1,0,0.2-0.1,0.1S55.4,46.7,55.4,46.7
					C55.4,46.7,55.4,46.7,55.4,46.7z M58.8,45.9c-0.1,0-0.2-0.1-0.2-0.2c0,0-0.1,0-0.1,0c0,0-0.1,0-0.1,0c0,0-0.1,0-0.1,0
					c0,0-0.1,0-0.1,0.1c-0.1,0-0.1,0-0.1,0s0-0.1-0.1-0.1c0-0.1,0-0.2-0.1-0.2c0,0-0.1,0-0.2,0c-0.1,0.1-0.1,0.2-0.2,0.4
					c-0.1,0.1-0.1,0.2-0.1,0.4c0,0,0.1,0,0.1,0c0,0,0,0,0,0.1c0,0,0.2,0,0.5,0c0.3,0,0.4,0,0.4-0.1c0,0,0,0,0.1,0.1s0.1,0.1,0.1-0.1
					c0,0,0.1,0,0.1,0.1s0.1,0.1,0.3,0.1c0,0,0.1,0,0.2-0.1c0.1-0.1,0.1-0.1,0-0.1C58.9,46,58.9,45.9,58.8,45.9z M58,42.3L58,42.3
					C58,42.3,58,42.3,58,42.3L58,42.3z M58.3,42.7C58.3,42.7,58.3,42.7,58.3,42.7C58.3,42.7,58.3,42.7,58.3,42.7
					C58.3,42.7,58.3,42.7,58.3,42.7C58.3,42.7,58.3,42.7,58.3,42.7C58.3,42.6,58.3,42.6,58.3,42.7C58.3,42.6,58.3,42.6,58.3,42.7z
					 M60.1,45.9c0,0,0,0-0.1-0.1c0-0.1,0-0.1,0-0.1c0,0,0,0,0,0c0,0,0-0.1,0-0.1c0,0,0-0.1,0-0.1c0,0-0.1,0.1-0.1,0.1
					c0,0-0.1,0-0.2,0c0,0,0,0.1-0.1,0.2c0,0.1,0,0.2,0.1,0.2h0c-0.1,0-0.2,0.1-0.3,0.1s-0.1,0.2-0.1,0.3c0,0.1,0,0.2,0.1,0.3
					s0.2,0.1,0.3,0.1h0.1c0,0,0,0.1,0.1,0.1c0,0,0.1,0.1,0.1,0.1c0,0.1,0.1,0.1,0.2,0.2c0.1,0,0.2,0,0.2-0.1c-0.1,0-0.1,0-0.1-0.1
					s0-0.1,0-0.1h0.1c0.1,0,0.2,0,0.3-0.1s0.1-0.2,0.1-0.3c0-0.1,0-0.2-0.1-0.3s-0.2-0.1-0.3-0.1H60.1z M60.2,48.7
					C60.2,48.7,60.2,48.7,60.2,48.7C60.2,48.7,60.2,48.7,60.2,48.7c0.1,0.1,0.1,0.2,0.1,0.2c0,0,0,0,0,0v0c0,0,0.1,0.1,0.1,0.1
					c0,0,0.1,0,0.1,0c0.1,0,0.1,0,0.2,0c0.1,0,0.1-0.1,0.1-0.1c0,0,0,0,0,0v0c0,0,0-0.1,0-0.1c0,0,0-0.1,0-0.1c0-0.1,0-0.2-0.1-0.3
					s-0.2-0.1-0.3-0.1c-0.1,0-0.1,0-0.2,0c-0.1,0-0.1,0.1-0.1,0.1h0c0,0,0,0,0-0.1c0,0,0-0.1,0-0.1v0.4
					C60.2,48.6,60.2,48.6,60.2,48.7C60.1,48.7,60.1,48.7,60.2,48.7C60.1,48.7,60.2,48.7,60.2,48.7z"/>
			</g>
		</g>
	</g>
</g>
</svg>
