<?xml version="1.0" encoding="utf-8"?>
<!-- Generator: Adobe Illustrator 19.1.0, SVG Export Plug-In . SVG Version: 6.00 Build 0)  -->
<svg version="1.1" id="Layer_1" xmlns="http://www.w3.org/2000/svg" xmlns:xlink="http://www.w3.org/1999/xlink" x="0px" y="0px"
	 viewBox="0 0 100 100" style="enable-background:new 0 0 100 100;" xml:space="preserve">
<style type="text/css">
	.st0{fill:#FFFFFF;}
	.st1{fill:#34C1DC;}
</style>
<g>
	<circle class="st0" cx="50" cy="49.8" r="44.7"/>
	<g>
		<path class="st1" d="M17.3,49.2c3.3-2.1,6.6-4.3,10-6.3c2.8-1.7,5.8-3.3,9.1-5.3c0,2.2,0.1,4.1-0.1,6c-0.1,0.7-1,1.4-1.6,1.8
			c-3,1.7-6,3.2-9.3,5c3,1.7,5.6,3.3,8.4,4.6c2.2,1,3,2.4,2.6,4.7c-0.2,1.1,0,2.2,0,3.8c-6.1-3.6-11.9-7-17.6-10.4
			c-0.6-0.4-1-1.2-1.5-1.7C17.3,50.6,17.3,49.9,17.3,49.2z"/>
		<path class="st1" d="M81.4,51.9c-2.8,1.8-5.5,3.7-8.4,5.4c-3.4,2-6.8,3.9-10.7,6.2c0-2.3-0.1-4.1,0.1-6c0.1-0.7,1-1.4,1.6-1.8
			c3-1.7,6-3.2,9.3-5c-3-1.6-5.5-3.2-8.2-4.5c-2.4-1.1-3.3-2.7-2.9-5.2c0.2-1,0-2,0-3.5c6.2,3.6,11.9,7,17.6,10.4
			c0.6,0.4,1,1.2,1.5,1.7C81.4,50.5,81.4,51.2,81.4,51.9z"/>
		<path class="st1" d="M42.7,64.3c3-9.3,6-18.5,8.9-27.7c1.5,0,2.8,0,4.4,0c-1.5,4.7-2.9,9.2-4.4,13.7c-1.2,3.7-2.6,7.3-3.5,11.1
			C47.4,64.4,45.8,65.2,42.7,64.3z"/>
	</g>
</g>
</svg>
