<?xml version="1.0" encoding="utf-8"?>
<!-- Generator: Adobe Illustrator 19.1.0, SVG Export Plug-In . SVG Version: 6.00 Build 0)  -->
<svg version="1.1" id="Layer_1" xmlns="http://www.w3.org/2000/svg" xmlns:xlink="http://www.w3.org/1999/xlink" x="0px" y="0px"
	 viewBox="0 0 100 100" style="enable-background:new 0 0 100 100;" xml:space="preserve">
<style type="text/css">
	.st0{fill:#FFFFFF;}
	.st1{fill:#34C1DC;}
</style>
<g>
	<circle class="st1" cx="50" cy="50" r="44.7"/>
	<g>
		<path class="st0" d="M59.3,27.3c0.8,0,1.5,0,2.4,0c0.1,0.8,0.1,1.5,0.2,2.4c0.8,0,1.6,0,2.5,0c0.1-0.7,0.2-1.5,0.2-2.4
			c0.8,0,1.5,0,2.3,0c0.1,0.8,0.2,1.6,0.3,2.5c0.6,0,1.2,0,1.8,0c0.6,0,1.2,0,2,0c0,1.4,0,2.5,0,3.8c0.9,0.1,1.7,0.2,2.6,0.3
			c0,0.8,0,1.5,0,2.3c-0.8,0.1-1.5,0.2-2.4,0.3c0,0.8,0,1.6,0,2.6c0.8,0.1,1.5,0.1,2.4,0.2c0,0.8,0,1.5,0,2.4
			c-0.8,0.1-1.5,0.1-2.4,0.2c0,0.8,0,1.5,0,2.4c0.8,0.1,1.6,0.2,2.5,0.3c0,0.8,0,1.5,0,2.3c-0.8,0.1-1.6,0.1-2.5,0.2
			c0,0.8,0,1.6,0,2.5c0.8,0.1,1.6,0.1,2.4,0.2c0,0.8,0,1.6,0,2.4c-0.8,0.1-1.6,0.1-2.5,0.2c0,0.8,0,1.6,0,2.5
			c0.8,0.1,1.6,0.2,2.5,0.3c0,0.8,0,1.5,0,2.3c-0.8,0.1-1.6,0.2-2.5,0.3c0,0.8,0,1.6,0,2.4c0.8,0.1,1.5,0.1,2.4,0.2
			c0,0.7,0,1.5,0,2.4c-0.7,0.1-1.5,0.1-2.4,0.2c0,0.8,0,1.6,0,2.5c0.8,0.1,1.5,0.2,2.4,0.2c0,0.7,0,1.4,0,2.3
			c-0.8,0.1-1.6,0.2-2.6,0.3c0,1.2,0,2.4,0,3.8c-1.4,0-2.6,0-3.8,0c-0.1,0.9-0.2,1.7-0.3,2.6c-0.8,0-1.5,0-2.3,0
			c-0.1-0.8-0.2-1.5-0.3-2.4c-0.8,0-1.6,0-2.6,0c-0.1,0.8-0.1,1.6-0.2,2.4c-0.8,0-1.5,0-2.4,0c-0.1-0.8-0.1-1.6-0.2-2.4
			c-0.8,0-1.5,0-2.4,0c-0.1,0.8-0.2,1.6-0.3,2.5c-0.8,0-1.5,0-2.3,0c-0.1-0.8-0.1-1.6-0.2-2.5c-0.8,0-1.6,0-2.5,0
			c-0.1,0.8-0.1,1.6-0.2,2.5c-0.8,0-1.6,0-2.4,0c-0.1-0.8-0.1-1.6-0.2-2.5c-0.8,0-1.6,0-2.5,0c-0.1,0.8-0.2,1.6-0.3,2.5
			c-0.8,0-1.5,0-2.3,0c-0.1-0.8-0.1-1.6-0.2-2.5c-0.8,0-1.6,0-2.5,0c-0.1,0.9-0.1,1.6-0.2,2.5c-0.8,0-1.5,0-2.4,0
			c-0.1-0.7-0.1-1.5-0.2-2.4c-0.8,0-1.6,0-2.5,0c-0.1,0.7-0.2,1.5-0.2,2.4c-0.8,0-1.5,0-2.3,0c-0.1-0.8-0.2-1.6-0.2-2.5
			c-1.2-0.1-2.4-0.1-3.8-0.2c0-1.3,0-2.4,0-3.7c-0.9-0.1-1.7-0.2-2.6-0.3c0-0.8,0-1.4,0-2.3c0.7-0.1,1.5-0.2,2.4-0.3
			c0-0.8,0-1.6,0-2.5c-0.8-0.1-1.5-0.1-2.4-0.2c0-0.8,0-1.5,0-2.4c0.8-0.1,1.5-0.1,2.4-0.2c0-0.8,0-1.5,0-2.4
			c-0.8-0.1-1.6-0.2-2.5-0.3c0-0.8,0-1.5,0-2.3c0.8-0.1,1.6-0.2,2.5-0.3c0-0.9,0-1.7,0-2.5c-0.9-0.1-1.6-0.1-2.5-0.2
			c0-0.8,0-1.5,0-2.4c0.8-0.1,1.6-0.1,2.5-0.2c0-0.8,0-1.6,0-2.5c-0.8-0.1-1.5-0.1-2.4-0.2c0-0.7,0-1.5,0-2.3
			c0.8-0.1,1.5-0.1,2.4-0.2c0-0.8,0-1.6,0-2.5c-0.8-0.1-1.5-0.1-2.4-0.2c0-0.7,0-1.5,0-2.4c0.7-0.1,1.5-0.1,2.4-0.2
			c0-0.8,0-1.6,0-2.5c-0.8-0.1-1.5-0.2-2.4-0.2c0-0.7,0-1.4,0-2.1c3.5-1,5.8-3.2,6.9-6.9c0.5,0,1.2,0,2,0c0.1,0.8,0.2,1.5,0.3,2.4
			c0.8,0,1.6,0,2.6,0c0.1-0.8,0.1-1.6,0.2-2.4c0.8,0,1.6,0,2.4,0c0.1,0.8,0.1,1.6,0.2,2.5c0.8,0,1.6,0,2.4,0
			c0.1-0.8,0.2-1.6,0.3-2.5c0.8,0,1.5,0,2.3,0c0.1,0.8,0.1,1.6,0.2,2.5c0.9,0,1.7,0,2.5,0c0.1-0.8,0.1-1.6,0.2-2.5
			c0.8,0,1.5,0,2.4,0c0.1,0.8,0.1,1.6,0.2,2.5c0.8,0,1.6,0,2.5,0c0.1-0.8,0.2-1.6,0.3-2.5c0.8,0,1.5,0,2.3,0
			c0.1,0.8,0.1,1.6,0.2,2.5c0.8,0,1.5,0,2.4,0C59.1,29,59.2,28.2,59.3,27.3z M31.5,69.5c12.3,0,24.5,0,36.8,0c0-12.3,0-24.5,0-36.8
			c-0.7,0-1.3-0.1-1.9-0.1c-10.5,0-21,0-31.4,0c-2.5,0-3.6,1.1-3.6,3.6c0,10.5,0,21,0,31.4C31.4,68.2,31.5,68.8,31.5,69.5z"/>
		<path class="st0" d="M53.5,66.8c-2.3,0-4.8,0-7.3,0c-0.9-1,0.7-2.9-1.4-3.6c-2-0.7-2.1,1.5-3.4,1.7c-1.8-1.8-3.6-3.6-5.4-5.4
			c1-1.2,3.2-2.3,0.9-4.4c-0.8,0-1.7,0-2.8,0c0-2.6,0-5.1,0-7.6c1.2-0.7,3,0.7,3.7-1.5c0.6-2-1.6-1.9-1.7-3.3
			c1.7-1.7,3.5-3.5,5.4-5.3c1.2,0.4,1.5,2.7,3.6,1.6c1.7-0.9,0.4-2.3,1.1-3.5c2.4,0,4.9,0,7.4,0c0.6,1.2-0.7,3.4,1.6,3.6
			c1,0,2.1-0.9,3.2-1.4c1.6,1.6,3.4,3.4,5.2,5.3c-0.2,1.1-2.3,1.1-1.7,3.1c0.7,2.2,2.5,0.8,3.7,1.5c0,2.4,0,4.9,0,7.4
			c-1.2,0.7-3.1-0.7-3.7,1.6c-0.4,1.8,1.4,1.9,1.7,3c-1.8,1.8-3.7,3.6-5.6,5.5c-1-0.2-1.1-2.4-3.1-1.6
			C52.9,63.9,54.4,65.6,53.5,66.8z M39.5,59.2c0.8,0.8,1.3,1.4,1.9,2.1c0.7-0.7,1.4-1.2,2-1.8c0.9,0.5,1.7,1.1,2.6,1.3
			c1.9,0.4,3.1,1.1,2.5,3.4c1,0,1.8,0,2.3,0c0.4-1,0.5-2.3,1.1-2.7c1.3-0.8,3-1.2,4.6-1.9c0.5,0.5,1.1,1,1.7,1.5
			c0.7-0.6,1.3-1.1,2-1.7c-0.7-0.8-1.3-1.4-1.7-1.9c0.8-1.8,1.5-3.5,2.2-5.2c0.8-0.1,1.6-0.1,2.4-0.2c0-0.9,0-1.7,0-2.5
			c-0.9-0.1-1.8-0.1-2.4-0.2c-0.8-1.9-1.5-3.5-2.2-5.2c0.5-0.6,1.1-1.1,1.7-1.9c-0.6-0.6-1.2-1.2-1.9-1.8c-0.7,0.6-1.3,1.2-2,1.7
			c-0.9-0.4-1.6-1-2.5-1.2c-1.7-0.5-3.4-0.9-2.7-3.4c-1,0-1.8,0-2.3,0c-0.4,1-0.5,2.3-1.1,2.7c-1.3,0.8-3,1.2-4.6,1.8
			c-0.5-0.5-1.1-1-1.6-1.4c-0.8,0.6-1.4,1.1-2.1,1.5c0.7,0.8,1.3,1.4,1.7,1.9c-0.8,1.8-1.5,3.5-2.2,5.2c-0.8,0.1-1.6,0.1-2.4,0.2
			c0,0.9,0,1.7,0,2.2c1,0.4,2.3,0.4,2.6,1c0.8,1.4,1.3,3.1,1.9,4.8C40.8,58.2,40.3,58.6,39.5,59.2z"/>
		<path class="st0" d="M50.1,44.5c3.7,0.2,6.5,3.2,6.3,6.8c-0.2,3.7-3.2,6.5-6.8,6.3c-3.7-0.2-6.5-3.2-6.3-6.8
			C43.5,47.1,46.5,44.3,50.1,44.5z M49.9,47.1c-2.1,0-3.9,1.8-4,3.9c-0.1,2.2,1.8,4.1,4,4.1c2.1,0,3.9-1.7,4-3.9
			C53.9,48.9,52.1,47.1,49.9,47.1z"/>
	</g>
</g>
</svg>
