<?xml version="1.0" encoding="utf-8"?>
<!-- Generator: Adobe Illustrator 19.1.0, SVG Export Plug-In . SVG Version: 6.00 Build 0)  -->
<svg version="1.1" id="Layer_1" xmlns="http://www.w3.org/2000/svg" xmlns:xlink="http://www.w3.org/1999/xlink" x="0px" y="0px"
	 viewBox="0 0 500 500" style="enable-background:new 0 0 500 500;" xml:space="preserve">
<style type="text/css">
	.st0{fill:#E7E7E7;}
	.st1{fill:#15334F;}
	.st2{fill:#E95458;}
	.st3{fill:#FCB72B;}
	.st4{fill:#61CB81;}
	.st5{fill:#7E8082;}
	.st6{fill:#FFFFFF;}
	.st7{fill:#212121;}
	.st8{fill:#FFFFFF;stroke:#D6D6D6;stroke-miterlimit:10;}
	.st9{fill:none;}
	.st10{fill:#EEDB2E;}
	.st11{fill:#222840;}
	.st12{fill:#34C1DC;}
	.st13{fill:#EEE2F5;}
</style>
<g>
	<g>
		<rect x="71.5" y="176.1" class="st0" width="265.3" height="177.7"/>
		<rect x="71.5" y="176.1" class="st1" width="265.3" height="29.1"/>
		<circle class="st2" cx="84.2" cy="187.6" r="4.5"/>
		<circle class="st3" cx="100.9" cy="187.6" r="4.5"/>
		<circle class="st4" cx="115.8" cy="187.6" r="4.5"/>
		<g>
			<g>
				<g>
					<g>
						<path class="st5" d="M100.5,242.5v-9.5h6.2v1.1h-5v3.1h4.9v1.1h-4.9v3.3h5v1.1H100.5z"/>
						<path class="st5" d="M115.3,242.5l-5.5-7.6v7.6h-1.2v-9.5h1.2l5.5,7.4v-7.4h1.2v9.5H115.3z"/>
						<path class="st5" d="M121,242.5V234h-3v-1.1h7.2v1.1h-3v8.5H121z"/>
						<path class="st5" d="M126.8,242.5v-9.5h6.2v1.1h-5v3.1h4.9v1.1H128v3.3h5v1.1H126.8z"/>
						<path class="st5" d="M140.4,242.5l-2.4-3.8h-1.9v3.8h-1.2v-9.5h3.8c1.7,0,3,1.1,3,2.9c0,1.7-1.2,2.7-2.5,2.8l2.6,3.9H140.4z
							 M140.5,235.8c0-1.1-0.8-1.8-1.9-1.8h-2.5v3.6h2.5C139.7,237.6,140.5,236.9,140.5,235.8z"/>
						<path class="st5" d="M146.6,241.1l0.7-0.9c0.6,0.7,1.7,1.4,3,1.4c1.7,0,2.2-0.9,2.2-1.6c0-2.5-5.6-1.1-5.6-4.5
							c0-1.6,1.4-2.6,3.3-2.6c1.5,0,2.6,0.5,3.4,1.3l-0.7,0.9c-0.7-0.8-1.7-1.1-2.7-1.1c-1.1,0-1.9,0.6-1.9,1.5
							c0,2.1,5.6,0.9,5.6,4.5c0,1.4-0.9,2.8-3.5,2.8C148.6,242.6,147.4,242,146.6,241.1z"/>
						<path class="st5" d="M163.7,242.5v-7.8l-3.2,7.8H160l-3.2-7.8v7.8h-1.2v-9.5h1.7l2.9,7.2l3-7.2h1.7v9.5H163.7z"/>
						<path class="st5" d="M166.5,241.1l0.7-0.9c0.6,0.7,1.7,1.4,3,1.4c1.7,0,2.2-0.9,2.2-1.6c0-2.5-5.6-1.1-5.6-4.5
							c0-1.6,1.4-2.6,3.3-2.6c1.5,0,2.6,0.5,3.4,1.3l-0.7,0.9c-0.7-0.8-1.7-1.1-2.7-1.1c-1.1,0-1.9,0.6-1.9,1.5
							c0,2.1,5.6,0.9,5.6,4.5c0,1.4-0.9,2.8-3.5,2.8C168.5,242.6,167.3,242,166.5,241.1z"/>
						<path class="st5" d="M178.7,237.7c0-2.9,2.1-4.9,4.9-4.9c1.7,0,2.8,0.8,3.6,1.9l-1,0.6c-0.5-0.8-1.5-1.4-2.6-1.4
							c-2.1,0-3.7,1.6-3.7,3.9c0,2.3,1.6,3.9,3.7,3.9c1.1,0,2.1-0.6,2.6-1.4l1,0.6c-0.8,1.1-1.9,1.9-3.6,1.9
							C180.8,242.6,178.7,240.6,178.7,237.7z"/>
						<path class="st5" d="M188.3,237.7c0-2.8,1.9-4.9,4.7-4.9c2.8,0,4.7,2.1,4.7,4.9s-1.9,4.9-4.7,4.9
							C190.2,242.6,188.3,240.5,188.3,237.7z M196.5,237.7c0-2.2-1.4-3.9-3.5-3.9c-2.1,0-3.5,1.6-3.5,3.9c0,2.2,1.4,3.9,3.5,3.9
							C195.1,241.6,196.5,239.9,196.5,237.7z"/>
						<path class="st5" d="M199.6,242.5v-9.5h3.2c2.9,0,4.9,2.1,4.9,4.8c0,2.7-1.9,4.8-4.9,4.8H199.6z M206.5,237.7
							c0-2.1-1.3-3.7-3.6-3.7h-2.1v7.4h2.1C205.1,241.4,206.5,239.7,206.5,237.7z"/>
						<path class="st5" d="M209.5,242.5v-9.5h6.2v1.1h-5v3.1h4.9v1.1h-4.9v3.3h5v1.1H209.5z"/>
					</g>
				</g>
				<rect x="100.9" y="250.2" class="st6" width="199.5" height="29.8"/>
			</g>
			<g>
				<path class="st7" d="M113.7,267.1v-1.9h-3.6v-0.8l3.2-4.9h1.3v4.8h1.1v0.8h-1.1v1.9H113.7z M113.7,260.5l-2.6,3.9h2.6V260.5z"/>
				<path class="st7" d="M116.8,266.1l0.6-0.6c0.5,0.6,1.1,1,2.1,1c1,0,1.7-0.7,1.7-1.6c0-1-0.7-1.6-1.7-1.6c-0.7,0-1.2,0.2-1.7,0.7
					l-0.7-0.2v-4.1h4.6v0.8H118v2.6c0.4-0.4,1-0.7,1.8-0.7c1.3,0,2.4,0.9,2.4,2.4c0,1.5-1.2,2.5-2.7,2.5
					C118.2,267.3,117.4,266.8,116.8,266.1z"/>
				<path class="st7" d="M123.3,265.2c0-1,0.9-1.7,1.8-2c-0.9-0.2-1.7-0.8-1.7-1.8c0-1.4,1.3-2,2.6-2c1.2,0,2.6,0.6,2.6,2
					c0,1-0.8,1.6-1.7,1.8c0.9,0.3,1.8,1,1.8,2c0,1.3-1.2,2-2.7,2C124.5,267.3,123.3,266.5,123.3,265.2z M127.8,265.1
					c0-1-1.3-1.4-1.7-1.5c-0.5,0.1-1.8,0.5-1.8,1.5c0,0.8,0.8,1.3,1.8,1.3C126.9,266.4,127.8,265.9,127.8,265.1z M127.6,261.5
					c0-0.8-0.7-1.2-1.6-1.2c-0.9,0-1.6,0.5-1.6,1.2c0,0.9,1.2,1.2,1.6,1.3C126.5,262.8,127.6,262.5,127.6,261.5z"/>
				<path class="st7" d="M129.6,266l0.6-0.6c0.4,0.6,1.2,1,2.1,1c1.1,0,1.8-0.5,1.8-1.4c0-0.9-0.8-1.3-1.9-1.3c-0.3,0-0.7,0-0.8,0
					v-0.9c0.1,0,0.5,0,0.8,0c0.9,0,1.7-0.4,1.7-1.2c0-0.8-0.8-1.3-1.7-1.3c-0.8,0-1.4,0.3-2,0.9l-0.5-0.6c0.5-0.7,1.4-1.2,2.6-1.2
					c1.4,0,2.5,0.7,2.5,2c0,1.1-0.9,1.6-1.6,1.8c0.7,0.1,1.7,0.6,1.7,1.9c0,1.3-1,2.2-2.7,2.2C131,267.3,130.1,266.7,129.6,266z"/>
				<path class="st7" d="M136.5,266.3l0.5-0.7c0.4,0.5,0.8,0.8,1.6,0.8c1.5,0,2.1-1.5,2.1-3c0-0.1,0-0.2,0-0.3
					c-0.3,0.5-1.2,1.2-2.1,1.2c-1.4,0-2.5-0.8-2.5-2.4c0-1.3,1-2.5,2.6-2.5c2.1,0,2.9,1.8,2.9,3.9c0,2-0.9,3.9-3.1,3.9
					C137.6,267.3,137,266.9,136.5,266.3z M140.7,262.4c-0.1-0.9-0.6-2.1-1.9-2.1c-1.1,0-1.7,0.9-1.7,1.6c0,1.1,0.8,1.6,1.7,1.6
					C139.5,263.5,140.3,263.1,140.7,262.4z"/>
				<path class="st7" d="M142.8,263.4c0-1.8,0.8-3.9,2.9-3.9c2.1,0,2.9,2,2.9,3.9c0,1.8-0.8,3.9-2.9,3.9
					C143.6,267.3,142.8,265.2,142.8,263.4z M147.6,263.4c0-1.5-0.5-3.1-1.9-3.1c-1.4,0-1.9,1.5-1.9,3.1c0,1.5,0.5,3.1,1.9,3.1
					C147.1,266.4,147.6,264.9,147.6,263.4z"/>
				<path class="st7" d="M150.5,267.1l3-6.7h-4v-0.8h5.1v0.6l-3.1,6.9H150.5z"/>
			</g>
		</g>
		<g>
			<g>
				<path class="st8" d="M321.5,250.2h129.2c13.5,0,24.5-11,24.5-24.5v-54.8c0-13.5-11-24.5-24.5-24.5H321.5
					c-13.5,0-24.5,11-24.5,24.5v54.8C297,239.2,307.9,250.2,321.5,250.2z"/>
				<path class="st9" d="M460.3,250.3H311.8c-8.3,0-15-6.7-15-15v-74.1c0-8.3,6.7-15,15-15h148.5c8.3,0,15,6.7,15,15v74.1
					C475.3,243.6,468.6,250.3,460.3,250.3z M311.8,146.5c-8.1,0-14.7,6.6-14.7,14.7v74.1c0,8.1,6.6,14.7,14.7,14.7h148.5
					c8.1,0,14.7-6.6,14.7-14.7v-74.1c0-8.1-6.6-14.7-14.7-14.7H311.8z"/>
			</g>
			<g>
				<path class="st7" d="M310.8,181.3l0.7-0.9c0.6,0.7,1.7,1.4,3,1.4c1.7,0,2.2-0.9,2.2-1.6c0-2.5-5.6-1.1-5.6-4.5
					c0-1.6,1.4-2.6,3.3-2.6c1.5,0,2.6,0.5,3.4,1.3l-0.7,0.9c-0.7-0.8-1.7-1.1-2.7-1.1c-1.1,0-1.9,0.6-1.9,1.5c0,2.1,5.6,0.9,5.6,4.5
					c0,1.4-0.9,2.8-3.5,2.8C312.8,182.8,311.5,182.2,310.8,181.3z"/>
				<path class="st7" d="M319.7,182.6v-9.5h6.2v1.1h-5v3.1h4.9v1.1h-4.9v3.3h5v1.1H319.7z"/>
				<path class="st7" d="M327.4,177.9c0-2.9,2.1-4.9,4.9-4.9c1.7,0,2.8,0.8,3.6,1.9l-1,0.6c-0.5-0.8-1.5-1.4-2.6-1.4
					c-2.1,0-3.7,1.6-3.7,3.9c0,2.3,1.6,3.9,3.7,3.9c1.1,0,2.1-0.6,2.6-1.4l1,0.6c-0.8,1.1-1.9,1.9-3.6,1.9
					C329.5,182.8,327.4,180.8,327.4,177.9z"/>
				<path class="st7" d="M337.4,178.9v-5.8h1.2v5.8c0,1.7,0.9,2.8,2.7,2.8c1.8,0,2.7-1.1,2.7-2.8v-5.8h1.2v5.8
					c0,2.4-1.3,3.9-3.9,3.9C338.7,182.8,337.4,181.3,337.4,178.9z"/>
				<path class="st7" d="M352.8,182.6l-2.4-3.8h-1.9v3.8h-1.2v-9.5h3.8c1.7,0,3,1.1,3,2.9c0,1.7-1.2,2.7-2.5,2.8l2.6,3.9H352.8z
					 M352.9,176c0-1.1-0.8-1.8-1.9-1.8h-2.5v3.6h2.5C352.1,177.8,352.9,177,352.9,176z"/>
				<path class="st7" d="M356,182.6v-9.5h1.2v9.5H356z"/>
				<path class="st7" d="M361.7,182.6v-8.5h-3v-1.1h7.2v1.1h-3v8.5H361.7z"/>
				<path class="st7" d="M370.3,182.6v-4l-3.7-5.5h1.4l2.9,4.4l2.9-4.4h1.4l-3.7,5.5v4H370.3z"/>
				<path class="st7" d="M379.7,177.9c0-2.9,2.1-4.9,4.9-4.9c1.7,0,2.8,0.8,3.6,1.9l-1,0.6c-0.5-0.8-1.5-1.4-2.6-1.4
					c-2.1,0-3.7,1.6-3.7,3.9c0,2.3,1.6,3.9,3.7,3.9c1.1,0,2.1-0.6,2.6-1.4l1,0.6c-0.8,1.1-1.9,1.9-3.6,1.9
					C381.9,182.8,379.7,180.8,379.7,177.9z"/>
				<path class="st7" d="M389.3,177.9c0-2.8,1.9-4.9,4.7-4.9c2.8,0,4.7,2.1,4.7,4.9s-1.9,4.9-4.7,4.9
					C391.2,182.8,389.3,180.7,389.3,177.9z M397.5,177.9c0-2.2-1.4-3.9-3.5-3.9c-2.1,0-3.5,1.6-3.5,3.9c0,2.2,1.4,3.9,3.5,3.9
					C396.2,181.7,397.5,180.1,397.5,177.9z"/>
				<path class="st7" d="M400.6,182.6v-9.5h3.2c2.9,0,4.9,2.1,4.9,4.8c0,2.7-1.9,4.8-4.9,4.8H400.6z M407.5,177.9
					c0-2.1-1.3-3.7-3.6-3.7h-2.1v7.4h2.1C406.1,181.6,407.5,179.9,407.5,177.9z"/>
				<path class="st7" d="M410.6,182.6v-9.5h6.2v1.1h-5v3.1h4.9v1.1h-4.9v3.3h5v1.1H410.6z"/>
			</g>
			<g>
				<path class="st10" d="M314.1,209.1l1-1.1c0.8,1.1,2.3,1.9,4,1.9c2.1,0,3.3-1,3.3-2.7c0-1.8-1.4-2.5-3.5-2.5c-0.6,0-1.3,0-1.5,0
					V203c0.2,0,0.9,0,1.5,0c1.8,0,3.3-0.7,3.3-2.4c0-1.6-1.4-2.4-3.2-2.4c-1.6,0-2.7,0.6-3.8,1.7l-1-1.1c1-1.2,2.7-2.2,4.9-2.2
					c2.7,0,4.8,1.4,4.8,3.8c0,2.1-1.7,3.1-3.1,3.3c1.3,0.1,3.3,1.2,3.3,3.5c0,2.4-1.9,4.1-5,4.1
					C316.7,211.4,314.9,210.4,314.1,209.1z"/>
				<path class="st10" d="M325.9,209.1l1-1.1c0.8,1.1,2.3,1.9,4,1.9c2.1,0,3.3-1,3.3-2.7c0-1.8-1.4-2.5-3.5-2.5c-0.6,0-1.3,0-1.5,0
					V203c0.2,0,0.9,0,1.5,0c1.8,0,3.3-0.7,3.3-2.4c0-1.6-1.4-2.4-3.2-2.4c-1.6,0-2.7,0.6-3.8,1.7l-1-1.1c1-1.2,2.7-2.2,4.9-2.2
					c2.7,0,4.8,1.4,4.8,3.8c0,2.1-1.7,3.1-3.1,3.3c1.3,0.1,3.3,1.2,3.3,3.5c0,2.4-1.9,4.1-5,4.1
					C328.6,211.4,326.8,210.4,325.9,209.1z"/>
				<path class="st10" d="M350.1,211.2v-3.6h-6.8v-1.5l6.1-9.2h2.4v9.1h2v1.6h-2v3.6H350.1z M350.1,198.5l-5,7.4h5V198.5z"/>
				<path class="st10" d="M355.7,207.6c0-1.9,1.6-3.2,3.4-3.7c-1.6-0.5-3.2-1.5-3.2-3.4c0-2.6,2.5-3.7,4.9-3.7
					c2.3,0,4.9,1.1,4.9,3.7c0,1.9-1.5,3-3.2,3.4c1.8,0.5,3.4,1.8,3.4,3.7c0,2.4-2.3,3.9-5.1,3.9C358,211.4,355.7,210,355.7,207.6z
					 M364.1,207.4c0-1.9-2.4-2.7-3.3-2.8c-0.9,0.1-3.3,0.9-3.3,2.8c0,1.5,1.6,2.5,3.3,2.5C362.5,209.8,364.1,208.9,364.1,207.4z
					 M363.9,200.6c0-1.5-1.4-2.4-3.1-2.4c-1.7,0-3.1,0.9-3.1,2.4c0,1.7,2.2,2.3,3.1,2.5C361.6,202.9,363.9,202.4,363.9,200.6z"/>
				<path class="st10" d="M368,204c0-3.5,1.5-7.4,5.4-7.4c3.9,0,5.4,3.9,5.4,7.4c0,3.5-1.6,7.4-5.4,7.4
					C369.6,211.4,368,207.5,368,204z M377.1,204c0-2.8-0.9-5.8-3.6-5.8c-2.7,0-3.6,2.9-3.6,5.8s0.9,5.8,3.6,5.8
					C376.2,209.8,377.1,206.9,377.1,204z"/>
				<path class="st10" d="M398.4,211.2v-3.6h-6.8v-1.5l6.1-9.2h2.4v9.1h2v1.6h-2v3.6H398.4z M398.4,198.5l-5,7.4h5V198.5z"/>
				<path class="st10" d="M406.7,211.2v-11.9l-2.3,2.4l-1.1-1.1l3.6-3.7h1.6v14.3H406.7z"/>
			</g>
		</g>
		<path class="st12" d="M403.7,322.2L403.7,322.2c-13.8,0-25-11.2-25-25v0c0-13.8,11.2-25,25-25h0c13.8,0,25,11.2,25,25v0
			C428.7,311.1,417.5,322.2,403.7,322.2z"/>
		<g>
			<g>
				<path class="st6" d="M392.4,292.2c-0.4,1-0.8,2-1,3c-1.1,5.1,1,10.5,5.3,13.4c4.5,3,9.3,3.3,14.1,0.6c4.7-2.6,7.1-7.5,6.5-12.8
					c-0.1-1.3-0.5-2.6-1-3.8c-0.1-0.3-0.1-0.4,0.3-0.4c1,0,2,0,3,0c0.3,0,0.4,0.1,0.5,0.4c1.4,4.3,1.2,8.5-0.8,12.6
					c-2.3,4.7-6,7.7-11.1,8.9c-5.2,1.2-9.9,0.2-14.1-3.1c-4.9-3.9-6.9-9.1-6.2-15.3c0.1-1,0.4-2.1,0.7-3.1c0.1-0.2,0.1-0.3,0.4-0.3
					C390.1,292.2,391.2,292.2,392.4,292.2z"/>
				<path class="st6" d="M419.2,286.6c0,1.6-1.3,2.9-2.9,2.9c-1.6,0-2.9-1.4-2.9-2.9c0-1.6,1.3-2.9,2.9-2.9
					C417.9,283.7,419.2,285,419.2,286.6z"/>
				<path class="st6" d="M392.2,283.6c1.6,0,2.9,1.3,2.9,2.9c0,1.6-1.3,2.9-2.9,2.9c-1.6,0-2.9-1.3-2.9-2.9
					C389.3,284.8,390.6,283.5,392.2,283.6z"/>
			</g>
		</g>
	</g>
	<rect x="100.9" y="290.1" class="st10" width="88.5" height="34.3"/>
	<g>
		<g>
			<path class="st6" d="M128.4,311.7v-7.5h0.9v6.7h3.5v0.8H128.4z"/>
			<path class="st6" d="M133.4,307.9c0-2.2,1.5-3.9,3.7-3.9c2.2,0,3.7,1.7,3.7,3.9c0,2.2-1.5,3.9-3.7,3.9
				C134.9,311.8,133.4,310.1,133.4,307.9z M139.9,307.9c0-1.8-1.1-3.1-2.8-3.1c-1.7,0-2.8,1.3-2.8,3.1c0,1.8,1.1,3.1,2.8,3.1
				C138.8,311,139.9,309.7,139.9,307.9z"/>
			<path class="st6" d="M142,307.9c0-2.3,1.7-3.9,3.9-3.9c1.3,0,2.3,0.6,2.9,1.4l-0.7,0.5c-0.5-0.6-1.3-1-2.2-1
				c-1.6,0-2.9,1.3-2.9,3.1c0,1.8,1.3,3.1,2.9,3.1c0.9,0,1.6-0.4,2-0.8v-1.5h-2.6v-0.8h3.5v2.7c-0.7,0.8-1.7,1.3-3,1.3
				C143.8,311.8,142,310.3,142,307.9z"/>
			<path class="st6" d="M153.3,311.7v-7.5h0.9v7.5H153.3z"/>
			<path class="st6" d="M161.3,311.7l-4.4-6v6H156v-7.5h1l4.3,5.9v-5.9h0.9v7.5H161.3z"/>
		</g>
	</g>
	<g>
		<g>
			<path class="st10" d="M470.2,180.6c0,1.5-0.2,3-0.5,4.5c-0.7,3-2,5.7-3.9,8.2c-3.6,4.6-8.3,7.4-14.1,8.2c-4.2,0.6-8.2,0-12-1.9
				c-6.9-3.4-11-8.9-12.1-16.5c-0.8-5.9,0.6-11.2,4.2-15.9c3.6-4.6,8.3-7.3,14.1-8.2c0.8-0.1,1.6-0.2,2.4-0.2c0,0.8,0,1.7,0,2.5
				c-1,0.1-2,0.1-3,0.3c-4.2,0.8-7.8,2.8-10.7,6.1c-3.4,3.9-5,8.6-4.7,13.8c0.2,3.4,1.2,6.5,3.2,9.2c3.6,5.2,8.5,8,14.8,8.4
				c6.1,0.3,11.2-2,15.2-6.5c1.9-2.1,3.1-4.5,3.9-7.3c0.4-1.6,0.6-3.2,0.7-4.8C468.6,180.6,469.4,180.6,470.2,180.6z"/>
			<path class="st13" d="M470.2,180.6c-0.8,0-1.6,0-2.4,0c0-0.9-0.1-1.8-0.2-2.7c-0.4-2.9-1.4-5.6-3-8c-1.8-2.7-4.1-4.8-7-6.3
				c-1.6-0.8-3.2-1.4-4.9-1.8c-1.4-0.3-2.9-0.4-4.3-0.4c0-0.8,0-1.7,0-2.5c1.6-0.1,3.3,0.1,4.9,0.4c1.9,0.4,3.7,1,5.4,1.9
				c1.6,0.8,3.1,1.8,4.4,3c1.5,1.3,2.7,2.7,3.8,4.4c1.4,2.2,2.4,4.5,3,7.1C470.1,177.3,470.3,178.9,470.2,180.6z"/>
		</g>
		<g>
			<path class="st7" d="M437.8,182.4l0.6-0.7c0.5,0.6,1.3,1.1,2.4,1.1c1.3,0,1.8-0.7,1.8-1.3c0-1.9-4.5-0.9-4.5-3.6
				c0-1.2,1.1-2.1,2.6-2.1c1.1,0,2,0.4,2.7,1.1l-0.6,0.7c-0.6-0.6-1.4-0.9-2.2-0.9c-0.9,0-1.5,0.5-1.5,1.2c0,1.7,4.5,0.7,4.5,3.5
				c0,1.1-0.7,2.2-2.8,2.2C439.3,183.6,438.4,183.1,437.8,182.4z"/>
			<path class="st7" d="M451.2,183.5v-6.2l-2.6,6.2h-0.4l-2.5-6.2v6.2h-0.9v-7.5h1.3l2.3,5.7l2.3-5.7h1.3v7.5H451.2z"/>
			<path class="st7" d="M453.5,182.4l0.6-0.7c0.5,0.6,1.3,1.1,2.4,1.1c1.3,0,1.8-0.7,1.8-1.3c0-1.9-4.5-0.9-4.5-3.6
				c0-1.2,1.1-2.1,2.6-2.1c1.1,0,2,0.4,2.7,1.1l-0.6,0.7c-0.6-0.6-1.4-0.9-2.2-0.9c-0.9,0-1.5,0.5-1.5,1.2c0,1.7,4.5,0.7,4.5,3.5
				c0,1.1-0.7,2.2-2.8,2.2C455,183.6,454.1,183.1,453.5,182.4z"/>
		</g>
	</g>
</g>
</svg>
