<?xml version="1.0" encoding="utf-8"?>
<!-- Generator: Adobe Illustrator 19.1.0, SVG Export Plug-In . SVG Version: 6.00 Build 0)  -->
<svg version="1.1" xmlns="http://www.w3.org/2000/svg" xmlns:xlink="http://www.w3.org/1999/xlink" x="0px" y="0px"
	 viewBox="0 0 100 100" style="enable-background:new 0 0 100 100;" xml:space="preserve">
<style type="text/css">
	.st0{display:none;}
	.st1{display:inline;}
	.st2{fill:#FFFFFF;}
	.st3{fill:#34C1DC;}
	.st4{fill:#1D4C78;stroke:#FFFFFF;stroke-miterlimit:10;}
	.st5{fill:#F4F4F4;}
</style>
<g id="Layer_1" class="st0">
</g>
<g id="Layer_2">
	<g>
		<circle class="st4" cx="50" cy="50" r="35.7"/>
		<g>
			<path class="st5" d="M43.8,46.3c0.4,0,0.3,0.2-0.3,0.6c-0.6,0.4-0.9,1.2-0.9,2.3v8c0,1.1,0.3,1.8,0.9,2.2
				c0.6,0.4,0.7,0.6,0.3,0.6c-0.4,0-1.1-0.2-2.2-0.6S40,57.9,40,56.2v-6.1c0-1.7,0.5-2.8,1.6-3.2C42.6,46.5,43.3,46.3,43.8,46.3z
				 M54.6,46.1c0,0.1,0.3,0.2,0.9,0.3s1.2,0.2,1.9,0.3c0.7,0.1,1.3,0.3,1.8,0.5c0.6,0.2,0.8,0.6,0.8,1s-0.1,1.3-0.4,2.7
				c-0.3,1.4-0.6,2.8-1,4.2c-0.4,1.4-0.9,2.7-1.4,3.9c-0.5,1.1-0.9,1.7-1.4,1.7c-1.2,0-2.4-0.1-3.7-0.3s-2.4-0.4-3.5-0.8
				c-1.1-0.3-1.9-0.7-2.6-1s-1-0.8-1-1.2v-8.5c0-0.3,0.2-0.7,0.6-1.2c0.4-0.4,0.9-0.9,1.5-1.3c0.6-0.4,1.2-0.9,1.8-1.3
				s1.2-0.8,1.6-1c0.7-0.5,1.4-1.1,2.1-1.9s1.2-1.4,1.7-2.1c0.5-0.6,0.9-1.2,1.2-1.5c0.3-0.4,0.6-0.5,0.7-0.3
				c0.7,0.8,0.9,1.7,0.8,2.6c-0.1,0.9-0.4,1.7-0.8,2.4s-0.8,1.4-1.2,1.9S54.5,46,54.6,46.1z"/>
		</g>
	</g>
</g>
</svg>
