<?xml version="1.0" encoding="utf-8"?>
<!-- Generator: Adobe Illustrator 19.1.0, SVG Export Plug-In . SVG Version: 6.00 Build 0)  -->
<svg version="1.1" id="Layer_1" xmlns="http://www.w3.org/2000/svg" xmlns:xlink="http://www.w3.org/1999/xlink" x="0px" y="0px"
	 viewBox="0 0 500 500" style="enable-background:new 0 0 500 500;" xml:space="preserve">
<style type="text/css">
	.st0{fill:#E7E7E7;}
	.st1{fill:#15334F;}
	.st2{fill:#E95458;}
	.st3{fill:#FCB72B;}
	.st4{fill:#61CB81;}
	.st5{fill:#7E8082;}
	.st6{fill:#FFFFFF;}
	.st7{fill:#212121;}
	.st8{fill:#FFFFFF;stroke:#D6D6D6;stroke-miterlimit:10;}
	.st9{fill:none;}
	.st10{fill:#EEDB2E;}
	.st11{fill:#222840;}
	.st12{fill:#34C1DC;}
	.st13{fill:#EEE2F5;}
</style>
<g>
	<g>
		<rect x="48.1" y="172" class="st0" width="265.3" height="177.7"/>
		<rect x="48.1" y="172" class="st1" width="265.3" height="29.1"/>
		<circle class="st2" cx="60.8" cy="183.5" r="4.5"/>
		<circle class="st3" cx="77.5" cy="183.5" r="4.5"/>
		<circle class="st4" cx="92.4" cy="183.5" r="4.5"/>
		<g>
			<g>
				<g>
					<g>
						<path class="st5" d="M79.3,238.3v-9.5h1.2v8.5h4.4v1.1H79.3z"/>
						<path class="st5" d="M85.7,233.6c0-2.8,1.9-4.9,4.7-4.9c2.8,0,4.7,2.1,4.7,4.9s-1.9,4.9-4.7,4.9
							C87.6,238.5,85.7,236.4,85.7,233.6z M93.9,233.6c0-2.2-1.4-3.9-3.5-3.9c-2.1,0-3.5,1.6-3.5,3.9c0,2.2,1.4,3.9,3.5,3.9
							C92.5,237.4,93.9,235.8,93.9,233.6z"/>
						<path class="st5" d="M96.6,233.6c0-3,2.2-4.9,4.9-4.9c1.7,0,2.8,0.7,3.7,1.8l-0.9,0.6c-0.6-0.8-1.6-1.3-2.7-1.3
							c-2.1,0-3.7,1.6-3.7,3.9c0,2.3,1.6,3.9,3.7,3.9c1.1,0,2.1-0.6,2.5-1v-1.9h-3.3v-1.1h4.4v3.4c-0.9,1-2.2,1.6-3.7,1.6
							C98.8,238.5,96.6,236.5,96.6,233.6z"/>
						<path class="st5" d="M107.1,238.3v-9.5h1.2v9.5H107.1z"/>
						<path class="st5" d="M117.2,238.3l-5.5-7.6v7.6h-1.2v-9.5h1.2l5.5,7.4v-7.4h1.2v9.5H117.2z"/>
					</g>
				</g>
				<rect x="77.5" y="246.1" class="st6" width="199.5" height="29.8"/>
			</g>
			<g>
				<path class="st7" d="M88.1,261.9l0.6-0.6c0.4,0.6,1.2,1,2.1,1c1.1,0,1.8-0.5,1.8-1.4c0-0.9-0.8-1.3-1.9-1.3c-0.3,0-0.7,0-0.8,0
					v-0.9c0.1,0,0.5,0,0.8,0c0.9,0,1.7-0.4,1.7-1.2c0-0.8-0.8-1.3-1.7-1.3c-0.8,0-1.4,0.3-2,0.9l-0.5-0.6c0.5-0.7,1.4-1.2,2.6-1.2
					c1.4,0,2.5,0.7,2.5,2c0,1.1-0.9,1.6-1.6,1.8c0.7,0.1,1.7,0.6,1.7,1.9c0,1.3-1,2.2-2.7,2.2C89.5,263.1,88.5,262.6,88.1,261.9z"/>
				<path class="st7" d="M94.4,261.9l0.6-0.6c0.4,0.6,1.2,1,2.1,1c1.1,0,1.8-0.5,1.8-1.4c0-0.9-0.8-1.3-1.9-1.3c-0.3,0-0.7,0-0.8,0
					v-0.9c0.1,0,0.5,0,0.8,0c0.9,0,1.7-0.4,1.7-1.2c0-0.8-0.8-1.3-1.7-1.3c-0.8,0-1.4,0.3-2,0.9l-0.5-0.6c0.5-0.7,1.4-1.2,2.6-1.2
					c1.4,0,2.5,0.7,2.5,2c0,1.1-0.9,1.6-1.6,1.8c0.7,0.1,1.7,0.6,1.7,1.9c0,1.3-1,2.2-2.7,2.2C95.8,263.1,94.8,262.6,94.4,261.9z"/>
				<path class="st7" d="M104.2,263v-1.9h-3.6v-0.8l3.2-4.9h1.3v4.8h1.1v0.8h-1.1v1.9H104.2z M104.2,256.3l-2.6,3.9h2.6V256.3z"/>
				<path class="st7" d="M107.2,261.1c0-1,0.9-1.7,1.8-2c-0.9-0.2-1.7-0.8-1.7-1.8c0-1.4,1.3-2,2.6-2c1.2,0,2.6,0.6,2.6,2
					c0,1-0.8,1.6-1.7,1.8c0.9,0.3,1.8,1,1.8,2c0,1.3-1.2,2-2.7,2C108.4,263.1,107.2,262.4,107.2,261.1z M111.6,261
					c0-1-1.3-1.4-1.7-1.5c-0.5,0.1-1.8,0.5-1.8,1.5c0,0.8,0.8,1.3,1.8,1.3C110.8,262.3,111.6,261.8,111.6,261z M111.5,257.4
					c0-0.8-0.7-1.2-1.6-1.2c-0.9,0-1.6,0.5-1.6,1.2c0,0.9,1.2,1.2,1.6,1.3C110.3,258.6,111.5,258.3,111.5,257.4z"/>
				<path class="st7" d="M113.7,259.2c0-1.8,0.8-3.9,2.9-3.9c2.1,0,2.9,2,2.9,3.9c0,1.8-0.8,3.9-2.9,3.9
					C114.5,263.1,113.7,261,113.7,259.2z M118.5,259.2c0-1.5-0.5-3.1-1.9-3.1s-1.9,1.5-1.9,3.1c0,1.5,0.5,3.1,1.9,3.1
					S118.5,260.7,118.5,259.2z"/>
				<path class="st7" d="M124,263v-1.9h-3.6v-0.8l3.2-4.9h1.3v4.8h1.1v0.8h-1.1v1.9H124z M124,256.3l-2.6,3.9h2.6V256.3z"/>
				<path class="st7" d="M128.3,263v-6.3l-1.2,1.3l-0.6-0.6l1.9-1.9h0.8v7.5H128.3z"/>
			</g>
		</g>
		<g>
			<g>
				<path class="st8" d="M298.7,246.1h127.9c13.9,0,25.2-11.3,25.2-25.2v-53.5c0-13.9-11.3-25.2-25.2-25.2H298.7
					c-13.9,0-25.2,11.3-25.2,25.2v53.5C273.6,234.8,284.8,246.1,298.7,246.1z"/>
				<path class="st9" d="M436.9,246.2H288.4c-8.3,0-15-6.7-15-15v-74.1c0-8.3,6.7-15,15-15h148.5c8.3,0,15,6.7,15,15v74.1
					C451.9,239.5,445.2,246.2,436.9,246.2z M288.4,142.3c-8.1,0-14.7,6.6-14.7,14.7v74.1c0,8.1,6.6,14.7,14.7,14.7h148.5
					c8.1,0,14.7-6.6,14.7-14.7v-74.1c0-8.1-6.6-14.7-14.7-14.7H288.4z"/>
			</g>
			<g>
				<path class="st7" d="M290,178.5V170h-3v-1.1h7.2v1.1h-3v8.5H290z"/>
				<path class="st7" d="M295,173.7c0-2.8,1.9-4.9,4.7-4.9c2.8,0,4.7,2.1,4.7,4.9s-1.9,4.9-4.7,4.9C296.9,178.6,295,176.5,295,173.7
					z M303.2,173.7c0-2.2-1.4-3.9-3.5-3.9c-2.1,0-3.5,1.6-3.5,3.9c0,2.2,1.4,3.9,3.5,3.9C301.8,177.6,303.2,175.9,303.2,173.7z"/>
				<path class="st7" d="M312,178.5l-3.6-4.3l-1,1.1v3.2h-1.2v-9.5h1.2v4.9l4.2-4.9h1.5l-4,4.5l4.3,5H312z"/>
				<path class="st7" d="M314.8,178.5v-9.5h6.2v1.1h-5v3.1h4.9v1.1H316v3.3h5v1.1H314.8z"/>
				<path class="st7" d="M329.6,178.5l-5.5-7.6v7.6h-1.2v-9.5h1.2l5.5,7.4v-7.4h1.2v9.5H329.6z"/>
			</g>
			<g>
				<path class="st10" d="M290.6,204.9l1-1.1c0.8,1.1,2.3,1.9,4,1.9c2.1,0,3.3-1,3.3-2.7c0-1.8-1.4-2.5-3.5-2.5c-0.6,0-1.3,0-1.5,0
					v-1.6c0.2,0,0.9,0,1.5,0c1.8,0,3.3-0.7,3.3-2.4c0-1.6-1.4-2.4-3.2-2.4c-1.6,0-2.7,0.6-3.8,1.7l-1-1.1c1-1.2,2.7-2.2,4.9-2.2
					c2.7,0,4.8,1.4,4.8,3.8c0,2.1-1.7,3.1-3.1,3.3c1.3,0.1,3.3,1.2,3.3,3.5c0,2.4-1.9,4.1-5,4.1
					C293.3,207.3,291.5,206.2,290.6,204.9z"/>
				<path class="st10" d="M302.5,204.9l1-1.1c0.8,1.1,2.3,1.9,4,1.9c2.1,0,3.3-1,3.3-2.7c0-1.8-1.4-2.5-3.5-2.5c-0.6,0-1.3,0-1.5,0
					v-1.6c0.2,0,0.9,0,1.5,0c1.8,0,3.3-0.7,3.3-2.4c0-1.6-1.4-2.4-3.2-2.4c-1.6,0-2.7,0.6-3.8,1.7l-1-1.1c1-1.2,2.7-2.2,4.9-2.2
					c2.7,0,4.8,1.4,4.8,3.8c0,2.1-1.7,3.1-3.1,3.3c1.3,0.1,3.3,1.2,3.3,3.5c0,2.4-1.9,4.1-5,4.1
					C305.2,207.3,303.4,206.2,302.5,204.9z"/>
				<path class="st10" d="M326.7,207v-3.6H320v-1.5l6.1-9.2h2.4v9.1h2v1.6h-2v3.6H326.7z M326.7,194.4l-5,7.4h5V194.4z"/>
				<path class="st10" d="M332.3,203.4c0-1.9,1.6-3.2,3.4-3.7c-1.6-0.5-3.2-1.5-3.2-3.4c0-2.6,2.5-3.7,4.9-3.7
					c2.3,0,4.9,1.1,4.9,3.7c0,1.9-1.5,3-3.2,3.4c1.8,0.5,3.4,1.8,3.4,3.7c0,2.4-2.3,3.9-5.1,3.9
					C334.6,207.3,332.3,205.8,332.3,203.4z M340.7,203.2c0-1.9-2.4-2.7-3.3-2.8c-0.9,0.1-3.3,0.9-3.3,2.8c0,1.5,1.6,2.5,3.3,2.5
					C339.1,205.7,340.7,204.8,340.7,203.2z M340.5,196.5c0-1.5-1.4-2.4-3.1-2.4c-1.7,0-3.1,0.9-3.1,2.4c0,1.7,2.2,2.3,3.1,2.5
					C338.2,198.8,340.5,198.2,340.5,196.5z"/>
				<path class="st10" d="M344.6,199.9c0-3.5,1.5-7.4,5.4-7.4c3.9,0,5.4,3.9,5.4,7.4c0,3.5-1.6,7.4-5.4,7.4
					C346.2,207.3,344.6,203.4,344.6,199.9z M353.7,199.9c0-2.8-0.9-5.8-3.6-5.8c-2.7,0-3.6,2.9-3.6,5.8s0.9,5.8,3.6,5.8
					C352.8,205.7,353.7,202.7,353.7,199.9z"/>
				<path class="st10" d="M375,207v-3.6h-6.8v-1.5l6.1-9.2h2.4v9.1h2v1.6h-2v3.6H375z M375,194.4l-5,7.4h5V194.4z"/>
				<path class="st10" d="M383.3,207v-11.9l-2.3,2.4l-1.1-1.1l3.6-3.7h1.6V207H383.3z"/>
			</g>
		</g>
		<path class="st12" d="M380.3,318.1L380.3,318.1c-13.8,0-25-11.2-25-25v0c0-13.8,11.2-25,25-25h0c13.8,0,25,11.2,25,25v0
			C405.3,306.9,394.1,318.1,380.3,318.1z"/>
		<g>
			<g>
				<path class="st6" d="M369,288c-0.4,1-0.8,2-1,3c-1.1,5.1,1,10.5,5.3,13.4c4.5,3,9.3,3.3,14.1,0.6c4.7-2.6,7.1-7.5,6.5-12.8
					c-0.1-1.3-0.5-2.6-1-3.8c-0.1-0.3-0.1-0.4,0.3-0.4c1,0,2,0,3,0c0.3,0,0.4,0.1,0.5,0.4c1.4,4.3,1.2,8.5-0.8,12.6
					c-2.3,4.7-6,7.7-11.1,8.9c-5.2,1.2-9.9,0.2-14.1-3.1c-4.9-3.9-6.9-9.1-6.2-15.3c0.1-1,0.4-2.1,0.7-3.1c0.1-0.2,0.1-0.3,0.4-0.3
					C366.7,288,367.8,288,369,288z"/>
				<path class="st6" d="M395.8,282.4c0,1.6-1.3,2.9-2.9,2.9c-1.6,0-2.9-1.4-2.9-2.9c0-1.6,1.3-2.9,2.9-2.9
					C394.5,279.5,395.8,280.8,395.8,282.4z"/>
				<path class="st6" d="M368.8,279.4c1.6,0,2.9,1.3,2.9,2.9c0,1.6-1.3,2.9-2.9,2.9c-1.6,0-2.9-1.3-2.9-2.9
					C365.9,280.7,367.2,279.4,368.8,279.4z"/>
			</g>
		</g>
	</g>
	<rect x="77.5" y="285.9" class="st10" width="88.5" height="34.3"/>
	<g>
		<g>
			<path class="st6" d="M105,307.5V300h0.9v6.7h3.5v0.8H105z"/>
			<path class="st6" d="M110,303.8c0-2.2,1.5-3.9,3.7-3.9c2.2,0,3.7,1.7,3.7,3.9c0,2.2-1.5,3.9-3.7,3.9
				C111.5,307.7,110,306,110,303.8z M116.5,303.8c0-1.8-1.1-3.1-2.8-3.1c-1.7,0-2.8,1.3-2.8,3.1c0,1.8,1.1,3.1,2.8,3.1
				C115.4,306.8,116.5,305.5,116.5,303.8z"/>
			<path class="st6" d="M118.6,303.8c0-2.3,1.7-3.9,3.9-3.9c1.3,0,2.3,0.6,2.9,1.4l-0.7,0.5c-0.5-0.6-1.3-1-2.2-1
				c-1.6,0-2.9,1.3-2.9,3.1c0,1.8,1.3,3.1,2.9,3.1c0.9,0,1.6-0.4,2-0.8v-1.5h-2.6v-0.8h3.5v2.7c-0.7,0.8-1.7,1.3-3,1.3
				C120.4,307.7,118.6,306.1,118.6,303.8z"/>
			<path class="st6" d="M129.9,307.5V300h0.9v7.5H129.9z"/>
			<path class="st6" d="M137.9,307.5l-4.4-6v6h-0.9V300h1l4.3,5.9V300h0.9v7.5H137.9z"/>
		</g>
	</g>
	<g>
		<g>
			<path class="st10" d="M437.9,176.5c0,1.5-0.2,3-0.5,4.5c-0.7,3-2,5.7-3.9,8.2c-3.6,4.6-8.3,7.4-14.1,8.2c-4.2,0.6-8.2,0-12-1.9
				c-6.9-3.4-11-8.9-12.1-16.5c-0.8-5.9,0.6-11.2,4.2-15.9c3.6-4.6,8.3-7.3,14.1-8.2c0.8-0.1,1.6-0.2,2.4-0.2c0,0.8,0,1.7,0,2.5
				c-1,0.1-2,0.1-3,0.3c-4.2,0.8-7.8,2.8-10.7,6.1c-3.4,3.9-5,8.6-4.7,13.8c0.2,3.4,1.2,6.5,3.2,9.2c3.6,5.2,8.5,8,14.8,8.4
				c6.1,0.3,11.2-2,15.2-6.5c1.9-2.1,3.1-4.5,3.9-7.3c0.4-1.6,0.6-3.2,0.7-4.8C436.2,176.4,437,176.5,437.9,176.5z"/>
			<path class="st13" d="M437.9,176.5c-0.8,0-1.6,0-2.4,0c0-0.9-0.1-1.8-0.2-2.7c-0.4-2.9-1.4-5.6-3-8c-1.8-2.7-4.1-4.8-7-6.3
				c-1.6-0.8-3.2-1.4-4.9-1.8c-1.4-0.3-2.9-0.4-4.3-0.4c0-0.8,0-1.7,0-2.5c1.6-0.1,3.3,0.1,4.9,0.4c1.9,0.4,3.7,1,5.4,1.9
				c1.6,0.8,3.1,1.8,4.4,3c1.5,1.3,2.7,2.7,3.8,4.4c1.4,2.2,2.4,4.5,3,7.1C437.7,173.2,437.9,174.8,437.9,176.5z"/>
		</g>
		<g>
			<g>
				<path class="st7" d="M407.5,182.1V181c4-3.2,6.2-5,6.2-6.9c0-1.4-1.2-2-2.3-2c-1.3,0-2.4,0.6-3,1.4l-0.9-0.9
					c0.9-1.1,2.3-1.8,3.9-1.8c1.9,0,3.7,1.1,3.7,3.3c0,2.3-2.3,4.4-5.4,6.8h5.5v1.2H407.5z"/>
				<path class="st7" d="M417.5,180.5l0.9-0.9c0.7,0.9,1.7,1.5,3.1,1.5c1.5,0,2.6-1,2.6-2.4c0-1.5-1.1-2.4-2.6-2.4
					c-1,0-1.8,0.3-2.6,1.1l-1-0.4v-6h6.8v1.2h-5.4v3.9c0.5-0.5,1.5-1,2.6-1c1.9,0,3.5,1.3,3.5,3.6c0,2.3-1.7,3.7-4,3.7
					C419.5,182.3,418.3,181.6,417.5,180.5z"/>
			</g>
		</g>
	</g>
</g>
</svg>
