<?xml version="1.0" encoding="utf-8"?>
<!-- Generator: Adobe Illustrator 19.1.0, SVG Export Plug-In . SVG Version: 6.00 Build 0)  -->
<svg version="1.1" id="Layer_1" xmlns="http://www.w3.org/2000/svg" xmlns:xlink="http://www.w3.org/1999/xlink" x="0px" y="0px"
	 viewBox="-179 -20 600 600" style="enable-background:new -179 -20 600 600;" xml:space="preserve">
<style type="text/css">
	.st0{fill:#EFDA18;}
	.st1{fill:#FFFFFF;}
	.st2{fill:#26236D;}
	.st3{enable-background:new    ;}
</style>
<circle class="st0" cx="122.9" cy="277.9" r="282.9"/>
<rect x="-179" y="388" class="st1" width="600" height="87"/>
<g>
	<g>
		<path class="st2" d="M-3.3,420.9h-2.5v-3.3c0-6.4-5.2-11.6-11.6-11.6c-6.4,0-11.6,5.2-11.6,11.6v3.3h-2.5c-0.5,0-0.8,0.4-0.8,0.8
			v20.7c0,1.8,1.5,3.3,3.3,3.3h23.2c1.8,0,3.3-1.5,3.3-3.3v-20.7C-2.5,421.3-2.8,420.9-3.3,420.9z M-14.9,438.2c0,0.2,0,0.5-0.2,0.6
			c-0.2,0.2-0.4,0.3-0.6,0.3H-19c-0.2,0-0.5-0.1-0.6-0.3c-0.2-0.2-0.2-0.4-0.2-0.6l0.5-4.7c-0.8-0.6-1.4-1.6-1.4-2.7
			c0-1.8,1.5-3.3,3.3-3.3s3.3,1.5,3.3,3.3c0,1.1-0.5,2-1.4,2.7L-14.9,438.2z M-10.7,420.9H-24v-3.3c0-3.7,3-6.6,6.6-6.6
			c3.7,0,6.6,3,6.6,6.6L-10.7,420.9L-10.7,420.9z"/>
	</g>
</g>
<g class="st3">
	<path class="st2" d="M22.5,433.2l-2.4,7.3H17l7.9-23.3h3.6l7.9,23.3h-3.2l-2.5-7.3H22.5z M30.1,430.8l-2.3-6.7
		c-0.5-1.5-0.9-2.9-1.2-4.3h-0.1c-0.3,1.4-0.7,2.8-1.2,4.2l-2.3,6.7H30.1z"/>
	<path class="st2" d="M53.4,435.9c0,1.7,0,3.2,0.1,4.6h-2.7l-0.2-2.7h-0.1c-0.8,1.3-2.6,3.1-5.5,3.1c-2.6,0-5.8-1.5-5.8-7.3v-9.8h3
		v9.3c0,3.2,1,5.3,3.7,5.3c2,0,3.5-1.4,4-2.8c0.2-0.5,0.3-1,0.3-1.6v-10.3h3V435.9z"/>
	<path class="st2" d="M62.1,419v4.8h4.4v2.3h-4.4v9c0,2.1,0.6,3.2,2.3,3.2c0.8,0,1.4-0.1,1.8-0.2l0.1,2.3c-0.6,0.2-1.5,0.4-2.7,0.4
		c-1.4,0-2.6-0.4-3.3-1.3c-0.9-0.9-1.2-2.4-1.2-4.4v-9.1h-2.6v-2.3h2.6v-4L62.1,419z"/>
	<path class="st2" d="M69.8,416h3v10.4H73c0.5-0.9,1.2-1.6,2.2-2.1c0.9-0.5,2-0.9,3.1-0.9c2.2,0,5.8,1.4,5.8,7.2v10h-3v-9.6
		c0-2.7-1-5-3.9-5c-2,0-3.5,1.4-4.1,3c-0.2,0.4-0.2,0.9-0.2,1.5v10.1h-3V416z"/>
	<path class="st2" d="M90.7,432.7c0.1,4.1,2.7,5.8,5.7,5.8c2.2,0,3.5-0.4,4.6-0.9l0.5,2.2c-1.1,0.5-2.9,1-5.6,1
		c-5.1,0-8.2-3.4-8.2-8.4s3-9,7.8-9c5.5,0,6.9,4.8,6.9,7.9c0,0.6-0.1,1.1-0.1,1.4H90.7z M99.6,430.5c0-1.9-0.8-4.9-4.2-4.9
		c-3.1,0-4.4,2.8-4.7,4.9H99.6z"/>
	<path class="st2" d="M106.3,428.3c0-1.7,0-3.1-0.1-4.5h2.7l0.2,2.8h0.1c0.8-1.6,2.8-3.1,5.5-3.1c2.3,0,5.9,1.4,5.9,7.1v10h-3v-9.6
		c0-2.7-1-4.9-3.9-4.9c-2,0-3.6,1.4-4.1,3.1c-0.1,0.4-0.2,0.9-0.2,1.4v10.1h-3V428.3z"/>
	<path class="st2" d="M129,419v4.8h4.4v2.3H129v9c0,2.1,0.6,3.2,2.3,3.2c0.8,0,1.4-0.1,1.8-0.2l0.1,2.3c-0.6,0.2-1.5,0.4-2.7,0.4
		c-1.4,0-2.6-0.4-3.3-1.3c-0.9-0.9-1.2-2.4-1.2-4.4v-9.1h-2.6v-2.3h2.6v-4L129,419z"/>
	<path class="st2" d="M140.2,419.1c0,1-0.7,1.9-1.9,1.9c-1.1,0-1.8-0.8-1.8-1.9c0-1.1,0.8-1.9,1.9-1.9
		C139.5,417.2,140.2,418,140.2,419.1z M136.8,440.5v-16.7h3v16.7H136.8z"/>
	<path class="st2" d="M156.8,439.9c-0.8,0.4-2.6,1-4.8,1c-5,0-8.3-3.4-8.3-8.5c0-5.1,3.5-8.9,9-8.9c1.8,0,3.4,0.4,4.2,0.9l-0.7,2.3
		c-0.7-0.4-1.9-0.8-3.5-0.8c-3.8,0-5.9,2.8-5.9,6.3c0,3.9,2.5,6.3,5.8,6.3c1.7,0,2.9-0.5,3.7-0.8L156.8,439.9z"/>
	<path class="st2" d="M169.7,440.5l-0.2-2.1h-0.1c-0.9,1.3-2.7,2.5-5.1,2.5c-3.4,0-5.1-2.4-5.1-4.8c0-4,3.6-6.3,10.1-6.2v-0.3
		c0-1.4-0.4-3.9-3.8-3.9c-1.6,0-3.2,0.5-4.4,1.2l-0.7-2c1.4-0.9,3.4-1.5,5.5-1.5c5.1,0,6.4,3.5,6.4,6.8v6.3c0,1.5,0.1,2.9,0.3,4
		H169.7z M169.2,432c-3.3-0.1-7.1,0.5-7.1,3.8c0,2,1.3,2.9,2.9,2.9c2.2,0,3.6-1.4,4-2.8c0.1-0.3,0.2-0.7,0.2-1V432z"/>
	<path class="st2" d="M180.6,419v4.8h4.4v2.3h-4.4v9c0,2.1,0.6,3.2,2.3,3.2c0.8,0,1.4-0.1,1.8-0.2l0.1,2.3c-0.6,0.2-1.5,0.4-2.7,0.4
		c-1.4,0-2.6-0.4-3.3-1.3c-0.9-0.9-1.2-2.4-1.2-4.4v-9.1H175v-2.3h2.6v-4L180.6,419z"/>
	<path class="st2" d="M191.7,419.1c0,1-0.7,1.9-1.9,1.9c-1.1,0-1.8-0.8-1.8-1.9c0-1.1,0.8-1.9,1.9-1.9
		C191,417.2,191.7,418,191.7,419.1z M188.4,440.5v-16.7h3v16.7H188.4z"/>
	<path class="st2" d="M211.6,432c0,6.2-4.3,8.9-8.3,8.9c-4.5,0-8-3.3-8-8.6c0-5.6,3.7-8.9,8.3-8.9
		C208.3,423.4,211.6,426.9,211.6,432z M198.3,432.2c0,3.7,2.1,6.4,5.1,6.4c2.9,0,5.1-2.7,5.1-6.5c0-2.8-1.4-6.4-5-6.4
		C199.9,425.7,198.3,429,198.3,432.2z"/>
	<path class="st2" d="M215.4,428.3c0-1.7,0-3.1-0.1-4.5h2.7l0.2,2.8h0.1c0.8-1.6,2.8-3.1,5.5-3.1c2.3,0,5.9,1.4,5.9,7.1v10h-3v-9.6
		c0-2.7-1-4.9-3.9-4.9c-2,0-3.6,1.4-4.1,3.1c-0.1,0.4-0.2,0.9-0.2,1.4v10.1h-3V428.3z"/>
	<path class="st2" d="M245.8,433.2l-2.4,7.3h-3.1l7.9-23.3h3.6l7.9,23.3h-3.2l-2.5-7.3H245.8z M253.4,430.8l-2.3-6.7
		c-0.5-1.5-0.9-2.9-1.2-4.3h-0.1c-0.3,1.4-0.7,2.8-1.2,4.2l-2.3,6.7H253.4z"/>
	<path class="st2" d="M263.2,417.5c1.5-0.2,3.4-0.4,5.8-0.4c3,0,5.2,0.7,6.5,1.9c1.3,1.1,2,2.8,2,4.9c0,2.1-0.6,3.8-1.8,5
		c-1.6,1.7-4.2,2.6-7.1,2.6c-0.9,0-1.7,0-2.4-0.2v9.3h-3V417.5z M266.2,428.7c0.7,0.2,1.5,0.2,2.5,0.2c3.6,0,5.8-1.8,5.8-5
		c0-3.1-2.2-4.6-5.5-4.6c-1.3,0-2.3,0.1-2.8,0.2V428.7z"/>
	<path class="st2" d="M284.6,417.2v23.3h-3v-23.3H284.6z"/>
</g>
<g>
	<g>
		<g>
			<g>
				<path class="st1" d="M-91.8,206.2c-2.3-2.3-5.2-3.5-8.4-3.5c-3.2,0-6.1,1.2-8.4,3.5s-3.5,5.2-3.5,8.4s1.2,6.1,3.5,8.4
					c2.3,2.3,4.9,3.5,8.4,3.5c3.2,0,6.1-1.2,8.4-3.5s3.5-4.9,3.5-8.4C-88.3,211.4-89.5,208.5-91.8,206.2z"/>
				<path class="st1" d="M5.9,206.8c-2.3-2.3-5.2-3.5-8.4-3.5s-6.1,1.2-8.4,3.5c-2.3,2.3-3.5,5.2-3.5,8.4s1.2,6.1,3.5,8.4
					s4.9,3.5,8.4,3.5c3.2,0,6.1-1.2,8.4-3.5c2.3-2.3,3.5-4.9,3.5-8.4C9.3,211.9,8.2,209.1,5.9,206.8z"/>
			</g>
			<path class="st1" d="M-3.3,237.9c3.5,7.2,5.2,15,5.2,23.1c0,14.7-5.2,27.1-15.6,37.7c-10.4,10.4-23.1,15.6-37.7,15.6
				s-27.1-5.2-37.7-15.6c-10.4-10.4-15.6-23.1-15.6-37.7c0-8.4,1.7-15.8,5.2-23.1h-15.3c-2.6,7.2-4,15-4,23.1
				c0,9.2,1.7,17.9,5.2,26.2c3.5,8.1,8.4,15.3,14.4,21.3c6.3,6.3,13.3,10.9,21.3,14.4c8.4,3.5,17,5.2,26.2,5.2s17.9-1.7,26.2-5.2
				c8.1-3.5,15.3-8.4,21.3-14.4c6.3-6.3,10.9-13.3,14.4-21.3c3.5-8.4,5.2-17,5.2-26.2c0-8.1-1.4-15.8-4-23.1H-3.3z"/>
		</g>
	</g>
	<g>
		<path class="st1" d="M31.8,287.4c-2,0-3.7,0.6-5.5,1.4c-1.4,0.9-2.9,2-3.7,3.7c-0.9,1.7-1.4,3.5-1.4,5.8c0,2,0.6,4,1.4,5.8
			c0.9,1.7,2,2.9,3.7,3.7c1.4,0.9,3.2,1.4,5.2,1.4s3.7-0.3,5.5-0.9s2.9-1.7,4-2.9l3.2,3.2c-1.4,1.7-3.2,3.2-5.5,4s-4.6,1.4-7.2,1.4
			c-2.9,0-5.8-0.6-8.1-2s-4-3.2-5.5-5.5c-1.4-2.3-2-4.9-2-8.1s0.6-5.8,2-8.1c1.4-2.3,3.2-4.3,5.5-5.5c2.3-1.4,4.9-2,8.1-2
			c2.6,0,4.9,0.3,6.9,1.2c2,0.9,3.7,2,5.2,3.5l-2.9,3.7C38.5,288.6,35.3,287.4,31.8,287.4z"/>
		<path class="st1" d="M70.4,284.6c2.3,1.4,4.3,3.2,5.5,5.5c1.4,2.3,2,4.9,2,8.1s-0.6,5.8-2,8.1c-1.4,2.3-3.2,4.3-5.5,5.5
			c-2.3,1.4-5.2,2-8.1,2c-3.2,0-5.8-0.6-8.4-2c-2.3-1.4-4.3-3.2-5.5-5.5c-1.4-2.3-2-5.2-2-8.1c0-3.2,0.6-5.8,2-8.1
			c1.4-2.3,3.2-4.3,5.5-5.5c2.3-1.4,5.2-2,8.4-2C65.5,282.5,68.1,283.4,70.4,284.6z M56.9,288.9c-1.4,0.9-2.9,2.3-3.7,3.7
			c-0.9,1.7-1.4,3.5-1.4,5.8c0,2,0.6,4,1.4,5.8s2,2.9,3.7,3.7c1.4,0.9,3.5,1.4,5.5,1.4s3.7-0.6,5.5-1.4c1.4-0.9,2.9-2.3,3.7-3.7
			c0.9-1.7,1.4-3.5,1.4-5.8c0-2-0.6-4-1.4-5.8c-0.9-1.7-2-2.9-3.7-3.7c-1.4-0.9-3.5-1.4-5.5-1.4C60.3,287.4,58.6,287.7,56.9,288.9z"
			/>
		<path class="st1" d="M110.2,285.7c2,2,3.2,4.9,3.2,8.6v19h-5.5v-17.6c0-2.6-0.9-4.6-2.3-6.1c-1.4-1.4-3.5-2.3-6.1-2.3
			c-2.9,0-4.9,0.9-6.6,2.6s-2.6,4-2.9,6.6v16.4h-5.5v-30.3H90v6.6c2-4.3,6.1-6.6,11.8-6.6C105.3,282.5,108.2,283.7,110.2,285.7z"/>
		<path class="st1" d="M147.7,285.7c2,2,3.2,4.9,3.2,8.6v19h-5.5v-17.6c0-2.6-0.9-4.6-2.3-6.1c-1.4-1.4-3.5-2.3-6.1-2.3
			c-2.9,0-4.9,0.9-6.6,2.6s-2.6,4-2.9,6.6v16.4H122v-30.3h5.5v6.6c2-4.3,6.1-6.6,11.8-6.6C142.8,282.5,145.6,283.7,147.7,285.7z"/>
		<path class="st1" d="M180.8,286.9c2.3,2.9,3.7,6.6,3.7,11.8c0,0.9,0,1.4,0,1.7H160c0.3,2.9,1.4,4.9,3.5,6.6c2,1.7,4.3,2.3,6.9,2.3
			c1.7,0,3.5-0.3,5.2-0.9c1.4-0.6,2.9-1.7,4-2.9l2.9,3.2c-1.4,1.7-3.5,2.9-5.5,3.7s-4.6,1.4-7.2,1.4c-3.2,0-5.8-0.6-8.1-2
			c-2.3-1.4-4-3.2-5.5-5.5c-1.4-2.3-2-5.2-2-8.1c0-3.2,0.6-5.8,2-8.1c1.4-2.3,3.2-4.3,5.5-5.5c2.3-1.4,4.9-2,8.1-2
			C174.4,282.5,178.2,284,180.8,286.9z M179.3,296.1c-0.3-2.9-1.2-4.9-2.9-6.6c-1.7-1.7-4-2.3-6.6-2.3s-4.9,0.9-6.9,2.3
			c-1.7,1.7-2.9,3.7-3.2,6.6H179.3z"/>
		<path class="st1" d="M203.8,287.4c-2,0-3.7,0.6-5.5,1.4c-1.4,0.9-2.9,2-3.7,3.7s-1.4,3.5-1.4,5.8c0,2,0.6,4,1.4,5.8s2,2.9,3.7,3.7
			c1.4,0.9,3.2,1.4,5.2,1.4s3.7-0.3,5.5-0.9c1.7-0.6,2.9-1.7,4-2.9l3.2,3.2c-1.4,1.7-3.2,3.2-5.5,4c-2,0.9-4.6,1.4-7.2,1.4
			c-2.9,0-5.8-0.6-8.1-2c-2.3-1.4-4-3.2-5.5-5.5c-1.4-2.3-2-4.9-2-8.1s0.6-5.8,2-8.1c1.4-2.3,3.2-4.3,5.5-5.5c2.3-1.4,4.9-2,8.1-2
			c2.6,0,4.9,0.3,6.9,1.2c2,0.9,3.7,2,5.2,3.5l-2.9,3.7C210.5,288.6,207.3,287.4,203.8,287.4z"/>
		<path class="st1" d="M238.4,311.6c-2.3,1.4-4.9,2.3-7.2,2.3c-2.3,0-4.3-0.9-6.1-2.3c-1.4-1.4-2.3-3.7-2.3-6.6v-17h-4.3v-4h4.3
			v-8.4h5.5v8.4h9.5v4h-9.5v16.1c0,1.7,0.3,2.9,0.9,3.7s1.4,1.2,2.9,1.2c1.4,0,3.2-0.6,4.9-1.4L238.4,311.6z"/>
		<path class="st1" d="M268.1,286.9c2.3,2.9,3.7,6.6,3.7,11.8c0,0.9,0,1.4,0,1.7h-24.5c0.3,2.9,1.4,4.9,3.5,6.6s4.3,2.3,6.9,2.3
			c1.7,0,3.5-0.3,5.2-0.9c1.4-0.6,2.9-1.7,4-2.9l2.9,3.2c-1.4,1.7-3.5,2.9-5.5,3.7c-2,0.9-4.6,1.4-7.2,1.4c-3.2,0-5.8-0.6-8.1-2
			c-2.3-1.4-4-3.2-5.5-5.5c-1.4-2.3-2-5.2-2-8.1c0-3.2,0.6-5.8,2-8.1c1.4-2.3,3.2-4.3,5.5-5.5c2.3-1.4,4.9-2,8.1-2
			C262,282.5,265.8,284,268.1,286.9z M266.9,296.1c-0.3-2.9-1.2-4.9-2.9-6.6c-1.7-1.7-4-2.3-6.6-2.3s-4.9,0.9-6.9,2.3
			c-1.7,1.7-2.9,3.7-3.2,6.6H266.9z"/>
		<path class="st1" d="M308.4,270.4v43.2H303v-6.1c-1.2,2-2.6,3.7-4.6,4.6c-2,1.2-4.3,1.7-6.9,1.7c-2.9,0-5.5-0.6-7.8-2
			s-4-3.2-5.2-5.5s-1.7-5.2-1.7-8.1c0-3.2,0.6-5.8,1.7-8.1c1.2-2.3,2.9-4.3,5.2-5.5c2.3-1.4,4.9-2,7.8-2c2.6,0,4.9,0.6,6.9,1.7
			s3.5,2.6,4.6,4.6v-18.4h5.5v-0.1H308.4z M298.1,307.9c1.4-0.9,2.9-2.3,3.7-4s1.4-3.5,1.4-5.8c0-2-0.6-4-1.4-5.8s-2-2.9-3.7-4
			c-1.4-0.9-3.5-1.4-5.5-1.4s-3.7,0.6-5.5,1.4c-1.4,0.9-2.9,2.3-3.7,4s-1.4,3.5-1.4,5.8c0,2,0.6,4,1.4,5.8s2,2.9,3.7,4
			c1.4,0.9,3.5,1.4,5.5,1.4S296.3,308.8,298.1,307.9z"/>
		<path class="st1" d="M319.1,272.7h5.5v40.9h-5.5V272.7z"/>
		<path class="st1" d="M328.9,272.7h32v5.2h-13.3v35.7h-5.5v-35.7h-13.3L328.9,272.7L328.9,272.7z"/>
	</g>
</g>
</svg>
