<?xml version="1.0" encoding="utf-8"?>
<!-- Generator: Adobe Illustrator 19.1.0, SVG Export Plug-In . SVG Version: 6.00 Build 0)  -->
<svg version="1.1" id="Layer_1" xmlns="http://www.w3.org/2000/svg" xmlns:xlink="http://www.w3.org/1999/xlink" x="0px" y="0px"
	 viewBox="0 0 500 500" style="enable-background:new 0 0 500 500;" xml:space="preserve">
<path d="M209,359c-24.3-28.3-48.6-56.6-73.1-85.1c0.9-1.2,1.7-2.4,2.9-3.9c20,11.3,39.8,22.4,59.8,33.7c7.5-9.8,14.7-19.6,22.2-29.1
	c33.4-42.2,70.4-80.9,114.3-112.5c8.4-6,17.3-11.2,25.9-16.9c2.9-2,4.5-1.2,4.5,0.6c-6.6,7.4-12.9,15.1-20,22.1
	c-41.7,41.2-76.8,87.6-105.8,138.5c-9.8,17.2-18.5,35-27.7,52.5C211,359,210,359,209,359z"/>
</svg>
