<?xml version="1.0" encoding="utf-8"?>
<!-- Generator: Adobe Illustrator 21.0.2, SVG Export Plug-In . SVG Version: 6.00 Build 0)  -->
<svg version="1.1" id="Layer_1" xmlns="http://www.w3.org/2000/svg" xmlns:xlink="http://www.w3.org/1999/xlink" x="0px" y="0px"
	 viewBox="0 0 200 200" style="enable-background:new 0 0 200 200;" xml:space="preserve">
<style type="text/css">
	.st0{fill:#0DBEDD;}
	.st1{fill:#FFFFFF;}
	.st2{fill:#EEEEEE;}
</style>
<g>
	<circle class="st2" cx="100" cy="100" r="90"/>
	<circle class="st0" cx="100" cy="100" r="90"/>
	<g>
		<g>
			<g>
				<g>
					<g>
						<path class="st1" d="M109.7,69l-3.2-0.8c-0.4-0.1-0.8-0.1-1.2,0.1s-0.6,0.5-0.8,1l-18.8,65.1c-0.1,0.4-0.1,0.8,0.1,1.2
							c0.2,0.4,0.5,0.6,1,0.8l3.2,0.8c0.4,0.1,0.8,0.1,1.2-0.1c0.4-0.2,0.6-0.5,0.8-1L110.8,71c0.1-0.4,0.1-0.8-0.1-1.2
							C110.5,69.4,110.2,69.1,109.7,69z"/>
						<path class="st1" d="M81.5,81.7c0-0.4-0.2-0.8-0.5-1.1L78.4,78c-0.3-0.3-0.7-0.5-1.1-0.5c-0.4,0-0.8,0.2-1.1,0.5l-23.5,23.5
							c-0.3,0.3-0.5,0.7-0.5,1.1c0,0.4,0.2,0.8,0.5,1.1l23.5,23.5c0.3,0.3,0.7,0.5,1.1,0.5c0.4,0,0.8-0.2,1.1-0.5l2.5-2.5
							c0.3-0.3,0.5-0.7,0.5-1.1c0-0.4-0.2-0.8-0.5-1.1l-19.8-19.8L81,82.8C81.4,82.5,81.5,82.1,81.5,81.7z"/>
						<path class="st1" d="M143.9,101.4l-23.5-23.5c-0.3-0.3-0.7-0.5-1.1-0.5c-0.4,0-0.8,0.2-1.1,0.5l-2.5,2.5
							c-0.3,0.3-0.5,0.7-0.5,1.1c0,0.4,0.2,0.8,0.5,1.1l19.8,19.8l-19.8,19.8c-0.3,0.3-0.5,0.7-0.5,1.1c0,0.4,0.2,0.8,0.5,1.1
							l2.5,2.5c0.3,0.3,0.7,0.5,1.1,0.5c0.4,0,0.8-0.2,1.1-0.5l23.5-23.5c0.3-0.3,0.5-0.7,0.5-1.1
							C144.4,102.1,144.2,101.8,143.9,101.4z"/>
					</g>
				</g>
			</g>
		</g>
	</g>
</g>
</svg>
