<?xml version="1.0" encoding="utf-8"?>
<!-- Generator: Adobe Illustrator 21.0.2, SVG Export Plug-In . SVG Version: 6.00 Build 0)  -->
<svg version="1.1" id="Layer_1" xmlns="http://www.w3.org/2000/svg" xmlns:xlink="http://www.w3.org/1999/xlink" x="0px" y="0px"
	 viewBox="0 0 200 200" style="enable-background:new 0 0 200 200;" xml:space="preserve">
<style type="text/css">
	.st0{fill:#0DBEDD;}
	.st1{fill:#FFFFFF;}
	.st2{fill:#EEEEEE;}
</style>
<g>
	<circle class="st0" cx="100" cy="100" r="90"/>
	<g>
		<g>
			<g>
				<g>
					<path class="st1" d="M69.5,73.1c16-16.4,42.3-16.7,58.7-0.7l-4.7,0.1c-1,0-1.8,0.8-1.8,1.8c0,1,0.8,1.8,1.8,1.8l0,0l9.1-0.1
						c1,0,1.8-0.8,1.8-1.8l-0.1-9.1c0-1-0.8-1.8-1.8-1.8s-1.8,0.8-1.8,1.8l0.1,4.7c-17.8-17.5-46.4-17.1-63.8,0.7
						c-6,6.2-10.2,13.8-11.9,22.3c-1.7,8.2-1.1,16.7,1.7,24.5c0.3,0.7,1,1.2,1.7,1.2c0.2,0,0.4,0,0.6-0.1c0.9-0.3,1.4-1.4,1.1-2.3
						C54.7,101,58.3,84.5,69.5,73.1z"/>
					<path class="st1" d="M67.7,134.4c8.5,8.3,19.6,12.8,31.5,12.8c0.2,0,0.3,0,0.5,0c12.1-0.1,23.4-5,31.7-13.6
						c6-6.2,10.2-13.9,11.9-22.3c1.7-8.2,1.1-16.7-1.7-24.5c-0.3-0.9-1.4-1.4-2.3-1.1c-0.9,0.3-1.4,1.4-1.1,2.3
						c5.4,15.1,1.8,31.6-9.4,43c-7.7,7.9-18.1,12.4-29.2,12.5s-21.6-4.1-29.5-11.8l4.7-0.1c1,0,1.8-0.8,1.8-1.8c0-1-0.8-1.8-1.8-1.8
						l0,0l-9.1,0.1c-0.5,0-0.9,0.2-1.3,0.5c-0.3,0.3-0.5,0.8-0.5,1.3l0.1,9.1c0,1,0.8,1.8,1.8,1.8l0,0c1,0,1.8-0.8,1.8-1.8
						L67.7,134.4z"/>
					<path class="st1" d="M124.4,91.6c-4.1-9.7-13.2-16.2-23.6-16.8c-0.2,0-0.4,0-0.6,0h-0.1c-0.1,0-0.2,0-0.3,0c0,0,0,0-0.1,0
						c-0.2,0-0.4,0-0.6,0c-3.6,0-7.1,0.7-10.5,2c-6.7,2.7-12,8-14.7,14.7c-2.8,6.7-2.8,14.1,0,20.8c4.3,10.3,14.1,16.9,25.2,16.9
						c0.1,0,0.3,0,0.4,0s0.2,0,0.2,0h0.1c0.2,0,0.3,0,0.5,0c0.1,0,0.1,0,0.2,0s0.1,0,0.1,0c3.1-0.2,6-0.8,8.8-2
						c6.7-2.7,12-8,14.7-14.7C127.3,105.8,127.3,98.4,124.4,91.6L124.4,91.6L124.4,91.6z M89.7,80.4c-2,2.6-3.7,6.1-4.7,10.1h-6.4
						C81.1,86,84.9,82.5,89.7,80.4z M76.9,94.1h7.2c-0.4,2.4-0.6,5.2-0.6,7.9c0,2.7,0.2,5.4,0.7,7.9h-7.3
						C75.1,104.8,75.1,99.3,76.9,94.1z M78.5,113.6h6.5c1.1,4.1,2.8,7.6,5,10.3C85.3,121.9,81.2,118.3,78.5,113.6z M98.1,125.4
						c-3.9-1.1-7.2-5.7-9.2-11.8h9.2V125.4L98.1,125.4z M98.1,110H88c-0.5-2.5-0.8-5.2-0.8-7.9s0.3-5.5,0.7-7.9h10.2L98.1,110z
						 M98.1,90.5h-9.3c1.8-6.3,5.3-10.8,9.3-11.8V90.5z M119.8,90.4h-5.1c-0.9-3.6-2.2-6.6-4-9.1C114.5,83.5,117.7,86.6,119.8,90.4z
						 M101.7,78.6c4.1,1,7.4,5.5,9.3,11.8h-9.3V78.6z M101.7,94.1h10.2c0.5,2.4,0.7,5.1,0.7,7.9c0,2.7-0.3,5.4-0.8,7.9h-10.1V94.1z
						 M101.7,125.4v-11.8h9.2C108.9,119.7,105.5,124.3,101.7,125.4z M110.5,122.9c1.8-2.5,3.3-5.7,4.3-9.3h5.2
						C117.7,117.6,114.4,120.7,110.5,122.9z M121.6,110h-6c0.5-2.5,0.7-5.2,0.7-7.9s-0.2-5.4-0.6-7.9h5.9
						C123.4,99.3,123.4,104.8,121.6,110z"/>
				</g>
			</g>
		</g>
	</g>
</g>
</svg>
