<?xml version="1.0" encoding="utf-8"?>
<!-- Generator: Adobe Illustrator 21.0.2, SVG Export Plug-In . SVG Version: 6.00 Build 0)  -->
<svg version="1.1" id="Layer_1" xmlns="http://www.w3.org/2000/svg" xmlns:xlink="http://www.w3.org/1999/xlink" x="0px" y="0px"
	 viewBox="0 0 200 200" style="enable-background:new 0 0 200 200;" xml:space="preserve">
<style type="text/css">
	.st0{fill:#0DBEDD;}
	.st1{fill:#FFFFFF;}
	.st2{fill:#EEEEEE;}
</style>
<g>
	<circle class="st0" cx="100" cy="100" r="90"/>
	<g>
		<g>
			<g>
				<g>
					<path class="st1" d="M138.8,60.4H59c-4.3,0-7.7,3.5-7.7,7.7v7.5c0,0.9,0.7,1.6,1.6,1.6s1.6-0.7,1.6-1.6v-7.5
						c0-2.4,1.9-4.4,4.4-4.4h79.9c2.4,0,4.4,1.9,4.4,4.4v49.7c0,0.9,0.7,1.6,1.6,1.6c0.9,0,1.6-0.7,1.6-1.6V68.2
						C146.6,63.9,143.1,60.4,138.8,60.4z"/>
				</g>
			</g>
			<g>
				<g>
					<path class="st1" d="M144.9,122.4c-0.9,0-1.6,0.7-1.6,1.6c0,2.4-1.9,4.4-4.4,4.4H59c-2.4,0-4.4-1.9-4.4-4.4V82.1
						c0-0.9-0.7-1.6-1.6-1.6c-0.9,0-1.6,0.7-1.6,1.6V124c0,4.3,3.5,7.7,7.7,7.7h31.9l-2,8.4h-7.9c-0.9,0-1.6,0.7-1.6,1.6
						s0.7,1.6,1.6,1.6h9.3h17.3h9.3c0.9,0,1.6-0.7,1.6-1.6s-0.7-1.6-1.6-1.6h-7.9l-2-8.4h31.9c4.3,0,7.7-3.5,7.7-7.7
						C146.6,123.2,145.9,122.4,144.9,122.4z M92.5,140.3l2-8.4h8.9l2,8.4H92.5z"/>
				</g>
			</g>
			<g>
				<g>
					<path class="st1" d="M139.3,120.1H58.6c-0.9,0-1.6,0.7-1.6,1.6s0.7,1.6,1.6,1.6h80.6c0.9,0,1.6-0.7,1.6-1.6
						S140.2,120.1,139.3,120.1z"/>
				</g>
			</g>
			<g>
				<g>
					<path class="st1" d="M139.3,68.8H58.6c-0.9,0-1.6,0.7-1.6,1.6s0.7,1.6,1.6,1.6h80.6c0.9,0,1.6-0.7,1.6-1.6
						C140.9,69.5,140.2,68.8,139.3,68.8z"/>
				</g>
			</g>
			<g>
				<g>
					<path class="st1" d="M102.7,81.8h-5.6l0,0c-0.9,0-1.6,0.7-1.6,1.6v25.4c0,0.9,0.7,1.6,1.6,1.6c0.9,0,1.6-0.7,1.6-1.6v-6.5h4
						c3.4,0,6.1-2.7,6.1-6.1v-8.3C108.8,84.5,106.1,81.8,102.7,81.8z M105.5,96.2c0,1.5-1.2,2.8-2.8,2.8h-4V85.2h4
						c1.5,0,2.8,1.2,2.8,2.8V96.2z"/>
				</g>
			</g>
			<g>
				<g>
					<path class="st1" d="M89,108.4l-2-8c-0.2-0.9-1.1-1.4-2-1.2c-0.9,0.2-1.4,1.1-1.2,2l0.2,0.7h-6L81,90.1l1.6,6.1
						c0.2,0.9,1.1,1.4,2,1.2c0.9-0.2,1.4-1.1,1.2-2l-3.2-12.5c-0.2-0.7-0.8-1.2-1.6-1.2s-1.4,0.5-1.6,1.2l-6.5,25.4
						c-0.2,0.9,0.3,1.8,1.2,2c0.1,0,0.3,0.1,0.4,0.1c0.7,0,1.4-0.5,1.6-1.2l1-4h7.7l1,4c0.2,0.7,0.9,1.2,1.6,1.2
						c0.1,0,0.3,0,0.4-0.1C88.7,110.3,89.3,109.4,89,108.4z"/>
				</g>
			</g>
			<g>
				<g>
					<path class="st1" d="M123.5,107.2h-2.9V85.2h2.9c0.9,0,1.6-0.7,1.6-1.6c0-0.9-0.7-1.6-1.6-1.6h-9.2c-0.9,0-1.6,0.7-1.6,1.6
						c0,0.9,0.7,1.6,1.6,1.6h2.9v22.1h-2.9c-0.9,0-1.6,0.7-1.6,1.6c0,0.9,0.7,1.6,1.6,1.6h9.2c0.9,0,1.6-0.7,1.6-1.6
						C125.1,107.9,124.4,107.2,123.5,107.2z"/>
				</g>
			</g>
		</g>
	</g>
</g>
</svg>
