<?xml version="1.0" encoding="utf-8"?>
<!-- Generator: Adobe Illustrator 19.1.0, SVG Export Plug-In . SVG Version: 6.00 Build 0)  -->
<svg version="1.1" id="Layer_1" xmlns="http://www.w3.org/2000/svg" xmlns:xlink="http://www.w3.org/1999/xlink" x="0px" y="0px"
	 viewBox="0 0 200 100" style="enable-background:new 0 0 200 100;" xml:space="preserve">
<style type="text/css">
	.st0{fill:#15334F;}
	.st1{fill:#09C2DB;}
	.st2{fill:#FFFFFF;}
	.st3{fill:#292F35;}
</style>
<g>
	<g>
		<g>
			<g>
				<path class="st2" d="M26.1,29.4c-0.8-0.8-1.8-1.2-2.9-1.2c-1.1,0-2.1,0.4-2.9,1.2c-0.8,0.8-1.2,1.8-1.2,2.9
					c0,1.1,0.4,2.1,1.2,2.9c0.8,0.8,1.7,1.2,2.9,1.2c1.1,0,2.1-0.4,2.9-1.2c0.8-0.8,1.2-1.7,1.2-2.9C27.3,31.2,26.9,30.2,26.1,29.4z
					"/>
				<path class="st2" d="M60,29.6c-0.8-0.8-1.8-1.2-2.9-1.2c-1.1,0-2.1,0.4-2.9,1.2c-0.8,0.8-1.2,1.8-1.2,2.9c0,1.1,0.4,2.1,1.2,2.9
					c0.8,0.8,1.7,1.2,2.9,1.2c1.1,0,2.1-0.4,2.9-1.2c0.8-0.8,1.2-1.7,1.2-2.9C61.2,31.4,60.8,30.4,60,29.6z"/>
			</g>
			<path class="st2" d="M56.8,40.4c1.2,2.5,1.8,5.2,1.8,8c0,5.1-1.8,9.4-5.4,13.1c-3.6,3.6-8,5.4-13.1,5.4c-5.1,0-9.4-1.8-13.1-5.4
				c-3.6-3.6-5.4-8-5.4-13.1c0-2.9,0.6-5.5,1.8-8h-5.3c-0.9,2.5-1.4,5.2-1.4,8c0,3.2,0.6,6.2,1.8,9.1c1.2,2.8,2.9,5.3,5,7.4
				c2.2,2.2,4.6,3.8,7.4,5c2.9,1.2,5.9,1.8,9.1,1.8c3.2,0,6.2-0.6,9.1-1.8c2.8-1.2,5.3-2.9,7.4-5c2.2-2.2,3.8-4.6,5-7.4
				c1.2-2.9,1.8-5.9,1.8-9.1c0-2.8-0.5-5.5-1.4-8H56.8z"/>
		</g>
	</g>
	<g>
		<path class="st2" d="M69,57.6c-0.7,0-1.3,0.2-1.9,0.5c-0.5,0.3-1,0.7-1.3,1.3c-0.3,0.6-0.5,1.2-0.5,2c0,0.7,0.2,1.4,0.5,2
			c0.3,0.6,0.7,1,1.3,1.3c0.5,0.3,1.1,0.5,1.8,0.5c0.7,0,1.3-0.1,1.9-0.3c0.6-0.2,1-0.6,1.4-1l1.1,1.1c-0.5,0.6-1.1,1.1-1.9,1.4
			s-1.6,0.5-2.5,0.5c-1,0-2-0.2-2.8-0.7c-0.8-0.5-1.4-1.1-1.9-1.9c-0.5-0.8-0.7-1.7-0.7-2.8c0-1.1,0.2-2,0.7-2.8
			c0.5-0.8,1.1-1.5,1.9-1.9c0.8-0.5,1.7-0.7,2.8-0.7c0.9,0,1.7,0.1,2.4,0.4c0.7,0.3,1.3,0.7,1.8,1.2l-1,1.3
			C71.3,58,70.2,57.6,69,57.6z"/>
		<path class="st2" d="M82.4,56.6c0.8,0.5,1.5,1.1,1.9,1.9c0.5,0.8,0.7,1.7,0.7,2.8c0,1.1-0.2,2-0.7,2.8c-0.5,0.8-1.1,1.5-1.9,1.9
			c-0.8,0.5-1.8,0.7-2.8,0.7c-1.1,0-2-0.2-2.9-0.7c-0.8-0.5-1.5-1.1-1.9-1.9c-0.5-0.8-0.7-1.8-0.7-2.8c0-1.1,0.2-2,0.7-2.8
			c0.5-0.8,1.1-1.5,1.9-1.9c0.8-0.5,1.8-0.7,2.9-0.7C80.7,55.9,81.6,56.2,82.4,56.6z M77.7,58.1c-0.5,0.3-1,0.8-1.3,1.3
			c-0.3,0.6-0.5,1.2-0.5,2c0,0.7,0.2,1.4,0.5,2c0.3,0.6,0.7,1,1.3,1.3c0.5,0.3,1.2,0.5,1.9,0.5c0.7,0,1.3-0.2,1.9-0.5
			c0.5-0.3,1-0.8,1.3-1.3c0.3-0.6,0.5-1.2,0.5-2c0-0.7-0.2-1.4-0.5-2c-0.3-0.6-0.7-1-1.3-1.3c-0.5-0.3-1.2-0.5-1.9-0.5
			C78.9,57.6,78.3,57.7,77.7,58.1z"/>
		<path class="st2" d="M96.2,57c0.7,0.7,1.1,1.7,1.1,3v6.6h-1.9v-6.1c0-0.9-0.3-1.6-0.8-2.1c-0.5-0.5-1.2-0.8-2.1-0.8
			c-1,0-1.7,0.3-2.3,0.9c-0.6,0.6-0.9,1.4-1,2.3v5.7h-1.9V56h1.9v2.3c0.7-1.5,2.1-2.3,4.1-2.3C94.5,55.9,95.5,56.3,96.2,57z"/>
		<path class="st2" d="M109.2,57c0.7,0.7,1.1,1.7,1.1,3v6.6h-1.9v-6.1c0-0.9-0.3-1.6-0.8-2.1c-0.5-0.5-1.2-0.8-2.1-0.8
			c-1,0-1.7,0.3-2.3,0.9c-0.6,0.6-0.9,1.4-1,2.3v5.7h-1.9V56h1.9v2.3c0.7-1.5,2.1-2.3,4.1-2.3C107.5,55.9,108.5,56.3,109.2,57z"/>
		<path class="st2" d="M120.7,57.4c0.8,1,1.3,2.3,1.3,4.1c0,0.3,0,0.5,0,0.6h-8.5c0.1,1,0.5,1.7,1.2,2.3c0.7,0.6,1.5,0.8,2.4,0.8
			c0.6,0,1.2-0.1,1.8-0.3c0.5-0.2,1-0.6,1.4-1l1,1.1c-0.5,0.6-1.2,1-1.9,1.3c-0.7,0.3-1.6,0.5-2.5,0.5c-1.1,0-2-0.2-2.8-0.7
			c-0.8-0.5-1.4-1.1-1.9-1.9c-0.5-0.8-0.7-1.8-0.7-2.8c0-1.1,0.2-2,0.7-2.8c0.5-0.8,1.1-1.5,1.9-1.9c0.8-0.5,1.7-0.7,2.8-0.7
			C118.5,55.9,119.8,56.4,120.7,57.4z M120.2,60.6c-0.1-1-0.4-1.7-1-2.3c-0.6-0.6-1.4-0.8-2.3-0.8c-0.9,0-1.7,0.3-2.4,0.8
			c-0.6,0.6-1,1.3-1.1,2.3H120.2z"/>
		<path class="st2" d="M128.7,57.6c-0.7,0-1.3,0.2-1.9,0.5c-0.5,0.3-1,0.7-1.3,1.3c-0.3,0.6-0.5,1.2-0.5,2c0,0.7,0.2,1.4,0.5,2
			c0.3,0.6,0.7,1,1.3,1.3c0.5,0.3,1.1,0.5,1.8,0.5c0.7,0,1.3-0.1,1.9-0.3c0.6-0.2,1-0.6,1.4-1l1.1,1.1c-0.5,0.6-1.1,1.1-1.9,1.4
			c-0.7,0.3-1.6,0.5-2.5,0.5c-1,0-2-0.2-2.8-0.7c-0.8-0.5-1.4-1.1-1.9-1.9c-0.5-0.8-0.7-1.7-0.7-2.8c0-1.1,0.2-2,0.7-2.8
			c0.5-0.8,1.1-1.5,1.9-1.9c0.8-0.5,1.7-0.7,2.8-0.7c0.9,0,1.7,0.1,2.4,0.4c0.7,0.3,1.3,0.7,1.8,1.2l-1,1.3
			C131,58,129.9,57.6,128.7,57.6z"/>
		<path class="st2" d="M140.7,66c-0.8,0.5-1.7,0.8-2.5,0.8c-0.8,0-1.5-0.3-2.1-0.8c-0.5-0.5-0.8-1.3-0.8-2.3v-5.9h-1.5v-1.4h1.5
			v-2.9h1.9v2.9h3.3v1.4h-3.3v5.6c0,0.6,0.1,1,0.3,1.3c0.2,0.3,0.5,0.4,1,0.4c0.5,0,1.1-0.2,1.7-0.5L140.7,66z"/>
		<path class="st2" d="M151,57.4c0.8,1,1.3,2.3,1.3,4.1c0,0.3,0,0.5,0,0.6h-8.5c0.1,1,0.5,1.7,1.2,2.3c0.7,0.6,1.5,0.8,2.4,0.8
			c0.6,0,1.2-0.1,1.8-0.3c0.5-0.2,1-0.6,1.4-1l1,1.1c-0.5,0.6-1.2,1-1.9,1.3c-0.7,0.3-1.6,0.5-2.5,0.5c-1.1,0-2-0.2-2.8-0.7
			c-0.8-0.5-1.4-1.1-1.9-1.9c-0.5-0.8-0.7-1.8-0.7-2.8c0-1.1,0.2-2,0.7-2.8c0.5-0.8,1.1-1.5,1.9-1.9c0.8-0.5,1.7-0.7,2.8-0.7
			C148.9,55.9,150.2,56.4,151,57.4z M150.6,60.6c-0.1-1-0.4-1.7-1-2.3c-0.6-0.6-1.4-0.8-2.3-0.8c-0.9,0-1.7,0.3-2.4,0.8
			c-0.6,0.6-1,1.3-1.1,2.3H150.6z"/>
		<path class="st2" d="M165,51.7v15h-1.9v-2.1c-0.4,0.7-0.9,1.3-1.6,1.6c-0.7,0.4-1.5,0.6-2.4,0.6c-1,0-1.9-0.2-2.7-0.7
			c-0.8-0.5-1.4-1.1-1.8-1.9c-0.4-0.8-0.6-1.8-0.6-2.8c0-1.1,0.2-2,0.6-2.8c0.4-0.8,1-1.5,1.8-1.9c0.8-0.5,1.7-0.7,2.7-0.7
			c0.9,0,1.7,0.2,2.4,0.6c0.7,0.4,1.2,0.9,1.6,1.6v-6.4H165z M161.4,64.7c0.5-0.3,1-0.8,1.3-1.4c0.3-0.6,0.5-1.2,0.5-2
			c0-0.7-0.2-1.4-0.5-2c-0.3-0.6-0.7-1-1.3-1.4c-0.5-0.3-1.2-0.5-1.9-0.5c-0.7,0-1.3,0.2-1.9,0.5c-0.5,0.3-1,0.8-1.3,1.4
			c-0.3,0.6-0.5,1.2-0.5,2c0,0.7,0.2,1.4,0.5,2c0.3,0.6,0.7,1,1.3,1.4c0.5,0.3,1.2,0.5,1.9,0.5C160.2,65.2,160.8,65,161.4,64.7z"/>
		<path class="st2" d="M168.7,52.5h1.9v14.2h-1.9V52.5z"/>
		<path class="st2" d="M172.1,52.5h11.1v1.8h-4.6v12.4h-1.9V54.3h-4.6V52.5z"/>
	</g>
</g>
</svg>
