<?xml version="1.0" encoding="utf-8"?>
<!-- Generator: Adobe Illustrator 19.1.0, SVG Export Plug-In . SVG Version: 6.00 Build 0)  -->
<svg version="1.1" id="Layer_1" xmlns="http://www.w3.org/2000/svg" xmlns:xlink="http://www.w3.org/1999/xlink" x="0px" y="0px"
	 viewBox="0 0 354.3 286.8" style="enable-background:new 0 0 354.3 286.8;" xml:space="preserve">
<style type="text/css">
	.st0{fill:#2A0D91;}
</style>
<g>
	<g>
		<g>
			<path class="st0" d="M206.8,78.9h-59.2c-5.8,0-10.4,4.7-10.4,10.4v108.1c0,5.8,4.7,10.4,10.4,10.4h59.2c5.8,0,10.4-4.7,10.4-10.4
				V89.4C217.2,83.6,212.5,78.9,206.8,78.9z M213.1,179.4h-14.2c-1.1,0-2,0.9-2,2c0,1.1,0.9,2,2,2h14.2v14c0,3.5-2.9,6.4-6.4,6.4
				h-59.2c-3.5,0-6.4-2.9-6.4-6.4v-14H189c1.1,0,2-0.9,2-2s-0.9-2-2-2h-47.8V99.3h72V179.4L213.1,179.4z M213.1,95.2h-72v-5.8
				c0-3.5,2.9-6.4,6.4-6.4h59.2c3.5,0,6.4,2.9,6.4,6.4V95.2z"/>
		</g>
	</g>
	<g>
		<g>
			<path class="st0" d="M182.6,87.1h-21.7c-1.1,0-2,0.9-2,2c0,1.1,0.9,2,2,2h21.7c1.1,0,2-0.9,2-2C184.6,88,183.7,87.1,182.6,87.1z"
				/>
		</g>
	</g>
	<g>
		<g>
			<path class="st0" d="M193.5,87.1h-2.7c-1.1,0-2,0.9-2,2c0,1.1,0.9,2,2,2h2.7c1.1,0,2-0.9,2-2C195.5,88,194.6,87.1,193.5,87.1z"/>
		</g>
	</g>
	<g>
		<g>
			<path class="st0" d="M187.4,187.5H167c-3,0-5.4,2.4-5.4,5.4v1.4c0,3,2.4,5.4,5.4,5.4h20.4c3,0,5.4-2.4,5.4-5.4v-1.4
				C192.8,190,190.3,187.5,187.4,187.5z M188.7,194.4c0,0.7-0.6,1.3-1.3,1.3H167c-0.7,0-1.3-0.6-1.3-1.3v-1.4c0-0.7,0.6-1.3,1.3-1.3
				h20.4c0.7,0,1.3,0.6,1.3,1.3V194.4z"/>
		</g>
	</g>
	<g>
		<g>
			<path class="st0" d="M183.6,148.1c0.7-1.1,1-2.4,1-3.8c0-4.1-3.3-7.5-7.5-7.5s-7.5,3.3-7.5,7.5c0,1.3,0.3,2.6,1,3.8l-1,4.9
				c-0.1,0.6,0,1.2,0.4,1.7c0.4,0.5,1,0.7,1.6,0.7h10.9c0.6,0,1.2-0.3,1.6-0.7c0.4-0.5,0.5-1.1,0.4-1.7L183.6,148.1z M179.5,148.1
				l0.7,3.3h-5.9l0.7-3.3c0.1-0.6,0-1.2-0.4-1.6c-0.5-0.6-0.7-1.3-0.7-2.1c0-1.9,1.5-3.4,3.4-3.4c1.9,0,3.4,1.5,3.4,3.4
				c0,0.8-0.2,1.5-0.7,2.1C179.5,146.9,179.3,147.5,179.5,148.1z"/>
		</g>
	</g>
	<g>
		<g>
			<path class="st0" d="M190.1,127.8v-3.4c0-7.1-5.8-12.9-12.9-12.9c-7.1,0-12.9,5.8-12.9,12.9v3.4c-3,0.3-5.4,2.9-5.4,6v24.6
				c0,3.3,2.7,6,6,6h24.6c3.3,0,6-2.7,6-6v-24.6C195.5,130.7,193.1,128.1,190.1,127.8z M168.3,124.4c0-4.9,4-8.8,8.8-8.8
				s8.8,4,8.8,8.8v3.4h-17.6V124.4L168.3,124.4z M191.4,158.4c0,1.1-0.9,1.9-1.9,1.9h-24.6c-1.1,0-1.9-0.9-1.9-1.9v-24.6
				c0-1.1,0.9-1.9,1.9-1.9h24.6c1.1,0,1.9,0.9,1.9,1.9V158.4z"/>
		</g>
	</g>
</g>
</svg>
