<?xml version="1.0" encoding="utf-8"?>
<!-- Generator: Adobe Illustrator 19.1.0, SVG Export Plug-In . SVG Version: 6.00 Build 0)  -->
<svg version="1.1" id="Layer_1" xmlns="http://www.w3.org/2000/svg" xmlns:xlink="http://www.w3.org/1999/xlink" x="0px" y="0px"
	 viewBox="0 0 354.3 286.8" style="enable-background:new 0 0 354.3 286.8;" xml:space="preserve">
<style type="text/css">
	.st0{fill:#2A0D91;}
</style>
<g>
	<g>
		<g>
			<g>
				<g>
					<path class="st0" d="M184.1,101.4h-50.7c-4.7,0-8.5,3.8-8.5,8.5v84.6c0,4.7,3.8,8.5,8.5,8.5h50.7c4.7,0,8.5-3.8,8.5-8.5v-84.6
						C192.6,105.2,188.8,101.4,184.1,101.4z M188.4,194.4c0,2.3-1.9,4.2-4.2,4.2h-50.7c-2.3,0-4.2-1.9-4.2-4.2v-8.5h59.2
						L188.4,194.4L188.4,194.4z M188.4,181.7h-59.2v-71.9c0-2.3,1.9-4.2,4.2-4.2h50.7c2.3,0,4.2,1.9,4.2,4.2V181.7z"/>
					<path class="st0" d="M156.7,114.1h4.2c1.2,0,2.1-0.9,2.1-2.1c0-1.2-0.9-2.1-2.1-2.1h-4.2c-1.2,0-2.1,0.9-2.1,2.1
						C154.6,113.1,155.5,114.1,156.7,114.1z"/>
					<path class="st0" d="M152.4,194.4h12.7c1.2,0,2.1-0.9,2.1-2.1c0-1.2-0.9-2.1-2.1-2.1h-12.7c-1.2,0-2.1,0.9-2.1,2.1
						C150.3,193.4,151.3,194.4,152.4,194.4z"/>
					<circle class="st0" cx="182" cy="111.9" r="2.1"/>
					<path class="st0" d="M158.8,124.6c-12.8,0-23.3,10.4-23.3,23.3c0,12.8,10.4,23.3,23.3,23.3c12.8,0,23.3-10.4,23.3-23.3
						C182,135.1,171.6,124.6,158.8,124.6z M158.8,166.9c-10.5,0-19-8.5-19-19c0-10.5,8.5-19,19-19c10.5,0,19,8.5,19,19
						C177.8,158.4,169.3,166.9,158.8,166.9z"/>
					<path class="st0" d="M158.8,133.1c-1.2,0-2.1,0.9-2.1,2.1v16.9c0,1.2,0.9,2.1,2.1,2.1c1.2,0,2.1-0.9,2.1-2.1v-16.9
						C160.9,134,159.9,133.1,158.8,133.1z"/>
					<circle class="st0" cx="158.8" cy="160.6" r="2.1"/>
				</g>
			</g>
		</g>
	</g>
	<polygon class="st0" points="173.4,127.7 184.3,115.8 229.4,115.2 229.4,84 175.9,84 175.9,102 175.9,111.7 	"/>
</g>
</svg>
