<?xml version="1.0" encoding="utf-8"?>
<!-- Generator: Adobe Illustrator 19.1.0, SVG Export Plug-In . SVG Version: 6.00 Build 0)  -->
<svg version="1.1" id="Layer_1" xmlns="http://www.w3.org/2000/svg" xmlns:xlink="http://www.w3.org/1999/xlink" x="0px" y="0px"
	 viewBox="0 0 260 260" style="enable-background:new 0 0 260 260;" xml:space="preserve">
<style type="text/css">
	.st0{opacity:0.5;clip-path:url(#SVGID_2_);}
	.st1{clip-path:url(#SVGID_4_);}
	.st2{clip-path:url(#SVGID_6_);fill:#59B495;}
	.st3{opacity:0.5;clip-path:url(#SVGID_8_);}
	.st4{clip-path:url(#SVGID_10_);}
	.st5{clip-path:url(#SVGID_12_);fill:#59B495;}
	.st6{opacity:0.5;clip-path:url(#SVGID_14_);}
	.st7{clip-path:url(#SVGID_16_);}
	.st8{clip-path:url(#SVGID_18_);fill:#59B495;}
	.st9{fill:#FFFFFF;}
	.st10{opacity:0.5;clip-path:url(#SVGID_20_);}
	.st11{fill:#5B8979;}
	.st12{opacity:0.5;fill:#F9A356;}
	.st13{opacity:0.5;fill:none;}
	.st14{fill:#97775A;}
	.st15{opacity:0.5;fill:#7F58B3;}
	.st16{fill:#695B7D;}
	.st17{opacity:0.5;fill:#D8626E;}
	.st18{fill:#9B6066;}
	.st19{opacity:0.5;fill:#FACF5E;}
	.st20{opacity:0.5;fill:#AC965E;}
	.st21{opacity:0.89;}
	.st22{clip-path:url(#SVGID_24_);}
	.st23{fill:#6D6E70;}
	.st24{clip-path:url(#SVGID_28_);}
	.st25{clip-path:url(#SVGID_32_);}
	.st26{fill:none;stroke:#377B99;stroke-width:5;stroke-linecap:round;stroke-miterlimit:10;stroke-dasharray:7.934,18.844;}
	.st27{fill:#E6E6E5;}
	.st28{fill:#22B9AA;}
	.st29{opacity:0.58;}
	.st30{clip-path:url(#SVGID_36_);fill:#939393;}
	.st31{fill:#EDEDED;}
	.st32{opacity:0.5;}
	.st33{clip-path:url(#SVGID_38_);fill:none;stroke:#CCCCCC;stroke-width:0.5;stroke-miterlimit:10;}
	.st34{clip-path:url(#SVGID_40_);fill:none;stroke:#CCCCCC;stroke-width:0.5;stroke-miterlimit:10;}
	.st35{fill:#D3CFCF;}
	.st36{fill:#3FBA91;}
	.st37{fill:#6FCBDC;}
	.st38{fill:#E11664;}
	.st39{opacity:0.75;}
	.st40{clip-path:url(#SVGID_42_);fill:#3A3030;}
	.st41{fill:#F1F1F1;}
	.st42{filter:url(#Adobe_OpacityMaskFilter);}
	.st43{clip-path:url(#SVGID_44_);fill:url(#SVGID_46_);}
	.st44{clip-path:url(#SVGID_44_);mask:url(#SVGID_45_);fill:url(#SVGID_47_);}
	.st45{fill:#34BFEF;}
	.st46{clip-path:url(#SVGID_49_);fill:#939393;}
	.st47{opacity:0.49;}
	.st48{clip-path:url(#SVGID_51_);fill:#34BFEF;}
	.st49{fill:#573D82;}
	.st50{fill:#453068;}
	.st51{fill:#675470;}
	.st52{fill:#4A4687;}
	.st53{fill:#FFC585;}
	.st54{fill:#D6D6D6;}
	.st55{fill:#8977A7;}
	.st56{clip-path:url(#SVGID_53_);fill:#3A3030;}
	.st57{fill:#F4F4F4;}
	.st58{opacity:0.83;}
	.st59{clip-path:url(#SVGID_55_);fill:#FFFFFF;}
	.st60{clip-path:url(#SVGID_55_);fill:none;stroke:#DBDBDB;stroke-width:0.5;stroke-linecap:round;stroke-miterlimit:10;}
	.st61{clip-path:url(#SVGID_57_);}
	.st62{fill:#DBDEE5;}
	.st63{fill:#3098B5;}
	.st64{fill:#675FAB;}
	.st65{fill:#2E719B;}
	.st66{fill:#32ACC3;}
	.st67{fill:#549FBD;}
	.st68{fill:#554E91;}
	.st69{fill:#2E265F;}
	.st70{fill:#3B3A73;}
	.st71{fill:#2A3869;}
	.st72{fill:#4383A9;}
	.st73{fill:#586AAF;}
	.st74{fill:#45437F;}
	.st75{fill:#3F80B0;}
	.st76{fill:#2B4B7C;}
	.st77{fill:#3781A7;}
	.st78{fill:#2D5989;}
	.st79{fill:#5EB1C9;}
	.st80{fill:#BCC0CC;}
	.st81{fill:#A0A4B2;}
	.st82{fill:#A1A5B2;}
	.st83{fill:#A1A5B3;}
	.st84{fill:#3482A8;}
	.st85{fill:#FDFEFE;}
	.st86{fill:#FEFEFE;}
	.st87{fill:#ECF6F8;}
	.st88{fill:#F8FBFC;}
	.st89{fill:#F6FAFB;}
	.st90{fill:#F0F8F9;}
	.st91{fill:#6C42B8;}
	.st92{fill:#E4F3F6;}
	.st93{fill:#E8F5F7;}
	.st94{fill:#9DD7E1;}
	.st95{fill:#D6EEF2;}
	.st96{fill:#CCEAEF;}
	.st97{fill:#CAE9EF;}
	.st98{fill:#FCFDFD;}
	.st99{fill:#F7FBFC;}
	.st100{fill:#FAFCFD;}
	.st101{fill:#FBFCFD;}
	.st102{fill:#F5FAFB;}
	.st103{fill:#EFF7F9;}
	.st104{fill:#F1F8F9;}
	.st105{fill:#3293B2;}
	.st106{fill:#2F96B3;}
	.st107{fill:#36A1BB;}
	.st108{fill:#3EA5BE;}
	.st109{fill:#DDDFE1;}
	.st110{fill:#FDEC58;}
	.st111{fill:#7C55C0;}
	.st112{fill:#65B969;}
	.st113{fill:#EC524E;}
	.st114{fill:#BABABA;}
	.st115{fill:#EA5350;}
	.st116{fill:#D13231;}
	.st117{fill:#FCD839;}
	.st118{fill:#8A8A8A;}
	.st119{fill:#8B8B8B;}
	.st120{fill:#8C8C8C;}
	.st121{fill:#46A14F;}
	.st122{fill:#3BAEC4;}
	.st123{fill:#37ADC3;}
	.st124{fill:#33AFC5;}
	.st125{fill:#3AAFC5;}
	.st126{fill:#3C82A9;}
	.st127{fill:#2F87AA;}
	.st128{fill:#F9FCFE;}
	.st129{fill:#2194F1;}
	.st130{fill:#C4C5C6;}
	.st131{fill:#BABABB;}
	.st132{fill:#B1B1B1;}
	.st133{fill:#878787;}
	.st134{fill:#AEAEAE;}
	.st135{fill:#FDFDFB;}
	.st136{fill:#FDFDF9;}
	.st137{fill:#F8F8FB;}
	.st138{fill:#F5F9F5;}
	.st139{fill:#E8F4E9;}
	.st140{fill:#E7F3E8;}
	.st141{fill:#C6403D;}
	.st142{fill:#FCF9F9;}
	.st143{fill:#A9A9A9;}
	.st144{fill:#FAFAFA;}
	.st145{fill:#F9F9F9;}
	.st146{fill:#FCFCFC;}
	.st147{fill:#F6F6F6;}
	.st148{fill:#7654B4;}
	.st149{fill:#67B96D;}
	.st150{fill:#61B46A;}
	.st151{fill:#B0B1B2;}
	.st152{fill:#ABABAB;}
	.st153{fill:#A4A4A4;}
	.st154{fill:#FBF9FB;}
	.st155{fill:#EEEEEE;}
	.st156{fill:#FBFBFB;}
	.st157{fill:#A7A7A7;}
	.st158{clip-path:url(#SVGID_57_);fill:#675FAB;}
	.st159{fill:#378AE1;}
	.st160{fill:#FEDD14;}
	.st161{fill:#49AB17;}
	.st162{clip-path:url(#SVGID_59_);fill:#E80014;}
	.st163{clip-path:url(#SVGID_61_);}
	.st164{clip-path:url(#SVGID_65_);fill:#49AB17;}
	.st165{clip-path:url(#SVGID_65_);fill:#FFFFFF;}
	.st166{clip-path:url(#SVGID_67_);fill:#FEDD14;}
	.st167{clip-path:url(#SVGID_69_);}
	.st168{clip-path:url(#SVGID_73_);fill:#41526E;}
	.st169{clip-path:url(#SVGID_75_);fill:#5946DA;}
	.st170{clip-path:url(#SVGID_77_);fill:#378AE1;}
	.st171{fill:none;stroke:#FFFFFF;stroke-linecap:round;stroke-miterlimit:10;}
	.st172{fill:#1D4C78;}
	.st173{fill:#59AA8E;}
	.st174{fill:#C9626D;}
	.st175{fill:#E59A58;}
	.st176{fill:#E7C15F;}
	.st177{fill:#7B59A8;}
</style>
<g>
	<g>
		<defs>
			<path id="SVGID_76_" d="M17.5,6.5c-6.6,0-12,5.4-12,12v225c0,6.6,5.4,12,12,12h225c6.6,0,12-5.4,12-12v-225c0-6.6-5.4-12-12-12
				H17.5z"/>
		</defs>
		<clipPath id="SVGID_2_">
			<use xlink:href="#SVGID_76_"  style="overflow:visible;"/>
		</clipPath>
		<rect x="1" y="2" style="clip-path:url(#SVGID_2_);fill:#378AE1;" width="258" height="258"/>
	</g>
	<line class="st171" x1="166.9" y1="92.2" x2="86.8" y2="172.3"/>
	<line class="st171" x1="166.9" y1="172.3" x2="86.8" y2="92.2"/>
	<g>
		<path class="st9" d="M137.5,72.6h-3.6c-2.8,0-3.4,1.4-3.4,3.4v4.4h6.8l-0.9,6.9h-5.9V105h-7.1V87.3h-5.9v-6.9h5.9v-5.1
			c0-5.9,3.6-9.1,8.8-9.1c2.5,0,4.6,0.2,5.3,0.3V72.6z"/>
	</g>
	<g>
		<path class="st9" d="M144.8,168.4c0,0.3,0,0.7,0,1c0,10-7.5,21.4-21.2,21.4c-4.2,0-8.2-1.2-11.5-3.4c0.6,0.1,1.2,0.1,1.8,0.1
			c3.5,0,6.7-1.2,9.3-3.2c-3.3-0.1-6-2.2-7-5.2c0.5,0.1,0.9,0.1,1.4,0.1c0.7,0,1.3-0.1,2-0.3c-3.4-0.7-6-3.7-6-7.4c0,0,0-0.1,0-0.1
			c1,0.6,2.1,0.9,3.4,1c-2-1.4-3.3-3.7-3.3-6.3c0-1.4,0.4-2.7,1-3.8c3.7,4.6,9.2,7.6,15.4,7.9c-0.1-0.6-0.2-1.1-0.2-1.7
			c0-4.2,3.3-7.5,7.5-7.5c2.1,0,4.1,0.9,5.5,2.4c1.7-0.3,3.3-1,4.7-1.8c-0.6,1.8-1.7,3.2-3.3,4.2c1.5-0.2,3-0.6,4.3-1.2
			C147.6,166,146.3,167.3,144.8,168.4z"/>
	</g>
	<g>
		<path class="st9" d="M192.6,128.3c0.2,0.9,0.3,1.8,0.3,3c0,10.2-6.8,17.5-17,17.5c-9.8,0-17.8-8-17.8-17.9s7.9-17.9,17.8-17.9
			c4.8,0,8.8,1.8,11.9,4.7l-4.8,4.7c-1.3-1.3-3.6-2.8-7.1-2.8c-6.1,0-11,5.1-11,11.3s4.9,11.3,11,11.3c7,0,9.7-5.1,10.1-7.7h-10.1
			v-6.2H192.6z"/>
	</g>
	<g>
		<path class="st9" d="M65.6,117.4L65.6,117.4c-2.6,0-4.3-1.8-4.3-4c0-2.3,1.7-4,4.3-4c2.6,0,4.2,1.7,4.3,4
			C69.9,115.6,68.2,117.4,65.6,117.4z M69.4,143.6h-7.6v-23.1h7.6V143.6z M96.8,143.6h-7.6v-12.4c0-3.1-1.1-5.2-3.9-5.2
			c-2.1,0-3.4,1.4-3.9,2.8c-0.2,0.5-0.3,1.2-0.3,1.9v12.9h-7.6c0.1-21,0-23.1,0-23.1h7.6v3.4h0c1-1.6,2.8-3.9,6.9-3.9
			c5,0,8.8,3.3,8.8,10.4V143.6z"/>
	</g>
</g>
</svg>
