<?xml version="1.0" encoding="utf-8"?>
<!-- Generator: Adobe Illustrator 19.1.0, SVG Export Plug-In . SVG Version: 6.00 Build 0)  -->
<svg version="1.1" id="Layer_1" xmlns="http://www.w3.org/2000/svg" xmlns:xlink="http://www.w3.org/1999/xlink" x="0px" y="0px"
	 viewBox="0 0 250 250" style="enable-background:new 0 0 250 250;" xml:space="preserve">
<style type="text/css">
	.st0{fill:#6633CC;}
	.st1{fill:#FFFFFF;}
	.st2{fill:#A2B9DE;}
	.st3{fill:#FCFDFF;}
	.st4{fill:#FEFEFE;}
	.st5{display:none;}
	.st6{display:inline;}
	.st7{display:inline;clip-path:url(#SVGID_2_);}
	.st8{fill:#0179C7;}
	.st9{fill:#01A337;}
	.st10{fill:#00AB2C;}
	.st11{fill:#00B51B;}
	.st12{fill:#0199C2;}
	.st13{fill:#019B60;}
	.st14{fill:#0284CE;}
	.st15{fill:#69D502;}
	.st16{fill:#36CC02;}
	.st17{fill:#00BC0E;}
	.st18{fill:#02C602;}
	.st19{fill:#FAE21D;}
	.st20{fill:#FDC3C5;}
	.st21{fill:#CBEE21;}
	.st22{fill:#FE32AA;}
	.st23{fill:#FDBADD;}
	.st24{fill:#FE7A2D;}
	.st25{fill:#FDB627;}
	.st26{fill:#445FBE;}
	.st27{fill:#329EE1;}
	.st28{fill:#C238B5;}
	.st29{fill:#3479CA;}
	.st30{fill:#FE5D3B;}
	.st31{fill:#8044B2;}
	.st32{fill:#8DE82C;}
	.st33{fill:#019C94;}
	.st34{fill:#01379B;}
	.st35{fill:#0160B5;}
	.st36{fill:#018FD5;}
	.st37{fill:#008FC1;}
	.st38{fill:#025EB4;}
	.st39{fill:#02B718;}
	.st40{fill:#019A8E;}
	.st41{fill:#019E61;}
	.st42{fill:#019D6A;}
	.st43{fill:#00B520;}
	.st44{fill:#04C603;}
	.st45{fill:#02BB0D;}
	.st46{fill:#0099AA;}
	.st47{fill:#019BAA;}
	.st48{fill:#5BD301;}
	.st49{fill:#B2E400;}
	.st50{fill:#7ADA01;}
	.st51{fill:#C9E901;}
	.st52{fill:#FCE801;}
	.st53{fill:#FDD902;}
	.st54{fill:#ECED01;}
	.st55{fill:#FED300;}
	.st56{fill:#FE2115;}
	.st57{fill:#FD0045;}
	.st58{fill:#FD0430;}
	.st59{fill:#FE0054;}
	.st60{fill:#FE0D23;}
	.st61{fill:#FB300E;}
	.st62{fill:#FC111E;}
	.st63{fill:#A5E203;}
	.st64{fill:#FC007F;}
	.st65{fill:#E50186;}
	.st66{fill:#D80188;}
	.st67{fill:#FE006B;}
	.st68{fill:#FD4A01;}
	.st69{fill:#FD6D02;}
	.st70{fill:#FD6303;}
	.st71{fill:#FD5202;}
	.st72{fill:#FDA001;}
	.st73{fill:#FDBC03;}
	.st74{fill:#172690;}
	.st75{fill:#16238F;}
	.st76{fill:#9F0287;}
	.st77{fill:#6B0787;}
	.st78{fill:#024CA2;}
	.st79{fill:#4D0D85;}
	.st80{fill:#0344A3;}
	.st81{fill:#2B208C;}
	.st82{fill:#019590;}
	.st83{fill:#0180A1;}
	.st84{fill:#42CD01;}
	.st85{fill:#68BA03;}
	.st86{fill:#7ED902;}
	.st87{fill:#12AF36;}
	.st88{fill:#43D003;}
	.st89{fill:#A1E101;}
	.st90{fill:#B5E600;}
	.st91{fill:#DBEB02;}
	.st92{fill:#FC9600;}
	.st93{fill:#FDC302;}
	.st94{fill:#FCBE05;}
	.st95{fill:#F3730B;}
	.st96{fill:#F10839;}
	.st97{fill:#FE370A;}
	.st98{fill:#E40163;}
	.st99{fill:#DF007D;}
	.st100{fill:#BE0187;}
	.st101{fill:#FD8A02;}
	.st102{fill:#8D0486;}
	.st103{fill:#0373AD;}
	.st104{fill:#79B30B;}
	.st105{fill:#5FA93D;}
	.st106{fill:#8AAA18;}
	.st107{fill:#96E001;}
	.st108{fill:#B7E502;}
	.st109{fill:#ACE402;}
	.st110{fill:#FD6601;}
	.st111{fill:#E1781C;}
	.st112{fill:#C08E11;}
	.st113{fill:#D4017E;}
	.st114{fill:#C30283;}
	.st115{display:inline;clip-path:url(#SVGID_4_);fill:#52627B;}
	.st116{opacity:7.000000e-002;clip-path:url(#SVGID_6_);}
	.st117{opacity:7.000000e-002;clip-path:url(#SVGID_8_);}
	.st118{opacity:7.000000e-002;clip-path:url(#SVGID_10_);}
	.st119{display:inline;opacity:7.000000e-002;clip-path:url(#SVGID_12_);}
</style>
<circle class="st0" cx="128.8" cy="128.7" r="102.8"/>
<g>
	<path class="st1" d="M145.8,183.5c-0.5,0-1,0-1.5,0l-0.2,0c-0.5,0-1.1,0-1.7,0l-3.3,0c-0.6,0-1.2,0-1.9,0c-4.2-0.1-5.6-1.5-5.7-5.8
		l0-0.4c0-0.5-0.1-1.1,0-1.7c0.3-1.7,0-2.4-2.1-2.9c-2.4-0.7-4.7-1.7-7.4-2.8c-1-0.4-1.9-0.8-3-1.3c-0.1,0.1-0.1,0.2-0.2,0.2
		c-0.7,0.9-1.6,2.1-2.5,3.1c-1.2,1.3-2.5,1.9-3.8,1.9c-1.3,0-2.5-0.6-3.7-1.7c-1.7-1.6-3.4-3.2-5.1-4.8l-2.2-2l-0.2-0.5l0-0.7
		l0.2-0.5l16.5-16l0.5-0.2l0.7,0.1l0.5,0.3c5.5,7.2,13.2,11.1,21.5,11.1c6.9,0,13.8-2.8,18.5-7.4c5.2-5.1,8-11.9,8-19
		c0-7.1-2.8-13.8-8-18.9c-4.7-4.6-11.5-7.4-18.4-7.4c-8.5,0-16.3,4.1-22,11.5l-0.5,0.3l-0.7,0l-0.5-0.2l-16.4-16.3l-0.2-0.5l0-0.7
		l0.2-0.5l2.1-2c1.6-1.5,3.3-3.1,5-4.7c1.3-1.2,2.7-1.9,4-1.9c1.5,0,2.8,0.7,3.8,2.1c1.3,1.8,2.6,2.6,3.8,2.6c1,0,2.1-0.5,3.4-1.5
		c0.6-0.5,1.4-0.7,1.9-0.8c4.4-0.9,6.8-2.4,5.9-7.2c-0.2-1.2,0-2.3,0.8-3.2c0.9-1.1,2.4-1.7,4.1-1.7c1.4,0,2.7,0,4.1,0
		c1.9,0,3.9,0,5.9,0c1.8,0,3.3,0.6,4.2,1.6c0.8,1,1.1,2.2,0.9,3.7c-0.3,2-0.1,3.4,0.6,4.4c0.7,1,2.1,1.6,4.2,2
		c1.6,0.3,3.4,1,4.9,2.2c0.7,0.5,1.3,0.8,1.8,0.8c0.7,0,1.4-0.5,2.5-1.6c2-2.2,3.4-3.4,5.1-3.4c1.6,0,3,1.1,5.1,3.2l1.3,1.3
		c1.2,1.2,2.5,2.5,3.7,3.8c2.7,2.8,2.7,5.4-0.1,8.2c-0.9,0.9-1.8,1.7-2.6,2.4l-0.3,0.2c0.3,0.9,0.7,1.8,1,2.6
		c1.1,2.9,2.2,5.7,3.3,8.3c0.2,0.4,0.9,1,1.6,1.1c0.3,0.1,0.7,0.1,1.2,0.1c0.4,0,0.7,0,1.1,0c0.4,0,0.8,0,1.2,0
		c3.4,0,5.4,1.9,5.5,5.2c0.1,2.9,0.1,6.1,0,10c-0.1,3-2,4.9-5,5c-0.8,0-1.5,0-2.3,0c-0.5,0-2.7,0-2.7,0l-5.1,12.3
		c0.1,0.1,0.2,0.2,0.3,0.2c1,0.8,2.1,1.7,3.1,2.7c1.2,1.2,1.8,2.5,1.8,3.8c0,1.3-0.6,2.6-1.8,3.8c-0.8,0.8-1.6,1.6-2.3,2.4l-0.1,0.1
		c-1.3,1.3-2.6,2.6-4,3.9c-1.6,1.5-2.7,2.1-4,2.1c-1.3,0-2.5-0.7-4.1-2.3c-0.9-0.9-1.7-2-2.3-2.8l-0.1-0.1c-1,0.4-2.9,1.1-2.9,1.1
		c-3.2,1.2-6,2.2-8.7,3.4c-0.2,0.1-0.8,1-0.8,1.5c0.2,4.1-0.2,6.3-1.4,7.6C149.2,183.2,147.7,183.5,145.8,183.5z M118.9,164
		l15.4,6.4l0.3,0.3l0.3,0.4l0.1,0.4c0,0.4,0,0.9,0,1.4c0,1.3,0,2.8,0,4.2c0,1,0.1,1.7,0.5,2c0.3,0.3,0.9,0.5,1.7,0.5l0.1,0
		c1.2,0,2.4,0,3.5,0c1.1,0,2.1,0,3.2,0l1.6,0c0.8,0,1.4-0.2,1.7-0.5c0.3-0.3,0.4-0.9,0.4-1.6c0-1.6,0-3.2,0-4.5c0-0.5,0-1,0-1.5
		l0.1-0.4l0.3-0.4l0.3-0.3l15.3-6.4l0.4,0l0.5,0.1l0.4,0.2l1,1.1c0.9,1,1.9,2.2,2.9,3.3c0.5,0.5,0.9,0.8,1.3,0.8
		c0.4,0,0.8-0.3,1.3-0.8c2.3-2.4,4.3-4.3,6.2-6.1c0.6-0.6,0.9-1.1,0.9-1.5c0-0.4-0.3-0.8-0.9-1.3c-1.1-0.9-2.3-1.8-3.2-2.5l-1-0.8
		l-0.2-0.4l-0.1-0.6l0-0.4l6.4-15.7l0.3-0.3l0.4-0.3l0.4-0.1c0.4,0,0.9,0,1.3,0l0.2,0c0.6,0,1.3,0,1.9,0c1,0,1.8,0,2.5,0.1
		c0.1,0,0.2,0,0.2,0c0.7,0,1.1-0.1,1.4-0.4c0.3-0.3,0.4-0.9,0.4-1.7l0-2.2c0-2.1,0-4.3,0-6.4c0-0.9-0.1-1.5-0.5-1.9
		c-0.3-0.3-0.8-0.4-1.5-0.4l-0.2,0c-0.7,0-1.5,0-2.5,0c-0.6,0-1.2,0-1.8,0l-0.1,0c-0.5,0-1,0-1.5,0l-0.4-0.1l-0.4-0.3l-0.3-0.3
		l-6.3-15.2l0-0.4l0.1-0.5l0.2-0.4l1.4-1.3c0.9-0.8,1.9-1.8,2.9-2.7c0.5-0.5,0.8-0.9,0.8-1.3c0-0.4-0.3-0.9-0.8-1.4
		c-1.8-1.7-4.1-4-6.4-6.4c-0.5-0.5-0.9-0.7-1.3-0.7c-0.4,0-0.9,0.3-1.4,0.9c-1,1.2-2,2.3-2.8,3.3l-0.8,1l-0.4,0.2l-0.5,0.1l-0.4,0
		l-15.4-6.4l-0.3-0.3l-0.3-0.4l-0.1-0.4l0-1.7c0-1.4,0-2.9,0-4.4c0-0.7-0.1-1.2-0.4-1.5c-0.3-0.3-0.8-0.4-1.5-0.5
		c-0.8,0-1.5,0-2.3,0l-3.6,0c-0.9,0-1.8,0-2.8,0l-0.1,0c-0.8,0-1.4,0.2-1.7,0.5c-0.3,0.3-0.5,1-0.5,1.9c0,1.5,0,3,0,4.3l0,1.5
		l-0.1,0.4l-0.3,0.4l-0.3,0.3l-15.1,6.3l-0.4,0l-0.5-0.1l-0.4-0.2c-0.3-0.4-0.7-0.8-1.1-1.2c-0.9-1.1-1.8-2.2-2.9-3
		c-0.2-0.2-0.9-0.4-1.5-0.4c-0.4,0-0.6,0.1-0.6,0.1c-1.7,1.3-3.3,2.8-4.8,4.2c0,0-0.7,0.7-0.9,0.9l12.4,12.3
		c8.2-8.8,17-10.6,23-10.6c7.8,0,15.6,3.1,20.9,8.4c11.8,11.5,12.4,29.9,1.5,41.8c-5.7,6.2-12.7,9.5-20.8,9.9c-0.5,0-1,0-1.4,0
		c-9.1,0-16.8-3.6-23-10.6L106,163.8c0.3,0.2,0.9,0.8,0.9,0.8c1.4,1.3,2.9,2.6,4.3,4c0.6,0.6,1.1,0.9,1.5,0.9c0.4,0,0.9-0.3,1.4-0.9
		c1-1.2,1.9-2.3,2.7-3.3c0.3-0.4,0.6-0.7,0.8-1l0.4-0.2l0.6-0.1L118.9,164z"/>
	<path class="st1" d="M145.8,182.8c-0.5,0-1,0-1.5,0c-0.6,0-1.2,0-1.9,0l-3.3,0c-0.6,0-1.2,0-1.9,0c-3.8-0.1-4.9-1.2-5-5.1
		c0-0.2,0-0.3,0-0.5c0-0.5,0-1,0-1.5c0.3-2.1-0.3-3.1-2.6-3.7c-2.4-0.7-4.7-1.6-7.3-2.8c-1.1-0.5-2.2-1-3.5-1.5
		c-0.2,0.2-0.3,0.4-0.5,0.7c-0.7,0.9-1.5,2-2.5,3.1c-1,1.1-2.1,1.7-3.3,1.7c-1.1,0-2.2-0.5-3.3-1.5c-1.7-1.6-3.4-3.2-5.1-4.8l-2.2-2
		l0-0.7l16.5-16l0.7,0.1c5.7,7.3,13.5,11.4,22.1,11.4c0,0,0,0,0,0c7.1,0,14.2-2.8,19-7.6c5.3-5.3,8.3-12.2,8.3-19.5
		c0-7.3-2.9-14.2-8.2-19.4c-4.8-4.7-11.8-7.6-18.9-7.6c-8.7,0-16.7,4.2-22.5,11.8l-0.7,0l-16.4-16.3l0-0.7c0.7-0.7,1.4-1.3,2.1-2
		c1.6-1.5,3.4-3.1,5-4.7c1.2-1.1,2.4-1.7,3.6-1.7c1.2,0,2.3,0.6,3.2,1.9c1.4,2,2.9,2.9,4.4,2.9c1.2,0,2.4-0.5,3.8-1.7
		c0.5-0.4,1.2-0.6,1.7-0.7c4.6-1,7.5-2.7,6.5-8c-0.2-1,0-1.9,0.6-2.6c0.7-0.9,2-1.4,3.5-1.4c1.4,0,2.7,0,4.1,0c2,0,3.9,0,5.9,0
		c1.6,0,2.9,0.5,3.6,1.4c0.7,0.8,0.9,1.9,0.7,3.1c-0.4,2.2-0.1,3.8,0.7,4.9c0.8,1.1,2.3,1.9,4.6,2.2c1.5,0.2,3.2,1,4.6,2
		c0.8,0.6,1.6,0.9,2.2,0.9c0.9,0,1.8-0.5,3-1.9c1.9-2,3.2-3.2,4.6-3.2c1.4,0,2.6,1,4.6,3l1.3,1.3c1.2,1.2,2.5,2.5,3.7,3.7
		c2.5,2.6,2.4,4.7-0.1,7.3c-0.9,0.9-1.8,1.7-2.6,2.4c-0.2,0.2-0.4,0.4-0.6,0.5c0.4,1.1,0.8,2.1,1.2,3.1c1.1,2.9,2.2,5.7,3.3,8.4
		c0.3,0.6,1.2,1.3,2,1.5c0.4,0.1,0.8,0.2,1.4,0.2c0.4,0,0.7,0,1.1,0c0.4,0,0.8,0,1.2,0c3,0,4.7,1.6,4.8,4.6c0.1,2.9,0.1,6.1,0,10
		c-0.1,2.6-1.6,4.2-4.3,4.3c-0.7,0-1.5,0-2.2,0c-0.6,0-1.2,0-1.8,0c-0.5,0-0.9,0-1.4,0l-5.5,13.2c0.2,0.2,0.5,0.4,0.8,0.6
		c0.9,0.8,2,1.6,3,2.6c1,1.1,1.6,2.2,1.6,3.3c0,1.1-0.5,2.2-1.6,3.3c-0.8,0.8-1.6,1.6-2.4,2.4c-1.3,1.3-2.7,2.7-4,4
		c-1.4,1.4-2.5,1.9-3.5,1.9c-1.1,0-2.2-0.6-3.6-2.1c-0.9-0.9-1.6-1.9-2.2-2.7c-0.1-0.2-0.3-0.3-0.4-0.5c-1.2,0.4-2.3,0.9-3.4,1.3
		c-3.2,1.2-6,2.3-8.8,3.5c-0.6,0.2-1.2,1.4-1.2,2.1c0.2,3.9-0.2,6-1.2,7.1C148.8,182.6,147.6,182.8,145.8,182.8z M134,171l0.3,0.4
		c0,0.4,0,0.9,0,1.4c0,1.3,0,2.7,0,4.1c0,1.2,0.2,2,0.7,2.6c0.5,0.5,1.2,0.7,2.2,0.7l0.2,0c1.2,0,2.4,0,3.5,0c1.1,0,2.1,0,3.2,0
		c0,0,1.6,0,1.6,0c1.1,0,1.8-0.2,2.2-0.7c0.4-0.4,0.6-1.1,0.6-2.1c0-1.6,0-3.2,0-4.5c0-0.5,0-1,0-1.4l0.3-0.4l15.3-6.4l0.5,0.1
		l1,1.1c0.9,1,1.9,2.1,2.9,3.3c0.6,0.7,1.2,1,1.8,1c0.6,0,1.2-0.3,1.8-1c2.3-2.4,4.3-4.3,6.1-6.1c0.8-0.7,1.1-1.4,1.1-2
		c0-0.6-0.4-1.2-1.2-1.8c-1.2-1-2.4-1.9-3.4-2.7c-0.3-0.3-0.6-0.5-0.9-0.7l-0.1-0.6l6.4-15.7l0.4-0.3c0.5,0,1,0,1.6,0
		c0.6,0,1.3,0,1.9,0c0.9,0,1.7,0,2.5,0.1c0.1,0,0.2,0,0.3,0c0.9,0,1.5-0.2,1.9-0.6c0.4-0.4,0.7-1.2,0.7-2.2l0-2.2c0-2.1,0-4.3,0-6.4
		c0-1.1-0.2-1.9-0.7-2.4c-0.4-0.4-1.1-0.6-2-0.6c-0.1,0-0.2,0-0.3,0c-0.7,0-1.5,0-2.4,0c-0.7,0-1.3,0-1.9,0c-0.5,0-1,0-1.5,0
		l-0.4-0.3l-6.3-15.2l0.1-0.5l1.1-1c1-0.9,2.1-1.9,3.2-2.9c0.7-0.6,1-1.2,1.1-1.8c0-0.6-0.3-1.2-1-1.9c-1.8-1.7-4.1-4-6.3-6.4
		c-0.6-0.6-1.2-0.9-1.8-0.9c-0.6,0-1.2,0.4-1.9,1.1c-1,1.2-2,2.4-2.8,3.3l-0.8,1l-0.6,0.1l-15.4-6.4l-0.3-0.4c0-0.5,0-1.1,0-1.7
		c0-1.4,0-2.9,0-4.4c0-0.9-0.2-1.6-0.6-2c-0.4-0.4-1.1-0.7-2-0.7c-0.8,0-1.5,0-2.3,0l-3.6,0c-0.9,0-1.8,0-2.8,0l-0.1,0
		c-1,0-1.7,0.2-2.2,0.7c-0.5,0.5-0.7,1.3-0.7,2.4c0,1.5,0,3,0,4.3l0,1.4l-0.3,0.4l-15.1,6.3l-0.5-0.1c-0.3-0.4-0.7-0.8-1.1-1.2
		c-0.9-1.1-1.9-2.2-3-3.1c-0.4-0.3-1.2-0.5-1.9-0.5c-0.4,0-0.8,0.1-1,0.2c-1.7,1.3-3.4,2.8-4.9,4.3c-0.5,0.5-1,0.9-1.5,1.4
		l13.5,13.3c8.1-9,17-10.9,23-10.9c7.6,0,15.2,3,20.4,8.1c11.5,11.3,12.1,29.2,1.5,40.9c-5.6,6.1-12.4,9.3-20.4,9.6
		c-0.5,0-0.9,0-1.4,0c-9.1,0-16.8-3.7-23-10.9l-13.6,13.4c0.5,0.4,1,0.9,1.5,1.3c1.4,1.3,2.9,2.6,4.2,3.9c0.7,0.7,1.4,1.1,2,1.1
		c0.6,0,1.2-0.4,1.9-1.1c1-1.2,1.9-2.4,2.7-3.3c0.3-0.4,0.5-0.7,0.8-0.9l0.6-0.1L134,171z"/>
	<path class="st1" d="M145.8,183c-0.5,0-1,0-1.5,0c-0.6,0-1.2,0-1.9,0l-3.3,0c-0.6,0-1.2,0-1.9,0c-4-0.1-5.1-1.3-5.2-5.3l0-0.5
		c0-0.5,0-1,0-1.6c0.3-2-0.3-2.9-2.4-3.5c-2.4-0.7-4.7-1.7-7.3-2.8c-1-0.5-2.1-0.9-3.3-1.4c-0.1,0.2-0.3,0.3-0.4,0.5
		c-0.7,0.9-1.5,2-2.5,3.1c-1.1,1.2-2.2,1.7-3.5,1.7c-1.2,0-2.3-0.5-3.4-1.6c-1.7-1.6-3.4-3.2-5.1-4.8l-2.1-2l0-1l16.5-16l1,0.1
		c5.6,7.3,13.4,11.3,21.9,11.3c0,0,0,0,0,0c7,0,14-2.8,18.8-7.5c5.3-5.2,8.2-12.1,8.2-19.3c0-7.2-2.9-14.1-8.2-19.3
		c-4.8-4.7-11.7-7.5-18.7-7.5c-8.6,0-16.6,4.2-22.4,11.7l-1,0.1L101.7,101l0-1l2.1-2c1.7-1.6,3.4-3.1,5-4.7c1.2-1.2,2.5-1.8,3.7-1.8
		c0.9,0,2.2,0.3,3.4,2c1.4,1.9,2.8,2.8,4.2,2.8c1.1,0,2.3-0.5,3.7-1.6c0.6-0.4,1.3-0.7,1.8-0.8c4.6-1,7.3-2.6,6.3-7.8
		c-0.2-1.1,0-2,0.7-2.8c0.8-1,2.1-1.5,3.7-1.5c1.4,0,2.8,0,4.2,0c1.9,0,3.8,0,5.8,0c1.7,0,3,0.5,3.8,1.5c0.7,0.8,1,2,0.8,3.3
		c-0.3,2.1-0.1,3.7,0.6,4.7c0.8,1.1,2.3,1.8,4.5,2.1c1.5,0.2,3.2,1,4.7,2.1c0.8,0.6,1.5,0.9,2.1,0.9c0.8,0,1.6-0.5,2.8-1.8
		c1.9-2.1,3.3-3.2,4.8-3.2c1.4,0,2.7,1,4.8,3.1l1.3,1.3c1.2,1.2,2.5,2.5,3.7,3.7c2.6,2.7,2.5,4.9-0.1,7.6c-0.9,0.9-1.8,1.7-2.6,2.4
		c-0.2,0.2-0.3,0.3-0.5,0.4c0.4,1,0.8,2,1.1,3c1.1,2.9,2.2,5.7,3.3,8.4c0.2,0.6,1.1,1.2,1.9,1.4c0.4,0.1,0.8,0.1,1.4,0.1
		c0.4,0,0.7,0,1.1,0c0.4,0,0.8,0,1.2,0c3.1,0,4.9,1.7,5,4.8c0.1,2.9,0.1,6.1,0,10c-0.1,2.8-1.7,4.4-4.5,4.5c-0.8,0-1.5,0-2.2,0
		c-0.6,0-1.2,0-1.8,0c-0.4,0-0.8,0-1.2,0l-5.3,12.9c0.2,0.2,0.4,0.3,0.6,0.5c0.9,0.8,2,1.6,3,2.6c1.1,1.1,1.6,2.2,1.6,3.4
		c0,1.2-0.6,2.3-1.7,3.4c-0.8,0.8-1.6,1.6-2.4,2.4c-1.3,1.3-2.6,2.7-4,4c-1.5,1.4-2.6,2-3.7,2c-1.2,0-2.3-0.6-3.8-2.2
		c-0.9-0.9-1.6-1.9-2.2-2.7c-0.1-0.1-0.2-0.3-0.3-0.4c-1.1,0.4-2.2,0.8-3.2,1.2c-3.2,1.2-6,2.3-8.8,3.5c-0.5,0.2-1.1,1.3-1.1,1.9
		c0.2,4-0.2,6.1-1.3,7.2C148.8,182.9,147.2,183,145.8,183z M134.1,170.8l0.4,0.6c0,0.4,0,0.9,0,1.4c0,1.3,0,2.7,0,4.1
		c0,1.1,0.2,1.9,0.6,2.4c0.4,0.4,1.1,0.7,2.1,0.7l0.2,0c1.2,0,2.4,0,3.5,0c1.1,0,2.1,0,3.2,0l1.6,0c1,0,1.7-0.2,2.1-0.6
		c0.4-0.4,0.6-1.1,0.5-2c0-1.6,0-3.2,0-4.5c0-0.5,0-1,0-1.4l0.4-0.6l15.3-6.4l0.8,0.2l1,1.1c0.9,1,1.9,2.1,2.9,3.3
		c0.6,0.6,1.1,1,1.7,1c0.5,0,1.1-0.3,1.7-0.9c2.3-2.3,4.3-4.3,6.1-6.1c0.7-0.7,1-1.3,1-1.9c0-0.5-0.4-1.1-1.1-1.7
		c-1.2-1-2.4-1.9-3.3-2.6l-0.9-0.7l-0.2-0.8l6.4-15.7l0.6-0.4c0.5,0,1,0,1.6,0c0.6,0,1.3,0,1.9,0c0.8,0,1.6,0,2.5,0.1
		c0.1,0,0.2,0,0.3,0c0.8,0,1.4-0.2,1.7-0.5c0.4-0.4,0.6-1.1,0.6-2l0-2.2c0-2.1,0-4.3,0-6.4c0-1-0.2-1.8-0.6-2.2
		c-0.4-0.4-1-0.6-1.9-0.6c-0.1,0-0.2,0-0.3,0c-0.8,0-1.6,0-2.4,0c-0.7,0-1.3,0-1.9,0c-0.5,0-1,0-1.5,0l-0.6-0.4l-6.3-15.2l0.2-0.8
		l1.1-1c1-0.9,2.1-1.9,3.2-2.9c0.6-0.6,1-1.1,1-1.7c0-0.5-0.3-1.1-0.9-1.7c-2.1-2.1-4.3-4.2-6.4-6.4c-0.6-0.6-1.1-0.9-1.6-0.9
		c-0.5,0-1.1,0.4-1.7,1c-1,1.2-2,2.4-2.8,3.3l-0.8,1l-0.8,0.2l-15.4-6.4l-0.4-0.6l0-1.7c0-1.4,0-2.9,0-4.4c0-0.9-0.2-1.5-0.5-1.9
		c-0.4-0.4-1-0.6-1.9-0.6c-0.8,0-1.5,0-2.3,0l-3.6,0c-0.9,0-1.9,0-2.8,0c0,0,0,0,0,0c-1,0-1.7,0.2-2.1,0.6c-0.4,0.4-0.6,1.2-0.6,2.2
		c0,1.5,0,3,0,4.3l0,1.4l-0.4,0.6L119,99.6l-0.8-0.2c-0.3-0.4-0.7-0.8-1.1-1.2c-0.9-1.1-1.8-2.2-3-3.1c-0.4-0.3-1.1-0.5-1.8-0.5
		c-0.5,0-0.8,0.1-0.9,0.2c-1.7,1.3-3.3,2.8-4.9,4.3c-0.4,0.4-0.9,0.8-1.3,1.2l13.1,13c8.1-8.9,17-10.8,23-10.8
		c7.6,0,15.3,3.1,20.6,8.2c11.6,11.4,12.2,29.4,1.5,41.2c-5.6,6.1-12.5,9.4-20.5,9.7c-0.5,0-1,0-1.4,0c-9.1,0-16.8-3.6-23-10.8
		l-13.3,13c0.4,0.4,0.9,0.8,1.3,1.2c1.4,1.3,2.9,2.6,4.3,4c0.7,0.7,1.3,1,1.8,1c0.6,0,1.1-0.3,1.7-1.1c1-1.2,1.9-2.3,2.7-3.3l0.8-1
		l0.8-0.2L134.1,170.8z"/>
	<path class="st1" d="M118.6,116.9c-5.4-5.4-10.7-10.7-16.4-16.3c2.4-2.2,4.8-4.5,7.2-6.8c2.1-2,4.4-2.2,6.1,0.1
		c2.7,3.6,5.4,4.1,8.9,1.4c0.4-0.3,1-0.5,1.5-0.6c4.7-1,7.9-2.8,6.8-8.6c-0.4-2.1,1.4-3.5,3.7-3.4c3.3,0,6.6,0,9.9,0
		c2.6,0,4.3,1.5,3.9,3.9c-0.8,4.8,1.1,7,5.7,7.7c1.5,0.2,3.1,1,4.3,2c2.5,1.9,4,1,5.8-1c3.7-4,4.7-3.9,8.5-0.1c1.7,1.7,3.4,3.3,5,5
		c2.3,2.4,2.3,4.2-0.1,6.6c-1.2,1.2-2.5,2.3-3.4,3.1c1.7,4.3,3,8.1,4.6,11.8c0.4,0.8,1.5,1.6,2.4,1.8c1.2,0.3,2.5,0.1,3.8,0.1
		c2.7,0,4.2,1.5,4.3,4.1c0.1,3.3,0.1,6.6,0,9.9c-0.1,2.4-1.4,3.8-3.8,3.8c-1.9,0.1-3.8,0-5.7,0c-1.9,4.5-3.6,8.8-5.7,13.8
		c1.1,0.9,2.6,2.1,4,3.4c1.9,1.9,1.9,3.9,0,5.9c-2.1,2.1-4.2,4.3-6.4,6.3c-2.6,2.4-3.9,2.4-6.5-0.2c-1.2-1.2-2.1-2.7-2.8-3.5
		c-4.8,1.8-8.7,3.2-12.5,4.9c-0.7,0.3-1.5,1.7-1.5,2.6c0.4,8.8-2,7.6-8,7.6c-1.7,0-3.4,0-5.1,0c-3.6-0.1-4.4-0.9-4.5-4.6
		c0-0.6-0.1-1.3,0-1.9c0.4-2.4-0.4-3.6-3-4.2c-3.5-1-6.7-2.6-11.1-4.4c-0.8,1-1.9,2.6-3.2,4c-1.8,2-3.9,2-5.9,0.1
		c-2.4-2.3-4.8-4.5-7.2-6.8c5.8-5.6,11.2-10.8,16.5-16c12.3,16,31.9,13.6,41.8,3.8c11.2-11,11.2-28.5,0-39.6
		C150.8,102.8,131.1,100.5,118.6,116.9z M164.4,99.1c-5.6-2.3-10.4-4.3-15.4-6.4c0-1.9,0-4,0-6.1c0-2.2-1-3.2-3.1-3.2
		c-2.9,0-5.8,0-8.7,0c-2.4,0-3.5,1.2-3.5,3.6c0,2.1,0,4.2,0,5.8c-5.2,2.2-9.9,4.1-15.1,6.3c-1.2-1.3-2.5-3.1-4.1-4.4
		c-0.8-0.6-2.8-0.8-3.5-0.3c-2.5,1.8-4.6,4-6.8,6.1c5.1,5,9.6,9.5,14.2,14c14.5-16.5,33.8-12.2,43-3.1c11.2,11,11.9,28.8,1.5,40.2
		c-5.4,5.9-12.1,9.1-20,9.5c-10,0.4-18.2-3.7-24.3-11.1c-4.7,4.6-9.3,9.1-14.3,14.1c2,1.8,4.1,3.6,6.1,5.6c1.7,1.7,3.1,1.6,4.6-0.1
		c1.4-1.6,2.7-3.3,3.5-4.3c5.7,2.4,10.3,4.3,15.4,6.4c0,1.5,0,3.6,0,5.6c-0.1,2.5,0.9,3.8,3.6,3.8c2.8-0.1,5.6,0,8.3,0
		c2.2,0,3.4-1,3.3-3.3c-0.1-2.2,0-4.4,0-6c5.3-2.2,10-4.2,15.3-6.4c1.1,1.2,2.5,2.8,3.9,4.4c1.4,1.6,2.9,1.6,4.4,0
		c2-2.1,4-4.1,6.1-6.1c1.7-1.6,1.7-3.1-0.1-4.6c-1.6-1.3-3.3-2.6-4.3-3.4c2.4-5.9,4.3-10.6,6.4-15.7c1.7,0,3.8-0.1,6,0
		c2.4,0.1,3.3-1.1,3.3-3.3c0-2.9,0-5.8,0-8.7c0-2.4-1-3.6-3.5-3.5c-2.1,0.1-4.2,0-5.8,0c-2.2-5.2-4.1-9.9-6.3-15.2
		c1.2-1.1,2.7-2.5,4.3-3.9c1.6-1.4,1.6-2.9,0.1-4.4c-2.1-2.1-4.2-4.2-6.3-6.4c-1.5-1.6-3-1.4-4.4,0.2
		C166.7,96.4,165.3,98,164.4,99.1z"/>
	<path class="st1" d="M98.6,158.3l-0.5-0.2l-7.1-7.1l-0.2-0.5l0-0.7l0.2-0.5l10.9-10.4h-2.1c-3.1,0-6.2,0-9.3,0l-1.3,0
		c-3.5,0-7.1,0-10.6,0c-7.5,0-13.3,0-18.8,0.1l-0.2,0c-1.8,0-3-0.4-3.8-1.2c-0.8-0.8-1.1-2-1.1-3.9l0-0.4c0.2-7.3,0.7-7.9,8.3-7.9
		h38.3L90.5,116l-0.2-0.5l0-0.7l0.2-0.5l7.7-7.8l0.5-0.2l0.7,0l0.5,0.2l24.9,25.1l0.2,0.5l0,0.7l-0.2,0.5l-24.9,24.9l-0.5,0.2
		L98.6,158.3z M99.2,153.8l21.3-21.2l-21.3-21.4l-4.3,4.3l12.5,12.1l0.2,0.8l-0.3,0.8l-0.6,0.4H58.8v5.8h47.4l0.3,0.1l0.4,0.2
		l0.3,0.2l0.5,0.8l0.1,0.5l-0.1,0.6l-0.2,0.4l-12.1,11.7L99.2,153.8z"/>
	<path class="st1" d="M98.6,157.6l-7.1-7.1l0-0.7l11.5-11l-0.3-0.6h-2.9c-3.5,0-7.1,0-10.6,0c-3.5,0-7.1,0-10.6,0
		c-7.5,0-13.3,0-18.8,0.1l-0.2,0c-1.6,0-2.6-0.3-3.3-1c-0.7-0.7-0.9-1.7-0.9-3.4l0-0.4c0.2-7,0.4-7.2,7.6-7.2h39.7l0.2-0.3L91,115.5
		l0-0.7l7.7-7.8l0.7,0l24.9,25.1l0,0.7l-24.9,24.9L98.6,157.6z M99.2,154.8l22.3-22.2l-22.3-22.4l-5.3,5.3l13,12.6l-0.3,0.8H58.1
		v7.2h48.1l0.4,0.2l0.5,0.8l-0.1,0.6l-12.6,12.1L99.2,154.8z"/>
	<path class="st1" d="M98.4,157.8l-7.1-7.1l0-1l11.4-10.9l-0.2-0.4h-2.8c-3.5,0-7.1,0-10.6,0c-3.5,0-7.1,0-10.6,0
		c-7.5,0-13.3,0-18.8,0.1l-0.2,0c-1.7,0-2.7-0.3-3.4-1c-0.7-0.7-1-1.8-1-3.5l0-0.4c0.2-7.1,0.4-7.4,7.9-7.4h39.6l-11.8-10.6l0-1
		l7.7-7.8l1,0l24.9,25.1l0,1l-24.9,24.9L98.4,157.8z M99.2,154.5l22-21.9l-22-22.1l-5,4.9l12.9,12.4l-0.5,1.2H58.3v6.8h47.9l0.6,0.3
		l0.5,0.8l-0.1,0.9l-12.4,12L99.2,154.5z"/>
	<path class="st1" d="M91.3,115.1c3.1-3.2,5.5-5.6,7.7-7.8c8.4,8.4,16.7,16.8,24.9,25.1c-8.1,8.1-16.5,16.5-24.9,24.9
		c-2.2-2.2-4.6-4.6-7.1-7.1c3.9-3.7,7.8-7.5,11.7-11.2c-0.2-0.4-0.4-0.8-0.6-1.2c-1.1,0-2.1,0-3.2,0c-13.4,0-26.7-0.1-40.1,0.1
		c-3,0-3.9-0.9-3.8-3.8c0.2-7.1,0-7.1,7.2-7.1c12.3,0,24.6,0,36.9,0c1,0,2,0,3.1,0c0.2-0.3,0.3-0.6,0.5-0.8
		C99.5,122.4,95.4,118.7,91.3,115.1z M106.2,136.5c0.2,0.3,0.3,0.6,0.5,0.8c-4.3,4.2-8.7,8.4-12.9,12.5c1.9,2,3.7,3.9,5.4,5.6
		c7.7-7.7,15.5-15.5,23-22.9c-7.7-7.7-15.4-15.5-23-23.1c-1.7,1.7-3.5,3.4-6,5.9c4.3,4.2,8.7,8.4,13.4,12.9c-16.6,0-32.8,0-49,0
		c0,2.8,0,5.4,0,8.2C74,136.5,90.1,136.5,106.2,136.5z"/>
</g>
</svg>
