<?xml version="1.0" encoding="utf-8"?>
<!-- Generator: Adobe Illustrator 19.1.0, SVG Export Plug-In . SVG Version: 6.00 Build 0)  -->
<svg version="1.1" id="Layer_1" xmlns="http://www.w3.org/2000/svg" xmlns:xlink="http://www.w3.org/1999/xlink" x="0px" y="0px"
	 viewBox="0 0 250 250" style="enable-background:new 0 0 250 250;" xml:space="preserve">
<style type="text/css">
	.st0{fill:#6633CC;}
	.st1{fill:#FFFFFF;}
	.st2{fill:#A2B9DE;}
	.st3{fill:#FCFDFF;}
	.st4{fill:#FEFEFE;}
	.st5{display:none;}
	.st6{display:inline;}
	.st7{display:inline;clip-path:url(#SVGID_2_);}
	.st8{fill:#0179C7;}
	.st9{fill:#01A337;}
	.st10{fill:#00AB2C;}
	.st11{fill:#00B51B;}
	.st12{fill:#0199C2;}
	.st13{fill:#019B60;}
	.st14{fill:#0284CE;}
	.st15{fill:#69D502;}
	.st16{fill:#36CC02;}
	.st17{fill:#00BC0E;}
	.st18{fill:#02C602;}
	.st19{fill:#FAE21D;}
	.st20{fill:#FDC3C5;}
	.st21{fill:#CBEE21;}
	.st22{fill:#FE32AA;}
	.st23{fill:#FDBADD;}
	.st24{fill:#FE7A2D;}
	.st25{fill:#FDB627;}
	.st26{fill:#445FBE;}
	.st27{fill:#329EE1;}
	.st28{fill:#C238B5;}
	.st29{fill:#3479CA;}
	.st30{fill:#FE5D3B;}
	.st31{fill:#8044B2;}
	.st32{fill:#8DE82C;}
	.st33{fill:#019C94;}
	.st34{fill:#01379B;}
	.st35{fill:#0160B5;}
	.st36{fill:#018FD5;}
	.st37{fill:#008FC1;}
	.st38{fill:#025EB4;}
	.st39{fill:#02B718;}
	.st40{fill:#019A8E;}
	.st41{fill:#019E61;}
	.st42{fill:#019D6A;}
	.st43{fill:#00B520;}
	.st44{fill:#04C603;}
	.st45{fill:#02BB0D;}
	.st46{fill:#0099AA;}
	.st47{fill:#019BAA;}
	.st48{fill:#5BD301;}
	.st49{fill:#B2E400;}
	.st50{fill:#7ADA01;}
	.st51{fill:#C9E901;}
	.st52{fill:#FCE801;}
	.st53{fill:#FDD902;}
	.st54{fill:#ECED01;}
	.st55{fill:#FED300;}
	.st56{fill:#FE2115;}
	.st57{fill:#FD0045;}
	.st58{fill:#FD0430;}
	.st59{fill:#FE0054;}
	.st60{fill:#FE0D23;}
	.st61{fill:#FB300E;}
	.st62{fill:#FC111E;}
	.st63{fill:#A5E203;}
	.st64{fill:#FC007F;}
	.st65{fill:#E50186;}
	.st66{fill:#D80188;}
	.st67{fill:#FE006B;}
	.st68{fill:#FD4A01;}
	.st69{fill:#FD6D02;}
	.st70{fill:#FD6303;}
	.st71{fill:#FD5202;}
	.st72{fill:#FDA001;}
	.st73{fill:#FDBC03;}
	.st74{fill:#172690;}
	.st75{fill:#16238F;}
	.st76{fill:#9F0287;}
	.st77{fill:#6B0787;}
	.st78{fill:#024CA2;}
	.st79{fill:#4D0D85;}
	.st80{fill:#0344A3;}
	.st81{fill:#2B208C;}
	.st82{fill:#019590;}
	.st83{fill:#0180A1;}
	.st84{fill:#42CD01;}
	.st85{fill:#68BA03;}
	.st86{fill:#7ED902;}
	.st87{fill:#12AF36;}
	.st88{fill:#43D003;}
	.st89{fill:#A1E101;}
	.st90{fill:#B5E600;}
	.st91{fill:#DBEB02;}
	.st92{fill:#FC9600;}
	.st93{fill:#FDC302;}
	.st94{fill:#FCBE05;}
	.st95{fill:#F3730B;}
	.st96{fill:#F10839;}
	.st97{fill:#FE370A;}
	.st98{fill:#E40163;}
	.st99{fill:#DF007D;}
	.st100{fill:#BE0187;}
	.st101{fill:#FD8A02;}
	.st102{fill:#8D0486;}
	.st103{fill:#0373AD;}
	.st104{fill:#79B30B;}
	.st105{fill:#5FA93D;}
	.st106{fill:#8AAA18;}
	.st107{fill:#96E001;}
	.st108{fill:#B7E502;}
	.st109{fill:#ACE402;}
	.st110{fill:#FD6601;}
	.st111{fill:#E1781C;}
	.st112{fill:#C08E11;}
	.st113{fill:#D4017E;}
	.st114{fill:#C30283;}
	.st115{display:inline;clip-path:url(#SVGID_4_);fill:#52627B;}
	.st116{opacity:7.000000e-002;clip-path:url(#SVGID_6_);}
	.st117{opacity:7.000000e-002;clip-path:url(#SVGID_8_);}
	.st118{opacity:7.000000e-002;clip-path:url(#SVGID_10_);}
	.st119{display:inline;opacity:7.000000e-002;clip-path:url(#SVGID_12_);}
</style>
<g>
	<circle class="st0" cx="125" cy="126.9" r="102.8"/>
	<g>
		<path class="st1" d="M84.5,85.3c0,2.9-0.3,5,0.1,7.1c0.2,1.2,1.6,2.2,2.4,3.2c0.9-1.1,2.2-2,2.5-3.2c0.4-2,0.1-4.1,0.1-6.9
			c1,0.9,1.3,1.4,1.7,1.4c1.4,0.3,2.8,0.4,4.3,0.5c-0.3-1.4-0.2-3.1-1-4.2c-1.5-2-3.3-3.9-5.3-5.3c-1.1-0.7-3.5-0.9-4.5-0.2
			c-2.3,1.6-4.4,3.8-6.1,6.1c-0.6,0.8-0.2,2.4-0.3,3.6c1.1,0,2.3,0.3,3.4,0C82.6,87.3,83.2,86.5,84.5,85.3z M103.2,104
			c-1.2,1.4-2.1,2-2.3,2.7c-0.2,1.1-0.4,2.7,0.2,3.3c0.6,0.6,2.2,0.3,3.3,0c0.6-0.2,1.1-1,1.6-1.5c7.8-7.8,7.7-6.2-0.1-13.9
			c-1.3-1.3-2.7-3.7-4.9-1.6c-2.2,2,0.1,3.5,1.2,5.1c0.1,0.1-0.1,0.4-0.2,0.9c-1.6,0-3.3-0.3-4.8,0.1c-1.6,0.4-4.1,1.4-4.2,2.4
			c-0.3,2.4,2,2.6,4,2.6C98.9,104,100.7,104,103.2,104z M70.8,99c1.2-1.3,1.9-1.8,2.1-2.4c0.3-1.2,0.2-2.4,0.2-3.6
			c-1.2,0-2.5-0.1-3.7,0.2c-0.5,0.1-0.9,0.8-1.3,1.3c-8.1,8.3-7.9,6,0,14.1c1.3,1.3,2.6,3.7,4.9,1.5c2.3-2.2-0.3-3.5-1.3-5
			c-0.1-0.2,0-0.5,0-1c2.1,0,4.3,0.3,6.3-0.1c1.1-0.2,2-1.6,3-2.5c-1-0.8-1.8-2.1-2.9-2.2C76,98.8,73.8,99,70.8,99z M84.5,117.3
			c-2.3-0.9-3.9-4.7-6.2-1.4c-2,2.8,1.2,4,2.6,5.4c6.7,6.8,5.3,7.3,12.5,0c1.5-1.5,4.3-2.9,2.3-5.5c-2.2-3-3.7,0.7-6.1,1.4
			c0-2.4,0.3-4.7-0.1-6.8c-0.2-1-1.6-1.8-2.5-2.7c-0.8,0.9-2.2,1.7-2.4,2.7C84.3,112.5,84.5,114.7,84.5,117.3z"/>
		<path class="st1" d="M120.3,140.9c0-13.1,0-25.5,0-37.8c0-1.8-0.1-3.5,0.2-5.3c0.8-5.5,4.8-8.7,10.2-8.5c5.2,0.3,9,4.2,9.1,9.7
			c0.1,5,0,10.1,0,15.6c5.5-1.7,10.1-0.7,13.3,4c8.6-2.7,11.6-1.5,16,6.3c8.8-2.5,14.2,1.4,14.1,10.5c-0.1,7.5,0.4,15.3-1.1,22.5
			c-2.8,14.1-12,23.3-25.9,27.1c-13.6,3.8-25.7,0.3-35.7-9.6c-7.8-7.8-15.2-16.1-22.7-24.3c-4.1-4.5-4.5-9.1-1.3-13.3
			c2.9-3.9,8.4-5.1,13.3-2.7C113.1,136.9,116.3,138.8,120.3,140.9z M125.4,124.8c0,8.2,0,16.4,0,24.6c0,2,0.2,4.6-2.6,4.4
			c-0.9-0.1-1.7-2.7-2.5-4.2c-0.6-1.2-0.5-3-1.4-3.5c-3.8-2.4-7.9-4.4-11.9-6.5c-2.6-1.4-5-0.7-6.6,1.7c-1.6,2.3-1,4.4,0.9,6.5
			c7.7,8.2,15.1,16.6,23,24.5c9,9,19.9,11.5,32,7.7c11.9-3.8,19.4-12.2,21.3-24.6c1.1-7,0.7-14.3,0.7-21.5c0-2.7-1.7-4.6-4.4-4.8
			c-3-0.2-4.7,1.7-5.1,4.5c-0.3,1.9,0.2,3.8-0.2,5.6c-0.2,1.2-1.4,2.2-2.1,3.3c-0.9-1.1-2.4-2.2-2.5-3.4c-0.3-3.8,0-7.6-0.1-11.3
			c-0.1-3.4-2-5.7-4.8-5.7c-2.8,0-4.7,2.1-4.8,5.6c-0.1,3.1,0.2,6.3-0.1,9.4c-0.1,1.3-1.5,2.5-2.2,3.7c-0.8-1.2-2.2-2.3-2.3-3.5
			c-0.3-4.3-0.1-8.6-0.1-12.8c-0.1-3.1-1.3-5.5-4.7-5.7c-2.9-0.2-4.8,2.2-4.9,5.9c0,3.9,0.2,7.8-0.1,11.7c-0.1,0.9-1.6,1.8-2.5,2.7
			c-0.8-0.8-1.8-1.5-2.3-2.5c-0.4-0.8-0.1-2-0.1-3c0-10.5,0-20.9,0-31.4c0-5.5-1.4-8-4.6-8c-3.3,0-4.8,2.3-4.8,7.9
			C125.4,109.6,125.4,117.2,125.4,124.8z"/>
		<path class="st1" d="M84.5,85.3c-1.3,1.1-1.9,2-2.7,2.2c-1.1,0.3-2.3,0-3.4,0c0.1-1.2-0.3-2.8,0.3-3.6c1.8-2.2,3.8-4.4,6.1-6.1
			c1-0.7,3.4-0.6,4.5,0.2c2.1,1.4,3.9,3.3,5.3,5.3c0.8,1,0.7,2.8,1,4.2c-1.4-0.2-2.9-0.3-4.3-0.5c-0.4-0.1-0.7-0.6-1.7-1.4
			c0,2.8,0.3,5-0.1,6.9c-0.2,1.2-1.6,2.2-2.5,3.2c-0.8-1.1-2.2-2-2.4-3.2C84.2,90.3,84.5,88.2,84.5,85.3z"/>
		<path class="st1" d="M103.2,104c-2.6,0-4.3,0-6,0c-2,0.1-4.3-0.1-4-2.6c0.1-1,2.6-1.9,4.2-2.4c1.5-0.4,3.2-0.1,4.8-0.1
			c0.1-0.5,0.3-0.8,0.2-0.9c-1.2-1.5-3.4-3-1.2-5.1c2.2-2.1,3.6,0.2,4.9,1.6c7.8,7.8,7.9,6.1,0.1,13.9c-0.5,0.5-1,1.3-1.6,1.5
			c-1.1,0.3-2.7,0.6-3.3,0c-0.6-0.5-0.5-2.2-0.2-3.3C101.1,106,102,105.4,103.2,104z"/>
		<path class="st1" d="M70.8,99c3.1,0,5.2-0.3,7.3,0.1c1.1,0.2,1.9,1.5,2.9,2.2c-1,0.9-1.9,2.3-3,2.5c-2,0.4-4.2,0.1-6.3,0.1
			c0,0.5-0.1,0.8,0,1c1,1.5,3.6,2.8,1.3,5c-2.3,2.2-3.6-0.2-4.9-1.5c-8-8.1-8.2-5.9,0-14.1c0.4-0.4,0.8-1.2,1.3-1.3
			c1.2-0.2,2.5-0.1,3.7-0.2c-0.1,1.2,0,2.5-0.2,3.6C72.7,97.2,72,97.7,70.8,99z"/>
		<path class="st1" d="M84.5,117.3c0-2.6-0.3-4.8,0.1-7c0.2-1,1.5-1.8,2.4-2.7c0.9,0.9,2.3,1.7,2.5,2.7c0.4,2.1,0.1,4.4,0.1,6.8
			c2.4-0.7,3.8-4.4,6.1-1.4c1.9,2.6-0.8,4-2.3,5.5c-7.2,7.3-5.7,6.8-12.5,0c-1.4-1.4-4.6-2.6-2.6-5.4
			C80.6,112.6,82.2,116.4,84.5,117.3z"/>
	</g>
</g>
</svg>
