<?xml version="1.0" encoding="utf-8"?>
<!-- Generator: Adobe Illustrator 19.1.0, SVG Export Plug-In . SVG Version: 6.00 Build 0)  -->
<svg version="1.1" id="Layer_1" xmlns="http://www.w3.org/2000/svg" xmlns:xlink="http://www.w3.org/1999/xlink" x="0px" y="0px"
	 viewBox="0 0 250 250" style="enable-background:new 0 0 250 250;" xml:space="preserve">
<style type="text/css">
	.st0{fill:#6633CC;}
	.st1{fill:#FFFFFF;}
	.st2{fill:#A2B9DE;}
	.st3{fill:#FCFDFF;}
	.st4{fill:#FEFEFE;}
	.st5{display:none;}
	.st6{display:inline;}
	.st7{display:inline;clip-path:url(#SVGID_2_);}
	.st8{fill:#0179C7;}
	.st9{fill:#01A337;}
	.st10{fill:#00AB2C;}
	.st11{fill:#00B51B;}
	.st12{fill:#0199C2;}
	.st13{fill:#019B60;}
	.st14{fill:#0284CE;}
	.st15{fill:#69D502;}
	.st16{fill:#36CC02;}
	.st17{fill:#00BC0E;}
	.st18{fill:#02C602;}
	.st19{fill:#FAE21D;}
	.st20{fill:#FDC3C5;}
	.st21{fill:#CBEE21;}
	.st22{fill:#FE32AA;}
	.st23{fill:#FDBADD;}
	.st24{fill:#FE7A2D;}
	.st25{fill:#FDB627;}
	.st26{fill:#445FBE;}
	.st27{fill:#329EE1;}
	.st28{fill:#C238B5;}
	.st29{fill:#3479CA;}
	.st30{fill:#FE5D3B;}
	.st31{fill:#8044B2;}
	.st32{fill:#8DE82C;}
	.st33{fill:#019C94;}
	.st34{fill:#01379B;}
	.st35{fill:#0160B5;}
	.st36{fill:#018FD5;}
	.st37{fill:#008FC1;}
	.st38{fill:#025EB4;}
	.st39{fill:#02B718;}
	.st40{fill:#019A8E;}
	.st41{fill:#019E61;}
	.st42{fill:#019D6A;}
	.st43{fill:#00B520;}
	.st44{fill:#04C603;}
	.st45{fill:#02BB0D;}
	.st46{fill:#0099AA;}
	.st47{fill:#019BAA;}
	.st48{fill:#5BD301;}
	.st49{fill:#B2E400;}
	.st50{fill:#7ADA01;}
	.st51{fill:#C9E901;}
	.st52{fill:#FCE801;}
	.st53{fill:#FDD902;}
	.st54{fill:#ECED01;}
	.st55{fill:#FED300;}
	.st56{fill:#FE2115;}
	.st57{fill:#FD0045;}
	.st58{fill:#FD0430;}
	.st59{fill:#FE0054;}
	.st60{fill:#FE0D23;}
	.st61{fill:#FB300E;}
	.st62{fill:#FC111E;}
	.st63{fill:#A5E203;}
	.st64{fill:#FC007F;}
	.st65{fill:#E50186;}
	.st66{fill:#D80188;}
	.st67{fill:#FE006B;}
	.st68{fill:#FD4A01;}
	.st69{fill:#FD6D02;}
	.st70{fill:#FD6303;}
	.st71{fill:#FD5202;}
	.st72{fill:#FDA001;}
	.st73{fill:#FDBC03;}
	.st74{fill:#172690;}
	.st75{fill:#16238F;}
	.st76{fill:#9F0287;}
	.st77{fill:#6B0787;}
	.st78{fill:#024CA2;}
	.st79{fill:#4D0D85;}
	.st80{fill:#0344A3;}
	.st81{fill:#2B208C;}
	.st82{fill:#019590;}
	.st83{fill:#0180A1;}
	.st84{fill:#42CD01;}
	.st85{fill:#68BA03;}
	.st86{fill:#7ED902;}
	.st87{fill:#12AF36;}
	.st88{fill:#43D003;}
	.st89{fill:#A1E101;}
	.st90{fill:#B5E600;}
	.st91{fill:#DBEB02;}
	.st92{fill:#FC9600;}
	.st93{fill:#FDC302;}
	.st94{fill:#FCBE05;}
	.st95{fill:#F3730B;}
	.st96{fill:#F10839;}
	.st97{fill:#FE370A;}
	.st98{fill:#E40163;}
	.st99{fill:#DF007D;}
	.st100{fill:#BE0187;}
	.st101{fill:#FD8A02;}
	.st102{fill:#8D0486;}
	.st103{fill:#0373AD;}
	.st104{fill:#79B30B;}
	.st105{fill:#5FA93D;}
	.st106{fill:#8AAA18;}
	.st107{fill:#96E001;}
	.st108{fill:#B7E502;}
	.st109{fill:#ACE402;}
	.st110{fill:#FD6601;}
	.st111{fill:#E1781C;}
	.st112{fill:#C08E11;}
	.st113{fill:#D4017E;}
	.st114{fill:#C30283;}
	.st115{display:inline;clip-path:url(#SVGID_4_);fill:#52627B;}
	.st116{opacity:7.000000e-002;clip-path:url(#SVGID_6_);}
	.st117{opacity:7.000000e-002;clip-path:url(#SVGID_8_);}
	.st118{opacity:7.000000e-002;clip-path:url(#SVGID_10_);}
	.st119{display:inline;opacity:7.000000e-002;clip-path:url(#SVGID_12_);}
</style>
<g>
	<circle class="st0" cx="125" cy="125.2" r="102.8"/>
	<g>
		<path class="st3" d="M94.7,171.3c-1.2,0-2.6-0.2-4.5-0.6c-1.2-0.3-2.4-1.4-2.9-2.5c-0.7-1.4-1.2-3.1-1.3-4.6
			c-0.3-3.1-1.8-4.8-4.9-5.3c-0.3-0.1-0.7-0.1-1-0.1c-0.7,0-1.5,0.1-2.4,0.3c-0.4,0.1-0.7,0.3-1.2,0.6c-0.3,0.2-0.7,0.5-1.1,0.7
			c-0.5,0.2-1.1,0.6-1.6,0.9c-1.3,0.8-2.6,1.5-3.7,1.5c-0.4,0-0.7-0.1-0.9-0.2c-2.3-1.4-4.2-3.4-6.1-5.4c-0.4-0.5-0.9-0.9-1.3-1.4
			c-0.9-1,0.1-3,0.2-3.1l0.2-0.4c0.8-1.6,1.6-3.2,2.7-4.6c1.3-1.6,1.4-3.1,0.4-5.5c-0.8-1.9-1.9-2.8-4.2-3.4
			c-1.3-0.4-2.3-0.6-3.2-0.8c-4.7-1.1-4.8-1.6-4.8-7.2c0-0.8,0-1.7,0-2.7c0-3.1,1.3-4.8,4.2-5.2c0.5-0.1,0.9-0.2,1.4-0.4
			c0.7-0.2,1.4-0.5,2.2-0.5c2.4-0.1,3.7-1.3,4.7-4.2c0.6-1.7,0.5-2.7-0.2-3.9c-0.6-0.9-1.2-1.8-1.6-2.8c-0.2-0.5-0.5-1-0.7-1.5
			c-1-1.9-1.8-3.5-1-4.6c1.6-2.3,3.8-4.1,5.9-5.9c0.4-0.4,0.9-0.7,1.3-1.1c0.2-0.2,0.5-0.3,0.9-0.3c0.8,0,1.9,0.5,2.2,0.7
			c2.3,1.2,4.1,2.3,5.7,3.3c0.5,0.3,1,0.5,1.6,0.5c0.5,0,1.1-0.1,1.8-0.3c3.2-0.8,4.2-2.8,5-5.9c0.2-0.7,0.3-1.3,0.4-1.9
			c1-4.7,1.6-4.9,7.2-4.9l1.6,0c5,0,5.3,0.7,6.7,5.8c0,0.2,0.1,0.3,0.2,0.5c0.2,0.5,0.3,1.1,0.3,1.7c-0.1,2.8,1.6,3.6,4.2,4.5
			c0.7,0.3,1.4,0.5,2.1,0.9c0.3-0.1,0.9-0.4,1.1-0.5l0.6-0.3c1.8-1,3.6-2,5.2-3.1c0.8-0.5,1.5-0.8,2.2-0.8c1.2,0,2.2,0.7,2.9,1.3
			c7,6,7,6.6,2.2,14.5c-0.8,1.3-0.9,3.2-0.2,4.9c0.7,1.7,2,2.9,3.5,3.3c0.2,0,0.4,0.1,0.5,0.1c0.4,0.1,0.8,0.2,1.2,0.3
			c0.6,0.2,1.3,0.4,2,0.5c2.1,0.5,3.9,1,4.3,2.3c0.7,2.6,0.5,5.4,0.4,8.1c0,0.7-0.1,1.5-0.1,2.2c0,1.1-1.4,1.7-2,1.9
			c-1.3,0.5-2.4,0.9-3.7,1.1c-4.1,0.5-5.9,2-6.3,5.1c-0.1,1-0.2,2.2,0.1,3c0.6,1.3,1.3,2.5,2.1,3.8c0.4,0.6,0.8,1.3,1.2,1.9
			c0.2,0.4,0.4,0.9,0.6,1.3c0.1,0.2,0.2,0.5,0.3,0.7l-0.1,1c-0.2,0.2-0.4,0.5-0.6,0.7c-0.4,0.6-0.9,1.1-1.4,1.7
			c-1,1-1.8,1.8-2.5,2.5c-2,2-2.9,2.9-4.2,2.9c-1,0-2-0.6-3.7-1.7c-0.8-0.5-1.9-1.2-3.2-1.9c-0.9-0.5-2-0.8-3-0.8
			c-2.7,0-4.9,1.8-5.5,4.4l-0.2,0.8C101,168.5,99.4,171.3,94.7,171.3z M96.8,165.6c0.1-0.5,0.3-1.1,0.4-1.6c0.5-1.9,0.9-3.7,1.5-5.5
			c0.3-1,1.1-2.3,2.2-2.9c3.5-1.8,5.5-2.8,7.4-2.8c2.1,0,3.9,1.1,7.5,3.3c0.2,0.1,0.3,0.2,0.4,0.2c0.6,0.4,1.2,0.8,1.6,0.8
			c0.1,0,0.5,0,1.1-0.8c0.4-0.5,0.8-0.9,1.2-1.3c1.3-1.2,1.8-1.7,0.5-3.2c-4-4.5-4.4-9.2-1.3-14.3c0.9-1.5,1.9-3,4.2-3.5
			c1.7-0.3,3.4-0.8,5-1.2c0.5-0.1,1-0.3,1.5-0.4V127c-0.5-0.1-1-0.2-1.6-0.4c-1.9-0.4-3.7-0.9-5.5-1.4c-1-0.3-2.5-1.1-3.1-2.3
			c-3.8-7.2-3.8-7.6,0.3-14.7l0.1-0.2c0.1-0.1,0.2-0.3,0.3-0.5c1.2-1.4,0.7-1.8-0.5-2.9c-0.4-0.4-0.9-0.8-1.3-1.3
			c-0.6-0.9-1-0.9-1.2-0.9c-0.4,0-0.9,0.3-1.4,0.7c-2.8,2.4-5.4,3.5-8,3.5c-2,0-4.1-0.7-6-2.1c-2.7-0.4-3.4-2.4-3.8-3.9
			c-0.4-1.7-0.9-3.5-1.3-5.2c-0.1-0.5-0.3-1-0.4-1.5h-5.4c-0.1,0.3-0.2,0.7-0.2,1c-0.3,1.3-0.6,2.7-1,4c-0.1,0.3-0.2,0.6-0.2,1
			c-0.3,1.3-0.6,2.7-1.7,3.4c-2.9,1.8-5.7,3.1-8.4,3.8c-0.2,0-0.4,0.1-0.6,0.1c-1.1,0-2.3-0.8-3.4-1.5c-0.3-0.2-0.6-0.4-0.9-0.6
			c-2.3-1.3-3.6-2.1-4.5-2.1c-0.9,0-1.8,1-3.8,3.3c0,0,0,0.1,0,0.1c0.2,0.4,0.4,0.7,0.6,1c4.4,5.2,4.8,10.1,1.3,14.9
			c-1.2,1.6-2.3,2.6-3.5,3.1c-1.8,0.7-3.6,1.1-5.4,1.5c-0.5,0.1-1,0.2-1.5,0.4v5.4c0.5,0.1,1,0.3,1.5,0.4c1.9,0.5,3.7,0.9,5.5,1.5
			c1,0.3,2.3,1,2.9,2.1c3.9,6.7,3.9,8.1-0.1,14.8c-0.1,0.2-0.3,0.4-0.4,0.6c-1.3,1.4-0.8,1.9,0.5,3.1c0.4,0.4,0.9,0.8,1.2,1.3
			c0.6,0.9,1.1,0.9,1.2,0.9c0.4,0,0.9-0.3,1.6-0.8c2.8-2.3,5.3-3.4,7.8-3.4c1.9,0,3.9,0.7,5.7,2.1c0.2,0,0.5,0.1,0.8,0.4
			c0.3,0.3,0.6,0.6,0.9,0.9c0.9,0.8,1.8,1.6,2.2,2.7c0.7,1.8,1.1,3.6,1.6,5.3c0.1,0.5,0.2,0.9,0.3,1.4H96.8z"/>
		<path class="st3" d="M126.1,154c-0.6,0.8-1.2,1.6-2,2.3c-7.1,6.9-4.4,6.3-12.5,1.7c-4-2.2-8.9-0.3-9.9,4.2
			c-0.1,0.3-0.1,0.5-0.2,0.8c-1.8,7-3.9,8.3-11.1,6.8c-0.9-0.2-1.9-1.1-2.3-2c-0.7-1.3-1.1-2.8-1.2-4.3c-0.3-3.6-2.3-5.5-5.7-6.2
			c-1.2-0.2-2.6,0-3.8,0.2c-0.9,0.2-1.6,0.9-2.5,1.3c-1.8,0.8-4.4,2.8-5.4,2.2c-2.7-1.6-4.9-4.3-7.1-6.7c-0.3-0.3,0-1.4,0.3-2.1
			c0.8-1.7,1.7-3.4,2.8-4.8c1.7-2.1,1.5-4,0.5-6.4c-1-2.3-2.4-3.3-4.8-4c-8.2-2.2-7.2-0.2-7.3-9.8c0-2.4,0.9-3.9,3.4-4.2
			c1.2-0.2,2.3-0.9,3.5-0.9c3.2-0.2,4.6-2,5.6-4.9c0.6-1.8,0.7-3.2-0.4-4.7c-0.6-0.9-1.1-1.7-1.5-2.7c-0.7-1.7-2.5-4.3-1.9-5.1
			c1.8-2.6,4.5-4.7,7-6.8c0.3-0.3,1.4,0.2,2,0.5c1.9,1,3.8,2.1,5.6,3.2c1.4,0.9,2.6,0.7,4.1,0.3c3.6-0.9,4.9-3.3,5.6-6.6
			c1.4-6.3,0.5-6,7.4-6c5.2,0,5.2,0,6.6,5.1c0.2,0.6,0.5,1.3,0.4,1.9c-0.1,4.8,4.1,4.8,7,6.3c0.4,0.2,1.4-0.3,2-0.7
			c2-1.1,3.9-2.2,5.8-3.4c1.6-1.1,2.7-0.6,3.9,0.5c6.6,5.7,6.6,5.7,2,13.4c-2,3.4,0.1,8.6,3.9,9.5c0.5,0.1,1.1,0.2,1.6,0.4
			c2,0.7,5.4,1,5.7,2.2c0.8,3.2,0.4,6.7,0.3,10c0,0.4-0.9,0.9-1.4,1.1c-1.1,0.4-2.3,0.9-3.5,1c-3.7,0.5-6.6,1.8-7.1,5.9
			c-0.2,1.2-0.2,2.5,0.2,3.5c0.9,2,2.2,3.9,3.3,5.8C125.5,152.6,125.7,153.2,126.1,154z M65.5,106c0.4,0.7,0.6,1.3,1,1.8
			c3.6,4.3,4.9,8.8,1.3,13.7c-0.8,1.1-1.9,2.3-3.1,2.8c-2.4,0.9-5,1.4-7.5,2.1c0,2.4,0,4.6,0,6.9c2.7,0.7,5.2,1.3,7.7,2
			c0.9,0.3,2,0.9,2.4,1.6c3.7,6.5,3.7,7.5-0.1,13.8c-0.1,0.2-0.2,0.3-0.3,0.5c-2.6,2.8,0.4,3.9,1.6,5.6c1.4,2,2.8,1.4,4.2,0.2
			c3.9-3.2,8-4.6,12.5-1.2c0.1,0.1,0.4,0.1,0.5,0.2c1,1.1,2.4,2,2.9,3.3c1,2.4,1.4,4.9,2,7.3c2.5,0,4.7,0,6.9,0
			c0.7-2.7,1.2-5.3,2-7.8c0.3-0.9,0.9-1.9,1.7-2.3c7.2-3.7,7.2-3.7,14.1,0.5c0.1,0,0.2,0.1,0.2,0.2c1.4,1,2.7,1.7,4-0.2
			c1.3-1.7,4.2-2.8,1.7-5.7c-3.6-4.1-4.2-8.3-1.2-13.2c1-1.6,1.7-2.7,3.5-3.1c2.4-0.5,4.8-1.2,7.3-1.8c0-2.4,0-4.7,0-7
			c-2.7-0.7-5.2-1.2-7.7-2c-1-0.3-2.1-1-2.5-1.9c-3.7-7-3.6-7,0.4-13.9c0.1-0.2,0.2-0.3,0.3-0.5c2.4-2.8-0.6-3.8-1.7-5.4
			c-1.3-1.8-2.6-1.5-4-0.3c-4,3.4-8.3,4.7-13,1.2c-0.1-0.1-0.2-0.1-0.3-0.1c-1.9-0.2-2.6-1.5-3-3.2c-0.6-2.5-1.3-5-1.9-7.5
			c-2.4,0-4.6,0-6.9,0c-0.5,1.9-0.9,3.8-1.4,5.7c-0.4,1.3-0.6,3.2-1.5,3.8c-2.5,1.6-5.3,2.9-8.1,3.6c-1.1,0.3-2.8-1.1-4.2-1.9
			C69.9,100.8,69.9,100.8,65.5,106z"/>
		<path class="st3" d="M151.4,193.2c-1,0-2.2-0.2-3.5-0.7c-1.2-0.4-1.8-1.7-2.4-3c-0.2-0.4-0.4-0.9-0.6-1.3
			c-0.3-0.4-0.5-0.9-0.7-1.3c-0.4-0.8-0.7-1.5-1.3-2c-0.5-0.4-1-0.7-1.5-0.7c-0.6,0-1.2,0.2-1.8,0.7c-0.9,0.7-2,1.3-2.9,1.7
			c-0.4,0.2-0.7,0.4-1.1,0.6l-0.5,0.1c-2.1-0.1-3.9-2-5-3.8c-1.2-2.1-1.5-4.2-0.8-5.6c0.2-0.3,0.4-0.7,0.6-1
			c0.2-0.3,0.4-0.6,0.5-0.9c0.5-0.8,0.9-2.1,0.5-3.1c-0.4-0.9-1.3-1.5-2.7-1.9c-2.7-0.7-4.6-2-5.4-3.7c-0.8-1.6-0.7-3.6,0.2-5.9
			c0.6-1.5,2.6-2.2,4.6-2.9c0.4-0.1,0.8-0.3,1.2-0.4c1-0.4,1.7-1.1,2-1.9c0.3-0.7,0.3-1.5-0.1-2.3l-0.1-0.2c-0.3-0.6-0.6-1.3-1-1.7
			c-2.7-3.1-0.6-5.2,0.8-6.8c0.2-0.2,0.4-0.4,0.6-0.6c1.1-1.2,2.4-2.4,4-2.4c1,0,2,0.4,3,1.3c0.1,0.1,0.3,0.2,0.4,0.2
			c0.1,0.1,0.3,0.1,0.4,0.2c1.1,0.6,2.1,1,2.9,1c0.5,0,2,0,2.8-3.2c0.9-3.4,3.4-5.6,6.6-5.6c1.2,0,2.4,0.3,3.6,0.9
			c0.8,0.4,1.3,1.3,1.4,1.7c0.4,0.9,0.7,1.9,0.9,2.8c0.8,3,1.9,3.4,2.8,3.4c0.8,0,1.8-0.4,3-1l0.2-0.1c1.2-0.7,2.6-1.5,3.8-1.5
			c0.4,0,0.7,0.1,0.9,0.2c2.3,1.3,4.2,3.2,5.3,5.2c0.7,1.3-0.6,3.7-1.9,5.4c-1.1,1.4-1.1,2.7-0.1,3.9c0.7,0.8,2.1,1.2,3.3,1.6
			c2.1,0.6,3.9,2.5,4.6,4.8c0.7,2,0.4,4-0.8,5.5c-0.9,1.2-2.6,1.6-4.2,2c-0.4,0.1-0.7,0.2-1.1,0.3c-1.1,0.3-2,1-2.4,2
			c-0.3,0.8-0.3,1.8,0.2,2.6c2.9,5.4,2.9,5.9-1.4,10.1l-0.1,0.1c-0.7,0.7-1.6,1.4-2.7,1.4c-0.7,0-1.4-0.3-2.1-0.8
			c-0.5-0.4-1-0.6-1.6-1c-0.2-0.1-0.5-0.3-0.7-0.4c-0.8-0.4-1.5-0.7-2.2-0.7c-1.4,0-2.4,1-2.9,2.8
			C156.6,189.7,155.3,193.2,151.4,193.2z M141.4,179.2c0.3,0,0.5,0,0.7,0.1c3.7,1,7.1,2.5,7.3,7.2c0,1,0.3,1.4,1.9,1.6
			c0.1,0,0.2,0,0.3,0c0.5,0,0.5,0,0.8-1c0.1-0.3,0.2-0.7,0.3-1c0.2-0.4,0.4-1,0.5-1.5c0.4-1.3,0.8-2.6,1.8-3.3
			c1.4-0.9,3.5-2.2,5.8-2.2c1.7,0,3.3,0.7,4.7,2c0.3,0.2,0.6,0.4,1.1,0.6c0,0,0.1,0,0.1,0l1.7-1.5c-0.2-0.3-0.3-0.5-0.5-0.8
			c-0.7-1.1-1.3-2.1-1.8-3.2c-0.4-0.9-0.7-2.2-0.4-3.3c0.9-2.8,2.4-6.9,7.6-7c0.4,0,0.9-0.1,1.1-0.4c0.2-0.3,0.1-1.1-0.2-1.9
			c-0.1-0.1-0.4-0.4-1.9-0.8c-3.1-0.9-5.2-2.5-6.1-4.8c-0.9-2.2-0.5-4.8,1.1-7.5c0.3-0.5,1-1.7,1-1.7l-1.5-1.7l-0.9,0.5
			c-1.1,0.6-2.1,1.2-3.1,1.7c-0.6,0.3-1.3,0.6-1.9,0.6c-0.2,0-0.4,0-0.6-0.1c-0.5-0.2-1-0.4-1.5-0.6c-2.7-1-6-2.1-6.1-6.7
			c0-1.4-0.5-1.7-1.4-1.7l-0.1,0c-1.1,0-1.2,0.3-1.5,1.5l-0.3,1c-0.4,1.7-1,3.5-2.3,4.3c-1.8,1.1-3.8,2.1-5.8,2.1
			c-1.7,0-3.2-0.7-4.6-2.1c-0.4-0.4-0.8-0.6-1.2-0.6c-0.1,0-0.5,0-0.8,0.7c-0.1,0.3-0.3,0.9,0.2,2.5c0.1,0.5,0.5,1.1,0.8,1.7
			c0.6,1.1,1.2,2.3,0.9,3.5c-0.7,3.2-2.3,7.5-7.7,7.5c0,0,0,0,0,0c-0.6,0-1,0-1.1,1.5c0,1.1,0.3,1.2,1.6,1.4c0.3,0.1,0.7,0.1,1,0.2
			c2.7,0.7,4.8,2.5,5.7,4.9c0.8,2.2,0.5,4.6-0.8,6.7c-0.7,1.1-1,1.9-0.8,2.5c0.1,0.5,0.5,0.9,1.3,1.4c0.2-0.1,0.4-0.3,0.7-0.4
			c0.9-0.5,1.9-1.1,2.9-1.6C139.8,179.4,140.6,179.2,141.4,179.2z"/>
		<path class="st3" d="M135.1,186.4c-3-0.1-6.2-5.7-5-8c0.4-0.7,0.8-1.3,1.1-1.9c1.7-3,0.6-5.5-2.8-6.4c-4.6-1.2-6.4-3.9-4.6-8.3
			c0.6-1.4,3.4-2.1,5.2-2.8c2.3-0.9,3.5-3.2,2.5-5.5c-0.4-0.8-0.7-1.6-1.2-2.2c-2.4-2.7-0.3-4.3,1.4-6.1c1.7-1.9,3.4-3,5.7-1
			c0.3,0.2,0.7,0.4,1,0.5c3.7,2.1,6,1.1,7-2.8c1.1-4.2,4.9-6,8.8-4.1c0.4,0.2,0.8,0.7,1,1.2c0.4,0.9,0.6,1.8,0.8,2.7
			c1.1,4.3,3.3,5.1,7.2,2.9c1.2-0.7,3.2-1.8,4-1.4c2,1.1,3.9,2.9,4.9,4.8c0.5,0.9-0.9,3.1-1.8,4.4c-1.3,1.8-1.3,3.6,0,5
			c0.9,1,2.4,1.5,3.7,1.9c3.5,1,5.6,5.9,3.4,8.8c-0.9,1.2-3.1,1.4-4.8,1.9c-2.8,0.8-4.1,3.5-2.8,6c2.8,5.1,2.7,5-1.4,9.1
			c-1.2,1.2-2.2,1.6-3.6,0.5c-0.7-0.6-1.6-1-2.4-1.4c-3-1.7-5.6-0.6-6.5,2.7c-1.2,4.9-3.4,6.3-8.2,4.7c-1.1-0.4-1.7-2.5-2.5-3.9
			c-0.7-1.2-1.1-2.7-2.1-3.6c-1.3-1.3-2.9-1.2-4.5,0C137.8,185.1,136.3,185.7,135.1,186.4z M166.8,146.1c-1.9,1.1-3.2,1.9-4.6,2.6
			c-0.6,0.3-1.3,0.7-1.8,0.5c-3.1-1.3-6.9-1.8-7-6.4c0-1.3-0.4-2.7-2.5-2.6c-2,0.1-2.1,1.2-2.5,2.6c-0.4,1.6-0.9,3.7-2,4.3
			c-2.9,1.7-6.1,3.4-9.3,0.1c-1.1-1.1-2.7-1.3-3.5,0.3c-0.4,0.9-0.2,2.1,0.1,3.1c0.5,1.6,2,3.3,1.7,4.7c-0.8,3.5-2.3,6.7-6.8,6.7
			c-1.5,0-1.9,0.9-2,2.4c-0.1,2.5,1.8,2.2,3.2,2.6c4.8,1.3,7,6.1,4.4,10.2c-1.7,2.6-1.4,4.1,1.2,5.5c1.3-0.7,2.5-1.6,3.9-2.2
			c0.8-0.4,1.8-0.7,2.6-0.5c3.3,0.9,6.4,2.2,6.6,6.4c0.1,1.7,1.1,2.3,2.7,2.5c2.1,0.2,1.8-1.4,2.3-2.5c0.7-1.5,0.9-3.6,2-4.4
			c2.9-1.9,6.1-3.3,9.4-0.3c0.5,0.5,1.3,0.7,1.9,1.1c0.9-0.9,1.8-1.7,2.7-2.5c-1-1.7-1.9-3.1-2.6-4.6c-0.4-0.8-0.6-1.8-0.3-2.6
			c1.1-3.2,2.4-6.3,6.7-6.3c2.5,0,2.5-2,1.8-3.6c-0.3-0.7-1.6-1.1-2.5-1.3c-5.6-1.6-7.5-5.9-4.5-10.9c0.4-0.7,0.8-1.5,1.3-2.3
			C168.5,147.9,167.7,147.1,166.8,146.1z"/>
		<path class="st3" d="M150.1,123.1c-2.9,0-4.6-1.3-5.3-4.2c-0.9-3.9-2-4.4-2.9-4.4c-0.9,0-2,0.5-3.7,1.5c-1.2,0.7-2.2,1.1-3.2,1.1
			c-1.7,0-3-1.1-4-2.2c-1.8-1.9-4.1-4.2-1.3-7.7c0.8-0.9,1.3-2.2,1.3-3.2c0-1.1-0.4-2.6-3.1-3.1c-2.3-0.5-4-1.7-4.9-3.5
			c-1-1.9-0.9-4.1,0.1-6.3c0.4-0.9,1.4-1.5,1.9-1.6c0.8-0.4,1.7-0.6,2.5-0.8l0.3-0.1c1.7-0.5,2.8-1.1,3.2-2c0.4-0.9,0.1-2.1-0.8-3.6
			c-1.2-2-1.4-4.4-0.7-6.3c0.7-1.9,2.3-3.4,4.4-4.1c0.2-0.1,0.5-0.1,0.7-0.1c0.8,0,1.6,0.4,2.4,0.8c0.4,0.2,0.8,0.4,1.2,0.5
			c0.4,0.1,0.9,0.3,1.3,0.5c1,0.4,1.9,0.7,2.7,0.7l0.2,0c1.1-0.1,1.9-0.6,2.4-3.1c0.6-3.2,3.3-5.5,6.5-5.5c1.2,0,2.4,0.3,3.5,0.9
			c1.1,0.6,1.6,2,2,3.3c1.2,4,2,4.7,3,4.7c1.1,0,2.9-0.9,4.4-1.8c0.3-0.2,1.8-1,3-1c0.4,0,0.8,0.1,1.1,0.3c1.5,1,2.8,2.3,4.1,3.5
			c0.5,0.5,0.9,0.9,1.4,1.4l0.2,1.2l-2.7,4.7c-0.7,1.2-0.8,2.3-0.5,3.1c0.4,0.9,1.3,1.6,2.7,1.9c2.8,0.7,4.5,1.8,5.4,3.4
			c0.8,1.6,0.8,3.6-0.1,6.1c-0.4,1.2-1.7,1.7-3,2.3c-0.5,0.2-1,0.4-1.3,0.6c-0.4,0.2-0.8,0.4-1.2,0.7c-0.8,0.4-1.6,0.8-2.1,1.4
			c-1,1-0.7,1.7,0.3,3.4c0.1,0.3,0.3,0.5,0.4,0.8c0.1,0.2,0.2,0.4,0.4,0.7c0.9,1.6,1.7,3.1,1,4.2c-1.1,1.8-2.8,3.1-4.4,4.5l-0.8,0.6
			c-0.2,0.2-0.6,0.3-0.9,0.3c-0.6,0-1.4-0.3-1.8-0.5c-0.7-0.3-1.3-0.7-1.9-1c-0.4-0.2-0.7-0.4-1.1-0.6c-0.8-0.4-1.5-0.6-2.1-0.6
			c-1.9,0-2.6,1.8-2.8,2.8c-1.3,5.2-1.7,5.5-6.7,5.6L150.1,123.1z M141.1,109.3c0.2,0,0.4,0,0.6,0.1c3.4,1,7.5,2.2,7.8,7.5
			c0,1,0.8,1.7,1.5,1.7c0.2,0,0.5-0.1,0.7-0.2c0.4-0.3,0.7-1.4,0.9-2.2l0.1-0.5c1-3.6,3.9-6.1,7.3-6.1c1.4,0,2.8,0.4,4.1,1.3
			c1,0.6,1.8,1,2.4,1c0,0,0,0,0,0c0.3,0,0.9,0,1.7-1.3c-0.1-0.2-0.3-0.4-0.4-0.7c-0.6-1-1.2-1.9-1.7-3c-0.4-0.8-0.8-2-0.5-3
			c0.7-2.7,1.9-7.1,7.2-7.4c1.1-0.1,1.6-0.4,1.7-2c0-0.7-0.1-0.7-0.9-0.9c-0.4-0.1-0.8-0.2-1.2-0.4c-0.4-0.2-1-0.4-1.5-0.6
			c-1.2-0.4-2.5-0.8-3.2-1.8c-1-1.5-4.1-6.1,0-10.5c0.2-0.2,0.4-0.6,0.6-1c0,0,0,0,0-0.1l-1.6-1.5c-0.3,0.2-0.5,0.3-0.8,0.5
			c-1,0.6-2,1.2-3,1.6c-0.7,0.3-1.5,0.7-2.3,0.7c-0.3,0-0.6-0.1-0.8-0.2c-0.5-0.2-1-0.4-1.5-0.6c-2.5-1-5.7-2.3-5.7-6.7
			c0-0.7-0.1-1.2-0.3-1.4c-0.2-0.2-0.5-0.3-0.9-0.3c-1.3,0-1.6,0.5-2,2l-0.1,0.3c-0.4,1.6-0.9,3.7-2.2,4.4l-0.3,0.2
			c-1.7,1-3.6,2-5.7,2c-1.6,0-3-0.6-4.3-1.9c-0.3-0.3-0.7-0.5-1.2-0.7c-0.1,0-0.1-0.1-0.2-0.1c-0.8,0.6-1.2,1.1-1.3,1.6
			c-0.1,0.6,0.2,1.3,0.9,2.2c0.7,0.9,1.9,3,1.4,4.6c-0.9,3.1-2.2,7.3-7.5,7.4c-0.4,0-0.8,0.1-1,0.3c-0.3,0.3-0.3,0.9-0.3,1.3
			c0,1,0.3,1.1,1.5,1.4c0.3,0.1,0.6,0.2,0.9,0.2c1.4,0.3,3,0.7,4.1,1.8c2.5,2.5,2.8,6.6,0.8,10.2c-0.1,0.2-0.3,0.4-0.4,0.7
			c-0.6,1-0.9,1.3,0,2.1c0.4,0.4,0.7,0.6,0.9,0.6c0.3,0,0.7-0.3,1.2-0.5c0.3-0.2,0.6-0.4,1-0.5c0.3-0.2,0.7-0.4,1.1-0.6
			C139.3,109.8,140.2,109.3,141.1,109.3z"/>
		<path class="st3" d="M173.1,78.4c-1.1,1.9-1.9,3.3-2.7,4.7c-1.7,3-0.6,5.6,2.8,6.4c4.8,1.2,6.3,3.6,4.6,8.2
			c-0.4,1.1-2.6,1.7-3.9,2.4c-1.2,0.7-2.6,1.2-3.6,2.1c-1.8,1.8-0.4,3.5,0.5,5.3c0.7,1.3,1.9,3.2,1.4,3.9c-1.2,1.9-3.2,3.4-4.9,4.9
			c-0.3,0.3-1.2-0.1-1.8-0.3c-1-0.5-2-1.1-3-1.6c-3-1.6-5.5-0.5-6.3,2.8c-1.2,4.9-1.2,4.8-6.1,4.9c-2.6,0-3.9-0.9-4.5-3.5
			c-1.4-5.5-3.3-6.4-7.9-3.4c-2.6,1.6-4.1,1-6-0.9c-1.9-2-3.5-3.7-1.2-6.4c0.8-1,1.5-2.5,1.5-3.8c-0.1-2.2-1.5-3.5-3.8-4
			c-4.2-0.9-6-4.7-4.2-8.6c0.2-0.5,0.8-0.9,1.4-1.2c0.8-0.4,1.8-0.6,2.7-0.8c4.1-1.1,5.1-3.4,2.9-7c-2.1-3.6-0.8-7.7,3.2-9
			c1-0.3,2.5,0.8,3.7,1.2c1.5,0.5,3,1.3,4.5,1.2c2.1-0.1,2.9-1.9,3.3-3.9c0.8-4,4.9-5.9,8.6-3.9c0.8,0.4,1.2,1.8,1.5,2.8
			c1.8,6.2,3.1,6.7,8.8,3.5c0.9-0.5,2.5-1.1,3.2-0.7C169.7,74.9,171.4,76.8,173.1,78.4z M169.2,110.4c-0.7-1.3-1.6-2.6-2.3-4
			c-0.3-0.7-0.7-1.6-0.5-2.3c0.9-3.3,2.1-6.5,6.3-6.7c1.9-0.1,2.5-1.1,2.6-2.9c0.1-2.1-1.6-1.6-2.7-2.2c-1.4-0.7-3.5-0.9-4.3-2.1
			c-2-2.9-3.1-6.2-0.1-9.3c0.5-0.5,0.7-1.2,1.1-1.9c-1-0.9-1.8-1.7-2.6-2.5c-1.6,0.9-3,1.7-4.4,2.4c-0.7,0.3-1.8,0.8-2.3,0.6
			c-2.9-1.4-6.7-1.9-6.6-6.5c0-1.1-0.2-2.6-2.2-2.6c-2,0-2.4,1.1-2.8,2.8c-0.4,1.5-0.8,3.6-1.9,4.2c-2.8,1.6-6,3.5-9.2,0.4
			c-0.6-0.6-1.4-0.8-2.1-1.2c-2.5,1.5-3,3.1-1.2,5.5c0.8,1,1.5,2.7,1.2,3.7c-1,3.3-2.1,6.7-6.6,6.7c-1.4,0-2.3,0.8-2.2,2.6
			c0.1,1.7,0.9,1.9,2.2,2.3c1.6,0.4,3.5,0.7,4.6,1.7c2.3,2.3,2.3,6.1,0.6,9.1c-0.7,1.2-1.9,2.3-0.3,3.9c1.7,1.8,2.8,0.3,4.2-0.3
			c1.2-0.5,2.7-1.8,3.7-1.5c3.3,1,6.9,2,7.1,6.6c0.1,2.1,2.2,3.2,3.7,2.1c0.8-0.6,1.1-2.1,1.4-3.2c1.2-4.7,6-6.8,10.1-4.2
			C166.1,113.2,167.8,113.3,169.2,110.4z"/>
		<path class="st3" d="M94,149c-10.8,0-19.2-8.5-19.2-19.4c0-10.5,8.6-19.1,19.2-19.1c5.2,0,10.1,2,13.7,5.6
			c3.6,3.6,5.6,8.5,5.6,13.6C113.3,140.5,104.9,149,94,149L94,149z M94.1,115.2c-7.9,0-14.4,6.4-14.5,14.4
			c-0.1,3.8,1.4,7.5,4.2,10.3c2.7,2.8,6.3,4.4,10.1,4.4l0.2,0c7.9,0,14.6-6.6,14.6-14.5c0-7.8-6.6-14.5-14.4-14.6H94.1z"/>
		<path class="st3" d="M112.4,129.7c0,10.3-8.1,18.3-18.4,18.3c-10.2,0-18.3-8.2-18.3-18.4c0-10,8.2-18.2,18.3-18.2
			C104.2,111.4,112.4,119.5,112.4,129.7z M109.6,129.8c0-8.3-7-15.5-15.4-15.5c-8.4-0.1-15.4,6.8-15.6,15.3
			c-0.1,8.4,6.8,15.6,15.2,15.7C102.3,145.3,109.5,138.2,109.6,129.8z"/>
		<path class="st3" d="M150.9,178.3c-7.5,0-13.6-6.2-13.6-13.8c0-7.4,6-13.5,13.3-13.5c3.9,0,7.4,1.4,10,4c2.6,2.6,4,6,3.9,9.8
			c0,7.2-6.2,13.4-13.5,13.5L150.9,178.3z M150.8,155.8c-4.8,0-8.7,3.9-8.7,8.7c0,2.4,1,4.7,2.7,6.5c1.7,1.7,3.8,2.6,6,2.6
			c2.4,0,4.8-1.1,6.5-2.8c1.7-1.7,2.6-3.9,2.5-6.1C159.8,159.7,155.8,155.8,150.8,155.8v-0.9V155.8z"/>
		<path class="st3" d="M138.3,164.5c0-6.9,5.5-12.5,12.4-12.6c7.4,0,13.1,5.6,13,12.9c0,6.7-5.8,12.4-12.6,12.5
			C144,177.4,138.3,171.7,138.3,164.5z M150.8,154.8c-5.3,0-9.6,4.3-9.7,9.6c0,5.4,4.5,10,9.7,10c5.4-0.1,10-4.7,9.9-9.9
			C160.7,159.2,156.3,154.9,150.8,154.8z"/>
		<path class="st3" d="M150.8,108.5c-3.7,0-7.1-1.4-9.6-3.9c-2.5-2.5-3.9-6-3.9-9.7c0-7.5,6.1-13.6,13.5-13.6c3.7,0,7.2,1.5,9.8,4.2
			c2.6,2.6,4,6.1,4,9.7C164.5,102.4,158.3,108.5,150.8,108.5L150.8,108.5z M150.7,85.9c-2.1,0-4.3,0.9-5.9,2.6
			c-1.7,1.7-2.6,4-2.6,6.3c0.1,5.3,3.7,8.8,9,8.8c4.6,0,8.7-4,8.7-8.6C159.9,90.1,155.8,86,150.7,85.9V85V85.9z"/>
		<path class="st3" d="M138.3,94.8c0-7,5.7-12.7,12.6-12.7c7,0,12.9,5.9,12.8,12.9c-0.1,6.9-5.8,12.5-12.9,12.5
			C143.7,107.5,138.2,102,138.3,94.8z M151.2,104.6c5.1,0,9.5-4.4,9.5-9.5c0-5.5-4.5-10-10-10.1c-5.1,0-9.6,4.6-9.5,9.8
			C141.3,100.7,145.3,104.6,151.2,104.6z"/>
	</g>
</g>
</svg>
