<?xml version="1.0" encoding="utf-8"?>
<!-- Generator: Adobe Illustrator 19.1.0, SVG Export Plug-In . SVG Version: 6.00 Build 0)  -->
<svg version="1.1" id="Layer_1" xmlns="http://www.w3.org/2000/svg" xmlns:xlink="http://www.w3.org/1999/xlink" x="0px" y="0px"
	 viewBox="0 0 250 250" style="enable-background:new 0 0 250 250;" xml:space="preserve">
<style type="text/css">
	.st0{fill:#6633CC;}
	.st1{fill:#FFFFFF;}
	.st2{fill:#A2B9DE;}
	.st3{fill:#FCFDFF;}
	.st4{fill:#FEFEFE;}
	.st5{display:none;}
	.st6{display:inline;}
	.st7{display:inline;clip-path:url(#SVGID_2_);}
	.st8{fill:#0179C7;}
	.st9{fill:#01A337;}
	.st10{fill:#00AB2C;}
	.st11{fill:#00B51B;}
	.st12{fill:#0199C2;}
	.st13{fill:#019B60;}
	.st14{fill:#0284CE;}
	.st15{fill:#69D502;}
	.st16{fill:#36CC02;}
	.st17{fill:#00BC0E;}
	.st18{fill:#02C602;}
	.st19{fill:#FAE21D;}
	.st20{fill:#FDC3C5;}
	.st21{fill:#CBEE21;}
	.st22{fill:#FE32AA;}
	.st23{fill:#FDBADD;}
	.st24{fill:#FE7A2D;}
	.st25{fill:#FDB627;}
	.st26{fill:#445FBE;}
	.st27{fill:#329EE1;}
	.st28{fill:#C238B5;}
	.st29{fill:#3479CA;}
	.st30{fill:#FE5D3B;}
	.st31{fill:#8044B2;}
	.st32{fill:#8DE82C;}
	.st33{fill:#019C94;}
	.st34{fill:#01379B;}
	.st35{fill:#0160B5;}
	.st36{fill:#018FD5;}
	.st37{fill:#008FC1;}
	.st38{fill:#025EB4;}
	.st39{fill:#02B718;}
	.st40{fill:#019A8E;}
	.st41{fill:#019E61;}
	.st42{fill:#019D6A;}
	.st43{fill:#00B520;}
	.st44{fill:#04C603;}
	.st45{fill:#02BB0D;}
	.st46{fill:#0099AA;}
	.st47{fill:#019BAA;}
	.st48{fill:#5BD301;}
	.st49{fill:#B2E400;}
	.st50{fill:#7ADA01;}
	.st51{fill:#C9E901;}
	.st52{fill:#FCE801;}
	.st53{fill:#FDD902;}
	.st54{fill:#ECED01;}
	.st55{fill:#FED300;}
	.st56{fill:#FE2115;}
	.st57{fill:#FD0045;}
	.st58{fill:#FD0430;}
	.st59{fill:#FE0054;}
	.st60{fill:#FE0D23;}
	.st61{fill:#FB300E;}
	.st62{fill:#FC111E;}
	.st63{fill:#A5E203;}
	.st64{fill:#FC007F;}
	.st65{fill:#E50186;}
	.st66{fill:#D80188;}
	.st67{fill:#FE006B;}
	.st68{fill:#FD4A01;}
	.st69{fill:#FD6D02;}
	.st70{fill:#FD6303;}
	.st71{fill:#FD5202;}
	.st72{fill:#FDA001;}
	.st73{fill:#FDBC03;}
	.st74{fill:#172690;}
	.st75{fill:#16238F;}
	.st76{fill:#9F0287;}
	.st77{fill:#6B0787;}
	.st78{fill:#024CA2;}
	.st79{fill:#4D0D85;}
	.st80{fill:#0344A3;}
	.st81{fill:#2B208C;}
	.st82{fill:#019590;}
	.st83{fill:#0180A1;}
	.st84{fill:#42CD01;}
	.st85{fill:#68BA03;}
	.st86{fill:#7ED902;}
	.st87{fill:#12AF36;}
	.st88{fill:#43D003;}
	.st89{fill:#A1E101;}
	.st90{fill:#B5E600;}
	.st91{fill:#DBEB02;}
	.st92{fill:#FC9600;}
	.st93{fill:#FDC302;}
	.st94{fill:#FCBE05;}
	.st95{fill:#F3730B;}
	.st96{fill:#F10839;}
	.st97{fill:#FE370A;}
	.st98{fill:#E40163;}
	.st99{fill:#DF007D;}
	.st100{fill:#BE0187;}
	.st101{fill:#FD8A02;}
	.st102{fill:#8D0486;}
	.st103{fill:#0373AD;}
	.st104{fill:#79B30B;}
	.st105{fill:#5FA93D;}
	.st106{fill:#8AAA18;}
	.st107{fill:#96E001;}
	.st108{fill:#B7E502;}
	.st109{fill:#ACE402;}
	.st110{fill:#FD6601;}
	.st111{fill:#E1781C;}
	.st112{fill:#C08E11;}
	.st113{fill:#D4017E;}
	.st114{fill:#C30283;}
	.st115{display:inline;clip-path:url(#SVGID_4_);fill:#52627B;}
	.st116{opacity:7.000000e-002;clip-path:url(#SVGID_6_);}
	.st117{opacity:7.000000e-002;clip-path:url(#SVGID_8_);}
	.st118{opacity:7.000000e-002;clip-path:url(#SVGID_10_);}
	.st119{display:inline;opacity:7.000000e-002;clip-path:url(#SVGID_12_);}
</style>
<circle class="st0" cx="117.8" cy="129.3" r="102.8"/>
<g>
	<path class="st1" d="M93.8,141.9c-0.9-2.1-1.9-4.1-2.7-6.2c-0.4-1.1-1-1.5-2.3-1.6c-6.6-0.2-11.7-3.1-14.8-9
		c-5-9.4-0.4-20.8,9.7-24.2c1.5-0.5,3-0.8,4.5-1.2c6.4-1.5,12.9-3,19.4-4.5c0.4,1.6,0.8,3,1.3,4.6c5.1-1.1,9.7-3,14.1-5.4
		c7.8-4.3,14.5-10.1,20.8-16.4c0.4-0.4,0.5-1.2,0.4-1.8c-0.3-1.8-0.8-3.5-1.2-5.2c-0.4-1.9,0.1-3.1,1.6-3.3c1.4-0.3,2.4,0.6,2.8,2.3
		c2.4,10.7,4.9,21.5,7.3,32.2c2.3,10.3,4.7,20.5,7,30.8c0.1,0.4,0.2,0.8,0.3,1.3c0.3,1.4-0.1,2.4-1.5,2.8c-1.4,0.4-2.3-0.3-2.7-1.6
		c-0.6-1.9-0.9-3.9-1.5-5.7c-0.2-0.7-0.8-1.5-1.4-1.7c-10-3.5-20.2-6-30.9-5.5c-3.2,0.1-6.4,0.6-9.8,0.9c0.4,1.7,0.7,3.2,1.1,4.9
		c-2,0.5-3.9,1-5.8,1.4c-2.2,0.5-3.1,3.3-1.6,5c1,1,2,2,3.1,2.9c0.3,0.2,0.8,0.2,1.2,0.2c1.6-0.3,3.3-0.6,5.1-0.9
		c1.3,3.2,1.2,6.3,0,9.8c3.2-0.7,6.3-1.2,8.9,1.3c2.6,2.5,2.6,5.4,1.4,8.7c3.1,2.4,3.7,5.5,2,9c4.3,3.4,3.7,9.7-1.1,12.3
		c1.5,3.4,1.6,6.6-1.3,9.3c-0.8,0.8-2,1.4-3,1.6c-7.6,1.7-15.1,3.2-22.7,4.7c-1.4,0.3-2.9,0.2-4.2-0.1c-3.5-1-6.8-1-10.2,0.1
		c-1.3,0.4-2.6,0.6-4.1,0.9c-0.3-1.5-0.6-2.8-0.9-4.3c5.4-1.3,10.5-3.1,15.9-1.1c0.6,0.2,1.4,0.4,2,0.2c3.7-0.7,7.3-1.6,11.2-2.4
		c-1.2-2.2-1.5-4.4-0.5-6.7c0.1-0.3-0.1-0.8-0.3-1.1c-2.7-3.2-2.9-4.4-1.6-8.7c-2.9-2.3-3.5-5.2-2.3-8.6c0.1-0.3,0.1-1-0.1-1.1
		c-1.9-1.7-2.8-3.7-2.3-6.6c-2,0.4-3.6,0.7-5.4,1.1c-0.3-1.4-0.6-2.8-0.9-4.3c3.4-0.7,6.7-1.5,9.9-2.2c3.8-0.8,6-3.2,6.2-6.8
		c-2.7,0.6-5.3,1.2-7.9,1.8c-4.5,1.1-9,2.1-13.5,3.3c-0.9,0.2-1.8,1-2.2,1.9c-1.3,2.5-2.2,5.2-3.4,7.8c-0.3,0.6-1.1,1.3-1.8,1.5
		c-2.4,0.7-4.8,1.2-7.4,1.8c-0.3-1.5-0.6-2.8-1-4.4c1.9-0.4,3.6-0.7,5.3-1.2c0.8-0.2,1.6-0.9,2-1.6c0.9-1.8,1.7-3.7,2.4-5.6
		c1-2.8,3-4.3,5.9-4.7C92.7,142.3,93.2,142.1,93.8,141.9z M145.7,82.3c-10.5,10.1-21.7,18.3-35.7,22c1.2,5.1,2.3,10.1,3.5,15.1
		c14.2-3.1,27.9-0.7,41.6,3.9C151.9,109.5,148.9,96.1,145.7,82.3z M104,100.5c-6.4,1.5-12.6,2.8-18.8,4.3c-5.4,1.3-9.3,6.7-9,12.2
		c0.3,6.3,4.4,11.3,10,12.5c3.6,0.8,6.9-0.3,10.2-1.1c4.4-1,8.8-2.1,13.4-3.1C107.8,117,105.9,108.8,104,100.5z M115.7,176.1
		c3.2-0.7,6.8-1.5,10.4-2.3c2-0.5,3-1.6,2.7-3.1c-0.3-1.5-2-2.7-3.7-2.4c-3.6,0.8-7.2,1.7-10.8,2.7c-1.3,0.4-1.9,1.6-1.7,2.9
		C112.9,175.3,113.9,176,115.7,176.1z M123.3,159.1c-3.5,0.9-7.4,1.8-11.2,2.9c-1.4,0.4-1.8,1.7-1.4,3c0.4,1.4,1.5,2.2,3,1.9
		c3.7-0.8,7.5-1.7,11.2-2.7c1.4-0.4,2.2-1.4,1.9-2.9C126.4,159.7,125.2,159.1,123.3,159.1z M124.4,153.4c0.1-2.5-1.4-3.7-3.2-3.3
		c-3.6,0.8-7.1,1.6-10.6,2.5c-1.6,0.4-2.4,1.6-2,3c0.4,1.5,1.6,2.3,3.1,2c3.6-0.7,7.1-1.5,10.6-2.5
		C123.2,154.9,123.9,153.8,124.4,153.4z M94.8,133.3c1.1,2.4,2.1,4.7,3.2,6.9c0.1,0.3,0.7,0.6,1,0.5c2.2-0.4,4.3-0.9,6.8-1.5
		c-2.9-1.9-3.6-4.4-3.1-7.6C100,132.2,97.5,132.7,94.8,133.3z M122.4,178.7c-1.8,0.4-3.8,0.8-5.8,1.3c-1.6,0.4-2.2,1.5-1.9,3.1
		c0.4,1.5,1.5,2.3,3,2.1c1.9-0.3,3.9-0.8,5.8-1.3c1.4-0.4,2.3-1.2,2-2.8C125.3,179.5,124.3,178.8,122.4,178.7z"/>
	<path class="st1" d="M155.4,90.3c-0.3-1.4-0.5-2.7-0.8-4c6.9-2,13.9,3.3,16.1,12.1c1.9,7.9-2.4,16.1-9.4,17.6
		c-0.3-1.4-0.6-2.7-0.8-4.1c5.2-3,7.1-7.5,5.7-13.1C164.9,93.4,161.2,90.6,155.4,90.3z"/>
	<path class="st1" d="M168.4,84.3c-1.3-0.8-2.5-1.5-3.7-2.3c2.3-3.6,4.4-7.1,6.7-10.7c1.3,0.8,2.5,1.5,3.7,2.3
		C172.9,77.2,170.7,80.6,168.4,84.3z"/>
	<path class="st1" d="M185.5,118.3c-0.8,1.3-1.5,2.5-2.3,3.7c-3.6-2.3-7.1-4.4-10.7-6.7c0.8-1.3,1.5-2.4,2.3-3.7
		C178.4,113.9,181.9,116,185.5,118.3z"/>
	<path class="st1" d="M175.9,94.8c4.2-1,8.1-1.9,12.2-2.8c0.4,1.5,0.7,2.7,1.1,4.3c-4.1,1-8.1,1.9-12.3,2.9
		C176.6,97.7,176.3,96.4,175.9,94.8z"/>
</g>
</svg>
