<?xml version="1.0" encoding="utf-8"?>
<!-- Generator: Adobe Illustrator 19.1.0, SVG Export Plug-In . SVG Version: 6.00 Build 0)  -->
<svg version="1.1" id="Layer_1" xmlns="http://www.w3.org/2000/svg" xmlns:xlink="http://www.w3.org/1999/xlink" x="0px" y="0px"
	 viewBox="0 0 250 250" style="enable-background:new 0 0 250 250;" xml:space="preserve">
<style type="text/css">
	.st0{fill:#6633CC;}
	.st1{fill:#FFFFFF;}
	.st2{fill:#A2B9DE;}
	.st3{fill:#FCFDFF;}
	.st4{fill:#FEFEFE;}
	.st5{display:none;}
	.st6{display:inline;}
	.st7{display:inline;clip-path:url(#SVGID_2_);}
	.st8{fill:#0179C7;}
	.st9{fill:#01A337;}
	.st10{fill:#00AB2C;}
	.st11{fill:#00B51B;}
	.st12{fill:#0199C2;}
	.st13{fill:#019B60;}
	.st14{fill:#0284CE;}
	.st15{fill:#69D502;}
	.st16{fill:#36CC02;}
	.st17{fill:#00BC0E;}
	.st18{fill:#02C602;}
	.st19{fill:#FAE21D;}
	.st20{fill:#FDC3C5;}
	.st21{fill:#CBEE21;}
	.st22{fill:#FE32AA;}
	.st23{fill:#FDBADD;}
	.st24{fill:#FE7A2D;}
	.st25{fill:#FDB627;}
	.st26{fill:#445FBE;}
	.st27{fill:#329EE1;}
	.st28{fill:#C238B5;}
	.st29{fill:#3479CA;}
	.st30{fill:#FE5D3B;}
	.st31{fill:#8044B2;}
	.st32{fill:#8DE82C;}
	.st33{fill:#019C94;}
	.st34{fill:#01379B;}
	.st35{fill:#0160B5;}
	.st36{fill:#018FD5;}
	.st37{fill:#008FC1;}
	.st38{fill:#025EB4;}
	.st39{fill:#02B718;}
	.st40{fill:#019A8E;}
	.st41{fill:#019E61;}
	.st42{fill:#019D6A;}
	.st43{fill:#00B520;}
	.st44{fill:#04C603;}
	.st45{fill:#02BB0D;}
	.st46{fill:#0099AA;}
	.st47{fill:#019BAA;}
	.st48{fill:#5BD301;}
	.st49{fill:#B2E400;}
	.st50{fill:#7ADA01;}
	.st51{fill:#C9E901;}
	.st52{fill:#FCE801;}
	.st53{fill:#FDD902;}
	.st54{fill:#ECED01;}
	.st55{fill:#FED300;}
	.st56{fill:#FE2115;}
	.st57{fill:#FD0045;}
	.st58{fill:#FD0430;}
	.st59{fill:#FE0054;}
	.st60{fill:#FE0D23;}
	.st61{fill:#FB300E;}
	.st62{fill:#FC111E;}
	.st63{fill:#A5E203;}
	.st64{fill:#FC007F;}
	.st65{fill:#E50186;}
	.st66{fill:#D80188;}
	.st67{fill:#FE006B;}
	.st68{fill:#FD4A01;}
	.st69{fill:#FD6D02;}
	.st70{fill:#FD6303;}
	.st71{fill:#FD5202;}
	.st72{fill:#FDA001;}
	.st73{fill:#FDBC03;}
	.st74{fill:#172690;}
	.st75{fill:#16238F;}
	.st76{fill:#9F0287;}
	.st77{fill:#6B0787;}
	.st78{fill:#024CA2;}
	.st79{fill:#4D0D85;}
	.st80{fill:#0344A3;}
	.st81{fill:#2B208C;}
	.st82{fill:#019590;}
	.st83{fill:#0180A1;}
	.st84{fill:#42CD01;}
	.st85{fill:#68BA03;}
	.st86{fill:#7ED902;}
	.st87{fill:#12AF36;}
	.st88{fill:#43D003;}
	.st89{fill:#A1E101;}
	.st90{fill:#B5E600;}
	.st91{fill:#DBEB02;}
	.st92{fill:#FC9600;}
	.st93{fill:#FDC302;}
	.st94{fill:#FCBE05;}
	.st95{fill:#F3730B;}
	.st96{fill:#F10839;}
	.st97{fill:#FE370A;}
	.st98{fill:#E40163;}
	.st99{fill:#DF007D;}
	.st100{fill:#BE0187;}
	.st101{fill:#FD8A02;}
	.st102{fill:#8D0486;}
	.st103{fill:#0373AD;}
	.st104{fill:#79B30B;}
	.st105{fill:#5FA93D;}
	.st106{fill:#8AAA18;}
	.st107{fill:#96E001;}
	.st108{fill:#B7E502;}
	.st109{fill:#ACE402;}
	.st110{fill:#FD6601;}
	.st111{fill:#E1781C;}
	.st112{fill:#C08E11;}
	.st113{fill:#D4017E;}
	.st114{fill:#C30283;}
	.st115{display:inline;clip-path:url(#SVGID_4_);fill:#52627B;}
	.st116{opacity:7.000000e-002;clip-path:url(#SVGID_6_);}
	.st117{opacity:7.000000e-002;clip-path:url(#SVGID_8_);}
	.st118{opacity:7.000000e-002;clip-path:url(#SVGID_10_);}
	.st119{display:inline;opacity:7.000000e-002;clip-path:url(#SVGID_12_);}
</style>
<circle class="st0" cx="132.8" cy="128.7" r="102.8"/>
<g>
	<path class="st1" d="M179.9,182.4c-30.8,0-61.6,0-92.4,0c0-2.3,0-4.5,0-6.8c0.3-2,0.6-4,1-6c0.5-2.5,1.8-4.6,4.2-5.8
		c1.3-0.7,2.7-1.4,4.1-2.1c5.4-2.3,11.1-3.8,16.8-4.9c1.3-0.3,2.5-0.9,3.6-1.6c2.5-1.9,4.1-4.5,5.3-7.5c-0.3-0.2-0.6-0.5-0.8-0.7
		c-1.3-1.1-2.4-2.7-3.8-3.2c-1.5-0.6-3.4,0-5.1-0.1c-3-0.2-5.5-1.4-6.9-4.2c-0.7-1.5-1.1-3.2-1.5-4.8c-0.2-0.7-0.4-0.9-1-0.9
		c-1,0-2.1,0-3.1-0.3c-3.6-1.3-6-4.6-6-8.4c0-4.1-0.1-8.2,0-12.3c0.1-3.8,1.9-6.7,5.6-8.2c0.7-0.3,1-0.6,1.1-1.4
		c0.3-3,1.1-5.8,2.5-8.5c4-7.7,10.4-12.4,18.5-15.1c2.2-0.7,4.5-1.1,6.8-1.7c3.4,0,6.9,0,10.3,0c0.1,0.1,0.3,0.2,0.4,0.2
		c5.2,0.7,10.1,2.4,14.5,5.3c7.3,4.8,12,11.2,13,20c0,0.4,0.4,0.9,0.8,1c3.8,1.6,5.8,4.5,5.8,8.7c0,3.8,0.1,7.6,0,11.4
		c-0.2,8.3-6.6,10.6-13.2,9c-0.7-0.2-1.4-0.8-1.9-1.3c-0.5-0.6-0.9-1.3-1.4-2.1c-2.5,6.9-6,13.1-11.8,17.8c0.9,1.5,1.6,3,2.5,4.3
		c1.5,2.2,3.3,4.1,6.1,4.7c1.3,0.3,2.5,0.5,3.8,0.8c5.7,1.3,11.3,3,16.6,5.7c2.7,1.4,4.7,3.4,5.1,6.6c0.4,3.3,0.7,6.7,0.9,10
		C180.1,180.7,180,181.5,179.9,182.4z M176.8,180c-0.2-2.5-0.4-4.9-0.5-7.3c-0.1-3.8-2.2-6-5.6-7.4c-5.5-2.3-11.2-4-17-5.1
		c-1.9-0.3-3.5-1-5-2.2c-3.3-2.6-5.4-6-7-9.8c-0.5-1.3-0.3-1.8,0.8-2.7c1.7-1.5,3.6-3,4.9-4.8c6.4-8.4,9.4-17.9,9.4-28.4
		c0-4.8-0.7-9.5-3.2-13.8c-4.5-7.7-11.5-11.1-20.2-11c-7.4,0.1-13.6,2.9-18,8.9c-3.4,4.6-4.5,9.9-4.6,15.5c0,6.2,0.9,12.1,3.3,17.8
		c1.4,3.4,3,6.8,5.2,9.8c0.2,0.3,0.6,0.7,1,0.7c2.3,0.1,4.6,0,6.8,0c0.8-2.6,1.7-3.3,4.4-3.3c0.7,0,1.5,0,2.2,0
		c2.1,0,3.5,1.4,3.5,3.3c0,1.9-1.4,3.3-3.5,3.3c-1.4,0-2.8,0-4.2,0c-2.1,0-4.2,0-6.3,0c0.6,0.8,1.3,1.4,2.1,2
		c1.1,0.8,1.3,1.3,0.7,2.6c-1,1.9-1.9,3.9-3.1,5.6c-2.4,3.5-5.5,6.1-9.9,6.5c-1.4,0.1-2.8,0.6-4.1,0.9c-4.9,1.2-9.6,2.7-14,5.1
		c-1.7,0.9-2.8,2.2-3,4.2c-0.2,1.3-0.5,2.6-0.6,3.9c-0.2,1.8-0.2,3.6-0.3,5.4C119.5,180,148,180,176.8,180z M163.4,103.9
		c0-0.1,0-0.3,0-0.4c0-0.3-0.1-0.5-0.1-0.8c-0.9-6.6-4.1-12-9.5-15.9c-11.5-8.3-23.7-8.9-36.2-2.7c-6.4,3.2-10.9,8.5-12.9,15.5
		c-0.4,1.4-0.6,2.8-0.8,4.2c1.5,0.2,2.8,0.4,4.2,0.6c3.3-12.5,11.5-19.8,24.6-20.2c14-0.4,22.9,6.8,26.6,20.1
		C160.8,104.2,162.1,104.1,163.4,103.9z M107.4,119C107.4,119,107.4,119,107.4,119c0-3.1,0-6.2,0-9.4c0-1-0.3-2-1.3-2.1
		c-1.7-0.2-3.6-0.3-5.2,0.2c-2.5,0.7-3.4,2.9-3.5,5.3c-0.1,2.1,0,4.1,0,6.2c0,2.2-0.1,4.4,0.1,6.5c0.3,3,2.5,4.7,5.4,4.7
		c0.6,0,1.2,0,1.8,0c2.1,0,2.7-0.5,2.7-2.7C107.4,124.8,107.4,121.9,107.4,119z M160.2,119C160.2,119,160.2,119,160.2,119
		c0,1.5,0,3,0,4.6c0,1.6,0,3.1,0,4.7c0,1.5,0.7,2.2,2.1,2.2c0.7,0,1.5,0,2.2,0c3.3,0.3,5.5-2.7,5.5-5c0.1-4.4,0.1-8.8,0-13.1
		c-0.1-2.7-2.5-5.3-5.3-5c-0.7,0.1-1.4,0-2.1,0c-1.8,0-2.4,0.6-2.4,2.5C160.2,112.9,160.2,115.9,160.2,119z M110.6,130.5
		c-0.9,0.9-1.9,1.8-2.8,2.8c-0.1,0.1-0.3,0.4-0.3,0.6c-0.3,4.4,3.8,7.6,7.8,6.3C113.7,136.9,112.1,133.6,110.6,130.5z"/>
</g>
</svg>
