<?xml version="1.0" encoding="utf-8"?>
<!-- Generator: Adobe Illustrator 19.1.0, SVG Export Plug-In . SVG Version: 6.00 Build 0)  -->
<svg version="1.1" id="Layer_1" xmlns="http://www.w3.org/2000/svg" xmlns:xlink="http://www.w3.org/1999/xlink" x="0px" y="0px"
	 viewBox="0 0 250 250" style="enable-background:new 0 0 250 250;" xml:space="preserve">
<style type="text/css">
	.st0{fill:#6633CC;}
	.st1{fill:#FFFFFF;}
	.st2{fill:#A2B9DE;}
	.st3{fill:#FCFDFF;}
	.st4{fill:#FEFEFE;}
	.st5{display:none;}
	.st6{display:inline;}
	.st7{display:inline;clip-path:url(#SVGID_2_);}
	.st8{fill:#0179C7;}
	.st9{fill:#01A337;}
	.st10{fill:#00AB2C;}
	.st11{fill:#00B51B;}
	.st12{fill:#0199C2;}
	.st13{fill:#019B60;}
	.st14{fill:#0284CE;}
	.st15{fill:#69D502;}
	.st16{fill:#36CC02;}
	.st17{fill:#00BC0E;}
	.st18{fill:#02C602;}
	.st19{fill:#FAE21D;}
	.st20{fill:#FDC3C5;}
	.st21{fill:#CBEE21;}
	.st22{fill:#FE32AA;}
	.st23{fill:#FDBADD;}
	.st24{fill:#FE7A2D;}
	.st25{fill:#FDB627;}
	.st26{fill:#445FBE;}
	.st27{fill:#329EE1;}
	.st28{fill:#C238B5;}
	.st29{fill:#3479CA;}
	.st30{fill:#FE5D3B;}
	.st31{fill:#8044B2;}
	.st32{fill:#8DE82C;}
	.st33{fill:#019C94;}
	.st34{fill:#01379B;}
	.st35{fill:#0160B5;}
	.st36{fill:#018FD5;}
	.st37{fill:#008FC1;}
	.st38{fill:#025EB4;}
	.st39{fill:#02B718;}
	.st40{fill:#019A8E;}
	.st41{fill:#019E61;}
	.st42{fill:#019D6A;}
	.st43{fill:#00B520;}
	.st44{fill:#04C603;}
	.st45{fill:#02BB0D;}
	.st46{fill:#0099AA;}
	.st47{fill:#019BAA;}
	.st48{fill:#5BD301;}
	.st49{fill:#B2E400;}
	.st50{fill:#7ADA01;}
	.st51{fill:#C9E901;}
	.st52{fill:#FCE801;}
	.st53{fill:#FDD902;}
	.st54{fill:#ECED01;}
	.st55{fill:#FED300;}
	.st56{fill:#FE2115;}
	.st57{fill:#FD0045;}
	.st58{fill:#FD0430;}
	.st59{fill:#FE0054;}
	.st60{fill:#FE0D23;}
	.st61{fill:#FB300E;}
	.st62{fill:#FC111E;}
	.st63{fill:#A5E203;}
	.st64{fill:#FC007F;}
	.st65{fill:#E50186;}
	.st66{fill:#D80188;}
	.st67{fill:#FE006B;}
	.st68{fill:#FD4A01;}
	.st69{fill:#FD6D02;}
	.st70{fill:#FD6303;}
	.st71{fill:#FD5202;}
	.st72{fill:#FDA001;}
	.st73{fill:#FDBC03;}
	.st74{fill:#172690;}
	.st75{fill:#16238F;}
	.st76{fill:#9F0287;}
	.st77{fill:#6B0787;}
	.st78{fill:#024CA2;}
	.st79{fill:#4D0D85;}
	.st80{fill:#0344A3;}
	.st81{fill:#2B208C;}
	.st82{fill:#019590;}
	.st83{fill:#0180A1;}
	.st84{fill:#42CD01;}
	.st85{fill:#68BA03;}
	.st86{fill:#7ED902;}
	.st87{fill:#12AF36;}
	.st88{fill:#43D003;}
	.st89{fill:#A1E101;}
	.st90{fill:#B5E600;}
	.st91{fill:#DBEB02;}
	.st92{fill:#FC9600;}
	.st93{fill:#FDC302;}
	.st94{fill:#FCBE05;}
	.st95{fill:#F3730B;}
	.st96{fill:#F10839;}
	.st97{fill:#FE370A;}
	.st98{fill:#E40163;}
	.st99{fill:#DF007D;}
	.st100{fill:#BE0187;}
	.st101{fill:#FD8A02;}
	.st102{fill:#8D0486;}
	.st103{fill:#0373AD;}
	.st104{fill:#79B30B;}
	.st105{fill:#5FA93D;}
	.st106{fill:#8AAA18;}
	.st107{fill:#96E001;}
	.st108{fill:#B7E502;}
	.st109{fill:#ACE402;}
	.st110{fill:#FD6601;}
	.st111{fill:#E1781C;}
	.st112{fill:#C08E11;}
	.st113{fill:#D4017E;}
	.st114{fill:#C30283;}
	.st115{display:inline;clip-path:url(#SVGID_4_);fill:#52627B;}
	.st116{opacity:7.000000e-002;clip-path:url(#SVGID_6_);}
	.st117{opacity:7.000000e-002;clip-path:url(#SVGID_8_);}
	.st118{opacity:7.000000e-002;clip-path:url(#SVGID_10_);}
	.st119{display:inline;opacity:7.000000e-002;clip-path:url(#SVGID_12_);}
</style>
<circle class="st0" cx="128.6" cy="129.3" r="102.8"/>
<g>
	<path class="st4" d="M79.3,116.6c0-19.8,15.2-36.2,35-38c19.2-1.7,37.1,12,40.6,31.3c1.4,8.1,0.4,15.9-3.2,23.3
		c-0.7,1.4-1,2.7-0.7,4.3c1.6,7.9-4.6,14.2-12.5,12.7c-1.5-0.3-2.7-0.1-4,0.5C109,163.4,79.3,145,79.3,116.6z"/>
	<path class="st4" d="M152.7,145.7c10.3,10.2,20.3,20.2,30.5,30.2c1.3,1.3,1.5,2.2,0.1,3.6c-5.4,5.2-4.1,5.1-9.1,0.2
		c-8.6-8.6-17.2-17.3-25.8-25.9c-1.2-1.2-1.9-1.9,0.2-2.9C150.6,149.8,151.9,147.9,152.7,145.7z"/>
	<path class="st0" d="M84.6,116.5c0-18,14.9-32.7,33-32.6c17.9,0.1,32.6,14.8,32.6,32.8c0,18.1-14.8,32.8-32.9,32.8
		C99.2,149.4,84.5,134.6,84.6,116.5z"/>
	<path class="st4" d="M136.9,100.3c-0.8-0.8-1.6-1.5-2.6-2.4c2.1-0.3,3.9-0.5,5.7-0.8c0.9-0.2,1.1,0.3,1.2,1.1
		c0.2,1.7,0.4,3.4,0.6,5.2c-3.2-1.3-3.2-1.3-5.6,1.7c-5.4,6.8-10.8,13.5-16.2,20.3c-0.7,0.9-1.3,1.8-1.5,3c-0.3,1.3-1.4,1.8-2.7,1.6
		c-1.2-0.2-2.1-0.9-2-2.1c0.4-4.1-2.7-6.7-4-10.8c-3.1,4-5.9,7.4-8.6,11c-1.2,1.6-3,2.9-2.7,5.4c0.1,1-0.9,1.8-2.2,1.8
		c-1.4,0-2.3-0.5-2.7-1.7c-0.4-1.1,0.1-2.1,1-2.8c5.4-3.6,8-9.6,12.2-14.3c0.4-0.4,0.1-1.3,0.3-1.9c0.3-1.2,1.1-2,2.4-2
		c1.3,0,2.3,0.7,2.4,2c0.1,3.6,2.6,6.1,3.8,9.2c0.6,1.6,1.3,1.2,2.2,0.1C124.4,116.1,130.6,108.2,136.9,100.3z"/>
</g>
</svg>
