<?xml version="1.0" encoding="utf-8"?>
<!-- Generator: Adobe Illustrator 19.1.0, SVG Export Plug-In . SVG Version: 6.00 Build 0)  -->
<svg version="1.1" id="Layer_1" xmlns="http://www.w3.org/2000/svg" xmlns:xlink="http://www.w3.org/1999/xlink" x="0px" y="0px"
	 viewBox="0 0 250 250" style="enable-background:new 0 0 250 250;" xml:space="preserve">
<style type="text/css">
	.st0{fill:#6633CC;}
	.st1{fill:#FFFFFF;}
	.st2{fill:#A2B9DE;}
	.st3{fill:#FCFDFF;}
	.st4{fill:#FEFEFE;}
	.st5{display:none;}
	.st6{display:inline;}
	.st7{display:inline;clip-path:url(#SVGID_2_);}
	.st8{fill:#0179C7;}
	.st9{fill:#01A337;}
	.st10{fill:#00AB2C;}
	.st11{fill:#00B51B;}
	.st12{fill:#0199C2;}
	.st13{fill:#019B60;}
	.st14{fill:#0284CE;}
	.st15{fill:#69D502;}
	.st16{fill:#36CC02;}
	.st17{fill:#00BC0E;}
	.st18{fill:#02C602;}
	.st19{fill:#FAE21D;}
	.st20{fill:#FDC3C5;}
	.st21{fill:#CBEE21;}
	.st22{fill:#FE32AA;}
	.st23{fill:#FDBADD;}
	.st24{fill:#FE7A2D;}
	.st25{fill:#FDB627;}
	.st26{fill:#445FBE;}
	.st27{fill:#329EE1;}
	.st28{fill:#C238B5;}
	.st29{fill:#3479CA;}
	.st30{fill:#FE5D3B;}
	.st31{fill:#8044B2;}
	.st32{fill:#8DE82C;}
	.st33{fill:#019C94;}
	.st34{fill:#01379B;}
	.st35{fill:#0160B5;}
	.st36{fill:#018FD5;}
	.st37{fill:#008FC1;}
	.st38{fill:#025EB4;}
	.st39{fill:#02B718;}
	.st40{fill:#019A8E;}
	.st41{fill:#019E61;}
	.st42{fill:#019D6A;}
	.st43{fill:#00B520;}
	.st44{fill:#04C603;}
	.st45{fill:#02BB0D;}
	.st46{fill:#0099AA;}
	.st47{fill:#019BAA;}
	.st48{fill:#5BD301;}
	.st49{fill:#B2E400;}
	.st50{fill:#7ADA01;}
	.st51{fill:#C9E901;}
	.st52{fill:#FCE801;}
	.st53{fill:#FDD902;}
	.st54{fill:#ECED01;}
	.st55{fill:#FED300;}
	.st56{fill:#FE2115;}
	.st57{fill:#FD0045;}
	.st58{fill:#FD0430;}
	.st59{fill:#FE0054;}
	.st60{fill:#FE0D23;}
	.st61{fill:#FB300E;}
	.st62{fill:#FC111E;}
	.st63{fill:#A5E203;}
	.st64{fill:#FC007F;}
	.st65{fill:#E50186;}
	.st66{fill:#D80188;}
	.st67{fill:#FE006B;}
	.st68{fill:#FD4A01;}
	.st69{fill:#FD6D02;}
	.st70{fill:#FD6303;}
	.st71{fill:#FD5202;}
	.st72{fill:#FDA001;}
	.st73{fill:#FDBC03;}
	.st74{fill:#172690;}
	.st75{fill:#16238F;}
	.st76{fill:#9F0287;}
	.st77{fill:#6B0787;}
	.st78{fill:#024CA2;}
	.st79{fill:#4D0D85;}
	.st80{fill:#0344A3;}
	.st81{fill:#2B208C;}
	.st82{fill:#019590;}
	.st83{fill:#0180A1;}
	.st84{fill:#42CD01;}
	.st85{fill:#68BA03;}
	.st86{fill:#7ED902;}
	.st87{fill:#12AF36;}
	.st88{fill:#43D003;}
	.st89{fill:#A1E101;}
	.st90{fill:#B5E600;}
	.st91{fill:#DBEB02;}
	.st92{fill:#FC9600;}
	.st93{fill:#FDC302;}
	.st94{fill:#FCBE05;}
	.st95{fill:#F3730B;}
	.st96{fill:#F10839;}
	.st97{fill:#FE370A;}
	.st98{fill:#E40163;}
	.st99{fill:#DF007D;}
	.st100{fill:#BE0187;}
	.st101{fill:#FD8A02;}
	.st102{fill:#8D0486;}
	.st103{fill:#0373AD;}
	.st104{fill:#79B30B;}
	.st105{fill:#5FA93D;}
	.st106{fill:#8AAA18;}
	.st107{fill:#96E001;}
	.st108{fill:#B7E502;}
	.st109{fill:#ACE402;}
	.st110{fill:#FD6601;}
	.st111{fill:#E1781C;}
	.st112{fill:#C08E11;}
	.st113{fill:#D4017E;}
	.st114{fill:#C30283;}
	.st115{display:inline;clip-path:url(#SVGID_4_);fill:#52627B;}
	.st116{opacity:7.000000e-002;clip-path:url(#SVGID_6_);}
	.st117{opacity:7.000000e-002;clip-path:url(#SVGID_8_);}
	.st118{opacity:7.000000e-002;clip-path:url(#SVGID_10_);}
	.st119{display:inline;opacity:7.000000e-002;clip-path:url(#SVGID_12_);}
</style>
<circle class="st0" cx="128.3" cy="129.3" r="102.8"/>
<g>
	<path class="st1" d="M69.9,166.1c0-21.7,0-43.5,0-65.2c3.2-9.2,7.2-12,17.2-12c28.5,0,57.1,0,85.6,0c1.1,0,2.3,0,3.4,0.2
		c6.5,1.1,10.1,5.3,12.1,11.3c0,21.9,0,43.8,0,65.7c-1.8,5.5-5.3,9.3-10.9,11.1c-1.2,0.4-2.5,1.2-3.2,2.2
		c-10.7,16-33.1,16.1-43.7,0.1c-0.9-1.4-1.9-1.9-3.6-1.9c-14.1,0.1-28.2,0.1-42.3,0c-6.9,0-12.2-4-14.2-10.6
		C70.2,166.6,70,166.4,69.9,166.1z M127,172.7c-4.3-18.8,9.3-32,22.5-33.3c6.7-0.7,12.7,1,18,5.1c9,6.9,12.2,16.1,10.2,27.5
		c3.9-1.8,5.6-4.5,5.7-8.2c0.1-3.2,0-6.3,0-9.5c0-17,0-34,0-51c0-4.8-2.2-8.2-6.2-9.2c-1.7-0.4-3.5-0.4-5.2-0.4
		c-28.7,0-57.4,0-86.2,0c-8,0-11,3-11,10.9c0,19.2,0,38.4,0,57.5c0,7.4,3.1,10.6,10.5,10.6c7.5,0,15.1,0,22.6,0
		C114.2,172.7,120.4,172.7,127,172.7z M152.1,186.6c12,0,21.3-9.1,21.3-20.9c0.1-12.1-9-21.4-21-21.5c-12-0.1-21.4,9.1-21.5,21.1
		C130.9,177.3,140,186.5,152.1,186.6z"/>
	<path class="st1" d="M128.5,143.1c-2.5-1.2-5.1-1.7-6.8-3.2c-12.9-11.4-25.7-23-38.6-34.5c-1.4-1.2-2-2.6-0.7-4.1
		c1.4-1.5,2.8-0.6,4.1,0.6c11.8,10.7,23.7,21.3,35.5,32c0.7,0.6,1.4,1.3,2.1,1.9c3.2,2.8,5.4,2.8,8.5,0c9.5-8.5,19-17.1,28.5-25.6
		c3.1-2.8,6.3-5.6,9.4-8.4c1.2-1.1,2.6-1.8,3.9-0.4c1.4,1.5,0.7,2.8-0.7,4.1c-12.8,11.5-25.5,23-38.4,34.3
		C133.7,141.3,131,141.9,128.5,143.1z"/>
	<path class="st1" d="M84,166.3c-0.7-0.6-1.9-1.1-2-1.8c-0.2-0.9,0.1-2.4,0.8-3c2.7-2.5,5.6-4.8,8.4-7.1c5.5-4.6,11-9.2,16.6-13.7
		c0.8-0.6,1.8-1.2,2.7-1.2c0.6,0,1.8,1,1.8,1.5c0,1.1-0.4,2.5-1.2,3.1c-4.7,4.1-9.6,8.1-14.5,12.2c-3.4,2.9-6.9,5.7-10.3,8.5
		C85.8,165.2,85,165.6,84,166.3z"/>
	<g>
		<path class="st1" d="M145.8,179.5c-0.1-0.1-0.1-0.2-0.2-0.3c-0.1-0.2-0.2-0.4-0.3-0.5c-0.4-0.7-0.7-1.4-1.1-2.1
			c-0.8-1.6-1.6-3.2-2.5-4.8c-0.1-0.3-0.4-0.5-0.7-0.7c-1.3-0.6-2.6-1.2-3.9-1.7c-0.9-0.4-1.7-0.8-2.6-1.1c-0.2-0.1-0.4-0.2-0.5-0.4
			c-0.1-0.1-0.1-0.1-0.2-0.2l0-0.5c0.1,0,0.1-0.1,0.2-0.1c0.1-0.1,0.3-0.2,0.5-0.3c6.6-2.8,13.1-5.5,19.7-8.2l5.5-2.3l1.6-0.7
			c0.9-0.4,1.9-0.8,2.8-1.2c0.2-0.1,0.3-0.1,0.5-0.1c0.1,0,0.1,0,0.2,0l0.4,0.3c0,0.1,0,0.1,0,0.2c0,0.2,0,0.4,0,0.6
			c-1.9,7.1-3.8,14.3-5.7,21.4c-0.2,0.6-0.3,1-0.8,1c-0.2,0-0.4-0.1-0.8-0.3l-1.6-0.7c-1.8-0.8-3.6-1.6-5.4-2.3
			c-0.2-0.1-0.3-0.1-0.4-0.1c-0.1,0-0.2,0-0.4,0.3c-0.8,1.1-1.6,2.2-2.5,3.2c-0.3,0.4-0.6,0.7-0.9,1.1c-0.1,0.1-0.2,0.2-0.3,0.4
			l-0.2,0.3L145.8,179.5z M145.8,176.8l0.1-0.6c0.2-1.3,0.4-2.6,0.6-3.8c0.1-0.4,0.3-0.9,0.6-1.1c3.4-3.4,6.8-6.7,10.3-10.1l1.4-1.3
			L142.8,171L145.8,176.8z M147.1,176.6l2.2-2.9l-1.7-0.7L147.1,176.6z M158.4,176.2l5.2-19.4l-15.3,15L158.4,176.2z M137,168
			c1.5,0.6,2.9,1.3,4.4,1.9c0.2,0.1,0.3,0.1,0.5,0.1c0.2,0,0.4-0.1,0.6-0.2c3.8-2.7,7.6-5.3,11.3-8l3.6-2.6c0.7-0.5,1.4-1,2.2-1.5
			l-23.6,9.9C136.3,167.7,136.7,167.8,137,168z"/>
		<path class="st1" d="M146.1,179.4c-0.2-0.4-0.4-0.6-0.5-0.8c-1.2-2.3-2.3-4.6-3.6-6.9c-0.2-0.3-0.5-0.7-0.9-0.8
			c-2.2-1-4.4-1.9-6.5-2.8c-0.2-0.1-0.4-0.3-0.6-0.5c0.2-0.1,0.4-0.3,0.6-0.4c8.4-3.5,16.8-7,25.2-10.6c1.5-0.6,3-1.3,4.5-1.9
			c0.2-0.1,0.4-0.1,0.6-0.1c0,0.2,0.1,0.4,0,0.6c-1.9,7.1-3.8,14.3-5.7,21.4c-0.2,0.9-0.3,0.9-1.1,0.5c-2.3-1-4.7-2-7-3
			c-0.5-0.2-0.8-0.2-1.1,0.3c-1.1,1.5-2.2,2.9-3.3,4.3C146.5,178.9,146.4,179.1,146.1,179.4z M158.6,176.7
			c1.9-6.9,3.7-13.8,5.5-20.7c0,0-0.1,0-0.1-0.1c-5.4,5.3-10.8,10.6-16.3,16C151.4,173.6,154.9,175.1,158.6,176.7z M135.1,167.5
			c2.2,0.9,4.2,1.8,6.1,2.6c0.5,0.2,0.9,0.2,1.4-0.1c5-3.5,10-7.1,15-10.6c1.4-1,2.8-2,4.2-2.9c0,0,0-0.1-0.1-0.1
			C152.9,160.1,144.1,163.8,135.1,167.5z M145.9,177.7c0.1,0,0.1,0,0.2,0c0.3-1.7,0.5-3.5,0.8-5.2c0.1-0.3,0.2-0.7,0.5-0.9
			c4.2-4.1,8.4-8.2,12.6-12.3c0.4-0.4,0.9-0.9,1.3-1.3c0,0-0.1-0.1-0.1-0.1c-6.2,4.4-12.4,8.7-18.6,13.1
			C143.6,173.2,144.7,175.4,145.9,177.7z M146.6,177.5c0,0,0.1,0,0.1,0.1c1-1.3,2-2.6,3.1-4c-0.9-0.4-1.6-0.7-2.5-1.1
			C147.1,174.2,146.9,175.9,146.6,177.5z"/>
	</g>
</g>
</svg>
