<?xml version="1.0" encoding="utf-8"?>
<!-- Generator: Adobe Illustrator 19.1.0, SVG Export Plug-In . SVG Version: 6.00 Build 0)  -->
<svg version="1.1" id="Layer_1" xmlns="http://www.w3.org/2000/svg" xmlns:xlink="http://www.w3.org/1999/xlink" x="0px" y="0px"
	 viewBox="0 0 250 250" style="enable-background:new 0 0 250 250;" xml:space="preserve">
<style type="text/css">
	.st0{fill:#6633CC;}
	.st1{fill:#FFFFFF;}
	.st2{fill:#A2B9DE;}
	.st3{fill:#FCFDFF;}
	.st4{fill:#FEFEFE;}
	.st5{display:none;}
	.st6{display:inline;}
	.st7{display:inline;clip-path:url(#SVGID_2_);}
	.st8{fill:#0179C7;}
	.st9{fill:#01A337;}
	.st10{fill:#00AB2C;}
	.st11{fill:#00B51B;}
	.st12{fill:#0199C2;}
	.st13{fill:#019B60;}
	.st14{fill:#0284CE;}
	.st15{fill:#69D502;}
	.st16{fill:#36CC02;}
	.st17{fill:#00BC0E;}
	.st18{fill:#02C602;}
	.st19{fill:#FAE21D;}
	.st20{fill:#FDC3C5;}
	.st21{fill:#CBEE21;}
	.st22{fill:#FE32AA;}
	.st23{fill:#FDBADD;}
	.st24{fill:#FE7A2D;}
	.st25{fill:#FDB627;}
	.st26{fill:#445FBE;}
	.st27{fill:#329EE1;}
	.st28{fill:#C238B5;}
	.st29{fill:#3479CA;}
	.st30{fill:#FE5D3B;}
	.st31{fill:#8044B2;}
	.st32{fill:#8DE82C;}
	.st33{fill:#019C94;}
	.st34{fill:#01379B;}
	.st35{fill:#0160B5;}
	.st36{fill:#018FD5;}
	.st37{fill:#008FC1;}
	.st38{fill:#025EB4;}
	.st39{fill:#02B718;}
	.st40{fill:#019A8E;}
	.st41{fill:#019E61;}
	.st42{fill:#019D6A;}
	.st43{fill:#00B520;}
	.st44{fill:#04C603;}
	.st45{fill:#02BB0D;}
	.st46{fill:#0099AA;}
	.st47{fill:#019BAA;}
	.st48{fill:#5BD301;}
	.st49{fill:#B2E400;}
	.st50{fill:#7ADA01;}
	.st51{fill:#C9E901;}
	.st52{fill:#FCE801;}
	.st53{fill:#FDD902;}
	.st54{fill:#ECED01;}
	.st55{fill:#FED300;}
	.st56{fill:#FE2115;}
	.st57{fill:#FD0045;}
	.st58{fill:#FD0430;}
	.st59{fill:#FE0054;}
	.st60{fill:#FE0D23;}
	.st61{fill:#FB300E;}
	.st62{fill:#FC111E;}
	.st63{fill:#A5E203;}
	.st64{fill:#FC007F;}
	.st65{fill:#E50186;}
	.st66{fill:#D80188;}
	.st67{fill:#FE006B;}
	.st68{fill:#FD4A01;}
	.st69{fill:#FD6D02;}
	.st70{fill:#FD6303;}
	.st71{fill:#FD5202;}
	.st72{fill:#FDA001;}
	.st73{fill:#FDBC03;}
	.st74{fill:#172690;}
	.st75{fill:#16238F;}
	.st76{fill:#9F0287;}
	.st77{fill:#6B0787;}
	.st78{fill:#024CA2;}
	.st79{fill:#4D0D85;}
	.st80{fill:#0344A3;}
	.st81{fill:#2B208C;}
	.st82{fill:#019590;}
	.st83{fill:#0180A1;}
	.st84{fill:#42CD01;}
	.st85{fill:#68BA03;}
	.st86{fill:#7ED902;}
	.st87{fill:#12AF36;}
	.st88{fill:#43D003;}
	.st89{fill:#A1E101;}
	.st90{fill:#B5E600;}
	.st91{fill:#DBEB02;}
	.st92{fill:#FC9600;}
	.st93{fill:#FDC302;}
	.st94{fill:#FCBE05;}
	.st95{fill:#F3730B;}
	.st96{fill:#F10839;}
	.st97{fill:#FE370A;}
	.st98{fill:#E40163;}
	.st99{fill:#DF007D;}
	.st100{fill:#BE0187;}
	.st101{fill:#FD8A02;}
	.st102{fill:#8D0486;}
	.st103{fill:#0373AD;}
	.st104{fill:#79B30B;}
	.st105{fill:#5FA93D;}
	.st106{fill:#8AAA18;}
	.st107{fill:#96E001;}
	.st108{fill:#B7E502;}
	.st109{fill:#ACE402;}
	.st110{fill:#FD6601;}
	.st111{fill:#E1781C;}
	.st112{fill:#C08E11;}
	.st113{fill:#D4017E;}
	.st114{fill:#C30283;}
	.st115{display:inline;clip-path:url(#SVGID_4_);fill:#52627B;}
	.st116{opacity:7.000000e-002;clip-path:url(#SVGID_6_);}
	.st117{opacity:7.000000e-002;clip-path:url(#SVGID_8_);}
	.st118{opacity:7.000000e-002;clip-path:url(#SVGID_10_);}
	.st119{display:inline;opacity:7.000000e-002;clip-path:url(#SVGID_12_);}
</style>
<circle class="st0" cx="140.3" cy="129.3" r="102.8"/>
<g>
	<path class="st4" d="M142.8,164c-8.2,0-16.5,0-24.7,0c-3.8,0-5.5-1.8-5.5-5.5c0-10.2,0-20.4,0-30.6c0-3.4,1.1-6.2,4.2-7.9
		c2.4-1.3,3.1-3.1,3-5.8c-0.2-4.5,1.4-6,6-6c0.4,0,0.7,0,1.1,0c4.2,0.5,7.9-0.4,11.3-3.2c2.7-2.2,6-1.8,9.1-0.3
		c0.3,0.1,0.6,0.3,0.8,0.5c2.8,2.8,6.2,3.4,10,3c1.5-0.1,3-0.1,4.5,0.2c2.2,0.4,3.7,2.1,3.4,4.3c-0.5,3.7,0.7,6.2,4.1,8
		c2.2,1.2,3,3.6,3.1,6.1c0,10.7,0,21.4,0,32.2c0,3.1-2,4.9-5.2,4.9C159.5,164,151.1,164,142.8,164z M149.3,141.8
		c4.6-4.1,9.1-8,13.5-12c0.6-0.5,1-1.5,1-2.2c0.1-4.6,0-9.2,0-13.8c0-2.7-0.8-3.5-3.5-3.5c-8.5,0-17,0-25.5,0c-3.4,0-6.8,0-10.3,0
		c-2,0-2.9,1-2.9,3c0,4.9,0,9.7,0,14.6c0,0.5,0.1,1.2,0.5,1.5c4.6,4.1,9.3,8.2,14,12.4C140.6,137.6,144.9,137.4,149.3,141.8z
		 M116.6,161.8c17.6,0,34.8,0,52.3,0c-0.7-0.6-1.1-1-1.5-1.4c-6.8-5.9-13.6-11.9-20.3-17.8c-3.1-2.7-5.6-2.7-8.7,0
		c-6.7,5.9-13.5,11.8-20.2,17.7C117.7,160.7,117.3,161.1,116.6,161.8z M134.7,143.1c-6.6-5.8-13.2-11.5-19.9-17.4
		c0,11.8,0,23.1,0,34.8C121.6,154.6,128.1,148.9,134.7,143.1z M150.8,143.1c6.6,5.8,13.1,11.5,19.9,17.4c0-11.8,0-23.1,0-34.8
		C163.9,131.6,157.4,137.3,150.8,143.1z"/>
	<path class="st4" d="M142.7,120c4.1,0,8.2,0,12.3,0c0.7,0,1.7-0.2,1.5,0.9c-0.1,0.4-1,1-1.5,1c-8.2,0.1-16.3,0.1-24.5,0
		c-0.5,0-1.3-0.6-1.4-1.1c-0.2-1,0.7-0.9,1.4-0.9C134.5,120,138.6,120,142.7,120z"/>
	<path class="st4" d="M142.8,124.6c4.1,0,8.2,0,12.3,0c0.7,0,1.7-0.1,1.4,1c-0.1,0.4-1,1-1.5,1c-8.1,0.1-16.2,0.1-24.4,0
		c-0.5,0-1.5-0.6-1.5-1c-0.2-1.2,0.9-1,1.6-1C134.7,124.6,138.7,124.6,142.8,124.6z"/>
	<path class="st4" d="M138.3,129.3c2.5,0,5.1,0,7.6,0c0.5,0,0.9,0.5,1.3,0.8c-0.4,0.4-0.9,1.1-1.3,1.1c-5.2,0.1-10.4,0.1-15.6,0
		c-0.4,0-1.1-0.6-1.2-1c-0.2-0.9,0.6-1,1.3-1C133,129.3,135.6,129.3,138.3,129.3z"/>
</g>
<g>
	<path class="st1" d="M187,93.5c-1-5.1-1.9-8.8-2.3-12.5c-0.1-1.2,1.2-2.5,1.9-3.8c1,1,2.6,1.8,2.8,2.9c1.6,6.5,2.8,13,4.1,19.5
		c0.6,2.9-0.3,4.4-3.6,4.3c-6-0.1-12,0.3-18,0.1c-1.4,0-2.8-1.5-4.2-2.4c1.4-0.9,2.7-2.5,4.1-2.6c3.7-0.4,7.5-0.1,12.3-0.1
		c-9.1-11-19.8-17.1-32.5-19.8c-35.7-7.7-70.2,21.3-68.9,57.8c0.1,3,0.8,6,0.8,8.9c0,1.7-0.9,3.3-1.5,5c-1.2-1.5-3.1-2.9-3.4-4.6
		c-2.2-12.1-0.8-23.9,4.1-35.1C100,70.9,151,60.2,183.1,89.9C184.1,90.7,185,91.7,187,93.5z"/>
	<path class="st1" d="M95,178.8c0.9,4.5,1.9,8.2,2.4,12.1c0.2,1.3-1,2.7-1.6,4c-1.1-0.9-2.9-1.7-3.2-2.8c-1.6-6.4-2.8-13-4.2-19.5
		c-0.6-2.7,0.1-4.2,3.1-4.2c6.3,0,12.7-0.3,19-0.2c1.2,0,2.3,1.6,3.5,2.5c-1.2,0.9-2.3,2.4-3.6,2.5c-3.8,0.3-7.6,0.1-12,1.3
		c2.6,2.3,5.1,4.9,7.9,6.9c18.7,13.8,43.4,15.2,63.3,2.7c20.7-12.9,29.9-31.9,27.3-56.3c-0.1-1.3-0.6-2.7-0.4-4
		c0.3-1.5,1.1-2.9,1.7-4.3c1.1,1.2,2.9,2.2,3.1,3.6c2,9.8,1.6,19.5-1.4,29.1c-14.2,45.4-67,60-102.7,28.3
		C96.8,180.3,96.2,179.8,95,178.8z"/>
</g>
</svg>
