<?xml version="1.0" encoding="utf-8"?>
<!-- Generator: Adobe Illustrator 19.1.0, SVG Export Plug-In . SVG Version: 6.00 Build 0)  -->
<svg version="1.1" id="Layer_1" xmlns="http://www.w3.org/2000/svg" xmlns:xlink="http://www.w3.org/1999/xlink" x="0px" y="0px"
	 viewBox="0 0 250 250" style="enable-background:new 0 0 250 250;" xml:space="preserve">
<style type="text/css">
	.st0{fill:#6633CC;}
	.st1{fill:#FFFFFF;}
	.st2{fill:#A2B9DE;}
	.st3{fill:#FCFDFF;}
	.st4{fill:#FEFEFE;}
	.st5{display:none;}
	.st6{display:inline;}
	.st7{display:inline;clip-path:url(#SVGID_2_);}
	.st8{fill:#0179C7;}
	.st9{fill:#01A337;}
	.st10{fill:#00AB2C;}
	.st11{fill:#00B51B;}
	.st12{fill:#0199C2;}
	.st13{fill:#019B60;}
	.st14{fill:#0284CE;}
	.st15{fill:#69D502;}
	.st16{fill:#36CC02;}
	.st17{fill:#00BC0E;}
	.st18{fill:#02C602;}
	.st19{fill:#FAE21D;}
	.st20{fill:#FDC3C5;}
	.st21{fill:#CBEE21;}
	.st22{fill:#FE32AA;}
	.st23{fill:#FDBADD;}
	.st24{fill:#FE7A2D;}
	.st25{fill:#FDB627;}
	.st26{fill:#445FBE;}
	.st27{fill:#329EE1;}
	.st28{fill:#C238B5;}
	.st29{fill:#3479CA;}
	.st30{fill:#FE5D3B;}
	.st31{fill:#8044B2;}
	.st32{fill:#8DE82C;}
	.st33{fill:#019C94;}
	.st34{fill:#01379B;}
	.st35{fill:#0160B5;}
	.st36{fill:#018FD5;}
	.st37{fill:#008FC1;}
	.st38{fill:#025EB4;}
	.st39{fill:#02B718;}
	.st40{fill:#019A8E;}
	.st41{fill:#019E61;}
	.st42{fill:#019D6A;}
	.st43{fill:#00B520;}
	.st44{fill:#04C603;}
	.st45{fill:#02BB0D;}
	.st46{fill:#0099AA;}
	.st47{fill:#019BAA;}
	.st48{fill:#5BD301;}
	.st49{fill:#B2E400;}
	.st50{fill:#7ADA01;}
	.st51{fill:#C9E901;}
	.st52{fill:#FCE801;}
	.st53{fill:#FDD902;}
	.st54{fill:#ECED01;}
	.st55{fill:#FED300;}
	.st56{fill:#FE2115;}
	.st57{fill:#FD0045;}
	.st58{fill:#FD0430;}
	.st59{fill:#FE0054;}
	.st60{fill:#FE0D23;}
	.st61{fill:#FB300E;}
	.st62{fill:#FC111E;}
	.st63{fill:#A5E203;}
	.st64{fill:#FC007F;}
	.st65{fill:#E50186;}
	.st66{fill:#D80188;}
	.st67{fill:#FE006B;}
	.st68{fill:#FD4A01;}
	.st69{fill:#FD6D02;}
	.st70{fill:#FD6303;}
	.st71{fill:#FD5202;}
	.st72{fill:#FDA001;}
	.st73{fill:#FDBC03;}
	.st74{fill:#172690;}
	.st75{fill:#16238F;}
	.st76{fill:#9F0287;}
	.st77{fill:#6B0787;}
	.st78{fill:#024CA2;}
	.st79{fill:#4D0D85;}
	.st80{fill:#0344A3;}
	.st81{fill:#2B208C;}
	.st82{fill:#019590;}
	.st83{fill:#0180A1;}
	.st84{fill:#42CD01;}
	.st85{fill:#68BA03;}
	.st86{fill:#7ED902;}
	.st87{fill:#12AF36;}
	.st88{fill:#43D003;}
	.st89{fill:#A1E101;}
	.st90{fill:#B5E600;}
	.st91{fill:#DBEB02;}
	.st92{fill:#FC9600;}
	.st93{fill:#FDC302;}
	.st94{fill:#FCBE05;}
	.st95{fill:#F3730B;}
	.st96{fill:#F10839;}
	.st97{fill:#FE370A;}
	.st98{fill:#E40163;}
	.st99{fill:#DF007D;}
	.st100{fill:#BE0187;}
	.st101{fill:#FD8A02;}
	.st102{fill:#8D0486;}
	.st103{fill:#0373AD;}
	.st104{fill:#79B30B;}
	.st105{fill:#5FA93D;}
	.st106{fill:#8AAA18;}
	.st107{fill:#96E001;}
	.st108{fill:#B7E502;}
	.st109{fill:#ACE402;}
	.st110{fill:#FD6601;}
	.st111{fill:#E1781C;}
	.st112{fill:#C08E11;}
	.st113{fill:#D4017E;}
	.st114{fill:#C30283;}
	.st115{display:inline;clip-path:url(#SVGID_4_);fill:#52627B;}
	.st116{opacity:7.000000e-002;clip-path:url(#SVGID_6_);}
	.st117{opacity:7.000000e-002;clip-path:url(#SVGID_8_);}
	.st118{opacity:7.000000e-002;clip-path:url(#SVGID_10_);}
	.st119{display:inline;opacity:7.000000e-002;clip-path:url(#SVGID_12_);}
</style>
<g>
	<circle class="st0" cx="125" cy="124.3" r="102.8"/>
	<g>
		<path class="st1" d="M126.2,185.4c-12.2,0-24.4-0.1-36.6,0.1c-2.5,0-3.4-0.8-4.1-3.1c-7.4-22.6-14.8-45.1-22.4-67.7
			c-0.9-2.6-0.6-4,1.8-5.7c19.6-13.8,39.1-27.7,58.6-41.7c2-1.5,3.3-1.7,5.4-0.1c19.6,14.2,39.4,28.2,59.1,42.2
			c2,1.4,2.3,2.6,1.6,4.9c-7.6,22.8-15.1,45.6-22.6,68.4c-0.7,2-1.5,2.9-3.9,2.9C150.9,185.3,138.6,185.4,126.2,185.4z M151.3,165
			L151.3,165c1.7-0.2,2.2,1.2,2.9,2.3c2.8,3.8,5.5,7.6,8.6,11.9c7.1-21.4,14-42.2,21-63.5c-2.8,0.8-5.1,1.2-7.3,2
			c-1.8,0.7-2.7-0.1-3.2-1.5c-0.6-1.7,1-1.6,2-1.9c2.4-0.7,4.8-1.5,7.6-2.4c-6.2-4.4-11.9-8.5-17.7-12.6c-11.2-8-22.4-16-33.7-24
			c-0.9-0.7-1.9-2.3-3.1-1.5c-1.1,0.7-0.4,2.3-0.4,3.5c-0.1,1.4-0.1,2.8,0,4.1c0,1.2,0,2.2-1.7,2.1c-1.7,0-1.7-1-1.7-2.2
			c0-2.6,0-5.2,0-8.6c-18.7,13.3-36.7,26.2-55.1,39.3c2.9,0.9,5.3,1.5,7.6,2.3c1.3,0.5,3,1,2.3,3c-0.7,1.9-2.1,0.7-3.1,0.5
			c-2.4-0.5-4.7-1.3-7.4-2c7,21.2,13.9,41.9,20.8,62.8c2.5-2.2,3.4-5.2,5.7-7c0.9,0.1,0.6,1.7,1.9,1.6c0.8,2-1.4,2.7-1.9,4.1
			c-0.4,1-2,1.7-1.2,2.8c0.4,0.5,1.8,0.4,2.8,0.4c19.5,0,38.9,0,58.4,0c1,0,2.2,0.4,3.4-0.6c-2.5-3.5-4.7-7.1-7.4-10.3
			C149.9,167.9,150.2,166.6,151.3,165z"/>
		<path class="st1" d="M95.4,171.6c-0.8-3-1.7-6.1,1-8.8c0.9-0.9,0.3-1.8,0-2.8c-2.9-10.7-5.8-21.5-8.7-32.2
			c-0.5-1.8-1.2-2.9-3.2-3.6c-3.3-1.2-4.4-4.1-3.4-7.3c0.9-2.9,4.1-4.7,7.2-3.7c1.7,0.5,2.7,0.3,4.1-0.7
			c8.2-6.1,16.5-12.2,24.9-18.2c1.5-1.1,2.3-2.3,2.6-4.2c0.4-3,2.5-5,5.7-5.1c3.1-0.1,5.3,1.7,6,4.7c0.3,1.6,1.1,2.3,2.2,3.2
			c8.9,6.3,17.8,12.6,26.7,18.9c1.3,1,2.6,1.5,4.5,1.1c3.7-0.8,6.3,1,7.2,4.3c0.8,2.9-0.8,5.9-4.2,7c-1.4,0.4-2,1.1-2.6,2.3
			c-4.2,9.5-8.5,18.9-12.8,28.4c-0.3,0.8-0.9,1.9-0.6,2.4c1.7,2.8,0,5.2-0.7,7.8c0,0,0-0.1,0-0.1c-3.5,1.4-6.8,2.2-9.7-1.2
			c-0.7-0.9-1.9-0.4-2.9-0.3c-10.2,1.2-20.4,2.5-30.6,3.7c-0.8,0.1-1.6,0.3-1.8,1.1c-1.2,5-5.1,5.1-9.1,4.9
			C96,173.4,96.3,171.8,95.4,171.6z M107.4,164.2c10.4-1.3,20.3-2.6,30.2-3.9c0.2,0,0.5-0.1,0.7-0.1c1.4-0.1,2.2-0.9,2.7-2.2
			c1-2.5,3-3.9,5.5-3.6c2.2,0.2,2.8-0.9,3.5-2.5c3.5-7.7,7.1-15.5,10.6-23.2c1.2-2.6,3.2-5.2,0-7.9c-0.8-0.7-0.8-1.9-0.5-2.9
			c0.5-2-0.5-2.9-2-3.9c-8.2-5.7-16.7-11.1-24.5-17.4c-4.3-3.5-8.5,3.2-12.3-1c-0.5-0.5-1.5,0.6-2.2,1.1c-0.4,0.3-0.8,0.6-1.2,0.9
			c-7.1,5.2-14.1,10.4-21.2,15.6c-2.5,1.8-5.5,3.2-4.6,7.2c0.1,0.6-0.4,1.5-0.9,2c-1.5,1.3-1.3,2.6-0.8,4.4
			c2.9,10.3,5.7,20.7,8.5,31.1C100,160.9,104.7,164.3,107.4,164.2z"/>
		<path class="st1" d="M126,154.4c-4.5,0-9-0.1-13.6,0c-1.6,0-2.2-0.3-2.1-2.1c0.6-5.9,0.9-11.8,1.7-17.6c0.5-3.3,3.4-4.9,6.3-5.7
			c1-0.3,3.3-0.1,2.7,2.4c-0.1,0.6,0,1.3,0.1,1.9c0.2,1.3,0.2,3.1,2.1,2.9c1.7-0.1,1.3-1.8,1.5-3c0.2-1.1-0.8-2.8,0.8-3.3
			c2-0.7,3.3,0,3.1,2.6c-0.1,1.3-0.9,3.7,1,3.8c1.9,0.1,1.7-2.4,1.9-4c0.4-4.3,1-4.6,4.8-2.6c2.1,1.1,3.6,2.7,3.9,5.2
			c0.7,5.6,1.3,11.2,2,16.8c0.3,1.9-0.3,2.6-2.4,2.6C135.3,154.3,130.6,154.4,126,154.4C126,154.4,126,154.4,126,154.4z"/>
		<path class="st1" d="M118.6,113.5c-0.2-5.3,3-7.9,9.3-7.6c4,0.2,6.6,3.7,6.2,8.2c-0.3,3.4-1.2,6.6-3.3,9.4
			c-2.5,3.4-6.1,3.4-8.8,0.1C120.2,121.4,118.7,117,118.6,113.5z"/>
		<path class="st1" d="M149.7,124.2c-0.5,0.1-1-0.4-1.2-1.2c-0.3-0.9,0.4-0.9,1-1.1c2.6-0.7,5.3-1.4,7.9-2.1c0.9-0.2,1.8-0.2,2,1
			c0.2,1.1-0.7,1.1-1.4,1.3C155.4,122.7,152.8,123.4,149.7,124.2z"/>
		<path class="st1" d="M101.5,124.2c-2.3-0.6-4.3-1.2-6.3-1.8c-0.8-0.3-1.7-0.7-1.2-1.8c0.4-1,1.1-0.6,1.9-0.4c2,0.6,4,1.2,6.1,1.8
			c0.8,0.2,1.9,0.2,1.6,1.5C103.2,124.5,102.1,124.3,101.5,124.2z"/>
		<path class="st1" d="M104.8,161.2c-0.6-0.3-1.4-0.7-1.2-1.3c0.5-1.2,0.9-2.6,2.3-3c0.5-0.1,1.7,0.3,1.3,1.3
			C106.7,159.3,106.2,160.7,104.8,161.2z"/>
		<path class="st1" d="M124.6,100c0.2-0.9-0.3-2.3,1.3-2.1c1.4,0.2,1,1.4,1,2.3c0,0.9,0.3,2.2-1.3,2
			C124.2,102.1,124.9,100.8,124.6,100z"/>
	</g>
</g>
</svg>
