<?xml version="1.0" encoding="utf-8"?>
<!-- Generator: Adobe Illustrator 19.1.0, SVG Export Plug-In . SVG Version: 6.00 Build 0)  -->
<svg version="1.1" id="Layer_1" xmlns="http://www.w3.org/2000/svg" xmlns:xlink="http://www.w3.org/1999/xlink" x="0px" y="0px"
	 viewBox="0 0 100 100" style="enable-background:new 0 0 100 100;" xml:space="preserve">
<style type="text/css">
	.st0{fill:#FFFFFF;}
	.st1{fill:#C0C0BF;}
	.st2{fill:#948E9D;}
	.st3{fill:#BDBFB8;}
	.st4{fill:#ECECEC;}
	.st5{fill:#F7F7F7;}
	.st6{fill:#573D81;}
	.st7{fill:#442F67;}
	.st8{fill:#FEFEFE;}
	.st9{fill:#FCFCFC;}
	.st10{fill:#5E5757;}
	.st11{fill:#8775A5;}
	.st12{fill:#8876A6;}
	.st13{fill:#F8F7F9;}
	.st14{fill:#FDFCFD;}
	.st15{fill:#FDFDFD;}
	.st16{fill:#FBFBFC;}
	.st17{fill:#EAE7EF;}
	.st18{fill:#F8F7FA;}
	.st19{fill:#462975;}
	.st20{fill:#3FB58F;}
	.st21{fill:#F4BF83;}
	.st22{fill:#494586;}
	.st23{fill:#67546F;}
	.st24{fill:#F3F3F3;}
	.st25{fill:#40B991;}
	.st26{fill:#8A79A8;}
	.st27{fill:#8A78A7;}
	.st28{fill:#D7D7D7;}
	.st29{fill:#D5D5D5;}
	.st30{fill:#D4D4D4;}
	.st31{fill:#6FCADB;}
	.st32{fill:#FEC485;}
	.st33{fill:#E01764;}
	.st34{fill:#F8F8F8;}
	.st35{fill:#D6D6D6;}
	.st36{fill:#34C1DC;}
</style>
<g>
	<circle class="st36" cx="52.9" cy="51.4" r="42.7"/>
	<g>
		<g>
			<g>
				<g>
					<g>
						<g>
							<g>
								<path class="st0" d="M59,33.9l-1.8-0.5c-0.2-0.1-0.4-0.1-0.7,0.1c-0.2,0.1-0.4,0.3-0.4,0.6L45.6,70.6
									c-0.1,0.2-0.1,0.5,0.1,0.7c0.1,0.2,0.3,0.4,0.6,0.4l1.8,0.5c0.2,0.1,0.4,0.1,0.7-0.1c0.2-0.1,0.4-0.3,0.4-0.6L59.7,35
									c0.1-0.2,0.1-0.5-0.1-0.7C59.5,34.1,59.3,34,59,33.9z"/>
								<path class="st0" d="M43.2,41c0-0.2-0.1-0.5-0.3-0.7L41.5,39c-0.2-0.2-0.4-0.3-0.7-0.3s-0.5,0.1-0.7,0.3L27,52.2
									c-0.2,0.2-0.3,0.4-0.3,0.7s0.1,0.5,0.3,0.7l13.2,13.2c0.2,0.2,0.4,0.3,0.7,0.3s0.5-0.1,0.7-0.3l1.4-1.4
									c0.2-0.2,0.3-0.4,0.3-0.7c0-0.2-0.1-0.5-0.3-0.7L31.8,52.8l11.1-11.1C43.1,41.5,43.2,41.3,43.2,41z"/>
								<path class="st0" d="M78.3,52.2L65.1,39c-0.2-0.2-0.4-0.3-0.7-0.3c-0.2,0-0.5,0.1-0.7,0.3l-1.4,1.4
									c-0.2,0.2-0.3,0.4-0.3,0.7s0.1,0.5,0.3,0.7l11.1,11.1L62.4,63.9c-0.2,0.2-0.3,0.4-0.3,0.7c0,0.2,0.1,0.5,0.3,0.7l1.4,1.4
									c0.2,0.2,0.4,0.3,0.7,0.3c0.2,0,0.5-0.1,0.7-0.3l13.2-13.2c0.2-0.2,0.3-0.4,0.3-0.7C78.6,52.6,78.5,52.3,78.3,52.2z"/>
							</g>
						</g>
					</g>
				</g>
			</g>
		</g>
	</g>
</g>
</svg>
