<?xml version="1.0" encoding="utf-8"?>
<!-- Generator: Adobe Illustrator 19.1.0, SVG Export Plug-In . SVG Version: 6.00 Build 0)  -->
<svg version="1.1" id="Layer_1" xmlns="http://www.w3.org/2000/svg" xmlns:xlink="http://www.w3.org/1999/xlink" x="0px" y="0px"
	 viewBox="0 0 100 100" style="enable-background:new 0 0 100 100;" xml:space="preserve">
<style type="text/css">
	.st0{fill:#FFFFFF;}
	.st1{fill:#C0C0BF;}
	.st2{fill:#948E9D;}
	.st3{fill:#BDBFB8;}
	.st4{fill:#ECECEC;}
	.st5{fill:#F7F7F7;}
	.st6{fill:#573D81;}
	.st7{fill:#442F67;}
	.st8{fill:#FEFEFE;}
	.st9{fill:#FCFCFC;}
	.st10{fill:#5E5757;}
	.st11{fill:#8775A5;}
	.st12{fill:#8876A6;}
	.st13{fill:#F8F7F9;}
	.st14{fill:#FDFCFD;}
	.st15{fill:#FDFDFD;}
	.st16{fill:#FBFBFC;}
	.st17{fill:#EAE7EF;}
	.st18{fill:#F8F7FA;}
	.st19{fill:#462975;}
	.st20{fill:#3FB58F;}
	.st21{fill:#F4BF83;}
	.st22{fill:#494586;}
	.st23{fill:#67546F;}
	.st24{fill:#F3F3F3;}
	.st25{fill:#40B991;}
	.st26{fill:#8A79A8;}
	.st27{fill:#8A78A7;}
	.st28{fill:#D7D7D7;}
	.st29{fill:#D5D5D5;}
	.st30{fill:#D4D4D4;}
	.st31{fill:#6FCADB;}
	.st32{fill:#FEC485;}
	.st33{fill:#E01764;}
	.st34{fill:#F8F8F8;}
	.st35{fill:#D6D6D6;}
	.st36{fill:#34C1DC;}
</style>
<circle class="st36" cx="50" cy="50" r="42.7"/>
<g>
	<g>
		<g>
			<g>
				<g>
					<g>
						<path class="st0" d="M76.1,26.1H23.8c-2.8,0-5.1,2.3-5.1,5.1v4.9c0,0.6,0.5,1.1,1.1,1.1s1.1-0.5,1.1-1.1v-4.9
							c0-1.6,1.3-2.9,2.9-2.9h52.3c1.6,0,2.9,1.3,2.9,2.9v32.6c0,0.6,0.5,1.1,1.1,1.1s1.1-0.5,1.1-1.1V31.1
							C81.2,28.3,78.9,26.1,76.1,26.1z"/>
					</g>
				</g>
				<g>
					<g>
						<path class="st0" d="M80.1,66.7c-0.6,0-1.1,0.5-1.1,1.1c0,1.6-1.3,2.9-2.9,2.9H23.8c-1.6,0-2.9-1.3-2.9-2.9V40.3
							c0-0.6-0.5-1.1-1.1-1.1c-0.6,0-1.1,0.5-1.1,1.1v27.5c0,2.8,2.3,5.1,5.1,5.1h21l-1.3,5.6h-5.2c-0.6,0-1.1,0.5-1.1,1.1
							s0.5,1.1,1.1,1.1h6.1h11.3h6.1c0.6,0,1.1-0.5,1.1-1.1s-0.5-1.1-1.1-1.1h-5.2l-1.3-5.6h21c2.8,0,5.1-2.3,5.1-5.1
							C81.2,67.2,80.7,66.7,80.1,66.7z M45.7,78.5l1.3-5.6h5.9l1.3,5.6H45.7z"/>
					</g>
				</g>
				<g>
					<g>
						<path class="st0" d="M76.4,65.2H23.5c-0.6,0-1.1,0.5-1.1,1.1s0.5,1.1,1.1,1.1h52.9c0.6,0,1.1-0.5,1.1-1.1S77,65.2,76.4,65.2z"
							/>
					</g>
				</g>
				<g>
					<g>
						<path class="st0" d="M76.4,31.5H23.5c-0.6,0-1.1,0.5-1.1,1.1s0.5,1.1,1.1,1.1h52.9c0.6,0,1.1-0.5,1.1-1.1S77,31.5,76.4,31.5z"
							/>
					</g>
				</g>
				<g>
					<g>
						<path class="st0" d="M52.4,40h-3.7v0c-0.6,0-1.1,0.5-1.1,1.1v16.7c0,0.6,0.5,1.1,1.1,1.1s1.1-0.5,1.1-1.1v-4.2h2.6
							c2.2,0,4-1.8,4-4v-5.5C56.5,41.9,54.7,40,52.4,40z M54.3,49.5c0,1-0.8,1.8-1.8,1.8h-2.6v-9.1h2.6c1,0,1.8,0.8,1.8,1.8V49.5z"
							/>
					</g>
				</g>
				<g>
					<g>
						<path class="st0" d="M43.5,57.6l-1.4-5.3c-0.2-0.6-0.7-0.9-1.3-0.8c-0.6,0.2-0.9,0.7-0.8,1.3l0.1,0.4h-4l2-7.7l1,4
							c0.2,0.6,0.7,0.9,1.3,0.8c0.6-0.2,0.9-0.7,0.8-1.3l-2.1-8.2c-0.1-0.5-0.6-0.8-1.1-0.8c-0.5,0-0.9,0.3-1.1,0.8l-4.3,16.7
							c-0.2,0.6,0.2,1.2,0.8,1.3c0.1,0,0.2,0,0.3,0c0.5,0,0.9-0.3,1.1-0.8l0.7-2.6h5.1l0.7,2.6c0.1,0.5,0.6,0.8,1.1,0.8
							c0.1,0,0.2,0,0.3,0C43.3,58.7,43.6,58.1,43.5,57.6z"/>
					</g>
				</g>
				<g>
					<g>
						<path class="st0" d="M66,56.7h-1.9V42.2H66c0.6,0,1.1-0.5,1.1-1.1c0-0.6-0.5-1.1-1.1-1.1h-6c-0.6,0-1.1,0.5-1.1,1.1
							c0,0.6,0.5,1.1,1.1,1.1h1.9v14.5H60c-0.6,0-1.1,0.5-1.1,1.1s0.5,1.1,1.1,1.1h6c0.6,0,1.1-0.5,1.1-1.1
							C67.1,57.2,66.7,56.7,66,56.7z"/>
					</g>
				</g>
			</g>
		</g>
	</g>
</g>
</svg>
