<?xml version="1.0" encoding="utf-8"?>
<!-- Generator: Adobe Illustrator 21.0.2, SVG Export Plug-In . SVG Version: 6.00 Build 0)  -->
<svg version="1.1" id="Layer_1" xmlns="http://www.w3.org/2000/svg" xmlns:xlink="http://www.w3.org/1999/xlink" x="0px" y="0px"
	 viewBox="0 0 129 129" style="enable-background:new 0 0 129 129;" xml:space="preserve">
<style type="text/css">
	.st0{fill:#E10005;}
	.st1{fill:#FFFFFF;}
	.st2{fill:#CD0000;}
	.st3{fill:#B80000;}
	.st4{fill:#A40000;}
	.st5{fill:#FAFAFA;}
	.st6{fill:#8F0000;}
	.st7{fill:#7B0000;}
	.st8{fill:#670000;}
	.st9{fill:#49AB17;}
	.st10{fill:#FBFBFB;}
	.st11{fill:#329400;}
	.st12{fill:#1B7D00;}
	.st13{fill:#046600;}
</style>
<g>
	<path class="st13" d="M116.2,124.7H12.8c-4.7,0-8.4-3.8-8.4-8.4V12.8c0-4.7,3.8-8.4,8.4-8.4h103.5c4.7,0,8.4,3.8,8.4,8.4v103.5
		C124.7,120.9,120.9,124.7,116.2,124.7z"/>
	<path class="st1" d="M76.4,99.4c-15.9-0.8-29.2-4.1-40.9-12.7c-2.5-1.9-4.8-4.4-6.4-7c-2.4-3.5-1.4-6.7,1.8-9.4s6.3-5.6,9.2-8.7
		c3.6-3.8,5.5-8.7,8-13.2c1.9-3.3,3.9-6.5,6.2-9.7c2.3-3,5.5-4.8,9.3-5.3c1.8-0.3,2.6-1,3.4-2.6c0.4-1,1.6-1.9,2.6-2.1
		c4-0.9,7.7,0.3,10.9,2.8c1.3,1,1.6,2.4,1.3,4c-0.1,0.6-0.1,1.8,0.4,2.1c5.8,4,7.4,9.9,7.3,16.6c0,3.5-0.1,7-0.4,10.5
		c-0.6,7.3,0.9,14.2,3.8,20.7c2.9,6.7-0.3,10.4-5.8,12C82.8,98.7,78.6,98.9,76.4,99.4z M77.4,94.6c2-0.4,5.3-0.9,8.4-1.9
		c2.8-0.9,3.3-3.3,1.6-5.6c-0.8-1.1-1.8-2.1-2.8-3c-4.6-3.8-10-6.2-15.7-8c-8.5-2.9-17.2-4.9-26.2-4.5c-2.4,0.1-4.9,0.6-7.2,1.4
		c-3,1.1-3.6,3.6-1.8,6.2c1,1.4,2.3,2.6,3.6,3.5C49.3,90.4,62.3,93.5,77.4,94.6z"/>
	<path class="st1" d="M72.1,90c-3.6,0-6.4-1.1-8.8-3.3c-2.4-2.3-2.9-5.8-0.8-7.7c0.6-0.6,1.9-1,2.5-0.8c4.3,1.6,8.4,3.4,12.6,5.1
		c1.5,0.6,1.4,2,0.8,3.1C77,89.4,74.4,89.9,72.1,90z"/>
</g>
</svg>
