<?xml version="1.0" encoding="utf-8"?>
<!-- Generator: Adobe Illustrator 21.0.2, SVG Export Plug-In . SVG Version: 6.00 Build 0)  -->
<svg version="1.1" id="Layer_1" xmlns="http://www.w3.org/2000/svg" xmlns:xlink="http://www.w3.org/1999/xlink" x="0px" y="0px"
	 viewBox="0 0 129 129" style="enable-background:new 0 0 129 129;" xml:space="preserve">
<style type="text/css">
	.st0{fill:#E10005;}
	.st1{fill:#FFFFFF;}
	.st2{fill:#CD0000;}
	.st3{fill:#B80000;}
	.st4{fill:#A40000;}
	.st5{fill:#FAFAFA;}
	.st6{fill:#8F0000;}
	.st7{fill:#7B0000;}
	.st8{fill:#670000;}
	.st9{fill:#49AB17;}
	.st10{fill:#FBFBFB;}
	.st11{fill:#329400;}
	.st12{fill:#1B7D00;}
	.st13{fill:#046600;}
</style>
<g>
	<path class="st11" d="M116.2,124.7H12.8c-4.7,0-8.4-3.8-8.4-8.4V12.8c0-4.7,3.8-8.4,8.4-8.4h103.5c4.7,0,8.4,3.8,8.4,8.4v103.5
		C124.7,120.9,120.9,124.7,116.2,124.7z"/>
	<path class="st1" d="M63.3,107.3V94c-0.8,0-1.3-0.1-1.8-0.1c-10.1-0.4-19.3-3.5-26.7-10c-9-7.8-13.2-17.6-10.9-29.1
		c2.6-13.2,11.7-21.4,24.8-26.1c3.3-1.1,6.9-1.5,10.3-2.3c2.9,0,5.7,0,8.5,0.1c4.4,1.1,9,1.8,13.3,3.5c20.5,8.1,28.1,29.9,17.2,47.9
		c-5.8,9.6-14.1,16.9-23.6,23.1c-3.5,2.4-7.2,4.3-10.8,6.5C63.4,107.4,63.4,107.4,63.3,107.3z M71.5,58.3c0.1,0-1.4,0-1.2,0
		c0,3.7,0,7.3,0,11c1.5,0,2.6,0,4,0c0-6.3,0-18.7,0-18.7c-3-0.4-2.1-0.3-5.1-0.6c-1.3,4.9-2.6,9.6-3.7,14.4c-0.2,0-0.2,0-0.4,0
		c-1.3-4.6-2.5-9.2-3.8-14h-5c0,6.7,0,12.8,0,19c1.4,0,2.6,0,4,0c0-3.8,0-7.5,0-11.1c1.5,3.2,2.8,6.6,3.9,9.9
		c0.3,0.9,0.6,1.4,1.9,1.4c1.4,0,1.8-0.5,2.1-1.4C69.1,64.9,70.2,61.7,71.5,58.3z M38.3,58.3c0.1,0,0.3,0,0.5,0
		c1,3.2,2.2,6.4,3.3,9.5c0.3,0.7,0.3,1.6,1.7,1.7c1.6,0,1.6-1,1.8-1.7c1.2-3.2,2.2-6.4,3.3-9.6c0.2,0,0.2,0,0.4,0.1v11
		c1.4,0,1.7,0,3,0c0-6.5,0-13,0-19.4c-5-0.6-5-0.6-6.2,3.7c0,0.3-0.1,0.5-0.1,0.6c-0.9,3.2-1.8,6.4-2.5,9.6
		c-1.5-4.3-2.6-8.6-3.8-12.9c-0.1-0.5-0.6-1.1-1-1.1c-1.4-0.1-2.9,0-4.4,0c0,6.6,0,13.2,0,19.5c1.3,0,2.8,0,4,0
		C38.3,65.6,38.3,62,38.3,58.3z M77.7,63.7c-0.3,4.1,3.4,6,6.9,6.3c3.3,0.3,6.3-2.2,6.6-5.4c0.3-2.6-0.9-4.5-3.6-5.7
		c-1.5-0.8-3.2-1.3-4.6-2c-1.3-0.8-1.4-1.9-0.8-3.2c0.6-1.1,1.9-1.7,3.1-1c1,0.5,1.7,1.7,2.7,2.7c0.6,0,1.8,0,2.9,0
		c0-3.1-1.9-5.1-5-5.6c-3.4-0.6-6.5,0.9-7.7,3.7c-1,2.6,0,4.7,3.2,6.4c1.5,0.8,3.4,1.3,4.7,2.3c0.8,0.6,1.4,2.2,1.1,3.2
		c-0.1,0.8-1.7,1.4-2.8,1.7c-2,0.4-2.4-0.3-3.3-3.3C80.1,63.7,78.9,63.7,77.7,63.7z"/>
</g>
</svg>
