<?xml version="1.0" encoding="utf-8"?>
<!-- Generator: Adobe Illustrator 21.0.2, SVG Export Plug-In . SVG Version: 6.00 Build 0)  -->
<svg version="1.1" id="Layer_1" xmlns="http://www.w3.org/2000/svg" xmlns:xlink="http://www.w3.org/1999/xlink" x="0px" y="0px"
	 viewBox="0 0 129 129" style="enable-background:new 0 0 129 129;" xml:space="preserve">
<style type="text/css">
	.st0{fill:#E10005;}
	.st1{fill:#FFFFFF;}
	.st2{fill:#CD0000;}
	.st3{fill:#B80000;}
	.st4{fill:#A40000;}
	.st5{fill:#FAFAFA;}
	.st6{fill:#8F0000;}
	.st7{fill:#7B0000;}
	.st8{fill:#670000;}
	.st9{fill:#49AB17;}
	.st10{fill:#FBFBFB;}
	.st11{fill:#329400;}
	.st12{fill:#1B7D00;}
	.st13{fill:#046600;}
</style>
<g>
	<path class="st12" d="M116.2,124.7H12.8c-4.7,0-8.4-3.8-8.4-8.4V12.8c0-4.7,3.8-8.4,8.4-8.4h103.5c4.7,0,8.4,3.8,8.4,8.4v103.5
		C124.7,120.9,120.9,124.7,116.2,124.7z"/>
	<path class="st1" d="M95.2,98.5c-4.3-1.6-8.4-3-12.5-4.6c-2.3-1-4.4-1-6.9,0c-21,7.7-42.8-5.1-46.8-25.6
		C26.7,56,32.4,42.5,43.6,34.9c19-13,45.6-4.2,52.8,17.3c3.3,9.8,2,19.1-3.5,27.9c-1.2,2-1.5,3.7-0.9,5.9
		C93.3,89.9,94.1,94,95.2,98.5z M52.8,63.6c0-2.8-2.5-5.3-5.3-5.4c-3,0-5.4,2.6-5.4,5.4c0,2.8,2.5,5.3,5.3,5.4
		C50.2,69.1,52.8,66.5,52.8,63.6z M74.1,63.6c0,2.8,2.5,5.3,5.3,5.4c2.8,0.1,5.6-2.5,5.6-5.4c0-3-2.6-5.4-5.4-5.4
		C76.6,58.3,74.1,60.8,74.1,63.6z M63.4,58.2c-2.8,0-5.3,2.5-5.4,5.3c-0.1,2.8,2.6,5.6,5.4,5.6c2.8,0,5.3-2.5,5.4-5.3
		C68.9,60.8,66.3,58.2,63.4,58.2z"/>
</g>
</svg>
