<?xml version="1.0" encoding="utf-8"?>
<!-- Generator: Adobe Illustrator 21.0.2, SVG Export Plug-In . SVG Version: 6.00 Build 0)  -->
<svg version="1.1" id="Layer_1" xmlns="http://www.w3.org/2000/svg" xmlns:xlink="http://www.w3.org/1999/xlink" x="0px" y="0px"
	 viewBox="0 0 129 129" style="enable-background:new 0 0 129 129;" xml:space="preserve">
<style type="text/css">
	.st0{fill:#E10005;}
	.st1{fill:#FFFFFF;}
	.st2{fill:#CD0000;}
	.st3{fill:#B80000;}
	.st4{fill:#A40000;}
	.st5{fill:#FAFAFA;}
	.st6{fill:#8F0000;}
	.st7{fill:#7B0000;}
	.st8{fill:#670000;}
	.st9{fill:#49AB17;}
	.st10{fill:#FBFBFB;}
	.st11{fill:#329400;}
	.st12{fill:#1B7D00;}
	.st13{fill:#046600;}
</style>
<g>
	<path class="st9" d="M116.2,124.7H12.8c-4.7,0-8.4-3.8-8.4-8.4V12.8c0-4.7,3.8-8.4,8.4-8.4h103.5c4.7,0,8.4,3.8,8.4,8.4v103.5
		C124.7,120.9,120.9,124.7,116.2,124.7z"/>
	<path class="st10" d="M67.2,102.4c-0.2-3.8,0.5-7.4-0.7-10.9c-0.7-2.1-1.7-3.5-4.4-2.8c-13.1,3.1-26.4-5.3-30.3-16.9
		c-4.3-13,1.4-28.8,13-35.5c18.7-10.8,43,0.4,47.8,21.5c3.8,16.7-4.4,35.3-21.4,43.1C70.1,101.4,68.7,101.8,67.2,102.4z M62.3,67.2
		c-1.2-1.4-1.6-2.3-1.7-3.6c-0.1-3.3-1.7-6.3-2.5-9.5C57.4,51,54.7,52,52.7,52c-2.1,0-1.5,2-1.5,3.2c0,4.9,0,9.9,0,14.8
		c0,1.7-0.7,4,2.6,3.8c3.5-0.1,2.2-2.6,2.1-4.2c-0.2-3.6-0.7-7.2,0-10.8c1.2,3.6,2,7.3,3.1,10.9c0.5,1.5,0.2,4,2.6,4.1
		c2.5,0.1,2.2-2.3,2.8-4c0.9-2.3,1.6-4.8,2.5-7.3c0.6,2.8,0.6,5.7,0.6,8.4c0,1.7,0.9,2.8,2.8,2.7c2.1-0.1,2-1.5,2-3
		c0-5.1,0.1-10.1,0-15.2c0-1.5,1.2-3.7-2.1-3.8c-2.6,0-4.7-0.1-5.3,3.2C64.5,59.1,63.4,62.8,62.3,67.2z M42.5,74.1
		c2.8-0.5,5.6-1,6.4-4.3c0.9-3.5-0.5-5.9-3.5-7.7c-1.5-0.9-3.1-1.2-4.4-2c-1.1-0.6-2.1-1.7-1-3.1c1-1.1,2.2-1.2,3.5-0.4
		c0.4,0.2,0.6,0.7,0.9,1.1c1.1,1.6,3,1.6,4.1,0.7c1.5-1.1,0.4-2.8-0.6-4c-2-2.1-4.4-2.8-7.3-2.3c-2.7,0.5-5.1,1.9-5.6,4.9
		c-0.5,3,1,5.1,3.6,6.4c1.4,0.6,2.7,1.4,4.1,2c1.6,0.7,2.6,2.1,1.4,3.6c-1.1,1.5-2.7,1.1-4.1,0c-0.5-0.4-0.7-1-1.1-1.6
		c-1.1-1.6-2.8-1.2-4.1-0.5c-1.2,0.7-0.2,2.1,0.2,3.1C36.7,73.1,39.5,73.7,42.5,74.1z M82.3,52c-2.8,0.2-5.7,1-6.8,4.6
		c-1,3.6,0.9,5.8,3.7,7.4c1.4,0.7,2.8,1.1,4.1,1.9c1.4,0.7,2.1,2.1,1,3.5c-1,1.2-2.6,1.2-3.7,0.2C80,69,79.7,68,79.1,67.4
		c-1-1.2-2.3-0.7-3.6-0.5c-1.1,0.2-1,1.4-0.7,2.2c1.1,3.6,4.1,4.8,7.4,4.9c3,0.1,5.9-0.6,7-4c1.1-3.2-0.2-6.1-3.6-7.9
		c-1.5-0.7-3-1.2-4.4-2c-1.1-0.6-1.7-1.6-1-2.8c0.9-1.2,2.1-1.4,3.3-0.6c0.4,0.2,0.7,0.6,1,1.1c1.2,1.7,3.2,1.7,4.3,0.7
		c1.4-1.2,0-2.8-0.9-4C86.6,52.7,84.6,52.2,82.3,52z"/>
</g>
</svg>
