<?xml version="1.0" encoding="utf-8"?>
<!-- Generator: Adobe Illustrator 19.1.0, SVG Export Plug-In . SVG Version: 6.00 Build 0)  -->
<svg version="1.1" id="Layer_1" xmlns="http://www.w3.org/2000/svg" xmlns:xlink="http://www.w3.org/1999/xlink" x="0px" y="0px"
	 viewBox="-99 -20 760 600" style="enable-background:new -99 -20 760 600;" xml:space="preserve">
<style type="text/css">
	.st0{fill:#FFFFFF;}
	.st1{opacity:0.5;}
	.st2{fill:#F5F5F5;}
	.st3{fill:#BBBDBF;}
	.st4{fill:#F8FBFF;}
	.st5{fill:#E8E8E8;}
	.st6{fill:#CECECE;}
	.st7{fill:#563C81;}
	.st8{fill:#643E7C;}
	.st9{fill:#129FB9;}
	.st10{enable-background:new    ;}
	.st11{fill:#41BC92;}
	.st12{fill:#70CAD9;}
	.st13{fill:#F64287;}
	.st14{fill:#C6BC1F;}
</style>
<g>
	<g>
		<g>
			<g>
				<path class="st0" d="M2.6,75.8c-0.5-0.5-1.1-0.7-1.8-0.7c-0.7,0-1.3,0.2-1.8,0.7s-0.7,1.1-0.7,1.8c0,0.7,0.2,1.3,0.7,1.8
					s1,0.7,1.8,0.7c0.7,0,1.3-0.2,1.8-0.7s0.7-1,0.7-1.8C3.3,76.9,3.1,76.3,2.6,75.8z"/>
				<path class="st0" d="M23.3,75.9c-0.5-0.5-1.1-0.7-1.8-0.7s-1.3,0.2-1.8,0.7S19,77,19,77.7c0,0.7,0.2,1.3,0.7,1.8s1,0.7,1.8,0.7
					c0.7,0,1.3-0.2,1.8-0.7s0.7-1,0.7-1.8C24.1,77,23.8,76.4,23.3,75.9z"/>
			</g>
			<path class="st0" d="M21.4,82.5c0.7,1.5,1.1,3.2,1.1,4.9c0,3.1-1.1,5.8-3.3,8c-2.2,2.2-4.9,3.3-8,3.3s-5.8-1.1-8-3.3
				c-2.2-2.2-3.3-4.9-3.3-8c0-1.8,0.4-3.4,1.1-4.9h-3.2c-0.6,1.5-0.9,3.2-0.9,4.9c0,2,0.4,3.8,1.1,5.6c0.7,1.7,1.8,3.2,3.1,4.5
				c1.3,1.3,2.8,2.3,4.5,3.1c1.8,0.7,3.6,1.1,5.6,1.1s3.8-0.4,5.6-1.1c1.7-0.7,3.2-1.8,4.5-3.1c1.3-1.3,2.3-2.8,3.1-4.5
				c0.7-1.8,1.1-3.6,1.1-5.6c0-1.7-0.3-3.4-0.9-4.9H21.4z"/>
		</g>
	</g>
	<g>
		<path class="st0" d="M28.9,93.1c-0.4,0-0.8,0.1-1.2,0.3c-0.3,0.2-0.6,0.4-0.8,0.8c-0.2,0.4-0.3,0.7-0.3,1.2c0,0.4,0.1,0.9,0.3,1.2
			c0.2,0.4,0.4,0.6,0.8,0.8c0.3,0.2,0.7,0.3,1.1,0.3c0.4,0,0.8-0.1,1.2-0.2s0.6-0.4,0.9-0.6l0.7,0.7c-0.3,0.4-0.7,0.7-1.2,0.9
			s-1,0.3-1.5,0.3c-0.6,0-1.2-0.1-1.7-0.4s-0.9-0.7-1.2-1.2c-0.3-0.5-0.4-1-0.4-1.7s0.1-1.2,0.4-1.7s0.7-0.9,1.2-1.2
			c0.5-0.3,1-0.4,1.7-0.4c0.6,0,1,0.1,1.5,0.2c0.4,0.2,0.8,0.4,1.1,0.7l-0.6,0.8C30.3,93.3,29.6,93.1,28.9,93.1z"/>
		<path class="st0" d="M37.1,92.5c0.5,0.3,0.9,0.7,1.2,1.2s0.4,1,0.4,1.7s-0.1,1.2-0.4,1.7c-0.3,0.5-0.7,0.9-1.2,1.2
			c-0.5,0.3-1.1,0.4-1.7,0.4c-0.7,0-1.2-0.1-1.8-0.4c-0.5-0.3-0.9-0.7-1.2-1.2S32,96,32,95.4c0-0.7,0.1-1.2,0.4-1.7
			c0.3-0.5,0.7-0.9,1.2-1.2c0.5-0.3,1.1-0.4,1.8-0.4C36,92,36.6,92.2,37.1,92.5z M34.2,93.4c-0.3,0.2-0.6,0.5-0.8,0.8
			c-0.2,0.4-0.3,0.7-0.3,1.2c0,0.4,0.1,0.9,0.3,1.2s0.4,0.6,0.8,0.8c0.3,0.2,0.7,0.3,1.2,0.3s0.8-0.1,1.2-0.3
			c0.3-0.2,0.6-0.5,0.8-0.8c0.2-0.4,0.3-0.7,0.3-1.2c0-0.4-0.1-0.9-0.3-1.2s-0.4-0.6-0.8-0.8c-0.3-0.2-0.7-0.3-1.2-0.3
			S34.6,93.1,34.2,93.4z"/>
		<path class="st0" d="M45.5,92.7c0.4,0.4,0.7,1,0.7,1.8v4H45v-3.7c0-0.6-0.2-1-0.5-1.3S43.8,93,43.2,93s-1,0.2-1.4,0.6
			s-0.6,0.9-0.6,1.4v3.5H40v-6.4h1.2v1.4c0.4-0.9,1.3-1.4,2.5-1.4C44.5,92,45.1,92.3,45.5,92.7z"/>
		<path class="st0" d="M53.5,92.7c0.4,0.4,0.7,1,0.7,1.8v4H53v-3.7c0-0.6-0.2-1-0.5-1.3S51.8,93,51.2,93s-1,0.2-1.4,0.6
			s-0.6,0.9-0.6,1.4v3.5H48v-6.4h1.2v1.4c0.4-0.9,1.3-1.4,2.5-1.4C52.4,92,53.1,92.3,53.5,92.7z"/>
		<path class="st0" d="M60.5,92.9c0.5,0.6,0.8,1.4,0.8,2.5c0,0.2,0,0.3,0,0.4h-5.2c0.1,0.6,0.3,1,0.7,1.4s0.9,0.5,1.5,0.5
			c0.4,0,0.7-0.1,1.1-0.2c0.3-0.1,0.6-0.4,0.9-0.6l0.6,0.7c-0.3,0.4-0.7,0.6-1.2,0.8c-0.4,0.2-1,0.3-1.5,0.3c-0.7,0-1.2-0.1-1.7-0.4
			s-0.9-0.7-1.2-1.2s-0.4-1.1-0.4-1.7c0-0.7,0.1-1.2,0.4-1.7c0.3-0.5,0.7-0.9,1.2-1.2c0.5-0.3,1-0.4,1.7-0.4
			C59.2,92,60,92.3,60.5,92.9z M60.2,94.9c-0.1-0.6-0.2-1-0.6-1.4c-0.4-0.4-0.9-0.5-1.4-0.5s-1,0.2-1.5,0.5
			c-0.4,0.4-0.6,0.8-0.7,1.4H60.2z"/>
		<path class="st0" d="M65.4,93.1c-0.4,0-0.8,0.1-1.2,0.3c-0.3,0.2-0.6,0.4-0.8,0.8s-0.3,0.7-0.3,1.2c0,0.4,0.1,0.9,0.3,1.2
			s0.4,0.6,0.8,0.8c0.3,0.2,0.7,0.3,1.1,0.3s0.8-0.1,1.2-0.2s0.6-0.4,0.9-0.6l0.7,0.7c-0.3,0.4-0.7,0.7-1.2,0.9
			c-0.4,0.2-1,0.3-1.5,0.3c-0.6,0-1.2-0.1-1.7-0.4s-0.9-0.7-1.2-1.2s-0.4-1-0.4-1.7s0.1-1.2,0.4-1.7c0.3-0.5,0.7-0.9,1.2-1.2
			c0.5-0.3,1-0.4,1.7-0.4c0.6,0,1,0.1,1.5,0.2c0.4,0.2,0.8,0.4,1.1,0.7l-0.6,0.8C66.8,93.3,66.2,93.1,65.4,93.1z"/>
		<path class="st0" d="M72.8,98.2c-0.5,0.3-1,0.5-1.5,0.5s-0.9-0.2-1.3-0.5c-0.3-0.3-0.5-0.8-0.5-1.4v-3.6h-0.9v-0.9h0.9v-1.8h1.2
			v1.8h2v0.9h-2v3.4c0,0.4,0.1,0.6,0.2,0.8c0.1,0.2,0.3,0.2,0.6,0.2s0.7-0.1,1-0.3L72.8,98.2z"/>
		<path class="st0" d="M79.1,92.9c0.5,0.6,0.8,1.4,0.8,2.5c0,0.2,0,0.3,0,0.4h-5.2c0.1,0.6,0.3,1,0.7,1.4s0.9,0.5,1.5,0.5
			c0.4,0,0.7-0.1,1.1-0.2c0.3-0.1,0.6-0.4,0.9-0.6l0.6,0.7c-0.3,0.4-0.7,0.6-1.2,0.8s-1,0.3-1.5,0.3c-0.7,0-1.2-0.1-1.7-0.4
			s-0.9-0.7-1.2-1.2s-0.4-1.1-0.4-1.7c0-0.7,0.1-1.2,0.4-1.7c0.3-0.5,0.7-0.9,1.2-1.2c0.5-0.3,1-0.4,1.7-0.4
			C77.8,92,78.6,92.3,79.1,92.9z M78.8,94.9c-0.1-0.6-0.2-1-0.6-1.4c-0.4-0.4-0.9-0.5-1.4-0.5c-0.6,0-1,0.2-1.5,0.5
			c-0.4,0.4-0.6,0.8-0.7,1.4H78.8z"/>
		<path class="st0" d="M87.7,89.5v9.2h-1.2v-1.3c-0.2,0.4-0.6,0.8-1,1s-0.9,0.4-1.5,0.4s-1.2-0.1-1.7-0.4s-0.9-0.7-1.1-1.2
			c-0.2-0.5-0.4-1.1-0.4-1.7c0-0.7,0.1-1.2,0.4-1.7c0.2-0.5,0.6-0.9,1.1-1.2c0.5-0.3,1-0.4,1.7-0.4c0.6,0,1,0.1,1.5,0.4
			c0.4,0.2,0.7,0.6,1,1v-3.9L87.7,89.5L87.7,89.5z M85.5,97.4c0.3-0.2,0.6-0.5,0.8-0.9s0.3-0.7,0.3-1.2c0-0.4-0.1-0.9-0.3-1.2
			s-0.4-0.6-0.8-0.9c-0.3-0.2-0.7-0.3-1.2-0.3s-0.8,0.1-1.2,0.3c-0.3,0.2-0.6,0.5-0.8,0.9S82,94.8,82,95.3c0,0.4,0.1,0.9,0.3,1.2
			c0.2,0.4,0.4,0.6,0.8,0.9c0.3,0.2,0.7,0.3,1.2,0.3S85.1,97.6,85.5,97.4z"/>
		<path class="st0" d="M89.9,89.9h1.2v8.7h-1.2V89.9z"/>
		<path class="st0" d="M92,89.9h6.8V91H96v7.6h-1.2V91H92V89.9z"/>
	</g>
</g>
<g>
	<g>
		<g class="st1">
		</g>
		<path class="st2" d="M595,27.4c21,0,38,17.1,38,38.4v428.6c0,21.1-17.1,38.5-38.4,38.5H-32.3c-21.1,0.1-38.7-17-38.7-38.4V65.6
			C-71,44.5-53.7,27-32.3,27H595V27.4z"/>
		<path class="st3" d="M602.8,297.2c-0.1,0-0.1,0-0.2,0c-9.5,0-17.3-7.8-17.3-17.3c0-9.5,7.8-17.3,17.3-17.3
			c9.5,0,17.3,7.8,17.3,17.3c0,4.7-1.8,9.1-5.1,12.4C611.5,295.5,607.3,297.2,602.8,297.2z M602.6,263.6c-9,0-16.3,7.3-16.3,16.3
			s7.3,16.3,16.3,16.3c4.3,0.1,8.4-1.6,11.4-4.6c3.1-3.1,4.9-7.2,4.9-11.7C618.9,270.9,611.6,263.6,602.6,263.6z"/>
		<circle class="st3" cx="-42.2" cy="280.5" r="3.6"/>
		<rect x="-20" y="65" class="st4" width="591" height="431"/>
		<g>
			<rect x="-20" y="65" class="st5" width="591" height="431"/>
			<path class="st6" d="M571.3,496.3H-20.3V64.8h591.5V496.3z M-19.8,495.8h590.5V65.3H-19.8V495.8z"/>
		</g>
		<rect x="-20" y="65" class="st7" width="45" height="431"/>
		<rect x="25" y="65" class="st8" width="127" height="431"/>
		<rect x="152" y="65" class="st9" width="419" height="60"/>
	</g>
	<g class="st10">
		<path class="st0" d="M235.8,104.9c0,0.1,0,0.2-0.1,0.2c0,0.1-0.1,0.1-0.3,0.2c-0.1,0-0.3,0.1-0.5,0.1s-0.4,0-0.7,0
			c-0.3,0-0.5,0-0.7,0c-0.2,0-0.4-0.1-0.5-0.1c-0.1,0-0.2-0.1-0.2-0.2s-0.1-0.2-0.1-0.2V85.1h0l-8,19.9c0,0.1-0.1,0.2-0.1,0.2
			s-0.2,0.1-0.3,0.1s-0.3,0.1-0.4,0.1s-0.4,0-0.6,0c-0.2,0-0.5,0-0.6,0s-0.3-0.1-0.4-0.1s-0.2-0.1-0.3-0.1s-0.1-0.1-0.1-0.2
			l-7.7-19.9h0v19.8c0,0.1,0,0.2-0.1,0.2c0,0.1-0.1,0.1-0.3,0.2c-0.1,0-0.3,0.1-0.5,0.1c-0.2,0-0.4,0-0.7,0c-0.3,0-0.5,0-0.7,0
			s-0.3-0.1-0.5-0.1c-0.1,0-0.2-0.1-0.2-0.2c0-0.1-0.1-0.2-0.1-0.2V84c0-0.5,0.1-0.8,0.4-1.1s0.6-0.3,0.9-0.3h1.9c0.4,0,0.7,0,1,0.1
			s0.5,0.2,0.7,0.3c0.2,0.2,0.4,0.3,0.5,0.6c0.1,0.2,0.3,0.5,0.4,0.8l6.5,16.5h0.1l6.8-16.4c0.1-0.4,0.3-0.7,0.4-0.9
			c0.2-0.2,0.3-0.4,0.5-0.6s0.4-0.3,0.6-0.3s0.5-0.1,0.8-0.1h1.9c0.2,0,0.3,0,0.5,0.1s0.3,0.1,0.4,0.2c0.1,0.1,0.2,0.3,0.3,0.4
			c0.1,0.2,0.1,0.4,0.1,0.6V104.9z"/>
		<path class="st0" d="M258.8,104.3c0.1,0.3,0.1,0.5,0.1,0.6s0,0.3-0.1,0.4s-0.2,0.1-0.5,0.2s-0.5,0-0.9,0s-0.7,0-0.9,0
			s-0.4,0-0.5-0.1s-0.2-0.1-0.2-0.2s-0.1-0.2-0.1-0.3l-2-5.5h-9.5l-1.9,5.5c0,0.1-0.1,0.2-0.1,0.3s-0.1,0.1-0.3,0.2
			s-0.3,0.1-0.5,0.1s-0.5,0-0.8,0c-0.3,0-0.6,0-0.8,0s-0.4-0.1-0.5-0.2s-0.1-0.2-0.1-0.4s0.1-0.4,0.1-0.6l7.6-21.1
			c0-0.1,0.1-0.2,0.2-0.3s0.2-0.1,0.3-0.2s0.3-0.1,0.6-0.1s0.5,0,0.9,0c0.4,0,0.7,0,0.9,0s0.4,0,0.6,0.1s0.3,0.1,0.4,0.2
			s0.1,0.2,0.2,0.3L258.8,104.3z M249,85.6L249,85.6l-3.9,11.3h7.9L249,85.6z"/>
		<path class="st0" d="M274.8,99c0,1.1-0.2,2-0.6,2.8s-0.9,1.5-1.6,2.1s-1.5,1-2.5,1.3s-2,0.4-3,0.4c-0.8,0-1.5-0.1-2.1-0.2
			s-1.2-0.3-1.7-0.5s-0.9-0.4-1.3-0.6s-0.6-0.4-0.7-0.5s-0.2-0.3-0.3-0.5s-0.1-0.5-0.1-0.9c0-0.3,0-0.5,0-0.6s0.1-0.3,0.1-0.4
			s0.1-0.2,0.2-0.2s0.2-0.1,0.2-0.1c0.2,0,0.4,0.1,0.7,0.3s0.7,0.4,1.2,0.7s1,0.5,1.7,0.7s1.4,0.3,2.3,0.3c0.7,0,1.3-0.1,1.8-0.3
			s1-0.4,1.4-0.7s0.7-0.7,0.9-1.2s0.3-1,0.3-1.6c0-0.6-0.1-1.2-0.4-1.7s-0.7-0.9-1.2-1.2s-1-0.7-1.6-0.9s-1.2-0.6-1.9-0.9
			s-1.3-0.6-1.9-1s-1.2-0.8-1.6-1.3s-0.9-1.1-1.2-1.7s-0.4-1.5-0.4-2.4c0-0.9,0.2-1.8,0.5-2.5s0.8-1.4,1.4-1.9s1.3-0.9,2.2-1.2
			s1.8-0.4,2.8-0.4c0.5,0,1,0,1.5,0.1s1,0.2,1.4,0.4s0.9,0.3,1.2,0.5s0.6,0.3,0.7,0.4s0.2,0.2,0.2,0.3s0.1,0.1,0.1,0.2
			s0,0.2,0.1,0.4s0,0.3,0,0.5c0,0.2,0,0.4,0,0.6s0,0.3-0.1,0.4s-0.1,0.2-0.1,0.2s-0.1,0.1-0.2,0.1c-0.1,0-0.3-0.1-0.6-0.2
			s-0.6-0.3-1-0.6s-0.9-0.4-1.4-0.6s-1.2-0.3-1.8-0.3c-0.6,0-1.2,0.1-1.7,0.3s-0.9,0.4-1.2,0.7s-0.5,0.6-0.7,1s-0.2,0.8-0.2,1.2
			c0,0.6,0.1,1.2,0.4,1.6s0.7,0.9,1.2,1.2s1,0.7,1.7,1s1.3,0.6,1.9,0.9s1.3,0.6,1.9,1s1.2,0.8,1.7,1.3s0.9,1.1,1.2,1.7
			S274.8,98,274.8,99z"/>
		<path class="st0" d="M294,104.8c0,0.1,0,0.2-0.1,0.3s-0.1,0.1-0.2,0.2s-0.3,0.1-0.5,0.1s-0.5,0-0.8,0c-0.4,0-0.7,0-1-0.1
			s-0.5-0.1-0.6-0.2s-0.2-0.2-0.3-0.3l-8.4-11.4v11.4c0,0.1,0,0.2-0.1,0.2s-0.1,0.1-0.2,0.2s-0.3,0.1-0.5,0.1s-0.4,0-0.7,0
			c-0.3,0-0.5,0-0.7,0s-0.4-0.1-0.5-0.1s-0.2-0.1-0.2-0.2s-0.1-0.2-0.1-0.2V83c0-0.1,0-0.2,0.1-0.2s0.1-0.1,0.2-0.2s0.3-0.1,0.5-0.1
			s0.4,0,0.7,0c0.3,0,0.5,0,0.7,0s0.3,0.1,0.5,0.1s0.2,0.1,0.2,0.2s0.1,0.2,0.1,0.2v10.1l8.1-10.1c0.1-0.1,0.2-0.2,0.2-0.3
			s0.2-0.1,0.3-0.2s0.3-0.1,0.5-0.1s0.4,0,0.7,0s0.6,0,0.7,0s0.3,0.1,0.4,0.1s0.2,0.1,0.2,0.2s0.1,0.1,0.1,0.2c0,0.2,0,0.3-0.1,0.5
			s-0.2,0.4-0.4,0.6l-7.5,9l8.1,10.8c0.2,0.3,0.3,0.5,0.4,0.6S294,104.8,294,104.8z"/>
		<path class="st0" d="M310.5,104.1c0,0.2,0,0.4,0,0.6s-0.1,0.3-0.1,0.4s-0.1,0.2-0.2,0.2s-0.2,0.1-0.3,0.1H299
			c-0.3,0-0.5-0.1-0.8-0.3s-0.4-0.5-0.4-1V83.8c0-0.5,0.1-0.8,0.4-1s0.5-0.3,0.8-0.3h10.8c0.1,0,0.2,0,0.3,0.1s0.1,0.1,0.2,0.2
			s0.1,0.2,0.1,0.4s0,0.4,0,0.6c0,0.2,0,0.4,0,0.6s-0.1,0.3-0.1,0.4S310.1,85,310,85s-0.2,0.1-0.3,0.1h-8.9v7.1h7.6
			c0.1,0,0.2,0,0.3,0.1s0.1,0.1,0.2,0.2s0.1,0.2,0.1,0.4s0,0.4,0,0.6c0,0.2,0,0.4,0,0.5s-0.1,0.3-0.1,0.4s-0.1,0.2-0.2,0.2
			s-0.2,0.1-0.3,0.1h-7.6v8.1h9c0.1,0,0.2,0,0.3,0.1s0.1,0.1,0.2,0.2s0.1,0.2,0.1,0.4S310.5,103.9,310.5,104.1z"/>
		<path class="st0" d="M332.9,93.6c0,2-0.3,3.7-0.8,5.2s-1.2,2.7-2.2,3.7s-2.2,1.7-3.6,2.2s-3.1,0.7-5,0.7h-4.8
			c-0.3,0-0.5-0.1-0.8-0.3s-0.4-0.5-0.4-1V83.8c0-0.5,0.1-0.8,0.4-1s0.5-0.3,0.8-0.3h5.2c2,0,3.6,0.3,5,0.8s2.5,1.2,3.4,2.2
			s1.6,2.1,2.1,3.5S332.9,91.9,332.9,93.6z M329.8,93.7c0-1.2-0.2-2.4-0.5-3.4s-0.8-2-1.4-2.8s-1.5-1.4-2.5-1.8s-2.3-0.7-3.8-0.7
			h-3.1v17.7h3.1c1.5,0,2.7-0.2,3.7-0.5s1.8-0.9,2.5-1.7s1.2-1.7,1.5-2.8S329.8,95.3,329.8,93.7z"/>
		<path class="st0" d="M362.9,104.1c0,0.2,0,0.4-0.1,0.6s-0.2,0.3-0.3,0.4c-0.1,0.1-0.3,0.2-0.4,0.2s-0.3,0.1-0.5,0.1h-1
			c-0.3,0-0.6,0-0.8-0.1s-0.5-0.2-0.7-0.4c-0.2-0.2-0.4-0.4-0.6-0.7c-0.2-0.3-0.4-0.7-0.7-1.1l-6.9-12.9c-0.4-0.7-0.7-1.4-1.1-2.1
			c-0.4-0.7-0.7-1.4-1-2.1h0c0,0.8,0,1.7,0.1,2.6s0,1.8,0,2.6v13.7c0,0.1,0,0.2-0.1,0.2s-0.1,0.1-0.3,0.2c-0.1,0-0.3,0.1-0.5,0.1
			c-0.2,0-0.4,0-0.7,0s-0.5,0-0.7,0s-0.3-0.1-0.5-0.1c-0.1,0-0.2-0.1-0.2-0.2s-0.1-0.2-0.1-0.2v-21c0-0.5,0.1-0.8,0.4-1
			c0.3-0.2,0.6-0.3,0.9-0.3h1.5c0.4,0,0.6,0,0.9,0.1s0.4,0.2,0.6,0.3c0.2,0.1,0.4,0.3,0.5,0.6c0.2,0.2,0.4,0.5,0.6,0.9l5.3,10
			c0.3,0.6,0.6,1.2,1,1.8c0.3,0.6,0.6,1.2,0.9,1.7s0.6,1.1,0.8,1.7s0.6,1.1,0.8,1.6h0c0-0.9,0-1.9,0-2.9s0-2,0-2.9V83.1
			c0-0.1,0-0.2,0.1-0.2s0.1-0.1,0.3-0.2s0.3-0.1,0.5-0.1c0.2,0,0.4,0,0.8,0c0.3,0,0.5,0,0.7,0s0.4,0.1,0.5,0.1s0.2,0.1,0.2,0.2
			s0.1,0.1,0.1,0.2V104.1z"/>
		<path class="st0" d="M386.1,96.9c0,1.4-0.2,2.6-0.6,3.7s-1,2-1.7,2.8s-1.7,1.3-2.7,1.7s-2.3,0.6-3.7,0.6c-1.3,0-2.4-0.2-3.4-0.5
			s-1.9-0.9-2.7-1.6s-1.3-1.6-1.7-2.7s-0.6-2.3-0.6-3.7V83c0-0.1,0-0.2,0.1-0.2s0.1-0.1,0.2-0.2s0.3-0.1,0.5-0.1s0.4,0,0.7,0
			c0.3,0,0.5,0,0.7,0s0.4,0.1,0.5,0.1s0.2,0.1,0.2,0.2S372,83,372,83v13.7c0,1.1,0.1,2,0.4,2.8s0.6,1.4,1.1,2s1.1,0.9,1.8,1.2
			s1.5,0.4,2.3,0.4c0.9,0,1.7-0.1,2.3-0.4s1.3-0.6,1.7-1.2s0.8-1.2,1.1-1.9s0.4-1.7,0.4-2.7V83c0-0.1,0-0.2,0.1-0.2s0.1-0.1,0.2-0.2
			s0.3-0.1,0.5-0.1s0.4,0,0.7,0c0.3,0,0.5,0,0.7,0s0.3,0.1,0.5,0.1s0.2,0.1,0.2,0.2s0.1,0.2,0.1,0.2V96.9z"/>
		<path class="st0" d="M416.8,104.9c0,0.1,0,0.2-0.1,0.2c0,0.1-0.1,0.1-0.3,0.2s-0.3,0.1-0.5,0.1c-0.2,0-0.4,0-0.7,0
			c-0.3,0-0.5,0-0.7,0s-0.4-0.1-0.5-0.1s-0.2-0.1-0.2-0.2s-0.1-0.2-0.1-0.2V85.1h0l-8,19.9c0,0.1-0.1,0.2-0.1,0.2s-0.2,0.1-0.3,0.1
			s-0.3,0.1-0.4,0.1s-0.4,0-0.6,0c-0.2,0-0.5,0-0.6,0s-0.3-0.1-0.4-0.1s-0.2-0.1-0.3-0.1s-0.1-0.1-0.1-0.2l-7.7-19.9h0v19.8
			c0,0.1,0,0.2-0.1,0.2c0,0.1-0.1,0.1-0.3,0.2s-0.3,0.1-0.5,0.1s-0.4,0-0.7,0c-0.3,0-0.5,0-0.7,0c-0.2,0-0.3-0.1-0.5-0.1
			s-0.2-0.1-0.2-0.2c0-0.1-0.1-0.2-0.1-0.2V84c0-0.5,0.1-0.8,0.4-1.1s0.6-0.3,0.9-0.3h1.9c0.4,0,0.7,0,1,0.1s0.5,0.2,0.8,0.3
			c0.2,0.2,0.4,0.3,0.5,0.6s0.3,0.5,0.4,0.8l6.5,16.5h0.1l6.8-16.4c0.1-0.4,0.3-0.7,0.4-0.9s0.3-0.4,0.5-0.6s0.4-0.3,0.6-0.3
			s0.5-0.1,0.8-0.1h1.9c0.2,0,0.3,0,0.5,0.1s0.3,0.1,0.4,0.2c0.1,0.1,0.2,0.3,0.3,0.4c0.1,0.2,0.1,0.4,0.1,0.6V104.9z"/>
		<path class="st0" d="M437.9,98.8c0,0.7-0.1,1.4-0.3,2s-0.4,1.1-0.8,1.6s-0.7,0.9-1.2,1.3s-1,0.7-1.6,0.9s-1.2,0.4-1.9,0.6
			s-1.4,0.2-2.3,0.2H424c-0.3,0-0.5-0.1-0.8-0.3s-0.4-0.5-0.4-1V83.8c0-0.5,0.1-0.8,0.4-1s0.5-0.3,0.8-0.3h5.2
			c1.4,0,2.5,0.1,3.3,0.4s1.6,0.6,2.2,1.1s1,1.1,1.3,1.8s0.4,1.5,0.4,2.4c0,0.5-0.1,1.1-0.2,1.5s-0.3,0.9-0.6,1.4s-0.6,0.8-0.9,1.1
			s-0.8,0.6-1.3,0.8c0.6,0.1,1.2,0.3,1.7,0.6s1,0.7,1.4,1.2s0.7,1,1,1.7S437.9,98,437.9,98.8z M433.3,88.6c0-0.6-0.1-1-0.2-1.5
			c-0.2-0.4-0.4-0.8-0.7-1.1c-0.3-0.3-0.8-0.5-1.3-0.7c-0.5-0.2-1.2-0.2-2.1-0.2h-3.1v7.4h3.4c0.8,0,1.4-0.1,1.9-0.3
			s0.9-0.5,1.2-0.8c0.3-0.3,0.5-0.8,0.7-1.2C433.2,89.6,433.3,89.1,433.3,88.6z M434.7,99c0-0.7-0.1-1.3-0.3-1.8
			c-0.2-0.5-0.5-0.9-0.9-1.3c-0.4-0.4-0.9-0.6-1.6-0.8c-0.6-0.2-1.4-0.3-2.4-0.3h-3.6v8h4.4c0.7,0,1.3-0.1,1.8-0.2
			c0.5-0.2,1-0.4,1.4-0.7c0.4-0.3,0.7-0.7,0.9-1.2C434.6,100.2,434.7,99.6,434.7,99z"/>
		<path class="st0" d="M455.1,104.1c0,0.2,0,0.4,0,0.6s-0.1,0.3-0.1,0.4s-0.1,0.2-0.2,0.2s-0.2,0.1-0.3,0.1h-10.9
			c-0.3,0-0.5-0.1-0.8-0.3s-0.4-0.5-0.4-1V83.8c0-0.5,0.1-0.8,0.4-1s0.5-0.3,0.8-0.3h10.8c0.1,0,0.2,0,0.3,0.1s0.1,0.1,0.2,0.2
			s0.1,0.2,0.1,0.4s0,0.4,0,0.6c0,0.2,0,0.4,0,0.6s-0.1,0.3-0.1,0.4s-0.1,0.2-0.2,0.2s-0.2,0.1-0.3,0.1h-8.9v7.1h7.6
			c0.1,0,0.2,0,0.3,0.1s0.1,0.1,0.2,0.2s0.1,0.2,0.1,0.4s0,0.4,0,0.6c0,0.2,0,0.4,0,0.5s-0.1,0.3-0.1,0.4s-0.1,0.2-0.2,0.2
			s-0.2,0.1-0.3,0.1h-7.6v8.1h9c0.1,0,0.2,0,0.3,0.1s0.1,0.1,0.2,0.2s0.1,0.2,0.1,0.4S455.1,103.9,455.1,104.1z"/>
		<path class="st0" d="M475.2,104.9c0,0.1,0,0.2-0.1,0.2s-0.1,0.1-0.2,0.2s-0.3,0.1-0.5,0.1s-0.5,0-0.8,0c-0.3,0-0.6,0-0.7,0
			s-0.3-0.1-0.5-0.1s-0.2-0.1-0.3-0.2s-0.1-0.2-0.2-0.4l-2.1-5.4c-0.2-0.6-0.5-1.2-0.8-1.7s-0.6-0.9-0.9-1.3s-0.8-0.7-1.3-0.9
			s-1.1-0.3-1.8-0.3h-2v9.7c0,0.1,0,0.2-0.1,0.2s-0.1,0.1-0.2,0.2s-0.3,0.1-0.5,0.1s-0.4,0-0.7,0s-0.5,0-0.7,0s-0.3-0.1-0.5-0.1
			s-0.2-0.1-0.2-0.2s-0.1-0.2-0.1-0.2V83.8c0-0.5,0.1-0.8,0.4-1s0.5-0.3,0.8-0.3h4.8c0.6,0,1.1,0,1.4,0s0.7,0.1,1,0.1
			c0.9,0.2,1.7,0.4,2.3,0.7s1.2,0.7,1.7,1.2s0.8,1.1,1,1.7s0.3,1.4,0.3,2.2c0,0.8-0.1,1.4-0.3,2s-0.5,1.1-0.9,1.6s-0.8,0.9-1.4,1.2
			s-1.1,0.6-1.8,0.9c0.4,0.2,0.7,0.4,1,0.6s0.6,0.6,0.9,0.9s0.5,0.8,0.7,1.2s0.5,1,0.7,1.5l2,5c0.2,0.4,0.3,0.7,0.3,0.9
			S475.2,104.8,475.2,104.9z M470.6,88.9c0-0.9-0.2-1.6-0.6-2.3s-1.1-1.1-2-1.3c-0.3-0.1-0.6-0.1-1-0.2s-0.9-0.1-1.5-0.1H463v7.7h3
			c0.8,0,1.5-0.1,2.1-0.3s1.1-0.5,1.5-0.8s0.7-0.8,0.9-1.2S470.6,89.4,470.6,88.9z"/>
		<path class="st0" d="M491.3,99c0,1.1-0.2,2-0.6,2.8s-0.9,1.5-1.6,2.1s-1.5,1-2.5,1.3s-2,0.4-3,0.4c-0.8,0-1.5-0.1-2.1-0.2
			s-1.2-0.3-1.7-0.5s-0.9-0.4-1.3-0.6s-0.6-0.4-0.7-0.5s-0.2-0.3-0.3-0.5s-0.1-0.5-0.1-0.9c0-0.3,0-0.5,0-0.6s0.1-0.3,0.1-0.4
			s0.1-0.2,0.2-0.2s0.2-0.1,0.2-0.1c0.2,0,0.4,0.1,0.7,0.3s0.7,0.4,1.2,0.7s1,0.5,1.7,0.7s1.4,0.3,2.3,0.3c0.7,0,1.3-0.1,1.8-0.3
			s1-0.4,1.4-0.7s0.7-0.7,0.9-1.2s0.3-1,0.3-1.6c0-0.6-0.1-1.2-0.4-1.7s-0.7-0.9-1.2-1.2s-1-0.7-1.6-0.9s-1.2-0.6-1.9-0.9
			s-1.3-0.6-1.9-1s-1.2-0.8-1.6-1.3s-0.9-1.1-1.2-1.7s-0.4-1.5-0.4-2.4c0-0.9,0.2-1.8,0.5-2.5s0.8-1.4,1.4-1.9s1.3-0.9,2.2-1.2
			s1.8-0.4,2.8-0.4c0.5,0,1,0,1.5,0.1s1,0.2,1.4,0.4s0.9,0.3,1.2,0.5s0.6,0.3,0.7,0.4s0.2,0.2,0.2,0.3s0.1,0.1,0.1,0.2
			s0,0.2,0.1,0.4s0,0.3,0,0.5c0,0.2,0,0.4,0,0.6s0,0.3-0.1,0.4s-0.1,0.2-0.1,0.2s-0.1,0.1-0.2,0.1c-0.1,0-0.3-0.1-0.6-0.2
			s-0.6-0.3-1-0.6s-0.9-0.4-1.4-0.6s-1.2-0.3-1.8-0.3c-0.6,0-1.2,0.1-1.7,0.3s-0.9,0.4-1.2,0.7s-0.5,0.6-0.7,1s-0.2,0.8-0.2,1.2
			c0,0.6,0.1,1.2,0.4,1.6s0.7,0.9,1.2,1.2s1,0.7,1.7,1s1.3,0.6,1.9,0.9s1.3,0.6,1.9,1s1.2,0.8,1.7,1.3s0.9,1.1,1.2,1.7
			S491.3,98,491.3,99z"/>
	</g>
	<g>
		<path class="st11" d="M12.5,113h-20c-3,0-5.5-2.5-5.5-5.5v-20c0-3,2.5-5.5,5.5-5.5h20c3,0,5.5,2.5,5.5,5.5v20
			C18,110.5,15.5,113,12.5,113z"/>
		<rect x="33.3" y="87" class="st0" width="59" height="3.7"/>
		<rect x="33.3" y="96.7" class="st0" width="74.3" height="3.7"/>
		<rect x="33.3" y="106.3" class="st0" width="88.3" height="3.7"/>
	</g>
	<g>
		<path class="st12" d="M12.5,180.8h-20c-3,0-5.5-2.5-5.5-5.5v-20c0-3,2.5-5.5,5.5-5.5h20c3,0,5.5,2.5,5.5,5.5v20
			C18,178.4,15.5,180.8,12.5,180.8z"/>
		<rect x="33.3" y="154.8" class="st0" width="59" height="3.7"/>
		<rect x="33.3" y="164.5" class="st0" width="74.3" height="3.7"/>
		<rect x="33.3" y="174.2" class="st0" width="88.3" height="3.7"/>
	</g>
	<g>
		<path class="st13" d="M12.5,248.7h-20c-3,0-5.5-2.5-5.5-5.5v-20c0-3,2.5-5.5,5.5-5.5h20c3,0,5.5,2.5,5.5,5.5v20
			C18,246.2,15.5,248.7,12.5,248.7z"/>
		<rect x="33.3" y="222.7" class="st0" width="59" height="3.7"/>
		<rect x="33.3" y="232.3" class="st0" width="74.3" height="3.7"/>
		<rect x="33.3" y="242" class="st0" width="88.3" height="3.7"/>
	</g>
	<g>
		<path class="st14" d="M12.5,316.5h-20c-3,0-5.5-2.5-5.5-5.5v-20c0-3,2.5-5.5,5.5-5.5h20c3,0,5.5,2.5,5.5,5.5v20
			C18,314,15.5,316.5,12.5,316.5z"/>
		<rect x="33.3" y="290.5" class="st0" width="59" height="3.7"/>
		<rect x="33.3" y="300.2" class="st0" width="74.3" height="3.7"/>
		<rect x="33.3" y="309.8" class="st0" width="88.3" height="3.7"/>
	</g>
	<path class="st0" d="M35.3,412.7v-70.1c0-3.6,2.5-6.5,5.5-6.5h95.7c3,0,5.5,2.9,5.5,6.5v70.1"/>
</g>
<rect x="162" y="133.8" class="st9" width="211" height="349.2"/>
<rect x="383" y="133.7" class="st9" width="178" height="195.3"/>
<rect x="383" y="346.2" class="st8" width="79.2" height="25.8"/>
<rect x="481.8" y="346.2" class="st8" width="79.2" height="25.8"/>
<g>
	<rect x="183" y="149.1" class="st0" width="81.3" height="6.9"/>
	<rect x="183" y="163" class="st0" width="123" height="6.9"/>
	<rect x="183" y="176.8" class="st0" width="159" height="6.9"/>
</g>
<g>
	<rect x="183" y="204.4" class="st0" width="81.3" height="6.9"/>
	<rect x="183" y="218.3" class="st0" width="123" height="6.9"/>
	<rect x="183" y="232.1" class="st0" width="159" height="6.9"/>
</g>
<g>
	<rect x="183" y="259.8" class="st0" width="81.3" height="6.9"/>
	<rect x="183" y="273.6" class="st0" width="123" height="6.9"/>
	<rect x="183" y="287.5" class="st0" width="159" height="6.9"/>
</g>
<g>
	<rect x="183" y="315.1" class="st0" width="81.3" height="6.9"/>
	<rect x="183" y="329" class="st0" width="123" height="6.9"/>
	<rect x="183" y="342.8" class="st0" width="159" height="6.9"/>
</g>
<path class="st0" d="M183,451v-70.1c0-3.6,2.5-6.5,5.5-6.5h95.7c3,0,5.5,2.9,5.5,6.5V451"/>
<g class="st10">
	<path class="st0" d="M412.8,169.5l0.6-3.7h-1.2v-1.3h1.4l0.5-3.2h-2V160h2.2l0.6-3.8h1.1l-0.6,3.8h2.3l0.6-3.8h1.1l-0.6,3.8h1.3
		v1.3h-1.5l-0.5,3.2h2v1.3h-2.2l-0.6,3.7h-1.1l0.6-3.7h-2.3l-0.6,3.7H412.8z M414.7,164.5h2.3l0.5-3.2h-2.3L414.7,164.5z"/>
	<path class="st0" d="M421,169.5l0.6-3.7h-1.2v-1.3h1.4l0.5-3.2h-2V160h2.2l0.6-3.8h1.1l-0.6,3.8h2.3l0.6-3.8h1.1L427,160h1.3v1.3
		h-1.5l-0.5,3.2h2v1.3h-2.2l-0.6,3.7h-1.1l0.6-3.7h-2.3l-0.6,3.7H421z M422.9,164.5h2.3l0.5-3.2h-2.3L422.9,164.5z"/>
	<path class="st0" d="M429.2,169.5l0.6-3.7h-1.2v-1.3h1.4l0.5-3.2h-2V160h2.2l0.6-3.8h1.1l-0.6,3.8h2.3l0.6-3.8h1.1l-0.6,3.8h1.3
		v1.3H435l-0.5,3.2h2v1.3h-2.2l-0.6,3.7h-1.1l0.6-3.7h-2.3l-0.6,3.7H429.2z M431.1,164.5h2.3l0.5-3.2h-2.3L431.1,164.5z"/>
	<path class="st0" d="M437.4,169.5l0.6-3.7h-1.2v-1.3h1.4l0.5-3.2h-2V160h2.2l0.6-3.8h1.1l-0.6,3.8h2.3l0.6-3.8h1.1l-0.6,3.8h1.3
		v1.3h-1.5l-0.5,3.2h2v1.3h-2.2l-0.6,3.7h-1.1l0.6-3.7h-2.3l-0.6,3.7H437.4z M439.4,164.5h2.3l0.5-3.2h-2.3L439.4,164.5z"/>
	<path class="st0" d="M449.5,165.5v-1.6h4v1.6H449.5z"/>
	<path class="st0" d="M458.8,169.5l0.6-3.7h-1.2v-1.3h1.4l0.5-3.2h-2V160h2.2l0.6-3.8h1.1l-0.6,3.8h2.3l0.6-3.8h1.1l-0.6,3.8h1.3
		v1.3h-1.5l-0.5,3.2h2v1.3h-2.2l-0.6,3.7h-1.1l0.6-3.7h-2.3l-0.6,3.7H458.8z M460.7,164.5h2.3l0.5-3.2h-2.3L460.7,164.5z"/>
	<path class="st0" d="M467,169.5l0.6-3.7h-1.2v-1.3h1.4l0.5-3.2h-2V160h2.2l0.6-3.8h1.1l-0.6,3.8h2.3l0.6-3.8h1.1L473,160h1.3v1.3
		h-1.5l-0.5,3.2h2v1.3H472l-0.6,3.7h-1.1l0.6-3.7h-2.3l-0.6,3.7H467z M468.9,164.5h2.3l0.5-3.2h-2.3L468.9,164.5z"/>
	<path class="st0" d="M475.2,169.5l0.6-3.7h-1.2v-1.3h1.4l0.5-3.2h-2V160h2.2l0.6-3.8h1.1l-0.6,3.8h2.3l0.6-3.8h1.1l-0.6,3.8h1.3
		v1.3H481l-0.5,3.2h2v1.3h-2.2l-0.6,3.7h-1.1l0.6-3.7h-2.3l-0.6,3.7H475.2z M477.1,164.5h2.3l0.5-3.2h-2.3L477.1,164.5z"/>
	<path class="st0" d="M487.2,165.5v-1.6h4v1.6H487.2z"/>
	<path class="st0" d="M496.5,169.5l0.6-3.7h-1.2v-1.3h1.4l0.5-3.2h-2V160h2.2l0.6-3.8h1.1l-0.6,3.8h2.3l0.6-3.8h1.1l-0.6,3.8h1.3
		v1.3h-1.5l-0.5,3.2h2v1.3h-2.2l-0.6,3.7h-1.1l0.6-3.7h-2.3l-0.6,3.7H496.5z M498.4,164.5h2.3l0.5-3.2H499L498.4,164.5z"/>
	<path class="st0" d="M504.7,169.5l0.6-3.7h-1.2v-1.3h1.4l0.5-3.2h-2V160h2.2l0.6-3.8h1.1l-0.6,3.8h2.3l0.6-3.8h1.1l-0.6,3.8h1.3
		v1.3h-1.5l-0.5,3.2h2v1.3h-2.2l-0.6,3.7h-1.1l0.6-3.7h-2.3l-0.6,3.7H504.7z M506.6,164.5h2.3l0.5-3.2h-2.3L506.6,164.5z"/>
	<path class="st0" d="M512.9,169.5l0.6-3.7h-1.2v-1.3h1.4l0.5-3.2h-2V160h2.2l0.6-3.8h1.1l-0.6,3.8h2.3l0.6-3.8h1.1L519,160h1.3v1.3
		h-1.5l-0.5,3.2h2v1.3H518l-0.6,3.7h-1.1l0.6-3.7h-2.3l-0.6,3.7H512.9z M514.9,164.5h2.3l0.5-3.2h-2.3L514.9,164.5z"/>
	<path class="st0" d="M521.1,169.5l0.6-3.7h-1.2v-1.3h1.4l0.5-3.2h-2V160h2.2l0.6-3.8h1.1l-0.6,3.8h2.3l0.6-3.8h1.1l-0.6,3.8h1.3
		v1.3h-1.5l-0.5,3.2h2v1.3h-2.2l-0.6,3.7h-1.1l0.6-3.7h-2.3l-0.6,3.7H521.1z M523.1,164.5h2.3l0.5-3.2h-2.3L523.1,164.5z"/>
</g>
<g class="st10">
	<path class="st0" d="M420.3,278.8v-12.9h4c0.9,0,1.6,0.1,2.1,0.2c0.6,0.2,1.1,0.6,1.5,1.2s0.5,1.3,0.5,2.2c0,1.2-0.3,2.1-0.9,2.8
		s-1.6,1.1-3.1,1.1h-2.7v5.2H420.3z M421.7,272h2.7c0.9,0,1.5-0.2,1.9-0.6c0.4-0.4,0.6-1,0.6-1.8c0-0.5-0.1-0.9-0.3-1.3
		s-0.4-0.6-0.7-0.7s-0.8-0.2-1.5-0.2h-2.7V272z"/>
	<path class="st0" d="M430.2,278.8v-12.9h4.7c1,0,1.7,0.1,2.2,0.4s0.8,0.6,1.1,1.2c0.3,0.6,0.4,1.2,0.4,1.9c0,1-0.3,1.8-0.8,2.4
		c-0.5,0.6-1.2,1-2.2,1.2c0.4,0.2,0.7,0.5,0.9,0.7c0.4,0.5,0.8,1,1.1,1.6l1.8,3.5h-1.8l-1.4-2.7c-0.5-1-1-1.8-1.2-2.1
		c-0.3-0.4-0.5-0.6-0.8-0.7c-0.3-0.1-0.6-0.2-1.1-0.2h-1.6v5.7H430.2z M431.6,271.6h3c0.7,0,1.2-0.1,1.5-0.2s0.6-0.4,0.8-0.7
		s0.3-0.7,0.3-1.2c0-0.7-0.2-1.2-0.6-1.5s-0.9-0.6-1.7-0.6h-3.3V271.6z"/>
	<path class="st0" d="M441.1,278.8v-12.9h1.4v12.9H441.1z"/>
	<path class="st0" d="M448,278.8l-4.1-12.9h1.5l2.8,9.4c0.2,0.7,0.4,1.4,0.6,2.1c0.2-0.7,0.4-1.4,0.6-2.1l2.9-9.4h1.4l-4.1,12.9H448
		z"/>
	<path class="st0" d="M452.5,278.8l4.1-12.9h1.5l4.3,12.9h-1.6l-1.2-3.9h-4.4l-1.1,3.9H452.5z M455.6,273.5h3.6l-1.1-3.6
		c-0.3-1.1-0.6-2-0.7-2.7c-0.1,0.8-0.3,1.6-0.6,2.5L455.6,273.5z"/>
	<path class="st0" d="M465.2,278.8v-11.4h-3.5v-1.5h8.4v1.5h-3.5v11.4H465.2z"/>
	<path class="st0" d="M471.5,278.8v-12.9h7.6v1.5h-6.2v3.9h5.8v1.5h-5.8v4.4h6.5v1.5H471.5z"/>
	<path class="st0" d="M485.4,278.8v-12.9h3.6c0.9,0,1.6,0.1,2.1,0.2c0.6,0.2,1.1,0.6,1.6,1.1s0.8,1.2,1.1,2.1s0.4,1.8,0.4,2.9
		c0,1.5-0.2,2.7-0.6,3.7s-1,1.7-1.6,2.2s-1.5,0.6-2.6,0.6H485.4z M486.8,277.3h2.3c0.9,0,1.6-0.1,2.1-0.4c0.5-0.3,0.8-0.8,1.1-1.4
		c0.3-0.9,0.5-1.9,0.5-3.1c0-1.3-0.2-2.3-0.5-3.1c-0.4-0.7-0.8-1.2-1.4-1.5c-0.4-0.2-1-0.3-1.8-0.3h-2.2V277.3z"/>
	<path class="st0" d="M494.9,278.8l4.1-12.9h1.5l4.3,12.9h-1.6l-1.2-3.9h-4.4l-1.1,3.9H494.9z M498,273.5h3.6l-1.1-3.6
		c-0.3-1.1-0.6-2-0.7-2.7c-0.1,0.8-0.3,1.6-0.6,2.5L498,273.5z"/>
	<path class="st0" d="M507.6,278.8v-11.4h-3.5v-1.5h8.4v1.5H509v11.4H507.6z"/>
	<path class="st0" d="M511.6,278.8l4.1-12.9h1.5l4.3,12.9h-1.6l-1.2-3.9h-4.4l-1.1,3.9H511.6z M514.7,273.5h3.6l-1.1-3.6
		c-0.3-1.1-0.6-2-0.7-2.7c-0.1,0.8-0.3,1.6-0.6,2.5L514.7,273.5z"/>
</g>
<g class="st10">
	<path class="st0" d="M410.5,295.5l0.3-1.2c0.8,0.3,1.3,0.6,1.7,0.9c-0.1-1.1-0.1-1.8-0.1-2.2h1c0,0.6-0.1,1.3-0.2,2.2
		c0.5-0.3,1.1-0.6,1.7-0.8l0.3,1.2c-0.6,0.2-1.2,0.4-1.8,0.5c0.3,0.3,0.7,0.9,1.2,1.7l-0.9,0.7c-0.3-0.4-0.6-1.1-1-1.9
		c-0.4,0.8-0.7,1.5-0.9,1.9l-0.8-0.7c0.5-0.8,0.9-1.4,1.2-1.7C411.7,295.8,411.1,295.7,410.5,295.5z"/>
	<path class="st0" d="M416.3,295.5l0.3-1.2c0.8,0.3,1.3,0.6,1.7,0.9c-0.1-1.1-0.1-1.8-0.1-2.2h1c0,0.6-0.1,1.3-0.2,2.2
		c0.5-0.3,1.1-0.6,1.7-0.8l0.3,1.2c-0.6,0.2-1.2,0.4-1.8,0.5c0.3,0.3,0.7,0.9,1.2,1.7l-0.9,0.7c-0.3-0.4-0.6-1.1-1-1.9
		c-0.4,0.8-0.7,1.5-0.9,1.9l-0.8-0.7c0.5-0.8,0.9-1.4,1.2-1.7C417.4,295.8,416.8,295.7,416.3,295.5z"/>
	<path class="st0" d="M422,295.5l0.3-1.2c0.8,0.3,1.3,0.6,1.7,0.9c-0.1-1.1-0.1-1.8-0.1-2.2h1c0,0.6-0.1,1.3-0.2,2.2
		c0.5-0.3,1.1-0.6,1.7-0.8l0.3,1.2c-0.6,0.2-1.2,0.4-1.8,0.5c0.3,0.3,0.7,0.9,1.2,1.7l-0.9,0.7c-0.3-0.4-0.6-1.1-1-1.9
		c-0.4,0.8-0.7,1.5-0.9,1.9l-0.8-0.7c0.5-0.8,0.9-1.4,1.2-1.7C423.1,295.8,422.6,295.7,422,295.5z"/>
	<path class="st0" d="M427.7,295.5l0.3-1.2c0.8,0.3,1.3,0.6,1.7,0.9c-0.1-1.1-0.1-1.8-0.1-2.2h1c0,0.6-0.1,1.3-0.2,2.2
		c0.5-0.3,1.1-0.6,1.7-0.8l0.3,1.2c-0.6,0.2-1.2,0.4-1.8,0.5c0.3,0.3,0.7,0.9,1.2,1.7l-0.9,0.7c-0.3-0.4-0.6-1.1-1-1.9
		c-0.4,0.8-0.7,1.5-0.9,1.9l-0.8-0.7c0.5-0.8,0.9-1.4,1.2-1.7C428.9,295.8,428.3,295.7,427.7,295.5z"/>
	<path class="st0" d="M433.5,295.5l0.3-1.2c0.8,0.3,1.3,0.6,1.7,0.9c-0.1-1.1-0.1-1.8-0.1-2.2h1c0,0.6-0.1,1.3-0.2,2.2
		c0.5-0.3,1.1-0.6,1.7-0.8l0.3,1.2c-0.6,0.2-1.2,0.4-1.8,0.5c0.3,0.3,0.7,0.9,1.2,1.7l-0.9,0.7c-0.3-0.4-0.6-1.1-1-1.9
		c-0.4,0.8-0.7,1.5-0.9,1.9l-0.8-0.7c0.5-0.8,0.9-1.4,1.2-1.7C434.6,295.8,434,295.7,433.5,295.5z"/>
	<path class="st0" d="M439.2,295.5l0.3-1.2c0.8,0.3,1.3,0.6,1.7,0.9c-0.1-1.1-0.1-1.8-0.1-2.2h1c0,0.6-0.1,1.3-0.2,2.2
		c0.5-0.3,1.1-0.6,1.7-0.8l0.3,1.2c-0.6,0.2-1.2,0.4-1.8,0.5c0.3,0.3,0.7,0.9,1.2,1.7l-0.9,0.7c-0.3-0.4-0.6-1.1-1-1.9
		c-0.4,0.8-0.7,1.5-0.9,1.9l-0.8-0.7c0.5-0.8,0.9-1.4,1.2-1.7C440.4,295.8,439.8,295.7,439.2,295.5z"/>
	<path class="st0" d="M445,295.5l0.3-1.2c0.8,0.3,1.3,0.6,1.7,0.9c-0.1-1.1-0.1-1.8-0.1-2.2h1c0,0.6-0.1,1.3-0.2,2.2
		c0.5-0.3,1.1-0.6,1.7-0.8l0.3,1.2c-0.6,0.2-1.2,0.4-1.8,0.5c0.3,0.3,0.7,0.9,1.2,1.7l-0.9,0.7c-0.3-0.4-0.6-1.1-1-1.9
		c-0.4,0.8-0.7,1.5-0.9,1.9l-0.8-0.7c0.5-0.8,0.9-1.4,1.2-1.7C446.1,295.8,445.5,295.7,445,295.5z"/>
	<path class="st0" d="M450.7,295.5l0.3-1.2c0.8,0.3,1.3,0.6,1.7,0.9c-0.1-1.1-0.1-1.8-0.1-2.2h1c0,0.6-0.1,1.3-0.2,2.2
		c0.5-0.3,1.1-0.6,1.7-0.8l0.3,1.2c-0.6,0.2-1.2,0.4-1.8,0.5c0.3,0.3,0.7,0.9,1.2,1.7l-0.9,0.7c-0.3-0.4-0.6-1.1-1-1.9
		c-0.4,0.8-0.7,1.5-0.9,1.9l-0.8-0.7c0.5-0.8,0.9-1.4,1.2-1.7C451.8,295.8,451.3,295.7,450.7,295.5z"/>
	<path class="st0" d="M456.4,295.5l0.3-1.2c0.8,0.3,1.3,0.6,1.7,0.9c-0.1-1.1-0.1-1.8-0.1-2.2h1c0,0.6-0.1,1.3-0.2,2.2
		c0.5-0.3,1.1-0.6,1.7-0.8l0.3,1.2c-0.6,0.2-1.2,0.4-1.8,0.5c0.3,0.3,0.7,0.9,1.2,1.7l-0.9,0.7c-0.3-0.4-0.6-1.1-1-1.9
		c-0.4,0.8-0.7,1.5-0.9,1.9l-0.8-0.7c0.5-0.8,0.9-1.4,1.2-1.7C457.6,295.8,457,295.7,456.4,295.5z"/>
	<path class="st0" d="M462.2,295.5l0.3-1.2c0.8,0.3,1.3,0.6,1.7,0.9c-0.1-1.1-0.1-1.8-0.1-2.2h1c0,0.6-0.1,1.3-0.2,2.2
		c0.5-0.3,1.1-0.6,1.7-0.8l0.3,1.2c-0.6,0.2-1.2,0.4-1.8,0.5c0.3,0.3,0.7,0.9,1.2,1.7l-0.9,0.7c-0.3-0.4-0.6-1.1-1-1.9
		c-0.4,0.8-0.7,1.5-0.9,1.9l-0.8-0.7c0.5-0.8,0.9-1.4,1.2-1.7C463.3,295.8,462.7,295.7,462.2,295.5z"/>
	<path class="st0" d="M467.9,295.5l0.3-1.2c0.8,0.3,1.3,0.6,1.7,0.9c-0.1-1.1-0.1-1.8-0.1-2.2h1c0,0.6-0.1,1.3-0.2,2.2
		c0.5-0.3,1.1-0.6,1.7-0.8l0.3,1.2c-0.6,0.2-1.2,0.4-1.8,0.5c0.3,0.3,0.7,0.9,1.2,1.7l-0.9,0.7c-0.3-0.4-0.6-1.1-1-1.9
		c-0.4,0.8-0.7,1.5-0.9,1.9l-0.8-0.7c0.5-0.8,0.9-1.4,1.2-1.7C469.1,295.8,468.5,295.7,467.9,295.5z"/>
	<path class="st0" d="M473.7,295.5l0.3-1.2c0.8,0.3,1.3,0.6,1.7,0.9c-0.1-1.1-0.1-1.8-0.1-2.2h1c0,0.6-0.1,1.3-0.2,2.2
		c0.5-0.3,1.1-0.6,1.7-0.8l0.3,1.2c-0.6,0.2-1.2,0.4-1.8,0.5c0.3,0.3,0.7,0.9,1.2,1.7l-0.9,0.7c-0.3-0.4-0.6-1.1-1-1.9
		c-0.4,0.8-0.7,1.5-0.9,1.9l-0.8-0.7c0.5-0.8,0.9-1.4,1.2-1.7C474.8,295.8,474.2,295.7,473.7,295.5z"/>
	<path class="st0" d="M479.4,295.5l0.3-1.2c0.8,0.3,1.3,0.6,1.7,0.9c-0.1-1.1-0.1-1.8-0.1-2.2h1c0,0.6-0.1,1.3-0.2,2.2
		c0.5-0.3,1.1-0.6,1.7-0.8l0.3,1.2c-0.6,0.2-1.2,0.4-1.8,0.5c0.3,0.3,0.7,0.9,1.2,1.7l-0.9,0.7c-0.3-0.4-0.6-1.1-1-1.9
		c-0.4,0.8-0.7,1.5-0.9,1.9l-0.8-0.7c0.5-0.8,0.9-1.4,1.2-1.7C480.5,295.8,480,295.7,479.4,295.5z"/>
	<path class="st0" d="M485.1,295.5l0.3-1.2c0.8,0.3,1.3,0.6,1.7,0.9c-0.1-1.1-0.1-1.8-0.1-2.2h1c0,0.6-0.1,1.3-0.2,2.2
		c0.5-0.3,1.1-0.6,1.7-0.8l0.3,1.2c-0.6,0.2-1.2,0.4-1.8,0.5c0.3,0.3,0.7,0.9,1.2,1.7l-0.9,0.7c-0.3-0.4-0.6-1.1-1-1.9
		c-0.4,0.8-0.7,1.5-0.9,1.9l-0.8-0.7c0.5-0.8,0.9-1.4,1.2-1.7C486.3,295.8,485.7,295.7,485.1,295.5z"/>
	<path class="st0" d="M490.9,295.5l0.3-1.2c0.8,0.3,1.3,0.6,1.7,0.9c-0.1-1.1-0.1-1.8-0.1-2.2h1c0,0.6-0.1,1.3-0.2,2.2
		c0.5-0.3,1.1-0.6,1.7-0.8l0.3,1.2c-0.6,0.2-1.2,0.4-1.8,0.5c0.3,0.3,0.7,0.9,1.2,1.7l-0.9,0.7c-0.3-0.4-0.6-1.1-1-1.9
		c-0.4,0.8-0.7,1.5-0.9,1.9l-0.8-0.7c0.5-0.8,0.9-1.4,1.2-1.7C492,295.8,491.4,295.7,490.9,295.5z"/>
	<path class="st0" d="M496.6,295.5l0.3-1.2c0.8,0.3,1.3,0.6,1.7,0.9c-0.1-1.1-0.1-1.8-0.1-2.2h1c0,0.6-0.1,1.3-0.2,2.2
		c0.5-0.3,1.1-0.6,1.7-0.8l0.3,1.2c-0.6,0.2-1.2,0.4-1.8,0.5c0.3,0.3,0.7,0.9,1.2,1.7l-0.9,0.7c-0.3-0.4-0.6-1.1-1-1.9
		c-0.4,0.8-0.7,1.5-0.9,1.9l-0.8-0.7c0.5-0.8,0.9-1.4,1.2-1.7C497.8,295.8,497.2,295.7,496.6,295.5z"/>
	<path class="st0" d="M502.4,295.5l0.3-1.2c0.8,0.3,1.3,0.6,1.7,0.9c-0.1-1.1-0.1-1.8-0.1-2.2h1c0,0.6-0.1,1.3-0.2,2.2
		c0.5-0.3,1.1-0.6,1.7-0.8l0.3,1.2c-0.6,0.2-1.2,0.4-1.8,0.5c0.3,0.3,0.7,0.9,1.2,1.7l-0.9,0.7c-0.3-0.4-0.6-1.1-1-1.9
		c-0.4,0.8-0.7,1.5-0.9,1.9l-0.8-0.7c0.5-0.8,0.9-1.4,1.2-1.7C503.5,295.8,502.9,295.7,502.4,295.5z"/>
	<path class="st0" d="M508.1,295.5l0.3-1.2c0.8,0.3,1.3,0.6,1.7,0.9c-0.1-1.1-0.1-1.8-0.1-2.2h1c0,0.6-0.1,1.3-0.2,2.2
		c0.5-0.3,1.1-0.6,1.7-0.8l0.3,1.2c-0.6,0.2-1.2,0.4-1.8,0.5c0.3,0.3,0.7,0.9,1.2,1.7l-0.9,0.7c-0.3-0.4-0.6-1.1-1-1.9
		c-0.4,0.8-0.7,1.5-0.9,1.9l-0.8-0.7c0.5-0.8,0.9-1.4,1.2-1.7C509.2,295.8,508.6,295.7,508.1,295.5z"/>
	<path class="st0" d="M513.8,295.5l0.3-1.2c0.8,0.3,1.3,0.6,1.7,0.9c-0.1-1.1-0.1-1.8-0.1-2.2h1c0,0.6-0.1,1.3-0.2,2.2
		c0.5-0.3,1.1-0.6,1.7-0.8l0.3,1.2c-0.6,0.2-1.2,0.4-1.8,0.5c0.3,0.3,0.7,0.9,1.2,1.7l-0.9,0.7c-0.3-0.4-0.6-1.1-1-1.9
		c-0.4,0.8-0.7,1.5-0.9,1.9l-0.8-0.7c0.5-0.8,0.9-1.4,1.2-1.7C515,295.8,514.4,295.7,513.8,295.5z"/>
	<path class="st0" d="M519.6,295.5l0.3-1.2c0.8,0.3,1.3,0.6,1.7,0.9c-0.1-1.1-0.1-1.8-0.1-2.2h1c0,0.6-0.1,1.3-0.2,2.2
		c0.5-0.3,1.1-0.6,1.7-0.8l0.3,1.2c-0.6,0.2-1.2,0.4-1.8,0.5c0.3,0.3,0.7,0.9,1.2,1.7l-0.9,0.7c-0.3-0.4-0.6-1.1-1-1.9
		c-0.4,0.8-0.7,1.5-0.9,1.9l-0.8-0.7c0.5-0.8,0.9-1.4,1.2-1.7C520.7,295.8,520.1,295.7,519.6,295.5z"/>
	<path class="st0" d="M525.3,295.5l0.3-1.2c0.8,0.3,1.3,0.6,1.7,0.9c-0.1-1.1-0.1-1.8-0.1-2.2h1c0,0.6-0.1,1.3-0.2,2.2
		c0.5-0.3,1.1-0.6,1.7-0.8l0.3,1.2c-0.6,0.2-1.2,0.4-1.8,0.5c0.3,0.3,0.7,0.9,1.2,1.7l-0.9,0.7c-0.3-0.4-0.6-1.1-1-1.9
		c-0.4,0.8-0.7,1.5-0.9,1.9l-0.8-0.7c0.5-0.8,0.9-1.4,1.2-1.7C526.5,295.8,525.9,295.7,525.3,295.5z"/>
</g>
<g>
	<path class="st0" d="M467.3,213.4l-3.7-5.6l-4-6.1c-0.7-1-2.1-1-2.8,0l-4,6.1l-3.7,5.6c-0.7,1.1,0.1,2.6,1.4,2.6h4.5v10
		c0,0.8,1,1,1.8,1h2.8c0.8,0,1.4-0.2,1.4-1v-10h4.9C467.2,216,468,214.5,467.3,213.4z"/>
	<path class="st0" d="M490.3,214.6l-3.7,5.6l-4,6.1c-0.7,1-2.1,1-2.8,0l-4-6.1l-3.7-5.6c-0.7-1.1,0.1-2.6,1.4-2.6h4.5v-10
		c0-0.8,1-1,1.8-1h2.8c0.8,0,1.4,0.2,1.4,1v10h4.9C490.2,212,491,213.5,490.3,214.6z"/>
</g>
<path class="st0" d="M495.7,236.6h-52c-0.3,0-0.5-0.2-0.5-0.5V192c0-0.3,0.2-0.5,0.5-0.5h52c0.3,0,0.5,0.2,0.5,0.5v44.1
	C496.2,236.4,496,236.6,495.7,236.6z M444.2,235.6h51v-43.1h-51V235.6z"/>
</svg>
