<?xml version="1.0" encoding="utf-8"?>
<!-- Generator: Adobe Illustrator 19.1.0, SVG Export Plug-In . SVG Version: 6.00 Build 0)  -->
<svg version="1.1" id="Layer_1" xmlns="http://www.w3.org/2000/svg" xmlns:xlink="http://www.w3.org/1999/xlink" x="0px" y="0px"
	 viewBox="-99 -20 760 600" style="enable-background:new -99 -20 760 600;" xml:space="preserve">
<style type="text/css">
	.st0{opacity:0.5;}
	.st1{fill:#F5F5F5;}
	.st2{fill:#BBBDBF;}
	.st3{fill:#F8FBFF;}
	.st4{fill:#E8E8E8;}
	.st5{fill:#CECECE;}
	.st6{fill:#563C81;}
	.st7{fill:#643E7C;}
	.st8{fill:#129FB9;}
	.st9{fill:#F4F4F4;}
	.st10{display:none;fill:#F4F4F4;}
	.st11{fill:#4D4D4D;}
	.st12{opacity:0.2;fill:#4F4F4E;enable-background:new    ;}
	.st13{fill:#40CDEF;}
	.st14{fill:#41CEEF;}
	.st15{fill:#42CEEF;}
	.st16{fill:#43CFEE;}
	.st17{fill:#44D0EE;}
	.st18{fill:#45D0EE;}
	.st19{fill:#46D1EE;}
	.st20{fill:#47D2EE;}
	.st21{fill:#48D2ED;}
	.st22{fill:#49D3ED;}
	.st23{fill:#4AD4ED;}
	.st24{fill:#4BD5ED;}
	.st25{fill:#4CD6ED;}
	.st26{fill:#4DD6EC;}
	.st27{fill:#4ED7EC;}
	.st28{fill:#4FD8EC;}
	.st29{fill:#50D8EC;}
	.st30{fill:#51D9EC;}
	.st31{fill:#52DAEB;}
	.st32{fill:#53DAEB;}
	.st33{fill:#54DBEB;}
	.st34{fill:#52D9EB;}
	.st35{fill:#51D8EC;}
	.st36{fill:#50D7EC;}
	.st37{fill:#4FD6EC;}
	.st38{fill:#4ED6EC;}
	.st39{fill:#4DD5ED;}
	.st40{fill:#4CD4ED;}
	.st41{fill:#4BD3ED;}
	.st42{fill:#4AD2ED;}
	.st43{fill:#49D1EE;}
	.st44{fill:#48D0EE;}
	.st45{fill:#47CFEE;}
	.st46{fill:#46CEEE;}
	.st47{fill:#45CDEE;}
	.st48{fill:#44CCEF;}
	.st49{fill:#43CCEF;}
	.st50{fill:#42CBEF;}
	.st51{fill:#41CAEF;}
	.st52{fill:#40C9F0;}
	.st53{fill:#3FC8F0;}
	.st54{fill:#3FC7F0;}
	.st55{fill:#3EC6F0;}
	.st56{fill:#3DC5F0;}
	.st57{fill:#3CC4F1;}
	.st58{fill:#3BC3F1;}
	.st59{fill:#3AC2F1;}
	.st60{fill:#39C2F1;}
	.st61{fill:#38C1F2;}
	.st62{fill:#37C0F2;}
	.st63{fill:#36BFF2;}
	.st64{fill:#35BEF2;}
	.st65{fill:#34BDF2;}
	.st66{fill:#33BCF3;}
	.st67{fill:#32BBF3;}
	.st68{fill:#31BAF3;}
	.st69{fill:#30B9F3;}
	.st70{fill:#2FB8F4;}
	.st71{fill:#2EB8F4;}
	.st72{fill:#2DB7F4;}
	.st73{fill:#2CB6F4;}
	.st74{fill:#2BB5F5;}
	.st75{fill:#2AB4F5;}
	.st76{fill:#29B3F5;}
	.st77{fill:#28B3F5;}
	.st78{fill:#27B2F5;}
	.st79{fill:#26B2F5;}
	.st80{fill:#25B2F5;}
	.st81{fill:#24B1F5;}
	.st82{fill:#23B1F5;}
	.st83{fill:#22B1F5;}
	.st84{fill:#21B0F5;}
	.st85{fill:#20B0F5;}
	.st86{fill:#1FAFF5;}
	.st87{fill:#1EAFF5;}
	.st88{fill:#1DAFF5;}
	.st89{fill:#1CAEF5;}
	.st90{fill:#1BAEF5;}
	.st91{fill:#1AAEF5;}
	.st92{fill:#19ADF5;}
	.st93{fill:#18ADF5;}
	.st94{fill:#17ACF5;}
	.st95{fill:#16ACF5;}
	.st96{fill:#15ACF5;}
	.st97{fill:#14ABF5;}
	.st98{fill:#13ABF5;}
	.st99{fill:#12ABF5;}
	.st100{fill:#11AAF5;}
	.st101{fill:#10AAF5;}
	.st102{fill:#0FA9F5;}
	.st103{fill:#0EA9F5;}
	.st104{fill:#0DA9F5;}
	.st105{fill:#0CA8F5;}
	.st106{fill:#0BA8F5;}
	.st107{fill:#0AA8F5;}
	.st108{fill:#09A7F5;}
	.st109{fill:#08A7F5;}
	.st110{opacity:0.5;fill:#4D4D4D;enable-background:new    ;}
	.st111{fill:#FFFFFF;}
	.st112{fill:#FDDB2A;}
	.st113{enable-background:new    ;}
	.st114{fill:#41BC92;}
	.st115{fill:#70CAD9;}
	.st116{fill:#F64287;}
	.st117{fill:#C6BC1F;}
	.st118{fill:#B7B9BC;}
	.st119{fill:#4EBD00;}
	.st120{fill:#B6B6B7;}
</style>
<g>
	<g>
		<g class="st0">
		</g>
		<path class="st1" d="M595,27.4c21,0,38,17.1,38,38.4v428.6c0,21.1-17.1,38.5-38.5,38.5H-32.3c-21.1,0.1-38.7-17-38.7-38.4V65.6
			C-71,44.5-53.7,27-32.3,27H595V27.4z"/>
		<path class="st2" d="M602.8,297.2c-0.1,0-0.1,0-0.2,0c-9.5,0-17.3-7.8-17.3-17.3c0-9.5,7.8-17.3,17.3-17.3
			c9.5,0,17.3,7.8,17.3,17.3c0,4.7-1.8,9.1-5.1,12.4C611.5,295.5,607.3,297.2,602.8,297.2z M602.6,263.6c-9,0-16.3,7.3-16.3,16.3
			s7.3,16.3,16.3,16.3c4.3,0.1,8.4-1.6,11.4-4.6c3.1-3.1,4.9-7.2,4.9-11.7C618.9,270.9,611.6,263.6,602.6,263.6z"/>
		<circle class="st2" cx="-42.2" cy="280.5" r="3.6"/>
		<rect x="-20" y="65" class="st3" width="591" height="431"/>
		<g>
			<rect x="-20" y="65" class="st4" width="591" height="431"/>
			<path class="st5" d="M571.3,496.3H-20.3V64.8h591.5V496.3z M-19.8,495.8h590.5V65.3H-19.8V495.8z"/>
		</g>
		<rect x="-20" y="65" class="st6" width="45" height="431"/>
		<rect x="25" y="65" class="st7" width="127" height="431"/>
		<rect x="152" y="65" class="st8" width="419" height="60"/>
	</g>
	<g>
		<g>
			<g>
				<g>
					<g>
						<g>
							<g>
								<path class="st9" d="M536.3,199.6c0-6.5-5.4-11.7-12.1-11.7h-56.9c-6.7,0-12.1,5.2-12.1,11.7v140.3
									c0,6.5,5.4,11.7,12.1,11.7h56.9c6.7,0,12.1-5.2,12.1-11.7V199.6z"/>
								<path class="st10" d="M538,312.4c0,21.9-17.7,39.6-39.6,39.6h-2.8c-21.9,0-39.6-17.7-39.6-39.6v-84.8
									c0-21.9,17.7-39.6,39.6-39.6h2.8c21.9,0,39.6,17.7,39.6,39.6V312.4z"/>
								<path class="st1" d="M535.4,339.8c0,5.9-4.9,10.8-11,10.8h-57.1c-6.1,0-11-4.8-11-10.8V199.6c0-5.9,4.9-10.8,11-10.8h57.1
									c6.1,0,11,4.8,11,10.8V339.8z"/>
								<rect x="458.1" y="208.7" class="st11" width="75.3" height="124.3"/>
								<g>
									<path class="st12" d="M502.5,340.9c0,3.4-2.8,6.1-6.2,6.1s-6.2-2.7-6.2-6.1s2.8-6.1,6.2-6.1
										C499.7,334.9,502.5,337.6,502.5,340.9z"/>
									<path class="st1" d="M502.1,341c0,3.1-2.6,5.6-5.8,5.6s-5.8-2.5-5.8-5.6s2.6-5.6,5.8-5.6
										C499.5,335.3,502.1,337.9,502.1,341z"/>
								</g>
							</g>
						</g>
					</g>
				</g>
			</g>
			<g>
				<rect x="458" y="209" class="st13" width="76" height="11"/>
				<rect x="458" y="211" class="st14" width="76" height="11"/>
				<rect x="458" y="212" class="st15" width="76" height="12"/>
				<rect x="458" y="214" class="st16" width="76" height="11"/>
				<rect x="458" y="216" class="st17" width="76" height="11"/>
				<rect x="458" y="218" class="st18" width="76" height="11"/>
				<rect x="458" y="220" class="st19" width="76" height="11"/>
				<rect x="458" y="221" class="st20" width="76" height="12"/>
				<rect x="458" y="223" class="st21" width="76" height="11"/>
				<rect x="458" y="225" class="st22" width="76" height="11"/>
				<rect x="458" y="227" class="st23" width="76" height="11"/>
				<rect x="458" y="229" class="st23" width="76" height="11"/>
				<rect x="458" y="230" class="st24" width="76" height="12"/>
				<rect x="458" y="232" class="st25" width="76" height="11"/>
				<rect x="458" y="234" class="st26" width="76" height="11"/>
				<rect x="458" y="236" class="st27" width="76" height="11"/>
				<rect x="458" y="238" class="st28" width="76" height="11"/>
				<rect x="458" y="239" class="st29" width="76" height="12"/>
				<rect x="458" y="241" class="st30" width="76" height="11"/>
				<rect x="458" y="243" class="st31" width="76" height="11"/>
				<rect x="458" y="245" class="st32" width="76" height="11"/>
				<rect x="458" y="246" class="st33" width="76" height="12"/>
				<rect x="458" y="247" class="st32" width="76" height="12"/>
				<rect x="458" y="248" class="st34" width="76" height="12"/>
				<rect x="458" y="249" class="st35" width="76" height="11"/>
				<rect x="458" y="250" class="st36" width="76" height="11"/>
				<rect x="458" y="251" class="st37" width="76" height="11"/>
				<rect x="458" y="252" class="st38" width="76" height="11"/>
				<rect x="458" y="253" class="st39" width="76" height="11"/>
				<rect x="458" y="253" class="st40" width="76" height="12"/>
				<rect x="458" y="254" class="st41" width="76" height="12"/>
				<rect x="458" y="255" class="st42" width="76" height="11"/>
				<rect x="458" y="256" class="st43" width="76" height="11"/>
				<rect x="458" y="257" class="st44" width="76" height="11"/>
				<rect x="458" y="258" class="st45" width="76" height="11"/>
				<rect x="458" y="259" class="st46" width="76" height="11"/>
				<rect x="458" y="259" class="st47" width="76" height="12"/>
				<rect x="458" y="260" class="st48" width="76" height="12"/>
				<rect x="458" y="261" class="st49" width="76" height="11"/>
				<rect x="458" y="262" class="st50" width="76" height="11"/>
				<rect x="458" y="263" class="st51" width="76" height="11"/>
				<rect x="458" y="264" class="st52" width="76" height="11"/>
				<rect x="458" y="265" class="st53" width="76" height="11"/>
				<rect x="458" y="265" class="st54" width="76" height="12"/>
				<rect x="458" y="266" class="st55" width="76" height="12"/>
				<rect x="458" y="267" class="st56" width="76" height="11"/>
				<rect x="458" y="268" class="st57" width="76" height="11"/>
				<rect x="458" y="269" class="st58" width="76" height="11"/>
				<rect x="458" y="270" class="st59" width="76" height="11"/>
				<rect x="458" y="271" class="st60" width="76" height="11"/>
				<rect x="458" y="271" class="st61" width="76" height="12"/>
				<rect x="458" y="272" class="st62" width="76" height="12"/>
				<rect x="458" y="273" class="st63" width="76" height="11"/>
				<rect x="458" y="274" class="st64" width="76" height="11"/>
				<rect x="458" y="275" class="st65" width="76" height="11"/>
				<rect x="458" y="276" class="st66" width="76" height="11"/>
				<rect x="458" y="277" class="st67" width="76" height="11"/>
				<rect x="458" y="277" class="st68" width="76" height="12"/>
				<rect x="458" y="278" class="st69" width="76" height="12"/>
				<rect x="458" y="279" class="st70" width="76" height="11"/>
				<rect x="458" y="280" class="st71" width="76" height="11"/>
				<rect x="458" y="281" class="st72" width="76" height="11"/>
				<rect x="458" y="282" class="st73" width="76" height="11"/>
				<rect x="458" y="283" class="st74" width="76" height="11"/>
				<rect x="458" y="283" class="st75" width="76" height="12"/>
				<rect x="458" y="284" class="st76" width="76" height="12"/>
				<rect x="458" y="285" class="st77" width="76" height="12"/>
				<rect x="458" y="286" class="st78" width="76" height="12"/>
				<rect x="458" y="288" class="st79" width="76" height="11"/>
				<rect x="458" y="289" class="st80" width="76" height="11"/>
				<rect x="458" y="290" class="st81" width="76" height="11"/>
				<rect x="458" y="291" class="st82" width="76" height="11"/>
				<rect x="458" y="292" class="st83" width="76" height="11"/>
				<rect x="458" y="293" class="st84" width="76" height="11"/>
				<rect x="458" y="294" class="st85" width="76" height="12"/>
				<rect x="458" y="295" class="st86" width="76" height="12"/>
				<rect x="458" y="296" class="st87" width="76" height="12"/>
				<rect x="458" y="298" class="st88" width="76" height="11"/>
				<rect x="458" y="299" class="st89" width="76" height="11"/>
				<rect x="458" y="300" class="st90" width="76" height="11"/>
				<rect x="458" y="301" class="st91" width="76" height="11"/>
				<rect x="458" y="302" class="st92" width="76" height="11"/>
				<rect x="458" y="303" class="st92" width="76" height="11"/>
				<rect x="458" y="304" class="st93" width="76" height="11"/>
				<rect x="458" y="305" class="st94" width="76" height="12"/>
				<rect x="458" y="306" class="st95" width="76" height="12"/>
				<rect x="458" y="308" class="st96" width="76" height="11"/>
				<rect x="458" y="309" class="st97" width="76" height="11"/>
				<rect x="458" y="310" class="st98" width="76" height="11"/>
				<rect x="458" y="311" class="st99" width="76" height="11"/>
				<rect x="458" y="312" class="st100" width="76" height="11"/>
				<rect x="458" y="313" class="st101" width="76" height="11"/>
				<rect x="458" y="314" class="st102" width="76" height="11"/>
				<rect x="458" y="315" class="st103" width="76" height="12"/>
				<rect x="458" y="316" class="st104" width="76" height="12"/>
				<rect x="458" y="318" class="st105" width="76" height="11"/>
				<rect x="458" y="319" class="st106" width="76" height="11"/>
				<rect x="458" y="320" class="st107" width="76" height="11"/>
				<rect x="458" y="321" class="st108" width="76" height="11"/>
				<rect x="458" y="322" class="st109" width="76" height="11"/>
			</g>
			<path class="st110" d="M503,198.2h-14.4c-0.2,0-0.3-0.1-0.3-0.3l0,0c0-0.2,0.1-0.3,0.3-0.3H503c0.2,0,0.3,0.1,0.3,0.3l0,0
				C503.3,198,503.2,198.2,503,198.2z"/>
		</g>
		<g>
			<rect x="468.6" y="244.8" class="st111" width="54.3" height="40.9"/>
			<polygon class="st112" points="525.7,302.6 465.8,302.6 465.8,271.4 468.6,268.1 468.7,271.4 495.7,281.3 522.8,271.6 
				522.9,268.1 525.7,271.4 			"/>
		</g>
		<g class="st113">
			<path d="M484.7,256.7l-1.5,1.5c-1-1.1-2.2-1.7-3.5-1.7c-1.1,0-2,0.4-2.8,1.1c-0.8,0.8-1.1,1.7-1.1,2.8c0,0.8,0.2,1.4,0.5,2
				s0.8,1.1,1.4,1.4c0.6,0.3,1.3,0.5,2,0.5c0.6,0,1.2-0.1,1.7-0.4s1.1-0.7,1.7-1.3l1.5,1.5c-0.8,0.8-1.7,1.4-2.4,1.7
				c-0.8,0.3-1.6,0.5-2.6,0.5c-1.8,0-3.3-0.6-4.4-1.7c-1.1-1.1-1.7-2.6-1.7-4.4c0-1.1,0.3-2.2,0.8-3.1c0.5-0.9,1.3-1.6,2.2-2.2
				c1-0.5,2-0.8,3.1-0.8c0.9,0,1.9,0.2,2.7,0.6C483.3,255.4,484.1,256,484.7,256.7z"/>
			<path d="M492,254.4c1.6,0,3,0.6,4.2,1.8c1.2,1.2,1.8,2.6,1.8,4.3c0,1.7-0.6,3.1-1.7,4.3c-1.2,1.2-2.6,1.7-4.2,1.7
				c-1.7,0-3.2-0.6-4.3-1.8c-1.1-1.2-1.7-2.6-1.7-4.3c0-1.1,0.3-2.1,0.8-3s1.3-1.7,2.2-2.2C490,254.7,491,254.4,492,254.4z
				 M492,256.5c-1.1,0-2,0.4-2.7,1.1c-0.7,0.7-1.1,1.7-1.1,2.8c0,1.3,0.5,2.3,1.4,3c0.7,0.6,1.5,0.9,2.4,0.9c1,0,1.9-0.4,2.7-1.1
				s1.1-1.7,1.1-2.8c0-1.1-0.4-2-1.1-2.8C494,256.9,493.1,256.5,492,256.5z"/>
			<path d="M500.1,254.7h2.6c1.7,0,2.9,0.2,3.7,0.6c0.8,0.4,1.5,1.1,2,2s0.8,2,0.8,3.3c0,0.9-0.1,1.7-0.4,2.4
				c-0.3,0.7-0.7,1.4-1.2,1.9c-0.5,0.5-1.1,0.8-1.7,1c-0.6,0.2-1.7,0.3-3.1,0.3h-2.6V254.7z M502.2,256.8v7.3h1c1,0,1.7-0.1,2.2-0.3
				s0.8-0.6,1.1-1.2c0.3-0.5,0.4-1.2,0.4-2c0-1.2-0.3-2.2-1-2.8c-0.6-0.6-1.6-0.9-3-0.9H502.2z"/>
			<path d="M513,257.5h-2.1c0.1-0.8,0.4-1.5,0.9-2c0.7-0.7,1.6-1.1,2.6-1.1c0.9,0,1.7,0.3,2.4,0.9s1,1.3,1,2.1c0,0.5-0.1,1-0.4,1.4
				c-0.3,0.4-0.7,0.8-1.2,1c0.7,0.2,1.2,0.6,1.6,1.1c0.4,0.5,0.6,1.1,0.6,1.8c0,1-0.4,1.9-1.1,2.6c-0.8,0.7-1.7,1.1-2.9,1.1
				c-1.1,0-2-0.3-2.7-1c-0.7-0.7-1.1-1.6-1.2-2.8h2.2c0.1,0.6,0.3,1,0.6,1.3c0.3,0.3,0.7,0.4,1.2,0.4c0.5,0,0.9-0.2,1.3-0.5
				c0.3-0.3,0.5-0.7,0.5-1.2c0-0.5-0.2-1-0.7-1.3c-0.5-0.4-1.1-0.5-2-0.6V259c0.5,0,0.9-0.1,1.2-0.2c0.3-0.1,0.5-0.3,0.6-0.5
				s0.2-0.4,0.2-0.7c0-0.3-0.1-0.6-0.3-0.8c-0.2-0.2-0.5-0.3-0.9-0.3c-0.3,0-0.6,0.1-0.9,0.3C513.3,257,513.1,257.2,513,257.5z"/>
		</g>
	</g>
	<g class="st113">
		<path class="st111" d="M224.2,104c0,0.2,0,0.4,0,0.6s-0.1,0.3-0.1,0.4s-0.1,0.2-0.2,0.2s-0.2,0.1-0.3,0.1H211
			c-0.2,0-0.3,0-0.4-0.1s-0.2-0.1-0.3-0.2s-0.2-0.2-0.2-0.4s-0.1-0.4-0.1-0.7c0-0.2,0-0.4,0-0.6s0.1-0.3,0.1-0.5
			c0.1-0.1,0.1-0.3,0.2-0.4c0.1-0.1,0.2-0.3,0.4-0.4l4.5-4.7c1.1-1.1,1.9-2,2.5-2.9s1.1-1.6,1.5-2.3s0.6-1.3,0.7-1.9
			s0.2-1.1,0.2-1.6s-0.1-1-0.3-1.4c-0.2-0.5-0.4-0.8-0.7-1.2c-0.3-0.3-0.7-0.6-1.2-0.8s-1-0.3-1.7-0.3c-0.7,0-1.4,0.1-2,0.3
			s-1.1,0.4-1.5,0.7c-0.4,0.2-0.8,0.5-1.1,0.7c-0.3,0.2-0.5,0.3-0.7,0.3c-0.1,0-0.2,0-0.2-0.1c-0.1,0-0.1-0.1-0.2-0.2
			c0-0.1-0.1-0.2-0.1-0.4c0-0.2,0-0.4,0-0.6c0-0.2,0-0.3,0-0.5s0-0.2,0.1-0.3s0.1-0.2,0.1-0.3s0.1-0.2,0.3-0.3s0.4-0.3,0.7-0.5
			s0.8-0.4,1.3-0.6s1.1-0.4,1.7-0.5s1.3-0.2,2-0.2c1.1,0,2.1,0.2,2.9,0.5s1.5,0.7,2.1,1.3s1,1.2,1.2,1.9s0.4,1.5,0.4,2.3
			c0,0.7-0.1,1.5-0.2,2.2s-0.4,1.5-0.8,2.3s-1,1.8-1.8,2.8s-1.8,2.2-3.1,3.5l-3.6,3.8h9.9c0.1,0,0.2,0,0.3,0.1s0.2,0.1,0.2,0.2
			s0.1,0.2,0.1,0.4S224.2,103.8,224.2,104z"/>
		<path class="st111" d="M249.6,99c0,1.1-0.2,2-0.6,2.8s-0.9,1.5-1.6,2.1s-1.5,1-2.5,1.3s-2,0.4-3,0.4c-0.8,0-1.5-0.1-2.1-0.2
			s-1.2-0.3-1.7-0.5s-0.9-0.4-1.3-0.6s-0.6-0.4-0.7-0.5s-0.2-0.3-0.3-0.5s-0.1-0.5-0.1-0.9c0-0.3,0-0.5,0-0.6s0.1-0.3,0.1-0.4
			s0.1-0.2,0.2-0.2s0.2-0.1,0.2-0.1c0.2,0,0.4,0.1,0.7,0.3s0.7,0.4,1.2,0.7s1,0.5,1.7,0.7s1.4,0.3,2.3,0.3c0.7,0,1.3-0.1,1.8-0.3
			s1-0.4,1.4-0.7s0.7-0.7,0.9-1.2s0.3-1,0.3-1.6c0-0.6-0.1-1.2-0.4-1.7s-0.7-0.9-1.2-1.2s-1-0.7-1.6-0.9s-1.2-0.6-1.9-0.9
			s-1.3-0.6-1.9-1s-1.2-0.8-1.6-1.3s-0.9-1.1-1.2-1.7s-0.4-1.5-0.4-2.4c0-0.9,0.2-1.8,0.5-2.5s0.8-1.4,1.4-1.9s1.3-0.9,2.2-1.2
			s1.8-0.4,2.8-0.4c0.5,0,1,0,1.5,0.1s1,0.2,1.4,0.4s0.9,0.3,1.2,0.5s0.6,0.3,0.7,0.4s0.2,0.2,0.2,0.3s0.1,0.1,0.1,0.2
			s0,0.2,0.1,0.4s0,0.3,0,0.5c0,0.2,0,0.4,0,0.6s0,0.3-0.1,0.4s-0.1,0.2-0.1,0.2s-0.1,0.1-0.2,0.1c-0.1,0-0.3-0.1-0.6-0.2
			s-0.6-0.3-1-0.6s-0.9-0.4-1.4-0.6s-1.2-0.3-1.8-0.3c-0.6,0-1.2,0.1-1.7,0.3s-0.9,0.4-1.2,0.7s-0.5,0.6-0.7,1s-0.2,0.8-0.2,1.2
			c0,0.6,0.1,1.2,0.4,1.6s0.7,0.9,1.2,1.2s1,0.7,1.7,1s1.3,0.6,1.9,0.9s1.3,0.6,1.9,1s1.2,0.8,1.7,1.3s0.9,1.1,1.2,1.7
			S249.6,98,249.6,99z"/>
		<path class="st111" d="M268,83.9c0,0.2,0,0.4,0,0.6s-0.1,0.3-0.1,0.4s-0.1,0.2-0.2,0.2s-0.2,0.1-0.3,0.1H261v19.7
			c0,0.1,0,0.2-0.1,0.2s-0.1,0.1-0.2,0.2s-0.3,0.1-0.5,0.1s-0.4,0-0.7,0c-0.3,0-0.5,0-0.7,0s-0.4-0.1-0.5-0.1s-0.2-0.1-0.2-0.2
			s-0.1-0.2-0.1-0.2V85.2h-6.4c-0.1,0-0.2,0-0.3-0.1s-0.1-0.1-0.2-0.2s-0.1-0.2-0.1-0.4s0-0.4,0-0.6s0-0.4,0-0.6s0.1-0.3,0.1-0.4
			s0.1-0.2,0.2-0.2s0.2-0.1,0.3-0.1h15.8c0.1,0,0.2,0,0.3,0.1s0.1,0.1,0.2,0.2s0.1,0.2,0.1,0.4S268,83.7,268,83.9z"/>
		<path class="st111" d="M283.9,104.1c0,0.2,0,0.4,0,0.6s-0.1,0.3-0.1,0.4s-0.1,0.2-0.2,0.2s-0.2,0.1-0.3,0.1h-10.9
			c-0.3,0-0.5-0.1-0.8-0.3s-0.4-0.5-0.4-1V83.8c0-0.5,0.1-0.8,0.4-1s0.5-0.3,0.8-0.3h10.8c0.1,0,0.2,0,0.3,0.1s0.1,0.1,0.2,0.2
			s0.1,0.2,0.1,0.4s0,0.4,0,0.6c0,0.2,0,0.4,0,0.6s-0.1,0.3-0.1,0.4s-0.1,0.2-0.2,0.2s-0.2,0.1-0.3,0.1h-8.9v7.1h7.6
			c0.1,0,0.2,0,0.3,0.1s0.1,0.1,0.2,0.2s0.1,0.2,0.1,0.4s0,0.4,0,0.6c0,0.2,0,0.4,0,0.5s-0.1,0.3-0.1,0.4s-0.1,0.2-0.2,0.2
			s-0.2,0.1-0.3,0.1h-7.6v8.1h9c0.1,0,0.2,0,0.3,0.1s0.1,0.1,0.2,0.2s0.1,0.2,0.1,0.4S283.9,103.9,283.9,104.1z"/>
		<path class="st111" d="M302.8,89.2c0,1.1-0.2,2.2-0.6,3.1s-0.9,1.7-1.6,2.3s-1.6,1.1-2.6,1.5s-2.2,0.5-3.6,0.5h-2.6v8.2
			c0,0.1,0,0.2-0.1,0.2s-0.1,0.1-0.2,0.2s-0.3,0.1-0.5,0.1s-0.4,0-0.7,0s-0.5,0-0.7,0s-0.3-0.1-0.5-0.1s-0.2-0.1-0.2-0.2
			s-0.1-0.2-0.1-0.2v-21c0-0.5,0.1-0.8,0.4-1s0.5-0.3,0.8-0.3h4.9c0.5,0,1,0,1.4,0.1s1,0.1,1.6,0.3s1.2,0.4,1.9,0.8s1.2,0.8,1.6,1.4
			s0.8,1.2,1,1.9S302.8,88.4,302.8,89.2z M299.6,89.5c0-0.9-0.2-1.7-0.5-2.3s-0.8-1.1-1.3-1.4s-1-0.5-1.6-0.6s-1.1-0.1-1.6-0.1h-2.8
			v9.1h2.7c0.9,0,1.7-0.1,2.3-0.4s1.1-0.6,1.5-1s0.7-0.9,0.9-1.5S299.6,90.2,299.6,89.5z"/>
		<path class="st111" d="M324.8,104.8c0,0.1-0.1,0.2-0.2,0.3s-0.2,0.1-0.3,0.2s-0.3,0.1-0.6,0.1s-0.5,0-0.9,0c-0.3,0-0.5,0-0.7,0
			s-0.4,0-0.5,0s-0.3,0-0.4-0.1s-0.2-0.1-0.3-0.1s-0.1-0.1-0.2-0.2s-0.1-0.1-0.1-0.2l-7.4-21.1c-0.1-0.3-0.1-0.5-0.1-0.6
			s0-0.3,0.1-0.4s0.3-0.1,0.5-0.2s0.6,0,0.9,0c0.3,0,0.6,0,0.8,0s0.3,0,0.4,0.1s0.2,0.1,0.2,0.2s0.1,0.2,0.1,0.3l6.5,19.1h0
			l6.3-19.1c0-0.1,0.1-0.2,0.1-0.3s0.1-0.1,0.2-0.2s0.3-0.1,0.5-0.1s0.5,0,0.8,0c0.4,0,0.7,0,0.9,0s0.4,0.1,0.4,0.2s0.1,0.2,0.1,0.4
			s-0.1,0.4-0.2,0.6L324.8,104.8z"/>
		<path class="st111" d="M348.6,104.1c0,0.2,0,0.4,0,0.6s-0.1,0.3-0.1,0.4s-0.1,0.2-0.2,0.2s-0.2,0.1-0.3,0.1h-10.9
			c-0.3,0-0.5-0.1-0.8-0.3s-0.4-0.5-0.4-1V83.8c0-0.5,0.1-0.8,0.4-1s0.5-0.3,0.8-0.3h10.8c0.1,0,0.2,0,0.3,0.1s0.1,0.1,0.2,0.2
			s0.1,0.2,0.1,0.4s0,0.4,0,0.6c0,0.2,0,0.4,0,0.6s-0.1,0.3-0.1,0.4s-0.1,0.2-0.2,0.2s-0.2,0.1-0.3,0.1H339v7.1h7.6
			c0.1,0,0.2,0,0.3,0.1s0.1,0.1,0.2,0.2s0.1,0.2,0.1,0.4s0,0.4,0,0.6c0,0.2,0,0.4,0,0.5s-0.1,0.3-0.1,0.4s-0.1,0.2-0.2,0.2
			s-0.2,0.1-0.3,0.1H339v8.1h9c0.1,0,0.2,0,0.3,0.1s0.1,0.1,0.2,0.2s0.1,0.2,0.1,0.4S348.6,103.9,348.6,104.1z"/>
		<path class="st111" d="M368.7,104.9c0,0.1,0,0.2-0.1,0.2s-0.1,0.1-0.2,0.2s-0.3,0.1-0.5,0.1s-0.5,0-0.8,0c-0.3,0-0.6,0-0.7,0
			s-0.3-0.1-0.5-0.1s-0.2-0.1-0.3-0.2s-0.1-0.2-0.2-0.4l-2.1-5.4c-0.2-0.6-0.5-1.2-0.8-1.7s-0.6-0.9-0.9-1.3s-0.8-0.7-1.3-0.9
			s-1.1-0.3-1.8-0.3h-2v9.7c0,0.1,0,0.2-0.1,0.2s-0.1,0.1-0.2,0.2s-0.3,0.1-0.5,0.1s-0.4,0-0.7,0s-0.5,0-0.7,0s-0.3-0.1-0.5-0.1
			s-0.2-0.1-0.2-0.2s-0.1-0.2-0.1-0.2V83.8c0-0.5,0.1-0.8,0.4-1s0.5-0.3,0.8-0.3h4.8c0.6,0,1.1,0,1.4,0s0.7,0.1,1,0.1
			c0.9,0.2,1.7,0.4,2.3,0.7s1.2,0.7,1.7,1.2s0.8,1.1,1,1.7s0.3,1.4,0.3,2.2c0,0.8-0.1,1.4-0.3,2s-0.5,1.1-0.9,1.6s-0.8,0.9-1.4,1.2
			s-1.1,0.6-1.8,0.9c0.4,0.2,0.7,0.4,1,0.6s0.6,0.6,0.9,0.9s0.5,0.8,0.7,1.2s0.5,1,0.7,1.5l2,5c0.2,0.4,0.3,0.7,0.3,0.9
			S368.7,104.8,368.7,104.9z M364.2,88.9c0-0.9-0.2-1.6-0.6-2.3s-1.1-1.1-2-1.3c-0.3-0.1-0.6-0.1-1-0.2s-0.9-0.1-1.5-0.1h-2.5v7.7h3
			c0.8,0,1.5-0.1,2.1-0.3s1.1-0.5,1.5-0.8s0.7-0.8,0.9-1.2S364.2,89.4,364.2,88.9z"/>
		<path class="st111" d="M376.1,104.9c0,0.1,0,0.2-0.1,0.2s-0.1,0.1-0.2,0.2s-0.3,0.1-0.5,0.1s-0.4,0-0.7,0c-0.3,0-0.5,0-0.7,0
			s-0.4-0.1-0.5-0.1s-0.2-0.1-0.2-0.2s-0.1-0.2-0.1-0.2V83c0-0.1,0-0.2,0.1-0.2s0.1-0.1,0.3-0.2s0.3-0.1,0.5-0.1s0.4,0,0.7,0
			c0.3,0,0.5,0,0.7,0s0.3,0.1,0.5,0.1s0.2,0.1,0.2,0.2s0.1,0.2,0.1,0.2V104.9z"/>
		<path class="st111" d="M394.1,83.9c0,0.2,0,0.4,0,0.6s-0.1,0.3-0.1,0.4s-0.1,0.2-0.2,0.2s-0.2,0.1-0.2,0.1h-8.3v7.7h7.9
			c0.1,0,0.2,0,0.2,0.1s0.1,0.1,0.2,0.2s0.1,0.2,0.1,0.4s0,0.4,0,0.6c0,0.2,0,0.4,0,0.6s-0.1,0.3-0.1,0.4s-0.1,0.2-0.2,0.2
			s-0.2,0.1-0.2,0.1h-7.9v9.5c0,0.1,0,0.2-0.1,0.2s-0.1,0.1-0.2,0.2s-0.3,0.1-0.5,0.1s-0.4,0-0.7,0c-0.3,0-0.5,0-0.7,0
			s-0.4-0.1-0.5-0.1s-0.2-0.1-0.2-0.2s-0.1-0.2-0.1-0.2V83.8c0-0.5,0.1-0.8,0.4-1s0.5-0.3,0.8-0.3h10.2c0.1,0,0.2,0,0.2,0.1
			s0.1,0.1,0.2,0.2s0.1,0.2,0.1,0.4S394.1,83.7,394.1,83.9z"/>
		<path class="st111" d="M401.7,104.9c0,0.1,0,0.2-0.1,0.2s-0.1,0.1-0.2,0.2s-0.3,0.1-0.5,0.1s-0.4,0-0.7,0c-0.3,0-0.5,0-0.7,0
			s-0.4-0.1-0.5-0.1s-0.2-0.1-0.2-0.2s-0.1-0.2-0.1-0.2V83c0-0.1,0-0.2,0.1-0.2s0.1-0.1,0.3-0.2s0.3-0.1,0.5-0.1s0.4,0,0.7,0
			c0.3,0,0.5,0,0.7,0s0.3,0.1,0.5,0.1s0.2,0.1,0.2,0.2s0.1,0.2,0.1,0.2V104.9z"/>
		<path class="st111" d="M423,102.1c0,0.2,0,0.4,0,0.5s0,0.3-0.1,0.4s-0.1,0.2-0.1,0.3s-0.1,0.2-0.2,0.3s-0.4,0.3-0.7,0.5
			s-0.8,0.5-1.4,0.7s-1.2,0.4-1.9,0.6s-1.5,0.2-2.4,0.2c-1.5,0-2.8-0.2-4-0.7s-2.2-1.2-3-2.2s-1.5-2.1-1.9-3.6s-0.7-3-0.7-4.9
			c0-1.9,0.2-3.6,0.7-5s1.2-2.7,2-3.8s1.9-1.8,3.2-2.3s2.6-0.8,4.1-0.8c0.7,0,1.3,0.1,1.9,0.2s1.2,0.3,1.7,0.5s1,0.4,1.4,0.7
			s0.7,0.4,0.9,0.6s0.3,0.3,0.3,0.4s0.1,0.2,0.1,0.3s0.1,0.2,0.1,0.4s0,0.3,0,0.5c0,0.2,0,0.4,0,0.6s-0.1,0.3-0.1,0.4
			c0,0.1-0.1,0.2-0.2,0.2c-0.1,0.1-0.1,0.1-0.2,0.1c-0.2,0-0.4-0.1-0.7-0.3c-0.3-0.2-0.7-0.5-1.1-0.8s-1-0.5-1.7-0.8
			c-0.7-0.2-1.5-0.3-2.4-0.3c-1,0-1.9,0.2-2.8,0.6c-0.8,0.4-1.5,1-2.1,1.8s-1,1.7-1.4,2.9s-0.5,2.4-0.5,3.9c0,1.4,0.2,2.7,0.5,3.8
			c0.3,1.1,0.8,2,1.3,2.8s1.3,1.3,2.1,1.7c0.8,0.4,1.8,0.6,2.9,0.6c0.9,0,1.7-0.1,2.4-0.3c0.7-0.2,1.3-0.5,1.7-0.7s0.9-0.5,1.2-0.7
			c0.3-0.2,0.5-0.3,0.7-0.3c0.1,0,0.2,0,0.2,0.1c0.1,0,0.1,0.1,0.1,0.2c0,0.1,0.1,0.2,0.1,0.4S423,101.8,423,102.1z"/>
		<path class="st111" d="M444,104.3c0.1,0.3,0.1,0.5,0.1,0.6s0,0.3-0.1,0.4s-0.2,0.1-0.5,0.2s-0.5,0-0.9,0s-0.7,0-0.9,0
			s-0.4,0-0.5-0.1s-0.2-0.1-0.2-0.2s-0.1-0.2-0.1-0.3l-2-5.5h-9.5l-1.9,5.5c0,0.1-0.1,0.2-0.1,0.3s-0.1,0.1-0.3,0.2
			s-0.3,0.1-0.5,0.1s-0.5,0-0.8,0c-0.3,0-0.6,0-0.8,0s-0.4-0.1-0.5-0.2s-0.1-0.2-0.1-0.4s0.1-0.4,0.1-0.6l7.6-21.1
			c0-0.1,0.1-0.2,0.2-0.3s0.2-0.1,0.3-0.2s0.3-0.1,0.6-0.1s0.5,0,0.9,0c0.4,0,0.7,0,0.9,0s0.4,0,0.6,0.1s0.3,0.1,0.4,0.2
			s0.1,0.2,0.2,0.3L444,104.3z M434.2,85.6L434.2,85.6l-3.9,11.3h7.9L434.2,85.6z"/>
		<path class="st111" d="M459.3,83.9c0,0.2,0,0.4,0,0.6s-0.1,0.3-0.1,0.4s-0.1,0.2-0.2,0.2s-0.2,0.1-0.3,0.1h-6.4v19.7
			c0,0.1,0,0.2-0.1,0.2s-0.1,0.1-0.2,0.2s-0.3,0.1-0.5,0.1s-0.4,0-0.7,0c-0.3,0-0.5,0-0.7,0s-0.4-0.1-0.5-0.1s-0.2-0.1-0.2-0.2
			s-0.1-0.2-0.1-0.2V85.2h-6.4c-0.1,0-0.2,0-0.3-0.1s-0.1-0.1-0.2-0.2s-0.1-0.2-0.1-0.4s0-0.4,0-0.6s0-0.4,0-0.6s0.1-0.3,0.1-0.4
			s0.1-0.2,0.2-0.2s0.2-0.1,0.3-0.1h15.8c0.1,0,0.2,0,0.3,0.1s0.1,0.1,0.2,0.2s0.1,0.2,0.1,0.4S459.3,83.7,459.3,83.9z"/>
		<path class="st111" d="M465.6,104.9c0,0.1,0,0.2-0.1,0.2s-0.1,0.1-0.2,0.2s-0.3,0.1-0.5,0.1s-0.4,0-0.7,0c-0.3,0-0.5,0-0.7,0
			s-0.4-0.1-0.5-0.1s-0.2-0.1-0.2-0.2s-0.1-0.2-0.1-0.2V83c0-0.1,0-0.2,0.1-0.2s0.1-0.1,0.3-0.2s0.3-0.1,0.5-0.1s0.4,0,0.7,0
			c0.3,0,0.5,0,0.7,0s0.3,0.1,0.5,0.1s0.2,0.1,0.2,0.2s0.1,0.2,0.1,0.2V104.9z"/>
		<path class="st111" d="M490.7,93.7c0,1.8-0.2,3.5-0.7,5s-1.1,2.7-1.9,3.8s-1.9,1.8-3.2,2.4s-2.8,0.8-4.6,0.8
			c-1.7,0-3.2-0.3-4.4-0.8s-2.3-1.3-3.1-2.2s-1.4-2.2-1.8-3.6s-0.6-3.1-0.6-5c0-1.8,0.2-3.4,0.7-4.9s1.1-2.7,2-3.7s2-1.8,3.3-2.4
			s2.8-0.8,4.6-0.8c1.7,0,3.1,0.3,4.4,0.8s2.3,1.2,3.1,2.2s1.4,2.2,1.8,3.6S490.7,91.9,490.7,93.7z M487.5,93.9
			c0-1.3-0.1-2.5-0.3-3.6c-0.2-1.1-0.6-2.1-1.1-2.9c-0.5-0.8-1.2-1.5-2.1-1.9c-0.9-0.5-2-0.7-3.3-0.7c-1.3,0-2.4,0.2-3.3,0.7
			s-1.6,1.1-2.2,2s-1,1.8-1.2,2.9s-0.4,2.2-0.4,3.5c0,1.3,0.1,2.6,0.3,3.7c0.2,1.1,0.6,2.1,1.1,2.9s1.2,1.4,2.1,1.9
			c0.9,0.5,2,0.7,3.3,0.7c1.3,0,2.4-0.2,3.3-0.7s1.6-1.2,2.2-2c0.5-0.8,0.9-1.8,1.2-2.9S487.5,95.1,487.5,93.9z"/>
		<path class="st111" d="M512.6,104.1c0,0.2,0,0.4-0.1,0.6s-0.2,0.3-0.3,0.4c-0.1,0.1-0.3,0.2-0.4,0.2s-0.3,0.1-0.5,0.1h-1
			c-0.3,0-0.6,0-0.8-0.1s-0.5-0.2-0.7-0.4c-0.2-0.2-0.4-0.4-0.6-0.7c-0.2-0.3-0.4-0.7-0.7-1.1l-6.9-12.9c-0.4-0.7-0.7-1.4-1.1-2.1
			c-0.4-0.7-0.7-1.4-1-2.1h0c0,0.8,0,1.7,0.1,2.6s0,1.8,0,2.6v13.7c0,0.1,0,0.2-0.1,0.2s-0.1,0.1-0.3,0.2c-0.1,0-0.3,0.1-0.5,0.1
			c-0.2,0-0.4,0-0.7,0s-0.5,0-0.7,0s-0.3-0.1-0.5-0.1c-0.1,0-0.2-0.1-0.2-0.2s-0.1-0.2-0.1-0.2v-21c0-0.5,0.1-0.8,0.4-1
			c0.3-0.2,0.6-0.3,0.9-0.3h1.5c0.4,0,0.6,0,0.9,0.1s0.4,0.2,0.6,0.3c0.2,0.1,0.4,0.3,0.5,0.6c0.2,0.2,0.4,0.5,0.6,0.9l5.3,10
			c0.3,0.6,0.6,1.2,1,1.8c0.3,0.6,0.6,1.2,0.9,1.7s0.6,1.1,0.8,1.7s0.6,1.1,0.8,1.6h0c0-0.9,0-1.9,0-2.9s0-2,0-2.9V83.1
			c0-0.1,0-0.2,0.1-0.2s0.1-0.1,0.3-0.2s0.3-0.1,0.5-0.1c0.2,0,0.4,0,0.8,0c0.3,0,0.5,0,0.7,0s0.4,0.1,0.5,0.1s0.2,0.1,0.2,0.2
			s0.1,0.1,0.1,0.2V104.1z"/>
	</g>
	<g>
		<path class="st114" d="M12.5,113h-20c-3,0-5.5-2.5-5.5-5.5v-20c0-3,2.5-5.5,5.5-5.5h20c3,0,5.5,2.5,5.5,5.5v20
			C18,110.5,15.5,113,12.5,113z"/>
		<rect x="33.3" y="87" class="st111" width="59" height="3.7"/>
		<rect x="33.3" y="96.7" class="st111" width="74.3" height="3.7"/>
		<rect x="33.3" y="106.3" class="st111" width="88.3" height="3.7"/>
	</g>
	<g>
		<path class="st115" d="M12.5,180.8h-20c-3,0-5.5-2.5-5.5-5.5v-20c0-3,2.5-5.5,5.5-5.5h20c3,0,5.5,2.5,5.5,5.5v20
			C18,178.4,15.5,180.8,12.5,180.8z"/>
		<rect x="33.3" y="154.8" class="st111" width="59" height="3.7"/>
		<rect x="33.3" y="164.5" class="st111" width="74.3" height="3.7"/>
		<rect x="33.3" y="174.2" class="st111" width="88.3" height="3.7"/>
	</g>
	<g>
		<path class="st116" d="M12.5,248.7h-20c-3,0-5.5-2.5-5.5-5.5v-20c0-3,2.5-5.5,5.5-5.5h20c3,0,5.5,2.5,5.5,5.5v20
			C18,246.2,15.5,248.7,12.5,248.7z"/>
		<rect x="33.3" y="222.7" class="st111" width="59" height="3.7"/>
		<rect x="33.3" y="232.3" class="st111" width="74.3" height="3.7"/>
		<rect x="33.3" y="242" class="st111" width="88.3" height="3.7"/>
	</g>
	<g>
		<path class="st117" d="M12.5,316.5h-20c-3,0-5.5-2.5-5.5-5.5v-20c0-3,2.5-5.5,5.5-5.5h20c3,0,5.5,2.5,5.5,5.5v20
			C18,314,15.5,316.5,12.5,316.5z"/>
		<rect x="33.3" y="290.5" class="st111" width="59" height="3.7"/>
		<rect x="33.3" y="300.2" class="st111" width="74.3" height="3.7"/>
		<rect x="33.3" y="309.8" class="st111" width="88.3" height="3.7"/>
	</g>
	<path class="st111" d="M35.3,412.7v-70.1c0-3.6,2.5-6.5,5.5-6.5h95.7c3,0,5.5,2.9,5.5,6.5v70.1"/>
	<g>
		<path class="st111" d="M270.3,318.7h-80.5c-6.6,0-12-5.4-12-12v-73.4c0-6.6,5.4-12,12-12h80.5c6.6,0,12,5.4,12,12v73.4
			C282.3,313.3,276.9,318.7,270.3,318.7z"/>
		<path class="st118" d="M266.3,278.5h-72.7c-3.1,0-5.6-2.5-5.6-5.5v-4.2c0-3.1,2.5-5.5,5.6-5.5h72.7c3.1,0,5.6,2.5,5.6,5.5v4.2
			C271.9,276.1,269.4,278.5,266.3,278.5z M193.6,263.8c-2.8,0-5.1,2.3-5.1,5v4.2c0,2.8,2.3,5,5.1,5h72.7c2.8,0,5.1-2.3,5.1-5v-4.2
			c0-2.8-2.3-5-5.1-5H193.6z"/>
		<path class="st119" d="M266.3,302.3h-72.7c-2.9,0-5.3-2.4-5.3-5.3v-4.2c0-2.9,2.4-5.3,5.3-5.3h72.7c2.9,0,5.3,2.4,5.3,5.3v4.2
			C271.6,299.9,269.2,302.3,266.3,302.3z"/>
		<path class="st118" d="M266.3,253.8h-72.7c-3.1,0-5.6-2.5-5.6-5.5V244c0-3.1,2.5-5.5,5.6-5.5h72.7c3.1,0,5.6,2.5,5.6,5.5v4.2
			C271.9,251.3,269.4,253.8,266.3,253.8z M193.6,239c-2.8,0-5.1,2.3-5.1,5v4.2c0,2.8,2.3,5,5.1,5h72.7c2.8,0,5.1-2.3,5.1-5V244
			c0-2.8-2.3-5-5.1-5H193.6z"/>
		<g class="st113">
			<path class="st111" d="M221.5,297c0,0.1,0,0.1,0,0.2s0,0.1,0,0.1c0,0,0,0.1-0.1,0.1c0,0,0,0-0.1,0h-2.7c-0.1,0-0.1,0-0.2-0.1
				c-0.1,0-0.1-0.1-0.1-0.3v-5.6c0,0,0,0,0-0.1c0,0,0,0,0.1,0c0,0,0.1,0,0.1,0s0.1,0,0.2,0c0.1,0,0.1,0,0.2,0c0.1,0,0.1,0,0.1,0
				c0,0,0.1,0,0.1,0s0,0,0,0.1v5.2h2.2c0,0,0.1,0,0.1,0c0,0,0,0,0.1,0.1c0,0,0,0.1,0,0.1S221.5,296.9,221.5,297z"/>
			<path class="st111" d="M227.3,294.2c0,0.5-0.1,0.9-0.2,1.3c-0.1,0.4-0.3,0.7-0.5,1c-0.2,0.3-0.5,0.5-0.9,0.6
				c-0.3,0.1-0.8,0.2-1.2,0.2c-0.5,0-0.9-0.1-1.2-0.2c-0.3-0.1-0.6-0.3-0.8-0.6c-0.2-0.3-0.4-0.6-0.5-1c-0.1-0.4-0.2-0.8-0.2-1.3
				c0-0.5,0.1-0.9,0.2-1.3c0.1-0.4,0.3-0.7,0.5-1c0.2-0.3,0.5-0.5,0.9-0.6c0.3-0.1,0.8-0.2,1.2-0.2c0.4,0,0.8,0.1,1.2,0.2
				c0.3,0.1,0.6,0.3,0.8,0.6s0.4,0.6,0.5,1C227.2,293.3,227.3,293.7,227.3,294.2z M226.4,294.3c0-0.3,0-0.7-0.1-1
				c-0.1-0.3-0.2-0.6-0.3-0.8c-0.1-0.2-0.3-0.4-0.6-0.5c-0.2-0.1-0.5-0.2-0.9-0.2s-0.6,0.1-0.9,0.2c-0.2,0.1-0.4,0.3-0.6,0.5
				c-0.1,0.2-0.3,0.5-0.3,0.8s-0.1,0.6-0.1,0.9c0,0.4,0,0.7,0.1,1c0.1,0.3,0.2,0.6,0.3,0.8c0.1,0.2,0.3,0.4,0.6,0.5s0.5,0.2,0.9,0.2
				c0.4,0,0.6-0.1,0.9-0.2c0.2-0.1,0.4-0.3,0.6-0.5c0.1-0.2,0.3-0.5,0.3-0.8S226.4,294.6,226.4,294.3z"/>
			<path class="st111" d="M233.1,292.1c0,0.1,0,0.1,0,0.2c0,0,0,0.1,0,0.1c0,0,0,0.1,0,0.1s0,0-0.1,0c0,0-0.1,0-0.2-0.1
				s-0.2-0.1-0.4-0.2c-0.1-0.1-0.3-0.1-0.5-0.2s-0.4-0.1-0.7-0.1c-0.3,0-0.6,0.1-0.9,0.2s-0.5,0.3-0.7,0.5c-0.2,0.2-0.3,0.5-0.4,0.8
				c-0.1,0.3-0.1,0.6-0.1,1c0,0.4,0.1,0.7,0.2,1c0.1,0.3,0.3,0.6,0.4,0.8c0.2,0.2,0.4,0.4,0.7,0.5s0.6,0.2,0.9,0.2
				c0.2,0,0.4,0,0.6-0.1c0.2,0,0.4-0.1,0.5-0.2v-1.8h-1.4c-0.1,0-0.1,0-0.1-0.1c0-0.1,0-0.1,0-0.2c0-0.1,0-0.1,0-0.2
				c0,0,0-0.1,0-0.1s0,0,0-0.1c0,0,0,0,0.1,0h1.9c0,0,0.1,0,0.1,0c0,0,0.1,0,0.1,0.1c0,0,0,0.1,0.1,0.1s0,0.1,0,0.2v2.3
				c0,0.1,0,0.2,0,0.2c0,0.1-0.1,0.1-0.2,0.2c-0.1,0-0.2,0.1-0.4,0.1c-0.1,0.1-0.3,0.1-0.4,0.1c-0.2,0-0.3,0.1-0.5,0.1
				c-0.2,0-0.3,0-0.5,0c-0.5,0-0.9-0.1-1.3-0.2s-0.7-0.4-0.9-0.6c-0.3-0.3-0.4-0.6-0.6-1c-0.1-0.4-0.2-0.8-0.2-1.3
				c0-0.5,0.1-0.9,0.2-1.3s0.4-0.7,0.6-1c0.3-0.3,0.6-0.5,1-0.6c0.4-0.2,0.8-0.2,1.2-0.2c0.2,0,0.4,0,0.7,0.1c0.2,0,0.4,0.1,0.5,0.1
				s0.3,0.1,0.4,0.2c0.1,0.1,0.2,0.1,0.2,0.2c0,0,0.1,0.1,0.1,0.1C233.1,291.9,233.1,292,233.1,292.1z"/>
			<path class="st111" d="M235.4,297.2C235.4,297.2,235.4,297.3,235.4,297.2c0,0.1-0.1,0.1-0.1,0.1s-0.1,0-0.1,0c-0.1,0-0.1,0-0.2,0
				c-0.1,0-0.1,0-0.2,0s-0.1,0-0.1,0s-0.1,0-0.1,0c0,0,0,0,0-0.1v-5.8c0,0,0,0,0-0.1c0,0,0,0,0.1,0c0,0,0.1,0,0.1,0
				c0.1,0,0.1,0,0.2,0c0.1,0,0.1,0,0.2,0c0.1,0,0.1,0,0.1,0c0,0,0.1,0,0.1,0s0,0,0,0.1V297.2z"/>
			<path class="st111" d="M241.6,297c0,0.1,0,0.1,0,0.2c0,0,0,0.1-0.1,0.1s-0.1,0-0.1,0.1s-0.1,0-0.1,0H241c-0.1,0-0.2,0-0.2,0
				s-0.1,0-0.2-0.1c-0.1,0-0.1-0.1-0.2-0.2s-0.1-0.2-0.2-0.3l-1.9-3.5c-0.1-0.2-0.2-0.4-0.3-0.6c-0.1-0.2-0.2-0.4-0.3-0.6h0
				c0,0.2,0,0.5,0,0.7c0,0.2,0,0.5,0,0.7v3.7c0,0,0,0,0,0.1s0,0-0.1,0s-0.1,0-0.1,0s-0.1,0-0.2,0s-0.1,0-0.2,0c-0.1,0-0.1,0-0.1,0
				c0,0-0.1,0-0.1,0s0,0,0-0.1v-5.6c0-0.1,0-0.2,0.1-0.3c0.1-0.1,0.1-0.1,0.2-0.1h0.4c0.1,0,0.2,0,0.2,0s0.1,0,0.2,0.1
				c0,0,0.1,0.1,0.1,0.1c0,0.1,0.1,0.1,0.1,0.2l1.4,2.7c0.1,0.2,0.2,0.3,0.3,0.5c0.1,0.2,0.2,0.3,0.2,0.5c0.1,0.2,0.2,0.3,0.2,0.4
				c0.1,0.1,0.1,0.3,0.2,0.4h0c0-0.2,0-0.5,0-0.8c0-0.3,0-0.5,0-0.8v-3.3c0,0,0,0,0-0.1c0,0,0,0,0.1,0s0.1,0,0.1,0
				c0.1,0,0.1,0,0.2,0c0.1,0,0.1,0,0.2,0c0.1,0,0.1,0,0.1,0s0.1,0,0.1,0c0,0,0,0,0,0.1V297z"/>
		</g>
	</g>
	<g>
		<path class="st111" d="M407.4,306.4h-80.5c-6.6,0-12-5.4-12-12v-48.8c0-6.6,5.4-12,12-12h80.5c6.6,0,12,5.4,12,12v48.8
			C419.4,301,414,306.4,407.4,306.4z"/>
		<path class="st118" d="M403.5,266.3h-72.7c-3.1,0-5.5-2.5-5.5-5.5v-4.2c0-3.1,2.5-5.5,5.5-5.5h72.7c3.1,0,5.5,2.5,5.5,5.5v4.2
			C408.9,263.8,406.5,266.3,403.5,266.3z M330.8,251.5c-2.8,0-5,2.3-5,5v4.2c0,2.8,2.3,5,5,5h72.7c2.7,0,5-2.2,5-5.1v-4.2
			c0-2.8-2.3-5-5-5H330.8z"/>
		<path class="st119" d="M403.5,290h-72.7c-2.9,0-5.3-2.4-5.3-5.3v-4.2c0-2.9,2.4-5.3,5.3-5.3h72.7c2.9,0,5.3,2.4,5.3,5.3v4.2
			C408.7,287.6,406.4,290,403.5,290z"/>
		<g class="st113">
			<path class="st111" d="M360.2,281.9c0,0.5-0.1,1-0.2,1.4s-0.3,0.7-0.6,1s-0.6,0.5-0.9,0.6s-0.8,0.2-1.3,0.2h-1.3
				c-0.1,0-0.1,0-0.2-0.1c-0.1,0-0.1-0.1-0.1-0.3v-5.4c0-0.1,0-0.2,0.1-0.3c0.1,0,0.1-0.1,0.2-0.1h1.4c0.5,0,1,0.1,1.3,0.2
				c0.4,0.1,0.7,0.3,0.9,0.6c0.2,0.3,0.4,0.6,0.6,0.9C360.1,281.1,360.2,281.5,360.2,281.9z M359.3,282c0-0.3,0-0.6-0.1-0.9
				c-0.1-0.3-0.2-0.5-0.4-0.7c-0.2-0.2-0.4-0.4-0.7-0.5c-0.3-0.1-0.6-0.2-1-0.2h-0.8v4.7h0.8c0.4,0,0.7,0,1-0.1s0.5-0.2,0.7-0.4
				s0.3-0.5,0.4-0.8C359.3,282.7,359.3,282.4,359.3,282z"/>
			<path class="st111" d="M366.5,281.9c0,0.5-0.1,0.9-0.2,1.3s-0.3,0.7-0.5,1c-0.2,0.3-0.5,0.5-0.9,0.6c-0.3,0.1-0.8,0.2-1.2,0.2
				c-0.5,0-0.8-0.1-1.2-0.2c-0.3-0.1-0.6-0.3-0.8-0.6c-0.2-0.3-0.4-0.6-0.5-1c-0.1-0.4-0.2-0.8-0.2-1.3c0-0.5,0.1-0.9,0.2-1.3
				c0.1-0.4,0.3-0.7,0.5-1c0.2-0.3,0.5-0.5,0.9-0.6c0.3-0.1,0.8-0.2,1.2-0.2c0.4,0,0.8,0.1,1.2,0.2c0.3,0.1,0.6,0.3,0.8,0.6
				s0.4,0.6,0.5,1C366.4,281,366.5,281.5,366.5,281.9z M365.6,282c0-0.3,0-0.7-0.1-1c-0.1-0.3-0.2-0.6-0.3-0.8
				c-0.1-0.2-0.3-0.4-0.6-0.5c-0.2-0.1-0.5-0.2-0.9-0.2s-0.6,0.1-0.9,0.2c-0.2,0.1-0.4,0.3-0.6,0.5s-0.3,0.5-0.3,0.8
				c-0.1,0.3-0.1,0.6-0.1,0.9c0,0.4,0,0.7,0.1,1c0.1,0.3,0.2,0.6,0.3,0.8c0.1,0.2,0.3,0.4,0.6,0.5s0.5,0.2,0.9,0.2
				c0.4,0,0.6-0.1,0.9-0.2c0.2-0.1,0.4-0.3,0.6-0.5c0.1-0.2,0.3-0.5,0.3-0.8S365.6,282.3,365.6,282z"/>
			<path class="st111" d="M372.4,284.7c0,0.1,0,0.1,0,0.2c0,0,0,0.1-0.1,0.1s-0.1,0-0.1,0.1c0,0-0.1,0-0.1,0h-0.3
				c-0.1,0-0.2,0-0.2,0c-0.1,0-0.1,0-0.2-0.1c-0.1,0-0.1-0.1-0.2-0.2s-0.1-0.2-0.2-0.3l-1.8-3.5c-0.1-0.2-0.2-0.4-0.3-0.6
				c-0.1-0.2-0.2-0.4-0.3-0.6h0c0,0.2,0,0.5,0,0.7c0,0.2,0,0.5,0,0.7v3.7c0,0,0,0,0,0.1c0,0,0,0-0.1,0s-0.1,0-0.1,0
				c-0.1,0-0.1,0-0.2,0c-0.1,0-0.1,0-0.2,0c-0.1,0-0.1,0-0.1,0c0,0-0.1,0-0.1,0c0,0,0,0,0-0.1v-5.6c0-0.1,0-0.2,0.1-0.3
				c0.1-0.1,0.1-0.1,0.2-0.1h0.4c0.1,0,0.2,0,0.2,0c0.1,0,0.1,0,0.2,0.1c0,0,0.1,0.1,0.1,0.1c0,0.1,0.1,0.1,0.1,0.2l1.4,2.7
				c0.1,0.2,0.2,0.3,0.3,0.5c0.1,0.2,0.2,0.3,0.2,0.5c0.1,0.2,0.2,0.3,0.2,0.4c0.1,0.1,0.1,0.3,0.2,0.4h0c0-0.2,0-0.5,0-0.8
				c0-0.3,0-0.5,0-0.8v-3.3c0,0,0,0,0-0.1c0,0,0,0,0.1,0s0.1,0,0.1,0c0.1,0,0.1,0,0.2,0c0.1,0,0.1,0,0.2,0c0.1,0,0.1,0,0.1,0
				c0,0,0.1,0,0.1,0c0,0,0,0,0,0.1V284.7z"/>
			<path class="st111" d="M377.3,284.7c0,0.1,0,0.1,0,0.1c0,0,0,0.1,0,0.1c0,0,0,0-0.1,0.1s0,0-0.1,0h-2.9c-0.1,0-0.1,0-0.2-0.1
				c-0.1,0-0.1-0.1-0.1-0.3v-5.4c0-0.1,0-0.2,0.1-0.3c0.1,0,0.1-0.1,0.2-0.1h2.9c0,0,0,0,0.1,0s0,0,0,0.1c0,0,0,0.1,0,0.1
				s0,0.1,0,0.2c0,0.1,0,0.1,0,0.1s0,0.1,0,0.1c0,0,0,0,0,0.1s0,0-0.1,0h-2.4v1.9h2c0,0,0,0,0.1,0c0,0,0,0,0.1,0.1c0,0,0,0.1,0,0.1
				c0,0,0,0.1,0,0.2c0,0.1,0,0.1,0,0.1c0,0,0,0.1,0,0.1c0,0,0,0-0.1,0.1c0,0,0,0-0.1,0h-2v2.2h2.4c0,0,0,0,0.1,0s0,0,0.1,0.1
				s0,0.1,0,0.1C377.3,284.6,377.3,284.7,377.3,284.7z"/>
		</g>
		<g class="st113">
			<path class="st120" d="M338.9,259.6c0.1,0,0.1,0.1,0.1,0.1s-0.1,0.2-0.1,0.3c-0.1,0.2-0.2,0.3-0.2,0.3s-0.1,0-0.2,0l-1.2-0.9
				l0.2,1.5c0,0.1,0,0.1-0.1,0.1s-0.2,0-0.4,0s-0.3,0-0.4,0s-0.1-0.1-0.1-0.1l0.2-1.5l-1.2,0.9c0,0-0.1,0-0.2,0s-0.1-0.1-0.2-0.3
				c-0.1-0.2-0.1-0.3-0.1-0.3s0-0.1,0.1-0.1l1.4-0.6l-1.4-0.6c-0.1,0-0.1-0.1-0.1-0.1s0-0.2,0.1-0.3s0.2-0.2,0.2-0.3s0.1,0,0.2,0
				l1.2,0.9l-0.2-1.5c0-0.1,0-0.1,0.1-0.1s0.2,0,0.4,0s0.3,0,0.4,0s0.1,0.1,0.1,0.1l-0.2,1.5l1.2-0.9c0,0,0.1,0,0.2,0
				s0.1,0.1,0.2,0.3c0.1,0.1,0.1,0.3,0.1,0.3s0,0.1-0.1,0.1l-1.4,0.6L338.9,259.6z"/>
			<path class="st120" d="M344.9,259.6c0.1,0,0.1,0.1,0.1,0.1s-0.1,0.2-0.1,0.3c-0.1,0.2-0.2,0.3-0.2,0.3s-0.1,0-0.2,0l-1.2-0.9
				l0.2,1.5c0,0.1,0,0.1-0.1,0.1s-0.2,0-0.4,0s-0.3,0-0.4,0s-0.1-0.1-0.1-0.1l0.2-1.5l-1.2,0.9c0,0-0.1,0-0.2,0s-0.1-0.1-0.2-0.3
				c-0.1-0.2-0.1-0.3-0.1-0.3s0-0.1,0.1-0.1l1.4-0.6l-1.4-0.6c-0.1,0-0.1-0.1-0.1-0.1s0-0.2,0.1-0.3s0.2-0.2,0.2-0.3s0.1,0,0.2,0
				l1.2,0.9l-0.2-1.5c0-0.1,0-0.1,0.1-0.1s0.2,0,0.4,0s0.3,0,0.4,0s0.1,0.1,0.1,0.1l-0.2,1.5l1.2-0.9c0,0,0.1,0,0.2,0
				s0.1,0.1,0.2,0.3c0.1,0.1,0.1,0.3,0.1,0.3s0,0.1-0.1,0.1l-1.4,0.6L344.9,259.6z"/>
			<path class="st120" d="M350.9,259.6c0.1,0,0.1,0.1,0.1,0.1s-0.1,0.2-0.1,0.3c-0.1,0.2-0.2,0.3-0.2,0.3s-0.1,0-0.2,0l-1.2-0.9
				l0.2,1.5c0,0.1,0,0.1-0.1,0.1s-0.2,0-0.4,0s-0.3,0-0.4,0s-0.1-0.1-0.1-0.1l0.2-1.5l-1.2,0.9c0,0-0.1,0-0.2,0s-0.1-0.1-0.2-0.3
				c-0.1-0.2-0.1-0.3-0.1-0.3s0-0.1,0.1-0.1l1.4-0.6l-1.4-0.6c-0.1,0-0.1-0.1-0.1-0.1s0-0.2,0.1-0.3s0.2-0.2,0.2-0.3s0.1,0,0.2,0
				l1.2,0.9l-0.2-1.5c0-0.1,0-0.1,0.1-0.1s0.2,0,0.4,0s0.3,0,0.4,0s0.1,0.1,0.1,0.1l-0.2,1.5l1.2-0.9c0,0,0.1,0,0.2,0
				s0.1,0.1,0.2,0.3c0.1,0.1,0.1,0.3,0.1,0.3s0,0.1-0.1,0.1l-1.4,0.6L350.9,259.6z"/>
			<path class="st120" d="M356.9,259.6c0.1,0,0.1,0.1,0.1,0.1s-0.1,0.2-0.1,0.3c-0.1,0.2-0.2,0.3-0.2,0.3s-0.1,0-0.2,0l-1.2-0.9
				l0.2,1.5c0,0.1,0,0.1-0.1,0.1s-0.2,0-0.4,0s-0.3,0-0.4,0s-0.1-0.1-0.1-0.1l0.2-1.5l-1.2,0.9c0,0-0.1,0-0.2,0s-0.1-0.1-0.2-0.3
				c-0.1-0.2-0.1-0.3-0.1-0.3s0-0.1,0.1-0.1l1.4-0.6l-1.4-0.6c-0.1,0-0.1-0.1-0.1-0.1s0-0.2,0.1-0.3s0.2-0.2,0.2-0.3s0.1,0,0.2,0
				l1.2,0.9l-0.2-1.5c0-0.1,0-0.1,0.1-0.1s0.2,0,0.4,0s0.3,0,0.4,0s0.1,0.1,0.1,0.1l-0.2,1.5l1.2-0.9c0,0,0.1,0,0.2,0
				s0.1,0.1,0.2,0.3c0.1,0.1,0.1,0.3,0.1,0.3s0,0.1-0.1,0.1l-1.4,0.6L356.9,259.6z"/>
			<path class="st120" d="M362.8,259.6c0.1,0,0.1,0.1,0.1,0.1s-0.1,0.2-0.1,0.3c-0.1,0.2-0.2,0.3-0.2,0.3s-0.1,0-0.2,0l-1.2-0.9
				l0.2,1.5c0,0.1,0,0.1-0.1,0.1s-0.2,0-0.4,0s-0.3,0-0.4,0s-0.1-0.1-0.1-0.1l0.2-1.5l-1.2,0.9c0,0-0.1,0-0.2,0s-0.1-0.1-0.2-0.3
				c-0.1-0.2-0.1-0.3-0.1-0.3s0-0.1,0.1-0.1l1.4-0.6l-1.4-0.6c-0.1,0-0.1-0.1-0.1-0.1s0-0.2,0.1-0.3s0.2-0.2,0.2-0.3s0.1,0,0.2,0
				l1.2,0.9l-0.2-1.5c0-0.1,0-0.1,0.1-0.1s0.2,0,0.4,0s0.3,0,0.4,0s0.1,0.1,0.1,0.1l-0.2,1.5l1.2-0.9c0,0,0.1,0,0.2,0
				s0.1,0.1,0.2,0.3c0.1,0.1,0.1,0.3,0.1,0.3s0,0.1-0.1,0.1l-1.4,0.6L362.8,259.6z"/>
			<path class="st120" d="M368.8,259.6c0.1,0,0.1,0.1,0.1,0.1s-0.1,0.2-0.1,0.3c-0.1,0.2-0.2,0.3-0.2,0.3s-0.1,0-0.2,0l-1.2-0.9
				l0.2,1.5c0,0.1,0,0.1-0.1,0.1s-0.2,0-0.4,0s-0.3,0-0.4,0s-0.1-0.1-0.1-0.1l0.2-1.5l-1.2,0.9c0,0-0.1,0-0.2,0s-0.1-0.1-0.2-0.3
				c-0.1-0.2-0.1-0.3-0.1-0.3s0-0.1,0.1-0.1l1.4-0.6l-1.4-0.6c-0.1,0-0.1-0.1-0.1-0.1s0-0.2,0.1-0.3s0.2-0.2,0.2-0.3s0.1,0,0.2,0
				l1.2,0.9l-0.2-1.5c0-0.1,0-0.1,0.1-0.1s0.2,0,0.4,0s0.3,0,0.4,0s0.1,0.1,0.1,0.1l-0.2,1.5l1.2-0.9c0,0,0.1,0,0.2,0
				s0.1,0.1,0.2,0.3c0.1,0.1,0.1,0.3,0.1,0.3s0,0.1-0.1,0.1l-1.4,0.6L368.8,259.6z"/>
			<path class="st120" d="M374.8,259.6c0.1,0,0.1,0.1,0.1,0.1s-0.1,0.2-0.1,0.3c-0.1,0.2-0.2,0.3-0.2,0.3s-0.1,0-0.2,0l-1.2-0.9
				l0.2,1.5c0,0.1,0,0.1-0.1,0.1s-0.2,0-0.4,0s-0.3,0-0.4,0s-0.1-0.1-0.1-0.1l0.2-1.5l-1.2,0.9c0,0-0.1,0-0.2,0s-0.1-0.1-0.2-0.3
				c-0.1-0.2-0.1-0.3-0.1-0.3s0-0.1,0.1-0.1l1.4-0.6l-1.4-0.6c-0.1,0-0.1-0.1-0.1-0.1s0-0.2,0.1-0.3s0.2-0.2,0.2-0.3s0.1,0,0.2,0
				l1.2,0.9l-0.2-1.5c0-0.1,0-0.1,0.1-0.1s0.2,0,0.4,0s0.3,0,0.4,0s0.1,0.1,0.1,0.1l-0.2,1.5l1.2-0.9c0,0,0.1,0,0.2,0
				s0.1,0.1,0.2,0.3c0.1,0.1,0.1,0.3,0.1,0.3s0,0.1-0.1,0.1l-1.4,0.6L374.8,259.6z"/>
			<path class="st120" d="M380.8,259.6c0.1,0,0.1,0.1,0.1,0.1s-0.1,0.2-0.1,0.3c-0.1,0.2-0.2,0.3-0.2,0.3s-0.1,0-0.2,0l-1.2-0.9
				l0.2,1.5c0,0.1,0,0.1-0.1,0.1s-0.2,0-0.4,0s-0.3,0-0.4,0s-0.1-0.1-0.1-0.1l0.2-1.5l-1.2,0.9c0,0-0.1,0-0.2,0s-0.1-0.1-0.2-0.3
				c-0.1-0.2-0.1-0.3-0.1-0.3s0-0.1,0.1-0.1l1.4-0.6l-1.4-0.6c-0.1,0-0.1-0.1-0.1-0.1s0-0.2,0.1-0.3s0.2-0.2,0.2-0.3s0.1,0,0.2,0
				l1.2,0.9l-0.2-1.5c0-0.1,0-0.1,0.1-0.1s0.2,0,0.4,0s0.3,0,0.4,0s0.1,0.1,0.1,0.1l-0.2,1.5l1.2-0.9c0,0,0.1,0,0.2,0
				s0.1,0.1,0.2,0.3c0.1,0.1,0.1,0.3,0.1,0.3s0,0.1-0.1,0.1l-1.4,0.6L380.8,259.6z"/>
			<path class="st120" d="M386.7,259.6c0.1,0,0.1,0.1,0.1,0.1s-0.1,0.2-0.1,0.3c-0.1,0.2-0.2,0.3-0.2,0.3s-0.1,0-0.2,0l-1.2-0.9
				l0.2,1.5c0,0.1,0,0.1-0.1,0.1s-0.2,0-0.4,0s-0.3,0-0.4,0s-0.1-0.1-0.1-0.1l0.2-1.5l-1.2,0.9c0,0-0.1,0-0.2,0s-0.1-0.1-0.2-0.3
				c-0.1-0.2-0.1-0.3-0.1-0.3s0-0.1,0.1-0.1l1.4-0.6l-1.4-0.6c-0.1,0-0.1-0.1-0.1-0.1s0-0.2,0.1-0.3s0.2-0.2,0.2-0.3s0.1,0,0.2,0
				l1.2,0.9l-0.2-1.5c0-0.1,0-0.1,0.1-0.1s0.2,0,0.4,0s0.3,0,0.4,0s0.1,0.1,0.1,0.1l-0.2,1.5l1.2-0.9c0,0,0.1,0,0.2,0
				s0.1,0.1,0.2,0.3c0.1,0.1,0.1,0.3,0.1,0.3s0,0.1-0.1,0.1l-1.4,0.6L386.7,259.6z"/>
			<path class="st120" d="M392.7,259.6c0.1,0,0.1,0.1,0.1,0.1s-0.1,0.2-0.1,0.3c-0.1,0.2-0.2,0.3-0.2,0.3s-0.1,0-0.2,0l-1.2-0.9
				l0.2,1.5c0,0.1,0,0.1-0.1,0.1s-0.2,0-0.4,0s-0.3,0-0.4,0s-0.1-0.1-0.1-0.1l0.2-1.5l-1.2,0.9c0,0-0.1,0-0.2,0s-0.1-0.1-0.2-0.3
				c-0.1-0.2-0.1-0.3-0.1-0.3s0-0.1,0.1-0.1l1.4-0.6l-1.4-0.6c-0.1,0-0.1-0.1-0.1-0.1s0-0.2,0.1-0.3s0.2-0.2,0.2-0.3s0.1,0,0.2,0
				l1.2,0.9l-0.2-1.5c0-0.1,0-0.1,0.1-0.1s0.2,0,0.4,0s0.3,0,0.4,0s0.1,0.1,0.1,0.1l-0.2,1.5l1.2-0.9c0,0,0.1,0,0.2,0
				s0.1,0.1,0.2,0.3c0.1,0.1,0.1,0.3,0.1,0.3s0,0.1-0.1,0.1l-1.4,0.6L392.7,259.6z"/>
			<path class="st120" d="M398.7,259.6c0.1,0,0.1,0.1,0.1,0.1s-0.1,0.2-0.1,0.3c-0.1,0.2-0.2,0.3-0.2,0.3s-0.1,0-0.2,0l-1.2-0.9
				l0.2,1.5c0,0.1,0,0.1-0.1,0.1s-0.2,0-0.4,0s-0.3,0-0.4,0s-0.1-0.1-0.1-0.1l0.2-1.5l-1.2,0.9c0,0-0.1,0-0.2,0s-0.1-0.1-0.2-0.3
				c-0.1-0.2-0.1-0.3-0.1-0.3s0-0.1,0.1-0.1l1.4-0.6l-1.4-0.6c-0.1,0-0.1-0.1-0.1-0.1s0-0.2,0.1-0.3s0.2-0.2,0.2-0.3s0.1,0,0.2,0
				l1.2,0.9l-0.2-1.5c0-0.1,0-0.1,0.1-0.1s0.2,0,0.4,0s0.3,0,0.4,0s0.1,0.1,0.1,0.1l-0.2,1.5l1.2-0.9c0,0,0.1,0,0.2,0
				s0.1,0.1,0.2,0.3c0.1,0.1,0.1,0.3,0.1,0.3s0,0.1-0.1,0.1l-1.4,0.6L398.7,259.6z"/>
		</g>
	</g>
	<rect x="172" y="388" class="st8" width="116" height="24.7"/>
	<rect x="309.1" y="388" class="st8" width="116" height="24.7"/>
	<rect x="446.2" y="388" class="st8" width="116" height="24.7"/>
</g>
</svg>
