<?xml version="1.0" encoding="utf-8"?>
<!-- Generator: Adobe Illustrator 19.1.0, SVG Export Plug-In . SVG Version: 6.00 Build 0)  -->
<svg version="1.1" id="Layer_1" xmlns="http://www.w3.org/2000/svg" xmlns:xlink="http://www.w3.org/1999/xlink" x="0px" y="0px"
	 viewBox="-99 -20 760 600" style="enable-background:new -99 -20 760 600;" xml:space="preserve">
<style type="text/css">
	.st0{opacity:0.5;}
	.st1{fill:#F5F5F5;}
	.st2{fill:#BBBDBF;}
	.st3{fill:#E8E8E8;}
	.st4{fill:#CECECE;}
	.st5{fill:#838587;}
	.st6{fill:#1071C1;}
	.st7{fill:#929496;}
	.st8{fill:#FCFCFC;}
	.st9{enable-background:new    ;}
	.st10{fill:#FFFFFF;}
	.st11{fill:#1C1C1C;}
	.st12{fill:#E5E8EA;}
</style>
<g>
	<g class="st0">
	</g>
	<path class="st1" d="M595,27.4c21,0,38,17.1,38,38.4v428.6c0,21.1-17.1,38.5-38.5,38.5H-32.4c-21.1,0.1-38.6-17-38.6-38.4V65.6
		C-71,44.5-53.7,27-32.4,27H595V27.4z"/>
	<path class="st2" d="M602.8,297.2c-0.1,0-0.1,0-0.2,0c-9.5,0-17.3-7.8-17.3-17.3c0-9.5,7.8-17.3,17.3-17.3
		c9.5,0,17.3,7.8,17.3,17.3c0,4.7-1.8,9.1-5.2,12.3C611.5,295.4,607.3,297.2,602.8,297.2z M602.6,263.6c-9,0-16.3,7.3-16.3,16.3
		s7.3,16.3,16.3,16.3c0.1,0,0.1,0,0.2,0c4.2,0,8.2-1.7,11.3-4.7c3.1-3.1,4.9-7.2,4.9-11.6C618.9,270.9,611.6,263.6,602.6,263.6z"/>
	<circle class="st2" cx="-42.2" cy="280.5" r="3.6"/>
	<g>
		<rect x="-20.1" y="65" class="st3" width="591" height="431"/>
		<path class="st4" d="M571.2,496.3H-20.4V64.8h591.5V496.3z M-19.9,495.8h590.5V65.3H-19.9V495.8z"/>
	</g>
	<g>
		<rect x="-20" y="66" class="st5" width="97" height="430"/>
		<rect x="-20" y="66" class="st6" width="591" height="47"/>
		<circle class="st7" cx="121" cy="148.6" r="20"/>
		<rect x="373" y="88" class="st8" width="44" height="4"/>
		<rect x="425" y="88" class="st8" width="44" height="4"/>
		<rect x="484" y="88" class="st8" width="28" height="4"/>
		<rect x="524" y="88" class="st8" width="28" height="4"/>
		<path class="st7" d="M544.2,140.5c0,3-4.5,5.5-10,5.5h-375c-5.5,0-10-2.5-10-5.5l0,0c0-3,4.5-5.5,10-5.5h375
			C539.8,135,544.2,137.5,544.2,140.5L544.2,140.5z"/>
		<path class="st7" d="M544.2,282.5c0,3-2.8,5.5-6.3,5.5H302.2c-3.5,0-6.3-2.5-6.3-5.5l0,0c0-3,2.8-5.5,6.3-5.5h235.7
			C541.4,277,544.2,279.5,544.2,282.5L544.2,282.5z"/>
		<path class="st7" d="M544.2,306.5c0,3-2.8,5.5-6.3,5.5H302.2c-3.5,0-6.3-2.5-6.3-5.5l0,0c0-3,2.8-5.5,6.3-5.5h235.7
			C541.4,301,544.2,303.5,544.2,306.5L544.2,306.5z"/>
		<path class="st7" d="M544.2,330.5c0,3-2.8,5.5-6.3,5.5H302.2c-3.5,0-6.3-2.5-6.3-5.5l0,0c0-3,2.8-5.5,6.3-5.5h235.7
			C541.4,325,544.2,327.5,544.2,330.5L544.2,330.5z"/>
		<path class="st7" d="M544.2,160c0,3-4.5,6-10,6h-375c-5.5,0-10-3-10-6l0,0c0-3,4.5-6,10-6h375C539.8,154,544.2,157,544.2,160
			L544.2,160z"/>
		<path class="st7" d="M544.2,184.5c0,3-5.1,5.5-11.3,5.5H109.3c-6.2,0-11.3-2.5-11.3-5.5l0,0c0-3,5.1-5.5,11.3-5.5H533
			C539.2,179,544.2,181.5,544.2,184.5L544.2,184.5z"/>
		<path class="st7" d="M544.2,209c0,3-5.1,6-11.3,6H109.3c-6.2,0-11.3-3-11.3-6l0,0c0-3,5.1-6,11.3-6H533
			C539.2,203,544.2,206,544.2,209L544.2,209z"/>
		<path class="st7" d="M544.2,233.5c0,3-5.1,5.5-11.3,5.5H109.3c-6.2,0-11.3-2.5-11.3-5.5l0,0c0-3,5.1-5.5,11.3-5.5H533
			C539.2,228,544.2,230.5,544.2,233.5L544.2,233.5z"/>
		<path class="st7" d="M544.2,257.5c0,3-5.1,5.5-11.3,5.5H109.3c-6.2,0-11.3-2.5-11.3-5.5l0,0c0-3,5.1-5.5,11.3-5.5H533
			C539.2,252,544.2,254.5,544.2,257.5L544.2,257.5z"/>
		<path class="st7" d="M544.2,355c0,3-5.1,6-11.3,6H109.3c-6.2,0-11.3-3-11.3-6l0,0c0-3,5.1-6,11.3-6H533
			C539.2,349,544.2,352,544.2,355L544.2,355z"/>
		<path class="st7" d="M544.2,453c0,3-5.1,6-11.3,6H109.3c-6.2,0-11.3-3-11.3-6l0,0c0-3,5.1-6,11.3-6H533
			C539.2,447,544.2,450,544.2,453L544.2,453z"/>
		<path class="st7" d="M544.2,429c0,3-5.1,6-11.3,6H109.3c-6.2,0-11.3-3-11.3-6l0,0c0-3,5.1-6,11.3-6H533
			C539.2,423,544.2,426,544.2,429L544.2,429z"/>
		<path class="st7" d="M544.2,404c0,3-5.1,6-11.3,6H109.3c-6.2,0-11.3-3-11.3-6l0,0c0-3,5.1-6,11.3-6H533
			C539.2,398,544.2,401,544.2,404L544.2,404z"/>
		<path class="st7" d="M544.2,380c0,3-5.1,6-11.3,6H109.3c-6.2,0-11.3-3-11.3-6l0,0c0-3,5.1-6,11.3-6H533
			C539.2,374,544.2,377,544.2,380L544.2,380z"/>
		<path class="st7" d="M544.2,477.5c0,3-5.1,5.5-11.3,5.5H109.3c-6.2,0-11.3-2.5-11.3-5.5l0,0c0-3,5.1-5.5,11.3-5.5H533
			C539.2,472,544.2,474.5,544.2,477.5L544.2,477.5z"/>
		<path class="st6" d="M264,315c0,6.1-4.9,11-11,11H109c-6.1,0-11-4.9-11-11v-21c0-6.1,4.9-11,11-11h144c6.1,0,11,4.9,11,11V315z"/>
		<g class="st9">
			<path class="st10" d="M160.5,306.7L160.5,306.7c0,1.7-0.5,3-1.5,3.9s-2.3,1.3-4,1.3c-1.8,0-3.2-0.5-4.3-1.6
				c-1.1-1.1-1.7-2.5-1.7-4.2v-3c0-1.7,0.5-3.1,1.6-4.2c1.1-1.1,2.4-1.6,4.1-1.6c1.8,0,3.2,0.5,4.1,1.4c1,0.9,1.5,2.2,1.6,3.9l0,0.1
				h-3.2c0-0.9-0.3-1.6-0.6-2.1c-0.4-0.5-1-0.7-1.9-0.7c-0.8,0-1.3,0.3-1.8,0.9c-0.4,0.6-0.6,1.4-0.6,2.4v3c0,1,0.2,1.8,0.7,2.4
				c0.5,0.6,1.1,0.9,1.9,0.9c0.8,0,1.4-0.2,1.7-0.6c0.3-0.4,0.5-1.1,0.6-2H160.5z"/>
			<path class="st10" d="M169.9,309h-4.5l-0.8,2.8h-3.3l4.6-14.3h3.6l4.6,14.3h-3.3L169.9,309z M166.1,306.4h3l-1.5-5.1h-0.1
				L166.1,306.4z"/>
			<path class="st10" d="M178.4,309.2h6.1v2.5h-9.5v-14.3h3.3V309.2z"/>
			<path class="st10" d="M189.2,309.2h6.1v2.5h-9.5v-14.3h3.3V309.2z"/>
			<path class="st10" d="M213.5,297.5v9.3c0,1.6-0.5,2.9-1.6,3.8c-1.1,0.9-2.5,1.3-4.2,1.3c-1.8,0-3.2-0.4-4.3-1.3s-1.6-2.2-1.6-3.8
				v-9.3h3.3v9.3c0,0.9,0.2,1.5,0.7,1.9c0.5,0.4,1.1,0.6,1.9,0.6c0.8,0,1.4-0.2,1.9-0.6c0.4-0.4,0.7-1.1,0.7-1.9v-9.3H213.5z"/>
			<path class="st10" d="M223.2,308c0-0.5-0.2-0.9-0.5-1.2c-0.3-0.3-0.9-0.6-1.8-0.9c-1.8-0.6-3.1-1.2-4-1.8
				c-0.9-0.6-1.3-1.6-1.3-2.8c0-1.2,0.5-2.2,1.6-2.9s2.3-1.1,3.9-1.1c1.6,0,2.9,0.4,3.9,1.2c1,0.8,1.5,1.9,1.5,3.1l0,0.1h-3.2
				c0-0.6-0.2-1-0.6-1.4c-0.4-0.4-0.9-0.5-1.6-0.5c-0.7,0-1.2,0.1-1.6,0.4c-0.4,0.3-0.6,0.7-0.6,1.1c0,0.4,0.2,0.8,0.6,1
				c0.4,0.3,1.1,0.6,2.1,0.9c1.6,0.5,2.8,1.1,3.7,1.8s1.2,1.7,1.2,2.9c0,1.3-0.5,2.2-1.5,2.9c-1,0.7-2.3,1.1-3.9,1.1
				c-1.6,0-3-0.4-4.2-1.2s-1.8-2-1.7-3.5l0-0.1h3.2c0,0.8,0.2,1.4,0.7,1.8s1.1,0.5,2,0.5c0.7,0,1.2-0.1,1.5-0.4
				C223,308.8,223.2,308.4,223.2,308z"/>
		</g>
		<g>
			<g>
				<path class="st10" d="M132.3,310.6c-1.1-0.6-2.4-1.5-3.7-2.8s-2.2-2.6-2.8-3.7l1-2.7l-3.4-5.2l-1.1,1.1l0,0l0,0
					c-2.8,2.8-1.3,8.5,3.5,13.3s10.5,6.3,13.3,3.5l0,0l1.1-1.1l-5.2-3.4L132.3,310.6z"/>
				<path class="st10" d="M138.7,306.3h1.5c0-5.5-4.5-10-10-10v1.5C134.8,297.8,138.7,301.6,138.7,306.3z"/>
				<path class="st10" d="M135.6,306.3h1.5c0-3.8-3.1-7-7-7v1.5C133.1,300.9,135.6,303.3,135.6,306.3z"/>
				<path class="st10" d="M132.5,306.3h1.5c0-2.1-1.7-3.9-3.9-3.9v1.5C131.4,304,132.5,305,132.5,306.3z"/>
			</g>
		</g>
		<g>
			<path class="st11" d="M276,335l-9.2-9.2l6.5-3.8c0.5-0.3,0.8-0.9,0.8-1.4c0-0.6-0.4-1.1-1-1.3L244,307.6
				c-0.6-0.2-1.2-0.1-1.7,0.3c-0.4,0.4-0.6,1.1-0.3,1.7l11.6,29.2c0.2,0.5,0.7,0.9,1.3,1c0.6,0,1.2-0.3,1.4-0.8l3.8-6.5l9.2,9.2
				c0.3,0.3,0.7,0.5,1.1,0.5s0.8-0.2,1.1-0.5l4.5-4.5C276.6,336.6,276.6,335.6,276,335z"/>
			<path class="st11" d="M237.1,300.6c-0.6-0.6-1.6-0.6-2.2,0s-0.6,1.6,0,2.2l3.4,3.4c0.3,0.3,0.7,0.5,1.1,0.5s0.8-0.2,1.1-0.5
				c0.6-0.6,0.6-1.6,0-2.2L237.1,300.6z"/>
			<path class="st11" d="M238.3,311.2c0-0.9-0.7-1.5-1.5-1.5H232c-0.9,0-1.5,0.7-1.5,1.5c0,0.9,0.7,1.5,1.5,1.5h4.8
				C237.6,312.8,238.3,312.1,238.3,311.2z"/>
			<path class="st11" d="M237.6,316l-3.4,3.4c-0.6,0.6-0.6,1.6,0,2.2c0.3,0.3,0.7,0.5,1.1,0.5s0.8-0.2,1.1-0.5l3.4-3.4
				c0.6-0.6,0.6-1.6,0-2.2S238.2,315.4,237.6,316z"/>
			<path class="st11" d="M245.6,303.9c0.9,0,1.5-0.7,1.5-1.5v-4.8c0-0.9-0.7-1.5-1.5-1.5c-0.9,0-1.5,0.7-1.5,1.5v4.8
				C244,303.2,244.7,303.9,245.6,303.9z"/>
			<path class="st11" d="M251.4,305.9c0.4,0,0.8-0.2,1.1-0.5l3.4-3.4c0.6-0.6,0.6-1.6,0-2.2s-1.6-0.6-2.2,0l-3.4,3.4
				c-0.6,0.6-0.6,1.6,0,2.2C250.6,305.8,251,305.9,251.4,305.9z"/>
		</g>
		<rect x="-8" y="121" class="st12" width="72" height="3"/>
		<rect x="-8" y="131" class="st12" width="72" height="3"/>
		<rect x="-8" y="140" class="st12" width="57" height="3"/>
		<rect x="-8" y="173" class="st12" width="72" height="3"/>
		<rect x="-8" y="182" class="st12" width="72" height="3"/>
		<rect x="-8" y="191" class="st12" width="57" height="3"/>
		<rect x="-8" y="200" class="st12" width="46" height="3"/>
	</g>
</g>
<g>
	<g>
		<g>
			<g>
				<path class="st10" d="M2.6,75.8c-0.5-0.5-1.1-0.7-1.8-0.7c-0.7,0-1.3,0.2-1.8,0.7s-0.7,1.1-0.7,1.8c0,0.7,0.2,1.3,0.7,1.8
					s1,0.7,1.8,0.7c0.7,0,1.3-0.2,1.8-0.7s0.7-1,0.7-1.8C3.3,76.9,3.1,76.3,2.6,75.8z"/>
				<path class="st10" d="M23.3,75.9c-0.5-0.5-1.1-0.7-1.8-0.7c-0.7,0-1.3,0.2-1.8,0.7S19,77,19,77.7c0,0.7,0.2,1.3,0.7,1.8
					s1,0.7,1.8,0.7c0.7,0,1.3-0.2,1.8-0.7s0.7-1,0.7-1.8C24.1,77,23.8,76.4,23.3,75.9z"/>
			</g>
			<path class="st10" d="M21.4,82.5c0.7,1.5,1.1,3.2,1.1,4.9c0,3.1-1.1,5.8-3.3,8c-2.2,2.2-4.9,3.3-8,3.3s-5.8-1.1-8-3.3
				c-2.2-2.2-3.3-4.9-3.3-8c0-1.8,0.4-3.4,1.1-4.9h-3.2c-0.6,1.5-0.9,3.2-0.9,4.9c0,2,0.4,3.8,1.1,5.6c0.7,1.7,1.8,3.2,3.1,4.5
				c1.3,1.3,2.8,2.3,4.5,3.1c1.8,0.7,3.6,1.1,5.6,1.1s3.8-0.4,5.6-1.1c1.7-0.7,3.2-1.8,4.5-3.1c1.3-1.3,2.3-2.8,3.1-4.5
				c0.7-1.8,1.1-3.6,1.1-5.6c0-1.7-0.3-3.4-0.9-4.9H21.4z"/>
		</g>
	</g>
	<g>
		<path class="st10" d="M28.9,93.1c-0.4,0-0.8,0.1-1.2,0.3c-0.3,0.2-0.6,0.4-0.8,0.8c-0.2,0.4-0.3,0.7-0.3,1.2
			c0,0.4,0.1,0.9,0.3,1.2c0.2,0.4,0.4,0.6,0.8,0.8c0.3,0.2,0.7,0.3,1.1,0.3c0.4,0,0.8-0.1,1.2-0.2s0.6-0.4,0.9-0.6l0.7,0.7
			c-0.3,0.4-0.7,0.7-1.2,0.9s-1,0.3-1.5,0.3c-0.6,0-1.2-0.1-1.7-0.4s-0.9-0.7-1.2-1.2c-0.3-0.5-0.4-1-0.4-1.7s0.1-1.2,0.4-1.7
			s0.7-0.9,1.2-1.2c0.5-0.3,1-0.4,1.7-0.4c0.6,0,1,0.1,1.5,0.2c0.4,0.2,0.8,0.4,1.1,0.7l-0.6,0.8C30.3,93.3,29.6,93.1,28.9,93.1z"/>
		<path class="st10" d="M37.1,92.5c0.5,0.3,0.9,0.7,1.2,1.2s0.4,1,0.4,1.7s-0.1,1.2-0.4,1.7c-0.3,0.5-0.7,0.9-1.2,1.2
			c-0.5,0.3-1.1,0.4-1.7,0.4c-0.7,0-1.2-0.1-1.8-0.4c-0.5-0.3-0.9-0.7-1.2-1.2S32,96,32,95.4c0-0.7,0.1-1.2,0.4-1.7s0.7-0.9,1.2-1.2
			c0.5-0.3,1.1-0.4,1.8-0.4S36.6,92.2,37.1,92.5z M34.2,93.4c-0.3,0.2-0.6,0.5-0.8,0.8c-0.2,0.4-0.3,0.7-0.3,1.2
			c0,0.4,0.1,0.9,0.3,1.2c0.2,0.4,0.4,0.6,0.8,0.8c0.3,0.2,0.7,0.3,1.2,0.3s0.8-0.1,1.2-0.3c0.3-0.2,0.6-0.5,0.8-0.8
			c0.2-0.4,0.3-0.7,0.3-1.2c0-0.4-0.1-0.9-0.3-1.2c-0.2-0.4-0.4-0.6-0.8-0.8c-0.3-0.2-0.7-0.3-1.2-0.3S34.6,93.1,34.2,93.4z"/>
		<path class="st10" d="M45.5,92.7c0.4,0.4,0.7,1,0.7,1.8v4H45v-3.7c0-0.6-0.2-1-0.5-1.3S43.8,93,43.2,93s-1,0.2-1.4,0.6
			s-0.6,0.9-0.6,1.4v3.5H40v-6.4h1.2v1.4c0.4-0.9,1.3-1.4,2.5-1.4C44.5,92,45.1,92.3,45.5,92.7z"/>
		<path class="st10" d="M53.5,92.7c0.4,0.4,0.7,1,0.7,1.8v4H53v-3.7c0-0.6-0.2-1-0.5-1.3S51.8,93,51.2,93s-1,0.2-1.4,0.6
			s-0.6,0.9-0.6,1.4v3.5H48v-6.4h1.2v1.4c0.4-0.9,1.3-1.4,2.5-1.4C52.4,92,53.1,92.3,53.5,92.7z"/>
		<path class="st10" d="M60.5,92.9c0.5,0.6,0.8,1.4,0.8,2.5c0,0.2,0,0.3,0,0.4h-5.2c0.1,0.6,0.3,1,0.7,1.4s0.9,0.5,1.5,0.5
			c0.4,0,0.7-0.1,1.1-0.2c0.3-0.1,0.6-0.4,0.9-0.6l0.6,0.7c-0.3,0.4-0.7,0.6-1.2,0.8s-1,0.3-1.5,0.3c-0.7,0-1.2-0.1-1.7-0.4
			s-0.9-0.7-1.2-1.2s-0.4-1.1-0.4-1.7c0-0.7,0.1-1.2,0.4-1.7c0.3-0.5,0.7-0.9,1.2-1.2c0.5-0.3,1-0.4,1.7-0.4
			C59.2,92,60,92.3,60.5,92.9z M60.2,94.9c-0.1-0.6-0.2-1-0.6-1.4c-0.4-0.4-0.9-0.5-1.4-0.5s-1,0.2-1.5,0.5
			c-0.4,0.4-0.6,0.8-0.7,1.4H60.2z"/>
		<path class="st10" d="M65.4,93.1c-0.4,0-0.8,0.1-1.2,0.3c-0.3,0.2-0.6,0.4-0.8,0.8s-0.3,0.7-0.3,1.2c0,0.4,0.1,0.9,0.3,1.2
			c0.2,0.4,0.4,0.6,0.8,0.8c0.3,0.2,0.7,0.3,1.1,0.3s0.8-0.1,1.2-0.2s0.6-0.4,0.9-0.6l0.7,0.7c-0.3,0.4-0.7,0.7-1.2,0.9
			c-0.4,0.2-1,0.3-1.5,0.3c-0.6,0-1.2-0.1-1.7-0.4s-0.9-0.7-1.2-1.2s-0.4-1-0.4-1.7s0.1-1.2,0.4-1.7c0.3-0.5,0.7-0.9,1.2-1.2
			c0.5-0.3,1-0.4,1.7-0.4c0.6,0,1,0.1,1.5,0.2c0.4,0.2,0.8,0.4,1.1,0.7l-0.6,0.8C66.8,93.3,66.2,93.1,65.4,93.1z"/>
		<path class="st10" d="M72.8,98.2c-0.5,0.3-1,0.5-1.5,0.5s-0.9-0.2-1.3-0.5c-0.3-0.3-0.5-0.8-0.5-1.4v-3.6h-0.9v-0.9h0.9v-1.8h1.2
			v1.8h2v0.9h-2v3.4c0,0.4,0.1,0.6,0.2,0.8c0.1,0.2,0.3,0.2,0.6,0.2s0.7-0.1,1-0.3L72.8,98.2z"/>
		<path class="st10" d="M79.1,92.9c0.5,0.6,0.8,1.4,0.8,2.5c0,0.2,0,0.3,0,0.4h-5.2c0.1,0.6,0.3,1,0.7,1.4s0.9,0.5,1.5,0.5
			c0.4,0,0.7-0.1,1.1-0.2c0.3-0.1,0.6-0.4,0.9-0.6l0.6,0.7c-0.3,0.4-0.7,0.6-1.2,0.8c-0.4,0.2-1,0.3-1.5,0.3c-0.7,0-1.2-0.1-1.7-0.4
			s-0.9-0.7-1.2-1.2s-0.4-1.1-0.4-1.7c0-0.7,0.1-1.2,0.4-1.7c0.3-0.5,0.7-0.9,1.2-1.2c0.5-0.3,1-0.4,1.7-0.4
			C77.8,92,78.6,92.3,79.1,92.9z M78.8,94.9c-0.1-0.6-0.2-1-0.6-1.4c-0.4-0.4-0.9-0.5-1.4-0.5c-0.6,0-1,0.2-1.5,0.5
			c-0.4,0.4-0.6,0.8-0.7,1.4H78.8z"/>
		<path class="st10" d="M87.7,89.5v9.2h-1.2v-1.3c-0.2,0.4-0.6,0.8-1,1s-0.9,0.4-1.5,0.4s-1.2-0.1-1.7-0.4s-0.9-0.7-1.1-1.2
			s-0.4-1.1-0.4-1.7c0-0.7,0.1-1.2,0.4-1.7c0.2-0.5,0.6-0.9,1.1-1.2c0.5-0.3,1-0.4,1.7-0.4c0.6,0,1,0.1,1.5,0.4c0.4,0.2,0.7,0.6,1,1
			v-3.9L87.7,89.5L87.7,89.5z M85.5,97.4c0.3-0.2,0.6-0.5,0.8-0.9s0.3-0.7,0.3-1.2c0-0.4-0.1-0.9-0.3-1.2c-0.2-0.4-0.4-0.6-0.8-0.9
			c-0.3-0.2-0.7-0.3-1.2-0.3s-0.8,0.1-1.2,0.3c-0.3,0.2-0.6,0.5-0.8,0.9S82,94.8,82,95.3c0,0.4,0.1,0.9,0.3,1.2
			c0.2,0.4,0.4,0.6,0.8,0.9c0.3,0.2,0.7,0.3,1.2,0.3S85.1,97.6,85.5,97.4z"/>
		<path class="st10" d="M89.9,89.9h1.2v8.7h-1.2V89.9z"/>
		<path class="st10" d="M92,89.9h6.8V91H96v7.6h-1.2V91H92V89.9z"/>
	</g>
</g>
</svg>
