<?xml version="1.0" encoding="utf-8"?>
<!-- Generator: Adobe Illustrator 19.1.0, SVG Export Plug-In . SVG Version: 6.00 Build 0)  -->
<svg version="1.1" id="Layer_1" xmlns="http://www.w3.org/2000/svg" xmlns:xlink="http://www.w3.org/1999/xlink" x="0px" y="0px"
	 viewBox="-99 -20 760 600" style="enable-background:new -99 -20 760 600;" xml:space="preserve">
<style type="text/css">
	.st0{fill:#FFFFFF;}
	.st1{opacity:0.5;}
	.st2{fill:#F5F5F5;}
	.st3{fill:#BBBDBF;}
	.st4{fill:#F8FBFF;}
	.st5{fill:#E8E8E8;}
	.st6{fill:#CECECE;}
	.st7{fill:#563C81;}
	.st8{fill:#643E7C;}
	.st9{fill:#41BC92;}
	.st10{fill:#70CAD9;}
	.st11{fill:#F64287;}
	.st12{fill:#C6BC1F;}
	.st13{fill:#CCCDCE;}
	.st14{fill:#BBBBBB;}
	.st15{fill:#111110;}
	.st16{fill:#31D63D;}
	.st17{enable-background:new    ;}
	.st18{fill:#C5BB21;}
</style>
<g>
	<g>
		<g>
			<g>
				<path class="st0" d="M2.6,75.8c-0.5-0.5-1.1-0.7-1.8-0.7s-1.3,0.2-1.8,0.7s-0.7,1.1-0.7,1.8c0,0.7,0.2,1.3,0.7,1.8
					s1,0.7,1.8,0.7c0.7,0,1.3-0.2,1.8-0.7s0.7-1,0.7-1.8C3.4,76.9,3.1,76.3,2.6,75.8z"/>
				<path class="st0" d="M23.4,75.9c-0.5-0.5-1.1-0.7-1.8-0.7s-1.3,0.2-1.8,0.7s-0.7,1.1-0.7,1.8c0,0.7,0.2,1.3,0.7,1.8
					s1,0.7,1.8,0.7c0.7,0,1.3-0.2,1.8-0.7s0.7-1,0.7-1.8C24.1,77,23.9,76.4,23.4,75.9z"/>
			</g>
			<path class="st0" d="M21.5,82.5c0.7,1.5,1.1,3.2,1.1,4.9c0,3.1-1.1,5.8-3.3,8c-2.2,2.2-4.9,3.3-8,3.3s-5.8-1.1-8-3.3
				c-2.2-2.2-3.3-4.9-3.3-8c0-1.8,0.4-3.4,1.1-4.9h-3.2C-2.7,84-3,85.7-3,87.4c0,2,0.4,3.8,1.1,5.6c0.7,1.7,1.8,3.2,3.1,4.5
				c1.3,1.3,2.8,2.3,4.5,3.1c1.8,0.7,3.6,1.1,5.6,1.1s3.8-0.4,5.6-1.1c1.7-0.7,3.2-1.8,4.5-3.1c1.3-1.3,2.3-2.8,3.1-4.5
				c0.7-1.8,1.1-3.6,1.1-5.6c0-1.7-0.3-3.4-0.9-4.9H21.5z"/>
		</g>
	</g>
	<g>
		<path class="st0" d="M28.9,93.1c-0.4,0-0.8,0.1-1.2,0.3c-0.3,0.2-0.6,0.4-0.8,0.8s-0.3,0.7-0.3,1.2c0,0.4,0.1,0.9,0.3,1.2
			s0.4,0.6,0.8,0.8c0.3,0.2,0.7,0.3,1.1,0.3c0.4,0,0.8-0.1,1.2-0.2s0.6-0.4,0.9-0.6l0.7,0.7c-0.3,0.4-0.7,0.7-1.2,0.9
			s-1,0.3-1.5,0.3c-0.6,0-1.2-0.1-1.7-0.4s-0.9-0.7-1.2-1.2c-0.3-0.5-0.4-1-0.4-1.7s0.1-1.2,0.4-1.7s0.7-0.9,1.2-1.2
			c0.5-0.3,1-0.4,1.7-0.4c0.6,0,1,0.1,1.5,0.2c0.4,0.2,0.8,0.4,1.1,0.7l-0.6,0.8C30.3,93.3,29.7,93.1,28.9,93.1z"/>
		<path class="st0" d="M37.1,92.5c0.5,0.3,0.9,0.7,1.2,1.2s0.4,1,0.4,1.7s-0.1,1.2-0.4,1.7c-0.3,0.5-0.7,0.9-1.2,1.2
			c-0.5,0.3-1.1,0.4-1.7,0.4c-0.7,0-1.2-0.1-1.8-0.4c-0.5-0.3-0.9-0.7-1.2-1.2S32,96,32,95.4c0-0.7,0.1-1.2,0.4-1.7s0.7-0.9,1.2-1.2
			c0.5-0.3,1.1-0.4,1.8-0.4S36.6,92.2,37.1,92.5z M34.3,93.4c-0.3,0.2-0.6,0.5-0.8,0.8c-0.2,0.4-0.3,0.7-0.3,1.2
			c0,0.4,0.1,0.9,0.3,1.2c0.2,0.4,0.4,0.6,0.8,0.8c0.3,0.2,0.7,0.3,1.2,0.3s0.8-0.1,1.2-0.3c0.3-0.2,0.6-0.5,0.8-0.8
			c0.2-0.4,0.3-0.7,0.3-1.2c0-0.4-0.1-0.9-0.3-1.2c-0.2-0.4-0.4-0.6-0.8-0.8c-0.3-0.2-0.7-0.3-1.2-0.3S34.6,93.1,34.3,93.4z"/>
		<path class="st0" d="M45.6,92.7c0.4,0.4,0.7,1,0.7,1.8v4h-1.2v-3.7c0-0.6-0.2-1-0.5-1.3S43.9,93,43.3,93s-1,0.2-1.4,0.6
			s-0.6,0.9-0.6,1.4v3.5h-1.2v-6.4h1.2v1.4c0.4-0.9,1.3-1.4,2.5-1.4C44.5,92,45.2,92.3,45.6,92.7z"/>
		<path class="st0" d="M53.6,92.7c0.4,0.4,0.7,1,0.7,1.8v4h-1.2v-3.7c0-0.6-0.2-1-0.5-1.3S51.9,93,51.3,93s-1,0.2-1.4,0.6
			s-0.6,0.9-0.6,1.4v3.5h-1.2v-6.4h1.2v1.4c0.4-0.9,1.3-1.4,2.5-1.4C52.5,92,53.1,92.3,53.6,92.7z"/>
		<path class="st0" d="M60.6,92.9c0.5,0.6,0.8,1.4,0.8,2.5c0,0.2,0,0.3,0,0.4h-5.2c0.1,0.6,0.3,1,0.7,1.4s0.9,0.5,1.5,0.5
			c0.4,0,0.7-0.1,1.1-0.2c0.3-0.1,0.6-0.4,0.9-0.6l0.6,0.7c-0.3,0.4-0.7,0.6-1.2,0.8s-1,0.3-1.5,0.3c-0.7,0-1.2-0.1-1.7-0.4
			s-0.9-0.7-1.2-1.2S55,96,55,95.4c0-0.7,0.1-1.2,0.4-1.7c0.3-0.5,0.7-0.9,1.2-1.2c0.5-0.3,1-0.4,1.7-0.4C59.2,92,60,92.3,60.6,92.9
			z M60.3,94.9c-0.1-0.6-0.2-1-0.6-1.4c-0.4-0.4-0.9-0.5-1.4-0.5c-0.6,0-1,0.2-1.5,0.5c-0.4,0.4-0.6,0.8-0.7,1.4H60.3z"/>
		<path class="st0" d="M65.5,93.1c-0.4,0-0.8,0.1-1.2,0.3c-0.3,0.2-0.6,0.4-0.8,0.8s-0.3,0.7-0.3,1.2c0,0.4,0.1,0.9,0.3,1.2
			c0.2,0.4,0.4,0.6,0.8,0.8c0.3,0.2,0.7,0.3,1.1,0.3s0.8-0.1,1.2-0.2s0.6-0.4,0.9-0.6l0.7,0.7c-0.3,0.4-0.7,0.7-1.2,0.9
			c-0.4,0.2-1,0.3-1.5,0.3c-0.6,0-1.2-0.1-1.7-0.4s-0.9-0.7-1.2-1.2s-0.4-1-0.4-1.7s0.1-1.2,0.4-1.7c0.3-0.5,0.7-0.9,1.2-1.2
			c0.5-0.3,1-0.4,1.7-0.4c0.6,0,1,0.1,1.5,0.2c0.4,0.2,0.8,0.4,1.1,0.7l-0.6,0.8C66.9,93.3,66.2,93.1,65.5,93.1z"/>
		<path class="st0" d="M72.8,98.2c-0.5,0.3-1,0.5-1.5,0.5s-0.9-0.2-1.3-0.5c-0.3-0.3-0.5-0.8-0.5-1.4v-3.6h-0.9v-0.9h0.9v-1.8h1.2
			v1.8h2v0.9h-2v3.4c0,0.4,0.1,0.6,0.2,0.8c0.1,0.2,0.3,0.2,0.6,0.2s0.7-0.1,1-0.3L72.8,98.2z"/>
		<path class="st0" d="M79.2,92.9c0.5,0.6,0.8,1.4,0.8,2.5c0,0.2,0,0.3,0,0.4h-5.2c0.1,0.6,0.3,1,0.7,1.4s0.9,0.5,1.5,0.5
			c0.4,0,0.7-0.1,1.1-0.2c0.3-0.1,0.6-0.4,0.9-0.6l0.6,0.7c-0.3,0.4-0.7,0.6-1.2,0.8s-1,0.3-1.5,0.3c-0.7,0-1.2-0.1-1.7-0.4
			s-0.9-0.7-1.2-1.2s-0.4-1.1-0.4-1.7c0-0.7,0.1-1.2,0.4-1.7c0.3-0.5,0.7-0.9,1.2-1.2c0.5-0.3,1-0.4,1.7-0.4
			C77.9,92,78.7,92.3,79.2,92.9z M78.9,94.9c-0.1-0.6-0.2-1-0.6-1.4c-0.4-0.4-0.9-0.5-1.4-0.5s-1,0.2-1.5,0.5
			c-0.4,0.4-0.6,0.8-0.7,1.4H78.9z"/>
		<path class="st0" d="M87.7,89.5v9.2h-1.2v-1.3c-0.2,0.4-0.6,0.8-1,1s-0.9,0.4-1.5,0.4s-1.2-0.1-1.7-0.4s-0.9-0.7-1.1-1.2
			c-0.2-0.5-0.4-1.1-0.4-1.7c0-0.7,0.1-1.2,0.4-1.7c0.2-0.5,0.6-0.9,1.1-1.2c0.5-0.3,1-0.4,1.7-0.4c0.6,0,1,0.1,1.5,0.4
			c0.4,0.2,0.7,0.6,1,1v-3.9L87.7,89.5L87.7,89.5z M85.5,97.4c0.3-0.2,0.6-0.5,0.8-0.9s0.3-0.7,0.3-1.2c0-0.4-0.1-0.9-0.3-1.2
			c-0.2-0.4-0.4-0.6-0.8-0.9c-0.3-0.2-0.7-0.3-1.2-0.3c-0.4,0-0.8,0.1-1.2,0.3c-0.3,0.2-0.6,0.5-0.8,0.9S82,94.8,82,95.3
			c0,0.4,0.1,0.9,0.3,1.2c0.2,0.4,0.4,0.6,0.8,0.9c0.3,0.2,0.7,0.3,1.2,0.3C84.8,97.7,85.2,97.6,85.5,97.4z"/>
		<path class="st0" d="M90,89.9h1.2v8.7H90V89.9z"/>
		<path class="st0" d="M92.1,89.9h6.8V91h-2.8v7.6h-1.2V91h-2.8V89.9z"/>
	</g>
</g>
<g>
	<g class="st1">
	</g>
	<path class="st2" d="M595,27.4c21,0,38,17.1,38,38.4v428.6c0,21.1-17.1,38.5-38.5,38.5H-32.3c-21.1,0.1-38.7-17-38.7-38.4V65.6
		C-71,44.5-53.7,27-32.3,27H595V27.4z"/>
	<path class="st3" d="M602.8,297.2c-0.1,0-0.1,0-0.2,0c-9.5,0-17.3-7.8-17.3-17.3c0-9.5,7.8-17.3,17.3-17.3
		c9.5,0,17.3,7.8,17.3,17.3c0,4.7-1.8,9.1-5.1,12.4C611.5,295.5,607.3,297.2,602.8,297.2z M602.6,263.6c-9,0-16.3,7.3-16.3,16.3
		s7.3,16.3,16.3,16.3c4.3,0.1,8.4-1.6,11.4-4.6c3.1-3.1,4.9-7.2,4.9-11.7C618.9,270.9,611.6,263.6,602.6,263.6z"/>
	<circle class="st3" cx="-42.2" cy="280.5" r="3.6"/>
	<rect x="-20" y="65" class="st4" width="591" height="431"/>
	<g>
		<rect x="-20" y="65" class="st5" width="591" height="431"/>
		<path class="st6" d="M571.3,496.3H-20.3V64.8h591.5V496.3z M-19.8,495.8h590.5V65.3H-19.8V495.8z"/>
	</g>
	<rect x="-20" y="65" class="st7" width="45" height="431"/>
	<rect x="25" y="65" class="st8" width="127" height="431"/>
</g>
<g>
	<path class="st9" d="M12.5,113h-20c-3,0-5.5-2.5-5.5-5.5v-20c0-3,2.5-5.5,5.5-5.5h20c3,0,5.5,2.5,5.5,5.5v20
		C18,110.5,15.5,113,12.5,113z"/>
	<rect x="33.3" y="87" class="st0" width="59" height="3.7"/>
	<rect x="33.3" y="96.7" class="st0" width="74.3" height="3.7"/>
	<rect x="33.3" y="106.3" class="st0" width="88.3" height="3.7"/>
</g>
<g>
	<path class="st10" d="M12.5,180.8h-20c-3,0-5.5-2.5-5.5-5.5v-20c0-3,2.5-5.5,5.5-5.5h20c3,0,5.5,2.5,5.5,5.5v20
		C18,178.4,15.5,180.8,12.5,180.8z"/>
	<rect x="33.3" y="154.8" class="st0" width="59" height="3.7"/>
	<rect x="33.3" y="164.5" class="st0" width="74.3" height="3.7"/>
	<rect x="33.3" y="174.2" class="st0" width="88.3" height="3.7"/>
</g>
<g>
	<path class="st11" d="M12.5,248.7h-20c-3,0-5.5-2.5-5.5-5.5v-20c0-3,2.5-5.5,5.5-5.5h20c3,0,5.5,2.5,5.5,5.5v20
		C18,246.2,15.5,248.7,12.5,248.7z"/>
	<rect x="33.3" y="222.7" class="st0" width="59" height="3.7"/>
	<rect x="33.3" y="232.3" class="st0" width="74.3" height="3.7"/>
	<rect x="33.3" y="242" class="st0" width="88.3" height="3.7"/>
</g>
<g>
	<path class="st12" d="M12.5,316.5h-20c-3,0-5.5-2.5-5.5-5.5v-20c0-3,2.5-5.5,5.5-5.5h20c3,0,5.5,2.5,5.5,5.5v20
		C18,314,15.5,316.5,12.5,316.5z"/>
	<rect x="33.3" y="290.5" class="st0" width="59" height="3.7"/>
	<rect x="33.3" y="300.2" class="st0" width="74.3" height="3.7"/>
	<rect x="33.3" y="309.8" class="st0" width="88.3" height="3.7"/>
</g>
<path class="st0" d="M35.3,412.7v-70.1c0-3.6,2.5-6.5,5.5-6.5h95.7c3,0,5.5,2.9,5.5,6.5v70.1"/>
<g>
	<path class="st9" d="M195.9,110.8h-26.3c-1.8,0-3.3-1.5-3.3-3.3V81.2c0-1.8,1.5-3.3,3.3-3.3h26.3c1.8,0,3.3,1.5,3.3,3.3v26.3
		C199.2,109.3,197.7,110.8,195.9,110.8z"/>
	<path class="st13" d="M326.7,101.8H212.1c-1.8,0-3.3-1.5-3.3-3.3V81.1c0-1.8,1.5-3.3,3.3-3.3h114.5c1.8,0,3.3,1.5,3.3,3.3v17.4
		C330,100.4,328.5,101.8,326.7,101.8z"/>
	<path class="st14" d="M364,129.6H212.1c-1.8,0-3.3-1.5-3.3-3.3v-17.4c0-1.8,1.5-3.3,3.3-3.3H364c1.8,0,3.3,1.5,3.3,3.3v17.4
		C367.3,128.1,365.8,129.6,364,129.6z"/>
</g>
<g>
	<path class="st10" d="M195.9,195.1h-26.3c-1.8,0-3.3-1.5-3.3-3.3v-26.3c0-1.8,1.5-3.3,3.3-3.3h26.3c1.8,0,3.3,1.5,3.3,3.3v26.3
		C199.2,193.6,197.7,195.1,195.9,195.1z"/>
	<path class="st13" d="M326.7,187.2H212.1c-1.8,0-3.3-1.5-3.3-3.3v-17.4c0-1.8,1.5-3.3,3.3-3.3h114.5c1.8,0,3.3,1.5,3.3,3.3v17.4
		C330,185.7,328.5,187.2,326.7,187.2z"/>
	<path class="st14" d="M364,214.9H212.1c-1.8,0-3.3-1.5-3.3-3.3v-17.4c0-1.8,1.5-3.3,3.3-3.3H364c1.8,0,3.3,1.5,3.3,3.3v17.4
		C367.3,213.4,365.8,214.9,364,214.9z"/>
</g>
<g>
	<path class="st11" d="M195.9,280.7h-26.3c-1.8,0-3.3-1.5-3.3-3.3V251c0-1.8,1.5-3.3,3.3-3.3h26.3c1.8,0,3.3,1.5,3.3,3.3v26.3
		C199.2,279.2,197.7,280.7,195.9,280.7z"/>
	<path class="st13" d="M326.7,271.1H212.1c-1.8,0-3.3-1.5-3.3-3.3v-17.4c0-1.8,1.5-3.3,3.3-3.3h114.5c1.8,0,3.3,1.5,3.3,3.3v17.4
		C330,269.6,328.5,271.1,326.7,271.1z"/>
	<path class="st14" d="M364,298.8H212.1c-1.8,0-3.3-1.5-3.3-3.3v-17.4c0-1.8,1.5-3.3,3.3-3.3H364c1.8,0,3.3,1.5,3.3,3.3v17.4
		C367.3,297.3,365.8,298.8,364,298.8z"/>
</g>
<g>
	<path class="st12" d="M195.9,370.3h-26.3c-1.8,0-3.3-1.5-3.3-3.3v-26.3c0-1.8,1.5-3.3,3.3-3.3h26.3c1.8,0,3.3,1.5,3.3,3.3V367
		C199.2,368.8,197.7,370.3,195.9,370.3z"/>
	<path class="st13" d="M326.7,360H212.1c-1.8,0-3.3-1.5-3.3-3.3v-17.4c0-1.8,1.5-3.3,3.3-3.3h114.5c1.8,0,3.3,1.5,3.3,3.3v17.4
		C330,358.6,328.5,360,326.7,360z"/>
	<path class="st14" d="M364,387.8H212.1c-1.8,0-3.3-1.5-3.3-3.3v-17.4c0-1.8,1.5-3.3,3.3-3.3H364c1.8,0,3.3,1.5,3.3,3.3v17.4
		C367.3,386.3,365.8,387.8,364,387.8z"/>
</g>
<rect x="166.2" y="427" class="st8" width="391.8" height="60.7"/>
<path class="st15" d="M433.8,90.8l1.4-0.1c0.1,0.6,0.2,1,0.5,1.4c0.2,0.4,0.6,0.7,1.1,0.9c0.5,0.2,1.1,0.3,1.7,0.3
	c0.6,0,1.1-0.1,1.5-0.2c0.4-0.2,0.8-0.4,1-0.7c0.2-0.3,0.3-0.6,0.3-1s-0.1-0.7-0.3-0.9c-0.2-0.3-0.5-0.5-1-0.7c-0.3-0.1-1-0.3-2-0.6
	c-1-0.2-1.8-0.5-2.2-0.7c-0.5-0.3-0.9-0.6-1.2-1s-0.4-0.9-0.4-1.4c0-0.6,0.2-1.1,0.5-1.6s0.8-0.9,1.4-1.1c0.6-0.3,1.3-0.4,2.1-0.4
	s1.6,0.1,2.2,0.4c0.6,0.3,1.1,0.7,1.5,1.2c0.3,0.5,0.5,1.1,0.6,1.8l-1.4,0.1c-0.1-0.7-0.3-1.3-0.8-1.6c-0.4-0.4-1.1-0.5-2-0.5
	s-1.6,0.2-2,0.5s-0.6,0.7-0.6,1.2c0,0.4,0.1,0.7,0.4,1c0.3,0.3,1,0.5,2.3,0.8c1.2,0.3,2,0.5,2.5,0.7c0.7,0.3,1.1,0.7,1.5,1.1
	c0.3,0.5,0.5,1,0.5,1.6s-0.2,1.2-0.5,1.7s-0.8,0.9-1.5,1.2c-0.6,0.3-1.4,0.4-2.2,0.4c-1,0-1.9-0.1-2.6-0.4c-0.7-0.3-1.2-0.7-1.6-1.3
	C434.1,92.2,433.8,91.5,433.8,90.8L433.8,90.8z M450.3,91.8l1.4,0.2c-0.2,0.8-0.6,1.5-1.3,2c-0.6,0.5-1.4,0.7-2.3,0.7
	c-1.2,0-2.1-0.4-2.9-1.1c-0.7-0.7-1-1.8-1-3.1c0-1.4,0.4-2.4,1.1-3.2c0.7-0.8,1.6-1.1,2.8-1.1c1.1,0,2,0.4,2.7,1.1s1,1.8,1,3.1
	c0,0.1,0,0.2,0,0.4h-6.1c0.1,0.9,0.3,1.6,0.8,2.1s1,0.7,1.7,0.7c0.5,0,0.9-0.1,1.3-0.4C449.8,92.8,450.1,92.3,450.3,91.8L450.3,91.8
	z M445.7,89.5h4.6c-0.1-0.7-0.2-1.2-0.5-1.5c-0.4-0.5-1-0.8-1.7-0.8c-0.6,0-1.2,0.2-1.6,0.6C446,88.2,445.8,88.8,445.7,89.5
	L445.7,89.5z M453.5,97.5V86.2h1.3v1.1c0.3-0.4,0.6-0.7,1-0.9c0.4-0.2,0.8-0.3,1.4-0.3c0.7,0,1.3,0.2,1.8,0.5
	c0.5,0.4,0.9,0.9,1.2,1.5s0.4,1.4,0.4,2.1c0,0.8-0.2,1.6-0.5,2.3c-0.3,0.7-0.7,1.2-1.3,1.5c-0.6,0.4-1.2,0.5-1.8,0.5
	c-0.5,0-0.9-0.1-1.2-0.3c-0.4-0.2-0.7-0.4-0.9-0.7v4L453.5,97.5L453.5,97.5z M454.7,90.3c0,1.1,0.2,1.8,0.6,2.3
	c0.4,0.5,0.9,0.7,1.5,0.7s1.1-0.3,1.6-0.8c0.4-0.5,0.7-1.3,0.7-2.4c0-1-0.2-1.8-0.6-2.3c-0.4-0.5-0.9-0.8-1.5-0.8s-1.1,0.3-1.6,0.8
	C454.9,88.5,454.7,89.3,454.7,90.3L454.7,90.3z M465.2,93.1l0.2,1.2c-0.4,0.1-0.7,0.1-1,0.1c-0.5,0-0.9-0.1-1.2-0.2
	c-0.3-0.2-0.5-0.4-0.6-0.6c-0.1-0.3-0.2-0.8-0.2-1.6v-4.7h-1v-1.1h1v-2l1.4-0.8v2.9h1.4v1.1h-1.4v4.8c0,0.4,0,0.7,0.1,0.8
	c0,0.1,0.1,0.2,0.2,0.3c0.1,0.1,0.3,0.1,0.5,0.1C464.8,93.2,465,93.2,465.2,93.1L465.2,93.1z M472.2,91.8l1.4,0.2
	c-0.2,0.8-0.6,1.5-1.3,2c-0.6,0.5-1.4,0.7-2.3,0.7c-1.2,0-2.1-0.4-2.8-1.1s-1-1.8-1-3.1c0-1.4,0.3-2.4,1.1-3.2
	c0.7-0.8,1.6-1.1,2.8-1.1c1.1,0,2,0.4,2.7,1.1s1,1.8,1,3.1c0,0.1,0,0.2,0,0.4h-6.1c0,0.9,0.3,1.6,0.8,2.1s1,0.7,1.7,0.7
	c0.5,0,0.9-0.1,1.3-0.4C471.7,92.8,472,92.3,472.2,91.8L472.2,91.8z M467.6,89.5h4.6c-0.1-0.7-0.2-1.2-0.5-1.5
	c-0.4-0.5-1-0.8-1.7-0.8c-0.6,0-1.2,0.2-1.6,0.6C467.9,88.2,467.7,88.8,467.6,89.5L467.6,89.5z M475.4,94.4v-8.2h1.2v1.2
	c0.3-0.4,0.6-0.7,1-1c0.4-0.2,0.9-0.4,1.5-0.4s1.1,0.1,1.5,0.4s0.7,0.6,0.8,1.1c0.7-1,1.5-1.4,2.5-1.4c0.8,0,1.4,0.2,1.9,0.7
	c0.4,0.4,0.6,1.1,0.6,2.1v5.6H485v-5.2c0-0.6,0-1-0.1-1.2s-0.3-0.4-0.5-0.6s-0.5-0.2-0.8-0.2c-0.6,0-1,0.2-1.4,0.6s-0.6,1-0.6,1.8
	v4.8h-1.4v-5.3c0-0.6-0.1-1.1-0.3-1.4s-0.6-0.5-1.1-0.5c-0.4,0-0.8,0.1-1.1,0.3c-0.3,0.2-0.6,0.5-0.7,0.9c-0.2,0.4-0.2,1-0.2,1.7
	v4.2H475.4L475.4,94.4z M489.8,94.4h-1.3V83.1h1.4v4c0.6-0.7,1.3-1.1,2.2-1.1c0.5,0,1,0.1,1.4,0.3c0.4,0.2,0.8,0.5,1.1,0.9
	s0.5,0.8,0.7,1.3s0.2,1.1,0.2,1.7c0,1.4-0.3,2.5-1,3.3s-1.5,1.1-2.5,1.1s-1.7-0.4-2.3-1.2L489.8,94.4L489.8,94.4z M489.8,90.2
	c0,1,0.1,1.7,0.4,2.1c0.4,0.7,1,1.1,1.8,1.1c0.6,0,1.1-0.3,1.6-0.8c0.4-0.5,0.7-1.3,0.7-2.4s-0.2-1.9-0.6-2.4
	c-0.4-0.5-0.9-0.8-1.5-0.8s-1.1,0.3-1.6,0.8C490,88.5,489.8,89.2,489.8,90.2L489.8,90.2z M502.9,91.8l1.4,0.2
	c-0.2,0.8-0.6,1.5-1.3,2c-0.6,0.5-1.4,0.7-2.3,0.7c-1.2,0-2.2-0.4-2.8-1.1c-0.7-0.7-1.1-1.8-1.1-3.1c0-1.4,0.4-2.4,1.1-3.2
	c0.7-0.8,1.6-1.1,2.8-1.1c1.1,0,2,0.4,2.7,1.1s1,1.8,1,3.1c0,0.1,0,0.2,0,0.4h-6.1c0,0.9,0.3,1.6,0.8,2.1s1,0.7,1.7,0.7
	c0.5,0,0.9-0.1,1.3-0.4C502.4,92.8,502.7,92.3,502.9,91.8L502.9,91.8z M498.3,89.5h4.6c-0.1-0.7-0.2-1.2-0.5-1.5
	c-0.4-0.5-1-0.8-1.7-0.8c-0.6,0-1.2,0.2-1.6,0.6C498.6,88.2,498.4,88.8,498.3,89.5L498.3,89.5z M506,94.4v-8.2h1.2v1.2
	c0.3-0.6,0.6-1,0.9-1.2c0.3-0.2,0.6-0.3,0.9-0.3c0.5,0,0.9,0.1,1.4,0.4l-0.5,1.3c-0.3-0.2-0.7-0.3-1-0.3s-0.6,0.1-0.8,0.3
	c-0.2,0.2-0.4,0.4-0.5,0.8c-0.2,0.5-0.2,1-0.2,1.6v4.3L506,94.4L506,94.4z"/>
<g>
	<path class="st16" d="M460.6,181.9h-19.7c-1,0-1.7-0.8-1.7-1.7v-12.4c0-1,0.8-1.7,1.7-1.7h19.7c1,0,1.7,0.8,1.7,1.7v12.4
		C462.4,181.2,461.6,181.9,460.6,181.9z"/>
	<g>
		<g class="st17">
			<path d="M443.2,128.6l-1.4-6.4h0.7l0.8,4.2c0.1,0.4,0.2,0.9,0.2,1.3l0.2-1.2l1-4.4h0.8l0.8,3.3c0.2,0.8,0.3,1.6,0.4,2.3
				c0.1-0.4,0.2-0.9,0.3-1.4l0.8-4.1h0.7l-1.5,6.4h-0.7l-1.1-4.9l-0.2-0.8c0,0.3-0.1,0.5-0.2,0.8l-1.1,4.9H443.2z"/>
			<path d="M451.6,127.1l0.7,0.1c-0.1,0.5-0.3,0.9-0.6,1.1c-0.3,0.3-0.7,0.4-1.1,0.4c-0.5,0-1-0.2-1.3-0.6c-0.3-0.4-0.5-1-0.5-1.8
				c0-0.8,0.2-1.4,0.5-1.8c0.3-0.4,0.8-0.6,1.3-0.6c0.5,0,0.9,0.2,1.2,0.6s0.5,1,0.5,1.8l0,0.2h-2.9c0,0.5,0.1,0.9,0.4,1.2
				c0.2,0.3,0.5,0.4,0.8,0.4C451.1,128,451.4,127.7,451.6,127.1z M449.5,125.8h2.1c0-0.4-0.1-0.7-0.3-0.9c-0.2-0.3-0.5-0.4-0.8-0.4
				c-0.3,0-0.5,0.1-0.7,0.4C449.6,125.1,449.5,125.4,449.5,125.8z"/>
			<path d="M455.6,128.6V128c-0.1,0.2-0.3,0.4-0.5,0.5c-0.2,0.1-0.4,0.2-0.6,0.2c-0.5,0-0.8-0.2-1.2-0.6c-0.3-0.4-0.5-1-0.5-1.8
				c0-0.5,0.1-1,0.2-1.3s0.3-0.6,0.6-0.8c0.2-0.2,0.5-0.3,0.8-0.3c0.2,0,0.4,0.1,0.6,0.2c0.2,0.1,0.3,0.3,0.5,0.5v-2.3h0.7v6.4
				H455.6z M453.5,126.3c0,0.6,0.1,1.1,0.3,1.3c0.2,0.3,0.5,0.4,0.7,0.4c0.3,0,0.5-0.1,0.7-0.4c0.2-0.3,0.3-0.7,0.3-1.3
				c0-0.7-0.1-1.1-0.3-1.4c-0.2-0.3-0.5-0.5-0.8-0.5c-0.3,0-0.5,0.1-0.7,0.4C453.6,125.2,453.5,125.6,453.5,126.3z"/>
		</g>
		<path class="st15" d="M451.6,154l-0.9,0.1c-0.1-0.4-0.2-0.6-0.3-0.8c-0.3-0.3-0.6-0.4-0.9-0.4c-0.3,0-0.6,0.1-0.8,0.2
			c-0.3,0.2-0.5,0.5-0.7,0.9s-0.2,1-0.2,1.7c0.2-0.3,0.5-0.6,0.8-0.8s0.6-0.2,1-0.2c0.6,0,1.1,0.2,1.6,0.7c0.4,0.5,0.6,1,0.6,1.7
			c0,0.5-0.1,0.9-0.3,1.3c-0.2,0.4-0.5,0.7-0.8,0.9c-0.4,0.2-0.8,0.3-1.2,0.3c-0.8,0-1.4-0.3-1.9-0.8c-0.5-0.6-0.7-1.5-0.7-2.8
			c0-1.4,0.3-2.5,0.8-3.1s1.1-0.9,1.9-0.9c0.6,0,1.1,0.2,1.4,0.5C451.3,152.9,451.5,153.4,451.6,154L451.6,154z M447.8,157.2
			c0,0.3,0.1,0.6,0.2,0.9c0.1,0.3,0.3,0.5,0.6,0.7c0.2,0.1,0.5,0.2,0.8,0.2c0.4,0,0.7-0.1,1-0.5c0.3-0.3,0.4-0.7,0.4-1.3
			c0-0.5-0.1-0.9-0.4-1.2c-0.3-0.3-0.6-0.4-1-0.4s-0.8,0.1-1,0.4C448,156.3,447.8,156.7,447.8,157.2L447.8,157.2z M447.4,178.1h-0.9
			v-5.8c-0.2,0.2-0.5,0.4-0.9,0.6c-0.4,0.2-0.7,0.4-1,0.5v-0.9c0.5-0.2,1-0.5,1.3-0.9c0.4-0.3,0.7-0.7,0.8-1h0.6v7.5H447.4z
			 M449.7,176.1l0.9-0.1c0.1,0.5,0.3,0.9,0.5,1.1c0.3,0.2,0.6,0.3,0.9,0.3c0.4,0,0.8-0.2,1.1-0.4c0.3-0.3,0.4-0.7,0.4-1.1
			c0-0.4-0.1-0.8-0.4-1c-0.3-0.3-0.6-0.4-1-0.4c-0.2,0-0.4,0-0.7,0.1l0.1-0.8c0.1,0,0.1,0,0.2,0c0.4,0,0.7-0.1,1.1-0.3
			c0.3-0.2,0.5-0.5,0.5-0.9c0-0.3-0.1-0.6-0.3-0.8s-0.5-0.3-0.9-0.3s-0.7,0.1-0.9,0.3s-0.4,0.6-0.5,1l-0.9-0.2
			c0.1-0.6,0.4-1.1,0.8-1.4c0.4-0.3,0.9-0.5,1.5-0.5c0.4,0,0.8,0.1,1.1,0.3s0.6,0.4,0.8,0.7s0.3,0.6,0.3,1c0,0.3-0.1,0.6-0.3,0.9
			c-0.2,0.3-0.4,0.5-0.8,0.6c0.4,0.1,0.8,0.3,1,0.6s0.4,0.7,0.4,1.2c0,0.7-0.2,1.2-0.7,1.6c-0.5,0.5-1.1,0.7-1.8,0.7
			s-1.2-0.2-1.6-0.6C450.1,177.2,449.8,176.7,449.7,176.1L449.7,176.1z M448.7,195.6v0.9h-4.9c0-0.2,0-0.4,0.1-0.6
			c0.1-0.3,0.3-0.7,0.6-1s0.7-0.7,1.2-1.1c0.8-0.7,1.4-1.2,1.6-1.6c0.3-0.4,0.4-0.8,0.4-1.1c0-0.4-0.1-0.7-0.4-0.9
			c-0.3-0.2-0.6-0.4-1-0.4s-0.8,0.1-1.1,0.4c-0.3,0.3-0.4,0.6-0.4,1.1l-0.9-0.1c0.1-0.7,0.3-1.2,0.7-1.6c0.4-0.4,1-0.6,1.7-0.6
			s1.3,0.2,1.7,0.6c0.4,0.4,0.6,0.9,0.6,1.5c0,0.3-0.1,0.6-0.2,0.9c-0.1,0.3-0.3,0.6-0.6,0.9c-0.3,0.3-0.8,0.8-1.4,1.3
			c-0.6,0.5-0.9,0.8-1.1,0.9c-0.2,0.2-0.3,0.3-0.4,0.5L448.7,195.6L448.7,195.6z M449.7,192.8c0-0.9,0.1-1.6,0.3-2.1s0.5-1,0.8-1.3
			c0.4-0.3,0.8-0.4,1.3-0.4c0.4,0,0.8,0.1,1.1,0.2c0.3,0.2,0.5,0.4,0.7,0.7s0.4,0.7,0.5,1.1c0.1,0.4,0.2,1,0.2,1.8
			c0,0.9-0.1,1.6-0.3,2.1s-0.5,0.9-0.8,1.2c-0.4,0.3-0.8,0.4-1.4,0.4c-0.7,0-1.3-0.3-1.7-0.8C450,195.2,449.7,194.2,449.7,192.8
			L449.7,192.8z M450.7,192.8c0,1.2,0.1,2,0.4,2.4c0.3,0.4,0.6,0.6,1.1,0.6c0.4,0,0.8-0.2,1.1-0.6c0.3-0.4,0.4-1.2,0.4-2.4
			s-0.1-2-0.4-2.4c-0.3-0.4-0.6-0.6-1.1-0.6c-0.4,0-0.8,0.2-1,0.5C450.8,190.8,450.7,191.6,450.7,192.8L450.7,192.8z M448.7,214.1
			v0.9h-4.9c0-0.2,0-0.4,0.1-0.6c0.1-0.3,0.3-0.7,0.6-1s0.7-0.7,1.2-1.1c0.8-0.7,1.4-1.2,1.6-1.6c0.3-0.4,0.4-0.8,0.4-1.1
			c0-0.4-0.1-0.7-0.4-0.9c-0.3-0.2-0.6-0.4-1-0.4s-0.8,0.1-1.1,0.4c-0.3,0.3-0.4,0.6-0.4,1.1l-0.9-0.1c0.1-0.7,0.3-1.2,0.7-1.6
			c0.4-0.4,1-0.6,1.7-0.6s1.3,0.2,1.7,0.6c0.4,0.4,0.6,0.9,0.6,1.5c0,0.3-0.1,0.6-0.2,0.9c-0.1,0.3-0.3,0.6-0.6,0.9
			c-0.3,0.3-0.8,0.8-1.4,1.3c-0.6,0.5-0.9,0.8-1.1,0.9c-0.2,0.2-0.3,0.3-0.4,0.5L448.7,214.1L448.7,214.1z M449.8,208.5v-0.9h4.8
			v0.7c-0.5,0.5-0.9,1.2-1.4,2s-0.8,1.7-1.1,2.6c-0.2,0.6-0.3,1.3-0.4,2.1h-0.9c0-0.6,0.1-1.3,0.3-2.1s0.5-1.6,0.9-2.4
			c0.4-0.8,0.8-1.4,1.3-1.9h-3.5V208.5z"/>
	</g>
	<g>
		<g class="st17">
			<path d="M419.8,128.6v-5.7h-1.7v-0.8h4.2v0.8h-1.7v5.7H419.8z"/>
			<path d="M425.1,128.6v-0.7c-0.1,0.3-0.3,0.5-0.5,0.6c-0.2,0.1-0.4,0.2-0.7,0.2c-0.3,0-0.6-0.1-0.8-0.2c-0.2-0.2-0.4-0.4-0.4-0.6
				c-0.1-0.2-0.1-0.6-0.1-1v-2.9h0.6v2.6c0,0.5,0,0.8,0.1,1c0,0.2,0.1,0.3,0.3,0.4c0.1,0.1,0.3,0.1,0.4,0.1c0.3,0,0.6-0.1,0.8-0.4
				c0.2-0.2,0.3-0.6,0.3-1.2v-2.5h0.7v4.7H425.1z"/>
			<path d="M429.3,127.1l0.7,0.1c-0.1,0.5-0.3,0.9-0.6,1.1c-0.3,0.3-0.7,0.4-1.1,0.4c-0.5,0-1-0.2-1.3-0.6c-0.3-0.4-0.5-1-0.5-1.8
				c0-0.8,0.2-1.4,0.5-1.8c0.3-0.4,0.8-0.6,1.3-0.6c0.5,0,0.9,0.2,1.2,0.6s0.5,1,0.5,1.8l0,0.2h-2.9c0,0.5,0.1,0.9,0.4,1.2
				c0.2,0.3,0.5,0.4,0.8,0.4C428.8,128,429.2,127.7,429.3,127.1z M427.2,125.8h2.1c0-0.4-0.1-0.7-0.3-0.9c-0.2-0.3-0.5-0.4-0.8-0.4
				c-0.3,0-0.5,0.1-0.7,0.4C427.3,125.1,427.2,125.4,427.2,125.8z"/>
			<path d="M430.6,127.2l0.6-0.1c0,0.3,0.1,0.6,0.3,0.7c0.2,0.2,0.4,0.2,0.7,0.2s0.5-0.1,0.7-0.2c0.2-0.1,0.2-0.3,0.2-0.5
				c0-0.2-0.1-0.3-0.2-0.4c-0.1-0.1-0.3-0.2-0.7-0.3c-0.5-0.2-0.8-0.3-1-0.4s-0.3-0.3-0.4-0.4c-0.1-0.2-0.1-0.4-0.1-0.6
				c0-0.4,0.1-0.7,0.4-1s0.6-0.4,1.1-0.4c0.3,0,0.5,0.1,0.7,0.2c0.2,0.1,0.4,0.2,0.5,0.4s0.2,0.4,0.2,0.7l-0.6,0.1
				c-0.1-0.5-0.3-0.8-0.8-0.8c-0.3,0-0.5,0.1-0.6,0.2s-0.2,0.3-0.2,0.4c0,0.2,0.1,0.3,0.2,0.4c0.1,0.1,0.3,0.2,0.7,0.3
				c0.5,0.2,0.9,0.3,1,0.4c0.2,0.1,0.3,0.2,0.4,0.4c0.1,0.2,0.1,0.4,0.1,0.6c0,0.4-0.1,0.8-0.4,1.1c-0.3,0.3-0.7,0.4-1.2,0.4
				C431.3,128.7,430.7,128.2,430.6,127.2z"/>
		</g>
		<path class="st15" d="M423.6,157.7l1-0.1c0.1,0.5,0.2,0.8,0.5,1.1c0.3,0.2,0.6,0.3,0.9,0.3c0.4,0,0.8-0.2,1.1-0.5s0.5-0.8,0.5-1.3
			s-0.1-0.9-0.4-1.2c-0.3-0.3-0.7-0.5-1.2-0.5c-0.3,0-0.6,0.1-0.8,0.2c-0.2,0.1-0.4,0.3-0.6,0.5l-0.9-0.1l0.7-3.8h3.7v0.9h-3l-0.4,2
			c0.4-0.3,0.9-0.5,1.4-0.5c0.7,0,1.2,0.2,1.7,0.7c0.4,0.4,0.7,1,0.7,1.7s-0.2,1.3-0.6,1.8c-0.5,0.6-1.1,0.9-2,0.9
			c-0.7,0-1.2-0.2-1.7-0.6C423.9,158.8,423.6,158.3,423.6,157.7L423.6,157.7z M424.1,178.1h-0.9v-5.8c-0.2,0.2-0.5,0.4-0.9,0.6
			c-0.4,0.2-0.7,0.4-1,0.5v-0.9c0.5-0.2,1-0.5,1.3-0.9c0.4-0.3,0.6-0.7,0.8-1h0.6v7.5H424.1z M431.3,177.2v0.9h-4.9
			c0-0.2,0-0.4,0.1-0.6c0.1-0.3,0.3-0.7,0.6-1s0.7-0.7,1.2-1.1c0.8-0.7,1.4-1.2,1.6-1.6c0.3-0.4,0.4-0.8,0.4-1.1
			c0-0.4-0.1-0.7-0.4-0.9c-0.3-0.3-0.6-0.4-1-0.4s-0.8,0.1-1.1,0.4c-0.3,0.3-0.4,0.6-0.4,1.1l-0.9-0.1c0.1-0.7,0.3-1.2,0.7-1.6
			c0.4-0.4,1-0.6,1.7-0.6s1.3,0.2,1.7,0.6c0.4,0.4,0.6,0.9,0.6,1.5c0,0.3-0.1,0.6-0.2,0.9c-0.1,0.3-0.3,0.6-0.6,0.9
			c-0.3,0.3-0.8,0.8-1.4,1.3c-0.5,0.5-0.9,0.8-1.1,0.9c-0.2,0.2-0.3,0.3-0.4,0.5L431.3,177.2L431.3,177.2z M424.1,196.5h-0.9v-5.8
			c-0.2,0.2-0.5,0.4-0.9,0.6c-0.4,0.2-0.7,0.4-1,0.5v-0.9c0.5-0.2,1-0.5,1.3-0.9c0.4-0.3,0.6-0.7,0.8-1h0.6v7.5H424.1z M426.6,194.8
			l0.9-0.1c0.1,0.4,0.2,0.7,0.4,0.9s0.5,0.3,0.8,0.3s0.5-0.1,0.7-0.2c0.2-0.1,0.4-0.3,0.5-0.5s0.2-0.5,0.3-0.9s0.1-0.7,0.1-1.1
			c0,0,0-0.1,0-0.2c-0.2,0.3-0.4,0.5-0.7,0.7s-0.7,0.3-1,0.3c-0.6,0-1.1-0.2-1.6-0.7c-0.4-0.4-0.6-1-0.6-1.8s0.2-1.4,0.7-1.8
			c0.4-0.5,1-0.7,1.7-0.7c0.5,0,0.9,0.1,1.3,0.4c0.4,0.3,0.7,0.6,0.9,1.1s0.3,1.2,0.3,2.1c0,0.9-0.1,1.7-0.3,2.3s-0.5,1-0.9,1.3
			s-0.9,0.4-1.4,0.4c-0.6,0-1.1-0.2-1.4-0.5C426.9,195.8,426.7,195.4,426.6,194.8L426.6,194.8z M430.4,191.5c0-0.5-0.1-0.9-0.4-1.3
			c-0.3-0.3-0.6-0.5-1-0.5s-0.8,0.2-1.1,0.5s-0.5,0.8-0.5,1.3s0.1,0.9,0.4,1.2c0.3,0.3,0.6,0.4,1.1,0.4c0.4,0,0.8-0.1,1-0.4
			C430.2,192.4,430.4,192,430.4,191.5L430.4,191.5z M425.5,214.1v0.9h-4.9c0-0.2,0-0.4,0.1-0.6c0.1-0.3,0.3-0.7,0.6-1
			s0.7-0.7,1.2-1.1c0.8-0.7,1.4-1.2,1.6-1.6c0.3-0.4,0.4-0.8,0.4-1.1c0-0.4-0.1-0.7-0.4-0.9c-0.3-0.2-0.6-0.4-1-0.4
			s-0.8,0.1-1.1,0.4c-0.3,0.3-0.4,0.6-0.4,1.1l-0.9-0.1c0.1-0.7,0.3-1.2,0.7-1.6c0.4-0.4,1-0.6,1.7-0.6s1.3,0.2,1.7,0.6
			c0.4,0.4,0.6,0.9,0.6,1.5c0,0.3-0.1,0.6-0.2,0.9c-0.1,0.3-0.3,0.6-0.6,0.9c-0.3,0.3-0.8,0.8-1.4,1.3c-0.5,0.5-0.9,0.8-1.1,0.9
			c-0.2,0.2-0.3,0.3-0.4,0.5L425.5,214.1L425.5,214.1z M431.2,209.3l-0.9,0.1c-0.1-0.4-0.2-0.6-0.3-0.8c-0.2-0.3-0.6-0.4-0.9-0.4
			c-0.3,0-0.5,0.1-0.8,0.2c-0.3,0.2-0.5,0.5-0.7,0.9s-0.3,1-0.3,1.7c0.2-0.3,0.5-0.6,0.8-0.7c0.3-0.2,0.7-0.2,1-0.2
			c0.6,0,1.1,0.2,1.6,0.7c0.4,0.4,0.6,1,0.6,1.7c0,0.5-0.1,0.9-0.3,1.3c-0.2,0.4-0.5,0.7-0.8,0.9s-0.8,0.3-1.2,0.3
			c-0.8,0-1.4-0.3-1.9-0.8c-0.5-0.6-0.7-1.5-0.7-2.8c0-1.4,0.3-2.5,0.8-3.1s1.1-0.9,1.9-0.9c0.6,0,1.1,0.2,1.4,0.5
			C430.9,208.3,431.2,208.7,431.2,209.3L431.2,209.3z M427.5,212.5c0,0.3,0.1,0.6,0.2,0.9c0.1,0.3,0.3,0.5,0.6,0.7
			c0.2,0.1,0.5,0.2,0.8,0.2c0.4,0,0.7-0.2,1-0.5s0.4-0.7,0.4-1.3c0-0.5-0.1-0.9-0.4-1.2c-0.3-0.3-0.6-0.4-1-0.4s-0.8,0.1-1.1,0.4
			C427.6,211.6,427.5,212,427.5,212.5z"/>
	</g>
	<g>
		<g class="st17">
			<path d="M396.1,128.6v-6.4h1.1l1.3,4.6l0.3,1c0.1-0.2,0.2-0.6,0.3-1l1.3-4.5h0.9v6.4h-0.7v-5.4l-1.5,5.4h-0.6l-1.5-5.5v5.5H396.1
				z"/>
			<path d="M401.9,126.3c0-0.8,0.2-1.4,0.5-1.8c0.3-0.4,0.8-0.6,1.3-0.6c0.5,0,0.9,0.2,1.3,0.6s0.5,1,0.5,1.8c0,0.8-0.2,1.5-0.5,1.9
				s-0.8,0.6-1.3,0.6c-0.5,0-0.9-0.2-1.3-0.6C402.1,127.7,401.9,127.1,401.9,126.3z M402.6,126.3c0,0.6,0.1,1.1,0.3,1.3
				s0.5,0.4,0.8,0.4c0.3,0,0.6-0.1,0.8-0.4c0.2-0.3,0.3-0.7,0.3-1.3c0-0.6-0.1-1-0.3-1.3s-0.5-0.4-0.8-0.4c-0.3,0-0.6,0.1-0.8,0.4
				S402.6,125.7,402.6,126.3z"/>
			<path d="M406.3,128.6v-4.7h0.6v0.7c0.1-0.3,0.3-0.4,0.5-0.6c0.2-0.1,0.4-0.2,0.7-0.2c0.2,0,0.4,0,0.6,0.1
				c0.2,0.1,0.3,0.2,0.4,0.3c0.1,0.1,0.2,0.3,0.2,0.5c0.1,0.2,0.1,0.5,0.1,1v2.9h-0.6v-2.8c0-0.3,0-0.6-0.1-0.8
				c-0.1-0.2-0.2-0.3-0.3-0.4c-0.1-0.1-0.3-0.1-0.4-0.1c-0.3,0-0.6,0.1-0.7,0.3c-0.2,0.2-0.3,0.6-0.3,1.2v2.6H406.3z"/>
		</g>
		<path class="st15" d="M403.2,159.6v-1.8H400V157l3.4-4.8h0.7v4.8h1v0.8h-1v1.8H403.2L403.2,159.6z M403.2,157v-3.4l-2.3,3.4H403.2
			L403.2,157z M401.2,178.1h-0.9v-5.8c-0.2,0.2-0.5,0.4-0.9,0.6c-0.4,0.2-0.7,0.4-1,0.5v-0.9c0.5-0.2,1-0.5,1.3-0.9
			c0.4-0.3,0.7-0.7,0.8-1h0.6v7.5H401.2z M406.3,178.1h-0.9v-5.8c-0.2,0.2-0.5,0.4-0.9,0.6c-0.4,0.2-0.7,0.4-1,0.5v-0.9
			c0.5-0.2,1-0.5,1.3-0.9c0.4-0.3,0.7-0.7,0.8-1h0.6v7.5H406.3z M400.9,196.5H400v-5.8c-0.2,0.2-0.5,0.4-0.9,0.6
			c-0.4,0.2-0.7,0.4-1,0.5v-0.9c0.5-0.2,1-0.5,1.3-0.9c0.4-0.3,0.6-0.7,0.8-1h0.6v7.5H400.9z M404.6,192.5c-0.4-0.1-0.7-0.3-0.8-0.6
			c-0.2-0.3-0.3-0.6-0.3-0.9c0-0.5,0.2-1,0.6-1.4s0.9-0.6,1.6-0.6s1.2,0.2,1.6,0.6c0.4,0.4,0.6,0.8,0.6,1.4c0,0.3-0.1,0.6-0.3,0.9
			c-0.2,0.3-0.5,0.5-0.8,0.6c0.5,0.1,0.8,0.4,1,0.7s0.4,0.7,0.4,1.2c0,0.6-0.2,1.2-0.7,1.6c-0.4,0.4-1,0.7-1.8,0.7
			c-0.7,0-1.3-0.2-1.8-0.7c-0.5-0.4-0.7-1-0.7-1.6c0-0.5,0.1-0.9,0.4-1.2C403.8,192.8,404.2,192.6,404.6,192.5L404.6,192.5z
			 M404.4,190.9c0,0.4,0.1,0.6,0.3,0.9c0.2,0.2,0.5,0.3,0.9,0.3s0.6-0.1,0.9-0.3c0.2-0.2,0.3-0.5,0.3-0.8s-0.1-0.6-0.3-0.9
			c-0.2-0.2-0.5-0.3-0.9-0.3c-0.3,0-0.6,0.1-0.9,0.3C404.6,190.3,404.4,190.6,404.4,190.9L404.4,190.9z M404.1,194.3
			c0,0.3,0.1,0.5,0.2,0.7c0.1,0.3,0.3,0.4,0.6,0.6c0.2,0.1,0.5,0.2,0.8,0.2c0.4,0,0.8-0.1,1.1-0.4c0.3-0.3,0.4-0.6,0.4-1.1
			c0-0.4-0.1-0.8-0.4-1.1s-0.7-0.4-1.1-0.4s-0.8,0.1-1.1,0.4C404.3,193.6,404.1,193.9,404.1,194.3L404.1,194.3z M402.2,214.1v0.9
			h-4.9c0-0.2,0-0.4,0.1-0.6c0.1-0.3,0.3-0.7,0.6-1c0.3-0.3,0.7-0.7,1.2-1.1c0.8-0.7,1.4-1.2,1.6-1.6c0.3-0.4,0.4-0.8,0.4-1.1
			c0-0.4-0.1-0.7-0.4-0.9s-0.6-0.4-1-0.4s-0.8,0.1-1.1,0.4c-0.3,0.3-0.4,0.6-0.4,1.1l-1-0.1c0.1-0.7,0.3-1.2,0.7-1.6
			c0.4-0.4,1-0.6,1.7-0.6s1.3,0.2,1.7,0.6c0.4,0.4,0.6,0.9,0.6,1.5c0,0.3-0.1,0.6-0.2,0.9c-0.1,0.3-0.3,0.6-0.6,0.9
			c-0.3,0.3-0.8,0.8-1.4,1.3c-0.5,0.5-0.9,0.8-1.1,0.9c-0.1,0.2-0.3,0.3-0.4,0.5L402.2,214.1L402.2,214.1z M403.2,213l1-0.1
			c0.1,0.5,0.2,0.8,0.5,1.1c0.3,0.2,0.6,0.4,0.9,0.4c0.4,0,0.8-0.2,1.1-0.5c0.3-0.3,0.5-0.8,0.5-1.3s-0.1-0.9-0.4-1.2
			s-0.7-0.5-1.2-0.5c-0.3,0-0.6,0.1-0.8,0.2c-0.2,0.1-0.4,0.3-0.6,0.5l-0.9-0.1l0.7-3.8h3.7v0.9h-3l-0.4,2c0.5-0.3,0.9-0.5,1.4-0.5
			c0.7,0,1.2,0.2,1.6,0.7c0.5,0.4,0.7,1,0.7,1.7s-0.2,1.3-0.6,1.7c-0.5,0.6-1.1,0.9-2,0.9c-0.7,0-1.2-0.2-1.7-0.6
			C403.5,214.1,403.3,213.6,403.2,213z"/>
	</g>
	<g>
		<g class="st17">
			<path d="M492,128.6v-6.4h3.6v0.8h-2.9v2h2.5v0.8h-2.5v2.9H492z"/>
			<path d="M496.4,128.6v-4.7h0.6v0.7c0.1-0.3,0.3-0.5,0.4-0.7c0.1-0.1,0.3-0.2,0.4-0.2c0.2,0,0.4,0.1,0.7,0.3l-0.2,0.7
				c-0.2-0.1-0.3-0.2-0.5-0.2c-0.1,0-0.3,0-0.4,0.1c-0.1,0.1-0.2,0.2-0.2,0.4c-0.1,0.3-0.1,0.6-0.1,1v2.4H496.4z"/>
			<path d="M498.9,123.1v-0.9h0.6v0.9H498.9z M498.9,128.6v-4.7h0.6v4.7H498.9z"/>
		</g>
		<path class="st15" d="M496.7,141.2h-0.9v-5.8c-0.2,0.2-0.5,0.4-0.9,0.6c-0.4,0.2-0.7,0.4-1,0.5v-0.9c0.5-0.3,1-0.5,1.3-0.9
			c0.4-0.3,0.7-0.7,0.8-1h0.6v7.5H496.7z M494.7,155.6c-0.4-0.2-0.7-0.3-0.8-0.6c-0.2-0.3-0.3-0.6-0.3-0.9c0-0.5,0.2-1,0.6-1.4
			c0.4-0.4,0.9-0.6,1.6-0.6c0.7,0,1.2,0.2,1.6,0.6c0.4,0.4,0.6,0.8,0.6,1.4c0,0.3-0.1,0.6-0.3,0.9c-0.2,0.3-0.5,0.4-0.8,0.6
			c0.5,0.1,0.8,0.4,1,0.7s0.4,0.7,0.4,1.2c0,0.7-0.2,1.2-0.7,1.6c-0.4,0.4-1,0.7-1.8,0.7c-0.7,0-1.3-0.2-1.8-0.7
			c-0.5-0.4-0.7-1-0.7-1.6c0-0.5,0.1-0.9,0.4-1.2C493.9,155.9,494.2,155.7,494.7,155.6L494.7,155.6z M494.5,154
			c0,0.4,0.1,0.6,0.3,0.9c0.2,0.2,0.5,0.3,0.9,0.3c0.3,0,0.6-0.1,0.9-0.3c0.2-0.2,0.3-0.5,0.3-0.8s-0.1-0.6-0.3-0.9
			c-0.2-0.2-0.5-0.3-0.9-0.3s-0.6,0.1-0.9,0.3C494.6,153.4,494.5,153.7,494.5,154L494.5,154z M494.2,157.5c0,0.3,0.1,0.5,0.2,0.8
			c0.1,0.2,0.3,0.4,0.5,0.6c0.3,0.1,0.5,0.2,0.8,0.2c0.4,0,0.8-0.1,1.1-0.4c0.3-0.3,0.4-0.6,0.4-1.1c0-0.4-0.1-0.8-0.4-1.1
			c-0.3-0.3-0.7-0.4-1.1-0.4c-0.4,0-0.8,0.1-1.1,0.4C494.4,156.7,494.2,157,494.2,157.5L494.2,157.5z M493.8,178.1h-0.9v-5.8
			c-0.2,0.2-0.5,0.4-0.9,0.6c-0.4,0.2-0.7,0.4-1,0.5v-0.9c0.5-0.2,1-0.5,1.3-0.9c0.4-0.3,0.7-0.7,0.8-1h0.6v7.5H493.8z M496.2,176.1
			l1-0.1c0.1,0.5,0.2,0.8,0.5,1.1c0.3,0.2,0.6,0.4,0.9,0.4c0.4,0,0.8-0.2,1.1-0.5s0.5-0.8,0.5-1.3s-0.1-0.9-0.4-1.2
			c-0.3-0.3-0.7-0.5-1.2-0.5c-0.3,0-0.6,0.1-0.8,0.2c-0.2,0.1-0.4,0.3-0.6,0.5l-0.9-0.1l0.7-3.8h3.7v0.9h-3l-0.4,2
			c0.4-0.3,0.9-0.5,1.4-0.5c0.7,0,1.2,0.2,1.6,0.7c0.5,0.4,0.7,1,0.7,1.7s-0.2,1.3-0.6,1.7c-0.5,0.6-1.1,0.9-2,0.9
			c-0.7,0-1.2-0.2-1.7-0.6C496.5,177.2,496.3,176.7,496.2,176.1L496.2,176.1z M495.2,195.6v0.9h-4.9c0-0.2,0-0.4,0.1-0.6
			c0.1-0.3,0.3-0.7,0.6-1s0.7-0.7,1.2-1.1c0.8-0.7,1.4-1.2,1.6-1.6c0.3-0.4,0.4-0.8,0.4-1.1c0-0.4-0.1-0.7-0.4-0.9
			c-0.3-0.2-0.6-0.4-1-0.4s-0.8,0.1-1,0.4c-0.3,0.3-0.4,0.6-0.4,1.1l-0.9-0.1c0.1-0.7,0.3-1.2,0.7-1.6c0.4-0.4,1-0.6,1.7-0.6
			s1.3,0.2,1.7,0.6c0.4,0.4,0.6,0.9,0.6,1.5c0,0.3-0.1,0.6-0.2,0.9c-0.1,0.3-0.3,0.6-0.6,0.9c-0.3,0.3-0.8,0.8-1.4,1.3
			c-0.5,0.5-0.9,0.8-1.1,0.9c-0.2,0.2-0.3,0.3-0.4,0.5L495.2,195.6L495.2,195.6z M501,195.6v0.9h-4.9c0-0.2,0-0.4,0.1-0.6
			c0.1-0.3,0.3-0.7,0.6-1s0.7-0.7,1.2-1.1c0.8-0.7,1.4-1.2,1.6-1.6c0.3-0.4,0.4-0.8,0.4-1.1c0-0.4-0.1-0.7-0.4-0.9
			c-0.3-0.2-0.6-0.4-1-0.4s-0.8,0.1-1.1,0.4c-0.3,0.3-0.4,0.6-0.4,1.1l-0.9-0.1c0.1-0.7,0.3-1.2,0.7-1.6c0.4-0.4,1-0.6,1.7-0.6
			s1.3,0.2,1.7,0.6c0.4,0.4,0.6,0.9,0.6,1.5c0,0.3-0.1,0.6-0.2,0.9c-0.1,0.3-0.3,0.6-0.6,0.9c-0.3,0.3-0.8,0.8-1.4,1.3
			c-0.5,0.5-0.9,0.8-1.1,0.9c-0.2,0.2-0.3,0.3-0.4,0.5L501,195.6L501,195.6z M495.2,214.1v0.9h-4.9c0-0.2,0-0.4,0.1-0.6
			c0.1-0.3,0.3-0.7,0.6-1s0.7-0.7,1.2-1.1c0.8-0.7,1.4-1.2,1.6-1.6c0.3-0.4,0.4-0.8,0.4-1.1c0-0.4-0.1-0.7-0.4-0.9
			c-0.3-0.2-0.6-0.4-1-0.4s-0.8,0.1-1,0.4c-0.3,0.3-0.4,0.6-0.4,1.1l-0.9-0.1c0.1-0.7,0.3-1.2,0.7-1.6c0.4-0.4,1-0.6,1.7-0.6
			s1.3,0.2,1.7,0.6c0.4,0.4,0.6,0.9,0.6,1.5c0,0.3-0.1,0.6-0.2,0.9c-0.1,0.3-0.3,0.6-0.6,0.9c-0.3,0.3-0.8,0.8-1.4,1.3
			c-0.5,0.5-0.9,0.8-1.1,0.9c-0.2,0.2-0.3,0.3-0.4,0.5L495.2,214.1L495.2,214.1z M496.3,213.2l0.9-0.1c0.1,0.4,0.2,0.7,0.4,0.9
			s0.5,0.3,0.8,0.3s0.5-0.1,0.7-0.2c0.2-0.1,0.4-0.3,0.5-0.5s0.3-0.5,0.3-0.9c0.1-0.4,0.1-0.7,0.1-1.1c0,0,0-0.1,0-0.2
			c-0.2,0.3-0.4,0.5-0.8,0.7c-0.3,0.2-0.7,0.3-1,0.3c-0.6,0-1.1-0.2-1.6-0.7c-0.4-0.4-0.6-1-0.6-1.8c0-0.7,0.2-1.4,0.7-1.8
			c0.4-0.5,1-0.7,1.7-0.7c0.5,0,0.9,0.1,1.3,0.4c0.4,0.3,0.7,0.6,0.9,1.1s0.3,1.2,0.3,2.1c0,1-0.1,1.7-0.3,2.3s-0.5,1-0.9,1.3
			s-0.9,0.4-1.4,0.4c-0.6,0-1.1-0.2-1.4-0.5C496.6,214.3,496.4,213.8,496.3,213.2L496.3,213.2z M500.1,209.9c0-0.5-0.1-1-0.4-1.2
			c-0.3-0.3-0.6-0.5-1-0.5s-0.8,0.2-1.1,0.5s-0.4,0.8-0.4,1.3s0.1,0.9,0.4,1.2c0.3,0.3,0.6,0.4,1.1,0.4c0.4,0,0.8-0.1,1-0.4
			C500,210.9,500.1,210.4,500.1,209.9z"/>
	</g>
	<g>
		<g class="st17">
			<path d="M513.7,126.5l0.7-0.1c0,0.4,0.1,0.6,0.2,0.8c0.1,0.2,0.3,0.4,0.5,0.5c0.2,0.1,0.5,0.2,0.8,0.2c0.4,0,0.7-0.1,1-0.3
				c0.2-0.2,0.3-0.5,0.3-0.8c0-0.2,0-0.4-0.1-0.5c-0.1-0.1-0.2-0.3-0.4-0.3c-0.2-0.1-0.5-0.2-1.1-0.4c-0.5-0.1-0.9-0.3-1.1-0.4
				c-0.2-0.2-0.4-0.3-0.5-0.6c-0.1-0.2-0.2-0.5-0.2-0.8c0-0.5,0.2-0.9,0.5-1.3c0.3-0.3,0.8-0.5,1.4-0.5c0.4,0,0.7,0.1,1,0.2
				c0.3,0.2,0.5,0.4,0.7,0.7c0.2,0.3,0.3,0.6,0.3,1l-0.7,0.1c0-0.4-0.2-0.7-0.4-0.9c-0.2-0.2-0.5-0.3-0.9-0.3
				c-0.4,0-0.7,0.1-0.9,0.3c-0.2,0.2-0.3,0.4-0.3,0.7c0,0.3,0.1,0.5,0.2,0.6s0.5,0.3,1,0.4c0.5,0.1,0.9,0.3,1.1,0.4
				c0.3,0.2,0.6,0.4,0.7,0.6c0.2,0.3,0.2,0.6,0.2,1c0,0.4-0.1,0.7-0.3,1s-0.4,0.5-0.7,0.7c-0.3,0.2-0.7,0.2-1.1,0.2
				c-0.7,0-1.2-0.2-1.6-0.6C514,127.7,513.8,127.2,513.7,126.5z"/>
			<path d="M521.3,128c-0.2,0.2-0.4,0.4-0.7,0.5c-0.2,0.1-0.5,0.2-0.7,0.2c-0.4,0-0.7-0.1-1-0.4s-0.4-0.6-0.4-1
				c0-0.3,0.1-0.5,0.2-0.7s0.3-0.4,0.5-0.5s0.5-0.2,0.9-0.3c0.5-0.1,0.9-0.2,1.2-0.3l0-0.2c0-0.3-0.1-0.5-0.2-0.7
				c-0.2-0.2-0.4-0.3-0.7-0.3c-0.3,0-0.5,0.1-0.7,0.2s-0.3,0.4-0.3,0.7l-0.6-0.1c0.1-0.5,0.3-0.9,0.6-1.1c0.3-0.2,0.7-0.3,1.2-0.3
				c0.4,0,0.7,0.1,0.9,0.2c0.2,0.2,0.4,0.3,0.4,0.6c0.1,0.2,0.1,0.5,0.1,1v1.1c0,0.7,0,1.2,0,1.4c0,0.2,0.1,0.4,0.2,0.6h-0.7
				C521.4,128.4,521.3,128.2,521.3,128z M521.3,126.2c-0.2,0.1-0.6,0.2-1.1,0.3c-0.3,0-0.5,0.1-0.6,0.2c-0.1,0.1-0.2,0.1-0.3,0.3
				c-0.1,0.1-0.1,0.2-0.1,0.4c0,0.2,0.1,0.4,0.2,0.5c0.1,0.1,0.3,0.2,0.6,0.2c0.2,0,0.4-0.1,0.6-0.2c0.2-0.1,0.3-0.3,0.4-0.5
				c0.1-0.2,0.1-0.5,0.1-0.9V126.2z"/>
			<path d="M524.4,127.9l0.1,0.7c-0.2,0-0.3,0.1-0.5,0.1c-0.2,0-0.4,0-0.5-0.1c-0.1-0.1-0.2-0.2-0.3-0.4c-0.1-0.2-0.1-0.5-0.1-0.9
				v-2.7h-0.5v-0.6h0.5v-1.2l0.6-0.5v1.6h0.7v0.6h-0.7v2.7c0,0.3,0,0.4,0.1,0.5c0.1,0.1,0.2,0.2,0.3,0.2
				C524.1,127.9,524.2,127.9,524.4,127.9z"/>
		</g>
		<path class="st15" d="M521.4,140.3v0.9h-4.9c0-0.2,0-0.4,0.1-0.6c0.1-0.3,0.3-0.7,0.6-1s0.7-0.7,1.2-1.1c0.8-0.7,1.4-1.2,1.6-1.6
			c0.3-0.4,0.4-0.8,0.4-1.1c0-0.4-0.1-0.7-0.4-0.9c-0.3-0.3-0.6-0.4-1-0.4s-0.8,0.1-1.1,0.4c-0.3,0.3-0.4,0.6-0.4,1.1l-0.9-0.1
			c0.1-0.7,0.3-1.2,0.7-1.6c0.4-0.4,1-0.5,1.7-0.5s1.3,0.2,1.7,0.6c0.4,0.4,0.6,0.9,0.6,1.5c0,0.3-0.1,0.6-0.2,0.9
			c-0.1,0.3-0.3,0.6-0.6,0.9c-0.3,0.3-0.8,0.8-1.4,1.3c-0.5,0.5-0.9,0.8-1.1,0.9c-0.2,0.2-0.3,0.3-0.4,0.5L521.4,140.3L521.4,140.3z
			 M516.7,157.9l0.9-0.1c0.1,0.4,0.2,0.7,0.4,0.9s0.5,0.3,0.8,0.3s0.5-0.1,0.7-0.2c0.2-0.1,0.4-0.3,0.5-0.5s0.3-0.5,0.3-0.9
			c0.1-0.4,0.1-0.7,0.1-1.1c0,0,0-0.1,0-0.2c-0.2,0.3-0.4,0.5-0.7,0.7s-0.7,0.3-1,0.3c-0.6,0-1.1-0.2-1.6-0.7
			c-0.4-0.4-0.6-1-0.6-1.8s0.2-1.4,0.7-1.8c0.4-0.5,1-0.7,1.7-0.7c0.5,0,0.9,0.1,1.3,0.4c0.4,0.3,0.7,0.6,0.9,1.1s0.3,1.2,0.3,2.1
			c0,1-0.1,1.7-0.3,2.3s-0.5,1-0.9,1.3s-0.9,0.4-1.4,0.4c-0.6,0-1.1-0.2-1.4-0.5C517,158.9,516.8,158.5,516.7,157.9L516.7,157.9z
			 M520.5,154.6c0-0.5-0.1-0.9-0.4-1.3c-0.3-0.3-0.6-0.5-1-0.5s-0.8,0.2-1.1,0.5s-0.5,0.8-0.5,1.3s0.1,0.9,0.4,1.2
			c0.3,0.3,0.6,0.4,1.1,0.4c0.4,0,0.8-0.1,1-0.4C520.3,155.5,520.5,155.1,520.5,154.6L520.5,154.6z M517.1,178.1h-0.9v-5.8
			c-0.2,0.2-0.5,0.4-0.9,0.6c-0.4,0.2-0.7,0.4-1,0.5v-0.9c0.5-0.2,1-0.5,1.3-0.9c0.4-0.3,0.7-0.7,0.8-1h0.6v7.5H517.1z M524.2,172.4
			l-0.9,0.1c-0.1-0.4-0.2-0.6-0.3-0.8c-0.2-0.3-0.6-0.4-0.9-0.4c-0.3,0-0.5,0.1-0.8,0.2c-0.3,0.2-0.5,0.5-0.7,0.9s-0.2,1-0.3,1.7
			c0.2-0.3,0.5-0.6,0.8-0.8c0.3-0.1,0.7-0.2,1-0.2c0.6,0,1.1,0.2,1.6,0.7c0.4,0.4,0.6,1,0.6,1.7c0,0.5-0.1,0.9-0.3,1.3
			c-0.2,0.4-0.5,0.7-0.8,0.9c-0.4,0.2-0.8,0.3-1.2,0.3c-0.8,0-1.4-0.3-1.9-0.8c-0.5-0.6-0.7-1.5-0.7-2.8c0-1.4,0.3-2.5,0.8-3.1
			s1.1-0.9,1.9-0.9c0.6,0,1.1,0.2,1.4,0.5C523.9,171.4,524.1,171.8,524.2,172.4L524.2,172.4z M520.5,175.6c0,0.3,0.1,0.6,0.2,0.9
			c0.1,0.3,0.3,0.5,0.6,0.7c0.2,0.1,0.5,0.2,0.8,0.2c0.4,0,0.7-0.2,1-0.5s0.4-0.7,0.4-1.3c0-0.5-0.1-0.9-0.4-1.2
			c-0.3-0.3-0.6-0.4-1-0.4s-0.8,0.1-1,0.4C520.6,174.8,520.5,175.2,520.5,175.6L520.5,175.6z M518.5,195.6v0.9h-4.9
			c0-0.2,0-0.4,0.1-0.6c0.1-0.3,0.3-0.7,0.6-1s0.7-0.7,1.2-1.1c0.8-0.7,1.4-1.2,1.6-1.6c0.3-0.4,0.4-0.8,0.4-1.1
			c0-0.4-0.1-0.7-0.4-0.9c-0.3-0.2-0.6-0.4-1-0.4s-0.8,0.1-1.1,0.4c-0.3,0.3-0.4,0.6-0.4,1.1l-0.9-0.1c0.1-0.7,0.3-1.2,0.7-1.6
			c0.4-0.4,1-0.6,1.7-0.6s1.3,0.2,1.7,0.6c0.4,0.4,0.6,0.9,0.6,1.5c0,0.3-0.1,0.6-0.2,0.9c-0.1,0.3-0.3,0.6-0.6,0.9
			c-0.3,0.3-0.8,0.8-1.4,1.3c-0.6,0.5-0.9,0.8-1.1,0.9c-0.2,0.2-0.3,0.3-0.4,0.5L518.5,195.6L518.5,195.6z M519.5,194.5l0.9-0.1
			c0.1,0.5,0.3,0.9,0.5,1.1c0.3,0.2,0.6,0.3,0.9,0.3c0.4,0,0.8-0.1,1.1-0.4c0.3-0.3,0.4-0.7,0.4-1.1c0-0.4-0.1-0.8-0.4-1
			c-0.3-0.3-0.6-0.4-1.1-0.4c-0.2,0-0.4,0-0.6,0.1l0.1-0.8c0.1,0,0.1,0,0.1,0c0.4,0,0.7-0.1,1.1-0.3c0.3-0.2,0.5-0.5,0.5-0.9
			c0-0.3-0.1-0.6-0.3-0.8s-0.5-0.3-0.9-0.3s-0.7,0.1-0.9,0.3s-0.4,0.6-0.5,1l-0.9-0.2c0.1-0.6,0.4-1.1,0.8-1.4
			c0.4-0.3,0.9-0.5,1.5-0.5c0.4,0,0.8,0.1,1.1,0.3s0.6,0.4,0.8,0.7s0.3,0.6,0.3,1c0,0.3-0.1,0.6-0.3,0.9c-0.2,0.3-0.4,0.5-0.8,0.6
			c0.4,0.1,0.8,0.3,1,0.6s0.4,0.7,0.4,1.2c0,0.7-0.2,1.2-0.7,1.7c-0.5,0.4-1.1,0.7-1.8,0.7s-1.2-0.2-1.6-0.6
			C519.8,195.7,519.5,195.1,519.5,194.5L519.5,194.5z M513.7,213l0.9-0.1c0.1,0.5,0.3,0.9,0.5,1.1c0.3,0.2,0.6,0.3,0.9,0.3
			c0.4,0,0.8-0.1,1.1-0.5c0.3-0.3,0.4-0.7,0.4-1.1c0-0.4-0.1-0.8-0.4-1c-0.3-0.3-0.6-0.4-1.1-0.4c-0.2,0-0.4,0-0.6,0.1l0.1-0.8
			c0.1,0,0.1,0,0.2,0c0.4,0,0.7-0.1,1-0.3s0.5-0.5,0.5-1c0-0.3-0.1-0.6-0.3-0.8s-0.5-0.3-0.9-0.3s-0.6,0.1-0.9,0.3
			c-0.2,0.2-0.4,0.6-0.5,1l-0.9-0.2c0.1-0.6,0.4-1.1,0.8-1.4c0.4-0.3,0.9-0.5,1.5-0.5c0.4,0,0.8,0.1,1.1,0.3s0.6,0.4,0.8,0.7
			s0.3,0.6,0.3,1c0,0.3-0.1,0.6-0.3,0.9c-0.2,0.3-0.4,0.5-0.8,0.6c0.4,0.1,0.8,0.3,1,0.6s0.4,0.7,0.4,1.2c0,0.6-0.2,1.2-0.7,1.6
			c-0.5,0.5-1.1,0.7-1.8,0.7s-1.2-0.2-1.6-0.6C514,214.1,513.7,213.6,513.7,213L513.7,213z M519.5,211.3c0-0.9,0.1-1.6,0.3-2.1
			s0.5-1,0.8-1.2c0.4-0.3,0.8-0.4,1.4-0.4c0.4,0,0.8,0.1,1.1,0.2c0.3,0.2,0.5,0.4,0.7,0.7s0.4,0.7,0.5,1.1c0.1,0.4,0.2,1,0.2,1.8
			c0,0.9-0.1,1.6-0.3,2.1s-0.4,1-0.8,1.3c-0.4,0.3-0.8,0.4-1.4,0.4c-0.7,0-1.3-0.3-1.7-0.8C519.7,213.7,519.5,212.7,519.5,211.3
			L519.5,211.3z M520.4,211.3c0,1.2,0.1,2,0.4,2.4c0.3,0.4,0.6,0.6,1.1,0.6c0.4,0,0.8-0.2,1.1-0.6c0.3-0.4,0.4-1.2,0.4-2.4
			s-0.1-2-0.4-2.4c-0.3-0.4-0.6-0.6-1.1-0.6c-0.4,0-0.8,0.2-1,0.5C520.6,209.2,520.4,210,520.4,211.3z"/>
	</g>
	<g>
		<g class="st17">
			<path d="M536,126.7l0.7-0.1c0,0.4,0.1,0.6,0.2,0.8c0.1,0.2,0.3,0.4,0.5,0.5c0.2,0.1,0.5,0.2,0.8,0.2c0.4,0,0.7-0.1,1-0.3
				c0.2-0.2,0.3-0.5,0.3-0.8c0-0.2,0-0.4-0.1-0.5s-0.2-0.3-0.4-0.3c-0.2-0.1-0.5-0.2-1.1-0.4c-0.5-0.1-0.9-0.3-1.1-0.4
				c-0.2-0.2-0.4-0.3-0.5-0.6c-0.1-0.2-0.2-0.5-0.2-0.8c0-0.5,0.2-0.9,0.5-1.3c0.3-0.3,0.8-0.5,1.4-0.5c0.4,0,0.7,0.1,1,0.2
				c0.3,0.2,0.5,0.4,0.7,0.7c0.2,0.3,0.2,0.6,0.3,1l-0.7,0.1c0-0.4-0.2-0.7-0.4-0.9s-0.5-0.3-0.9-0.3c-0.4,0-0.7,0.1-0.9,0.3
				c-0.2,0.2-0.3,0.4-0.3,0.7c0,0.3,0.1,0.5,0.2,0.6s0.5,0.3,1,0.4c0.5,0.1,0.9,0.3,1.1,0.4c0.3,0.2,0.6,0.4,0.7,0.6
				c0.2,0.3,0.2,0.6,0.2,1c0,0.4-0.1,0.7-0.3,1c-0.2,0.3-0.4,0.5-0.7,0.7c-0.3,0.2-0.7,0.2-1.1,0.2c-0.7,0-1.2-0.2-1.6-0.6
				C536.2,127.9,536,127.3,536,126.7z"/>
			<path d="M543.5,128.7V128c-0.1,0.3-0.3,0.5-0.5,0.6c-0.2,0.1-0.4,0.2-0.7,0.2c-0.3,0-0.6-0.1-0.8-0.2c-0.2-0.2-0.4-0.4-0.4-0.6
				c-0.1-0.2-0.1-0.6-0.1-1v-2.9h0.6v2.6c0,0.5,0,0.8,0.1,1c0,0.2,0.1,0.3,0.3,0.4c0.1,0.1,0.3,0.1,0.4,0.1c0.3,0,0.6-0.1,0.8-0.4
				c0.2-0.2,0.3-0.6,0.3-1.2v-2.5h0.7v4.7H543.5z"/>
			<path d="M545.1,128.7v-4.7h0.6v0.7c0.1-0.3,0.3-0.4,0.5-0.6c0.2-0.1,0.4-0.2,0.7-0.2c0.2,0,0.4,0,0.6,0.1
				c0.2,0.1,0.3,0.2,0.4,0.3c0.1,0.1,0.2,0.3,0.2,0.5c0.1,0.2,0.1,0.5,0.1,1v2.9h-0.6v-2.8c0-0.3,0-0.6-0.1-0.8
				c-0.1-0.2-0.2-0.3-0.3-0.4c-0.1-0.1-0.3-0.1-0.4-0.1c-0.3,0-0.6,0.1-0.7,0.3c-0.2,0.2-0.3,0.6-0.3,1.2v2.6H545.1z"/>
		</g>
		<path class="st15" d="M539.8,139.3l0.9-0.1c0.1,0.5,0.3,0.9,0.5,1.1c0.3,0.2,0.6,0.3,0.9,0.3c0.4,0,0.8-0.1,1.1-0.4
			c0.3-0.3,0.4-0.7,0.4-1.1c0-0.4-0.1-0.8-0.4-1c-0.3-0.3-0.6-0.4-1-0.4c-0.2,0-0.4,0-0.6,0.1l0.1-0.8c0.1,0,0.1,0,0.1,0
			c0.4,0,0.7-0.1,1.1-0.3c0.3-0.2,0.5-0.5,0.5-0.9c0-0.3-0.1-0.6-0.3-0.8s-0.5-0.3-0.9-0.3s-0.7,0.1-0.9,0.3s-0.4,0.6-0.5,1
			l-0.9-0.2c0.1-0.6,0.4-1.1,0.8-1.4c0.4-0.3,0.9-0.5,1.5-0.5c0.4,0,0.8,0.1,1.1,0.3s0.6,0.4,0.8,0.7s0.3,0.6,0.3,1
			c0,0.3-0.1,0.6-0.3,0.9c-0.2,0.3-0.4,0.5-0.8,0.6c0.4,0.1,0.8,0.3,1,0.6s0.4,0.7,0.4,1.2c0,0.6-0.2,1.2-0.7,1.7
			c-0.5,0.4-1.1,0.7-1.8,0.7c-0.6,0-1.2-0.2-1.6-0.6C540.1,140.5,539.9,140,539.8,139.3L539.8,139.3z M540.4,159.8h-0.9V154
			c-0.2,0.2-0.5,0.4-0.9,0.6c-0.4,0.2-0.7,0.4-1,0.5v-0.9c0.5-0.2,1-0.5,1.3-0.9c0.4-0.3,0.7-0.7,0.8-1h0.6v7.5H540.4z M542.7,156.1
			c0-0.9,0.1-1.6,0.3-2.1s0.4-1,0.8-1.2c0.4-0.3,0.8-0.4,1.3-0.4c0.4,0,0.8,0.1,1.1,0.2c0.3,0.2,0.5,0.4,0.7,0.7s0.4,0.7,0.5,1.1
			c0.1,0.4,0.2,1,0.2,1.8c0,0.9-0.1,1.6-0.3,2.1s-0.5,1-0.8,1.2c-0.4,0.3-0.8,0.4-1.4,0.4c-0.7,0-1.3-0.3-1.7-0.8
			C543,158.5,542.7,157.5,542.7,156.1L542.7,156.1z M543.7,156.1c0,1.2,0.1,2,0.4,2.4c0.3,0.4,0.6,0.6,1.1,0.6
			c0.4,0,0.8-0.2,1.1-0.6c0.3-0.4,0.4-1.2,0.4-2.4s-0.1-2-0.4-2.4c-0.3-0.4-0.6-0.6-1.1-0.6c-0.4,0-0.8,0.2-1,0.5
			C543.8,154,543.7,154.9,543.7,156.1L543.7,156.1z M540.4,178.2h-0.9v-5.8c-0.2,0.2-0.5,0.4-0.9,0.6c-0.4,0.2-0.7,0.4-1,0.5v-0.9
			c0.5-0.2,1-0.5,1.3-0.9c0.4-0.3,0.7-0.7,0.8-1h0.6v7.5H540.4z M542.8,171.7v-0.9h4.8v0.7c-0.5,0.5-0.9,1.2-1.4,2s-0.8,1.7-1.1,2.6
			c-0.2,0.6-0.3,1.3-0.4,2h-0.9c0-0.6,0.1-1.3,0.3-2.1s0.5-1.6,0.9-2.4c0.4-0.8,0.9-1.4,1.3-1.9L542.8,171.7L542.8,171.7z
			 M541.7,195.8v0.9h-4.9c0-0.2,0-0.4,0.1-0.6c0.1-0.3,0.3-0.7,0.6-1s0.7-0.7,1.2-1.1c0.8-0.7,1.4-1.2,1.6-1.6
			c0.3-0.4,0.4-0.8,0.4-1.1c0-0.4-0.1-0.7-0.4-0.9c-0.3-0.2-0.6-0.4-1-0.4s-0.8,0.1-1.1,0.4c-0.3,0.3-0.4,0.6-0.4,1.1l-0.9-0.1
			c0.1-0.7,0.3-1.2,0.7-1.6c0.4-0.4,1-0.6,1.7-0.6s1.3,0.2,1.7,0.6c0.4,0.4,0.6,0.9,0.6,1.5c0,0.3-0.1,0.6-0.2,0.9
			c-0.1,0.3-0.3,0.6-0.6,0.9c-0.3,0.3-0.8,0.8-1.4,1.3c-0.5,0.5-0.9,0.8-1,0.9c-0.2,0.2-0.3,0.3-0.4,0.5L541.7,195.8L541.7,195.8z
			 M545.7,196.6v-1.8h-3.2V194l3.4-4.8h0.7v4.8h1v0.8h-1v1.8H545.7L545.7,196.6z M545.7,194v-3.4l-2.3,3.4H545.7z"/>
	</g>
	<g>
		<g class="st17">
			<path d="M466.8,128.6v-5.7H465v-0.8h4.2v0.8h-1.7v5.7H466.8z"/>
			<path d="M469.8,128.6v-6.4h0.6v2.3c0.2-0.2,0.3-0.4,0.5-0.5c0.2-0.1,0.4-0.2,0.6-0.2c0.4,0,0.7,0.1,1,0.4
				c0.2,0.3,0.4,0.7,0.4,1.4v3h-0.6v-3c0-0.4-0.1-0.7-0.2-0.9s-0.3-0.3-0.6-0.3c-0.3,0-0.5,0.1-0.7,0.3c-0.2,0.2-0.3,0.6-0.3,1.2
				v2.6H469.8z"/>
			<path d="M476.4,128.6v-0.7c-0.1,0.3-0.3,0.5-0.5,0.6c-0.2,0.1-0.4,0.2-0.7,0.2c-0.3,0-0.6-0.1-0.8-0.2c-0.2-0.2-0.4-0.4-0.4-0.6
				c-0.1-0.2-0.1-0.6-0.1-1v-2.9h0.6v2.6c0,0.5,0,0.8,0.1,1c0,0.2,0.1,0.3,0.3,0.4c0.1,0.1,0.3,0.1,0.4,0.1c0.3,0,0.6-0.1,0.8-0.4
				c0.2-0.2,0.3-0.6,0.3-1.2v-2.5h0.7v4.7H476.4z"/>
			<path d="M478,128.6v-4.7h0.6v0.7c0.1-0.3,0.3-0.5,0.4-0.7c0.1-0.1,0.3-0.2,0.4-0.2c0.2,0,0.4,0.1,0.7,0.3l-0.2,0.7
				c-0.2-0.1-0.3-0.2-0.5-0.2c-0.1,0-0.3,0-0.4,0.1c-0.1,0.1-0.2,0.2-0.2,0.4c-0.1,0.3-0.1,0.6-0.1,1v2.4H478z"/>
		</g>
		<path class="st15" d="M470.1,153.1v-0.9h4.8v0.7c-0.5,0.5-0.9,1.2-1.4,2s-0.8,1.7-1.1,2.6c-0.2,0.6-0.3,1.3-0.3,2.1h-0.9
			c0-0.6,0.1-1.3,0.3-2.1s0.5-1.6,0.9-2.4c0.4-0.8,0.9-1.4,1.3-1.9h-3.6V153.1z M470.6,178.1h-0.9v-5.8c-0.2,0.2-0.5,0.4-0.9,0.6
			c-0.4,0.2-0.7,0.4-1,0.5v-0.9c0.5-0.2,1-0.5,1.3-0.9c0.4-0.3,0.7-0.7,0.8-1h0.6v7.5H470.6z M475.9,178.1v-1.8h-3.2v-0.8l3.4-4.8
			h0.8v4.8h1v0.8h-1v1.8H475.9L475.9,178.1z M475.9,175.4V172l-2.3,3.4H475.9L475.9,175.4z M472,195.6v0.9h-4.9c0-0.2,0-0.4,0.1-0.6
			c0.1-0.3,0.3-0.7,0.6-1s0.7-0.7,1.2-1.1c0.8-0.7,1.4-1.2,1.6-1.6c0.3-0.4,0.4-0.8,0.4-1.1c0-0.4-0.1-0.7-0.4-0.9
			c-0.3-0.2-0.6-0.4-1-0.4s-0.8,0.1-1.1,0.4c-0.3,0.3-0.4,0.6-0.4,1.1l-0.9-0.1c0.1-0.7,0.3-1.2,0.7-1.6c0.4-0.4,1-0.6,1.7-0.6
			s1.3,0.2,1.7,0.6c0.4,0.4,0.6,0.9,0.6,1.5c0,0.3-0.1,0.6-0.2,0.9c-0.1,0.3-0.3,0.6-0.6,0.9c-0.3,0.3-0.8,0.8-1.4,1.3
			c-0.5,0.5-0.9,0.8-1.1,0.9c-0.2,0.2-0.3,0.3-0.4,0.5L472,195.6L472,195.6z M476.4,196.5h-0.9v-5.8c-0.2,0.2-0.5,0.4-0.9,0.6
			c-0.4,0.2-0.7,0.4-1,0.5v-0.9c0.5-0.2,1-0.5,1.3-0.9c0.4-0.3,0.7-0.7,0.8-1h0.6v7.5H476.4z M472,214.1v0.9h-4.9
			c0-0.2,0-0.4,0.1-0.6c0.1-0.3,0.3-0.7,0.6-1s0.7-0.7,1.2-1.1c0.8-0.7,1.4-1.2,1.6-1.6c0.3-0.4,0.4-0.8,0.4-1.1
			c0-0.4-0.1-0.7-0.4-0.9c-0.3-0.2-0.6-0.4-1-0.4s-0.8,0.1-1.1,0.4c-0.3,0.3-0.4,0.6-0.4,1.1l-0.9-0.1c0.1-0.7,0.3-1.2,0.7-1.6
			c0.4-0.4,1-0.6,1.7-0.6s1.3,0.2,1.7,0.6c0.4,0.4,0.6,0.9,0.6,1.5c0,0.3-0.1,0.6-0.2,0.9c-0.1,0.3-0.3,0.6-0.6,0.9
			c-0.3,0.3-0.8,0.8-1.4,1.3c-0.5,0.5-0.9,0.8-1.1,0.9c-0.2,0.2-0.3,0.3-0.4,0.5L472,214.1L472,214.1z M474.4,210.9
			c-0.4-0.1-0.7-0.3-0.8-0.6c-0.2-0.3-0.3-0.6-0.3-0.9c0-0.5,0.2-1,0.6-1.4c0.4-0.4,0.9-0.6,1.6-0.6c0.7,0,1.2,0.2,1.6,0.6
			c0.4,0.4,0.6,0.8,0.6,1.4c0,0.4-0.1,0.6-0.3,0.9c-0.2,0.3-0.5,0.5-0.8,0.6c0.5,0.1,0.8,0.4,1,0.7s0.4,0.7,0.4,1.2
			c0,0.6-0.2,1.2-0.7,1.6c-0.5,0.4-1,0.6-1.8,0.6c-0.7,0-1.3-0.2-1.8-0.7c-0.5-0.4-0.7-1-0.7-1.6c0-0.5,0.1-0.9,0.4-1.2
			C473.6,211.2,473.9,211,474.4,210.9L474.4,210.9z M474.2,209.3c0,0.3,0.1,0.6,0.3,0.9c0.2,0.2,0.5,0.3,0.9,0.3s0.6-0.1,0.9-0.3
			c0.2-0.2,0.3-0.5,0.3-0.8s-0.1-0.6-0.4-0.8c-0.2-0.2-0.5-0.3-0.9-0.3s-0.6,0.1-0.9,0.3C474.3,208.8,474.2,209,474.2,209.3
			L474.2,209.3z M473.9,212.8c0,0.3,0.1,0.5,0.2,0.8c0.1,0.2,0.3,0.4,0.6,0.6c0.2,0.1,0.5,0.2,0.8,0.2c0.4,0,0.8-0.1,1.1-0.4
			c0.3-0.3,0.4-0.6,0.4-1.1c0-0.4-0.1-0.8-0.4-1.1c-0.3-0.3-0.7-0.4-1.1-0.4c-0.4,0-0.8,0.1-1.1,0.4
			C474,212,473.9,212.4,473.9,212.8z"/>
	</g>
</g>
<rect x="222.3" y="444" class="st0" width="114.7" height="26"/>
<rect x="360.5" y="444" class="st18" width="114.7" height="26"/>
</svg>
