<?xml version="1.0" encoding="utf-8"?>
<!-- Generator: Adobe Illustrator 19.1.0, SVG Export Plug-In . SVG Version: 6.00 Build 0)  -->
<svg version="1.1" id="Layer_1" xmlns="http://www.w3.org/2000/svg" xmlns:xlink="http://www.w3.org/1999/xlink" x="0px" y="0px"
	 viewBox="0 0 760 600" style="enable-background:new 0 0 760 600;" xml:space="preserve">
<style type="text/css">
	.st0{opacity:0.2;}
	.st1{fill:none;stroke:#056170;stroke-width:4;stroke-miterlimit:10;stroke-dasharray:6.0154,6.0154;}
	.st2{fill:#F4F4F4;}
	.st3{fill:#F5F5F5;}
	.st4{fill:#4D4D4D;}
	.st5{fill:#BBBDBF;}
	.st6{fill:#080B0A;}
	.st7{fill:#646567;}
	.st8{opacity:0.8;fill:#151A1B;}
	.st9{fill:#B7B7B7;}
	.st10{opacity:0.2;fill:#4F4F4E;}
	.st11{fill:#FDD35C;}
	.st12{fill:#0A2D19;}
	.st13{fill:#FFFFFF;}
	.st14{fill:#FFFFFF;stroke:#DDDDDD;stroke-miterlimit:10;}
	.st15{fill:#056170;}
	.st16{fill:#0595CE;}
	.st17{fill:#D9DEE8;}
	.st18{fill:#96A6C2;}
	.st19{fill:#47AA14;}
	.st20{fill:#F3002B;}
	.st21{fill:#47AA14;stroke:#FFFFFF;stroke-width:0.5;stroke-miterlimit:10;}
	.st22{fill:#FDDD13;}
	.st23{fill:#C9C9C9;}
	.st24{fill:#FF007E;}
	.st25{fill:#33BB5B;}
	.st26{opacity:0.5;}
	.st27{fill:none;stroke:#BBBDBF;stroke-miterlimit:10;}
	.st28{fill:#E8E8E8;stroke:#CECECE;stroke-width:0.5;stroke-miterlimit:10;}
	.st29{fill:#838587;}
	.st30{fill:#1071C1;}
	.st31{fill:#929496;}
	.st32{fill:#FCFCFC;}
	.st33{fill:#1C1C1C;}
	.st34{fill:#E5E8EA;}
	.st35{fill:none;stroke:#000000;stroke-width:2;stroke-linecap:round;stroke-linejoin:round;stroke-miterlimit:10;}
	.st36{fill:#F8FBFF;}
	.st37{fill:#563C81;}
	.st38{fill:#643E7C;}
	.st39{fill:#41BC92;}
	.st40{fill:#70CAD9;}
	.st41{fill:#F64287;}
	.st42{fill:#C6BC1F;}
	.st43{fill:#129FB9;}
	.st44{display:none;fill:#F4F4F4;}
	.st45{fill:#40CDEF;}
	.st46{fill:#41CEEF;}
	.st47{fill:#42CEEF;}
	.st48{fill:#43CFEE;}
	.st49{fill:#44D0EE;}
	.st50{fill:#45D0EE;}
	.st51{fill:#46D1EE;}
	.st52{fill:#47D2EE;}
	.st53{fill:#48D2ED;}
	.st54{fill:#49D3ED;}
	.st55{fill:#4AD4ED;}
	.st56{fill:#4BD5ED;}
	.st57{fill:#4CD6ED;}
	.st58{fill:#4DD6EC;}
	.st59{fill:#4ED7EC;}
	.st60{fill:#4FD8EC;}
	.st61{fill:#50D8EC;}
	.st62{fill:#51D9EC;}
	.st63{fill:#52DAEB;}
	.st64{fill:#53DAEB;}
	.st65{fill:#54DBEB;}
	.st66{fill:#52D9EB;}
	.st67{fill:#51D8EC;}
	.st68{fill:#50D7EC;}
	.st69{fill:#4FD6EC;}
	.st70{fill:#4ED6EC;}
	.st71{fill:#4DD5ED;}
	.st72{fill:#4CD4ED;}
	.st73{fill:#4BD3ED;}
	.st74{fill:#4AD2ED;}
	.st75{fill:#49D1EE;}
	.st76{fill:#48D0EE;}
	.st77{fill:#47CFEE;}
	.st78{fill:#46CEEE;}
	.st79{fill:#45CDEE;}
	.st80{fill:#44CCEF;}
	.st81{fill:#43CCEF;}
	.st82{fill:#42CBEF;}
	.st83{fill:#41CAEF;}
	.st84{fill:#40C9F0;}
	.st85{fill:#3FC8F0;}
	.st86{fill:#3FC7F0;}
	.st87{fill:#3EC6F0;}
	.st88{fill:#3DC5F0;}
	.st89{fill:#3CC4F1;}
	.st90{fill:#3BC3F1;}
	.st91{fill:#3AC2F1;}
	.st92{fill:#39C2F1;}
	.st93{fill:#38C1F2;}
	.st94{fill:#37C0F2;}
	.st95{fill:#36BFF2;}
	.st96{fill:#35BEF2;}
	.st97{fill:#34BDF2;}
	.st98{fill:#33BCF3;}
	.st99{fill:#32BBF3;}
	.st100{fill:#31BAF3;}
	.st101{fill:#30B9F3;}
	.st102{fill:#2FB8F4;}
	.st103{fill:#2EB8F4;}
	.st104{fill:#2DB7F4;}
	.st105{fill:#2CB6F4;}
	.st106{fill:#2BB5F5;}
	.st107{fill:#2AB4F5;}
	.st108{fill:#29B3F5;}
	.st109{fill:#28B3F5;}
	.st110{fill:#27B2F5;}
	.st111{fill:#26B2F5;}
	.st112{fill:#25B2F5;}
	.st113{fill:#24B1F5;}
	.st114{fill:#23B1F5;}
	.st115{fill:#22B1F5;}
	.st116{fill:#21B0F5;}
	.st117{fill:#20B0F5;}
	.st118{fill:#1FAFF5;}
	.st119{fill:#1EAFF5;}
	.st120{fill:#1DAFF5;}
	.st121{fill:#1CAEF5;}
	.st122{fill:#1BAEF5;}
	.st123{fill:#1AAEF5;}
	.st124{fill:#19ADF5;}
	.st125{fill:#18ADF5;}
	.st126{fill:#17ACF5;}
	.st127{fill:#16ACF5;}
	.st128{fill:#15ACF5;}
	.st129{fill:#14ABF5;}
	.st130{fill:#13ABF5;}
	.st131{fill:#12ABF5;}
	.st132{fill:#11AAF5;}
	.st133{fill:#10AAF5;}
	.st134{fill:#0FA9F5;}
	.st135{fill:#0EA9F5;}
	.st136{fill:#0DA9F5;}
	.st137{fill:#0CA8F5;}
	.st138{fill:#0BA8F5;}
	.st139{fill:#0AA8F5;}
	.st140{fill:#09A7F5;}
	.st141{fill:#08A7F5;}
	.st142{opacity:0.5;fill:#4D4D4D;}
	.st143{fill:#FDDB2A;}
	.st144{fill:none;stroke:#B7B9BC;stroke-width:0.5;stroke-miterlimit:10;}
	.st145{fill:#4EBD00;}
	.st146{fill:#CCCDCE;}
	.st147{fill:#BBBBBB;}
	.st148{fill:#111110;}
	.st149{fill:#31D63D;}
	.st150{fill:#C5BB21;}
	.st151{fill:none;stroke:#FFFFFF;stroke-linecap:round;stroke-linejoin:round;stroke-miterlimit:10;}
	.st152{font-family:'ArialMT';}
	.st153{font-size:16px;}
</style>
<g>
	<g class="st26">
		<image style="overflow:visible;" width="777" height="578" xlink:href="7C98C5F4.png"  transform="matrix(1 0 0 1 -8 11)">
		</image>
	</g>
	<path class="st3" d="M694,47.4c21,0,38,17.1,38,38.4v428.6c0,21.1-17.1,38.5-38.4,38.5H66.7C45.6,553,28,535.9,28,514.5V85.6
		C28,64.5,45.4,47,66.7,47H694V47.4z"/>
	<path class="st27" d="M718.5,299.9c0-9.3-7.5-16.8-16.8-16.8s-16.8,7.5-16.8,16.8s7.5,16.8,16.8,16.8
		C710.9,316.8,718.5,309.2,718.5,299.9"/>
	<circle class="st5" cx="56.8" cy="300.5" r="3.6"/>
	<rect x="79" y="85" class="st36" width="591" height="431"/>
	<rect x="79" y="85" class="st28" width="591" height="431"/>
	<rect x="79" y="85" class="st37" width="45" height="431"/>
	<rect x="124" y="85" class="st38" width="127" height="431"/>
	<g>
		<path class="st39" d="M111.5,133h-20c-3,0-5.5-2.5-5.5-5.5v-20c0-3,2.5-5.5,5.5-5.5h20c3,0,5.5,2.5,5.5,5.5v20
			C117,130.5,114.5,133,111.5,133z"/>
		<rect x="132.3" y="107" class="st13" width="59" height="3.7"/>
		<rect x="132.3" y="116.7" class="st13" width="74.3" height="3.7"/>
		<rect x="132.3" y="126.3" class="st13" width="88.3" height="3.7"/>
	</g>
	<g>
		<path class="st40" d="M111.5,200.8h-20c-3,0-5.5-2.5-5.5-5.5v-20c0-3,2.5-5.5,5.5-5.5h20c3,0,5.5,2.5,5.5,5.5v20
			C117,198.4,114.5,200.8,111.5,200.8z"/>
		<rect x="132.3" y="174.8" class="st13" width="59" height="3.7"/>
		<rect x="132.3" y="184.5" class="st13" width="74.3" height="3.7"/>
		<rect x="132.3" y="194.2" class="st13" width="88.3" height="3.7"/>
	</g>
	<g>
		<path class="st41" d="M111.5,268.7h-20c-3,0-5.5-2.5-5.5-5.5v-20c0-3,2.5-5.5,5.5-5.5h20c3,0,5.5,2.5,5.5,5.5v20
			C117,266.2,114.5,268.7,111.5,268.7z"/>
		<rect x="132.3" y="242.7" class="st13" width="59" height="3.7"/>
		<rect x="132.3" y="252.3" class="st13" width="74.3" height="3.7"/>
		<rect x="132.3" y="262" class="st13" width="88.3" height="3.7"/>
	</g>
	<g>
		<path class="st42" d="M111.5,336.5h-20c-3,0-5.5-2.5-5.5-5.5v-20c0-3,2.5-5.5,5.5-5.5h20c3,0,5.5,2.5,5.5,5.5v20
			C117,334,114.5,336.5,111.5,336.5z"/>
		<rect x="132.3" y="310.5" class="st13" width="59" height="3.7"/>
		<rect x="132.3" y="320.2" class="st13" width="74.3" height="3.7"/>
		<rect x="132.3" y="329.8" class="st13" width="88.3" height="3.7"/>
	</g>
	<path class="st13" d="M134.3,432.7v-70.1c0-3.6,2.5-6.5,5.5-6.5h95.7c3,0,5.5,2.9,5.5,6.5v70.1"/>
</g>
<path class="st39" d="M301.3,135.7h-24.1c-3,0-5.5-2.5-5.5-5.5v-24.1c0-3,2.5-5.5,5.5-5.5h24.1c3,0,5.5,2.5,5.5,5.5v24.1
	C306.8,133.2,304.3,135.7,301.3,135.7z"/>
<path class="st40" d="M301.3,212.6h-24.1c-3,0-5.5-2.5-5.5-5.5v-24.1c0-3,2.5-5.5,5.5-5.5h24.1c3,0,5.5,2.5,5.5,5.5v24.1
	C306.8,210.1,304.3,212.6,301.3,212.6z"/>
<path class="st41" d="M301.3,289.4h-24.1c-3,0-5.5-2.5-5.5-5.5v-24.1c0-3,2.5-5.5,5.5-5.5h24.1c3,0,5.5,2.5,5.5,5.5v24.1
	C306.8,286.9,304.3,289.4,301.3,289.4z"/>
<path class="st42" d="M301.3,366.3h-24.1c-3,0-5.5-2.5-5.5-5.5v-24.1c0-3,2.5-5.5,5.5-5.5h24.1c3,0,5.5,2.5,5.5,5.5v24.1
	C306.8,363.8,304.3,366.3,301.3,366.3z"/>
<g>
	<rect x="314.8" y="102" class="st13" width="213.5" height="5.2"/>
	<rect x="314.8" y="115.8" class="st13" width="269" height="5.2"/>
	<rect x="314.8" y="129.6" class="st13" width="319.7" height="5.2"/>
</g>
<g>
	<rect x="314.8" y="177.8" class="st13" width="213.5" height="5.2"/>
	<rect x="314.8" y="191.5" class="st13" width="269" height="5.2"/>
	<rect x="314.8" y="205.3" class="st13" width="319.7" height="5.2"/>
</g>
<g>
	<rect x="314.8" y="255.4" class="st13" width="213.5" height="5.2"/>
	<rect x="314.8" y="269.2" class="st13" width="269" height="5.2"/>
	<rect x="314.8" y="283" class="st13" width="319.7" height="5.2"/>
</g>
<g>
	<rect x="314.8" y="332.3" class="st13" width="213.5" height="5.2"/>
	<rect x="314.8" y="346.1" class="st13" width="269" height="5.2"/>
	<rect x="314.8" y="359.9" class="st13" width="319.7" height="5.2"/>
</g>
<path class="st13" d="M602.3,501H321c-4.4,0-8-3.6-8-8V391.7c0-4.4,3.6-8,8-8h281.3c4.4,0,8,3.6,8,8V493
	C610.3,497.4,606.7,501,602.3,501z"/>
<path class="st38" d="M532.6,457.6H390.7c-4.4,0-8-3.6-8-8v-33.9c0-4.4,3.6-8,8-8h141.9c4.4,0,8,3.6,8,8v33.9
	C540.6,454,537,457.6,532.6,457.6z"/>
<text transform="matrix(1 0 0 1 397.6664 436.6664)" class="st13 st152 st153">CALL TO ACTION</text>
<g>
	<path class="st33" d="M556.7,476.6l-9.2-9.2l6.5-3.8c0.5-0.3,0.8-0.9,0.8-1.4c0-0.6-0.4-1.1-1-1.3l-29.2-11.6
		c-0.6-0.2-1.2-0.1-1.7,0.3c-0.4,0.4-0.6,1.1-0.3,1.7l11.6,29.2c0.2,0.5,0.7,0.9,1.3,1c0.6,0,1.2-0.3,1.4-0.8l3.8-6.5l9.2,9.2
		c0.3,0.3,0.7,0.5,1.1,0.5c0.4,0,0.8-0.2,1.1-0.5l4.5-4.5C557.3,478.2,557.3,477.2,556.7,476.6z"/>
	<path class="st33" d="M517.8,442.2c-0.6-0.6-1.6-0.6-2.2,0c-0.6,0.6-0.6,1.6,0,2.2l3.4,3.4c0.3,0.3,0.7,0.5,1.1,0.5
		c0.4,0,0.8-0.2,1.1-0.5c0.6-0.6,0.6-1.6,0-2.2L517.8,442.2z"/>
	<path class="st33" d="M519,452.8c0-0.9-0.7-1.5-1.5-1.5h-4.8c-0.9,0-1.5,0.7-1.5,1.5c0,0.9,0.7,1.5,1.5,1.5h4.8
		C518.3,454.4,519,453.7,519,452.8z"/>
	<path class="st33" d="M518.4,457.6l-3.4,3.4c-0.6,0.6-0.6,1.6,0,2.2c0.3,0.3,0.7,0.5,1.1,0.5c0.4,0,0.8-0.2,1.1-0.5l3.4-3.4
		c0.6-0.6,0.6-1.6,0-2.2C519.9,457,519,457,518.4,457.6z"/>
	<path class="st33" d="M526.3,445.5c0.9,0,1.5-0.7,1.5-1.5v-4.8c0-0.9-0.7-1.5-1.5-1.5c-0.9,0-1.5,0.7-1.5,1.5v4.8
		C524.8,444.8,525.4,445.5,526.3,445.5z"/>
	<path class="st33" d="M532.1,447.5c0.4,0,0.8-0.2,1.1-0.5l3.4-3.4c0.6-0.6,0.6-1.6,0-2.2c-0.6-0.6-1.6-0.6-2.2,0l-3.4,3.4
		c-0.6,0.6-0.6,1.6,0,2.2C531.4,447.4,531.8,447.5,532.1,447.5z"/>
</g>
</svg>
