<?xml version="1.0" encoding="utf-8"?>
<!-- Generator: Adobe Illustrator 19.1.0, SVG Export Plug-In . SVG Version: 6.00 Build 0)  -->
<svg version="1.1" id="Layer_1" xmlns="http://www.w3.org/2000/svg" xmlns:xlink="http://www.w3.org/1999/xlink" x="0px" y="0px"
	 viewBox="-429 231 100 100" style="enable-background:new -429 231 100 100;" xml:space="preserve">
<style type="text/css">
	.st0{fill:#E80012;}
	.st1{fill:#FFFFFF;}
	.st2{fill:#CD0000;}
</style>
<g>
	<path class="st0" d="M-350.7,323.6h-57.4c-11.2,0-20.3-9.1-20.3-20.3v-44.6c0-11.2,9.1-20.3,20.3-20.3h57.3
		c11.2,0,20.3,9.1,20.3,20.3v44.6C-330.4,314.5-339.5,323.6-350.7,323.6z"/>
	<g>
		<g>
			<rect x="-371.9" y="267.8" class="st1" width="6.8" height="6.8"/>
			<rect x="-350.3" y="267.8" class="st1" width="6.8" height="6.8"/>
			<rect x="-361.1" y="267.8" class="st1" width="6.8" height="6.8"/>
		</g>
		<g>
			<rect x="-371.9" y="287.8" class="st1" width="6.8" height="6.8"/>
			<rect x="-350.3" y="287.8" class="st1" width="6.8" height="6.8"/>
			<rect x="-361.1" y="287.8" class="st1" width="6.8" height="6.8"/>
		</g>
		<g>
			<rect x="-371.9" y="277.8" class="st1" width="6.8" height="6.8"/>
			<rect x="-350.3" y="277.8" class="st1" width="6.8" height="6.8"/>
			<rect x="-361.1" y="277.8" class="st1" width="6.8" height="6.8"/>
		</g>
	</g>
	<path class="st1" d="M-412,283.6c0-7,0-14,0-21c0-4.2,1.8-6,6.1-6c6.8,0,13.6,0,20.5,0c4.1,0,6.1,2,6.1,6.1c0,14,0,28,0,42
		c0,4.2-1.9,6.1-6,6.2c-6.9,0.1-13.8,0.1-20.7,0c-4.1,0-5.8-1.9-5.8-6C-412,297.8-412,290.7-412,283.6z M-408.2,281.7
		c0,6.2,0.1,12.3,0,18.5c0,2,0.6,2.8,2.7,2.8c6.5-0.1,13.1-0.1,19.6,0c2.1,0,2.7-0.9,2.7-2.8c0-12.3-0.1-24.7,0-37
		c0-2.3-0.9-2.8-3-2.8c-6.3,0.1-12.5,0.1-18.8,0c-2.4-0.1-3.3,0.6-3.2,3.1C-408.1,269.5-408.2,275.6-408.2,281.7z M-395.6,305.3
		c-1.5,0.5-2.7,1-4,1.5c1.2,0.4,2.5,1.1,3.7,1.2c1.2,0,2.4-0.6,3.6-1C-393.3,306.5-394.4,305.9-395.6,305.3z"/>
</g>
<path class="st2" d="M-392.5,308.5h-6c-0.4,0-0.7-0.3-0.7-0.7V306c0-0.4,0.3-0.7,0.7-0.7h6c0.4,0,0.7,0.3,0.7,0.7v1.7
	C-391.8,308.2-392.1,308.5-392.5,308.5z"/>
<g>
	<path class="st1" d="M-402.8,278.3c0.3-0.8,1-1.3,1.6-1.8c0.9-0.8,2.6-0.2,3,1.1c0.2,0.7,0.4,1.5,0.6,2.2c0.1,0.6-0.1,1.1-0.5,1.6
		c0,0.1-0.1,0.1-0.2,0.2c-0.6,0.6-0.6,0.6-0.3,1.5c0.9,2.2,2.5,3.7,4.8,4.5c0.3,0.1,0.4,0.1,0.6-0.1c0.1-0.2,0.3-0.3,0.5-0.5
		c0.5-0.4,1.1-0.6,1.7-0.5c0.7,0.2,1.4,0.4,2.2,0.6c1.1,0.3,1.6,1.5,1.3,2.6c-0.1,0.2-0.2,0.4-0.4,0.6c-0.2,0.2-0.4,0.4-0.6,0.7
		c-0.3,0.3-0.6,0.6-1.1,0.7c-0.4,0-0.7,0-1.1,0c-0.3,0-0.6-0.1-0.9-0.1c-5.2-0.7-9.4-4.5-10.7-9.6c-0.2-0.8-0.3-1.6-0.4-2.3
		C-402.8,279.1-402.8,278.7-402.8,278.3z"/>
	<path class="st1" d="M-393.8,275c0.6,0.1,1.3,0.2,1.9,0.4c3.3,1.2,5.1,3.5,5.6,6.9c0,0.1,0,0.1,0.1,0.2c0,0.2,0,0.4,0,0.7
		c-0.2,0-0.5,0-0.7,0c-0.1,0-0.2,0-0.3,0c-0.1-2-0.7-3.7-2.1-5.1c-1.4-1.4-3.1-2.1-5.1-2.1c0-0.3,0-0.7-0.1-1
		C-394.3,275-394.1,275-393.8,275z"/>
	<path class="st1" d="M-390.4,283.2c-0.1-2.3-1.8-4-4.1-4.1c0-0.3,0-0.6,0-0.9c2.2-0.2,5.1,1.8,5.1,5.1
		C-389.7,283.2-390,283.2-390.4,283.2z"/>
	<path class="st1" d="M-394.5,281.2c1.1-0.1,2.1,0.9,2,2c-0.3,0-0.5,0-0.8,0c-0.1,0-0.2-0.1-0.2-0.2c-0.1-0.4-0.4-0.6-0.8-0.8
		c-0.1,0-0.2-0.2-0.2-0.3C-394.6,281.7-394.5,281.5-394.5,281.2z"/>
</g>
</svg>
