<?xml version="1.0" encoding="utf-8"?>
<!-- Generator: Adobe Illustrator 19.1.0, SVG Export Plug-In . SVG Version: 6.00 Build 0)  -->
<svg version="1.1" id="Layer_1" xmlns="http://www.w3.org/2000/svg" xmlns:xlink="http://www.w3.org/1999/xlink" x="0px" y="0px"
	 viewBox="-429 231 100 100" style="enable-background:new -429 231 100 100;" xml:space="preserve">
<style type="text/css">
	.st0{fill:#E80012;}
	.st1{fill:#FFFFFF;}
</style>
<g>
	<g>
		<path class="st0" d="M-349.3,324h-57.4c-11.2,0-20.3-9.1-20.3-20.3v-44.6c0-11.3,9.1-20.4,20.3-20.4h57.3
			c11.2,0,20.3,9.1,20.3,20.3v44.6C-329,314.9-338.1,324-349.3,324z"/>
	</g>
</g>
<g>
	<path class="st1" d="M-380.2,301.8C-380.2,300.2-380.2,303.6-380.2,301.8c-0.6,0-1.1,0-1.6,0c-5.5,0-10.9,0-16.4,0
		c-4,0-6.6-2.6-6.6-6.6c0-1.1-0.1-2.3,0.2-3.3c0.8-3.1,3.1-4.6,6.6-4.6c10.8,0,21.7,0,32.5,0c2.5,0,5.1,0,7.6,0
		c4.2,0,6.7,2.6,6.7,6.8c0,1,0.1,2-0.1,2.9c-0.6,2.9-3.1,4.8-6.2,4.8c-5.5,0-11,0-16.5,0c-0.5,0-1.1,0-1.8,0c0,1.7,0-1.6,0,0
		C-377.3,301.8-378.7,301.8-380.2,301.8z M-397.5,291.5c-1.7,0-3,1.3-3.1,2.9c-0.1,1.7,1.3,3.1,3,3.2c1.7,0,3.1-1.4,3.1-3
		C-394.6,292.9-395.9,291.5-397.5,291.5z M-387.3,291.5c-1.7,0-3,1.3-3,2.9s1.4,3.1,3,3.1c1.7,0,3-1.4,3-3.1
		C-384.3,292.8-385.6,291.5-387.3,291.5z M-358.4,291.5c-1.6,0-3,1.3-3,2.9c0,1.7,1.4,3.1,3,3.1c1.7,0,3-1.4,3-3.1
		C-355.4,292.8-356.8,291.5-358.4,291.5z M-377,291.5c-1.7,0-3,1.3-3,3s1.4,3.1,3.1,3.1c1.6,0,3-1.4,3-3
		C-373.9,292.9-375.3,291.5-377,291.5z"/>
	<path class="st1" d="M-404.6,287.3c-0.1,0.1-0.2,0-0.2-0.1c1.2-4.3,2.3-8.3,3.3-12.3c1-3.7,2-7.3,3-11c1-3.8,3-5.5,7-5.5
		c9.1,0,18.3,0,27.4,0c3.1,0,5,1.2,6.1,4.1c1,2.9,1.8,5.9,2.6,8.8c1.4,5.1,2.7,10.2,4.1,15.3c0,0.1,0.1,0.3,0.1,0.5
		c0,0.1-0.1,0.2-0.2,0.1c-2.6-1.9-5.4-2-8.2-2c-12.3,0-24.5,0-36.8,0C-399.3,285.2-402,285.3-404.6,287.3z M-377.9,264.6v-0.2
		C-378,264.4-377.9,264.6-377.9,264.6c-3.1,0.3-6.5,0.4-9.5,1.3c-4,1.2-6.7,3.9-7,8.4c-0.1,1.6,0.7,2.6,2.2,2.7c2,0.1,3.9,0.1,5.9,0
		c1.4,0,2.1-0.8,2.1-2.3c0-1.1,0-2.2,0-3.4c0.1-1.8,0.8-2.6,2.6-2.6c2.5,0,5,0,7.5,0c1.7,0,2.4,0.7,2.5,2.4c0.1,1.2,0,2.4,0,3.7
		c0,1.4,0.7,2.1,2,2.2c2,0.1,4,0.1,6,0c1.4-0.1,2.2-1.1,2.1-2.5c-0.2-3.4-1.8-6-4.8-7.7c-3.6-2-7.5-2.2-11.4-2.1
		C-377.9,264.7-377.9,264.7-377.9,264.6z"/>
</g>
</svg>
