<?xml version="1.0" encoding="utf-8"?>
<!-- Generator: Adobe Illustrator 19.1.0, SVG Export Plug-In . SVG Version: 6.00 Build 0)  -->
<svg version="1.1" id="Layer_1" xmlns="http://www.w3.org/2000/svg" xmlns:xlink="http://www.w3.org/1999/xlink" x="0px" y="0px"
	 viewBox="-429 231 100 100" style="enable-background:new -429 231 100 100;" xml:space="preserve">
<style type="text/css">
	.st0{fill:#E80012;}
	.st1{fill:#FFFFFF;}
	.st2{fill:#B80000;}
</style>
<g>
	<path class="st0" d="M-350.3,324.2h-57.4c-11.2,0-20.3-9.1-20.3-20.3v-44.7c0-11.2,9.1-20.3,20.3-20.3h57.3
		c11.3,0,20.4,9.1,20.4,20.3v44.6C-330,315.1-339.1,324.2-350.3,324.2z"/>
	<g>
		<rect x="-350.5" y="299" class="st1" width="4" height="7"/>
		<rect x="-349.4" y="300.2" class="st1" width="1.3" height="4.5"/>
		<polygon class="st1" points="-356.5,315 -356.5,312 -350.5,312 -350.5,308 -346.5,308 -346.5,315 		"/>
		<polygon class="st1" points="-349.4,308.9 -348.2,308.9 -348.2,313.9 -354.5,313.9 -354.5,312.9 -349.4,312.9 		"/>
		<path class="st1" d="M-378.5,315v-3h17v3H-378.5z M-400.5,315v-3h17v3H-400.5z"/>
		<path class="st1" d="M-398,312.9h13v1h-13V312.9z M-376.3,312.9h13v1h-13C-376.3,313.9-376.3,312.9-376.3,312.9z"/>
		<polygon class="st1" points="-414.5,315 -414.5,305 -410.5,305 -410.5,312 -405.5,312 -405.5,315 		"/>
		<polygon class="st1" points="-413.1,306.2 -411.8,306.2 -411.8,312.9 -406.7,312.9 -406.7,313.9 -413.1,313.9 		"/>
		<g>
			<path class="st1" d="M-419.4,308.1c2.5-2.2,4.7-5.8,5.8-8.2l1.2-2.5l1.2,2.5c1.1,2.4,3.3,6,5.8,8.2l3.2,2.9l-10.2-2.9l-10.3,2.9
				L-419.4,308.1z"/>
			<path class="st1" d="M-412.4,300.2c1.3,2.8,3.6,6.4,6.1,8.5l-6.1-1.7l-6.1,1.7C-416.1,306.5-413.8,303-412.4,300.2z"/>
		</g>
	</g>
	<g>
		<rect x="-414.5" y="256" class="st1" width="4" height="7"/>
		<rect x="-411.5" y="257.6" class="st1" width="1.3" height="4.5"/>
		<polygon class="st1" points="-404.5,247 -404.5,250 -410.5,250 -410.5,254 -414.5,254 -414.5,247 		"/>
		<polygon class="st1" points="-410.2,253.4 -411.5,253.4 -411.5,248.4 -405.1,248.4 -405.1,249.4 -410.2,249.4 		"/>
		<path class="st1" d="M-382.5,247v3h-17v-3H-382.5z M-360.5,247v3h-17v-3H-360.5z"/>
		<path class="st1" d="M-361.7,249.4h-13v-1h13V249.4z M-383.4,249.4h-13v-1h13V249.4z"/>
		<polygon class="st1" points="-346.5,247 -346.5,257 -350.5,257 -350.5,250 -355.5,250 -355.5,247 		"/>
		<polygon class="st1" points="-346.6,256.1 -347.9,256.1 -347.9,249.4 -353,249.4 -353,248.4 -346.6,248.4 		"/>
		<g>
			<path class="st1" d="M-340.2,254.2c-2.5,2.2-4.7,5.8-5.8,8.2l-1.2,2.6l-1.2-2.5c-1.1-2.4-3.3-6-5.8-8.2l-3.2-2.9l10.2,2.9l10.2-3
				L-340.2,254.2z"/>
			<path class="st1" d="M-347.2,262.1c-1.3-2.8-3.6-6.4-6.1-8.5l6.1,1.7l6.1-1.7C-343.6,255.8-345.9,259.3-347.2,262.1z"/>
		</g>
	</g>
</g>
<g>
	<path class="st1" d="M-407,281.1c0-5.1,0-10.2,0-15.2c0-3.1,1.3-4.4,4.4-4.4c4.9,0,9.9,0,14.8,0c3,0,4.4,1.5,4.4,4.4
		c0,10.2,0,20.3,0,30.5c0,3-1.3,4.4-4.4,4.5c-5,0-10,0.1-15,0c-3,0-4.2-1.4-4.2-4.3C-407,291.4-407,286.2-407,281.1z M-404.2,279.7
		c0,4.5,0,9,0,13.4c0,1.4,0.4,2.1,1.9,2c4.7-0.1,9.5-0.1,14.2,0c1.5,0,2-0.7,1.9-2.1c0-9,0-17.9,0-26.9c0-1.6-0.7-2-2.2-2
		c-4.5,0.1-9.1,0.1-13.6,0c-1.7,0-2.4,0.5-2.3,2.3C-404.1,270.9-404.2,275.3-404.2,279.7z M-395.1,296.9c-1.1,0.4-2,0.7-2.9,1.1
		c0.9,0.3,1.8,0.8,2.7,0.8c0.9,0,1.7-0.5,2.6-0.7C-393.4,297.7-394.2,297.3-395.1,296.9z"/>
	<path class="st2" d="M-393.1,299.2h-4c-0.4,0-0.7-0.3-0.7-0.7v-0.8c0-0.4,0.3-0.7,0.7-0.7h4c0.4,0,0.7,0.3,0.7,0.7v0.8
		C-392.4,298.8-392.7,299.2-393.1,299.2z"/>
</g>
<g>
	<g>
		<rect x="-372.9" y="270.8" class="st1" width="5.4" height="5.4"/>
		<rect x="-355.9" y="270.8" class="st1" width="5.4" height="5.4"/>
		<rect x="-364.4" y="270.8" class="st1" width="5.4" height="5.4"/>
	</g>
	<g>
		<rect x="-372.9" y="286.6" class="st1" width="5.4" height="5.4"/>
		<rect x="-355.9" y="286.6" class="st1" width="5.4" height="5.4"/>
		<rect x="-364.4" y="286.6" class="st1" width="5.4" height="5.4"/>
	</g>
	<g>
		<rect x="-372.9" y="278.7" class="st1" width="5.4" height="5.4"/>
		<rect x="-355.9" y="278.7" class="st1" width="5.4" height="5.4"/>
		<rect x="-364.4" y="278.7" class="st1" width="5.4" height="5.4"/>
	</g>
</g>
<path class="st1" d="M-395.3,289c-4.6,0-8.3-3.9-8.3-8.5c0-4.7,3.8-8.6,8.3-8.6c4.6,0,8.4,3.9,8.4,8.5
	C-387,285.2-390.7,289-395.3,289z M-398.9,279.4c0-0.3,0-0.6,0-0.8c0.1-1.5,0.8-2.7,2.3-3.2c1.4-0.5,2.8-0.3,3.9,0.9
	c0.7,0.7,0.9,1.6,0.9,2.6c0.1,1.5,0,2.9-0.9,4.2c-0.4,0.5-0.4,0.6,0.1,1.1c0.7,0.7,1.6,1,2.5,1.4c0.3,0.1,0.5,0.1,0.7-0.2
	c1.3-1.8,1.8-3.7,1.5-5.9c-0.7-4.8-5.5-7.7-10-6c-4.6,1.8-6.3,7.5-3.4,11.6c0.3,0.4,0.6,0.6,1.1,0.4c0.3-0.2,0.7-0.2,0.9-0.4
	c0.5-0.3,1-0.7,1.5-1.1c0.1-0.1,0.1-0.4,0.1-0.5C-398.7,282.2-398.9,280.9-398.9,279.4z M-398,279.3c0,0.5,0,0.9,0.1,1.2
	c0,0.3,0.1,0.6,0.2,0.8c0.3,1.2,1.2,1.9,2.3,2c1.2,0.1,2-0.5,2.5-1.7c0.4-1.3,0.5-2.6,0.1-3.8c-0.3-1.1-1.3-1.8-2.6-1.7
	c-1.1,0-2.1,0.7-2.3,1.8C-398,278.4-398,278.9-398,279.3z M-400.1,286.2c2.6,2.5,7.1,2.5,9.6,0c-1.3-0.5-2.6-1-3.3-2.3
	c-1,0.5-2,0.4-3,0.1C-397.6,285.3-398.8,285.8-400.1,286.2z"/>
</svg>
