<?xml version="1.0" encoding="utf-8"?>
<!-- Generator: Adobe Illustrator 19.1.0, SVG Export Plug-In . SVG Version: 6.00 Build 0)  -->
<svg version="1.1" id="Layer_1" xmlns="http://www.w3.org/2000/svg" xmlns:xlink="http://www.w3.org/1999/xlink" x="0px" y="0px"
	 viewBox="-429 231 100 100" style="enable-background:new -429 231 100 100;" xml:space="preserve">
<style type="text/css">
	.st0{fill:#E80012;}
	.st1{fill:#FFFFFF;}
</style>
<g>
	<g>
		<path class="st0" d="M-350.3,324h-57.4c-11.2,0-20.3-9.1-20.3-20.3v-44.6c0-11.3,9.1-20.4,20.3-20.4h57.3
			c11.3,0,20.4,9.1,20.4,20.4v44.6C-330,314.9-339.1,324-350.3,324z"/>
	</g>
</g>
<g>
	<path class="st1" d="M-412.9,282.4c0-8.6,0-17.2,0-25.8c0-3.8,1.5-5.5,4.8-5.5c8.7,0,17.5,0,26.2,0c3.3,0,4.8,1.7,4.8,5.5
		c0,17.3,0,34.5,0,51.8c0,3-1.1,4.9-3.1,5.4c-0.5,0.1-1,0.1-1.5,0.1c-8.9,0-17.8,0-26.8,0c-2.9,0-4.5-1.9-4.5-5.2
		C-412.9,300-412.9,291.2-412.9,282.4z M-411.2,302.9c0,0.5,0,0.8,0,1.1c0,1.9,0,3.8,0,5.6c0,1.2,0.8,2.2,1.9,2.4
		c0.5,0.1,1,0.1,1.5,0.1c8.7,0,17.3,0,26,0c0.5,0,0.9,0,1.4-0.1c1-0.2,1.7-1,1.7-2.1c0.1-2.3,0-4.6,0-7c-0.8,0-1.5,0.1-2.1,0
		c-0.4-0.1-0.7-0.6-1-0.9c0.3-0.3,0.6-0.8,1-0.8c0.7-0.1,1.4,0,2.1,0c0-13.7,0-27.2,0-40.7c-10.9,0-21.7,0-32.5,0
		c0,13.6,0,27,0,40.7c0.5,0,1,0,1.4,0c8.2,0,22.4,0,30.6,0c0.4,0-0.3-0.2,0,0c0.3,0.1,0.2,0.5,0.2,0.7c0,0.3,2,1.2-1.3,1.1
		c-0.3,0,0.9,0,0.6,0c-6.4,0-18.2,0-24.6,0C-406.6,302.9-408.8,302.9-411.2,302.9z M-411.2,258.4c10.9,0,21.7,0,32.6,0
		c0-1.1,0.1-2.1,0-3.1c-0.1-1.5-1.2-2.4-2.9-2.4c-8.9,0-17.9,0-26.8,0c-0.3,0-0.6,0-0.9,0.1c-1.1,0.2-1.9,1.1-2,2.4
		C-411.3,256.4-411.2,257.3-411.2,258.4z"/>
	<path class="st1" d="M-395,282.8c-4.4,0-8.8,0-13.2,0c-1.3,0-1.5-0.2-1.5-1.7c0-4,0-7.9,0-11.9c0-1.5,0.1-1.7,1.5-1.7
		c8.9,0,17.8,0,26.6,0c1,0,1.4,0.5,1.4,1.6c0,4,0,8.1,0,12.1c0,1.2-0.4,1.6-1.4,1.6C-386.1,282.8-390.6,282.8-395,282.8z
		 M-408,280.9c4.8,0,9.5,0,14.3,0c0-3.9,0-7.7,0-11.6c-4.8,0-9.5,0-14.3,0C-408,273.2-408,277-408,280.9z M-391.9,280.9
		c3.4,0,6.7,0,10,0c0-3.9,0-7.7,0-11.5c-3.4,0-6.7,0-10,0C-391.9,273.3-391.9,277.1-391.9,280.9z"/>
	<path class="st1" d="M-405.5,284.7c0.9,0,1.9,0,2.8,0c0.8,0,1.1,0.4,1.1,1.2c0,2.2,0,4.5,0,6.7c0,0.9-0.4,1.2-1.1,1.2
		c-1.9,0-3.8,0-5.8,0c-0.8,0-1.2-0.4-1.2-1.3c0-2.2,0-4.3,0-6.5c0-1,0.4-1.4,1.3-1.3C-407.5,284.7-406.5,284.7-405.5,284.7z
		 M-408,286.5c0,1.8,0,3.6,0,5.4c1.6,0,3.1,0,4.6,0c0-1.8,0-3.6,0-5.4C-404.9,286.5-406.4,286.5-408,286.5z"/>
	<path class="st1" d="M-394.9,310.2c-0.7,0-1.4,0-2.1,0c-1.4-0.1-2.4-1.2-2.4-2.7s0.9-2.7,2.3-2.8c1.5-0.1,3-0.1,4.5,0
		c1.4,0.1,2.3,1.3,2.2,2.9c0,1.4-1,2.5-2.4,2.6C-393.5,310.3-394.2,310.2-394.9,310.2L-394.9,310.2z M-394.9,306.6
		c-0.7,0-1.4-0.1-2,0c-0.3,0.1-0.6,0.5-0.9,0.8c0.3,0.3,0.6,0.9,0.9,0.9c1.3,0.1,2.7,0.1,4,0c0.3,0,0.6-0.6,0.9-0.9
		c-0.3-0.3-0.6-0.7-1-0.8C-393.6,306.5-394.3,306.6-394.9,306.6z"/>
	<path class="st1" d="M-390.2,286.5c-2.7,0-5.5,0-8.2,0c-0.3,0-0.7,0.1-0.9-0.1c-0.3-0.2-0.5-0.6-0.5-0.9c0-0.2,0.3-0.6,0.6-0.8
		c0.2-0.1,0.5-0.1,0.7-0.1c5.7,0,11.4,0,17.1,0c0.2,0,0.4-0.1,0.5,0c0.3,0.3,0.5,0.6,0.8,1c-0.3,0.3-0.5,0.7-0.8,0.8
		c-0.7,0.1-1.5,0.1-2.2,0.1C-385.6,286.5-387.9,286.5-390.2,286.5z"/>
	<path class="st1" d="M-390,288.4c2.8,0,5.6,0,8.3,0c0.3,0,0.6-0.1,0.8,0.1c0.3,0.2,0.5,0.6,0.5,0.9c0,0.2-0.3,0.6-0.6,0.7
		c-0.2,0.1-0.6,0.1-0.8,0.1c-5.6,0-11.3,0-16.9,0c-0.2,0-0.5,0.1-0.6,0c-0.3-0.3-0.5-0.6-0.8-0.9c0.3-0.3,0.5-0.7,0.8-0.8
		c0.8-0.1,1.6,0,2.5-0.1C-394.5,288.4-392.2,288.4-390,288.4z"/>
	<path class="st1" d="M-395.9,292c1,0,1.9-0.1,2.9,0c0.4,0.1,0.7,0.6,1,0.9c-0.3,0.3-0.7,0.8-1,0.8c-2,0.1-4,0.1-6,0
		c-0.3,0-0.7-0.6-1-0.9c0.3-0.3,0.6-0.8,1-0.8C-398,292-396.9,292-395.9,292z"/>
	<path class="st1" d="M-394.9,256.6c-0.5,0-1.1,0.1-1.6,0c-0.3-0.1-0.7-0.5-0.7-0.8s0.4-0.9,0.6-0.9c1.1-0.1,2.3-0.1,3.4,0
		c0.2,0,0.6,0.5,0.6,0.8s-0.4,0.8-0.6,0.9C-393.8,256.7-394.4,256.6-394.9,256.6z"/>
	<path class="st1" d="M-390.3,274.6c0-1.9,1.5-3.5,3.1-3.3c1.7,0.2,3,2,2.6,3.9c-0.2,0.8,0,1.3,0.4,1.9c0.3,0.3,0.4,1.2,0.2,1.5
		c-0.5,0.7-1,0.2-1.4-0.3c-0.4-0.6-0.9-0.7-1.6-0.5C-388.6,278.4-390.3,276.8-390.3,274.6z M-387.3,273.1c-0.7,0-1.3,0.6-1.4,1.4
		c0,0.8,0.6,1.6,1.3,1.6c0.8,0,1.3-0.6,1.3-1.5C-386,273.8-386.5,273.2-387.3,273.1z"/>
</g>
<g>
	<path class="st1" d="M-367.6,271.3c-1.3,0-2.4-0.3-2.8-1.6c-0.6-1.7-0.6-3.6,0-5.3c0.4-1.2,1.6-1.6,2.8-1.6
		c0.5-1.2,0.8-1.5,2.1-1.4c1.9,0.2,3.5-0.4,5-1.5c1.9-1.4,3.9-2.6,5.9-4c0.7-0.5,1.5-0.7,2.3-0.2c0.8,0.4,1,1.2,1,2
		c0,6.2,0,12.4,0,18.7c0,0.9-0.3,1.6-1.1,2c-0.8,0.4-1.5,0.2-2.2-0.3c-2.5-1.7-5.1-3.4-7.6-5.1c-0.3-0.2-0.8-0.3-1.2-0.4
		c-0.6-0.1-1.3-0.1-1.9,0C-366.5,272.8-367.4,272.5-367.6,271.3z M-352.9,267.1c0-3.1,0-6.2,0-9.3c0-0.3-0.1-0.5-0.2-0.8
		c-0.3,0.1-0.5,0.1-0.8,0.3c-2.5,1.7-5,3.3-7.6,5c-0.3,0.2-0.4,0.4-0.4,0.7c0,2.6,0,5.3,0,7.9c0,0.4,0.1,0.6,0.5,0.8
		c2.5,1.6,5,3.3,7.5,5c0.1,0.1,0.3,0.2,0.4,0.2c0.2,0,0.4-0.1,0.5-0.3c0.1-0.1,0.1-0.4,0.1-0.6
		C-352.9,273.1-352.9,270.1-352.9,267.1z M-366,271.1c0.9,0,1.7,0,2.6,0c0-2.7,0-5.4,0-8.1c-0.9,0-1.7,0-2.6,0
		C-366,265.7-366,268.4-366,271.1z M-367.6,264.4c-1.1-0.1-1.6,0.4-1.6,1.4c0,0.9,0,1.8,0,2.6c0,0.9,0.6,1.4,1.6,1.2
		C-367.6,267.9-367.6,266.1-367.6,264.4z"/>
	<path class="st1" d="M-339.3,267.2c-0.1,3.6-1.3,6.9-3.9,9.5c-0.4,0.5-0.8,0.5-1.2,0.2c-0.4-0.4-0.2-0.8,0.1-1.2
		c1.6-1.7,2.8-3.7,3.2-6c0.8-4.1-0.1-7.8-2.9-11c-0.1-0.2-0.3-0.3-0.4-0.5c-0.3-0.4-0.4-0.7,0-1.1c0.4-0.3,0.7-0.2,1,0.2
		c0.5,0.6,1.1,1.3,1.6,1.9C-340.1,261.6-339.4,264.2-339.3,267.2z"/>
	<path class="st1" d="M-346.2,267c0-1.8-0.6-3.4-1.8-4.7c-0.1-0.1-0.1-0.2-0.2-0.2c-0.3-0.4-0.4-0.8,0-1.1c0.4-0.3,0.8-0.2,1,0.1
		c0.6,0.9,1.4,1.7,1.7,2.7c1.2,3.1,0.7,6-1.3,8.6c-0.2,0.2-0.4,0.4-0.6,0.6c-0.3,0.3-0.7,0.3-0.9,0c-0.1-0.2-0.1-0.6-0.1-0.9
		c0.1-0.2,0.3-0.4,0.5-0.6C-346.7,270.2-346.2,268.7-346.2,267z"/>
</g>
<g>
	<path class="st1" d="M-356.5,285.3c7.9,0,14.3,6.4,14.3,14.3c0,7.8-6.5,14.3-14.3,14.2c-7.9,0-14.3-6.5-14.3-14.3
		C-370.7,291.7-364.3,285.3-356.5,285.3z M-356.4,312.3c7,0,12.6-5.7,12.6-12.6c0-7-5.7-12.7-12.7-12.6c-6.9,0.1-12.6,5.8-12.5,12.7
		C-369,306.7-363.3,312.3-356.4,312.3z"/>
	<path class="st1" d="M-348.3,299.6c-4.2,2.4-8.4,4.8-12.6,7.3c0-4.9,0-9.7,0-14.6C-356.7,294.8-352.6,297.2-348.3,299.6z
		 M-351.7,299.6c-2.6-1.5-5.1-2.9-7.6-4.4c0,2.9,0,5.8,0,8.7C-356.7,302.5-354.2,301.1-351.7,299.6z"/>
</g>
</svg>
