<?xml version="1.0" encoding="utf-8"?>
<!-- Generator: Adobe Illustrator 19.1.0, SVG Export Plug-In . SVG Version: 6.00 Build 0)  -->
<svg version="1.1" id="Layer_1" xmlns="http://www.w3.org/2000/svg" xmlns:xlink="http://www.w3.org/1999/xlink" x="0px" y="0px"
	 viewBox="-429 231 100 100" style="enable-background:new -429 231 100 100;" xml:space="preserve">
<style type="text/css">
	.st0{fill:#E80012;}
	.st1{fill:#FAFAFA;}
	.st2{fill:#FFFFFF;}
</style>
<g>
	<path class="st0" d="M-350.3,325.4h-57.4c-11.2,0-20.3-9.1-20.3-20.4v-44.6c0-11.2,9.1-20.3,20.3-20.3h57.3
		c11.3,0,20.4,9.1,20.4,20.3V305C-330,316.3-339.1,325.4-350.3,325.4z"/>
	<g>
		<g>
			<path class="st1" d="M-400.3,282.7c0-1.8,1.4-3.2,3.2-3.2c1.8,0,3.2,1.4,3.2,3.2c0,1.7-1.4,3.2-3.2,3.2
				C-398.9,285.9-400.3,284.5-400.3,282.7z"/>
			<path class="st1" d="M-383.6,291.7c-1.2,0-2.2-1-2.2-2.3c0-1.2,1-2.2,2.2-2.2c1.2,0,2.2,1,2.2,2.2
				C-381.3,290.7-382.3,291.7-383.6,291.7z"/>
			<path class="st1" d="M-388.2,268c1.2,0,2.2,1,2.2,2.2c0,1.3-0.9,2.2-2.2,2.2c-1.3,0-2.3-1-2.2-2.2
				C-390.5,269-389.5,268-388.2,268z"/>
			<path class="st1" d="M-394.9,267.3c0,1.3-1,2.2-2.3,2.2c-1.2,0-2.2-1-2.2-2.3c0-1.2,1-2.2,2.3-2.2
				C-395.9,265.1-394.9,266.1-394.9,267.3z"/>
			<path class="st1" d="M-404.8,270.9c0,1.3-1,2.3-2.2,2.2c-1.2,0-2.2-1.1-2.2-2.3c0-1.2,1-2.2,2.3-2.2
				C-405.8,268.7-404.8,269.7-404.8,270.9z"/>
			<path class="st1" d="M-401.9,294.9c1.3,0,2.2,1,2.2,2.3c0,1.2-1,2.2-2.3,2.2c-1.2,0-2.2-1-2.2-2.2
				C-404.1,295.9-403.1,294.9-401.9,294.9z"/>
			<path class="st1" d="M-391.3,298.9c-1.2,0-2.2-1-2.2-2.2c0-1.3,0.9-2.3,2.2-2.3c1.3,0,2.2,1,2.2,2.2
				C-389.1,297.9-390.1,298.9-391.3,298.9z"/>
			<path class="st1" d="M-380.1,279c0,1.2-1,2.2-2.2,2.2c-1.2,0-2.2-1-2.2-2.2s1-2.2,2.2-2.2C-381.1,276.8-380.1,277.8-380.1,279z"
				/>
			<path class="st1" d="M-410,280.2c0,1.2-1,2.2-2.2,2.2c-1.2,0-2.2-1-2.2-2.3c0-1.2,1-2.2,2.3-2.2C-411,278-410,279-410,280.2z"/>
			<path class="st1" d="M-410.2,292.8c-1.2,0-2.2-1-2.2-2.3c0-1.2,1-2.2,2.3-2.2c1.2,0,2.2,1,2.1,2.2
				C-408,291.8-409,292.8-410.2,292.8z"/>
			<path class="st1" d="M-398.9,286.3c0.8,0.2,0.8,0.2,0.6,0.9c-0.4,1.2-0.8,2.4-1.1,3.6c0,0.1-0.1,0.2-0.1,0.3
				c0.3,0.1,0.7,0.2,1.1,0.3c-0.7,0.5-1.3,1-1.9,1.6c-0.3-0.8-0.6-1.6-0.9-2.4c0.4,0.1,0.7,0.2,1.1,0.3
				C-399.8,289.3-399.4,287.8-398.9,286.3z"/>
			<path class="st1" d="M-404.6,287.5c0.2,0.3,0.4,0.6,0.6,0.9c-0.8,0-1.6,0-2.5,0c0.3-0.8,0.5-1.6,0.8-2.5c0.2,0.3,0.4,0.6,0.6,0.9
				c1.3-0.9,2.6-1.7,4-2.6c0.1,0.2,0.3,0.4,0.4,0.6C-402,285.8-403.3,286.6-404.6,287.5z"/>
			<path class="st1" d="M-392.6,274.3c-0.3-0.2-0.6-0.4-0.9-0.6c0.8-0.4,1.5-0.7,2.2-1c0.1,0.9,0.2,1.7,0.3,2.6
				c-0.3-0.2-0.6-0.4-1-0.6c-0.8,1.3-1.7,2.7-2.5,4c-0.2-0.1-0.4-0.3-0.6-0.4C-394.3,277-393.5,275.6-392.6,274.3z"/>
			<path class="st1" d="M-399.7,278.7c-0.2,0.2-0.4,0.3-0.6,0.5c-1-1.2-2-2.4-3.1-3.6c-0.3,0.2-0.5,0.5-0.8,0.7
				c-0.1-0.8-0.2-1.6-0.3-2.4c0.9,0.2,1.7,0.3,2.5,0.5c-0.3,0.3-0.5,0.5-0.8,0.7C-401.8,276.3-400.8,277.4-399.7,278.7z"/>
			<path class="st1" d="M-406.1,279.6c0,0.4-0.1,0.7-0.1,1.1c1.6,0.2,3.1,0.4,4.7,0.6c0,0.3-0.1,0.5-0.1,0.8
				c-1.6-0.2-3.1-0.4-4.7-0.6c-0.1,0.4-0.1,0.7-0.2,1.1c-0.6-0.5-1.2-1-1.8-1.6C-407.5,280.5-406.8,280.1-406.1,279.6z"/>
			<path class="st1" d="M-388.2,280.5c-1.6,0.4-3.1,0.7-4.6,1.1c-0.1-0.3-0.1-0.5-0.2-0.8c1.6-0.4,3.1-0.7,4.6-1.1
				c-0.1-0.4-0.2-0.7-0.2-1.1c0.8,0.3,1.5,0.6,2.3,0.9c-0.5,0.7-1.1,1.3-1.6,2C-388,281.2-388.1,280.9-388.2,280.5z"/>
			<path class="st1" d="M-395.5,291.4c0.4-0.1,0.7-0.3,1.1-0.4c-0.5-1.5-1.1-3-1.6-4.5c0.2-0.1,0.5-0.1,0.7-0.2
				c0.5,1.5,1.1,3,1.6,4.4c0.4-0.1,0.7-0.2,1.1-0.4c-0.2,0.8-0.4,1.6-0.6,2.4C-394,292.3-394.7,291.8-395.5,291.4z"/>
			<path class="st1" d="M-393.5,284.7c0.1-0.2,0.2-0.4,0.4-0.6c1.4,0.8,2.8,1.5,4.2,2.3c0.2-0.3,0.3-0.6,0.5-0.9
				c0.4,0.7,0.7,1.4,1.1,2.2c-0.8,0.1-1.7,0.3-2.5,0.4c0.2-0.3,0.3-0.6,0.5-1C-390.8,286.3-392.1,285.5-393.5,284.7z"/>
			<path class="st1" d="M-396.8,277.9c-0.3,0-0.5,0-0.7,0c0-1.6,0-3.1,0-4.7c-0.4,0-0.7,0-1.1,0c0.5-0.7,0.9-1.4,1.4-2.1
				c0.5,0.7,1,1.3,1.6,2.1c-0.4,0-0.7,0-1.1,0C-396.8,274.7-396.8,276.3-396.8,277.9z"/>
		</g>
	</g>
</g>
<g>
	<path class="st2" d="M-370.1,286.6c-1.5,0.1-2.9-0.4-3.4-1.9c-0.7-2.1-0.7-4.3,0-6.4c0.5-1.5,1.9-2,3.4-1.9c0.6-1.5,1-1.8,2.6-1.7
		c2.3,0.2,4.2-0.4,6-1.8c2.3-1.7,4.7-3.2,7.1-4.8c0.9-0.6,1.8-0.8,2.8-0.3c0.9,0.5,1.2,1.4,1.2,2.4c0,7.5,0,14.9,0,22.4
		c0,1.1-0.3,1.9-1.3,2.5c-1,0.5-1.8,0.2-2.7-0.3c-3-2-6.1-4.1-9.1-6.1c-0.4-0.3-1-0.4-1.5-0.5c-0.8-0.1-1.5-0.1-2.3,0
		C-368.7,288.4-369.7,288-370.1,286.6z M-352.4,281.6c0-3.7,0-7.4,0-11.1c0-0.3-0.2-0.6-0.2-0.9c-0.3,0.1-0.7,0.1-0.9,0.3
		c-3,2-6,4-9.1,6c-0.4,0.2-0.5,0.5-0.5,0.9c0,3.2,0,6.3,0,9.5c0,0.5,0.2,0.7,0.6,1c3,2,6,4,8.9,6c0.2,0.1,0.3,0.3,0.5,0.3
		c0.2,0,0.5-0.1,0.6-0.3c0.1-0.2,0.1-0.5,0.1-0.7C-352.4,288.8-352.4,285.2-352.4,281.6z M-368.1,286.4c1.1,0,2.1,0,3.1,0
		c0-3.3,0-6.5,0-9.7c-1.1,0-2.1,0-3.1,0C-368.1,279.9-368.1,283.1-368.1,286.4z M-370.1,278.3c-1.2,0-1.9,0.5-1.9,1.7
		c0,1.1,0,2.1,0,3.2c0,1.1,0.8,1.7,1.9,1.5C-370.1,282.5-370.1,280.4-370.1,278.3z"/>
	<path class="st2" d="M-336.1,281.7c-0.1,4.4-1.6,8.2-4.7,11.5c-0.5,0.6-1,0.7-1.4,0.2c-0.5-0.5-0.2-1,0.2-1.4c2-2,3.3-4.5,3.9-7.2
		c1-4.9-0.1-9.3-3.5-13.2c-0.2-0.2-0.4-0.4-0.5-0.6c-0.4-0.4-0.4-0.9,0-1.3c0.5-0.4,0.9-0.2,1.2,0.2c0.7,0.8,1.3,1.5,1.9,2.3
		C-337,275-336.1,278.2-336.1,281.7z"/>
	<path class="st2" d="M-344.3,281.5c0-2.2-0.7-4-2.2-5.6c-0.1-0.1-0.2-0.2-0.2-0.3c-0.4-0.4-0.4-0.9,0-1.3c0.4-0.4,0.9-0.2,1.2,0.2
		c0.7,1.1,1.6,2.1,2.1,3.3c1.5,3.7,0.9,7.2-1.6,10.4c-0.2,0.2-0.4,0.5-0.7,0.7c-0.4,0.3-0.8,0.3-1.1,0c-0.2-0.3-0.2-0.7-0.1-1.1
		c0.1-0.3,0.4-0.5,0.6-0.7C-344.9,285.3-344.3,283.5-344.3,281.5z"/>
</g>
<g>
	<rect x="-351" y="299" class="st2" width="4" height="7"/>
	<rect x="-349.4" y="300.2" class="st2" width="1.3" height="4.5"/>
	<polygon class="st2" points="-357,315 -357,312 -351,312 -351,308 -347,308 -347,315 	"/>
	<polygon class="st2" points="-349.4,308.9 -348.2,308.9 -348.2,313.9 -354.5,313.9 -354.5,312.9 -349.4,312.9 	"/>
	<path class="st2" d="M-379,315v-3h17v3H-379z M-401,315v-3h17v3H-401z"/>
	<path class="st2" d="M-398,312.9h13v1h-13V312.9z M-376.3,312.9h13v1h-13C-376.3,313.9-376.3,312.9-376.3,312.9z"/>
	<polygon class="st2" points="-415,315 -415,305 -411,305 -411,312 -406,312 -406,315 	"/>
	<polygon class="st2" points="-413.1,306.2 -411.8,306.2 -411.8,312.9 -406.7,312.9 -406.7,313.9 -413.1,313.9 	"/>
	<g>
		<path class="st2" d="M-419.4,308.1c2.5-2.2,4.7-5.8,5.8-8.2l1.2-2.5l1.2,2.5c1.1,2.4,3.3,6,5.8,8.2l3.2,2.9l-10.2-2.9l-10.3,2.9
			L-419.4,308.1z"/>
		<path class="st2" d="M-412.4,300.2c1.3,2.8,3.6,6.4,6.1,8.5l-6.1-1.7l-6.1,1.7C-416.1,306.5-413.8,303-412.4,300.2z"/>
	</g>
</g>
<g>
	<rect x="-415" y="256" class="st2" width="4" height="7"/>
	<polygon class="st2" points="-405,247 -405,250 -411,250 -411,254 -415,254 -415,247 	"/>
	<path class="st2" d="M-383,247v3h-17v-3H-383z M-361,247v3h-17v-3H-361z"/>
	<path class="st2" d="M-361.7,249.4h-13v-1h13V249.4z M-383.4,249.4h-13v-1h13V249.4z"/>
	<polygon class="st2" points="-347,247 -347,257 -351,257 -351,250 -356,250 -356,247 	"/>
	<g>
		<path class="st2" d="M-340.2,254.2c-2.5,2.2-4.7,5.8-5.8,8.2l-1.2,2.6l-1.2-2.5c-1.1-2.4-3.3-6-5.8-8.2l-3.2-2.9l10.2,2.9l10.2-3
			L-340.2,254.2z"/>
		<path class="st2" d="M-347.2,262.1c-1.3-2.8-3.6-6.4-6.1-8.5l6.1,1.7l6.1-1.7C-343.6,255.8-345.9,259.3-347.2,262.1z"/>
	</g>
</g>
</svg>
