<?xml version="1.0" encoding="utf-8"?>
<!-- Generator: Adobe Illustrator 19.1.0, SVG Export Plug-In . SVG Version: 6.00 Build 0)  -->
<svg version="1.1" id="Layer_1" xmlns="http://www.w3.org/2000/svg" xmlns:xlink="http://www.w3.org/1999/xlink" x="0px" y="0px"
	 viewBox="-429 231 100 100" style="enable-background:new -429 231 100 100;" xml:space="preserve">
<style type="text/css">
	.st0{fill:#E80012;}
	.st1{fill:#FFFFFF;}
</style>
<g>
	<g>
		<path class="st0" d="M-351.3,326.6h-57.4c-11.2,0-20.3-9.1-20.3-20.3v-44.6c0-11.2,9.1-20.3,20.3-20.3h57.3
			c11.2,0,20.3,9.1,20.3,20.3v44.6C-331,317.5-340.1,326.6-351.3,326.6z"/>
	</g>
</g>
<path class="st1" d="M-369.6,300.2c3.9,0,7.5,0,11,0c1.5,0,3,0,4.5,0c7.3-0.2,12.8-6.1,12.4-13.2c-0.4-7.1-6.6-12.3-13.9-11.4
	c-1.8,0.2-1.9-0.8-2.2-2c-2.5-8.9-8-14.7-17.1-16.5c-8.3-1.6-15.3,1.1-20.8,7.5c-1.2,1.4-2.2,1.8-4,1.5c-4.1-0.8-7.7,2.7-7.1,6.8
	c0.3,1.8-0.1,2.6-1.7,3.4c-5.8,2.7-8.7,8.3-7.4,13.9c1.4,6.1,6.2,9.9,12.8,9.9c4.6,0,9.3,0,13.9,0c0.2,0,0.3,0.1,0.7,0.2
	c0,1.8,0,3.7,0,5.5c-6.4,0-12.9,0.7-19.2-0.2c-7.7-1.1-12.4-6.5-14.1-14c-1.7-7.8,1.1-14.1,7.3-19.1c0.9-0.7,1.6-1.9,1.9-3
	c1.2-5.2,5.3-9.1,10.6-9.6c1.7-0.2,3-0.8,4.3-2c14.1-13.1,36.6-8.5,44.4,9.2c0.7,1.5,1.5,2.1,3,2.4c9.1,1.8,15.8,10.5,14.9,19.2
	c-1,10.1-8.4,17.3-18.2,17.5c-4.5,0.1-9.1,0-13.6,0.1c-1.6,0-2.3-0.5-2.2-2.1C-369.5,303-369.6,301.8-369.6,300.2z"/>
<g>
	<path class="st1" d="M-379.5,310.1c-3.9-1.2-5.8-3.2-6-6.4c-0.1-1.7,0-3.3,0-5.1c0.8,0,1.6-0.1,2.7-0.1c-0.1-1.1-0.2-2.2-0.2-3.2
		c0-0.9,0.3-1.6,1.3-1.5c1,0,1.3,0.7,1.3,1.6c0,1-0.1,2.1-0.1,3.3c1.2-0.1,2.2-0.1,3.6-0.2c0-0.8-0.1-1.9-0.1-2.9
		c0-0.9,0.3-1.7,1.3-1.7c1.1,0,1.4,0.7,1.3,1.6c0,1-0.1,2-0.1,3.2c0.9,0,1.7,0.1,2.6,0.1c-0.1,2.1,0.1,4.2-0.3,6.1
		c-0.6,3-2.7,4.7-5.9,5.3c0,2.3,0.1,4.6,0.1,6.9c0,0.6,0.4,1.7-0.8,1.7c-1.1,0-0.7-1.1-0.7-1.7
		C-379.6,314.8-379.5,312.5-379.5,310.1z"/>
	<path class="st1" d="M-383,292c-0.9,0-1.6,0-2.6,0c0.1-2.2,0-4.4,0.4-6.4c0.6-2.9,2.8-4.5,5.8-5.1c0-2.3-0.1-4.6-0.1-6.9
		c0-0.6-0.4-1.7,0.8-1.7c1.1,0,0.7,1.1,0.7,1.7c0,2.3,0,4.6-0.1,6.9c0.9,0.3,1.7,0.5,2.5,0.9c2.1,1.2,3.4,2.9,3.5,5.3
		c0.1,1.7,0,3.5-0.1,5.4c-0.7-0.1-1.4-0.1-2.5-0.3c0.1-0.8,0.1-1.7,0.2-2.6c0-0.9-0.4-1.5-1.4-1.5c-0.9,0-1.3,0.6-1.3,1.5
		c0,0.9,0.1,1.8,0.1,2.7c-1.2-0.1-2.3-0.1-3.6-0.2c0.1-0.7,0.2-1.6,0.2-2.5c0-0.9-0.4-1.5-1.4-1.5c-0.9,0-1.3,0.6-1.3,1.5
		C-383.1,290.1-383,291.1-383,292z"/>
</g>
</svg>
