<?xml version="1.0" encoding="utf-8"?>
<!-- Generator: Adobe Illustrator 19.1.0, SVG Export Plug-In . SVG Version: 6.00 Build 0)  -->
<svg version="1.1" id="Layer_1" xmlns="http://www.w3.org/2000/svg" xmlns:xlink="http://www.w3.org/1999/xlink" x="0px" y="0px"
	 viewBox="-429 231 100 100" style="enable-background:new -429 231 100 100;" xml:space="preserve">
<style type="text/css">
	.st0{fill:#E80012;}
	.st1{fill:#FFFFFF;}
</style>
<g>
	<g>
		<path class="st0" d="M-350.3,323.6h-57.4c-11.2,0-20.3-9.1-20.3-20.3v-44.6c0-11.2,9.1-20.3,20.3-20.3h57.3
			c11.3,0,20.4,9.1,20.4,20.3v44.6C-330,314.5-339.1,323.6-350.3,323.6z"/>
	</g>
</g>
<g>
	<path class="st1" d="M-396.4,283.2c0-8.7,0-17.3,0-26c0-3.9,1.7-5.6,5.6-5.6c8.3,0,16.5,0,24.8,0c3.7,0,5.4,1.8,5.4,5.4
		c0,17.4,0,34.8,0,52.2c0,3.7-1.8,5.4-5.4,5.4c-8.3,0-16.7,0-25,0c-3.5,0-5.3-1.8-5.3-5.3C-396.4,300.7-396.4,292-396.4,283.2z
		 M-394.2,299.9c10.5,0,21,0,31.4,0c0-13.3,0-26.6,0-39.8c-10.5,0-20.9,0-31.4,0C-394.2,273.4-394.2,286.6-394.2,299.9z
		 M-362.7,302.3c-10.6,0-21,0-31.5,0c0,2.3,0,4.6,0,6.9c0,2.8,0.8,3.6,3.6,3.6c8.1,0,16.3,0,24.4,0c0.4,0,0.8,0,1.2-0.1
		c1.4-0.2,2.3-1,2.3-2.4C-362.7,307.6-362.7,305-362.7,302.3z M-362.8,258c0.3-3.3-0.5-4.2-3.6-4.2c-8.1,0-16.3,0-24.4,0
		c-2.9,0-3.9,1.3-3.3,4.2C-383.7,258-373.3,258-362.8,258z"/>
	<path class="st1" d="M-382.7,276.9c0-4,0.2-4.2,4.3-4.2c3.9,0,4.1,0.3,4.1,4.1c0,4.2-0.2,4.3-4.4,4.3
		C-382.4,281.1-382.7,280.8-382.7,276.9z M-376.5,279c0-1.4,0-2.8,0-4.1c-1.4,0-2.7,0-4.1,0c0,1.2,0,2.2,0,3.3
		c0,0.3,0.4,0.7,0.6,0.8C-378.8,279-377.7,279-376.5,279z"/>
	<path class="st1" d="M-387.9,281.1c-4,0-4.3-0.2-4.3-4.2s0.2-4.2,4.2-4.2c4.1,0,4.2,0.2,4.3,4.2
		C-383.7,280.3-383.9,281.3-387.9,281.1z M-385.9,279c0-1.4,0-2.7,0-4c-1.4,0-2.7,0-4,0c0,1.4,0,2.7,0,4
		C-388.6,279-387.3,279-385.9,279z"/>
	<path class="st1" d="M-373.2,276.8c0-3.8,0.3-4.1,4-4.1c4.2,0,4.4,0.1,4.4,4.3c0,3.8-0.3,4.1-4.2,4.1
		C-373,281.1-373.2,280.9-373.2,276.8z M-367,278.9c0-1.4,0-2.7,0-4c-1.4,0-2.7,0-4,0c0,1.4,0,2.7,0,4
		C-369.7,278.9-368.4,278.9-367,278.9z"/>
	<path class="st1" d="M-388,271.7c-3.9,0-4.2-0.2-4.2-4.2s0.2-4.2,4.2-4.2s4.3,0.2,4.3,4.2S-383.9,271.7-388,271.7z M-386,269.5
		c0-1.4,0-2.7,0-4c-1.4,0-2.7,0-4,0c0,1.4,0,2.6,0,4C-388.6,269.5-387.3,269.5-386,269.5z"/>
	<path class="st1" d="M-378.6,271.7c-3.9,0-4.1-0.2-4.1-4.1c0-4.1,0.2-4.3,4.3-4.3c3.9,0,4.1,0.2,4.1,4.1
		C-374.3,271.5-374.5,271.7-378.6,271.7z M-376.5,265.5c-1.4,0-2.7,0-4,0c0,1.4,0,2.6,0,4c1.4,0,2.7,0,4,0
		C-376.5,268.2-376.5,266.9-376.5,265.5z"/>
	<path class="st1" d="M-369,271.7c-4,0-4.2-0.2-4.2-4.2c0-3.9,0.3-4.2,4.2-4.2c4,0,4.2,0.2,4.2,4.3
		C-364.8,271.4-365,271.7-369,271.7z M-371.1,269.5c1.4,0,2.7,0,4,0c0-1.4,0-2.7,0-4c-1.4,0-2.7,0-4,0
		C-371.1,266.8-371.1,268.1-371.1,269.5z"/>
	<path class="st1" d="M-378.5,282.2c4,0,4.2,0.2,4.2,4.2c0,3.9-0.3,4.2-4.2,4.2s-4.2-0.3-4.2-4.2
		C-382.7,282.4-382.5,282.2-378.5,282.2z M-376.4,288.4c0-1.2,0-2.2,0-3.3c0-0.3-0.2-0.7-0.4-0.7c-1.2-0.1-2.4,0-3.7,0
		c0,1.5,0,2.7,0,4.1C-379.1,288.4-377.9,288.4-376.4,288.4z"/>
	<path class="st1" d="M-369,282.2c4,0,4.2,0.2,4.2,4.2s-0.3,4.2-4.3,4.2c-3.9,0-4.2-0.3-4.2-4.2C-373.2,282.4-373.1,282.2-369,282.2
		z M-371,284.3c0,1.4,0,2.7,0,4c1.4,0,2.7,0,4,0c0-1.4,0-2.7,0-4C-368.4,284.3-369.7,284.3-371,284.3z"/>
	<path class="st1" d="M-387.9,282.2c3.9,0,4.1,0.2,4.1,4.1c0,4.1-0.2,4.3-4.3,4.3c-3.9,0-4.1-0.3-4.1-4.1
		C-392.2,282.4-392,282.2-387.9,282.2z M-385.9,288.4c0-1.4,0-2.7,0-4c-1.4,0-2.7,0-4,0c0,1.4,0,2.7,0,4
		C-388.6,288.4-387.3,288.4-385.9,288.4z"/>
	<path class="st1" d="M-378.6,311.6c-2.3,0-4.1-1.9-4.1-4.2c0-2.3,2-4.2,4.3-4.2c2.3,0,4.1,1.9,4.1,4.2
		C-374.3,309.8-376.2,311.6-378.6,311.6z M-378.6,305.4c-1.1,0-2,0.9-2,2.1s1,2.1,2.1,2.1s2-1,2-2.1
		C-376.5,306.2-377.4,305.3-378.6,305.4z"/>
	<path class="st1" d="M-380.5,254.9c0.7,0,1.4-0.1,2.1,0c0.4,0.1,0.8,0.6,0.8,0.9s-0.5,1-0.8,1c-1.5,0.1-3,0.1-4.5,0
		c-0.3,0-0.8-0.6-0.8-1c0-0.3,0.5-0.9,0.8-0.9C-382,254.8-381.2,254.9-380.5,254.9L-380.5,254.9z"/>
	<path class="st1" d="M-374.7,257.4c-0.7-0.7-1.4-1-1.5-1.5c-0.2-0.9,0.6-1.1,1.3-1.1c0.8,0,1.7,0,1.6,1
		C-373.4,256.3-374.1,256.7-374.7,257.4z"/>
</g>
<g>
	<path class="st1" d="M-340.2,284.3c0,0.9,0,1.6,0,2.4c-4.5,0-9,0-13.6,0c0-0.8,0-1.5,0-2.4C-349.3,284.3-344.8,284.3-340.2,284.3z"
		/>
	<path class="st1" d="M-340.2,279.3c0,0.9,0,1.6,0,2.4c-4.5,0-9,0-13.6,0c0-0.8,0-1.5,0-2.4C-349.3,279.3-344.8,279.3-340.2,279.3z"
		/>
	<path class="st1" d="M-340.3,289.3c0,0.9,0,1.6,0,2.4c-4.6,0-9,0-13.6,0c0-0.8,0-1.6,0-2.4C-349.3,289.3-344.9,289.3-340.3,289.3z"
		/>
	<path class="st1" d="M-353.8,296.7c0-0.8,0-1.6,0-2.4c4.5,0,9,0,13.6,0c0,0.8,0,1.5,0,2.4C-344.8,296.7-349.3,296.7-353.8,296.7z"
		/>
	<path class="st1" d="M-340.2,264.4c0,0.9,0,1.6,0,2.4c-4.5,0-9.1,0-13.6,0c0-0.8,0-1.6,0-2.4C-349.3,264.4-344.8,264.4-340.2,264.4
		z"/>
	<path class="st1" d="M-353.9,301.7c0-0.8,0-1.6,0-2.4c4.5,0,9,0,13.6,0c0,0.8,0,1.5,0,2.4C-344.7,301.7-349.2,301.7-353.9,301.7z"
		/>
	<path class="st1" d="M-340.2,269.4c0,0.8,0,1.6,0,2.4c-4.5,0-9,0-13.6,0c0-0.8,0-1.6,0-2.4C-349.3,269.4-344.9,269.4-340.2,269.4z"
		/>
	<path class="st1" d="M-340.2,274.4c0,0.8,0,1.6,0,2.4c-4.5,0-9,0-13.6,0c0-0.8,0-1.5,0-2.4C-349.3,274.4-344.8,274.4-340.2,274.4z"
		/>
	<path class="st1" d="M-412.8,264.4c0,0.8,0,1.6,0,2.4c-0.8,0-1.6,0-2.4,0c0-0.8,0-1.6,0-2.4C-414.5,264.4-413.7,264.4-412.8,264.4z
		"/>
	<path class="st1" d="M-402.5,266.8c-0.9,0-1.6,0-2.4,0c0-0.8,0-1.6,0-2.4c0.8,0,1.5,0,2.4,0C-402.5,265.2-402.5,266-402.5,266.8z"
		/>
	<path class="st1" d="M-415.2,289.3c0.8,0,1.5,0,2.4,0c0,0.8,0,1.5,0,2.4c-0.8,0-1.5,0-2.4,0C-415.2,290.9-415.2,290.2-415.2,289.3z
		"/>
	<path class="st1" d="M-415.2,279.4c0.8,0,1.5,0,2.3,0c0,0.8,0,1.5,0,2.4c-0.7,0-1.5,0-2.3,0C-415.2,281-415.2,280.3-415.2,279.4z"
		/>
	<path class="st1" d="M-412.8,299.3c0,0.9,0,1.6,0,2.4c-0.8,0-1.6,0-2.4,0c0-0.7,0-1.5,0-2.4C-414.5,299.3-413.7,299.3-412.8,299.3z
		"/>
	<path class="st1" d="M-404.9,301.7c0-0.8,0-1.6,0-2.4c0.8,0,1.5,0,2.4,0c0,0.8,0,1.6,0,2.4C-403.3,301.7-404,301.7-404.9,301.7z"/>
	<path class="st1" d="M-415.3,286.7c0-0.8,0-1.5,0-2.3c0.8,0,1.6,0,2.4,0c0,0.8,0,1.5,0,2.3C-413.7,286.7-414.5,286.7-415.3,286.7z"
		/>
	<path class="st1" d="M-415.2,274.4c0.8,0,1.6,0,2.4,0c0,0.8,0,1.5,0,2.3c-0.8,0-1.5,0-2.4,0C-415.2,276.1-415.2,275.3-415.2,274.4z
		"/>
	<path class="st1" d="M-415.3,271.8c0-0.7,0-1.5,0-2.3c0.8,0,1.6,0,2.4,0c0,0.8,0,1.5,0,2.3C-413.6,271.8-414.4,271.8-415.3,271.8z"
		/>
	<path class="st1" d="M-412.8,296.7c-0.8,0-1.5,0-2.4,0c0-0.8,0-1.5,0-2.3c0.8,0,1.5,0,2.4,0C-412.8,295.1-412.8,295.8-412.8,296.7z
		"/>
	<path class="st1" d="M-407.7,266.9c-0.8,0-1.5,0-2.3,0c0-0.8,0-1.6,0-2.5c0.8,0,1.5,0,2.3,0C-407.7,265.2-407.7,265.9-407.7,266.9z
		"/>
	<path class="st1" d="M-410,299.3c0.8,0,1.6,0,2.4,0c0,0.8,0,1.6,0,2.4c-0.8,0-1.5,0-2.4,0C-410,300.9-410,300.2-410,299.3z"/>
</g>
</svg>
