<?xml version="1.0" encoding="utf-8"?>
<!-- Generator: Adobe Illustrator 19.1.0, SVG Export Plug-In . SVG Version: 6.00 Build 0)  -->
<svg version="1.1" id="Layer_1" xmlns="http://www.w3.org/2000/svg" xmlns:xlink="http://www.w3.org/1999/xlink" x="0px" y="0px"
	 viewBox="-429 231 100 100" style="enable-background:new -429 231 100 100;" xml:space="preserve">
<style type="text/css">
	.st0{fill:#E80012;}
	.st1{fill:#FFFFFF;}
	.st2{fill:#E80014;}
</style>
<g>
	<path class="st0" d="M-351.3,323.1h-57.4c-11.2,0-20.3-9.1-20.3-20.4v-44.6c0-11.2,9.1-20.3,20.3-20.3h57.3
		c11.3,0,20.4,9.1,20.4,20.3v44.6C-331,314-340.1,323.1-351.3,323.1z"/>
	<g>
		<rect x="-350" y="299" class="st1" width="4" height="7"/>
		<rect x="-349.4" y="300.2" class="st1" width="1.3" height="4.5"/>
		<polygon class="st1" points="-356,315 -356,312 -350,312 -350,308 -346,308 -346,315 		"/>
		<polygon class="st1" points="-349.4,308.9 -348.2,308.9 -348.2,313.9 -354.5,313.9 -354.5,312.9 -349.4,312.9 		"/>
		<path class="st1" d="M-378,315v-3h17v3H-378z M-400,315v-3h17v3H-400z"/>
		<path class="st1" d="M-398,312.9h13v1h-13V312.9z M-376.3,312.9h13v1h-13C-376.3,313.9-376.3,312.9-376.3,312.9z"/>
		<polygon class="st1" points="-414,315 -414,305 -410,305 -410,312 -405,312 -405,315 		"/>
		<polygon class="st1" points="-413.1,306.2 -411.8,306.2 -411.8,312.9 -406.7,312.9 -406.7,313.9 -413.1,313.9 		"/>
		<g>
			<path class="st1" d="M-419.4,308.1c2.5-2.2,4.7-5.8,5.8-8.2l1.2-2.5l1.2,2.5c1.1,2.4,3.3,6,5.8,8.2l3.2,2.9l-10.2-2.9l-10.3,2.9
				L-419.4,308.1z"/>
			<path class="st1" d="M-412.4,300.2c1.3,2.8,3.6,6.4,6.1,8.5l-6.1-1.7l-6.1,1.7C-416.1,306.5-413.8,303-412.4,300.2z"/>
		</g>
	</g>
	<g>
		<rect x="-414" y="256" class="st1" width="4" height="7"/>
		<rect x="-411.5" y="257.6" class="st1" width="1.3" height="4.5"/>
		<polygon class="st1" points="-404,247 -404,250 -410,250 -410,254 -414,254 -414,247 		"/>
		<polygon class="st1" points="-410.2,253.4 -411.5,253.4 -411.5,248.4 -405.1,248.4 -405.1,249.4 -410.2,249.4 		"/>
		<path class="st1" d="M-382,247v3h-17v-3H-382z M-360,247v3h-17v-3H-360z"/>
		<path class="st1" d="M-361.7,249.4h-13v-1h13V249.4z M-383.4,249.4h-13v-1h13V249.4z"/>
		<polygon class="st1" points="-346,247 -346,257 -350,257 -350,250 -355,250 -355,247 		"/>
		<polygon class="st1" points="-346.6,256.1 -347.9,256.1 -347.9,249.4 -353,249.4 -353,248.4 -346.6,248.4 		"/>
		<g>
			<path class="st1" d="M-340.2,254.2c-2.5,2.2-4.7,5.8-5.8,8.2l-1.2,2.6l-1.2-2.5c-1.1-2.4-3.3-6-5.8-8.2l-3.2-2.9l10.2,2.9l10.2-3
				L-340.2,254.2z"/>
			<path class="st1" d="M-347.2,262.1c-1.3-2.8-3.6-6.4-6.1-8.5l6.1,1.7l6.1-1.7C-343.6,255.8-345.9,259.3-347.2,262.1z"/>
		</g>
	</g>
</g>
<g>
	<path class="st1" d="M-403.8,277.5c0.2-0.6,0.7-0.9,1.1-1.3c0.6-0.5,1.7-0.1,2,0.7c0.2,0.5,0.3,1,0.4,1.5c0.1,0.4,0,0.8-0.3,1.1
		l-0.1,0.1c-0.4,0.4-0.4,0.4-0.2,1c0.6,1.5,1.7,2.5,3.3,3.1c0.2,0.1,0.3,0.1,0.4-0.1c0.1-0.1,0.2-0.2,0.3-0.3
		c0.3-0.3,0.7-0.4,1.2-0.3s1,0.2,1.5,0.4c0.7,0.2,1.1,1.1,0.9,1.8c-0.1,0.2-0.2,0.3-0.3,0.4c-0.1,0.2-0.3,0.3-0.4,0.4
		c-0.2,0.2-0.4,0.4-0.8,0.5c-0.3,0-0.5,0-0.8,0c-0.2,0-0.4-0.1-0.6-0.1c-3.5-0.5-6.4-3.1-7.3-6.5c-0.1-0.5-0.2-1.1-0.3-1.6
		C-403.8,278-403.8,277.7-403.8,277.5z"/>
	<path class="st1" d="M-397.7,275.2c0.4,0.1,0.9,0.1,1.3,0.3c2.2,0.8,3.5,2.4,3.8,4.7v0.1c0,0.2,0,0.3,0,0.5c-0.2,0-0.3,0-0.5,0
		c-0.1,0-0.1,0-0.2,0c0-1.3-0.5-2.5-1.5-3.5s-2.1-1.4-3.5-1.5c0-0.2,0-0.5,0-0.7C-398,275.2-397.9,275.2-397.7,275.2z"/>
	<path class="st1" d="M-395.3,280.8c-0.1-1.6-1.2-2.7-2.8-2.8c0-0.2,0-0.4,0-0.6c1.5-0.1,3.5,1.2,3.5,3.5
		C-394.9,280.8-395.1,280.8-395.3,280.8z"/>
	<path class="st1" d="M-398.2,279.5c0.7-0.1,1.4,0.6,1.4,1.4c-0.2,0-0.4,0-0.5,0c-0.1,0-0.1-0.1-0.1-0.2c-0.1-0.3-0.3-0.4-0.5-0.5
		c-0.1,0-0.1-0.1-0.2-0.2C-398.2,279.8-398.2,279.7-398.2,279.5z"/>
</g>
<g>
	<path class="st1" d="M-367.3,276.8c0.2-0.6,0.7-0.9,1.1-1.3c0.6-0.5,1.7-0.1,2,0.7c0.2,0.5,0.3,1,0.4,1.5c0.1,0.4,0,0.8-0.3,1.1
		l-0.1,0.1c-0.4,0.4-0.4,0.4-0.2,1c0.6,1.5,1.7,2.5,3.3,3.1c0.2,0.1,0.3,0.1,0.4-0.1c0.1-0.1,0.2-0.2,0.3-0.3
		c0.3-0.3,0.7-0.4,1.2-0.3c0.5,0.1,1,0.2,1.5,0.4c0.7,0.2,1.1,1.1,0.9,1.8c-0.1,0.2-0.2,0.3-0.3,0.4c-0.1,0.2-0.3,0.3-0.4,0.4
		c-0.2,0.2-0.4,0.4-0.8,0.5c-0.3,0-0.5,0-0.8,0c-0.2,0-0.4-0.1-0.6-0.1c-3.5-0.5-6.4-3.1-7.3-6.5c-0.1-0.5-0.2-1.1-0.3-1.6
		C-367.3,277.3-367.3,277.1-367.3,276.8z"/>
	<path class="st1" d="M-361.2,274.5c0.4,0.1,0.9,0.1,1.3,0.3c2.2,0.8,3.5,2.4,3.8,4.7v0.1c0,0.2,0,0.3,0,0.5c-0.2,0-0.3,0-0.5,0
		c-0.1,0-0.1,0-0.2,0c0-1.3-0.5-2.5-1.5-3.5s-2.1-1.4-3.5-1.5c0-0.2,0-0.5,0-0.7C-361.5,274.5-361.3,274.5-361.2,274.5z"/>
	<path class="st1" d="M-358.8,280.1c-0.1-1.6-1.2-2.7-2.8-2.8c0-0.2,0-0.4,0-0.6c1.5-0.1,3.5,1.2,3.5,3.5
		C-358.3,280.1-358.5,280.1-358.8,280.1z"/>
	<path class="st1" d="M-361.6,278.8c0.7-0.1,1.4,0.6,1.4,1.4c-0.2,0-0.4,0-0.5,0c-0.1,0-0.1-0.1-0.1-0.2c-0.1-0.3-0.3-0.4-0.5-0.5
		c-0.1,0-0.1-0.1-0.2-0.2C-361.6,279.1-361.6,279-361.6,278.8z"/>
</g>
<path class="st2" d="M-394.1,294h-3c-0.4,0-0.7-0.3-0.7-0.7v-0.5c0-0.4,0.3-0.7,0.7-0.7h3c0.4,0,0.7,0.3,0.7,0.7v0.5
	C-393.3,293.6-393.7,294-394.1,294z"/>
<g>
	<path class="st1" d="M-409,281c0-4.5,0-8.9,0-13.4c0-2.7,1.2-3.8,3.9-3.8c4.3,0,8.7,0,13,0c2.6,0,3.9,1.3,3.9,3.9
		c0,8.9,0,17.8,0,26.8c0,2.7-1.2,3.9-3.8,3.9c-4.4,0-8.8,0-13.2,0c-2.6,0-3.7-1.2-3.7-3.8C-409,290-409,285.5-409,281z
		 M-406.6,279.8c0,3.9,0,7.9,0,11.8c0,1.3,0.4,1.8,1.7,1.8c4.2-0.1,8.3-0.1,12.5,0c1.3,0,1.7-0.6,1.7-1.8c0-7.9,0-15.7,0-23.6
		c0-1.4-0.6-1.8-1.9-1.8c-4,0.1-8,0.1-12,0c-1.5,0-2.1,0.4-2,2C-406.5,272-406.6,275.9-406.6,279.8z M-398.5,294.8
		c-0.9,0.3-1.7,0.6-2.5,0.9c0.8,0.3,1.6,0.7,2.4,0.7c0.8,0,1.5-0.4,2.3-0.6C-397.1,295.6-397.8,295.2-398.5,294.8z"/>
	<path class="st2" d="M-396.7,296.9h-4c-0.4,0-0.7-0.3-0.7-0.7v-0.9c0-0.4,0.3-0.7,0.7-0.7h4c0.4,0,0.7,0.3,0.7,0.7v0.9
		C-396,296.6-396.3,296.9-396.7,296.9z"/>
</g>
<g>
	<path class="st1" d="M-372.2,281c0-4.5,0-8.9,0-13.4c0-2.7,1.2-3.8,3.9-3.8c4.3,0,8.7,0,13,0c2.6,0,3.9,1.3,3.9,3.9
		c0,8.9,0,17.8,0,26.8c0,2.7-1.2,3.9-3.8,3.9c-4.4,0-8.8,0-13.2,0c-2.6,0-3.7-1.2-3.7-3.8C-372.2,290-372.2,285.5-372.2,281z
		 M-369.8,279.8c0,3.9,0,7.9,0,11.8c0,1.3,0.4,1.8,1.7,1.8c4.2-0.1,8.3-0.1,12.5,0c1.3,0,1.7-0.6,1.7-1.8c0-7.9,0-15.7,0-23.6
		c0-1.4-0.6-1.8-1.9-1.8c-4,0.1-8,0.1-12,0c-1.5,0-2.1,0.4-2,2C-369.7,272-369.8,275.9-369.8,279.8z M-361.7,294.8
		c-0.9,0.3-1.7,0.6-2.5,0.9c0.8,0.3,1.6,0.7,2.4,0.7c0.8,0,1.5-0.4,2.3-0.6C-360.3,295.6-361,295.2-361.7,294.8z"/>
	<path class="st2" d="M-359.5,296.9h-4c-0.4,0-0.7-0.3-0.7-0.7v-0.9c0-0.4,0.3-0.7,0.7-0.7h4c0.4,0,0.7,0.3,0.7,0.7v0.9
		C-358.8,296.6-359.1,296.9-359.5,296.9z"/>
</g>
</svg>
