<?xml version="1.0" encoding="utf-8"?>
<!-- Generator: Adobe Illustrator 21.0.2, SVG Export Plug-In . SVG Version: 6.00 Build 0)  -->
<svg version="1.1" id="Layer_1" xmlns="http://www.w3.org/2000/svg" xmlns:xlink="http://www.w3.org/1999/xlink" x="0px" y="0px"
	 viewBox="0 0 25 25" style="enable-background:new 0 0 25 25;" xml:space="preserve">
<style type="text/css">
	.st0{fill:#FACCD0;}
	.st1{fill:#F15C69;}
	.st2{fill:#B6DDA2;}
	.st3{fill:#6DBC45;}
	.st4{fill:#D7E8F9;}
	.st5{fill:#4494E7;}
	.st6{fill:#F5CDA5;}
	.st7{fill:#E6831F;}
	.st8{fill:#BDB5F0;}
	.st9{fill:#665DA3;}
	.st10{fill:#E80014;}
	.st11{fill:#6F8695;}
	.st12{fill:#49AB17;}
	.st13{fill:#FFFFFF;}
	.st14{fill:url(#SVGID_1_);}
	.st15{fill:#665CAC;}
	.st16{fill:url(#a_4_);}
	.st17{opacity:0.99;fill:#FFFFFF;}
	.st18{fill:#1AD14D;}
	.st19{fill:url(#SVGID_2_);}
	.st20{fill:url(#SVGID_3_);}
	.st21{fill:#FDE604;}
	.st22{fill:#3B1E1E;}
	.st23{fill:#6AD124;}
	.st24{fill:#FFFC00;}
	.st25{fill:#020202;}
	.st26{fill:none;}
	.st27{fill:url(#SVGID_4_);}
	.st28{fill:url(#SVGID_5_);}
	.st29{opacity:0.28;}
	.st30{fill:#129B58;}
	.st31{fill:#E5E5E5;}
	.st32{fill:url(#SVGID_6_);}
	.st33{fill:url(#a_5_);}
	.st34{fill:url(#SVGID_7_);}
	.st35{fill:url(#SVGID_8_);}
	.st36{fill:url(#SVGID_9_);}
	.st37{fill:url(#SVGID_10_);}
	.st38{fill:#9FA6EA;}
	.st39{fill:#6772E5;}
	.st40{fill:#F2F2F2;}
	.st41{fill:#F14336;}
	.st42{fill:#D32E2A;}
	.st43{fill:#1DA1F2;}
	.st44{fill:#CC2028;}
	.st45{fill:#7E3EC9;}
	.st46{fill:#007BB6;}
	.st47{fill:#4867AA;}
</style>
<g>
	<path class="st23" d="M21.6,23.3H3.4c-0.9,0-1.7-0.7-1.7-1.7V3.4c0-0.9,0.7-1.7,1.7-1.7h18.3c0.9,0,1.7,0.7,1.7,1.7v18.3
		C23.3,22.6,22.6,23.3,21.6,23.3z"/>
	<path class="st13" d="M19.8,12c0.5,0,0.9,0.4,0.9,0.8c0,0.5-0.4,0.8-0.9,0.8c-0.5,0-0.9-0.4-0.9-0.8C18.9,12.4,19.3,12,19.8,12z"/>
	<path class="st13" d="M12.9,15l-1.6,0l0-3.8h1.5L12.9,15L12.9,15z"/>
	<path class="st13" d="M12.1,14.2c0.4,0,0.8,0.3,0.8,0.8c0,0.4-0.3,0.8-0.8,0.8s-0.8-0.3-0.8-0.8C11.3,14.5,11.7,14.2,12.1,14.2z
		 M12.1,10.4c0.4,0,0.8,0.3,0.8,0.8s-0.3,0.8-0.8,0.8s-0.8-0.3-0.8-0.8C11.3,10.7,11.7,10.4,12.1,10.4z M6.6,14.2
		c0.4,0,0.7,0.3,0.7,0.8c0,0.4-0.3,0.8-0.7,0.8c-0.4,0-0.7-0.3-0.7-0.8C5.8,14.6,6.2,14.2,6.6,14.2z M6.6,8.4c0.4,0,0.8,0.3,0.8,0.8
		c0,0.4-0.3,0.8-0.8,0.8c-0.4,0-0.8-0.3-0.8-0.8C5.8,8.7,6.2,8.4,6.6,8.4z"/>
	<path class="st13" d="M5.8,9.2h1.5V12l1.5-1.4l1.1,1.1l-1,1l1.4,1.9l-1.3,0.9l-1.3-1.8L7.4,14l0,1L5.7,15L5.8,9.2L5.8,9.2z"/>
	<path class="st13" d="M9.3,10.4c0.4,0,0.8,0.3,0.8,0.8c0,0.4-0.3,0.8-0.8,0.8c-0.4,0-0.8-0.3-0.8-0.8S8.9,10.4,9.3,10.4L9.3,10.4z
		 M9.7,14.2c0.4,0,0.8,0.3,0.8,0.8c0,0.4-0.3,0.8-0.8,0.8c-0.4,0-0.8-0.3-0.8-0.8C8.9,14.6,9.2,14.2,9.7,14.2z M14.7,14.2
		c0.4,0,0.8,0.3,0.8,0.8c0,0.4-0.3,0.8-0.8,0.8c-0.4,0-0.8-0.3-0.8-0.8C14,14.6,14.3,14.2,14.7,14.2z M14.7,8.4
		c0.4,0,0.8,0.3,0.8,0.8c0,0.4-0.3,0.8-0.8,0.8c-0.4,0-0.8-0.3-0.8-0.8C14,8.7,14.3,8.4,14.7,8.4z"/>
	<path class="st13" d="M14,9.2h1.5V12l1.5-1.4l1.1,1.1l-1,1l1.4,1.9l-1.3,0.9l-1.3-1.8L15.5,14l0,1L13.9,15L14,9.2L14,9.2z"/>
	<path class="st13" d="M17.5,10.4c0.4,0,0.8,0.3,0.8,0.8c0,0.4-0.3,0.8-0.8,0.8c-0.4,0-0.8-0.3-0.8-0.8
		C16.7,10.7,17.1,10.4,17.5,10.4L17.5,10.4z M17.8,14.2c0.4,0,0.8,0.3,0.8,0.8c0,0.4-0.3,0.8-0.8,0.8s-0.8-0.3-0.8-0.8
		C17.1,14.6,17.4,14.2,17.8,14.2z"/>
</g>
</svg>
