<?xml version="1.0" encoding="utf-8"?>
<!-- Generator: Adobe Illustrator 21.0.2, SVG Export Plug-In . SVG Version: 6.00 Build 0)  -->
<svg version="1.1" id="Layer_1" xmlns="http://www.w3.org/2000/svg" xmlns:xlink="http://www.w3.org/1999/xlink" x="0px" y="0px"
	 viewBox="0 0 75.3 75.3" style="enable-background:new 0 0 75.3 75.3;" xml:space="preserve">
<style type="text/css">
	.st0{fill:#FACCD0;}
	.st1{fill:#F15C69;}
	.st2{fill:#B6DDA2;}
	.st3{fill:#6DBC45;}
	.st4{fill:#D7E8F9;}
	.st5{fill:#4494E7;}
	.st6{fill:#F5CDA5;}
	.st7{fill:#E6831F;}
	.st8{fill:#BDB5F0;}
	.st9{fill:#665DA3;}
	.st10{fill:#E80014;}
	.st11{fill:#6F8695;}
	.st12{fill:#49AB17;}
	.st13{fill:#FFFFFF;}
	.st14{fill:url(#SVGID_1_);}
	.st15{fill:#665CAC;}
	.st16{fill:url(#a_4_);}
	.st17{opacity:0.99;fill:#FFFFFF;}
	.st18{fill:#1AD14D;}
	.st19{fill:url(#SVGID_2_);}
	.st20{fill:url(#SVGID_3_);}
	.st21{fill:#FDE604;}
	.st22{fill:#3B1E1E;}
	.st23{fill:#6AD124;}
	.st24{fill:#FFFC00;}
	.st25{fill:#020202;}
	.st26{fill:none;}
	.st27{fill:url(#SVGID_4_);}
	.st28{fill:url(#SVGID_5_);}
	.st29{opacity:0.28;}
	.st30{fill:#129B58;}
	.st31{fill:#E5E5E5;}
	.st32{fill:url(#SVGID_6_);}
	.st33{fill:url(#a_5_);}
	.st34{fill:url(#SVGID_7_);}
	.st35{fill:url(#SVGID_8_);}
	.st36{fill:url(#SVGID_9_);}
	.st37{fill:url(#SVGID_10_);}
	.st38{fill:#9FA6EA;}
	.st39{fill:#6772E5;}
	.st40{fill:#F2F2F2;}
	.st41{fill:#F14336;}
	.st42{fill:#D32E2A;}
	.st43{fill:#1DA1F2;}
	.st44{fill:#CC2028;}
	.st45{fill:#7E3EC9;}
	.st46{fill:#007BB6;}
	.st47{fill:#4867AA;}
</style>
<g>
	<g>
		<path class="st13" d="M69.8,33L69.8,33c0-0.6,0-1.2,0-1.7c-0.1-4.5-0.4-9-1.4-13.4C66.7,10.5,62,6,54.2,4.4
			c-4.1-0.9-8.3-1.3-12.5-1.3c-1.4,0-2.7,0-4.1-0.1c-1.4,0-2.7,0-4.1,0.1c-4.2,0-8.4,0.4-12.5,1.3C13.3,6,8.7,10.5,6.9,17.8
			c-1,4.4-1.3,8.9-1.4,13.4c0,0.6,0,1.2,0,1.7h0c0,0,0,0.1,0,0.1c0,0,0,0.1,0,0.1h0c0,0.6,0,1.2,0,1.7c0.1,4.5,0.4,9,1.4,13.4
			c1.7,7,6.1,11.5,13.4,13.2v8.1c0,2.4,3,3.6,4.7,1.8l8-8.5c0.2,0,0.4,0,0.5,0c1.4,0,2.7,0,4.1,0.1c1.4,0,2.7,0,4.1-0.1
			c4.2,0,8.4-0.4,12.5-1.3c7.8-1.6,12.4-6.1,14.1-13.4c1-4.4,1.3-8.9,1.4-13.4c0-0.6,0-1.2,0-1.7h0C69.8,33.1,69.8,33.1,69.8,33
			C69.8,33,69.8,33,69.8,33z"/>
		<path class="st15" d="M65.1,33L65.1,33c0-0.5,0-1,0-1.4c-0.1-3.7-0.3-7.5-1.2-11.1c-1.5-6-5.4-9.8-12.1-11.1
			c-3.5-0.7-7.1-1-10.7-1.1c-1.2,0-2.3,0-3.5,0c-1.2,0-2.3,0-3.5,0c-3.6,0-7.2,0.3-10.7,1.1c-6.7,1.4-10.6,5.1-12.1,11.1
			c-0.9,3.7-1.1,7.4-1.2,11.1c0,0.5,0,1,0,1.4h0c0,0,0,0,0,0.1c0,0,0,0,0,0.1h0c0,0.5,0,1,0,1.4c0.1,3.7,0.3,7.5,1.2,11.1
			c1.4,5.6,4.9,9.2,10.7,10.8v12.7c0,0.8,1,1.2,1.6,0.6l11.3-11.9c0.9,0,1.8,0,2.7,0c1.2,0,2.3,0,3.5,0c3.6,0,7.2-0.3,10.7-1.1
			c6.7-1.4,10.6-5.1,12.1-11.1c0.9-3.7,1.1-7.4,1.2-11.1c0-0.5,0-1,0-1.4h0C65.1,33.1,65.1,33.1,65.1,33C65.1,33,65.1,33,65.1,33z"
			/>
	</g>
	<path class="st13" d="M51.4,41.7c-1.1-0.9-2.2-1.6-3.3-2.4c-2.2-1.6-4.3-1.7-6,0.8c-0.9,1.4-2.3,1.5-3.6,0.9
		c-3.8-1.7-6.7-4.4-8.4-8.2c-0.8-1.7-0.7-3.2,1-4.4c0.9-0.6,1.9-1.4,1.8-2.8c-0.1-1.8-4.5-7.9-6.3-8.5c-0.7-0.3-1.4-0.2-2.2,0
		c-4.1,1.4-5.8,4.7-4.2,8.7c4.8,11.9,13.4,20.1,25.1,25.2c0.7,0.3,1.4,0.4,1.8,0.5c2.7,0,5.8-2.5,6.7-5.1
		C54.7,43.9,52.9,42.9,51.4,41.7L51.4,41.7z"/>
	<path class="st13" d="M41.3,18.9c-0.9-0.1-2-0.5-2.2,0.7c-0.2,1.3,1.1,1.1,1.9,1.3c5.6,1.3,7.6,3.3,8.5,8.9
		c0.1,0.8-0.1,2.1,1.2,1.9c1-0.2,0.7-1.2,0.7-1.9C51.5,24.4,46.9,19.6,41.3,18.9L41.3,18.9z"/>
	<path class="st13" d="M41.8,23.3c-0.6,0-1.2,0.1-1.4,0.7c-0.3,0.9,0.4,1.2,1,1.3c2.3,0.4,3.5,1.7,3.7,4c0.1,0.6,0.5,1.1,1.1,1.1
		c0.8-0.1,0.9-0.8,0.9-1.5C47.2,26.2,44.3,23.2,41.8,23.3L41.8,23.3z"/>
	<path class="st13" d="M39.5,16.4c9.1,1.4,13.3,5.7,14.5,14.9c0.1,0.8-0.2,2.1,1,2.1c1.3,0,1-1.2,1-2.1c0.1-8.6-7.4-16.6-16.2-16.9
		c-0.7,0.1-2-0.5-2.1,1C37.6,16.4,38.8,16.3,39.5,16.4L39.5,16.4z"/>
</g>
</svg>
