<?xml version="1.0" encoding="utf-8"?>
<!-- Generator: Adobe Illustrator 21.0.2, SVG Export Plug-In . SVG Version: 6.00 Build 0)  -->
<svg version="1.1" id="Layer_1" xmlns="http://www.w3.org/2000/svg" xmlns:xlink="http://www.w3.org/1999/xlink" x="0px" y="0px"
	 viewBox="0 0 25 25" style="enable-background:new 0 0 25 25;" xml:space="preserve">
<style type="text/css">
	.st0{fill:#FACCD0;}
	.st1{fill:#F15C69;}
	.st2{fill:#B6DDA2;}
	.st3{fill:#6DBC45;}
	.st4{fill:#D7E8F9;}
	.st5{fill:#4494E7;}
	.st6{fill:#F5CDA5;}
	.st7{fill:#E6831F;}
	.st8{fill:#BDB5F0;}
	.st9{fill:#665DA3;}
	.st10{fill:#E80014;}
	.st11{fill:#6F8695;}
	.st12{fill:#49AB17;}
	.st13{fill:#FFFFFF;}
	.st14{fill:url(#SVGID_1_);}
	.st15{fill:#665CAC;}
	.st16{fill:url(#a_4_);}
	.st17{opacity:0.99;fill:#FFFFFF;}
	.st18{fill:#1AD14D;}
	.st19{fill:url(#SVGID_2_);}
	.st20{fill:url(#SVGID_3_);}
	.st21{fill:#FDE604;}
	.st22{fill:#3B1E1E;}
	.st23{fill:#6AD124;}
	.st24{fill:#FFFC00;}
	.st25{fill:#020202;}
	.st26{fill:none;}
	.st27{fill:url(#SVGID_4_);}
	.st28{fill:url(#SVGID_5_);}
	.st29{opacity:0.28;}
	.st30{fill:#129B58;}
	.st31{fill:#E5E5E5;}
	.st32{fill:url(#SVGID_6_);}
	.st33{fill:url(#a_5_);}
	.st34{fill:url(#SVGID_7_);}
	.st35{fill:url(#SVGID_8_);}
	.st36{fill:url(#SVGID_9_);}
	.st37{fill:url(#SVGID_10_);}
	.st38{fill:#9FA6EA;}
	.st39{fill:#6772E5;}
	.st40{fill:#F2F2F2;}
	.st41{fill:#F14336;}
	.st42{fill:#D32E2A;}
	.st43{fill:#1DA1F2;}
	.st44{fill:#CC2028;}
	.st45{fill:#7E3EC9;}
	.st46{fill:#007BB6;}
	.st47{fill:#4867AA;}
</style>
<g>
	<polygon class="st13" points="11.5,8.8 5.4,15.2 10.9,12.2 13.7,15.2 19.7,8.8 14.3,11.8 	"/>
	<path class="st13" d="M17.6,17.3H7.1c-1.4,0-2.5-1.1-2.5-2.5v-5c0-1.4,1.1-2.5,2.5-2.5h10.5c1.4,0,2.5,1.1,2.5,2.5v5
		C20.1,16.1,19,17.3,17.6,17.3z"/>
	<g id="Facebook_Messenger_1_">
		<g>
			<linearGradient id="SVGID_1_" gradientUnits="userSpaceOnUse" x1="12.5" y1="2.9951" x2="12.5" y2="19.5359">
				<stop  offset="0" style="stop-color:#00C4FF"/>
				<stop  offset="0.1878" style="stop-color:#00BDFF"/>
				<stop  offset="0.4571" style="stop-color:#00AAFF"/>
				<stop  offset="0.7737" style="stop-color:#018BFF"/>
				<stop  offset="1" style="stop-color:#0171FF"/>
			</linearGradient>
			<path class="st14" d="M12.5,1.6c-6,0-10.8,4.5-10.8,10.1c0,3.2,1.6,6,4,7.9v3.9l3.7-2c1,0.3,2,0.4,3.1,0.4
				c6,0,10.8-4.5,10.8-10.1S18.5,1.6,12.5,1.6z M13.6,15.2l-2.8-3l-5.4,3l5.9-6.3l2.8,3l5.3-3L13.6,15.2z"/>
		</g>
	</g>
</g>
</svg>
