<?xml version="1.0" encoding="utf-8"?>
<!-- Generator: Adobe Illustrator 21.0.2, SVG Export Plug-In . SVG Version: 6.00 Build 0)  -->
<svg version="1.1" id="Layer_1" xmlns="http://www.w3.org/2000/svg" xmlns:xlink="http://www.w3.org/1999/xlink" x="0px" y="0px"
	 viewBox="0 0 75.3 75.3" style="enable-background:new 0 0 75.3 75.3;" xml:space="preserve">
<style type="text/css">
	.st0{fill:#FACCD0;}
	.st1{fill:#F15C69;}
	.st2{fill:#B6DDA2;}
	.st3{fill:#6DBC45;}
	.st4{fill:#D7E8F9;}
	.st5{fill:#4494E7;}
	.st6{fill:#F5CDA5;}
	.st7{fill:#E6831F;}
	.st8{fill:#BDB5F0;}
	.st9{fill:#665DA3;}
	.st10{fill:#E80014;}
	.st11{fill:#6F8695;}
	.st12{fill:#49AB17;}
	.st13{fill:#FFFFFF;}
	.st14{fill:url(#SVGID_1_);}
	.st15{fill:#665CAC;}
	.st16{fill:url(#a_4_);}
	.st17{opacity:0.99;fill:#FFFFFF;}
	.st18{fill:#1AD14D;}
	.st19{fill:url(#SVGID_2_);}
	.st20{fill:url(#SVGID_3_);}
	.st21{fill:#FDE604;}
	.st22{fill:#3B1E1E;}
	.st23{fill:#6AD124;}
	.st24{fill:#FFFC00;}
	.st25{fill:#020202;}
	.st26{fill:none;}
	.st27{fill:url(#SVGID_4_);}
	.st28{fill:url(#SVGID_5_);}
	.st29{opacity:0.28;}
	.st30{fill:#129B58;}
	.st31{fill:#E5E5E5;}
	.st32{fill:url(#SVGID_6_);}
	.st33{fill:url(#a_5_);}
	.st34{fill:url(#SVGID_7_);}
	.st35{fill:url(#SVGID_8_);}
	.st36{fill:url(#SVGID_9_);}
	.st37{fill:url(#SVGID_10_);}
	.st38{fill:#9FA6EA;}
	.st39{fill:#6772E5;}
	.st40{fill:#F2F2F2;}
	.st41{fill:#F14336;}
	.st42{fill:#D32E2A;}
	.st43{fill:#1DA1F2;}
	.st44{fill:#CC2028;}
	.st45{fill:#7E3EC9;}
	.st46{fill:#007BB6;}
	.st47{fill:#4867AA;}
</style>
<g>
	<path class="st30" d="M67.5,27.3c-1.1-5.9-3.6-11-7.7-15.3c-1.7-1.8-3.6-3.4-5.7-4.8C50.2,4.6,45.9,3,41.2,2.5
		c-0.6-0.1-1.1-0.1-1.7-0.2h-4c0,0.1-0.1,0.1-0.2,0.1c-1,0.1-2.1,0.2-3.1,0.4c-7.5,1.4-13.6,5.1-18.3,11c-3.9,4.9-6,10.4-6.5,16.7
		c-0.2,3,0,6,0.7,8.9c0.5,2.2,1.2,4.3,2.2,6.3c0.1,0.2,0.2,0.3,0.3,0.5c1.6,3.2,3.7,6,6.3,8.5c1.4,1.3,2.8,2.5,4.4,3.5
		c4.9,3.1,10.2,4.7,16,4.8c0.4,0,0.5,0.1,0.4,0.5c0,3.1,0,6.2,0,9.3c0,0.1,0,0.2,0,0.4c0.1,0,0.2-0.1,0.2-0.1
		c5.8-2.7,11.1-6.2,15.9-10.5c0.9-0.9,1.9-1.8,2.7-2.7c0.4-0.4,0.7-0.8,1.1-1.2c0.6-0.6,1.1-1.3,1.6-2c0.7-0.8,1.2-1.6,1.8-2.5
		c1.2-1.7,2.2-3.5,3.1-5.3c0.5-1,1-2.1,1.4-3.1c0,0,0,0,0-0.1c1.1-2.8,1.8-5.7,2.1-8.6c0.1-1,0.2-2.1,0.3-3.1
		C68.1,31.7,67.9,29.4,67.5,27.3z"/>
	<path class="st13" d="M20.9,24.1v13.6h7.8v7.4c0.1,0,0.1,0,0.2,0c2.9,0,5.2-3.2,5.6-7.4h0.1V24.1H20.9z"/>
	<path class="st13" d="M39.2,24.1v13.6H47v7.4c0.1,0,0.1,0,0.2,0c2.9,0,5.2-3.2,5.6-7.4h0.1V24.1H39.2z"/>
</g>
</svg>
