<?xml version="1.0" encoding="utf-8"?>
<!-- Generator: Adobe Illustrator 21.0.2, SVG Export Plug-In . SVG Version: 6.00 Build 0)  -->
<svg version="1.1" id="Layer_1" xmlns="http://www.w3.org/2000/svg" xmlns:xlink="http://www.w3.org/1999/xlink" x="0px" y="0px"
	 viewBox="0 0 43 43" style="enable-background:new 0 0 43 43;" xml:space="preserve">
<style type="text/css">
	.st0{fill:#FACCD0;}
	.st1{fill:#F15C69;}
	.st2{fill:#B6DDA2;}
	.st3{fill:#6DBC45;}
	.st4{fill:#D7E8F9;}
	.st5{fill:#4494E7;}
	.st6{fill:#F5CDA5;}
	.st7{fill:#E6831F;}
	.st8{fill:#BDB5F0;}
	.st9{fill:#665DA3;}
</style>
<g>
	<circle class="st4" cx="21.5" cy="21.5" r="20"/>
	<g>
		
			<rect x="10.6" y="22.1" transform="matrix(0.7071 -0.7071 0.7071 0.7071 -9.4283 21.6725)" class="st5" width="21.7" height="0.3"/>
		
			<rect x="21.3" y="11.4" transform="matrix(0.7071 -0.7071 0.7071 0.7071 -9.4283 21.6727)" class="st5" width="0.3" height="21.7"/>
		<g>
			<path class="st5" d="M23.5,9.6v1.2h-0.7c-0.3,0-0.4,0.1-0.5,0.2c-0.1,0.1-0.1,0.3-0.1,0.5v0.8h1.3l-0.2,1.3h-1.1V17h-1.4v-3.4
				h-1.1v-1.3h1.1v-1c0-0.6,0.2-1,0.5-1.3c0.3-0.3,0.7-0.5,1.2-0.5C22.9,9.6,23.3,9.6,23.5,9.6z"/>
		</g>
		<g>
			<path class="st5" d="M25.6,28.4c-0.2,0.3-0.4,0.5-0.7,0.7c0,0,0,0.1,0,0.2c0,0.4-0.1,0.8-0.2,1.2c-0.1,0.4-0.3,0.8-0.5,1.1
				c-0.2,0.4-0.5,0.7-0.8,0.9c-0.3,0.3-0.7,0.5-1.1,0.7c-0.4,0.2-0.9,0.2-1.4,0.2c-0.8,0-1.5-0.2-2.2-0.6c0.1,0,0.2,0,0.3,0
				c0.7,0,1.3-0.2,1.8-0.6c-0.3,0-0.6-0.1-0.8-0.3c-0.2-0.2-0.4-0.4-0.5-0.7c0.1,0,0.2,0,0.3,0c0.1,0,0.3,0,0.4,0
				c-0.3-0.1-0.6-0.2-0.8-0.5c-0.2-0.3-0.3-0.6-0.3-0.9v0c0.2,0.1,0.4,0.2,0.6,0.2c-0.2-0.1-0.3-0.3-0.5-0.5s-0.2-0.4-0.2-0.7
				c0-0.3,0.1-0.5,0.2-0.7c0.4,0.4,0.8,0.8,1.3,1.1c0.5,0.3,1.1,0.4,1.6,0.4c0-0.1,0-0.2,0-0.3c0-0.4,0.1-0.7,0.4-1s0.6-0.4,1-0.4
				c0.4,0,0.8,0.2,1,0.5c0.3-0.1,0.6-0.2,0.9-0.3c-0.1,0.3-0.3,0.6-0.6,0.8C25.1,28.6,25.3,28.5,25.6,28.4z"/>
		</g>
		<g>
			<path class="st5" d="M30.8,21.5H34c0,0.2,0.1,0.4,0.1,0.6c0,0.6-0.1,1.2-0.4,1.7c-0.3,0.5-0.7,0.9-1.1,1.2
				c-0.5,0.3-1.1,0.4-1.7,0.4c-0.5,0-0.9-0.1-1.3-0.3c-0.4-0.2-0.8-0.4-1.1-0.7c-0.3-0.3-0.5-0.7-0.7-1.1c-0.2-0.4-0.3-0.9-0.3-1.3
				c0-0.5,0.1-0.9,0.3-1.3c0.2-0.4,0.4-0.8,0.7-1.1c0.3-0.3,0.7-0.5,1.1-0.7c0.4-0.2,0.9-0.3,1.3-0.3c0.9,0,1.6,0.3,2.3,0.9
				l-0.9,0.9c-0.4-0.4-0.8-0.5-1.4-0.5c-0.4,0-0.7,0.1-1.1,0.3s-0.6,0.5-0.8,0.8c-0.2,0.3-0.3,0.7-0.3,1.1c0,0.4,0.1,0.8,0.3,1.1
				c0.2,0.3,0.4,0.6,0.8,0.8c0.3,0.2,0.7,0.3,1.1,0.3c0.3,0,0.5,0,0.7-0.1c0.2-0.1,0.4-0.2,0.5-0.3c0.1-0.1,0.3-0.2,0.4-0.4
				c0.1-0.1,0.2-0.3,0.2-0.4s0.1-0.2,0.1-0.3h-1.9V21.5z"/>
		</g>
		<g>
			<path class="st5" d="M10.6,18.6c0,0.2-0.1,0.4-0.2,0.5c-0.2,0.1-0.4,0.2-0.6,0.2h0c-0.2,0-0.4-0.1-0.6-0.2
				C9,19,8.9,18.8,8.9,18.6c0-0.2,0.1-0.4,0.2-0.5c0.2-0.1,0.4-0.2,0.6-0.2c0.2,0,0.4,0.1,0.6,0.2C10.5,18.2,10.5,18.4,10.6,18.6z
				 M10.5,20v4.4H9V20H10.5z M15.7,21.9v2.5h-1.5V22c0-0.3-0.1-0.6-0.2-0.7C14,21.1,13.8,21,13.5,21c-0.2,0-0.3,0.1-0.5,0.2
				s-0.2,0.2-0.3,0.4c0,0.1,0,0.2,0,0.4v2.5h-1.5c0-1.2,0-2.1,0-2.9c0-0.7,0-1.2,0-1.3l0-0.2h1.5v0.6h0c0.1-0.1,0.1-0.2,0.2-0.2
				c0.1-0.1,0.1-0.1,0.2-0.2c0.1-0.1,0.2-0.1,0.4-0.2c0.2,0,0.3-0.1,0.5-0.1c0.5,0,0.9,0.2,1.2,0.5C15.6,20.7,15.7,21.2,15.7,21.9z"
				/>
		</g>
	</g>
</g>
</svg>
