<?xml version="1.0" encoding="utf-8"?>
<!-- Generator: Adobe Illustrator 21.0.2, SVG Export Plug-In . SVG Version: 6.00 Build 0)  -->
<svg version="1.1" id="Layer_1" xmlns="http://www.w3.org/2000/svg" xmlns:xlink="http://www.w3.org/1999/xlink" x="0px" y="0px"
	 viewBox="0 0 75.3 75.3" style="enable-background:new 0 0 75.3 75.3;" xml:space="preserve">
<style type="text/css">
	.st0{fill:#FACCD0;}
	.st1{fill:#F15C69;}
	.st2{fill:#B6DDA2;}
	.st3{fill:#6DBC45;}
	.st4{fill:#D7E8F9;}
	.st5{fill:#4494E7;}
	.st6{fill:#F5CDA5;}
	.st7{fill:#E6831F;}
	.st8{fill:#BDB5F0;}
	.st9{fill:#665DA3;}
	.st10{fill:#E80014;}
	.st11{fill:#6F8695;}
	.st12{fill:#49AB17;}
	.st13{fill:#FFFFFF;}
	.st14{fill:url(#SVGID_1_);}
	.st15{fill:#665CAC;}
	.st16{fill:url(#a_4_);}
	.st17{opacity:0.99;fill:#FFFFFF;}
	.st18{fill:#1AD14D;}
	.st19{fill:url(#SVGID_2_);}
	.st20{fill:url(#SVGID_3_);}
	.st21{fill:#FDE604;}
	.st22{fill:#3B1E1E;}
	.st23{fill:#6AD124;}
	.st24{fill:#FFFC00;}
	.st25{fill:#020202;}
	.st26{fill:none;}
	.st27{fill:url(#SVGID_4_);}
	.st28{fill:url(#SVGID_5_);}
	.st29{opacity:0.28;}
	.st30{fill:#129B58;}
	.st31{fill:#E5E5E5;}
	.st32{fill:url(#SVGID_6_);}
	.st33{fill:url(#a_5_);}
	.st34{fill:url(#SVGID_7_);}
	.st35{fill:url(#SVGID_8_);}
	.st36{fill:url(#SVGID_9_);}
	.st37{fill:url(#SVGID_10_);}
	.st38{fill:#9FA6EA;}
	.st39{fill:#6772E5;}
	.st40{fill:#F2F2F2;}
	.st41{fill:#F14336;}
	.st42{fill:#D32E2A;}
	.st43{fill:#1DA1F2;}
	.st44{fill:#CC2028;}
	.st45{fill:#7E3EC9;}
	.st46{fill:#007BB6;}
	.st47{fill:#4867AA;}
</style>
<g>
	<g>
		<linearGradient id="SVGID_1_" gradientUnits="userSpaceOnUse" x1="37.6667" y1="5.2227" x2="37.6667" y2="69.6077">
			<stop  offset="0" style="stop-color:#00D40D"/>
			<stop  offset="0.3631" style="stop-color:#00CF0D"/>
			<stop  offset="0.7843" style="stop-color:#00C10C"/>
			<stop  offset="1" style="stop-color:#00B70C"/>
		</linearGradient>
		<path class="st14" d="M72.3,61.9c0,5.7-4.7,10.4-10.4,10.4H13.4C7.7,72.3,3,67.6,3,61.9V13.4C3,7.7,7.7,3,13.4,3h48.5
			c5.7,0,10.4,4.7,10.4,10.4V61.9z"/>
		<linearGradient id="SVGID_2_" gradientUnits="userSpaceOnUse" x1="37.6667" y1="5.2227" x2="37.6667" y2="69.6077">
			<stop  offset="0" style="stop-color:#00D40D"/>
			<stop  offset="0.3631" style="stop-color:#00CF0D"/>
			<stop  offset="0.7843" style="stop-color:#00C10C"/>
			<stop  offset="1" style="stop-color:#00B70C"/>
		</linearGradient>
		<path class="st19" d="M72.3,61.9c0,5.7-4.7,10.4-10.4,10.4H13.4C7.7,72.3,3,67.6,3,61.9V13.4C3,7.7,7.7,3,13.4,3h48.5
			c5.7,0,10.4,4.7,10.4,10.4V61.9z"/>
		<g>
			<path class="st13" d="M48.2,29c-5.2,0.3-9.8,1.7-13.5,5.1c-3.7,3.4-5.4,7.5-5,12.6c-2-0.2-3.9-0.5-5.8-0.6c-0.6-0.1-1.4,0-2,0.3
				c-1.8,1-3.6,2-5.6,3.2c0.4-1.6,0.6-3,1.1-4.3c0.3-1,0.2-1.5-0.8-2.2c-6.3-4.1-8.9-10.3-6.9-16.6c1.8-5.9,6.3-9.4,12.4-11.3
				c8.3-2.5,17.7,0.1,22.8,6.2C46.8,23.6,48,26.1,48.2,29z M25.3,26.1c0.1-1.4-1.1-2.6-2.5-2.7c-1.4,0-2.6,1.1-2.6,2.5
				c0,1.5,1,2.6,2.5,2.7C24.1,28.6,25.3,27.5,25.3,26.1z M38.9,26.1c0.1-1.4-1.1-2.6-2.5-2.7c-1.4,0-2.6,1.1-2.6,2.5
				c0,1.5,1,2.6,2.5,2.7C37.6,28.6,38.8,27.5,38.9,26.1z"/>
			<path class="st13" d="M60,59.3c-1.7-0.7-3.2-1.7-4.8-1.9c-1.6-0.2-3.3,0.7-5,0.9c-5.1,0.5-9.7-0.8-13.5-4.1
				c-7.2-6.2-6.2-15.7,2.2-20.8c7.4-4.5,18.3-3,23.5,3.3c4.6,5.5,4,12.7-1.5,17.3c-1.6,1.3-2.2,2.4-1.2,4.2
				C59.9,58.5,59.9,58.9,60,59.3z M43.1,42.2c1.2,0,2.2-1,2.3-2.2c0-1.3-1-2.3-2.2-2.3c-1.3,0-2.3,1.1-2.3,2.3
				C40.9,41.2,41.9,42.2,43.1,42.2z M54.5,42.2c1.2,0,2.2-1,2.3-2.2c0-1.3-1-2.3-2.2-2.3c-1.3,0-2.3,1.1-2.3,2.3
				C52.3,41.2,53.3,42.2,54.5,42.2z"/>
		</g>
	</g>
</g>
</svg>
