<?xml version="1.0" encoding="utf-8"?>
<!-- Generator: Adobe Illustrator 21.0.2, SVG Export Plug-In . SVG Version: 6.00 Build 0)  -->
<svg version="1.1" id="Layer_1" xmlns="http://www.w3.org/2000/svg" xmlns:xlink="http://www.w3.org/1999/xlink" x="0px" y="0px"
	 viewBox="0 0 25 25" style="enable-background:new 0 0 25 25;" xml:space="preserve">
<style type="text/css">
	.st0{fill:#FACCD0;}
	.st1{fill:#F15C69;}
	.st2{fill:#B6DDA2;}
	.st3{fill:#6DBC45;}
	.st4{fill:#D7E8F9;}
	.st5{fill:#4494E7;}
	.st6{fill:#F5CDA5;}
	.st7{fill:#E6831F;}
	.st8{fill:#BDB5F0;}
	.st9{fill:#665DA3;}
	.st10{fill:#E80014;}
	.st11{fill:#6F8695;}
	.st12{fill:#49AB17;}
	.st13{fill:#FFFFFF;}
	.st14{fill:url(#SVGID_1_);}
	.st15{fill:#665CAC;}
	.st16{fill:url(#a_4_);}
	.st17{opacity:0.99;fill:#FFFFFF;}
	.st18{fill:#1AD14D;}
	.st19{fill:url(#SVGID_2_);}
	.st20{fill:url(#SVGID_3_);}
	.st21{fill:#FDE604;}
	.st22{fill:#3B1E1E;}
	.st23{fill:#6AD124;}
	.st24{fill:#FFFC00;}
	.st25{fill:#020202;}
	.st26{fill:none;}
	.st27{fill:url(#SVGID_4_);}
	.st28{fill:url(#SVGID_5_);}
	.st29{opacity:0.28;}
	.st30{fill:#129B58;}
	.st31{fill:#E5E5E5;}
	.st32{fill:url(#SVGID_6_);}
	.st33{fill:url(#a_5_);}
	.st34{fill:url(#SVGID_7_);}
	.st35{fill:url(#SVGID_8_);}
	.st36{fill:url(#SVGID_9_);}
	.st37{fill:url(#SVGID_10_);}
	.st38{fill:#9FA6EA;}
	.st39{fill:#6772E5;}
	.st40{fill:#F2F2F2;}
	.st41{fill:#F14336;}
	.st42{fill:#D32E2A;}
	.st43{fill:#1DA1F2;}
	.st44{fill:#CC2028;}
	.st45{fill:#7E3EC9;}
	.st46{fill:#007BB6;}
	.st47{fill:#4867AA;}
</style>
<g>
	<g>
		<path class="st13" d="M8.4,9.6c0-1,0.3-1.9,0.8-2.6c0.5-0.7,1.2-1.1,2-1.1c0.7,0,1.1,0.2,1.5,0.6c0.3,0.4,0.5,0.9,0.5,1.6
			c0,0.4-0.1,0.9-0.2,1.4c-0.2,0.5-0.3,1.2-0.6,2c-0.2,0.7-0.4,1.3-0.5,1.8c-0.2,0.8,0,1.4,0.4,2c0.5,0.6,1.1,0.8,1.9,0.8
			c1.3,0,2.4-0.8,3.3-2.3c0.9-1.5,1.3-3.3,1.3-5.5c0-1.6-0.5-3-1.6-4c-1.1-1-2.5-1.6-4.5-1.6c-2.1,0-3.9,0.7-5.2,2
			c-1.3,1.4-2,3-2,4.9c0,1.1,0.3,2.1,1,2.9c0.2,0.2,0.3,0.5,0.2,0.8c-0.1,0.2-0.2,0.6-0.3,1.2c-0.1,0.2-0.2,0.3-0.3,0.4
			c-0.1,0.1-0.3,0.1-0.4,0c-1-0.4-1.7-1.1-2.2-2.1c-0.5-1-0.7-2.1-0.7-3.5c0-0.8,0.1-1.7,0.4-2.5C3.4,6,3.8,5.1,4.4,4.4
			c0.6-0.8,1.3-1.5,2.1-2.1c0.8-0.6,1.8-1.1,2.9-1.5c1.2-0.4,2.4-0.5,3.7-0.5c1.3,0,2.6,0.2,3.8,0.7C18,1.4,19,2,19.8,2.8
			c0.8,0.8,1.4,1.7,1.8,2.7c0.4,1,0.7,2.1,0.7,3.1c0,2.9-0.7,5.3-2.2,7.1c-1.5,1.9-3.3,2.8-5.6,2.8c-0.8,0-1.5-0.2-2.2-0.5
			c-0.7-0.3-1.1-0.8-1.4-1.3c-0.6,2.2-0.9,3.6-1,4c-0.3,1.2-1,2.5-2.1,4h-1c-0.2-2-0.2-3.6,0.1-4.8L8.8,12
			C8.5,11.3,8.4,10.5,8.4,9.6z"/>
	</g>
</g>
</svg>
