<?xml version="1.0" encoding="utf-8"?>
<!-- Generator: Adobe Illustrator 21.0.2, SVG Export Plug-In . SVG Version: 6.00 Build 0)  -->
<svg version="1.1" id="Layer_1" xmlns="http://www.w3.org/2000/svg" xmlns:xlink="http://www.w3.org/1999/xlink" x="0px" y="0px"
	 viewBox="0 0 25 25" style="enable-background:new 0 0 25 25;" xml:space="preserve">
<style type="text/css">
	.st0{fill:#FACCD0;}
	.st1{fill:#F15C69;}
	.st2{fill:#B6DDA2;}
	.st3{fill:#6DBC45;}
	.st4{fill:#D7E8F9;}
	.st5{fill:#4494E7;}
	.st6{fill:#F5CDA5;}
	.st7{fill:#E6831F;}
	.st8{fill:#BDB5F0;}
	.st9{fill:#665DA3;}
	.st10{fill:#E80014;}
	.st11{fill:#6F8695;}
	.st12{fill:#49AB17;}
	.st13{fill:#FFFFFF;}
	.st14{fill:url(#SVGID_1_);}
	.st15{fill:#665CAC;}
	.st16{fill:url(#a_4_);}
	.st17{opacity:0.99;fill:#FFFFFF;}
	.st18{fill:#1AD14D;}
	.st19{fill:url(#SVGID_2_);}
	.st20{fill:url(#SVGID_3_);}
	.st21{fill:#FDE604;}
	.st22{fill:#3B1E1E;}
	.st23{fill:#6AD124;}
	.st24{fill:#FFFC00;}
	.st25{fill:#020202;}
	.st26{fill:none;}
	.st27{fill:url(#SVGID_4_);}
	.st28{fill:url(#SVGID_5_);}
	.st29{opacity:0.28;}
	.st30{fill:#129B58;}
	.st31{fill:#E5E5E5;}
	.st32{fill:url(#SVGID_6_);}
	.st33{fill:url(#a_5_);}
	.st34{fill:url(#SVGID_7_);}
	.st35{fill:url(#SVGID_8_);}
	.st36{fill:url(#SVGID_9_);}
	.st37{fill:url(#SVGID_10_);}
	.st38{fill:#9FA6EA;}
	.st39{fill:#6772E5;}
	.st40{fill:#F2F2F2;}
	.st41{fill:#F14336;}
	.st42{fill:#D32E2A;}
	.st43{fill:#1DA1F2;}
	.st44{fill:#CC2028;}
	.st45{fill:#7E3EC9;}
	.st46{fill:#007BB6;}
	.st47{fill:#4867AA;}
</style>
<g>
	<g>
		<g>
			<linearGradient id="a_4_" gradientUnits="userSpaceOnUse" x1="3.7058" y1="21.1512" x2="19.7088" y2="5.4084">
				<stop  offset="0" style="stop-color:#6629E9"/>
				<stop  offset="0.3519" style="stop-color:#5B23CD"/>
				<stop  offset="0.7584" style="stop-color:#501DB3"/>
				<stop  offset="1" style="stop-color:#4C1BA9"/>
			</linearGradient>
			<path id="a_3_" class="st16" d="M23.3,17.8c0,0.1,0,0.4,0,0.6c0,0.5-0.1,1.1-0.1,1.4c-0.1,0.4-0.2,0.8-0.4,1.2
				c-0.2,0.4-0.5,0.8-0.8,1.1c-0.3,0.3-0.7,0.6-1.1,0.8c-0.3,0.2-0.7,0.3-1.2,0.4c-0.3,0.1-0.9,0.1-1.4,0.1c-0.2,0-0.5,0-0.6,0
				l-10.6,0c-0.1,0-0.4,0-0.6,0c-0.5,0-1.1-0.1-1.4-0.1C4.8,23.1,4.4,23,4,22.8C3.6,22.6,3.3,22.3,3,22c-0.3-0.3-0.6-0.7-0.8-1.1
				c-0.2-0.3-0.3-0.7-0.4-1.2c-0.1-0.3-0.1-0.9-0.1-1.4c0-0.2,0-0.5,0-0.6l0-10.6c0-0.1,0-0.4,0-0.6c0-0.5,0.1-1.1,0.1-1.4
				C1.9,4.8,2,4.4,2.2,4C2.4,3.6,2.7,3.3,3,3c0.3-0.3,0.7-0.6,1.1-0.8C4.4,2,4.8,1.9,5.2,1.8c0.3-0.1,0.9-0.1,1.4-0.1
				c0.2,0,0.5,0,0.6,0l10.6,0c0.1,0,0.4,0,0.6,0c0.5,0,1.1,0.1,1.4,0.1C20.2,1.9,20.6,2,21,2.2C21.4,2.4,21.7,2.7,22,3
				c0.3,0.3,0.6,0.7,0.8,1.1c0.2,0.3,0.3,0.7,0.4,1.2c0.1,0.3,0.1,0.9,0.1,1.4c0,0.2,0,0.5,0,0.6L23.3,17.8L23.3,17.8z"/>
		</g>
		<path class="st17" d="M12.5,3.8c-3.2,0-5.8,2.6-5.8,5.8s2.6,5.8,5.8,5.8s5.8-2.6,5.8-5.8S15.7,3.8,12.5,3.8z M14.1,7.2
			c0.3,0,0.6,0.3,0.6,0.6c0,0.3-0.3,0.6-0.6,0.6c-0.3,0-0.6-0.3-0.6-0.6C13.5,7.5,13.8,7.2,14.1,7.2z M10.8,7.2
			c0.3,0,0.6,0.3,0.6,0.6c0,0.3-0.3,0.6-0.6,0.6c-0.3,0-0.6-0.3-0.6-0.6C10.2,7.5,10.5,7.2,10.8,7.2z M15,13.1c-1.3,1-3.7,1-4.9,0
			C9.9,13,8.8,12,8.9,9.8c0.8,0,6.1,0,7.3,0C16.2,12.1,15.1,13,15,13.1z"/>
		<g>
			<path class="st13" d="M12.3,19.6c0,0.2-0.2,0.2-0.3,0.2c-0.1,0-0.1-0.2-0.1-0.2c0-0.8,0-0.8-0.8-0.8c-0.4,0-0.5,0.1-0.5,0.5
				c0,0.1,0,0.2,0,0.3c0,0.1,0,0.3-0.2,0.3c-0.2,0-0.2-0.2-0.2-0.3c0-0.6,0-1.3,0-1.9c0.3-0.2,0.4-0.1,0.4,0.3c0,0.8,0,0.8,0.8,0.8
				c0.6,0,0.5,0.1,0.5-0.6c0-0.1,0-0.2,0-0.2c0-0.1,0-0.3,0.2-0.3c0.2,0,0.2,0.2,0.2,0.3C12.2,18.3,12.2,18.9,12.3,19.6z"/>
			<path class="st13" d="M12.8,17.6c0.6-0.5,1.4-0.3,1.9,0.1c0.5,0.4,0.4,1.2,0,1.8c-0.4,0.3-0.8,0.4-1.2,0.3
				C12.4,19.6,12.1,18.3,12.8,17.6z M12.8,18.6c0,0.2,0,0.4,0.1,0.6c0.2,0.3,0.4,0.5,0.8,0.5c0.4,0,0.6-0.1,0.8-0.5
				c0.2-0.4,0.2-0.8,0-1.3c-0.1-0.2-0.2-0.3-0.4-0.4C13.3,17.3,12.8,17.7,12.8,18.6z"/>
			<path class="st13" d="M6.8,18.9c-0.1-0.5-0.5-0.9-0.7-1.4c0-0.1-0.1-0.1-0.1-0.2c0.2-0.1,0.3-0.1,0.4,0.1
				c0.1,0.3,0.3,0.5,0.5,0.8c0.1,0.2,0.2,0.3,0.3,0c0.1-0.3,0.3-0.5,0.4-0.8c0.1-0.2,0.2-0.3,0.4-0.2c0.1,0.1-0.1,0.2-0.1,0.3
				c-0.5,0.7-0.9,1.4-0.7,2.3C7.2,19.9,7.1,20,7,20c-0.1,0-0.1-0.1-0.1-0.2C6.8,19.5,6.8,19.2,6.8,18.9z"/>
			<path class="st13" d="M9.8,19.7c-0.2,0-0.3-0.1-0.4-0.3C9.3,18.9,9,19.1,8.7,19c-0.3,0-0.4,0.1-0.5,0.3c0,0.2-0.2,0.4-0.5,0.3
				C8,19,8.3,18.5,8.5,17.9c0,0,0-0.1,0.1-0.1c0.1-0.1,0-0.3,0.2-0.3c0.2,0,0.2,0.1,0.3,0.3c0.3,0.6,0.5,1.2,0.8,1.8
				C9.9,19.6,9.9,19.6,9.8,19.7z M8.8,17.9c-0.1,0.3-0.2,0.6-0.3,0.8c-0.1,0.1,0,0.2,0.1,0.2c0.2,0,0.4,0.1,0.5-0.1
				c0.1-0.1-0.1-0.3-0.1-0.4C9,18.2,8.9,18.1,8.8,17.9z"/>
			<path class="st13" d="M15.7,17.5c0.5-0.5,1.1-0.4,1.7-0.3c0.9,0.2,1.2,1.7,0.4,2.4c-0.6,0.4-1.7,0.4-2.1,0
				C15.1,19.1,15.1,18.2,15.7,17.5z M17.8,18.6c0-0.8-0.3-1.3-1-1.3c-0.7,0-1.1,0.5-1.1,1.2c0,0.8,0.4,1.3,1.1,1.3
				C17.4,19.8,17.8,19.4,17.8,18.6z"/>
			<path class="st13" d="M18.9,18c0,0-0.3,1-0.3,1.5c0,0-0.1,0-0.1,0c0-0.7,0.1-2.1,0.2-2.2c0-0.1,0.1-0.3,0.3-0.2
				c0.2,0,0.2,0.2,0.2,0.3C19.1,17.5,18.9,17.9,18.9,18z"/>
		</g>
	</g>
</g>
</svg>
