<?xml version="1.0" encoding="utf-8"?>
<!-- Generator: Adobe Illustrator 21.0.2, SVG Export Plug-In . SVG Version: 6.00 Build 0)  -->
<svg version="1.1" id="Layer_1" xmlns="http://www.w3.org/2000/svg" xmlns:xlink="http://www.w3.org/1999/xlink" x="0px" y="0px"
	 viewBox="0 0 25 25" style="enable-background:new 0 0 25 25;" xml:space="preserve">
<style type="text/css">
	.st0{fill:#FACCD0;}
	.st1{fill:#F15C69;}
	.st2{fill:#B6DDA2;}
	.st3{fill:#6DBC45;}
	.st4{fill:#D7E8F9;}
	.st5{fill:#4494E7;}
	.st6{fill:#F5CDA5;}
	.st7{fill:#E6831F;}
	.st8{fill:#BDB5F0;}
	.st9{fill:#665DA3;}
	.st10{fill:#E80014;}
	.st11{fill:#6F8695;}
	.st12{fill:#49AB17;}
	.st13{fill:#FFFFFF;}
	.st14{fill:url(#SVGID_1_);}
	.st15{fill:#665CAC;}
	.st16{fill:url(#a_4_);}
	.st17{opacity:0.99;fill:#FFFFFF;}
	.st18{fill:#1AD14D;}
	.st19{fill:url(#SVGID_2_);}
	.st20{fill:url(#SVGID_3_);}
	.st21{fill:#FDE604;}
	.st22{fill:#3B1E1E;}
	.st23{fill:#6AD124;}
	.st24{fill:#FFFC00;}
	.st25{fill:#020202;}
	.st26{fill:none;}
	.st27{fill:url(#SVGID_4_);}
	.st28{fill:url(#SVGID_5_);}
	.st29{opacity:0.28;}
	.st30{fill:#129B58;}
	.st31{fill:#E5E5E5;}
	.st32{fill:url(#SVGID_6_);}
	.st33{fill:url(#a_5_);}
	.st34{fill:url(#SVGID_7_);}
	.st35{fill:url(#SVGID_8_);}
	.st36{fill:url(#SVGID_9_);}
	.st37{fill:url(#SVGID_10_);}
	.st38{fill:#9FA6EA;}
	.st39{fill:#6772E5;}
	.st40{fill:#F2F2F2;}
	.st41{fill:#F14336;}
	.st42{fill:#D32E2A;}
	.st43{fill:#1DA1F2;}
	.st44{fill:#CC2028;}
	.st45{fill:#7E3EC9;}
	.st46{fill:#007BB6;}
	.st47{fill:#4867AA;}
</style>
<g>
	<path class="st13" d="M12.8,21c-4.3,0-9.1-5.1-8.7-9.4c0.4-4.1,5.8-7.8,9.8-7.3c3.5,0.5,6.7,4.9,6.5,8.5C20.2,16.5,16.5,21,12.8,21
		L12.8,21z"/>
	<linearGradient id="SVGID_1_" gradientUnits="userSpaceOnUse" x1="5.2727" y1="5.5766" x2="18.8985" y2="18.7108">
		<stop  offset="0" style="stop-color:#00ACEC"/>
		<stop  offset="1" style="stop-color:#019FD8"/>
	</linearGradient>
	<path class="st14" d="M15.8,23.1c-0.3-0.1-0.7-0.2-1-0.3c-0.3-0.1-0.6-0.1-1.7-0.1c-1,0-1.5,0-2.3-0.1c-3.9-0.7-7-3.5-8.1-7.4
		c-0.2-0.7-0.2-1.1-0.2-2.9c0-1.9,0-2-0.3-2.8C0.9,5.8,3.7,1.8,7.8,1.8c0.8,0,1.8,0.2,2.4,0.5c0.4,0.2,0.6,0.2,2.1,0.2
		c1.4,0,1.9,0,2.6,0.2c3,0.8,5.5,2.8,6.8,5.5c0.8,1.7,1.1,3.4,0.9,5.4c-0.1,1.1-0.1,1.2,0.1,1.8c0.8,2.3,0,4.9-1.8,6.4
		c-0.6,0.5-1.7,1-2.5,1.2C17.8,23.3,16.6,23.3,15.8,23.1L15.8,23.1L15.8,23.1z M14.5,19.5c1.6-0.3,3-1.3,3.5-2.5
		c0.7-1.4,0.5-3-0.4-4.1c-0.8-0.9-1.9-1.4-4.7-2c-1.8-0.4-2.3-0.6-2.7-1.1c-0.3-0.4-0.4-0.7-0.1-1.1c0.3-0.5,1-0.8,2-0.8
		c1.4-0.1,2,0.2,2.9,1.5c0.6,1,1.3,1.2,2.1,0.8c1.1-0.5,1-2.3-0.2-3.3c-1.1-0.9-2.3-1.3-4.4-1.3C10.4,5.7,9,6.1,8,7.1
		C7.2,7.8,7.1,8.3,7.1,9.5c0,1.3,0.1,1.6,1,2.4c0.9,0.8,1.6,1.1,4.2,1.7c1.8,0.4,2.3,0.7,2.8,1.2c0.2,0.2,0.3,0.4,0.3,0.9
		c0,0.5,0,0.6-0.4,1c-0.6,0.6-1.5,0.8-2.6,0.8c-1.3-0.1-1.9-0.5-2.6-1.8c-0.5-0.9-0.9-1.3-1.5-1.3c-1.4,0-1.9,1.2-1.2,2.7
		c0.6,1.3,1.9,2.2,3.5,2.5C11.5,19.6,13.6,19.6,14.5,19.5L14.5,19.5L14.5,19.5z"/>
</g>
<g>
	<g class="st29">
		<image style="overflow:visible;" width="83" height="83" xlink:href="A45E589.png"  transform="matrix(1 0 0 1 -29 -81)">
		</image>
	</g>
</g>
</svg>
