<?xml version="1.0" encoding="utf-8"?>
<!-- Generator: Adobe Illustrator 21.0.2, SVG Export Plug-In . SVG Version: 6.00 Build 0)  -->
<svg version="1.1" id="Layer_1" xmlns="http://www.w3.org/2000/svg" xmlns:xlink="http://www.w3.org/1999/xlink" x="0px" y="0px"
	 viewBox="0 0 25 25" style="enable-background:new 0 0 25 25;" xml:space="preserve">
<style type="text/css">
	.st0{fill:#FACCD0;}
	.st1{fill:#F15C69;}
	.st2{fill:#B6DDA2;}
	.st3{fill:#6DBC45;}
	.st4{fill:#D7E8F9;}
	.st5{fill:#4494E7;}
	.st6{fill:#F5CDA5;}
	.st7{fill:#E6831F;}
	.st8{fill:#BDB5F0;}
	.st9{fill:#665DA3;}
	.st10{fill:#E80014;}
	.st11{fill:#6F8695;}
	.st12{fill:#49AB17;}
	.st13{fill:#FFFFFF;}
	.st14{fill:url(#SVGID_1_);}
	.st15{fill:#665CAC;}
	.st16{fill:url(#a_4_);}
	.st17{opacity:0.99;fill:#FFFFFF;}
	.st18{fill:#1AD14D;}
	.st19{fill:url(#SVGID_2_);}
	.st20{fill:url(#SVGID_3_);}
	.st21{fill:#FDE604;}
	.st22{fill:#3B1E1E;}
	.st23{fill:#6AD124;}
	.st24{fill:#FFFC00;}
	.st25{fill:#020202;}
	.st26{fill:none;}
	.st27{fill:url(#SVGID_4_);}
	.st28{fill:url(#SVGID_5_);}
	.st29{opacity:0.28;}
	.st30{fill:#129B58;}
	.st31{fill:#E5E5E5;}
	.st32{fill:url(#SVGID_6_);}
	.st33{fill:url(#a_5_);}
	.st34{fill:url(#SVGID_7_);}
	.st35{fill:url(#SVGID_8_);}
	.st36{fill:url(#SVGID_9_);}
	.st37{fill:url(#SVGID_10_);}
	.st38{fill:#9FA6EA;}
	.st39{fill:#6772E5;}
	.st40{fill:#F2F2F2;}
	.st41{fill:#F14336;}
	.st42{fill:#D32E2A;}
	.st43{fill:#1DA1F2;}
	.st44{fill:#CC2028;}
	.st45{fill:#7E3EC9;}
	.st46{fill:#007BB6;}
	.st47{fill:#4867AA;}
</style>
<g>
	<path class="st45" d="M21.4,1.4C22,1.4,22.6,1.6,23,2c0.4,0.4,0.7,0.9,0.7,1.5v17.9c0,0.6-0.2,1.1-0.7,1.5c-0.4,0.4-1,0.7-1.6,0.7
		H3.6C3,23.6,2.4,23.4,2,23c-0.4-0.4-0.7-0.9-0.7-1.5V3.6C1.3,3,1.6,2.5,2,2c0.4-0.4,1-0.7,1.6-0.7H21.4z M4.1,21.4h16.7
		c0.4,0,0.6-0.2,0.6-0.6v-9.5h-2.4c0.1,0.4,0.1,0.8,0.1,1.1c0,1.8-0.7,3.4-2,4.7s-2.9,2-4.7,2c-1.8,0-3.4-0.7-4.7-2s-2-2.9-2-4.7
		c0-0.4,0-0.7,0.1-1.1H3.6v9.5C3.6,21.2,3.8,21.4,4.1,21.4z M15.7,9.4c-0.9-0.9-1.9-1.3-3.2-1.3c-1.2,0-2.3,0.4-3.2,1.3
		C8.5,10.2,8,11.3,8,12.5c0,1.2,0.4,2.3,1.3,3.1c0.9,0.9,1.9,1.3,3.2,1.3c1.2,0,2.3-0.4,3.2-1.3c0.9-0.9,1.3-1.9,1.3-3.1
		C17,11.3,16.5,10.2,15.7,9.4z M21.4,6.4V4.1c0-0.4-0.2-0.6-0.6-0.6h-2.2c-0.4,0-0.6,0.2-0.6,0.6v2.2c0,0.3,0.2,0.5,0.6,0.5h2.2
		C21.2,6.9,21.4,6.7,21.4,6.4z"/>
</g>
</svg>
