<?xml version="1.0" encoding="utf-8"?>
<!-- Generator: Adobe Illustrator 21.0.2, SVG Export Plug-In . SVG Version: 6.00 Build 0)  -->
<svg version="1.1" id="Layer_1" xmlns="http://www.w3.org/2000/svg" xmlns:xlink="http://www.w3.org/1999/xlink" x="0px" y="0px"
	 viewBox="0 0 25 25" style="enable-background:new 0 0 25 25;" xml:space="preserve">
<style type="text/css">
	.st0{fill:#FACCD0;}
	.st1{fill:#F15C69;}
	.st2{fill:#B6DDA2;}
	.st3{fill:#6DBC45;}
	.st4{fill:#D7E8F9;}
	.st5{fill:#4494E7;}
	.st6{fill:#F5CDA5;}
	.st7{fill:#E6831F;}
	.st8{fill:#BDB5F0;}
	.st9{fill:#665DA3;}
	.st10{fill:#E80014;}
	.st11{fill:#6F8695;}
	.st12{fill:#49AB17;}
	.st13{fill:#FFFFFF;}
	.st14{fill:url(#SVGID_1_);}
	.st15{fill:#665CAC;}
	.st16{fill:url(#a_4_);}
	.st17{opacity:0.99;fill:#FFFFFF;}
	.st18{fill:#1AD14D;}
	.st19{fill:url(#SVGID_2_);}
	.st20{fill:url(#SVGID_3_);}
	.st21{fill:#FDE604;}
	.st22{fill:#3B1E1E;}
	.st23{fill:#6AD124;}
	.st24{fill:#FFFC00;}
	.st25{fill:#020202;}
	.st26{fill:none;}
	.st27{fill:url(#SVGID_4_);}
	.st28{fill:url(#SVGID_5_);}
	.st29{opacity:0.28;}
	.st30{fill:#129B58;}
	.st31{fill:#E5E5E5;}
	.st32{fill:url(#SVGID_6_);}
	.st33{fill:url(#a_5_);}
	.st34{fill:url(#SVGID_7_);}
	.st35{fill:url(#SVGID_8_);}
	.st36{fill:url(#SVGID_9_);}
	.st37{fill:url(#SVGID_10_);}
	.st38{fill:#9FA6EA;}
	.st39{fill:#6772E5;}
	.st40{fill:#F2F2F2;}
	.st41{fill:#F14336;}
	.st42{fill:#D32E2A;}
	.st43{fill:#1DA1F2;}
	.st44{fill:#CC2028;}
	.st45{fill:#7E3EC9;}
	.st46{fill:#007BB6;}
	.st47{fill:#4867AA;}
</style>
<g>
	<path class="st30" d="M22,9.4c-0.3-1.9-1.2-3.5-2.5-4.9C19,3.9,18.4,3.4,17.7,3c-1.3-0.8-2.6-1.3-4.1-1.5c-0.2,0-0.4,0-0.5-0.1
		h-1.3c0,0,0,0-0.1,0c-0.3,0-0.7,0.1-1,0.1C8.4,2,6.4,3.2,4.9,5.1C3.7,6.6,3,8.4,2.8,10.4c-0.1,1,0,1.9,0.2,2.9
		c0.2,0.7,0.4,1.4,0.7,2c0,0.1,0.1,0.1,0.1,0.2c0.5,1,1.2,1.9,2,2.7c0.4,0.4,0.9,0.8,1.4,1.1c1.6,1,3.2,1.5,5.1,1.5
		c0.1,0,0.1,0,0.1,0.1c0,1,0,2,0,3c0,0,0,0.1,0,0.1c0,0,0.1,0,0.1,0c1.9-0.9,3.6-2,5.1-3.3c0.3-0.3,0.6-0.6,0.9-0.9
		c0.1-0.1,0.2-0.3,0.4-0.4c0.2-0.2,0.3-0.4,0.5-0.6c0.2-0.3,0.4-0.5,0.6-0.8c0.4-0.5,0.7-1.1,1-1.7c0.2-0.3,0.3-0.7,0.4-1
		c0,0,0,0,0,0c0.3-0.9,0.6-1.8,0.7-2.8c0-0.3,0.1-0.7,0.1-1C22.2,10.8,22.2,10.1,22,9.4z"/>
	<path class="st13" d="M7.1,8.4v4.3h2.5v2.4c0,0,0,0,0.1,0c0.9,0,1.7-1,1.8-2.4h0V8.4H7.1z"/>
	<path class="st13" d="M13,8.4v4.3h2.5v2.4c0,0,0,0,0.1,0c0.9,0,1.7-1,1.8-2.4h0V8.4H13z"/>
</g>
</svg>
