<?xml version="1.0" encoding="utf-8"?>
<!-- Generator: Adobe Illustrator 21.0.2, SVG Export Plug-In . SVG Version: 6.00 Build 0)  -->
<svg version="1.1" id="Layer_1" xmlns="http://www.w3.org/2000/svg" xmlns:xlink="http://www.w3.org/1999/xlink" x="0px" y="0px"
	 viewBox="0 0 25 25" style="enable-background:new 0 0 25 25;" xml:space="preserve">
<style type="text/css">
	.st0{fill:#FACCD0;}
	.st1{fill:#F15C69;}
	.st2{fill:#B6DDA2;}
	.st3{fill:#6DBC45;}
	.st4{fill:#D7E8F9;}
	.st5{fill:#4494E7;}
	.st6{fill:#F5CDA5;}
	.st7{fill:#E6831F;}
	.st8{fill:#BDB5F0;}
	.st9{fill:#665DA3;}
	.st10{fill:#E80014;}
	.st11{fill:#6F8695;}
	.st12{fill:#49AB17;}
	.st13{fill:#FFFFFF;}
	.st14{fill:url(#SVGID_1_);}
	.st15{fill:#665CAC;}
	.st16{fill:url(#a_4_);}
	.st17{opacity:0.99;fill:#FFFFFF;}
	.st18{fill:#1AD14D;}
	.st19{fill:url(#SVGID_2_);}
	.st20{fill:url(#SVGID_3_);}
	.st21{fill:#FDE604;}
	.st22{fill:#3B1E1E;}
	.st23{fill:#6AD124;}
	.st24{fill:#FFFC00;}
	.st25{fill:#020202;}
	.st26{fill:none;}
	.st27{fill:url(#SVGID_4_);}
	.st28{fill:url(#SVGID_5_);}
	.st29{opacity:0.28;}
	.st30{fill:#129B58;}
	.st31{fill:#E5E5E5;}
	.st32{fill:url(#SVGID_6_);}
	.st33{fill:url(#a_5_);}
	.st34{fill:url(#SVGID_7_);}
	.st35{fill:url(#SVGID_8_);}
	.st36{fill:url(#SVGID_9_);}
	.st37{fill:url(#SVGID_10_);}
	.st38{fill:#9FA6EA;}
	.st39{fill:#6772E5;}
	.st40{fill:#F2F2F2;}
	.st41{fill:#F14336;}
	.st42{fill:#D32E2A;}
	.st43{fill:#1DA1F2;}
	.st44{fill:#CC2028;}
	.st45{fill:#7E3EC9;}
	.st46{fill:#007BB6;}
	.st47{fill:#4867AA;}
</style>
<g>
	<g>
		<path class="st46" d="M7,4.5c0,0.7-0.2,1.3-0.7,1.8C5.8,6.9,5.2,7.1,4.5,7.1c-0.7,0-1.3-0.3-1.8-0.8C2.2,5.8,2,5.2,2,4.5
			c0-0.7,0.2-1.3,0.7-1.8S3.8,2,4.5,2c0.7,0,1.3,0.2,1.8,0.7S7,3.8,7,4.5z M6.9,9.1v13.3c0,0.2-0.1,0.3-0.2,0.4
			C6.7,23,6.5,23,6.4,23H2.7c-0.2,0-0.3,0-0.4-0.1c-0.1-0.1-0.1-0.2-0.1-0.4V9.1c0-0.1,0-0.3,0.1-0.4c0.1-0.1,0.2-0.2,0.4-0.2h3.7
			c0.1,0,0.3,0.1,0.4,0.2C6.9,8.9,6.9,9,6.9,9.1z M17.7,12.8c-0.3-0.3-0.8-0.5-1.5-0.5c-0.9,0-1.5,0.3-1.9,0.8
			c-0.4,0.5-0.5,1.3-0.5,2.2v7.2c0,0.2,0,0.3-0.1,0.4C13.6,23,13.4,23,13.3,23H9.5c-0.1,0-0.3,0-0.4-0.1C9,22.8,9,22.6,9,22.5V9.1
			C9,9,9,8.9,9.1,8.8c0.1-0.1,0.2-0.2,0.4-0.2h3.7c0.1,0,0.2,0,0.3,0.1c0.1,0.1,0.1,0.2,0.2,0.3c0,0.1,0,0.2,0,0.2
			c0,0.1,0,0.2,0,0.3c0.9-0.9,2.2-1.3,3.7-1.3c1.7,0,3.1,0.4,4.1,1.3s1.5,2.2,1.5,3.9v9c0,0.2-0.1,0.3-0.2,0.4
			C22.7,23,22.6,23,22.5,23h-3.8c-0.1,0-0.3,0-0.4-0.1c-0.1-0.1-0.2-0.2-0.2-0.4v-8.1C18.1,13.7,18,13.1,17.7,12.8z"/>
	</g>
</g>
</svg>
