<?xml version="1.0" encoding="utf-8"?>
<!-- Generator: Adobe Illustrator 21.0.2, SVG Export Plug-In . SVG Version: 6.00 Build 0)  -->
<svg version="1.1" id="Layer_1" xmlns="http://www.w3.org/2000/svg" xmlns:xlink="http://www.w3.org/1999/xlink" x="0px" y="0px"
	 viewBox="0 0 75.3 75.3" style="enable-background:new 0 0 75.3 75.3;" xml:space="preserve">
<style type="text/css">
	.st0{fill:#FACCD0;}
	.st1{fill:#F15C69;}
	.st2{fill:#B6DDA2;}
	.st3{fill:#6DBC45;}
	.st4{fill:#D7E8F9;}
	.st5{fill:#4494E7;}
	.st6{fill:#F5CDA5;}
	.st7{fill:#E6831F;}
	.st8{fill:#BDB5F0;}
	.st9{fill:#665DA3;}
	.st10{fill:#E80014;}
	.st11{fill:#6F8695;}
	.st12{fill:#49AB17;}
	.st13{fill:#FFFFFF;}
	.st14{fill:url(#SVGID_1_);}
	.st15{fill:#665CAC;}
	.st16{fill:url(#a_4_);}
	.st17{opacity:0.99;fill:#FFFFFF;}
	.st18{fill:#1AD14D;}
	.st19{fill:url(#SVGID_2_);}
	.st20{fill:url(#SVGID_3_);}
	.st21{fill:#FDE604;}
	.st22{fill:#3B1E1E;}
	.st23{fill:#6AD124;}
	.st24{fill:#FFFC00;}
	.st25{fill:#020202;}
	.st26{fill:none;}
	.st27{fill:url(#SVGID_4_);}
	.st28{fill:url(#SVGID_5_);}
	.st29{opacity:0.28;}
	.st30{fill:#129B58;}
	.st31{fill:#E5E5E5;}
	.st32{fill:url(#SVGID_6_);}
	.st33{fill:url(#a_5_);}
	.st34{fill:url(#SVGID_7_);}
	.st35{fill:url(#SVGID_8_);}
	.st36{fill:url(#SVGID_9_);}
	.st37{fill:url(#SVGID_10_);}
	.st38{fill:#9FA6EA;}
	.st39{fill:#6772E5;}
	.st40{fill:#F2F2F2;}
	.st41{fill:#F14336;}
	.st42{fill:#D32E2A;}
	.st43{fill:#1DA1F2;}
	.st44{fill:#CC2028;}
	.st45{fill:#7E3EC9;}
	.st46{fill:#007BB6;}
	.st47{fill:#4867AA;}
</style>
<g>
	<g>
		<g>
			<path class="st18" d="M72.7,35.9c0.2-0.9,0.2-1.6,0.3-2.1c0.1-0.9,0-2.3,0-2.7C72.1,16.1,56.6,4.2,37.7,4.2
				C18.1,4.2,2.3,16.8,2.3,32.3c0,14.3,13.4,26,30.7,27.9c1.1,0.1,1.8,1.1,1.7,2.1L34,69c-0.2,1.5,1.4,2.6,2.8,1.9
				c14.6-7.1,23.4-14.3,28.6-20.6c1-1.1,4-5.5,4.7-6.6C71.3,41.2,72.3,38.6,72.7,35.9z"/>
		</g>
	</g>
	<rect x="27.5" y="24.9" class="st13" width="3.2" height="15.3"/>
	<polygon class="st13" points="17.6,37.2 17.6,24.9 14.4,24.9 14.4,40.2 14.5,40.2 17.6,40.2 25.1,40.2 25.1,37.2 	"/>
	<polygon class="st13" points="60.5,28 60.5,24.9 53,24.9 49.9,24.9 49.9,28 49.9,31.1 49.9,34.1 49.9,37.2 49.9,40.2 53,40.2 
		60.5,40.2 60.5,37.2 53,37.2 53,34.1 60.5,34.1 60.5,31.1 53,31.1 53,28 	"/>
	<polygon class="st13" points="44,24.9 44,34.7 36.9,24.9 36.9,24.9 36.9,24.9 36.7,24.9 36.2,24.9 33.6,24.9 33.6,40.2 36.7,40.2 
		36.7,30.3 43.9,40.2 43.9,40.2 43.9,40.2 43.9,40.2 43.9,40.2 44,40.2 44.6,40.2 47.1,40.2 47.1,24.9 	"/>
</g>
</svg>
