<?xml version="1.0" encoding="utf-8"?>
<!-- Generator: Adobe Illustrator 21.0.2, SVG Export Plug-In . SVG Version: 6.00 Build 0)  -->
<svg version="1.1" id="Layer_1" xmlns="http://www.w3.org/2000/svg" xmlns:xlink="http://www.w3.org/1999/xlink" x="0px" y="0px"
	 viewBox="0 0 25 25" style="enable-background:new 0 0 25 25;" xml:space="preserve">
<style type="text/css">
	.st0{fill:#FACCD0;}
	.st1{fill:#F15C69;}
	.st2{fill:#B6DDA2;}
	.st3{fill:#6DBC45;}
	.st4{fill:#D7E8F9;}
	.st5{fill:#4494E7;}
	.st6{fill:#F5CDA5;}
	.st7{fill:#E6831F;}
	.st8{fill:#BDB5F0;}
	.st9{fill:#665DA3;}
	.st10{fill:#E80014;}
</style>
<g>
	<path class="st10" d="M19.2,16.8c0.2,0,0.5,0.1,0.7,0.3c0.2,0.2,0.3,0.4,0.3,0.7v3.4c0,0.2-0.1,0.5-0.3,0.7
		c-0.2,0.2-0.4,0.3-0.7,0.3c-3,0-5.7-0.7-8.2-2.2c-2.5-1.5-4.5-3.4-5.9-5.9c-1.5-2.5-2.2-5.2-2.2-8.2c0-0.2,0.1-0.5,0.3-0.7
		c0.2-0.2,0.4-0.3,0.7-0.3h3.4c0.3,0,0.5,0.1,0.7,0.3c0.2,0.2,0.3,0.4,0.3,0.7c0,1.2,0.2,2.3,0.5,3.4c0.1,0.4,0,0.7-0.2,1l-2.1,2.1
		c1.4,2.8,3.5,4.9,6.4,6.4l2.1-2.1c0.3-0.3,0.6-0.3,1-0.2C16.9,16.7,18,16.8,19.2,16.8z M13.5,7.7l4.8-4.8v2.9h3.8v3.9h-3.8v2.9
		L13.5,7.7z"/>
</g>
</svg>
