<?xml version="1.0" encoding="utf-8"?>
<!-- Generator: Adobe Illustrator 21.0.2, SVG Export Plug-In . SVG Version: 6.00 Build 0)  -->
<svg version="1.1" id="Layer_1" xmlns="http://www.w3.org/2000/svg" xmlns:xlink="http://www.w3.org/1999/xlink" x="0px" y="0px"
	 viewBox="0 0 43 43" style="enable-background:new 0 0 43 43;" xml:space="preserve">
<style type="text/css">
	.st0{fill:#FACCD0;}
	.st1{fill:#F15C69;}
	.st2{fill:#B6DDA2;}
	.st3{fill:#6DBC45;}
	.st4{fill:#D7E8F9;}
	.st5{fill:#4494E7;}
	.st6{fill:#F5CDA5;}
	.st7{fill:#E6831F;}
	.st8{fill:#BDB5F0;}
	.st9{fill:#665DA3;}
</style>
<g>
	<circle class="st6" cx="21.5" cy="21.5" r="20"/>
	<g>
		<g>
			<path class="st7" d="M25.5,21.7l-6.1,3.4c-0.1,0-0.1,0-0.2,0c-0.1,0-0.1-0.1-0.1-0.2v-6.7c0-0.1,0-0.1,0.1-0.2c0.1,0,0.1,0,0.2,0
				l6.1,3.4c0.1,0,0.1,0.1,0.1,0.1C25.6,21.6,25.5,21.7,25.5,21.7z"/>
		</g>
		<path class="st7" d="M21.5,32.2c-5.9,0-10.7-4.8-10.7-10.7s4.8-10.7,10.7-10.7s10.7,4.8,10.7,10.7S27.4,32.2,21.5,32.2z
			 M21.5,11.9c-5.3,0-9.6,4.3-9.6,9.6s4.3,9.6,9.6,9.6s9.6-4.3,9.6-9.6S26.8,11.9,21.5,11.9z"/>
	</g>
</g>
</svg>
