<?xml version="1.0" encoding="utf-8"?>
<!-- Generator: Adobe Illustrator 21.0.2, SVG Export Plug-In . SVG Version: 6.00 Build 0)  -->
<svg version="1.1" id="Layer_1" xmlns="http://www.w3.org/2000/svg" xmlns:xlink="http://www.w3.org/1999/xlink" x="0px" y="0px"
	 viewBox="0 0 75.3 75.3" style="enable-background:new 0 0 75.3 75.3;" xml:space="preserve">
<style type="text/css">
	.st0{fill:#FACCD0;}
	.st1{fill:#F15C69;}
	.st2{fill:#B6DDA2;}
	.st3{fill:#6DBC45;}
	.st4{fill:#D7E8F9;}
	.st5{fill:#4494E7;}
	.st6{fill:#F5CDA5;}
	.st7{fill:#E6831F;}
	.st8{fill:#BDB5F0;}
	.st9{fill:#665DA3;}
	.st10{fill:#E80014;}
	.st11{fill:#6F8695;}
	.st12{fill:#49AB17;}
	.st13{fill:#FFFFFF;}
	.st14{fill:url(#SVGID_1_);}
	.st15{fill:#665CAC;}
	.st16{fill:url(#a_4_);}
	.st17{opacity:0.99;fill:#FFFFFF;}
	.st18{fill:#1AD14D;}
	.st19{fill:url(#SVGID_2_);}
	.st20{fill:url(#SVGID_3_);}
	.st21{fill:#FDE604;}
	.st22{fill:#3B1E1E;}
	.st23{fill:#6AD124;}
	.st24{fill:#FFFC00;}
	.st25{fill:#020202;}
	.st26{fill:none;}
	.st27{fill:url(#SVGID_4_);}
	.st28{fill:url(#SVGID_5_);}
	.st29{opacity:0.28;}
	.st30{fill:#129B58;}
	.st31{fill:#E5E5E5;}
	.st32{fill:url(#SVGID_6_);}
	.st33{fill:url(#a_5_);}
	.st34{fill:url(#SVGID_7_);}
	.st35{fill:url(#SVGID_8_);}
	.st36{fill:url(#SVGID_9_);}
	.st37{fill:url(#SVGID_10_);}
	.st38{fill:#9FA6EA;}
	.st39{fill:#6772E5;}
	.st40{fill:#F2F2F2;}
	.st41{fill:#F14336;}
	.st42{fill:#D32E2A;}
	.st43{fill:#1DA1F2;}
	.st44{fill:#CC2028;}
	.st45{fill:#7E3EC9;}
	.st46{fill:#007BB6;}
	.st47{fill:#4867AA;}
</style>
<g>
	<g>
		<linearGradient id="SVGID_1_" gradientUnits="userSpaceOnUse" x1="19.8677" y1="52.8375" x2="54.0614" y2="22.0632">
			<stop  offset="0" style="stop-color:#2AB53F"/>
			<stop  offset="0.1302" style="stop-color:#32B945"/>
			<stop  offset="0.3896" style="stop-color:#37BC49"/>
			<stop  offset="0.6929" style="stop-color:#45C454"/>
			<stop  offset="1" style="stop-color:#5BD066"/>
		</linearGradient>
		<path class="st14" d="M37.7,5.5c-17.3,0-31.3,14-31.3,31.3c0,6.4,1.9,12.3,5.2,17.2L7.2,68.2l15.1-4.1c4.6,2.6,9.8,4.1,15.4,4.1
			C55,68.2,69,54.1,69,36.8C69,19.5,55,5.5,37.7,5.5z"/>
		<g>
			<path class="st13" d="M62,13.2c-6.5-6.5-15-10-24.2-10C19,3.2,3.6,18.5,3.6,37.4c0,6,1.6,11.9,4.6,17.1L3.4,72.1l18.1-4.8
				c5,2.7,10.6,4.2,16.3,4.2h0C56.6,71.5,72,56.2,72,37.4C72,28.3,68.4,19.7,62,13.2L62,13.2z M37.8,65.8L37.8,65.8
				c-5.1,0-10.1-1.4-14.5-4l-1-0.6L11.6,64l2.9-10.5l-0.7-1.1c-2.8-4.5-4.3-9.7-4.3-15.1C9.4,21.7,22.2,9,37.8,9
				c7.6,0,14.7,3,20.1,8.3s8.3,12.5,8.3,20.1C66.2,53,53.5,65.8,37.8,65.8L37.8,65.8z"/>
		</g>
	</g>
	<g class="st29">
		<image style="overflow:visible;" width="108" height="104" xlink:href="AC8D8AF4.png"  transform="matrix(1 0 0 1 -16 -13)">
		</image>
	</g>
	<path class="st13" d="M53.4,44.5c-0.9-0.4-5.1-2.5-5.8-2.8c-0.8-0.3-1.4-0.4-1.9,0.4c-0.6,0.9-2.2,2.8-2.7,3.3
		c-0.5,0.6-1,0.6-1.8,0.2c-0.9-0.4-3.6-1.3-6.9-4.2c-2.5-2.3-4.3-5.1-4.7-5.9c-0.5-0.9-0.1-1.3,0.4-1.7c0.4-0.4,0.9-1,1.3-1.5
		c0.4-0.5,0.6-0.9,0.9-1.4c0.3-0.6,0.1-1.1-0.1-1.5c-0.2-0.4-1.9-4.6-2.6-6.3c-0.7-1.7-1.4-1.4-1.9-1.5c-0.5,0-1.1,0-1.6,0
		s-1.5,0.2-2.3,1.1c-0.8,0.9-3,2.9-3,7.1s3.1,8.3,3.5,8.8c0.4,0.6,6,9.2,14.6,12.9c2,0.9,3.6,1.4,4.9,1.8c2,0.6,3.9,0.6,5.4,0.3
		c1.6-0.2,5.1-2.1,5.8-4.1c0.7-2,0.7-3.7,0.5-4.1S54.2,44.9,53.4,44.5L53.4,44.5z"/>
</g>
</svg>
