<?xml version="1.0" encoding="utf-8"?>
<!-- Generator: Adobe Illustrator 21.0.2, SVG Export Plug-In . SVG Version: 6.00 Build 0)  -->
<svg version="1.1" id="Layer_1" xmlns="http://www.w3.org/2000/svg" xmlns:xlink="http://www.w3.org/1999/xlink" x="0px" y="0px"
	 viewBox="0 0 25 25" style="enable-background:new 0 0 25 25;" xml:space="preserve">
<style type="text/css">
	.st0{fill:#FACCD0;}
	.st1{fill:#F15C69;}
	.st2{fill:#B6DDA2;}
	.st3{fill:#6DBC45;}
	.st4{fill:#D7E8F9;}
	.st5{fill:#4494E7;}
	.st6{fill:#F5CDA5;}
	.st7{fill:#E6831F;}
	.st8{fill:#BDB5F0;}
	.st9{fill:#665DA3;}
	.st10{fill:#E80014;}
</style>
<g>
	<path class="st10" d="M20.8,16.2c0.3,0,0.5,0.1,0.7,0.3c0.2,0.2,0.3,0.4,0.3,0.7v3.7c0,0.3-0.1,0.5-0.3,0.7
		c-0.2,0.2-0.4,0.3-0.7,0.3c-3.2,0-6.2-0.8-8.9-2.4c-2.7-1.6-4.9-3.7-6.4-6.4c-1.6-2.7-2.4-5.7-2.4-8.9c0-0.3,0.1-0.5,0.3-0.7
		c0.2-0.2,0.4-0.3,0.7-0.3h3.7c0.3,0,0.5,0.1,0.7,0.3c0.2,0.2,0.3,0.4,0.3,0.7c0,1.3,0.2,2.5,0.6,3.7c0.1,0.4,0,0.8-0.2,1.1
		l-2.3,2.3c1.5,3,3.8,5.3,6.9,6.9l2.3-2.3c0.3-0.3,0.7-0.4,1.1-0.2C18.3,16,19.5,16.2,20.8,16.2z M19.8,12.5c0-2-0.7-3.7-2.1-5.2
		c-1.4-1.4-3.1-2.1-5.2-2.1V3.1c2.6,0,4.8,0.9,6.6,2.7c1.8,1.8,2.7,4,2.7,6.6H19.8z M15.6,12.5c0-0.9-0.3-1.6-0.9-2.2
		c-0.6-0.6-1.3-0.9-2.2-0.9V7.3c1.4,0,2.7,0.5,3.7,1.5s1.5,2.3,1.5,3.7H15.6z"/>
</g>
</svg>
