<?xml version="1.0" encoding="utf-8"?>
<!-- Generator: Adobe Illustrator 21.0.2, SVG Export Plug-In . SVG Version: 6.00 Build 0)  -->
<svg version="1.1" id="Layer_1" xmlns="http://www.w3.org/2000/svg" xmlns:xlink="http://www.w3.org/1999/xlink" x="0px" y="0px"
	 viewBox="0 0 75.3 75.3" style="enable-background:new 0 0 75.3 75.3;" xml:space="preserve">
<style type="text/css">
	.st0{fill:#FACCD0;}
	.st1{fill:#F15C69;}
	.st2{fill:#B6DDA2;}
	.st3{fill:#6DBC45;}
	.st4{fill:#D7E8F9;}
	.st5{fill:#4494E7;}
	.st6{fill:#F5CDA5;}
	.st7{fill:#E6831F;}
	.st8{fill:#BDB5F0;}
	.st9{fill:#665DA3;}
	.st10{fill:#E80014;}
	.st11{fill:#6F8695;}
	.st12{fill:#49AB17;}
	.st13{fill:#FFFFFF;}
	.st14{fill:url(#SVGID_1_);}
	.st15{fill:#665CAC;}
	.st16{fill:url(#a_4_);}
	.st17{opacity:0.99;fill:#FFFFFF;}
	.st18{fill:#1AD14D;}
	.st19{fill:url(#SVGID_2_);}
	.st20{fill:url(#SVGID_3_);}
	.st21{fill:#FDE604;}
	.st22{fill:#3B1E1E;}
	.st23{fill:#6AD124;}
	.st24{fill:#FFFC00;}
	.st25{fill:#020202;}
	.st26{fill:none;}
	.st27{fill:url(#SVGID_4_);}
	.st28{fill:url(#SVGID_5_);}
	.st29{opacity:0.28;}
	.st30{fill:#129B58;}
	.st31{fill:#E5E5E5;}
	.st32{fill:url(#SVGID_6_);}
	.st33{fill:url(#a_5_);}
	.st34{fill:url(#SVGID_7_);}
	.st35{fill:url(#SVGID_8_);}
	.st36{fill:url(#SVGID_9_);}
	.st37{fill:url(#SVGID_10_);}
	.st38{fill:#9FA6EA;}
	.st39{fill:#6772E5;}
	.st40{fill:#F2F2F2;}
	.st41{fill:#F14336;}
	.st42{fill:#D32E2A;}
	.st43{fill:#1DA1F2;}
	.st44{fill:#CC2028;}
	.st45{fill:#7E3EC9;}
	.st46{fill:#007BB6;}
	.st47{fill:#4867AA;}
</style>
<g>
	<path class="st23" d="M66.9,72.2H8.5c-2.9,0-5.3-2.4-5.3-5.3V8.5c0-2.9,2.4-5.3,5.3-5.3h58.4c2.9,0,5.3,2.4,5.3,5.3v58.4
		C72.2,69.8,69.8,72.2,66.9,72.2z"/>
	<path class="st13" d="M60.8,36c1.5,0,2.7,1.2,2.7,2.7c0,1.5-1.2,2.7-2.7,2.7s-2.7-1.2-2.7-2.7C58.1,37.2,59.3,36,60.8,36z"/>
	<path class="st13" d="M39,45.7l-5.1,0l0-12.2h4.9L39,45.7L39,45.7z"/>
	<path class="st13" d="M36.3,43.1c1.3,0,2.4,1.1,2.4,2.5c0,1.4-1.1,2.5-2.4,2.5s-2.4-1.1-2.4-2.5C33.9,44.2,35,43.1,36.3,43.1z
		 M36.3,30.9c1.3,0,2.4,1.1,2.4,2.5c0,1.4-1.1,2.5-2.4,2.5s-2.4-1.1-2.4-2.5C33.9,32,35,30.9,36.3,30.9z M18.7,43.1
		c1.3,0,2.4,1.1,2.4,2.4c0,1.3-1.1,2.4-2.4,2.4c-1.3,0-2.4-1.1-2.4-2.4C16.4,44.2,17.4,43.1,18.7,43.1z M18.8,24.6
		c1.3,0,2.4,1.1,2.4,2.4c0,1.4-1.1,2.4-2.4,2.4c-1.3,0-2.4-1.1-2.4-2.4C16.4,25.7,17.4,24.6,18.8,24.6z"/>
	<path class="st13" d="M16.4,27.1H21v9l4.8-4.5l3.6,3.4l-3.2,3.2l4.5,6l-4,2.9l-4.3-5.7l-1.2,1.2l0,3.2l-5.1-0.2L16.4,27V27.1z"/>
	<path class="st13" d="M27.6,30.9c1.4,0,2.5,1.1,2.5,2.5c0,1.4-1.1,2.5-2.5,2.5c-1.4,0-2.5-1.1-2.5-2.5S26.2,30.9,27.6,30.9
		L27.6,30.9z M28.6,43.1c1.4,0,2.4,1.1,2.4,2.5c0,1.4-1.1,2.5-2.4,2.5s-2.4-1.1-2.4-2.5C26.1,44.2,27.2,43.1,28.6,43.1z M44.8,43.2
		c1.3,0,2.4,1.1,2.4,2.4c0,1.3-1.1,2.4-2.4,2.4c-1.3,0-2.4-1.1-2.4-2.4C42.4,44.3,43.5,43.2,44.8,43.2z M44.8,24.5
		c1.3,0,2.4,1.1,2.4,2.5c0,1.4-1.1,2.5-2.4,2.5c-1.3,0-2.4-1.1-2.4-2.5C42.4,25.6,43.5,24.5,44.8,24.5z"/>
	<path class="st13" d="M42.4,27.1h4.6v9l4.8-4.5l3.6,3.4l-3.2,3.2l4.5,6l-4,2.9l-4.3-5.7l-1.2,1.2l0,3.2l-5.1-0.2L42.4,27V27.1z"/>
	<path class="st13" d="M53.7,30.9c1.4,0,2.5,1.1,2.5,2.5c0,1.4-1.1,2.5-2.5,2.5c-1.4,0-2.5-1.1-2.5-2.5C51.2,32,52.3,30.9,53.7,30.9
		L53.7,30.9z M54.7,43.1c1.4,0,2.4,1.1,2.4,2.5c0,1.4-1.1,2.5-2.4,2.5s-2.4-1.1-2.4-2.5C52.2,44.2,53.3,43.1,54.7,43.1z"/>
</g>
</svg>
