<?xml version="1.0" encoding="utf-8"?>
<!-- Generator: Adobe Illustrator 21.0.2, SVG Export Plug-In . SVG Version: 6.00 Build 0)  -->
<svg version="1.1" id="Layer_1" xmlns="http://www.w3.org/2000/svg" xmlns:xlink="http://www.w3.org/1999/xlink" x="0px" y="0px"
	 viewBox="0 0 75.3 75.3" style="enable-background:new 0 0 75.3 75.3;" xml:space="preserve">
<style type="text/css">
	.st0{fill:#FACCD0;}
	.st1{fill:#F15C69;}
	.st2{fill:#B6DDA2;}
	.st3{fill:#6DBC45;}
	.st4{fill:#D7E8F9;}
	.st5{fill:#4494E7;}
	.st6{fill:#F5CDA5;}
	.st7{fill:#E6831F;}
	.st8{fill:#BDB5F0;}
	.st9{fill:#665DA3;}
	.st10{fill:#E80014;}
	.st11{fill:#6F8695;}
	.st12{fill:#49AB17;}
	.st13{fill:#FFFFFF;}
	.st14{fill:url(#SVGID_1_);}
	.st15{fill:#665CAC;}
	.st16{fill:url(#a_4_);}
	.st17{opacity:0.99;fill:#FFFFFF;}
	.st18{fill:#1AD14D;}
	.st19{fill:url(#SVGID_2_);}
	.st20{fill:url(#SVGID_3_);}
	.st21{fill:#FDE604;}
	.st22{fill:#3B1E1E;}
	.st23{fill:#6AD124;}
	.st24{fill:#FFFC00;}
	.st25{fill:#020202;}
	.st26{fill:none;}
	.st27{fill:url(#SVGID_4_);}
	.st28{fill:url(#SVGID_5_);}
	.st29{opacity:0.28;}
	.st30{fill:#129B58;}
	.st31{fill:#E5E5E5;}
	.st32{fill:url(#SVGID_6_);}
	.st33{fill:url(#a_5_);}
	.st34{fill:url(#SVGID_7_);}
	.st35{fill:url(#SVGID_8_);}
	.st36{fill:url(#SVGID_9_);}
	.st37{fill:url(#SVGID_10_);}
	.st38{fill:#9FA6EA;}
	.st39{fill:#6772E5;}
	.st40{fill:#F2F2F2;}
	.st41{fill:#F14336;}
	.st42{fill:#D32E2A;}
	.st43{fill:#1DA1F2;}
	.st44{fill:#CC2028;}
	.st45{fill:#7E3EC9;}
	.st46{fill:#007BB6;}
	.st47{fill:#4867AA;}
</style>
<g>
	<path class="st13" d="M38.5,64.7c-13.6,0-29-16.4-27.8-30c1.2-13,18.5-25,31.4-23.2c11.3,1.5,21.3,15.8,20.7,27
		C62.2,50.5,50.4,64.7,38.5,64.7L38.5,64.7z"/>
	<linearGradient id="SVGID_1_" gradientUnits="userSpaceOnUse" x1="14.5977" y1="15.5678" x2="58.0901" y2="57.4909">
		<stop  offset="0" style="stop-color:#00ACEC"/>
		<stop  offset="1" style="stop-color:#019FD8"/>
	</linearGradient>
	<path class="st14" d="M48.3,71.5c-0.9-0.3-2.3-0.6-3.1-0.9c-0.9-0.5-2-0.5-5.4-0.3c-3.2,0.2-4.9,0-7.3-0.3
		C20.1,67.8,10.3,58.8,6.7,46.5c-0.6-2.3-0.8-3.6-0.8-9.1c0-6-0.2-6.5-0.9-9c-4.5-12.2,4.6-25,17.6-25c2.6,0,5.9,0.8,7.7,1.7
		c1.2,0.6,2,0.8,6.8,0.8c4.3,0,6,0.2,8.2,0.8c9.7,2.5,17.6,8.8,21.8,17.6c2.6,5.4,3.6,11,2.9,17.3c-0.3,3.4-0.3,3.7,0.5,5.7
		c2.5,7.3,0.2,15.6-5.9,20.5c-1.9,1.5-5.6,3.2-7.9,3.9c-2.3,0.5-6,0.5-8.3-0.2L48.3,71.5L48.3,71.5z M44.1,59.9
		c5.1-1.1,9.6-4.2,11.3-7.9c2.2-4.5,1.5-9.7-1.4-13c-2.5-2.8-6.2-4.3-15-6.5c-5.9-1.4-7.3-2-8.5-3.4c-1.1-1.2-1.2-2.2-0.3-3.6
		c0.9-1.5,3.2-2.5,6.3-2.6c4.5-0.3,6.5,0.8,9.1,4.9c2,3.1,4,3.9,6.6,2.6c3.4-1.7,3.1-7.3-0.6-10.5c-3.6-2.9-7.4-4.2-13.9-4.2
		c-6.8,0-11.4,1.4-14.5,4.5c-2.5,2.5-2.9,3.9-2.9,7.7c0,4,0.5,5.3,3.1,7.6c2.8,2.6,5.1,3.6,13.4,5.6c5.9,1.4,7.4,2.2,8.8,3.7
		c0.6,0.8,0.9,1.4,0.9,2.8c0,1.5-0.2,1.9-1.4,3.1c-1.9,1.9-4.6,2.6-8.2,2.5c-4.2-0.3-6-1.5-8.2-5.9c-1.5-2.9-2.8-4-4.8-4
		c-4.5,0-6,3.7-3.7,8.5c2,4.2,6,7,11.1,8c3.1,0.6,9.9,0.6,12.8,0L44.1,59.9L44.1,59.9z"/>
</g>
</svg>
