<?xml version="1.0" encoding="utf-8"?>
<!-- Generator: Adobe Illustrator 21.0.2, SVG Export Plug-In . SVG Version: 6.00 Build 0)  -->
<svg version="1.1" id="Layer_1" xmlns="http://www.w3.org/2000/svg" xmlns:xlink="http://www.w3.org/1999/xlink" x="0px" y="0px"
	 viewBox="0 0 25 25" style="enable-background:new 0 0 25 25;" xml:space="preserve">
<style type="text/css">
	.st0{fill:#FACCD0;}
	.st1{fill:#F15C69;}
	.st2{fill:#B6DDA2;}
	.st3{fill:#6DBC45;}
	.st4{fill:#D7E8F9;}
	.st5{fill:#4494E7;}
	.st6{fill:#F5CDA5;}
	.st7{fill:#E6831F;}
	.st8{fill:#BDB5F0;}
	.st9{fill:#665DA3;}
	.st10{fill:#E80014;}
	.st11{fill:#6F8695;}
	.st12{fill:#49AB17;}
	.st13{fill:#FFFFFF;}
	.st14{fill:url(#SVGID_1_);}
	.st15{fill:#665CAC;}
	.st16{fill:url(#a_4_);}
	.st17{opacity:0.99;fill:#FFFFFF;}
	.st18{fill:#1AD14D;}
	.st19{fill:url(#SVGID_2_);}
	.st20{fill:url(#SVGID_3_);}
	.st21{fill:#FDE604;}
	.st22{fill:#3B1E1E;}
	.st23{fill:#6AD124;}
	.st24{fill:#FFFC00;}
	.st25{fill:#020202;}
	.st26{fill:none;}
	.st27{fill:url(#SVGID_4_);}
	.st28{fill:url(#SVGID_5_);}
	.st29{opacity:0.28;}
	.st30{fill:#129B58;}
	.st31{fill:#E5E5E5;}
	.st32{fill:url(#SVGID_6_);}
	.st33{fill:url(#a_5_);}
	.st34{fill:url(#SVGID_7_);}
	.st35{fill:url(#SVGID_8_);}
	.st36{fill:url(#SVGID_9_);}
	.st37{fill:url(#SVGID_10_);}
	.st38{fill:#9FA6EA;}
	.st39{fill:#6772E5;}
	.st40{fill:#F2F2F2;}
	.st41{fill:#F14336;}
	.st42{fill:#D32E2A;}
	.st43{fill:#1DA1F2;}
	.st44{fill:#CC2028;}
	.st45{fill:#7E3EC9;}
	.st46{fill:#007BB6;}
	.st47{fill:#4867AA;}
</style>
<g>
	<g>
		<path class="st24" d="M1.5,18L1.5,18c0,0.4,0,0.9,0.1,1.4c0.1,0.5,0.2,1,0.4,1.5c0.3,0.6,0.8,1.2,1.3,1.6c0.4,0.3,0.8,0.6,1.3,0.7
			c0.7,0.2,1.4,0.3,2.2,0.3c0.5,0,0.9,0,1.4,0c3.3,0,6.7,0,10,0c0.4,0,0.9-0.1,1.3-0.1c0.8-0.2,1.6-0.5,2.2-1.1
			c0.7-0.7,1.2-1.5,1.5-2.4c0.1-0.6,0.2-1.3,0.2-1.9v-0.1c0,0,0-10.9,0-11.1c0-0.4,0-0.8-0.1-1.2c-0.1-0.5-0.2-0.9-0.4-1.4
			C22.6,3.8,22.3,3.4,22,3c-0.6-0.5-1.2-0.9-2-1.1c-0.7-0.2-1.4-0.2-2.1-0.2c0,0,0,0,0,0H7.1c0,0,0,0,0,0c-0.4,0-0.8,0-1.2,0.1
			C5.5,1.8,5,1.8,4.6,2C4,2.2,3.4,2.6,2.9,3.1C2.4,3.7,2,4.3,1.8,5.1C1.6,5.8,1.5,6.5,1.5,7.2"/>
		<path class="st13" d="M12.7,20c0,0-0.1,0-0.1,0c0,0-0.1,0-0.1,0c-1,0-1.6-0.5-2.2-0.8c-0.4-0.3-0.8-0.6-1.2-0.6
			c-0.2,0-0.4-0.1-0.6-0.1c-0.4,0-0.7,0.1-0.9,0.1c-0.1,0-0.3,0-0.3,0c-0.1,0-0.2,0-0.3-0.2c0-0.1-0.1-0.3-0.1-0.4
			c-0.1-0.3-0.1-0.5-0.2-0.5c-1.2-0.2-1.9-0.5-2-0.8c0,0,0-0.1,0-0.1c0-0.1,0.1-0.2,0.2-0.2c0.9-0.2,1.8-0.7,2.5-1.5
			c0.6-0.6,0.8-1.3,0.9-1.3c0,0,0,0,0,0c0.1-0.3,0.2-0.5,0.1-0.7c-0.2-0.4-0.7-0.5-1-0.6c-0.1,0-0.2-0.1-0.2-0.1
			c-0.3-0.1-0.8-0.4-0.7-0.7c0-0.3,0.4-0.4,0.6-0.4c0.1,0,0.1,0,0.2,0c0.3,0.1,0.6,0.2,0.8,0.2c0.3,0,0.4-0.1,0.5-0.1
			c0-0.2,0-0.3,0-0.5C8.2,9.6,8.2,8.3,8.5,7.5c1-2.3,3.2-2.5,3.9-2.5c0.1,0,0.2,0,0.3,0c0.7,0,2.9,0.2,3.9,2.5
			c0.3,0.8,0.3,2.1,0.2,3.2l0,0.1c0,0.1,0,0.3,0,0.4c0,0,0.2,0.1,0.4,0.1c0.2,0,0.5-0.1,0.8-0.2c0.1,0,0.2,0,0.3,0
			c0.1,0,0.2,0,0.3,0.1l0,0c0.2,0.1,0.4,0.3,0.4,0.4c0,0.2-0.1,0.4-0.7,0.7c-0.1,0-0.1,0.1-0.2,0.1c-0.3,0.1-0.8,0.3-1,0.6
			c-0.1,0.2-0.1,0.4,0.1,0.7c0,0,0,0,0,0c0,0.1,1.1,2.4,3.4,2.8c0.1,0,0.2,0.1,0.2,0.2c0,0,0,0.1,0,0.1c-0.1,0.3-0.8,0.6-2,0.8
			c-0.1,0-0.2,0.2-0.2,0.5c0,0.1-0.1,0.2-0.1,0.4c0,0.1-0.1,0.2-0.2,0.2l0,0c-0.1,0-0.2,0-0.3,0c-0.3,0-0.5-0.1-0.9-0.1
			c-0.2,0-0.4,0-0.6,0.1c-0.4,0.1-0.8,0.3-1.2,0.6C14.2,19.6,13.6,20,12.7,20"/>
		<path class="st25" d="M12.7,5.2c0.6,0,2.7,0.2,3.7,2.4c0.3,0.7,0.2,2.1,0.2,3.1c0,0.2,0,0.3,0,0.5l0,0.1l0,0.1
			c0,0,0.2,0.2,0.6,0.2l0,0l0,0c0.3,0,0.5-0.1,0.8-0.2c0,0,0.1,0,0.2,0c0.1,0,0.1,0,0.2,0l0,0c0.2,0.1,0.3,0.2,0.3,0.3
			c0,0.1,0,0.3-0.6,0.5c-0.1,0-0.1,0-0.2,0.1c-0.4,0.1-0.9,0.3-1.1,0.7c-0.1,0.3-0.1,0.5,0.1,0.9c0.1,0.2,1.1,2.5,3.5,2.9
			c0,0,0,0,0,0c0,0.1-0.3,0.4-1.9,0.7c-0.3,0-0.3,0.3-0.4,0.6c0,0.1-0.1,0.2-0.1,0.4c0,0,0,0-0.1,0h0c-0.1,0-0.2,0-0.3,0
			c-0.2,0-0.5-0.1-0.9-0.1c-0.2,0-0.5,0-0.7,0.1c-0.5,0.1-0.9,0.4-1.3,0.7c-0.6,0.4-1.2,0.8-2,0.8c0,0-0.1,0-0.1,0l0,0l0,0
			c0,0,0,0-0.1,0c-0.9,0-1.5-0.4-2-0.8c-0.4-0.3-0.8-0.6-1.3-0.7c-0.2,0-0.5-0.1-0.7-0.1c-0.4,0-0.7,0.1-0.9,0.1c-0.1,0-0.2,0-0.3,0
			c-0.1,0-0.1,0-0.1,0c0-0.1-0.1-0.2-0.1-0.4c-0.1-0.3-0.1-0.6-0.4-0.6c-1.6-0.2-1.9-0.6-1.9-0.7c0,0,0,0,0,0
			c2.4-0.4,3.4-2.8,3.5-2.9c0.2-0.3,0.2-0.6,0.1-0.9c-0.2-0.4-0.8-0.6-1.1-0.7c-0.1,0-0.2-0.1-0.2-0.1c-0.5-0.2-0.6-0.4-0.6-0.5
			c0-0.1,0.3-0.3,0.5-0.3c0,0,0.1,0,0.1,0c0.3,0.2,0.6,0.2,0.9,0.2c0.4,0,0.6-0.2,0.6-0.2l0-0.1l0-0.1c0-0.2,0-0.3,0-0.5
			C8.4,9.7,8.3,8.3,8.7,7.6c1-2.2,3.1-2.4,3.7-2.4c0,0,0.3,0.2,0.3,0.2l0,0 M12.7,4.7L12.7,4.7l0,0.2l-0.3,0c-0.4,0-1.1,0.1-1.9,0.4
			c-0.4,0.2-0.8,0.5-1.2,0.8c-0.4,0.4-0.7,0.9-1,1.4C8,8.3,8.1,9.7,8.1,10.8l0,0c0,0.1,0,0.2,0,0.4c-0.1,0-0.1,0.1-0.3,0.1
			c-0.2,0-0.4-0.1-0.7-0.2c-0.1,0-0.2-0.1-0.3-0.1c-0.2,0-0.3,0-0.5,0.1c-0.2,0.1-0.3,0.3-0.3,0.4c0,0.1,0,0.3,0.2,0.6
			c0.1,0.1,0.3,0.2,0.6,0.3c0.1,0,0.2,0.1,0.2,0.1C7.4,12.6,7.9,12.8,8,13c0.1,0.1,0,0.3-0.1,0.6c0,0,0,0,0,0c0,0.1-0.3,0.7-0.8,1.3
			c-0.3,0.4-0.6,0.6-1,0.9c-0.4,0.3-0.9,0.5-1.4,0.5c-0.2,0-0.3,0.2-0.3,0.4c0,0.1,0,0.1,0,0.2l0,0C4.5,17,4.7,17.2,5,17.3
			c0.4,0.2,0.9,0.3,1.6,0.4c0,0.1,0.1,0.2,0.1,0.4c0,0.1,0.1,0.2,0.1,0.4c0,0.1,0.2,0.3,0.4,0.3c0.1,0,0.2,0,0.4-0.1
			c0.2,0,0.5-0.1,0.9-0.1c0.2,0,0.4,0,0.6,0.1c0.4,0.1,0.7,0.3,1.1,0.6c0.6,0.4,1.2,0.9,2.2,0.9c0,0,0.1,0,0.1,0c0,0,0.1,0,0.1,0
			c1,0,1.7-0.5,2.2-0.9l0,0c0.4-0.3,0.7-0.5,1.1-0.6c0.2,0,0.4-0.1,0.6-0.1c0.3,0,0.6,0,0.9,0.1c0.2,0,0.3,0,0.4,0l0,0h0.1
			c0.2,0,0.4-0.1,0.4-0.3c0-0.1,0.1-0.3,0.1-0.4c0-0.1,0.1-0.3,0.1-0.4c0.7-0.1,1.2-0.3,1.6-0.4c0.3-0.1,0.5-0.3,0.6-0.5
			c0-0.1,0-0.1,0-0.2c0-0.2-0.1-0.4-0.3-0.4c-2.2-0.4-3.2-2.6-3.2-2.7c0,0,0,0,0,0c-0.1-0.2-0.1-0.4-0.1-0.6
			c0.1-0.3,0.6-0.4,0.9-0.5c0.1,0,0.2-0.1,0.2-0.1c0.3-0.1,0.5-0.2,0.7-0.4c0.2-0.2,0.2-0.3,0.2-0.4c0-0.3-0.2-0.5-0.5-0.6
			c-0.1,0-0.2-0.1-0.4-0.1c-0.1,0-0.2,0-0.3,0.1c-0.3,0.1-0.5,0.2-0.7,0.2c-0.1,0-0.2,0-0.2,0c0-0.1,0-0.2,0-0.3l0,0
			c0.1-1.1,0.2-2.5-0.2-3.3c-0.3-0.6-0.6-1-1-1.4c-0.3-0.3-0.8-0.6-1.2-0.8C13.8,4.8,13.1,4.8,12.7,4.7"/>
		<path class="st26" d="M1.5,1.5h21.9v21.9H1.5V1.5z"/>
	</g>
</g>
</svg>
