<?xml version="1.0" encoding="utf-8"?>
<!-- Generator: Adobe Illustrator 21.0.2, SVG Export Plug-In . SVG Version: 6.00 Build 0)  -->
<svg version="1.1" id="Layer_1" xmlns="http://www.w3.org/2000/svg" xmlns:xlink="http://www.w3.org/1999/xlink" x="0px" y="0px"
	 viewBox="0 0 75.3 75.3" style="enable-background:new 0 0 75.3 75.3;" xml:space="preserve">
<style type="text/css">
	.st0{fill:#FACCD0;}
	.st1{fill:#F15C69;}
	.st2{fill:#B6DDA2;}
	.st3{fill:#6DBC45;}
	.st4{fill:#D7E8F9;}
	.st5{fill:#4494E7;}
	.st6{fill:#F5CDA5;}
	.st7{fill:#E6831F;}
	.st8{fill:#BDB5F0;}
	.st9{fill:#665DA3;}
	.st10{fill:#E80014;}
	.st11{fill:#6F8695;}
	.st12{fill:#49AB17;}
	.st13{fill:#FFFFFF;}
	.st14{fill:url(#SVGID_1_);}
	.st15{fill:#665CAC;}
	.st16{fill:url(#a_4_);}
	.st17{opacity:0.99;fill:#FFFFFF;}
	.st18{fill:#1AD14D;}
	.st19{fill:url(#SVGID_2_);}
	.st20{fill:url(#SVGID_3_);}
	.st21{fill:#FDE604;}
	.st22{fill:#3B1E1E;}
	.st23{fill:#6AD124;}
	.st24{fill:#FFFC00;}
	.st25{fill:#020202;}
	.st26{fill:none;}
	.st27{fill:url(#SVGID_4_);}
	.st28{fill:url(#SVGID_5_);}
	.st29{opacity:0.28;}
	.st30{fill:#129B58;}
	.st31{fill:#E5E5E5;}
	.st32{fill:url(#SVGID_6_);}
	.st33{fill:url(#a_5_);}
	.st34{fill:url(#SVGID_7_);}
	.st35{fill:url(#SVGID_8_);}
	.st36{fill:url(#SVGID_9_);}
	.st37{fill:url(#SVGID_10_);}
	.st38{fill:#9FA6EA;}
	.st39{fill:#6772E5;}
	.st40{fill:#F2F2F2;}
	.st41{fill:#F14336;}
	.st42{fill:#D32E2A;}
	.st43{fill:#1DA1F2;}
	.st44{fill:#CC2028;}
	.st45{fill:#7E3EC9;}
	.st46{fill:#007BB6;}
	.st47{fill:#4867AA;}
</style>
<g>
	<g>
		<g>
			<path id="a_7_" class="st21" d="M72.3,54.7c0,0.4,0,1.2,0,1.8c-0.1,1.6-0.2,3.6-0.4,4.5c-0.3,1.4-0.7,2.7-1.3,3.7
				c-0.7,1.3-1.5,2.4-2.5,3.4c-1,1-2.1,1.8-3.4,2.5c-1.1,0.6-2.4,1-3.8,1.3c-0.9,0.2-2.9,0.3-4.4,0.4c-0.6,0-1.5,0-1.8,0l-34.1,0
				c-0.4,0-1.2,0-1.8,0c-1.6-0.1-3.6-0.2-4.5-0.4c-1.4-0.3-2.7-0.7-3.7-1.3c-1.3-0.7-2.4-1.5-3.4-2.5c-1-1-1.8-2.1-2.5-3.4
				c-0.6-1.1-1-2.4-1.3-3.8c-0.2-0.9-0.3-2.9-0.4-4.4c0-0.6,0-1.5,0-1.8l0-34.1c0-0.4,0-1.2,0-1.8c0.1-1.6,0.2-3.6,0.4-4.5
				c0.3-1.4,0.7-2.7,1.3-3.7c0.7-1.3,1.5-2.4,2.5-3.4c1-1,2.1-1.8,3.4-2.5c1.1-0.6,2.4-1,3.8-1.3c0.9-0.2,2.9-0.3,4.4-0.4
				c0.6,0,1.5,0,1.8,0l34.1,0c0.4,0,1.2,0,1.8,0c1.6,0.1,3.6,0.2,4.5,0.4c1.4,0.3,2.7,0.7,3.7,1.3c1.3,0.7,2.4,1.5,3.4,2.5
				c1,1,1.8,2.1,2.5,3.4c0.6,1.1,1,2.4,1.3,3.8c0.2,0.9,0.3,2.9,0.4,4.4c0,0.6,0,1.5,0,1.8L72.3,54.7L72.3,54.7z"/>
		</g>
		<g>
			<path class="st22" d="M37.7,14.5c-14.6,0-26.4,9.3-26.4,20.8c0,7.4,4.9,14,12.4,17.6c-0.4,1.4-2.6,9-2.7,9.6c0,0-0.1,0.4,0.2,0.6
				s0.6,0,0.6,0c0.8-0.1,9.6-6.3,11.2-7.4c1.5,0.2,3.1,0.3,4.7,0.3c14.6,0,26.4-9.3,26.4-20.8C64.1,23.8,52.2,14.5,37.7,14.5
				L37.7,14.5z"/>
			<path class="st21" d="M23.1,42.5c-0.8,0-1.5-0.7-1.5-1.5v-9h-2.4c-0.8,0-1.5-0.7-1.5-1.5c0-0.8,0.7-1.5,1.5-1.5H27
				c0.8,0,1.5,0.7,1.5,1.5c0,0.8-0.7,1.5-1.5,1.5h-2.4v9C24.6,41.9,23.9,42.5,23.1,42.5z M36.4,42.5c-0.6,0-1.1-0.3-1.3-0.7l-0.8-2
				l-4.6,0l-0.8,2c-0.1,0.4-0.6,0.7-1.3,0.7c-0.3,0-0.7-0.1-1-0.2c-0.4-0.2-0.8-0.7-0.4-2.2l3.6-9.6c0.3-0.7,1-1.5,2-1.5
				c1,0,1.8,0.8,2,1.5l3.6,9.6c0.5,1.4,0.1,2-0.4,2.2C37.1,42.5,36.8,42.5,36.4,42.5L36.4,42.5L36.4,42.5z M33.6,37.2l-1.5-4.3
				l-1.5,4.3H33.6L33.6,37.2z M40.2,42.3c-0.8,0-1.5-0.6-1.5-1.4V30.6c0-0.8,0.7-1.5,1.6-1.5s1.6,0.7,1.6,1.5v8.9h3.2
				c0.8,0,1.5,0.6,1.5,1.4c0,0.8-0.7,1.4-1.5,1.4H40.2z M48.7,42.5c-0.8,0-1.5-0.7-1.5-1.5V30.6c0-0.8,0.7-1.5,1.5-1.5
				c0.8,0,1.5,0.7,1.5,1.5v3.3l4.2-4.2c0.2-0.2,0.5-0.3,0.8-0.3c0.4,0,0.8,0.2,1,0.4c0.3,0.3,0.4,0.6,0.4,1c0,0.4-0.1,0.7-0.3,0.9
				L53,35.1l3.7,5c0.2,0.3,0.3,0.7,0.3,1.1c-0.1,0.4-0.3,0.8-0.6,1c-0.3,0.2-0.6,0.3-0.9,0.3c-0.5,0-0.9-0.2-1.2-0.6l-3.6-4.7
				l-0.5,0.5V41C50.2,41.8,49.5,42.5,48.7,42.5L48.7,42.5z"/>
		</g>
	</g>
</g>
</svg>
