<?xml version="1.0" encoding="utf-8"?>
<!-- Generator: Adobe Illustrator 21.0.2, SVG Export Plug-In . SVG Version: 6.00 Build 0)  -->
<svg version="1.1" id="Layer_1" xmlns="http://www.w3.org/2000/svg" xmlns:xlink="http://www.w3.org/1999/xlink" x="0px" y="0px"
	 viewBox="0 0 25 25" style="enable-background:new 0 0 25 25;" xml:space="preserve">
<style type="text/css">
	.st0{fill:#FACCD0;}
	.st1{fill:#F15C69;}
	.st2{fill:#B6DDA2;}
	.st3{fill:#6DBC45;}
	.st4{fill:#D7E8F9;}
	.st5{fill:#4494E7;}
	.st6{fill:#F5CDA5;}
	.st7{fill:#E6831F;}
	.st8{fill:#BDB5F0;}
	.st9{fill:#665DA3;}
	.st10{fill:#E80014;}
	.st11{fill:#6F8695;}
	.st12{fill:#49AB17;}
	.st13{fill:#FFFFFF;}
</style>
<g>
	<g>
		<g>
			<circle class="st12" cx="12.5" cy="12.5" r="11.5"/>
		</g>
	</g>
	<g>
		<path class="st13" d="M3.7,14.6l0.7-1c0.4,0.4,1.1,0.8,1.9,0.8c0.7,0,1-0.3,1-0.7c0-1-3.4-0.3-3.4-2.5c0-1,0.8-1.8,2.2-1.8
			c0.9,0,1.7,0.3,2.3,0.8l-0.7,0.9c-0.5-0.4-1.1-0.6-1.7-0.6c-0.5,0-0.8,0.2-0.8,0.6c0,0.9,3.4,0.3,3.4,2.5c0,1.1-0.8,1.9-2.3,1.9
			C5.1,15.5,4.3,15.2,3.7,14.6z"/>
		<path class="st13" d="M14.5,15.4v-4.1l-1.6,4.1h-0.5l-1.6-4.1v4.1H9.4V9.5h1.7l1.4,3.6L14,9.5h1.8v5.9H14.5z"/>
		<path class="st13" d="M16.5,14.6l0.7-1c0.4,0.4,1.1,0.8,1.9,0.8c0.7,0,1-0.3,1-0.7c0-1-3.4-0.3-3.4-2.5c0-1,0.8-1.8,2.2-1.8
			c0.9,0,1.7,0.3,2.3,0.8l-0.7,0.9c-0.5-0.4-1.1-0.6-1.7-0.6c-0.5,0-0.8,0.2-0.8,0.6c0,0.9,3.4,0.3,3.4,2.5c0,1.1-0.8,1.9-2.3,1.9
			C17.8,15.5,17,15.2,16.5,14.6z"/>
	</g>
</g>
</svg>
