<?xml version="1.0" encoding="utf-8"?>
<!-- Generator: Adobe Illustrator 21.0.2, SVG Export Plug-In . SVG Version: 6.00 Build 0)  -->
<svg version="1.1" id="Layer_1" xmlns="http://www.w3.org/2000/svg" xmlns:xlink="http://www.w3.org/1999/xlink" x="0px" y="0px"
	 viewBox="0 0 43 43" style="enable-background:new 0 0 43 43;" xml:space="preserve">
<style type="text/css">
	.st0{fill:#FACCD0;}
	.st1{fill:#F15C69;}
	.st2{fill:#B6DDA2;}
	.st3{fill:#6DBC45;}
	.st4{fill:#D7E8F9;}
	.st5{fill:#4494E7;}
	.st6{fill:#F5CDA5;}
	.st7{fill:#E6831F;}
	.st8{fill:#BDB5F0;}
	.st9{fill:#665DA3;}
</style>
<g>
	<circle class="st0" cx="21.5" cy="21.5" r="20"/>
	<g>
		<path class="st1" d="M26.3,20.1h1.4v2.1c0,0.8-0.1,1.6-0.4,2.3c-0.3,0.7-0.7,1.3-1.2,1.9c-0.5,0.6-1.1,1-1.7,1.4
			c-0.7,0.4-1.4,0.6-2.2,0.7v2.8h2.8v1.4h-6.9v-1.4h2.8v-2.8c-0.8-0.1-1.5-0.3-2.2-0.7c-0.7-0.4-1.2-0.8-1.7-1.4
			c-0.5-0.6-0.9-1.2-1.2-1.9c-0.3-0.7-0.4-1.5-0.4-2.3v-2.1h1.4v2.1c0,0.7,0.1,1.3,0.4,1.9c0.3,0.6,0.6,1.1,1,1.5
			c0.4,0.4,0.9,0.8,1.5,1c0.6,0.3,1.2,0.4,1.9,0.4s1.3-0.1,1.9-0.4c0.6-0.3,1.1-0.6,1.5-1c0.4-0.4,0.8-0.9,1-1.5
			c0.2-0.6,0.4-1.2,0.4-1.9V20.1z M21.5,25.6c-0.9,0-1.8-0.3-2.4-1c-0.7-0.7-1-1.5-1-2.4v-8.3c0-0.9,0.3-1.8,1-2.4
			c0.7-0.7,1.5-1,2.4-1s1.8,0.3,2.4,1c0.7,0.7,1,1.5,1,2.4v8.3c0,0.9-0.3,1.8-1,2.4C23.3,25.3,22.4,25.6,21.5,25.6z"/>
	</g>
</g>
</svg>
