<?xml version="1.0" encoding="utf-8"?>
<!-- Generator: Adobe Illustrator 21.0.2, SVG Export Plug-In . SVG Version: 6.00 Build 0)  -->
<svg version="1.1" id="Layer_1" xmlns="http://www.w3.org/2000/svg" xmlns:xlink="http://www.w3.org/1999/xlink" x="0px" y="0px"
	 viewBox="0 0 75.3 75.3" style="enable-background:new 0 0 75.3 75.3;" xml:space="preserve">
<style type="text/css">
	.st0{fill:#FACCD0;}
	.st1{fill:#F15C69;}
	.st2{fill:#B6DDA2;}
	.st3{fill:#6DBC45;}
	.st4{fill:#D7E8F9;}
	.st5{fill:#4494E7;}
	.st6{fill:#F5CDA5;}
	.st7{fill:#E6831F;}
	.st8{fill:#BDB5F0;}
	.st9{fill:#665DA3;}
	.st10{fill:#E80014;}
	.st11{fill:#6F8695;}
	.st12{fill:#49AB17;}
	.st13{fill:#FFFFFF;}
	.st14{fill:url(#SVGID_1_);}
	.st15{fill:#665CAC;}
	.st16{fill:url(#a_4_);}
	.st17{opacity:0.99;fill:#FFFFFF;}
	.st18{fill:#1AD14D;}
	.st19{fill:url(#SVGID_2_);}
	.st20{fill:url(#SVGID_3_);}
	.st21{fill:#FDE604;}
	.st22{fill:#3B1E1E;}
	.st23{fill:#6AD124;}
	.st24{fill:#FFFC00;}
	.st25{fill:#020202;}
	.st26{fill:none;}
	.st27{fill:url(#SVGID_4_);}
	.st28{fill:url(#SVGID_5_);}
	.st29{opacity:0.28;}
	.st30{fill:#129B58;}
	.st31{fill:#E5E5E5;}
	.st32{fill:url(#SVGID_6_);}
	.st33{fill:url(#a_5_);}
	.st34{fill:url(#SVGID_7_);}
	.st35{fill:url(#SVGID_8_);}
	.st36{fill:url(#SVGID_9_);}
	.st37{fill:url(#SVGID_10_);}
	.st38{fill:#9FA6EA;}
	.st39{fill:#6772E5;}
	.st40{fill:#F2F2F2;}
	.st41{fill:#F14336;}
	.st42{fill:#D32E2A;}
	.st43{fill:#1DA1F2;}
	.st44{fill:#CC2028;}
	.st45{fill:#7E3EC9;}
	.st46{fill:#007BB6;}
	.st47{fill:#4867AA;}
</style>
<g>
	<g>
		<path class="st24" d="M2.7,55.3v-0.2c0,1.5,0.1,3.1,0.3,4.6c0.3,1.6,0.7,3.2,1.4,4.7c1,2,2.4,3.7,4.2,5.1c1.3,1,2.7,1.8,4.2,2.3
			c2.2,0.7,4.6,1,6.9,1c1.5,0,2.9,0,4.4,0c10.7,0,21.3,0.1,32-0.1c1.4,0,2.8-0.2,4.2-0.4c2.7-0.5,5-1.6,7-3.4
			c2.3-2.1,3.9-4.6,4.6-7.7c0.5-2,0.6-4.1,0.6-6.1v-0.4c0-0.2-0.1-34.8-0.1-35.3c0-1.3-0.1-2.5-0.3-3.7c-0.3-1.5-0.7-3-1.4-4.3
			c-0.8-1.4-1.7-2.7-2.9-3.9c-1.8-1.7-3.9-3-6.4-3.6c-2.2-0.6-4.5-0.7-6.7-0.7c0,0,0,0,0,0H20.5c0,0,0,0,0,0c-1.3,0-2.6,0-3.9,0.2
			c-1.4,0.2-2.8,0.4-4.1,0.9c-2.1,0.8-3.9,2-5.5,3.6c-1.8,1.8-3,3.9-3.7,6.4c-0.6,2.2-0.7,4.4-0.7,6.6"/>
		<path class="st13" d="M38.2,61.7c-0.1,0-0.3,0-0.4,0c-0.1,0-0.2,0-0.3,0c-3,0-5.1-1.4-6.9-2.7c-1.3-0.9-2.5-1.8-3.9-2
			c-0.7-0.1-1.4-0.2-2.1-0.2c-1.2,0-2.2,0.2-2.9,0.3c-0.4,0.1-0.8,0.2-1.1,0.2c-0.3,0-0.7-0.1-0.8-0.6c-0.1-0.4-0.2-0.8-0.3-1.2
			c-0.2-1-0.4-1.5-0.7-1.6c-3.8-0.6-6.1-1.5-6.5-2.5c0-0.1-0.1-0.2-0.1-0.3c0-0.3,0.2-0.6,0.5-0.6c3-0.5,5.7-2.1,8-4.8
			c1.8-2.1,2.6-4,2.7-4.2c0,0,0,0,0,0c0.4-0.9,0.5-1.7,0.3-2.3c-0.5-1.2-2.1-1.7-3.2-2c-0.3-0.1-0.5-0.2-0.7-0.2
			c-1-0.4-2.5-1.2-2.3-2.3c0.2-0.8,1.2-1.4,2.1-1.4c0.2,0,0.4,0,0.6,0.1c1,0.5,1.8,0.7,2.6,0.7c0.9,0,1.4-0.4,1.5-0.5
			c0-0.5-0.1-1-0.1-1.5c-0.2-3.5-0.5-7.8,0.6-10.3c3.3-7.4,10.3-8,12.4-8c0.3,0,0.7,0,1,0c2.1,0,9.1,0.6,12.4,8
			c1.1,2.5,0.8,6.8,0.6,10.3l0,0.2c0,0.5-0.1,0.9-0.1,1.4c0.1,0.1,0.5,0.4,1.4,0.5c0.7,0,1.5-0.3,2.4-0.7c0.3-0.1,0.6-0.2,0.8-0.2
			c0.3,0,0.6,0.1,0.9,0.2l0,0c0.8,0.3,1.3,0.8,1.3,1.4c0,0.5-0.4,1.3-2.3,2.1c-0.2,0.1-0.5,0.2-0.7,0.2c-1.1,0.3-2.7,0.9-3.2,2
			c-0.3,0.6-0.2,1.4,0.3,2.3c0,0,0,0,0,0c0.1,0.3,3.4,7.8,10.7,9c0.3,0.1,0.6,0.3,0.5,0.6c0,0.1,0,0.2-0.1,0.3
			c-0.4,1-2.7,1.9-6.5,2.5c-0.4,0.1-0.5,0.6-0.7,1.6c-0.1,0.4-0.2,0.8-0.3,1.2c-0.1,0.3-0.4,0.6-0.8,0.6H55c-0.3,0-0.6,0-1.1-0.1
			c-0.8-0.2-1.7-0.3-2.9-0.3c-0.7,0-1.4,0.1-2.1,0.2c-1.4,0.2-2.6,1.1-3.9,2C43.3,60.2,41.2,61.7,38.2,61.7"/>
		<path class="st25" d="M38.4,14.4c2,0,8.7,0.5,11.9,7.7c1,2.3,0.8,6.6,0.6,10c0,0.5-0.1,1.1-0.1,1.6l0,0.2l0.1,0.2
			c0.1,0.1,0.6,0.6,1.8,0.7l0,0l0,0c0.8,0,1.7-0.3,2.7-0.7c0.1-0.1,0.3-0.1,0.5-0.1c0.2,0,0.5,0,0.7,0.1l0,0
			c0.5,0.2,0.9,0.5,0.9,0.8c0,0.2-0.1,0.8-1.9,1.5c-0.2,0.1-0.4,0.1-0.7,0.2c-1.2,0.4-3,0.9-3.6,2.4c-0.3,0.8-0.2,1.7,0.3,2.8
			c0.2,0.5,3.6,8.1,11.2,9.4c0,0,0,0.1,0,0.1c-0.1,0.3-0.9,1.4-6,2.1c-0.8,0.1-1,1-1.2,2.1c-0.1,0.4-0.2,0.7-0.3,1.1
			c0,0.1,0,0.1-0.2,0.1h0c-0.2,0-0.6,0-1-0.1c-0.7-0.1-1.7-0.3-3-0.3c-0.7,0-1.4,0.1-2.2,0.2c-1.6,0.3-2.8,1.2-4.2,2.1
			c-1.8,1.3-3.7,2.6-6.5,2.6c-0.1,0-0.2,0-0.4,0l0,0l0,0c-0.1,0-0.1,0-0.2,0c-2.9,0-4.7-1.3-6.5-2.6c-1.3-1-2.6-1.9-4.2-2.1
			c-0.7-0.1-1.5-0.2-2.2-0.2c-1.3,0-2.3,0.2-3,0.3c-0.4,0.1-0.7,0.1-1,0.1c-0.2,0-0.2,0-0.2-0.1c-0.1-0.4-0.2-0.8-0.3-1.1
			c-0.2-1-0.4-1.9-1.2-2.1c-5.1-0.8-5.9-1.8-6.1-2.1c0,0,0-0.1,0-0.1c7.6-1.3,11-8.9,11.2-9.4c0.5-1.1,0.6-2,0.3-2.8
			c-0.6-1.4-2.4-2-3.6-2.4c-0.3-0.1-0.5-0.2-0.7-0.2c-1.5-0.6-2-1.2-1.9-1.6c0.1-0.4,0.8-0.9,1.5-0.9c0.1,0,0.3,0,0.4,0.1
			c1.1,0.5,2,0.7,2.9,0.7c1.3,0,1.9-0.6,2-0.7l0.1-0.2l0-0.2c0-0.5-0.1-1-0.1-1.6c-0.2-3.4-0.5-7.7,0.6-10c3.2-7.1,9.9-7.7,11.9-7.7
			c0,0,0.9,0.5,0.9,0.5l-0.1,0 M38.2,12.9h0.2l-0.1,0.5l-0.9,0c-1.2,0-3.5,0.2-5.9,1.3c-1.4,0.6-2.7,1.5-3.8,2.5
			c-1.3,1.2-2.4,2.8-3.2,4.5c-1.2,2.6-0.9,7-0.7,10.5l0,0c0,0.4,0,0.8,0.1,1.2c-0.2,0.1-0.4,0.2-0.9,0.2c-0.7,0-1.4-0.2-2.3-0.6
			c-0.3-0.1-0.6-0.2-0.9-0.2c-0.5,0-1.1,0.2-1.6,0.4c-0.6,0.4-1,0.9-1.1,1.4c-0.1,0.4-0.1,1.1,0.7,1.8c0.4,0.4,1.1,0.8,1.9,1.1
			c0.2,0.1,0.5,0.2,0.8,0.3c1,0.3,2.4,0.8,2.8,1.7c0.2,0.5,0.1,1-0.2,1.8c0,0,0,0,0,0.1c-0.1,0.2-0.9,2.1-2.6,4.1
			c-1,1.1-2,2.1-3.2,2.8c-1.4,0.9-2.9,1.5-4.4,1.7c-0.5,0.1-1,0.6-1,1.1c0,0.2,0,0.4,0.1,0.7l0,0c0.2,0.6,0.8,1.1,1.8,1.5
			c1.1,0.5,2.8,1,5.1,1.3c0.1,0.2,0.2,0.8,0.3,1.1c0.1,0.4,0.2,0.8,0.3,1.2c0.1,0.5,0.5,1,1.4,1c0.3,0,0.7-0.1,1.2-0.2
			c0.7-0.1,1.6-0.3,2.7-0.3c0.6,0,1.3,0.1,1.9,0.2c1.3,0.2,2.4,1,3.6,1.9c1.9,1.3,4,2.8,7.2,2.8c0.1,0,0.2,0,0.3,0
			c0.1,0,0.2,0,0.4,0c3.2,0,5.3-1.5,7.2-2.8l0,0c1.3-0.9,2.4-1.7,3.6-1.9c0.7-0.1,1.3-0.2,1.9-0.2c1.1,0,2,0.1,2.7,0.3
			c0.5,0.1,0.9,0.1,1.2,0.1l0,0H55c0.6,0,1.2-0.4,1.3-1c0.1-0.4,0.2-0.8,0.3-1.2c0.1-0.3,0.2-0.9,0.3-1.1c2.2-0.4,4-0.8,5.1-1.3
			c0.9-0.4,1.5-0.9,1.8-1.5C64,51.3,64,51.2,64,51c0-0.6-0.4-1.2-1-1.3c-7-1.2-10.1-8.3-10.3-8.6c0,0,0,0,0-0.1
			c-0.4-0.7-0.4-1.3-0.2-1.8c0.4-0.9,1.8-1.4,2.8-1.7c0.3-0.1,0.5-0.2,0.8-0.3c1-0.4,1.6-0.8,2.1-1.3c0.5-0.6,0.6-1.1,0.6-1.4
			c0-0.8-0.7-1.6-1.7-2c-0.3-0.1-0.7-0.2-1.1-0.2c-0.3,0-0.7,0-1.1,0.2c-0.8,0.4-1.6,0.6-2.2,0.6c-0.3,0-0.6-0.1-0.7-0.2
			c0-0.3,0-0.7,0.1-1l0-0.2c0.2-3.6,0.5-8-0.7-10.6c-0.8-1.8-1.9-3.3-3.2-4.6c-1.1-1-2.4-1.9-3.8-2.5c-2.5-1.1-4.8-1.3-6-1.3"/>
		<path class="st26" d="M2.7,2.5h70v70h-70V2.5z"/>
	</g>
</g>
</svg>
