<?xml version="1.0" encoding="utf-8"?>
<!-- Generator: Adobe Illustrator 21.0.2, SVG Export Plug-In . SVG Version: 6.00 Build 0)  -->
<svg version="1.1" id="Layer_1" xmlns="http://www.w3.org/2000/svg" xmlns:xlink="http://www.w3.org/1999/xlink" x="0px" y="0px"
	 viewBox="0 0 25 25" style="enable-background:new 0 0 25 25;" xml:space="preserve">
<style type="text/css">
	.st0{fill:#FACCD0;}
	.st1{fill:#F15C69;}
	.st2{fill:#B6DDA2;}
	.st3{fill:#6DBC45;}
	.st4{fill:#D7E8F9;}
	.st5{fill:#4494E7;}
	.st6{fill:#F5CDA5;}
	.st7{fill:#E6831F;}
	.st8{fill:#BDB5F0;}
	.st9{fill:#665DA3;}
	.st10{fill:#E80014;}
	.st11{fill:#6F8695;}
	.st12{fill:#49AB17;}
	.st13{fill:#FFFFFF;}
	.st14{fill:url(#SVGID_1_);}
	.st15{fill:#665CAC;}
	.st16{fill:url(#a_4_);}
	.st17{opacity:0.99;fill:#FFFFFF;}
	.st18{fill:#1AD14D;}
	.st19{fill:url(#SVGID_2_);}
	.st20{fill:url(#SVGID_3_);}
	.st21{fill:#FDE604;}
	.st22{fill:#3B1E1E;}
	.st23{fill:#6AD124;}
	.st24{fill:#FFFC00;}
	.st25{fill:#020202;}
	.st26{fill:none;}
	.st27{fill:url(#SVGID_4_);}
	.st28{fill:url(#SVGID_5_);}
	.st29{opacity:0.28;}
	.st30{fill:#129B58;}
	.st31{fill:#E5E5E5;}
	.st32{fill:url(#SVGID_6_);}
	.st33{fill:url(#a_5_);}
	.st34{fill:url(#SVGID_7_);}
	.st35{fill:url(#SVGID_8_);}
	.st36{fill:url(#SVGID_9_);}
	.st37{fill:url(#SVGID_10_);}
	.st38{fill:#9FA6EA;}
	.st39{fill:#6772E5;}
	.st40{fill:#F2F2F2;}
	.st41{fill:#F14336;}
	.st42{fill:#D32E2A;}
	.st43{fill:#1DA1F2;}
	.st44{fill:#CC2028;}
	.st45{fill:#7E3EC9;}
	.st46{fill:#007BB6;}
	.st47{fill:#4867AA;}
</style>
<g>
	<g>
		<path class="st13" d="M22.6,11L22.6,11c0-0.2,0-0.4,0-0.5c0-1.4-0.1-2.8-0.4-4.2c-0.5-2.3-2-3.7-4.4-4.2c-1.3-0.3-2.6-0.4-3.9-0.4
			c-0.4,0-0.8,0-1.3,0c-0.4,0-0.8,0-1.3,0c-1.3,0-2.6,0.1-3.9,0.4C4.9,2.6,3.4,4,2.9,6.3c-0.3,1.4-0.4,2.8-0.4,4.2
			c0,0.2,0,0.4,0,0.5h0c0,0,0,0,0,0c0,0,0,0,0,0h0c0,0.2,0,0.4,0,0.5c0,1.4,0.1,2.8,0.4,4.2C3.4,18,4.8,19.4,7.1,20v2.5
			c0,0.8,0.9,1.1,1.5,0.6l2.5-2.7c0.1,0,0.1,0,0.2,0c0.4,0,0.8,0,1.3,0c0.4,0,0.8,0,1.3,0c1.3,0,2.6-0.1,3.9-0.4
			c2.4-0.5,3.9-1.9,4.4-4.2c0.3-1.4,0.4-2.8,0.4-4.2C22.6,11.4,22.6,11.3,22.6,11L22.6,11C22.6,11.1,22.6,11.1,22.6,11
			C22.6,11,22.6,11,22.6,11z"/>
		<path class="st15" d="M21.1,11L21.1,11c0-0.2,0-0.3,0-0.5c0-1.2-0.1-2.3-0.4-3.5C20.3,5.2,19,4,16.9,3.6c-1.1-0.2-2.2-0.3-3.3-0.3
			c-0.4,0-0.7,0-1.1,0c-0.4,0-0.7,0-1.1,0c-1.1,0-2.2,0.1-3.3,0.3C6,4,4.7,5.2,4.3,7.1C4,8.2,3.9,9.4,3.9,10.6c0,0.2,0,0.3,0,0.5h0
			c0,0,0,0,0,0c0,0,0,0,0,0h0c0,0.2,0,0.3,0,0.5c0,1.2,0.1,2.3,0.4,3.5c0.4,1.8,1.5,2.9,3.3,3.4v4c0,0.3,0.3,0.4,0.5,0.2l3.5-3.7
			c0.3,0,0.6,0,0.9,0c0.4,0,0.7,0,1.1,0c1.1,0,2.2-0.1,3.3-0.3c2.1-0.4,3.3-1.6,3.8-3.5c0.3-1.2,0.4-2.3,0.4-3.5
			C21.1,11.4,21.1,11.2,21.1,11L21.1,11C21.1,11.1,21.1,11.1,21.1,11C21.1,11,21.1,11,21.1,11z"/>
	</g>
	<path class="st13" d="M16.8,13.8c-0.3-0.3-0.7-0.5-1-0.8c-0.7-0.5-1.3-0.5-1.9,0.3c-0.3,0.4-0.7,0.5-1.1,0.3
		c-1.2-0.5-2.1-1.4-2.6-2.6c-0.2-0.5-0.2-1,0.3-1.4C10.7,9.4,11,9.1,11,8.7C11,8.1,9.6,6.2,9,6C8.8,5.9,8.6,6,8.4,6
		C7.1,6.5,6.5,7.5,7.1,8.8c1.5,3.7,4.2,6.3,7.9,7.9c0.2,0.1,0.4,0.1,0.6,0.2c0.8,0,1.8-0.8,2.1-1.6C17.8,14.4,17.3,14.1,16.8,13.8
		L16.8,13.8z"/>
	<path class="st13" d="M13.6,6.6c-0.3,0-0.6-0.2-0.7,0.2c-0.1,0.4,0.3,0.4,0.6,0.4c1.8,0.4,2.4,1,2.7,2.8c0,0.3,0,0.7,0.4,0.6
		c0.3,0,0.2-0.4,0.2-0.6C16.8,8.4,15.4,6.8,13.6,6.6L13.6,6.6z"/>
	<path class="st13" d="M13.8,8c-0.2,0-0.4,0-0.4,0.2c-0.1,0.3,0.1,0.4,0.3,0.4c0.7,0.1,1.1,0.5,1.2,1.3c0,0.2,0.1,0.4,0.3,0.3
		c0.3,0,0.3-0.3,0.3-0.5C15.5,8.9,14.6,8,13.8,8L13.8,8z"/>
	<path class="st13" d="M13.1,5.8c2.9,0.4,4.2,1.8,4.5,4.7c0,0.3-0.1,0.7,0.3,0.7c0.4,0,0.3-0.4,0.3-0.7c0-2.7-2.3-5.2-5.1-5.3
		c-0.2,0-0.6-0.1-0.7,0.3C12.5,5.8,12.8,5.8,13.1,5.8L13.1,5.8z"/>
</g>
</svg>
