<?xml version="1.0" encoding="utf-8"?>
<!-- Generator: Adobe Illustrator 21.0.2, SVG Export Plug-In . SVG Version: 6.00 Build 0)  -->
<svg version="1.1" id="Layer_1" xmlns="http://www.w3.org/2000/svg" xmlns:xlink="http://www.w3.org/1999/xlink" x="0px" y="0px"
	 viewBox="0 0 172 172" style="enable-background:new 0 0 172 172;" xml:space="preserve">
<style type="text/css">
	.st0{fill:#FACCD0;}
	.st1{fill:#F15C69;}
	.st2{fill:#B6DDA2;}
	.st3{fill:#6DBC45;}
	.st4{fill:#D7E8F9;}
	.st5{fill:#4494E7;}
	.st6{fill:#F5CDA5;}
	.st7{fill:#E6831F;}
	.st8{fill:#BDB5F0;}
	.st9{fill:#665DA3;}
	.st10{fill:#E80014;}
	.st11{fill:#6F8695;}
</style>
<g>
	<path class="st11" d="M121.9,75.8h10.2v15.4c0,6-1.1,11.6-3.2,16.8c-2.1,5.2-5,9.9-8.7,14c-3.7,4.1-8,7.5-13,10.1
		c-5,2.6-10.3,4.2-16.1,4.9v20.8h20.5V168H60.4v-10.2h20.5v-20.8c-5.8-0.6-11.1-2.3-16.1-4.9c-5-2.6-9.3-6-13-10.1
		c-3.7-4.1-6.6-8.8-8.7-14c-2.1-5.2-3.2-10.8-3.2-16.8V75.8h10.2v15.4c0,4.9,0.9,9.6,2.8,13.9c1.9,4.4,4.4,8.2,7.7,11.4
		c3.3,3.3,7.1,5.8,11.4,7.7c4.4,1.9,9,2.8,13.9,2.8s9.5-0.9,13.9-2.8c4.4-1.9,8.2-4.4,11.5-7.7c3.3-3.3,5.8-7.1,7.7-11.4
		c1.9-4.4,2.8-9,2.8-13.9V75.8z M86,116.7c-7,0-13.1-2.5-18.1-7.5c-5-5-7.5-11-7.5-18.1V29.6c0-7,2.5-13.1,7.5-18.1
		C72.9,6.5,79,4,86,4s13.1,2.5,18.1,7.5c5,5,7.5,11,7.5,18.1v61.5c0,7-2.5,13.1-7.5,18.1C99.1,114.2,93,116.7,86,116.7z"/>
</g>
</svg>
