<?xml version="1.0" encoding="utf-8"?>
<!-- Generator: Adobe Illustrator 21.0.2, SVG Export Plug-In . SVG Version: 6.00 Build 0)  -->
<svg version="1.1" id="Layer_1" xmlns="http://www.w3.org/2000/svg" xmlns:xlink="http://www.w3.org/1999/xlink" x="0px" y="0px"
	 viewBox="0 0 25 25" style="enable-background:new 0 0 25 25;" xml:space="preserve">
<style type="text/css">
	.st0{fill:#FACCD0;}
	.st1{fill:#F15C69;}
	.st2{fill:#B6DDA2;}
	.st3{fill:#6DBC45;}
	.st4{fill:#D7E8F9;}
	.st5{fill:#4494E7;}
	.st6{fill:#F5CDA5;}
	.st7{fill:#E6831F;}
	.st8{fill:#BDB5F0;}
	.st9{fill:#665DA3;}
	.st10{fill:#E80014;}
	.st11{fill:#6F8695;}
	.st12{fill:#49AB17;}
	.st13{fill:#FFFFFF;}
</style>
<g>
	<circle class="st12" cx="12.5" cy="12.5" r="11.5"/>
	<g>
		<path class="st13" d="M5.1,12.5c0-1.6,1.2-2.8,2.8-2.8c1.6,0,2.8,1.2,2.8,2.8c0,1.6-1.2,2.8-2.8,2.8C6.3,15.3,5.1,14.1,5.1,12.5z
			 M9.5,12.5c0-1-0.6-1.8-1.6-1.8s-1.6,0.8-1.6,1.8c0,1,0.6,1.8,1.6,1.8S9.5,13.5,9.5,12.5z"/>
		<path class="st13" d="M12.5,15.2v-4.4H11v-1h4.3v1h-1.6v4.4H12.5z"/>
		<path class="st13" d="M17.2,15.2v-4.4h-1.6v-1h4.3v1h-1.6v4.4H17.2z"/>
	</g>
</g>
</svg>
