<?xml version="1.0" encoding="utf-8"?>
<!-- Generator: Adobe Illustrator 21.0.2, SVG Export Plug-In . SVG Version: 6.00 Build 0)  -->
<svg version="1.1" id="Layer_1" xmlns="http://www.w3.org/2000/svg" xmlns:xlink="http://www.w3.org/1999/xlink" x="0px" y="0px"
	 viewBox="0 0 211 211" style="enable-background:new 0 0 211 211;" xml:space="preserve">
<style type="text/css">
	.st0{fill:#FACCD0;}
	.st1{fill:#F15C69;}
	.st2{fill:#B6DDA2;}
	.st3{fill:#6DBC45;}
	.st4{fill:#D7E8F9;}
	.st5{fill:#4494E7;}
	.st6{fill:#F5CDA5;}
	.st7{fill:#E6831F;}
	.st8{fill:#BDB5F0;}
	.st9{fill:#665DA3;}
	.st10{fill:#E80014;}
	.st11{fill:#6F8695;}
	.st12{fill:#49AB17;}
	.st13{fill:#FFFFFF;}
	.st14{fill:url(#SVGID_1_);}
	.st15{fill:#665CAC;}
	.st16{fill:url(#a_4_);}
	.st17{opacity:0.99;fill:#FFFFFF;}
	.st18{fill:#1AD14D;}
	.st19{fill:url(#SVGID_2_);}
	.st20{fill:url(#SVGID_3_);}
	.st21{fill:#FDE604;}
	.st22{fill:#3B1E1E;}
	.st23{fill:#6AD124;}
	.st24{fill:#FFFC00;}
	.st25{fill:#020202;}
	.st26{fill:none;}
	.st27{fill:url(#SVGID_4_);}
	.st28{fill:url(#SVGID_5_);}
	.st29{opacity:0.28;}
	.st30{fill:#129B58;}
	.st31{fill:#E5E5E5;}
	.st32{fill:url(#SVGID_6_);}
	.st33{fill:url(#a_5_);}
	.st34{fill:url(#SVGID_7_);}
	.st35{fill:url(#SVGID_8_);}
	.st36{fill:url(#SVGID_9_);}
	.st37{fill:url(#SVGID_10_);}
	.st38{fill:#9FA6EA;}
	.st39{fill:#6772E5;}
	.st40{fill:#F2F2F2;}
	.st41{fill:#F14336;}
	.st42{fill:#D32E2A;}
	.st43{fill:#1DA1F2;}
	.st44{fill:#CC2028;}
	.st45{fill:#7E3EC9;}
	.st46{fill:#007BB6;}
	.st47{fill:#4867AA;}
</style>
<g>
	<g>
		<g>
			<path class="st38" d="M13.4,100.2v37.7c0,6.3,3,11.8,8.9,16.4c4.2,3.3,9.2,5.4,14.8,6.3h37.7v-60.4H13.4z"/>
			<rect x="136.2" y="100.2" class="st38" width="61.4" height="60.4"/>
		</g>
	</g>
	<path class="st38" d="M34,112.6V98.5c0-19.8,7-36.7,20.9-50.6C68.8,34,85.7,27.1,105.5,27.1c19.8,0,36.7,7,50.6,20.9
		C170,61.8,177,78.7,177,98.5v14.1h20.6V98.5c0-25.3-9-46.9-26.9-65c-17.9-18.1-39.7-27.1-65.2-27.1c-25.6,0-47.3,9-65.2,27.1
		c-17.9,18.1-26.9,39.7-26.9,65v14.1H34z"/>
	<circle class="st39" cx="105.6" cy="123.6" r="81"/>
	<g>
		<g>
			<g>
				<g>
					<g>
						<g>
							<path class="st13" d="M83,96.5c-1.3-1.3-2.9-2-4.7-2s-3.4,0.7-4.7,2s-2,2.9-2,4.7s0.7,3.4,2,4.7s2.8,2,4.7,2
								c1.8,0,3.4-0.7,4.7-2s2-2.8,2-4.7C84.9,99.5,84.3,97.8,83,96.5z"/>
							<path class="st13" d="M138.3,96.9c-1.3-1.3-2.9-2-4.7-2c-1.8,0-3.4,0.7-4.7,2c-1.3,1.3-2,2.9-2,4.7s0.7,3.4,2,4.7
								c1.3,1.3,2.8,2,4.7,2c1.8,0,3.4-0.7,4.7-2c1.3-1.3,2-2.8,2-4.7C140.2,99.8,139.6,98.2,138.3,96.9z"/>
						</g>
						<path class="st13" d="M133.1,114.5c2,4.1,2.9,8.5,2.9,13.1c0,8.3-2.9,15.3-8.8,21.4c-5.9,5.9-13.1,8.8-21.4,8.8
							s-15.3-2.9-21.4-8.8c-5.9-5.9-8.8-13.1-8.8-21.4c0-4.7,1-9,2.9-13.1h-8.6c-1.5,4.1-2.3,8.5-2.3,13.1c0,5.2,1,10.1,2.9,14.8
							c2,4.6,4.7,8.6,8.2,12.1c3.6,3.6,7.5,6.2,12.1,8.2c4.7,2,9.6,2.9,14.8,2.9s10.1-1,14.8-2.9c4.6-2,8.6-4.7,12.1-8.2
							c3.6-3.6,6.2-7.5,8.2-12.1c2-4.7,2.9-9.6,2.9-14.8c0-4.6-0.8-9-2.3-13.1H133.1z"/>
					</g>
				</g>
			</g>
		</g>
	</g>
	<path class="st38" d="M177,160.6v8.1h-71.5v20.6h61.4c8.6,0,15.9-3,21.8-9.1c5.4-5.6,8.3-12.1,8.8-19.6H177z"/>
</g>
</svg>
